<?xml version="1.0" encoding="UTF-8" standalone="no"?>
<!DOCTYPE svg PUBLIC "-//W3C//DTD SVG 1.1//EN"
 "http://www.w3.org/Graphics/SVG/1.1/DTD/svg11.dtd">
<!-- Generated by graphviz version 2.43.0 (0)
 -->
<!-- Title: G Pages: 1 -->
<svg width="788pt" height="926pt"
 viewBox="0.00 0.00 787.50 926.00" xmlns="http://www.w3.org/2000/svg" xmlns:xlink="http://www.w3.org/1999/xlink">
<g id="graph0" class="graph" transform="scale(1 1) rotate(0) translate(4 922)">
<title>G</title>
<polygon fill="#ffd480" stroke="transparent" points="-4,4 -4,-922 783.5,-922 783.5,4 -4,4"/>
<text text-anchor="middle" x="389.75" y="-890" font-family="Verdana" font-size="30.00" fill="#ffffff">AST</text>
<!-- node_0x5ed7f9939600 -->
<g id="node1" class="node">
<title>node_0x5ed7f9939600</title>
<path fill="#9966ff" stroke="#ffe9c7" d="M355,-830.5C355,-830.5 411,-830.5 411,-830.5 417,-830.5 423,-836.5 423,-842.5 423,-842.5 423,-864.5 423,-864.5 423,-870.5 417,-876.5 411,-876.5 411,-876.5 355,-876.5 355,-876.5 349,-876.5 343,-870.5 343,-864.5 343,-864.5 343,-842.5 343,-842.5 343,-836.5 349,-830.5 355,-830.5"/>
<text text-anchor="middle" x="383" y="-861.3" font-family="Times,serif" font-size="14.00">KeyWord</text>
<polyline fill="none" stroke="#ffe9c7" points="343,-853.5 423,-853.5 "/>
<text text-anchor="middle" x="383" y="-838.3" font-family="Times,serif" font-size="14.00">;</text>
</g>
<!-- node_0x5ed7f9933250 -->
<g id="node2" class="node">
<title>node_0x5ed7f9933250</title>
<path fill="#fca103" stroke="#ffe9c7" d="M300.5,-747.5C300.5,-747.5 357.5,-747.5 357.5,-747.5 363.5,-747.5 369.5,-753.5 369.5,-759.5 369.5,-759.5 369.5,-781.5 369.5,-781.5 369.5,-787.5 363.5,-793.5 357.5,-793.5 357.5,-793.5 300.5,-793.5 300.5,-793.5 294.5,-793.5 288.5,-787.5 288.5,-781.5 288.5,-781.5 288.5,-759.5 288.5,-759.5 288.5,-753.5 294.5,-747.5 300.5,-747.5"/>
<text text-anchor="middle" x="329" y="-778.3" font-family="Times,serif" font-size="14.00">Func Def</text>
<polyline fill="none" stroke="#ffe9c7" points="288.5,-770.5 369.5,-770.5 "/>
<text text-anchor="middle" x="329" y="-755.3" font-family="Times,serif" font-size="14.00">0</text>
</g>
<!-- node_0x5ed7f9939600&#45;&gt;node_0x5ed7f9933250 -->
<g id="edge1" class="edge">
<title>node_0x5ed7f9939600&#45;&gt;node_0x5ed7f9933250</title>
<path fill="none" stroke="#9acd32" d="M368.24,-830.37C362.41,-821.62 355.61,-811.41 349.32,-801.99"/>
<polygon fill="#9acd32" stroke="#9acd32" points="352.2,-799.99 343.74,-793.61 346.37,-803.87 352.2,-799.99"/>
</g>
<!-- node_0x5ed7f9939660 -->
<g id="node24" class="node">
<title>node_0x5ed7f9939660</title>
<path fill="#fca103" stroke="#ffe9c7" d="M408.5,-747.5C408.5,-747.5 465.5,-747.5 465.5,-747.5 471.5,-747.5 477.5,-753.5 477.5,-759.5 477.5,-759.5 477.5,-781.5 477.5,-781.5 477.5,-787.5 471.5,-793.5 465.5,-793.5 465.5,-793.5 408.5,-793.5 408.5,-793.5 402.5,-793.5 396.5,-787.5 396.5,-781.5 396.5,-781.5 396.5,-759.5 396.5,-759.5 396.5,-753.5 402.5,-747.5 408.5,-747.5"/>
<text text-anchor="middle" x="437" y="-778.3" font-family="Times,serif" font-size="14.00">Func Def</text>
<polyline fill="none" stroke="#ffe9c7" points="396.5,-770.5 477.5,-770.5 "/>
<text text-anchor="middle" x="437" y="-755.3" font-family="Times,serif" font-size="14.00">2</text>
</g>
<!-- node_0x5ed7f9939600&#45;&gt;node_0x5ed7f9939660 -->
<g id="edge23" class="edge">
<title>node_0x5ed7f9939600&#45;&gt;node_0x5ed7f9939660</title>
<path fill="none" stroke="#ff2b00" d="M397.76,-830.37C403.59,-821.62 410.39,-811.41 416.68,-801.99"/>
<polygon fill="#ff2b00" stroke="#ff2b00" points="419.63,-803.87 422.26,-793.61 413.8,-799.99 419.63,-803.87"/>
</g>
<!-- node_0x5ed7f9933220 -->
<g id="node3" class="node">
<title>node_0x5ed7f9933220</title>
<path fill="#9966ff" stroke="#ffe9c7" d="M193,-664.5C193,-664.5 249,-664.5 249,-664.5 255,-664.5 261,-670.5 261,-676.5 261,-676.5 261,-698.5 261,-698.5 261,-704.5 255,-710.5 249,-710.5 249,-710.5 193,-710.5 193,-710.5 187,-710.5 181,-704.5 181,-698.5 181,-698.5 181,-676.5 181,-676.5 181,-670.5 187,-664.5 193,-664.5"/>
<text text-anchor="middle" x="221" y="-695.3" font-family="Times,serif" font-size="14.00">KeyWord</text>
<polyline fill="none" stroke="#ffe9c7" points="181,-687.5 261,-687.5 "/>
<text text-anchor="middle" x="221" y="-672.3" font-family="Times,serif" font-size="14.00">int</text>
</g>
<!-- node_0x5ed7f9933250&#45;&gt;node_0x5ed7f9933220 -->
<g id="edge2" class="edge">
<title>node_0x5ed7f9933250&#45;&gt;node_0x5ed7f9933220</title>
<path fill="none" stroke="#9acd32" d="M299.49,-747.37C286.87,-737.9 271.99,-726.74 258.59,-716.69"/>
<polygon fill="#9acd32" stroke="#9acd32" points="260.58,-713.81 250.48,-710.61 256.38,-719.41 260.58,-713.81"/>
</g>
<!-- node_0x5ed7f9933280 -->
<g id="node4" class="node">
<title>node_0x5ed7f9933280</title>
<path fill="#fc0303" stroke="#ffe9c7" d="M291.5,-664.5C291.5,-664.5 366.5,-664.5 366.5,-664.5 372.5,-664.5 378.5,-670.5 378.5,-676.5 378.5,-676.5 378.5,-698.5 378.5,-698.5 378.5,-704.5 372.5,-710.5 366.5,-710.5 366.5,-710.5 291.5,-710.5 291.5,-710.5 285.5,-710.5 279.5,-704.5 279.5,-698.5 279.5,-698.5 279.5,-676.5 279.5,-676.5 279.5,-670.5 285.5,-664.5 291.5,-664.5"/>
<text text-anchor="middle" x="329" y="-695.3" font-family="Times,serif" font-size="14.00">Parameters</text>
<polyline fill="none" stroke="#ffe9c7" points="279.5,-687.5 378.5,-687.5 "/>
<text text-anchor="middle" x="329" y="-672.3" font-family="Times,serif" font-size="14.00">∅</text>
</g>
<!-- node_0x5ed7f9933250&#45;&gt;node_0x5ed7f9933280 -->
<g id="edge3" class="edge">
<title>node_0x5ed7f9933250&#45;&gt;node_0x5ed7f9933280</title>
<path fill="none" stroke="#ff2b00" d="M329,-747.37C329,-739.15 329,-729.66 329,-720.73"/>
<polygon fill="#ff2b00" stroke="#ff2b00" points="332.5,-720.61 329,-710.61 325.5,-720.61 332.5,-720.61"/>
</g>
<!-- node_0x5ed7f9939270 -->
<g id="node5" class="node">
<title>node_0x5ed7f9939270</title>
<path fill="#9966ff" stroke="#ffe9c7" d="M301,-581.5C301,-581.5 357,-581.5 357,-581.5 363,-581.5 369,-587.5 369,-593.5 369,-593.5 369,-615.5 369,-615.5 369,-621.5 363,-627.5 357,-627.5 357,-627.5 301,-627.5 301,-627.5 295,-627.5 289,-621.5 289,-615.5 289,-615.5 289,-593.5 289,-593.5 289,-587.5 295,-581.5 301,-581.5"/>
<text text-anchor="middle" x="329" y="-612.3" font-family="Times,serif" font-size="14.00">KeyWord</text>
<polyline fill="none" stroke="#ffe9c7" points="289,-604.5 369,-604.5 "/>
<text text-anchor="middle" x="329" y="-589.3" font-family="Times,serif" font-size="14.00">;</text>
</g>
<!-- node_0x5ed7f9933280&#45;&gt;node_0x5ed7f9939270 -->
<g id="edge4" class="edge">
<title>node_0x5ed7f9933280&#45;&gt;node_0x5ed7f9939270</title>
<path fill="none" stroke="#ff2b00" d="M329,-664.37C329,-656.15 329,-646.66 329,-637.73"/>
<polygon fill="#ff2b00" stroke="#ff2b00" points="332.5,-637.61 329,-627.61 325.5,-637.61 332.5,-637.61"/>
</g>
<!-- node_0x5ed7f9939480 -->
<g id="node6" class="node">
<title>node_0x5ed7f9939480</title>
<path fill="#9966ff" stroke="#ffe9c7" d="M207,-498.5C207,-498.5 263,-498.5 263,-498.5 269,-498.5 275,-504.5 275,-510.5 275,-510.5 275,-532.5 275,-532.5 275,-538.5 269,-544.5 263,-544.5 263,-544.5 207,-544.5 207,-544.5 201,-544.5 195,-538.5 195,-532.5 195,-532.5 195,-510.5 195,-510.5 195,-504.5 201,-498.5 207,-498.5"/>
<text text-anchor="middle" x="235" y="-529.3" font-family="Times,serif" font-size="14.00">KeyWord</text>
<polyline fill="none" stroke="#ffe9c7" points="195,-521.5 275,-521.5 "/>
<text text-anchor="middle" x="235" y="-506.3" font-family="Times,serif" font-size="14.00">;</text>
</g>
<!-- node_0x5ed7f9939270&#45;&gt;node_0x5ed7f9939480 -->
<g id="edge5" class="edge">
<title>node_0x5ed7f9939270&#45;&gt;node_0x5ed7f9939480</title>
<path fill="none" stroke="#9acd32" d="M303.31,-581.37C292.54,-572.08 279.86,-561.16 268.38,-551.26"/>
<polygon fill="#9acd32" stroke="#9acd32" points="270.52,-548.48 260.65,-544.61 265.95,-553.79 270.52,-548.48"/>
</g>
<!-- node_0x5ed7f99395a0 -->
<g id="node22" class="node">
<title>node_0x5ed7f99395a0</title>
<path fill="#9966ff" stroke="#ffe9c7" d="M305,-498.5C305,-498.5 361,-498.5 361,-498.5 367,-498.5 373,-504.5 373,-510.5 373,-510.5 373,-532.5 373,-532.5 373,-538.5 367,-544.5 361,-544.5 361,-544.5 305,-544.5 305,-544.5 299,-544.5 293,-538.5 293,-532.5 293,-532.5 293,-510.5 293,-510.5 293,-504.5 299,-498.5 305,-498.5"/>
<text text-anchor="middle" x="333" y="-529.3" font-family="Times,serif" font-size="14.00">KeyWord</text>
<polyline fill="none" stroke="#ffe9c7" points="293,-521.5 373,-521.5 "/>
<text text-anchor="middle" x="333" y="-506.3" font-family="Times,serif" font-size="14.00">return</text>
</g>
<!-- node_0x5ed7f9939270&#45;&gt;node_0x5ed7f99395a0 -->
<g id="edge21" class="edge">
<title>node_0x5ed7f9939270&#45;&gt;node_0x5ed7f99395a0</title>
<path fill="none" stroke="#ff2b00" d="M330.09,-581.37C330.5,-573.15 330.97,-563.66 331.41,-554.73"/>
<polygon fill="#ff2b00" stroke="#ff2b00" points="334.91,-554.77 331.91,-544.61 327.92,-554.42 334.91,-554.77"/>
</g>
<!-- node_0x5ed7f9939300 -->
<g id="node7" class="node">
<title>node_0x5ed7f9939300</title>
<path fill="#08c41e" stroke="#ffe9c7" d="M111.5,-415.5C111.5,-415.5 164.5,-415.5 164.5,-415.5 170.5,-415.5 176.5,-421.5 176.5,-427.5 176.5,-427.5 176.5,-449.5 176.5,-449.5 176.5,-455.5 170.5,-461.5 164.5,-461.5 164.5,-461.5 111.5,-461.5 111.5,-461.5 105.5,-461.5 99.5,-455.5 99.5,-449.5 99.5,-449.5 99.5,-427.5 99.5,-427.5 99.5,-421.5 105.5,-415.5 111.5,-415.5"/>
<text text-anchor="middle" x="138" y="-446.3" font-family="Times,serif" font-size="14.00">Var Decl</text>
<polyline fill="none" stroke="#ffe9c7" points="99.5,-438.5 176.5,-438.5 "/>
<text text-anchor="middle" x="138" y="-423.3" font-family="Times,serif" font-size="14.00">1</text>
</g>
<!-- node_0x5ed7f9939480&#45;&gt;node_0x5ed7f9939300 -->
<g id="edge6" class="edge">
<title>node_0x5ed7f9939480&#45;&gt;node_0x5ed7f9939300</title>
<path fill="none" stroke="#9acd32" d="M208.49,-498.37C197.37,-489.08 184.3,-478.16 172.44,-468.26"/>
<polygon fill="#9acd32" stroke="#9acd32" points="174.39,-465.33 164.47,-461.61 169.91,-470.7 174.39,-465.33"/>
</g>
<!-- node_0x5ed7f9939510 -->
<g id="node17" class="node">
<title>node_0x5ed7f9939510</title>
<path fill="#08c41e" stroke="#ffe9c7" d="M209.5,-415.5C209.5,-415.5 262.5,-415.5 262.5,-415.5 268.5,-415.5 274.5,-421.5 274.5,-427.5 274.5,-427.5 274.5,-449.5 274.5,-449.5 274.5,-455.5 268.5,-461.5 262.5,-461.5 262.5,-461.5 209.5,-461.5 209.5,-461.5 203.5,-461.5 197.5,-455.5 197.5,-449.5 197.5,-449.5 197.5,-427.5 197.5,-427.5 197.5,-421.5 203.5,-415.5 209.5,-415.5"/>
<text text-anchor="middle" x="236" y="-446.3" font-family="Times,serif" font-size="14.00">Var Decl</text>
<polyline fill="none" stroke="#ffe9c7" points="197.5,-438.5 274.5,-438.5 "/>
<text text-anchor="middle" x="236" y="-423.3" font-family="Times,serif" font-size="14.00">3</text>
</g>
<!-- node_0x5ed7f9939480&#45;&gt;node_0x5ed7f9939510 -->
<g id="edge16" class="edge">
<title>node_0x5ed7f9939480&#45;&gt;node_0x5ed7f9939510</title>
<path fill="none" stroke="#ff2b00" d="M235.27,-498.37C235.37,-490.15 235.49,-480.66 235.6,-471.73"/>
<polygon fill="#ff2b00" stroke="#ff2b00" points="239.1,-471.65 235.73,-461.61 232.1,-471.56 239.1,-471.65"/>
</g>
<!-- node_0x5ed7f99392a0 -->
<g id="node8" class="node">
<title>node_0x5ed7f99392a0</title>
<path fill="#9966ff" stroke="#ffe9c7" d="M12,-332.5C12,-332.5 68,-332.5 68,-332.5 74,-332.5 80,-338.5 80,-344.5 80,-344.5 80,-366.5 80,-366.5 80,-372.5 74,-378.5 68,-378.5 68,-378.5 12,-378.5 12,-378.5 6,-378.5 0,-372.5 0,-366.5 0,-366.5 0,-344.5 0,-344.5 0,-338.5 6,-332.5 12,-332.5"/>
<text text-anchor="middle" x="40" y="-363.3" font-family="Times,serif" font-size="14.00">KeyWord</text>
<polyline fill="none" stroke="#ffe9c7" points="0,-355.5 80,-355.5 "/>
<text text-anchor="middle" x="40" y="-340.3" font-family="Times,serif" font-size="14.00">int</text>
</g>
<!-- node_0x5ed7f9939300&#45;&gt;node_0x5ed7f99392a0 -->
<g id="edge7" class="edge">
<title>node_0x5ed7f9939300&#45;&gt;node_0x5ed7f99392a0</title>
<path fill="none" stroke="#9acd32" d="M111.22,-415.37C99.99,-406.08 86.77,-395.16 74.8,-385.26"/>
<polygon fill="#9acd32" stroke="#9acd32" points="76.68,-382.28 66.75,-378.61 72.22,-387.68 76.68,-382.28"/>
</g>
<!-- node_0x5ed7f9939330 -->
<g id="node9" class="node">
<title>node_0x5ed7f9939330</title>
<path fill="#9966ff" stroke="#ffe9c7" d="M110,-332.5C110,-332.5 166,-332.5 166,-332.5 172,-332.5 178,-338.5 178,-344.5 178,-344.5 178,-366.5 178,-366.5 178,-372.5 172,-378.5 166,-378.5 166,-378.5 110,-378.5 110,-378.5 104,-378.5 98,-372.5 98,-366.5 98,-366.5 98,-344.5 98,-344.5 98,-338.5 104,-332.5 110,-332.5"/>
<text text-anchor="middle" x="138" y="-363.3" font-family="Times,serif" font-size="14.00">KeyWord</text>
<polyline fill="none" stroke="#ffe9c7" points="98,-355.5 178,-355.5 "/>
<text text-anchor="middle" x="138" y="-340.3" font-family="Times,serif" font-size="14.00">=</text>
</g>
<!-- node_0x5ed7f9939300&#45;&gt;node_0x5ed7f9939330 -->
<g id="edge8" class="edge">
<title>node_0x5ed7f9939300&#45;&gt;node_0x5ed7f9939330</title>
<path fill="none" stroke="#ff2b00" d="M138,-415.37C138,-407.15 138,-397.66 138,-388.73"/>
<polygon fill="#ff2b00" stroke="#ff2b00" points="141.5,-388.61 138,-378.61 134.5,-388.61 141.5,-388.61"/>
</g>
<!-- node_0x5ed7f99392d0 -->
<g id="node10" class="node">
<title>node_0x5ed7f99392d0</title>
<path fill="#ff6699" stroke="#ffe9c7" d="M25.5,-249.5C25.5,-249.5 84.5,-249.5 84.5,-249.5 90.5,-249.5 96.5,-255.5 96.5,-261.5 96.5,-261.5 96.5,-283.5 96.5,-283.5 96.5,-289.5 90.5,-295.5 84.5,-295.5 84.5,-295.5 25.5,-295.5 25.5,-295.5 19.5,-295.5 13.5,-289.5 13.5,-283.5 13.5,-283.5 13.5,-261.5 13.5,-261.5 13.5,-255.5 19.5,-249.5 25.5,-249.5"/>
<text text-anchor="middle" x="55" y="-280.3" font-family="Times,serif" font-size="14.00">Identifier</text>
<polyline fill="none" stroke="#ffe9c7" points="13.5,-272.5 96.5,-272.5 "/>
<text text-anchor="middle" x="55" y="-257.3" font-family="Times,serif" font-size="14.00">1</text>
</g>
<!-- node_0x5ed7f9939330&#45;&gt;node_0x5ed7f99392d0 -->
<g id="edge9" class="edge">
<title>node_0x5ed7f9939330&#45;&gt;node_0x5ed7f99392d0</title>
<path fill="none" stroke="#9acd32" d="M115.32,-332.37C105.99,-323.26 95.04,-312.58 85.06,-302.83"/>
<polygon fill="#9acd32" stroke="#9acd32" points="87.25,-300.09 77.65,-295.61 82.36,-305.1 87.25,-300.09"/>
</g>
<!-- node_0x5ed7f9939390 -->
<g id="node11" class="node">
<title>node_0x5ed7f9939390</title>
<path fill="#916306" stroke="#ffe9c7" d="M127,-249.5C127,-249.5 157,-249.5 157,-249.5 163,-249.5 169,-255.5 169,-261.5 169,-261.5 169,-283.5 169,-283.5 169,-289.5 163,-295.5 157,-295.5 157,-295.5 127,-295.5 127,-295.5 121,-295.5 115,-289.5 115,-283.5 115,-283.5 115,-261.5 115,-261.5 115,-255.5 121,-249.5 127,-249.5"/>
<text text-anchor="middle" x="142" y="-280.3" font-family="Times,serif" font-size="14.00">Call</text>
<polyline fill="none" stroke="#ffe9c7" points="115,-272.5 169,-272.5 "/>
<text text-anchor="middle" x="142" y="-257.3" font-family="Times,serif" font-size="14.00">∅</text>
</g>
<!-- node_0x5ed7f9939330&#45;&gt;node_0x5ed7f9939390 -->
<g id="edge10" class="edge">
<title>node_0x5ed7f9939330&#45;&gt;node_0x5ed7f9939390</title>
<path fill="none" stroke="#ff2b00" d="M139.09,-332.37C139.5,-324.15 139.97,-314.66 140.41,-305.73"/>
<polygon fill="#ff2b00" stroke="#ff2b00" points="143.91,-305.77 140.91,-295.61 136.92,-305.42 143.91,-305.77"/>
</g>
<!-- node_0x5ed7f99393c0 -->
<g id="node12" class="node">
<title>node_0x5ed7f99393c0</title>
<path fill="#9966ff" stroke="#ffe9c7" d="M64,-166.5C64,-166.5 120,-166.5 120,-166.5 126,-166.5 132,-172.5 132,-178.5 132,-178.5 132,-200.5 132,-200.5 132,-206.5 126,-212.5 120,-212.5 120,-212.5 64,-212.5 64,-212.5 58,-212.5 52,-206.5 52,-200.5 52,-200.5 52,-178.5 52,-178.5 52,-172.5 58,-166.5 64,-166.5"/>
<text text-anchor="middle" x="92" y="-197.3" font-family="Times,serif" font-size="14.00">KeyWord</text>
<polyline fill="none" stroke="#ffe9c7" points="52,-189.5 132,-189.5 "/>
<text text-anchor="middle" x="92" y="-174.3" font-family="Times,serif" font-size="14.00">sin</text>
</g>
<!-- node_0x5ed7f9939390&#45;&gt;node_0x5ed7f99393c0 -->
<g id="edge11" class="edge">
<title>node_0x5ed7f9939390&#45;&gt;node_0x5ed7f99393c0</title>
<path fill="none" stroke="#9acd32" d="M128.34,-249.37C122.99,-240.71 116.77,-230.62 111,-221.27"/>
<polygon fill="#9acd32" stroke="#9acd32" points="113.88,-219.28 105.65,-212.61 107.92,-222.95 113.88,-219.28"/>
</g>
<!-- node_0x5ed7f9939360 -->
<g id="node16" class="node">
<title>node_0x5ed7f9939360</title>
<path fill="#ff6699" stroke="#ffe9c7" d="M162.5,-166.5C162.5,-166.5 221.5,-166.5 221.5,-166.5 227.5,-166.5 233.5,-172.5 233.5,-178.5 233.5,-178.5 233.5,-200.5 233.5,-200.5 233.5,-206.5 227.5,-212.5 221.5,-212.5 221.5,-212.5 162.5,-212.5 162.5,-212.5 156.5,-212.5 150.5,-206.5 150.5,-200.5 150.5,-200.5 150.5,-178.5 150.5,-178.5 150.5,-172.5 156.5,-166.5 162.5,-166.5"/>
<text text-anchor="middle" x="192" y="-197.3" font-family="Times,serif" font-size="14.00">Identifier</text>
<polyline fill="none" stroke="#ffe9c7" points="150.5,-189.5 233.5,-189.5 "/>
<text text-anchor="middle" x="192" y="-174.3" font-family="Times,serif" font-size="14.00">2</text>
</g>
<!-- node_0x5ed7f9939390&#45;&gt;node_0x5ed7f9939360 -->
<g id="edge15" class="edge">
<title>node_0x5ed7f9939390&#45;&gt;node_0x5ed7f9939360</title>
<path fill="none" stroke="#ff2b00" d="M155.66,-249.37C161.01,-240.71 167.23,-230.62 173,-221.27"/>
<polygon fill="#ff2b00" stroke="#ff2b00" points="176.08,-222.95 178.35,-212.61 170.12,-219.28 176.08,-222.95"/>
</g>
<!-- node_0x5ed7f9939420 -->
<g id="node13" class="node">
<title>node_0x5ed7f9939420</title>
<path fill="#9966ff" stroke="#ffe9c7" d="M64,-83.5C64,-83.5 120,-83.5 120,-83.5 126,-83.5 132,-89.5 132,-95.5 132,-95.5 132,-117.5 132,-117.5 132,-123.5 126,-129.5 120,-129.5 120,-129.5 64,-129.5 64,-129.5 58,-129.5 52,-123.5 52,-117.5 52,-117.5 52,-95.5 52,-95.5 52,-89.5 58,-83.5 64,-83.5"/>
<text text-anchor="middle" x="92" y="-114.3" font-family="Times,serif" font-size="14.00">KeyWord</text>
<polyline fill="none" stroke="#ffe9c7" points="52,-106.5 132,-106.5 "/>
<text text-anchor="middle" x="92" y="-91.3" font-family="Times,serif" font-size="14.00">+</text>
</g>
<!-- node_0x5ed7f99393c0&#45;&gt;node_0x5ed7f9939420 -->
<g id="edge12" class="edge">
<title>node_0x5ed7f99393c0&#45;&gt;node_0x5ed7f9939420</title>
<path fill="none" stroke="#ff2b00" d="M92,-166.37C92,-158.15 92,-148.66 92,-139.73"/>
<polygon fill="#ff2b00" stroke="#ff2b00" points="95.5,-139.61 92,-129.61 88.5,-139.61 95.5,-139.61"/>
</g>
<!-- node_0x5ed7f99393f0 -->
<g id="node14" class="node">
<title>node_0x5ed7f99393f0</title>
<path fill="#03cffc" stroke="#ffe9c7" d="M14.5,-0.5C14.5,-0.5 71.5,-0.5 71.5,-0.5 77.5,-0.5 83.5,-6.5 83.5,-12.5 83.5,-12.5 83.5,-34.5 83.5,-34.5 83.5,-40.5 77.5,-46.5 71.5,-46.5 71.5,-46.5 14.5,-46.5 14.5,-46.5 8.5,-46.5 2.5,-40.5 2.5,-34.5 2.5,-34.5 2.5,-12.5 2.5,-12.5 2.5,-6.5 8.5,-0.5 14.5,-0.5"/>
<text text-anchor="middle" x="43" y="-31.3" font-family="Times,serif" font-size="14.00">Constant</text>
<polyline fill="none" stroke="#ffe9c7" points="2.5,-23.5 83.5,-23.5 "/>
<text text-anchor="middle" x="43" y="-8.3" font-family="Times,serif" font-size="14.00">15</text>
</g>
<!-- node_0x5ed7f9939420&#45;&gt;node_0x5ed7f99393f0 -->
<g id="edge13" class="edge">
<title>node_0x5ed7f9939420&#45;&gt;node_0x5ed7f99393f0</title>
<path fill="none" stroke="#9acd32" d="M78.61,-83.37C73.37,-74.71 67.27,-64.62 61.62,-55.27"/>
<polygon fill="#9acd32" stroke="#9acd32" points="64.54,-53.35 56.37,-46.61 58.55,-56.97 64.54,-53.35"/>
</g>
<!-- node_0x5ed7f9939450 -->
<g id="node15" class="node">
<title>node_0x5ed7f9939450</title>
<path fill="#03cffc" stroke="#ffe9c7" d="M113.5,-0.5C113.5,-0.5 170.5,-0.5 170.5,-0.5 176.5,-0.5 182.5,-6.5 182.5,-12.5 182.5,-12.5 182.5,-34.5 182.5,-34.5 182.5,-40.5 176.5,-46.5 170.5,-46.5 170.5,-46.5 113.5,-46.5 113.5,-46.5 107.5,-46.5 101.5,-40.5 101.5,-34.5 101.5,-34.5 101.5,-12.5 101.5,-12.5 101.5,-6.5 107.5,-0.5 113.5,-0.5"/>
<text text-anchor="middle" x="142" y="-31.3" font-family="Times,serif" font-size="14.00">Constant</text>
<polyline fill="none" stroke="#ffe9c7" points="101.5,-23.5 182.5,-23.5 "/>
<text text-anchor="middle" x="142" y="-8.3" font-family="Times,serif" font-size="14.00">1</text>
</g>
<!-- node_0x5ed7f9939420&#45;&gt;node_0x5ed7f9939450 -->
<g id="edge14" class="edge">
<title>node_0x5ed7f9939420&#45;&gt;node_0x5ed7f9939450</title>
<path fill="none" stroke="#ff2b00" d="M105.66,-83.37C111.01,-74.71 117.23,-64.62 123,-55.27"/>
<polygon fill="#ff2b00" stroke="#ff2b00" points="126.08,-56.95 128.35,-46.61 120.12,-53.28 126.08,-56.95"/>
</g>
<!-- node_0x5ed7f99394b0 -->
<g id="node18" class="node">
<title>node_0x5ed7f99394b0</title>
<path fill="#9966ff" stroke="#ffe9c7" d="M208,-332.5C208,-332.5 264,-332.5 264,-332.5 270,-332.5 276,-338.5 276,-344.5 276,-344.5 276,-366.5 276,-366.5 276,-372.5 270,-378.5 264,-378.5 264,-378.5 208,-378.5 208,-378.5 202,-378.5 196,-372.5 196,-366.5 196,-366.5 196,-344.5 196,-344.5 196,-338.5 202,-332.5 208,-332.5"/>
<text text-anchor="middle" x="236" y="-363.3" font-family="Times,serif" font-size="14.00">KeyWord</text>
<polyline fill="none" stroke="#ffe9c7" points="196,-355.5 276,-355.5 "/>
<text text-anchor="middle" x="236" y="-340.3" font-family="Times,serif" font-size="14.00">int</text>
</g>
<!-- node_0x5ed7f9939510&#45;&gt;node_0x5ed7f99394b0 -->
<g id="edge17" class="edge">
<title>node_0x5ed7f9939510&#45;&gt;node_0x5ed7f99394b0</title>
<path fill="none" stroke="#9acd32" d="M236,-415.37C236,-407.15 236,-397.66 236,-388.73"/>
<polygon fill="#9acd32" stroke="#9acd32" points="239.5,-388.61 236,-378.61 232.5,-388.61 239.5,-388.61"/>
</g>
<!-- node_0x5ed7f9939540 -->
<g id="node19" class="node">
<title>node_0x5ed7f9939540</title>
<path fill="#9966ff" stroke="#ffe9c7" d="M306,-332.5C306,-332.5 362,-332.5 362,-332.5 368,-332.5 374,-338.5 374,-344.5 374,-344.5 374,-366.5 374,-366.5 374,-372.5 368,-378.5 362,-378.5 362,-378.5 306,-378.5 306,-378.5 300,-378.5 294,-372.5 294,-366.5 294,-366.5 294,-344.5 294,-344.5 294,-338.5 300,-332.5 306,-332.5"/>
<text text-anchor="middle" x="334" y="-363.3" font-family="Times,serif" font-size="14.00">KeyWord</text>
<polyline fill="none" stroke="#ffe9c7" points="294,-355.5 374,-355.5 "/>
<text text-anchor="middle" x="334" y="-340.3" font-family="Times,serif" font-size="14.00">=</text>
</g>
<!-- node_0x5ed7f9939510&#45;&gt;node_0x5ed7f9939540 -->
<g id="edge18" class="edge">
<title>node_0x5ed7f9939510&#45;&gt;node_0x5ed7f9939540</title>
<path fill="none" stroke="#ff2b00" d="M262.78,-415.37C274.01,-406.08 287.23,-395.16 299.2,-385.26"/>
<polygon fill="#ff2b00" stroke="#ff2b00" points="301.78,-387.68 307.25,-378.61 297.32,-382.28 301.78,-387.68"/>
</g>
<!-- node_0x5ed7f99394e0 -->
<g id="node20" class="node">
<title>node_0x5ed7f99394e0</title>
<path fill="#ff6699" stroke="#ffe9c7" d="M254.5,-249.5C254.5,-249.5 313.5,-249.5 313.5,-249.5 319.5,-249.5 325.5,-255.5 325.5,-261.5 325.5,-261.5 325.5,-283.5 325.5,-283.5 325.5,-289.5 319.5,-295.5 313.5,-295.5 313.5,-295.5 254.5,-295.5 254.5,-295.5 248.5,-295.5 242.5,-289.5 242.5,-283.5 242.5,-283.5 242.5,-261.5 242.5,-261.5 242.5,-255.5 248.5,-249.5 254.5,-249.5"/>
<text text-anchor="middle" x="284" y="-280.3" font-family="Times,serif" font-size="14.00">Identifier</text>
<polyline fill="none" stroke="#ffe9c7" points="242.5,-272.5 325.5,-272.5 "/>
<text text-anchor="middle" x="284" y="-257.3" font-family="Times,serif" font-size="14.00">3</text>
</g>
<!-- node_0x5ed7f9939540&#45;&gt;node_0x5ed7f99394e0 -->
<g id="edge19" class="edge">
<title>node_0x5ed7f9939540&#45;&gt;node_0x5ed7f99394e0</title>
<path fill="none" stroke="#9acd32" d="M320.34,-332.37C314.99,-323.71 308.77,-313.62 303,-304.27"/>
<polygon fill="#9acd32" stroke="#9acd32" points="305.88,-302.28 297.65,-295.61 299.92,-305.95 305.88,-302.28"/>
</g>
<!-- node_0x5ed7f9939570 -->
<g id="node21" class="node">
<title>node_0x5ed7f9939570</title>
<path fill="#03cffc" stroke="#ffe9c7" d="M355.5,-249.5C355.5,-249.5 412.5,-249.5 412.5,-249.5 418.5,-249.5 424.5,-255.5 424.5,-261.5 424.5,-261.5 424.5,-283.5 424.5,-283.5 424.5,-289.5 418.5,-295.5 412.5,-295.5 412.5,-295.5 355.5,-295.5 355.5,-295.5 349.5,-295.5 343.5,-289.5 343.5,-283.5 343.5,-283.5 343.5,-261.5 343.5,-261.5 343.5,-255.5 349.5,-249.5 355.5,-249.5"/>
<text text-anchor="middle" x="384" y="-280.3" font-family="Times,serif" font-size="14.00">Constant</text>
<polyline fill="none" stroke="#ffe9c7" points="343.5,-272.5 424.5,-272.5 "/>
<text text-anchor="middle" x="384" y="-257.3" font-family="Times,serif" font-size="14.00">15</text>
</g>
<!-- node_0x5ed7f9939540&#45;&gt;node_0x5ed7f9939570 -->
<g id="edge20" class="edge">
<title>node_0x5ed7f9939540&#45;&gt;node_0x5ed7f9939570</title>
<path fill="none" stroke="#ff2b00" d="M347.66,-332.37C353.01,-323.71 359.23,-313.62 365,-304.27"/>
<polygon fill="#ff2b00" stroke="#ff2b00" points="368.08,-305.95 370.35,-295.61 362.12,-302.28 368.08,-305.95"/>
</g>
<!-- node_0x5ed7f99395d0 -->
<g id="node23" class="node">
<title>node_0x5ed7f99395d0</title>
<path fill="#03cffc" stroke="#ffe9c7" d="M304.5,-415.5C304.5,-415.5 361.5,-415.5 361.5,-415.5 367.5,-415.5 373.5,-421.5 373.5,-427.5 373.5,-427.5 373.5,-449.5 373.5,-449.5 373.5,-455.5 367.5,-461.5 361.5,-461.5 361.5,-461.5 304.5,-461.5 304.5,-461.5 298.5,-461.5 292.5,-455.5 292.5,-449.5 292.5,-449.5 292.5,-427.5 292.5,-427.5 292.5,-421.5 298.5,-415.5 304.5,-415.5"/>
<text text-anchor="middle" x="333" y="-446.3" font-family="Times,serif" font-size="14.00">Constant</text>
<polyline fill="none" stroke="#ffe9c7" points="292.5,-438.5 373.5,-438.5 "/>
<text text-anchor="middle" x="333" y="-423.3" font-family="Times,serif" font-size="14.00">0</text>
</g>
<!-- node_0x5ed7f99395a0&#45;&gt;node_0x5ed7f99395d0 -->
<g id="edge22" class="edge">
<title>node_0x5ed7f99395a0&#45;&gt;node_0x5ed7f99395d0</title>
<path fill="none" stroke="#ff2b00" d="M333,-498.37C333,-490.15 333,-480.66 333,-471.73"/>
<polygon fill="#ff2b00" stroke="#ff2b00" points="336.5,-471.61 333,-461.61 329.5,-471.61 336.5,-471.61"/>
</g>
<!-- node_0x5ed7f9939630 -->
<g id="node25" class="node">
<title>node_0x5ed7f9939630</title>
<path fill="#9966ff" stroke="#ffe9c7" d="M409,-664.5C409,-664.5 465,-664.5 465,-664.5 471,-664.5 477,-670.5 477,-676.5 477,-676.5 477,-698.5 477,-698.5 477,-704.5 471,-710.5 465,-710.5 465,-710.5 409,-710.5 409,-710.5 403,-710.5 397,-704.5 397,-698.5 397,-698.5 397,-676.5 397,-676.5 397,-670.5 403,-664.5 409,-664.5"/>
<text text-anchor="middle" x="437" y="-695.3" font-family="Times,serif" font-size="14.00">KeyWord</text>
<polyline fill="none" stroke="#ffe9c7" points="397,-687.5 477,-687.5 "/>
<text text-anchor="middle" x="437" y="-672.3" font-family="Times,serif" font-size="14.00">int</text>
</g>
<!-- node_0x5ed7f9939660&#45;&gt;node_0x5ed7f9939630 -->
<g id="edge24" class="edge">
<title>node_0x5ed7f9939660&#45;&gt;node_0x5ed7f9939630</title>
<path fill="none" stroke="#9acd32" d="M437,-747.37C437,-739.15 437,-729.66 437,-720.73"/>
<polygon fill="#9acd32" stroke="#9acd32" points="440.5,-720.61 437,-710.61 433.5,-720.61 440.5,-720.61"/>
</g>
<!-- node_0x5ed7f9939690 -->
<g id="node26" class="node">
<title>node_0x5ed7f9939690</title>
<path fill="#fc0303" stroke="#ffe9c7" d="M507.5,-664.5C507.5,-664.5 582.5,-664.5 582.5,-664.5 588.5,-664.5 594.5,-670.5 594.5,-676.5 594.5,-676.5 594.5,-698.5 594.5,-698.5 594.5,-704.5 588.5,-710.5 582.5,-710.5 582.5,-710.5 507.5,-710.5 507.5,-710.5 501.5,-710.5 495.5,-704.5 495.5,-698.5 495.5,-698.5 495.5,-676.5 495.5,-676.5 495.5,-670.5 501.5,-664.5 507.5,-664.5"/>
<text text-anchor="middle" x="545" y="-695.3" font-family="Times,serif" font-size="14.00">Parameters</text>
<polyline fill="none" stroke="#ffe9c7" points="495.5,-687.5 594.5,-687.5 "/>
<text text-anchor="middle" x="545" y="-672.3" font-family="Times,serif" font-size="14.00">∅</text>
</g>
<!-- node_0x5ed7f9939660&#45;&gt;node_0x5ed7f9939690 -->
<g id="edge25" class="edge">
<title>node_0x5ed7f9939660&#45;&gt;node_0x5ed7f9939690</title>
<path fill="none" stroke="#ff2b00" d="M466.51,-747.37C479.13,-737.9 494.01,-726.74 507.41,-716.69"/>
<polygon fill="#ff2b00" stroke="#ff2b00" points="509.62,-719.41 515.52,-710.61 505.42,-713.81 509.62,-719.41"/>
</g>
<!-- node_0x5ed7f9939720 -->
<g id="node27" class="node">
<title>node_0x5ed7f9939720</title>
<path fill="#08c41e" stroke="#ffe9c7" d="M513.5,-581.5C513.5,-581.5 566.5,-581.5 566.5,-581.5 572.5,-581.5 578.5,-587.5 578.5,-593.5 578.5,-593.5 578.5,-615.5 578.5,-615.5 578.5,-621.5 572.5,-627.5 566.5,-627.5 566.5,-627.5 513.5,-627.5 513.5,-627.5 507.5,-627.5 501.5,-621.5 501.5,-615.5 501.5,-615.5 501.5,-593.5 501.5,-593.5 501.5,-587.5 507.5,-581.5 513.5,-581.5"/>
<text text-anchor="middle" x="540" y="-612.3" font-family="Times,serif" font-size="14.00">Var Decl</text>
<polyline fill="none" stroke="#ffe9c7" points="501.5,-604.5 578.5,-604.5 "/>
<text text-anchor="middle" x="540" y="-589.3" font-family="Times,serif" font-size="14.00">4</text>
</g>
<!-- node_0x5ed7f9939690&#45;&gt;node_0x5ed7f9939720 -->
<g id="edge26" class="edge">
<title>node_0x5ed7f9939690&#45;&gt;node_0x5ed7f9939720</title>
<path fill="none" stroke="#9acd32" d="M543.63,-664.37C543.13,-656.15 542.54,-646.66 541.99,-637.73"/>
<polygon fill="#9acd32" stroke="#9acd32" points="545.47,-637.37 541.36,-627.61 538.49,-637.8 545.47,-637.37"/>
</g>
<!-- node_0x5ed7f9939750 -->
<g id="node30" class="node">
<title>node_0x5ed7f9939750</title>
<path fill="#9966ff" stroke="#ffe9c7" d="M610,-581.5C610,-581.5 666,-581.5 666,-581.5 672,-581.5 678,-587.5 678,-593.5 678,-593.5 678,-615.5 678,-615.5 678,-621.5 672,-627.5 666,-627.5 666,-627.5 610,-627.5 610,-627.5 604,-627.5 598,-621.5 598,-615.5 598,-615.5 598,-593.5 598,-593.5 598,-587.5 604,-581.5 610,-581.5"/>
<text text-anchor="middle" x="638" y="-612.3" font-family="Times,serif" font-size="14.00">KeyWord</text>
<polyline fill="none" stroke="#ffe9c7" points="598,-604.5 678,-604.5 "/>
<text text-anchor="middle" x="638" y="-589.3" font-family="Times,serif" font-size="14.00">;</text>
</g>
<!-- node_0x5ed7f9939690&#45;&gt;node_0x5ed7f9939750 -->
<g id="edge29" class="edge">
<title>node_0x5ed7f9939690&#45;&gt;node_0x5ed7f9939750</title>
<path fill="none" stroke="#ff2b00" d="M570.41,-664.37C581.07,-655.08 593.61,-644.16 604.98,-634.26"/>
<polygon fill="#ff2b00" stroke="#ff2b00" points="607.38,-636.81 612.62,-627.61 602.78,-631.54 607.38,-636.81"/>
</g>
<!-- node_0x5ed7f99396c0 -->
<g id="node28" class="node">
<title>node_0x5ed7f99396c0</title>
<path fill="#9966ff" stroke="#ffe9c7" d="M412,-498.5C412,-498.5 468,-498.5 468,-498.5 474,-498.5 480,-504.5 480,-510.5 480,-510.5 480,-532.5 480,-532.5 480,-538.5 474,-544.5 468,-544.5 468,-544.5 412,-544.5 412,-544.5 406,-544.5 400,-538.5 400,-532.5 400,-532.5 400,-510.5 400,-510.5 400,-504.5 406,-498.5 412,-498.5"/>
<text text-anchor="middle" x="440" y="-529.3" font-family="Times,serif" font-size="14.00">KeyWord</text>
<polyline fill="none" stroke="#ffe9c7" points="400,-521.5 480,-521.5 "/>
<text text-anchor="middle" x="440" y="-506.3" font-family="Times,serif" font-size="14.00">int</text>
</g>
<!-- node_0x5ed7f9939720&#45;&gt;node_0x5ed7f99396c0 -->
<g id="edge27" class="edge">
<title>node_0x5ed7f9939720&#45;&gt;node_0x5ed7f99396c0</title>
<path fill="none" stroke="#9acd32" d="M512.67,-581.37C501.1,-571.99 487.47,-560.95 475.16,-550.98"/>
<polygon fill="#9acd32" stroke="#9acd32" points="477.27,-548.18 467.29,-544.61 472.86,-553.62 477.27,-548.18"/>
</g>
<!-- node_0x5ed7f99396f0 -->
<g id="node29" class="node">
<title>node_0x5ed7f99396f0</title>
<path fill="#ff6699" stroke="#ffe9c7" d="M510.5,-498.5C510.5,-498.5 569.5,-498.5 569.5,-498.5 575.5,-498.5 581.5,-504.5 581.5,-510.5 581.5,-510.5 581.5,-532.5 581.5,-532.5 581.5,-538.5 575.5,-544.5 569.5,-544.5 569.5,-544.5 510.5,-544.5 510.5,-544.5 504.5,-544.5 498.5,-538.5 498.5,-532.5 498.5,-532.5 498.5,-510.5 498.5,-510.5 498.5,-504.5 504.5,-498.5 510.5,-498.5"/>
<text text-anchor="middle" x="540" y="-529.3" font-family="Times,serif" font-size="14.00">Identifier</text>
<polyline fill="none" stroke="#ffe9c7" points="498.5,-521.5 581.5,-521.5 "/>
<text text-anchor="middle" x="540" y="-506.3" font-family="Times,serif" font-size="14.00">4</text>
</g>
<!-- node_0x5ed7f9939720&#45;&gt;node_0x5ed7f99396f0 -->
<g id="edge28" class="edge">
<title>node_0x5ed7f9939720&#45;&gt;node_0x5ed7f99396f0</title>
<path fill="none" stroke="#ff2b00" d="M540,-581.37C540,-573.15 540,-563.66 540,-554.73"/>
<polygon fill="#ff2b00" stroke="#ff2b00" points="543.5,-554.61 540,-544.61 536.5,-554.61 543.5,-554.61"/>
</g>
<!-- node_0x5ed7f99397e0 -->
<g id="node31" class="node">
<title>node_0x5ed7f99397e0</title>
<path fill="#08c41e" stroke="#ffe9c7" d="M611.5,-498.5C611.5,-498.5 664.5,-498.5 664.5,-498.5 670.5,-498.5 676.5,-504.5 676.5,-510.5 676.5,-510.5 676.5,-532.5 676.5,-532.5 676.5,-538.5 670.5,-544.5 664.5,-544.5 664.5,-544.5 611.5,-544.5 611.5,-544.5 605.5,-544.5 599.5,-538.5 599.5,-532.5 599.5,-532.5 599.5,-510.5 599.5,-510.5 599.5,-504.5 605.5,-498.5 611.5,-498.5"/>
<text text-anchor="middle" x="638" y="-529.3" font-family="Times,serif" font-size="14.00">Var Decl</text>
<polyline fill="none" stroke="#ffe9c7" points="599.5,-521.5 676.5,-521.5 "/>
<text text-anchor="middle" x="638" y="-506.3" font-family="Times,serif" font-size="14.00">3</text>
</g>
<!-- node_0x5ed7f9939750&#45;&gt;node_0x5ed7f99397e0 -->
<g id="edge30" class="edge">
<title>node_0x5ed7f9939750&#45;&gt;node_0x5ed7f99397e0</title>
<path fill="none" stroke="#9acd32" d="M638,-581.37C638,-573.15 638,-563.66 638,-554.73"/>
<polygon fill="#9acd32" stroke="#9acd32" points="641.5,-554.61 638,-544.61 634.5,-554.61 641.5,-554.61"/>
</g>
<!-- node_0x5ed7f9939870 -->
<g id="node36" class="node">
<title>node_0x5ed7f9939870</title>
<path fill="#9966ff" stroke="#ffe9c7" d="M709,-498.5C709,-498.5 765,-498.5 765,-498.5 771,-498.5 777,-504.5 777,-510.5 777,-510.5 777,-532.5 777,-532.5 777,-538.5 771,-544.5 765,-544.5 765,-544.5 709,-544.5 709,-544.5 703,-544.5 697,-538.5 697,-532.5 697,-532.5 697,-510.5 697,-510.5 697,-504.5 703,-498.5 709,-498.5"/>
<text text-anchor="middle" x="737" y="-529.3" font-family="Times,serif" font-size="14.00">KeyWord</text>
<polyline fill="none" stroke="#ffe9c7" points="697,-521.5 777,-521.5 "/>
<text text-anchor="middle" x="737" y="-506.3" font-family="Times,serif" font-size="14.00">return</text>
</g>
<!-- node_0x5ed7f9939750&#45;&gt;node_0x5ed7f9939870 -->
<g id="edge35" class="edge">
<title>node_0x5ed7f9939750&#45;&gt;node_0x5ed7f9939870</title>
<path fill="none" stroke="#ff2b00" d="M665.05,-581.37C676.51,-571.99 690.01,-560.95 702.19,-550.98"/>
<polygon fill="#ff2b00" stroke="#ff2b00" points="704.46,-553.65 709.98,-544.61 700.02,-548.23 704.46,-553.65"/>
</g>
<!-- node_0x5ed7f9939780 -->
<g id="node32" class="node">
<title>node_0x5ed7f9939780</title>
<path fill="#9966ff" stroke="#ffe9c7" d="M512,-415.5C512,-415.5 568,-415.5 568,-415.5 574,-415.5 580,-421.5 580,-427.5 580,-427.5 580,-449.5 580,-449.5 580,-455.5 574,-461.5 568,-461.5 568,-461.5 512,-461.5 512,-461.5 506,-461.5 500,-455.5 500,-449.5 500,-449.5 500,-427.5 500,-427.5 500,-421.5 506,-415.5 512,-415.5"/>
<text text-anchor="middle" x="540" y="-446.3" font-family="Times,serif" font-size="14.00">KeyWord</text>
<polyline fill="none" stroke="#ffe9c7" points="500,-438.5 580,-438.5 "/>
<text text-anchor="middle" x="540" y="-423.3" font-family="Times,serif" font-size="14.00">int</text>
</g>
<!-- node_0x5ed7f99397e0&#45;&gt;node_0x5ed7f9939780 -->
<g id="edge31" class="edge">
<title>node_0x5ed7f99397e0&#45;&gt;node_0x5ed7f9939780</title>
<path fill="none" stroke="#9acd32" d="M611.22,-498.37C599.99,-489.08 586.77,-478.16 574.8,-468.26"/>
<polygon fill="#9acd32" stroke="#9acd32" points="576.68,-465.28 566.75,-461.61 572.22,-470.68 576.68,-465.28"/>
</g>
<!-- node_0x5ed7f9939810 -->
<g id="node33" class="node">
<title>node_0x5ed7f9939810</title>
<path fill="#9966ff" stroke="#ffe9c7" d="M610,-415.5C610,-415.5 666,-415.5 666,-415.5 672,-415.5 678,-421.5 678,-427.5 678,-427.5 678,-449.5 678,-449.5 678,-455.5 672,-461.5 666,-461.5 666,-461.5 610,-461.5 610,-461.5 604,-461.5 598,-455.5 598,-449.5 598,-449.5 598,-427.5 598,-427.5 598,-421.5 604,-415.5 610,-415.5"/>
<text text-anchor="middle" x="638" y="-446.3" font-family="Times,serif" font-size="14.00">KeyWord</text>
<polyline fill="none" stroke="#ffe9c7" points="598,-438.5 678,-438.5 "/>
<text text-anchor="middle" x="638" y="-423.3" font-family="Times,serif" font-size="14.00">=</text>
</g>
<!-- node_0x5ed7f99397e0&#45;&gt;node_0x5ed7f9939810 -->
<g id="edge32" class="edge">
<title>node_0x5ed7f99397e0&#45;&gt;node_0x5ed7f9939810</title>
<path fill="none" stroke="#ff2b00" d="M638,-498.37C638,-490.15 638,-480.66 638,-471.73"/>
<polygon fill="#ff2b00" stroke="#ff2b00" points="641.5,-471.61 638,-461.61 634.5,-471.61 641.5,-471.61"/>
</g>
<!-- node_0x5ed7f99397b0 -->
<g id="node34" class="node">
<title>node_0x5ed7f99397b0</title>
<path fill="#ff6699" stroke="#ffe9c7" d="M558.5,-332.5C558.5,-332.5 617.5,-332.5 617.5,-332.5 623.5,-332.5 629.5,-338.5 629.5,-344.5 629.5,-344.5 629.5,-366.5 629.5,-366.5 629.5,-372.5 623.5,-378.5 617.5,-378.5 617.5,-378.5 558.5,-378.5 558.5,-378.5 552.5,-378.5 546.5,-372.5 546.5,-366.5 546.5,-366.5 546.5,-344.5 546.5,-344.5 546.5,-338.5 552.5,-332.5 558.5,-332.5"/>
<text text-anchor="middle" x="588" y="-363.3" font-family="Times,serif" font-size="14.00">Identifier</text>
<polyline fill="none" stroke="#ffe9c7" points="546.5,-355.5 629.5,-355.5 "/>
<text text-anchor="middle" x="588" y="-340.3" font-family="Times,serif" font-size="14.00">3</text>
</g>
<!-- node_0x5ed7f9939810&#45;&gt;node_0x5ed7f99397b0 -->
<g id="edge33" class="edge">
<title>node_0x5ed7f9939810&#45;&gt;node_0x5ed7f99397b0</title>
<path fill="none" stroke="#9acd32" d="M624.34,-415.37C618.99,-406.71 612.77,-396.62 607,-387.27"/>
<polygon fill="#9acd32" stroke="#9acd32" points="609.88,-385.28 601.65,-378.61 603.92,-388.95 609.88,-385.28"/>
</g>
<!-- node_0x5ed7f9939840 -->
<g id="node35" class="node">
<title>node_0x5ed7f9939840</title>
<path fill="#03cffc" stroke="#ffe9c7" d="M659.5,-332.5C659.5,-332.5 716.5,-332.5 716.5,-332.5 722.5,-332.5 728.5,-338.5 728.5,-344.5 728.5,-344.5 728.5,-366.5 728.5,-366.5 728.5,-372.5 722.5,-378.5 716.5,-378.5 716.5,-378.5 659.5,-378.5 659.5,-378.5 653.5,-378.5 647.5,-372.5 647.5,-366.5 647.5,-366.5 647.5,-344.5 647.5,-344.5 647.5,-338.5 653.5,-332.5 659.5,-332.5"/>
<text text-anchor="middle" x="688" y="-363.3" font-family="Times,serif" font-size="14.00">Constant</text>
<polyline fill="none" stroke="#ffe9c7" points="647.5,-355.5 728.5,-355.5 "/>
<text text-anchor="middle" x="688" y="-340.3" font-family="Times,serif" font-size="14.00">753</text>
</g>
<!-- node_0x5ed7f9939810&#45;&gt;node_0x5ed7f9939840 -->
<g id="edge34" class="edge">
<title>node_0x5ed7f9939810&#45;&gt;node_0x5ed7f9939840</title>
<path fill="none" stroke="#ff2b00" d="M651.66,-415.37C657.01,-406.71 663.23,-396.62 669,-387.27"/>
<polygon fill="#ff2b00" stroke="#ff2b00" points="672.08,-388.95 674.35,-378.61 666.12,-385.28 672.08,-388.95"/>
</g>
<!-- node_0x5ed7f99398a0 -->
<g id="node37" class="node">
<title>node_0x5ed7f99398a0</title>
<path fill="#ff6699" stroke="#ffe9c7" d="M708.5,-415.5C708.5,-415.5 767.5,-415.5 767.5,-415.5 773.5,-415.5 779.5,-421.5 779.5,-427.5 779.5,-427.5 779.5,-449.5 779.5,-449.5 779.5,-455.5 773.5,-461.5 767.5,-461.5 767.5,-461.5 708.5,-461.5 708.5,-461.5 702.5,-461.5 696.5,-455.5 696.5,-449.5 696.5,-449.5 696.5,-427.5 696.5,-427.5 696.5,-421.5 702.5,-415.5 708.5,-415.5"/>
<text text-anchor="middle" x="738" y="-446.3" font-family="Times,serif" font-size="14.00">Identifier</text>
<polyline fill="none" stroke="#ffe9c7" points="696.5,-438.5 779.5,-438.5 "/>
<text text-anchor="middle" x="738" y="-423.3" font-family="Times,serif" font-size="14.00">3</text>
</g>
<!-- node_0x5ed7f9939870&#45;&gt;node_0x5ed7f99398a0 -->
<g id="edge36" class="edge">
<title>node_0x5ed7f9939870&#45;&gt;node_0x5ed7f99398a0</title>
<path fill="none" stroke="#ff2b00" d="M737.27,-498.37C737.37,-490.15 737.49,-480.66 737.6,-471.73"/>
<polygon fill="#ff2b00" stroke="#ff2b00" points="741.1,-471.65 737.73,-461.61 734.1,-471.56 741.1,-471.65"/>
</g>
</g>
</svg>
