<?xml version="1.0" encoding="UTF-8" standalone="no"?>
<!DOCTYPE svg PUBLIC "-//W3C//DTD SVG 1.1//EN"
 "http://www.w3.org/Graphics/SVG/1.1/DTD/svg11.dtd">
<!-- Generated by graphviz version 2.43.0 (0)
 -->
<!-- Title: G Pages: 1 -->
<svg width="689pt" height="926pt"
 viewBox="0.00 0.00 688.50 926.00" xmlns="http://www.w3.org/2000/svg" xmlns:xlink="http://www.w3.org/1999/xlink">
<g id="graph0" class="graph" transform="scale(1 1) rotate(0) translate(4 922)">
<title>G</title>
<polygon fill="#ffd480" stroke="transparent" points="-4,4 -4,-922 684.5,-922 684.5,4 -4,4"/>
<text text-anchor="middle" x="340.25" y="-890" font-family="Verdana" font-size="30.00" fill="#ffffff">AST</text>
<!-- node_0x504000000b90 -->
<g id="node1" class="node">
<title>node_0x504000000b90</title>
<path fill="#9966ff" stroke="#ffe9c7" d="M354,-830.5C354,-830.5 410,-830.5 410,-830.5 416,-830.5 422,-836.5 422,-842.5 422,-842.5 422,-864.5 422,-864.5 422,-870.5 416,-876.5 410,-876.5 410,-876.5 354,-876.5 354,-876.5 348,-876.5 342,-870.5 342,-864.5 342,-864.5 342,-842.5 342,-842.5 342,-836.5 348,-830.5 354,-830.5"/>
<text text-anchor="middle" x="382" y="-861.3" font-family="Times,serif" font-size="14.00">KeyWord</text>
<polyline fill="none" stroke="#ffe9c7" points="342,-853.5 422,-853.5 "/>
<text text-anchor="middle" x="382" y="-838.3" font-family="Times,serif" font-size="14.00">;</text>
</g>
<!-- node_0x504000000650 -->
<g id="node2" class="node">
<title>node_0x504000000650</title>
<path fill="#fca103" stroke="#ffe9c7" d="M299.5,-747.5C299.5,-747.5 356.5,-747.5 356.5,-747.5 362.5,-747.5 368.5,-753.5 368.5,-759.5 368.5,-759.5 368.5,-781.5 368.5,-781.5 368.5,-787.5 362.5,-793.5 356.5,-793.5 356.5,-793.5 299.5,-793.5 299.5,-793.5 293.5,-793.5 287.5,-787.5 287.5,-781.5 287.5,-781.5 287.5,-759.5 287.5,-759.5 287.5,-753.5 293.5,-747.5 299.5,-747.5"/>
<text text-anchor="middle" x="328" y="-778.3" font-family="Times,serif" font-size="14.00">Func Def</text>
<polyline fill="none" stroke="#ffe9c7" points="287.5,-770.5 368.5,-770.5 "/>
<text text-anchor="middle" x="328" y="-755.3" font-family="Times,serif" font-size="14.00">0</text>
</g>
<!-- node_0x504000000b90&#45;&gt;node_0x504000000650 -->
<g id="edge1" class="edge">
<title>node_0x504000000b90&#45;&gt;node_0x504000000650</title>
<path fill="none" stroke="#9acd32" d="M367.24,-830.37C361.41,-821.62 354.61,-811.41 348.32,-801.99"/>
<polygon fill="#9acd32" stroke="#9acd32" points="351.2,-799.99 342.74,-793.61 345.37,-803.87 351.2,-799.99"/>
</g>
<!-- node_0x504000000c10 -->
<g id="node24" class="node">
<title>node_0x504000000c10</title>
<path fill="#fca103" stroke="#ffe9c7" d="M407.5,-747.5C407.5,-747.5 464.5,-747.5 464.5,-747.5 470.5,-747.5 476.5,-753.5 476.5,-759.5 476.5,-759.5 476.5,-781.5 476.5,-781.5 476.5,-787.5 470.5,-793.5 464.5,-793.5 464.5,-793.5 407.5,-793.5 407.5,-793.5 401.5,-793.5 395.5,-787.5 395.5,-781.5 395.5,-781.5 395.5,-759.5 395.5,-759.5 395.5,-753.5 401.5,-747.5 407.5,-747.5"/>
<text text-anchor="middle" x="436" y="-778.3" font-family="Times,serif" font-size="14.00">Func Def</text>
<polyline fill="none" stroke="#ffe9c7" points="395.5,-770.5 476.5,-770.5 "/>
<text text-anchor="middle" x="436" y="-755.3" font-family="Times,serif" font-size="14.00">2</text>
</g>
<!-- node_0x504000000b90&#45;&gt;node_0x504000000c10 -->
<g id="edge23" class="edge">
<title>node_0x504000000b90&#45;&gt;node_0x504000000c10</title>
<path fill="none" stroke="#ff2b00" d="M396.76,-830.37C402.59,-821.62 409.39,-811.41 415.68,-801.99"/>
<polygon fill="#ff2b00" stroke="#ff2b00" points="418.63,-803.87 421.26,-793.61 412.8,-799.99 418.63,-803.87"/>
</g>
<!-- node_0x504000000610 -->
<g id="node3" class="node">
<title>node_0x504000000610</title>
<path fill="#9966ff" stroke="#ffe9c7" d="M192,-664.5C192,-664.5 248,-664.5 248,-664.5 254,-664.5 260,-670.5 260,-676.5 260,-676.5 260,-698.5 260,-698.5 260,-704.5 254,-710.5 248,-710.5 248,-710.5 192,-710.5 192,-710.5 186,-710.5 180,-704.5 180,-698.5 180,-698.5 180,-676.5 180,-676.5 180,-670.5 186,-664.5 192,-664.5"/>
<text text-anchor="middle" x="220" y="-695.3" font-family="Times,serif" font-size="14.00">KeyWord</text>
<polyline fill="none" stroke="#ffe9c7" points="180,-687.5 260,-687.5 "/>
<text text-anchor="middle" x="220" y="-672.3" font-family="Times,serif" font-size="14.00">int</text>
</g>
<!-- node_0x504000000650&#45;&gt;node_0x504000000610 -->
<g id="edge2" class="edge">
<title>node_0x504000000650&#45;&gt;node_0x504000000610</title>
<path fill="none" stroke="#9acd32" d="M298.49,-747.37C285.87,-737.9 270.99,-726.74 257.59,-716.69"/>
<polygon fill="#9acd32" stroke="#9acd32" points="259.58,-713.81 249.48,-710.61 255.38,-719.41 259.58,-713.81"/>
</g>
<!-- node_0x504000000690 -->
<g id="node4" class="node">
<title>node_0x504000000690</title>
<path fill="#fc0303" stroke="#ffe9c7" d="M290.5,-664.5C290.5,-664.5 365.5,-664.5 365.5,-664.5 371.5,-664.5 377.5,-670.5 377.5,-676.5 377.5,-676.5 377.5,-698.5 377.5,-698.5 377.5,-704.5 371.5,-710.5 365.5,-710.5 365.5,-710.5 290.5,-710.5 290.5,-710.5 284.5,-710.5 278.5,-704.5 278.5,-698.5 278.5,-698.5 278.5,-676.5 278.5,-676.5 278.5,-670.5 284.5,-664.5 290.5,-664.5"/>
<text text-anchor="middle" x="328" y="-695.3" font-family="Times,serif" font-size="14.00">Parameters</text>
<polyline fill="none" stroke="#ffe9c7" points="278.5,-687.5 377.5,-687.5 "/>
<text text-anchor="middle" x="328" y="-672.3" font-family="Times,serif" font-size="14.00">∅</text>
</g>
<!-- node_0x504000000650&#45;&gt;node_0x504000000690 -->
<g id="edge3" class="edge">
<title>node_0x504000000650&#45;&gt;node_0x504000000690</title>
<path fill="none" stroke="#ff2b00" d="M328,-747.37C328,-739.15 328,-729.66 328,-720.73"/>
<polygon fill="#ff2b00" stroke="#ff2b00" points="331.5,-720.61 328,-710.61 324.5,-720.61 331.5,-720.61"/>
</g>
<!-- node_0x5040000006d0 -->
<g id="node5" class="node">
<title>node_0x5040000006d0</title>
<path fill="#9966ff" stroke="#ffe9c7" d="M300,-581.5C300,-581.5 356,-581.5 356,-581.5 362,-581.5 368,-587.5 368,-593.5 368,-593.5 368,-615.5 368,-615.5 368,-621.5 362,-627.5 356,-627.5 356,-627.5 300,-627.5 300,-627.5 294,-627.5 288,-621.5 288,-615.5 288,-615.5 288,-593.5 288,-593.5 288,-587.5 294,-581.5 300,-581.5"/>
<text text-anchor="middle" x="328" y="-612.3" font-family="Times,serif" font-size="14.00">KeyWord</text>
<polyline fill="none" stroke="#ffe9c7" points="288,-604.5 368,-604.5 "/>
<text text-anchor="middle" x="328" y="-589.3" font-family="Times,serif" font-size="14.00">;</text>
</g>
<!-- node_0x504000000690&#45;&gt;node_0x5040000006d0 -->
<g id="edge4" class="edge">
<title>node_0x504000000690&#45;&gt;node_0x5040000006d0</title>
<path fill="none" stroke="#ff2b00" d="M328,-664.37C328,-656.15 328,-646.66 328,-637.73"/>
<polygon fill="#ff2b00" stroke="#ff2b00" points="331.5,-637.61 328,-627.61 324.5,-637.61 331.5,-637.61"/>
</g>
<!-- node_0x504000000990 -->
<g id="node6" class="node">
<title>node_0x504000000990</title>
<path fill="#9966ff" stroke="#ffe9c7" d="M207,-498.5C207,-498.5 263,-498.5 263,-498.5 269,-498.5 275,-504.5 275,-510.5 275,-510.5 275,-532.5 275,-532.5 275,-538.5 269,-544.5 263,-544.5 263,-544.5 207,-544.5 207,-544.5 201,-544.5 195,-538.5 195,-532.5 195,-532.5 195,-510.5 195,-510.5 195,-504.5 201,-498.5 207,-498.5"/>
<text text-anchor="middle" x="235" y="-529.3" font-family="Times,serif" font-size="14.00">KeyWord</text>
<polyline fill="none" stroke="#ffe9c7" points="195,-521.5 275,-521.5 "/>
<text text-anchor="middle" x="235" y="-506.3" font-family="Times,serif" font-size="14.00">;</text>
</g>
<!-- node_0x5040000006d0&#45;&gt;node_0x504000000990 -->
<g id="edge5" class="edge">
<title>node_0x5040000006d0&#45;&gt;node_0x504000000990</title>
<path fill="none" stroke="#9acd32" d="M302.59,-581.37C291.93,-572.08 279.39,-561.16 268.02,-551.26"/>
<polygon fill="#9acd32" stroke="#9acd32" points="270.22,-548.54 260.38,-544.61 265.62,-553.81 270.22,-548.54"/>
</g>
<!-- node_0x504000000b10 -->
<g id="node22" class="node">
<title>node_0x504000000b10</title>
<path fill="#9966ff" stroke="#ffe9c7" d="M305,-498.5C305,-498.5 361,-498.5 361,-498.5 367,-498.5 373,-504.5 373,-510.5 373,-510.5 373,-532.5 373,-532.5 373,-538.5 367,-544.5 361,-544.5 361,-544.5 305,-544.5 305,-544.5 299,-544.5 293,-538.5 293,-532.5 293,-532.5 293,-510.5 293,-510.5 293,-504.5 299,-498.5 305,-498.5"/>
<text text-anchor="middle" x="333" y="-529.3" font-family="Times,serif" font-size="14.00">KeyWord</text>
<polyline fill="none" stroke="#ffe9c7" points="293,-521.5 373,-521.5 "/>
<text text-anchor="middle" x="333" y="-506.3" font-family="Times,serif" font-size="14.00">return</text>
</g>
<!-- node_0x5040000006d0&#45;&gt;node_0x504000000b10 -->
<g id="edge21" class="edge">
<title>node_0x5040000006d0&#45;&gt;node_0x504000000b10</title>
<path fill="none" stroke="#ff2b00" d="M329.37,-581.37C329.87,-573.15 330.46,-563.66 331.01,-554.73"/>
<polygon fill="#ff2b00" stroke="#ff2b00" points="334.51,-554.8 331.64,-544.61 327.53,-554.37 334.51,-554.8"/>
</g>
<!-- node_0x504000000790 -->
<g id="node7" class="node">
<title>node_0x504000000790</title>
<path fill="#08c41e" stroke="#ffe9c7" d="M111.5,-415.5C111.5,-415.5 164.5,-415.5 164.5,-415.5 170.5,-415.5 176.5,-421.5 176.5,-427.5 176.5,-427.5 176.5,-449.5 176.5,-449.5 176.5,-455.5 170.5,-461.5 164.5,-461.5 164.5,-461.5 111.5,-461.5 111.5,-461.5 105.5,-461.5 99.5,-455.5 99.5,-449.5 99.5,-449.5 99.5,-427.5 99.5,-427.5 99.5,-421.5 105.5,-415.5 111.5,-415.5"/>
<text text-anchor="middle" x="138" y="-446.3" font-family="Times,serif" font-size="14.00">Var Decl</text>
<polyline fill="none" stroke="#ffe9c7" points="99.5,-438.5 176.5,-438.5 "/>
<text text-anchor="middle" x="138" y="-423.3" font-family="Times,serif" font-size="14.00">1</text>
</g>
<!-- node_0x504000000990&#45;&gt;node_0x504000000790 -->
<g id="edge6" class="edge">
<title>node_0x504000000990&#45;&gt;node_0x504000000790</title>
<path fill="none" stroke="#9acd32" d="M208.49,-498.37C197.37,-489.08 184.3,-478.16 172.44,-468.26"/>
<polygon fill="#9acd32" stroke="#9acd32" points="174.39,-465.33 164.47,-461.61 169.91,-470.7 174.39,-465.33"/>
</g>
<!-- node_0x504000000a50 -->
<g id="node17" class="node">
<title>node_0x504000000a50</title>
<path fill="#08c41e" stroke="#ffe9c7" d="M209.5,-415.5C209.5,-415.5 262.5,-415.5 262.5,-415.5 268.5,-415.5 274.5,-421.5 274.5,-427.5 274.5,-427.5 274.5,-449.5 274.5,-449.5 274.5,-455.5 268.5,-461.5 262.5,-461.5 262.5,-461.5 209.5,-461.5 209.5,-461.5 203.5,-461.5 197.5,-455.5 197.5,-449.5 197.5,-449.5 197.5,-427.5 197.5,-427.5 197.5,-421.5 203.5,-415.5 209.5,-415.5"/>
<text text-anchor="middle" x="236" y="-446.3" font-family="Times,serif" font-size="14.00">Var Decl</text>
<polyline fill="none" stroke="#ffe9c7" points="197.5,-438.5 274.5,-438.5 "/>
<text text-anchor="middle" x="236" y="-423.3" font-family="Times,serif" font-size="14.00">3</text>
</g>
<!-- node_0x504000000990&#45;&gt;node_0x504000000a50 -->
<g id="edge16" class="edge">
<title>node_0x504000000990&#45;&gt;node_0x504000000a50</title>
<path fill="none" stroke="#ff2b00" d="M235.27,-498.37C235.37,-490.15 235.49,-480.66 235.6,-471.73"/>
<polygon fill="#ff2b00" stroke="#ff2b00" points="239.1,-471.65 235.73,-461.61 232.1,-471.56 239.1,-471.65"/>
</g>
<!-- node_0x504000000710 -->
<g id="node8" class="node">
<title>node_0x504000000710</title>
<path fill="#9966ff" stroke="#ffe9c7" d="M12,-332.5C12,-332.5 68,-332.5 68,-332.5 74,-332.5 80,-338.5 80,-344.5 80,-344.5 80,-366.5 80,-366.5 80,-372.5 74,-378.5 68,-378.5 68,-378.5 12,-378.5 12,-378.5 6,-378.5 0,-372.5 0,-366.5 0,-366.5 0,-344.5 0,-344.5 0,-338.5 6,-332.5 12,-332.5"/>
<text text-anchor="middle" x="40" y="-363.3" font-family="Times,serif" font-size="14.00">KeyWord</text>
<polyline fill="none" stroke="#ffe9c7" points="0,-355.5 80,-355.5 "/>
<text text-anchor="middle" x="40" y="-340.3" font-family="Times,serif" font-size="14.00">int</text>
</g>
<!-- node_0x504000000790&#45;&gt;node_0x504000000710 -->
<g id="edge7" class="edge">
<title>node_0x504000000790&#45;&gt;node_0x504000000710</title>
<path fill="none" stroke="#9acd32" d="M111.22,-415.37C99.99,-406.08 86.77,-395.16 74.8,-385.26"/>
<polygon fill="#9acd32" stroke="#9acd32" points="76.68,-382.28 66.75,-378.61 72.22,-387.68 76.68,-382.28"/>
</g>
<!-- node_0x5040000007d0 -->
<g id="node9" class="node">
<title>node_0x5040000007d0</title>
<path fill="#9966ff" stroke="#ffe9c7" d="M110,-332.5C110,-332.5 166,-332.5 166,-332.5 172,-332.5 178,-338.5 178,-344.5 178,-344.5 178,-366.5 178,-366.5 178,-372.5 172,-378.5 166,-378.5 166,-378.5 110,-378.5 110,-378.5 104,-378.5 98,-372.5 98,-366.5 98,-366.5 98,-344.5 98,-344.5 98,-338.5 104,-332.5 110,-332.5"/>
<text text-anchor="middle" x="138" y="-363.3" font-family="Times,serif" font-size="14.00">KeyWord</text>
<polyline fill="none" stroke="#ffe9c7" points="98,-355.5 178,-355.5 "/>
<text text-anchor="middle" x="138" y="-340.3" font-family="Times,serif" font-size="14.00">=</text>
</g>
<!-- node_0x504000000790&#45;&gt;node_0x5040000007d0 -->
<g id="edge8" class="edge">
<title>node_0x504000000790&#45;&gt;node_0x5040000007d0</title>
<path fill="none" stroke="#ff2b00" d="M138,-415.37C138,-407.15 138,-397.66 138,-388.73"/>
<polygon fill="#ff2b00" stroke="#ff2b00" points="141.5,-388.61 138,-378.61 134.5,-388.61 141.5,-388.61"/>
</g>
<!-- node_0x504000000750 -->
<g id="node10" class="node">
<title>node_0x504000000750</title>
<path fill="#ff6699" stroke="#ffe9c7" d="M25.5,-249.5C25.5,-249.5 84.5,-249.5 84.5,-249.5 90.5,-249.5 96.5,-255.5 96.5,-261.5 96.5,-261.5 96.5,-283.5 96.5,-283.5 96.5,-289.5 90.5,-295.5 84.5,-295.5 84.5,-295.5 25.5,-295.5 25.5,-295.5 19.5,-295.5 13.5,-289.5 13.5,-283.5 13.5,-283.5 13.5,-261.5 13.5,-261.5 13.5,-255.5 19.5,-249.5 25.5,-249.5"/>
<text text-anchor="middle" x="55" y="-280.3" font-family="Times,serif" font-size="14.00">Identifier</text>
<polyline fill="none" stroke="#ffe9c7" points="13.5,-272.5 96.5,-272.5 "/>
<text text-anchor="middle" x="55" y="-257.3" font-family="Times,serif" font-size="14.00">1</text>
</g>
<!-- node_0x5040000007d0&#45;&gt;node_0x504000000750 -->
<g id="edge9" class="edge">
<title>node_0x5040000007d0&#45;&gt;node_0x504000000750</title>
<path fill="none" stroke="#9acd32" d="M115.32,-332.37C105.99,-323.26 95.04,-312.58 85.06,-302.83"/>
<polygon fill="#9acd32" stroke="#9acd32" points="87.25,-300.09 77.65,-295.61 82.36,-305.1 87.25,-300.09"/>
</g>
<!-- node_0x504000000850 -->
<g id="node11" class="node">
<title>node_0x504000000850</title>
<path fill="#916306" stroke="#ffe9c7" d="M127,-249.5C127,-249.5 157,-249.5 157,-249.5 163,-249.5 169,-255.5 169,-261.5 169,-261.5 169,-283.5 169,-283.5 169,-289.5 163,-295.5 157,-295.5 157,-295.5 127,-295.5 127,-295.5 121,-295.5 115,-289.5 115,-283.5 115,-283.5 115,-261.5 115,-261.5 115,-255.5 121,-249.5 127,-249.5"/>
<text text-anchor="middle" x="142" y="-280.3" font-family="Times,serif" font-size="14.00">Call</text>
<polyline fill="none" stroke="#ffe9c7" points="115,-272.5 169,-272.5 "/>
<text text-anchor="middle" x="142" y="-257.3" font-family="Times,serif" font-size="14.00">∅</text>
</g>
<!-- node_0x5040000007d0&#45;&gt;node_0x504000000850 -->
<g id="edge10" class="edge">
<title>node_0x5040000007d0&#45;&gt;node_0x504000000850</title>
<path fill="none" stroke="#ff2b00" d="M139.09,-332.37C139.5,-324.15 139.97,-314.66 140.41,-305.73"/>
<polygon fill="#ff2b00" stroke="#ff2b00" points="143.91,-305.77 140.91,-295.61 136.92,-305.42 143.91,-305.77"/>
</g>
<!-- node_0x504000000890 -->
<g id="node12" class="node">
<title>node_0x504000000890</title>
<path fill="#9966ff" stroke="#ffe9c7" d="M64,-166.5C64,-166.5 120,-166.5 120,-166.5 126,-166.5 132,-172.5 132,-178.5 132,-178.5 132,-200.5 132,-200.5 132,-206.5 126,-212.5 120,-212.5 120,-212.5 64,-212.5 64,-212.5 58,-212.5 52,-206.5 52,-200.5 52,-200.5 52,-178.5 52,-178.5 52,-172.5 58,-166.5 64,-166.5"/>
<text text-anchor="middle" x="92" y="-197.3" font-family="Times,serif" font-size="14.00">KeyWord</text>
<polyline fill="none" stroke="#ffe9c7" points="52,-189.5 132,-189.5 "/>
<text text-anchor="middle" x="92" y="-174.3" font-family="Times,serif" font-size="14.00">sin</text>
</g>
<!-- node_0x504000000850&#45;&gt;node_0x504000000890 -->
<g id="edge11" class="edge">
<title>node_0x504000000850&#45;&gt;node_0x504000000890</title>
<path fill="none" stroke="#9acd32" d="M128.34,-249.37C122.99,-240.71 116.77,-230.62 111,-221.27"/>
<polygon fill="#9acd32" stroke="#9acd32" points="113.88,-219.28 105.65,-212.61 107.92,-222.95 113.88,-219.28"/>
</g>
<!-- node_0x504000000810 -->
<g id="node16" class="node">
<title>node_0x504000000810</title>
<path fill="#ff6699" stroke="#ffe9c7" d="M162.5,-166.5C162.5,-166.5 221.5,-166.5 221.5,-166.5 227.5,-166.5 233.5,-172.5 233.5,-178.5 233.5,-178.5 233.5,-200.5 233.5,-200.5 233.5,-206.5 227.5,-212.5 221.5,-212.5 221.5,-212.5 162.5,-212.5 162.5,-212.5 156.5,-212.5 150.5,-206.5 150.5,-200.5 150.5,-200.5 150.5,-178.5 150.5,-178.5 150.5,-172.5 156.5,-166.5 162.5,-166.5"/>
<text text-anchor="middle" x="192" y="-197.3" font-family="Times,serif" font-size="14.00">Identifier</text>
<polyline fill="none" stroke="#ffe9c7" points="150.5,-189.5 233.5,-189.5 "/>
<text text-anchor="middle" x="192" y="-174.3" font-family="Times,serif" font-size="14.00">2</text>
</g>
<!-- node_0x504000000850&#45;&gt;node_0x504000000810 -->
<g id="edge15" class="edge">
<title>node_0x504000000850&#45;&gt;node_0x504000000810</title>
<path fill="none" stroke="#ff2b00" d="M155.66,-249.37C161.01,-240.71 167.23,-230.62 173,-221.27"/>
<polygon fill="#ff2b00" stroke="#ff2b00" points="176.08,-222.95 178.35,-212.61 170.12,-219.28 176.08,-222.95"/>
</g>
<!-- node_0x504000000910 -->
<g id="node13" class="node">
<title>node_0x504000000910</title>
<path fill="#9966ff" stroke="#ffe9c7" d="M64,-83.5C64,-83.5 120,-83.5 120,-83.5 126,-83.5 132,-89.5 132,-95.5 132,-95.5 132,-117.5 132,-117.5 132,-123.5 126,-129.5 120,-129.5 120,-129.5 64,-129.5 64,-129.5 58,-129.5 52,-123.5 52,-117.5 52,-117.5 52,-95.5 52,-95.5 52,-89.5 58,-83.5 64,-83.5"/>
<text text-anchor="middle" x="92" y="-114.3" font-family="Times,serif" font-size="14.00">KeyWord</text>
<polyline fill="none" stroke="#ffe9c7" points="52,-106.5 132,-106.5 "/>
<text text-anchor="middle" x="92" y="-91.3" font-family="Times,serif" font-size="14.00">+</text>
</g>
<!-- node_0x504000000890&#45;&gt;node_0x504000000910 -->
<g id="edge12" class="edge">
<title>node_0x504000000890&#45;&gt;node_0x504000000910</title>
<path fill="none" stroke="#ff2b00" d="M92,-166.37C92,-158.15 92,-148.66 92,-139.73"/>
<polygon fill="#ff2b00" stroke="#ff2b00" points="95.5,-139.61 92,-129.61 88.5,-139.61 95.5,-139.61"/>
</g>
<!-- node_0x5040000008d0 -->
<g id="node14" class="node">
<title>node_0x5040000008d0</title>
<path fill="#03cffc" stroke="#ffe9c7" d="M14.5,-0.5C14.5,-0.5 71.5,-0.5 71.5,-0.5 77.5,-0.5 83.5,-6.5 83.5,-12.5 83.5,-12.5 83.5,-34.5 83.5,-34.5 83.5,-40.5 77.5,-46.5 71.5,-46.5 71.5,-46.5 14.5,-46.5 14.5,-46.5 8.5,-46.5 2.5,-40.5 2.5,-34.5 2.5,-34.5 2.5,-12.5 2.5,-12.5 2.5,-6.5 8.5,-0.5 14.5,-0.5"/>
<text text-anchor="middle" x="43" y="-31.3" font-family="Times,serif" font-size="14.00">Constant</text>
<polyline fill="none" stroke="#ffe9c7" points="2.5,-23.5 83.5,-23.5 "/>
<text text-anchor="middle" x="43" y="-8.3" font-family="Times,serif" font-size="14.00">15</text>
</g>
<!-- node_0x504000000910&#45;&gt;node_0x5040000008d0 -->
<g id="edge13" class="edge">
<title>node_0x504000000910&#45;&gt;node_0x5040000008d0</title>
<path fill="none" stroke="#9acd32" d="M78.61,-83.37C73.37,-74.71 67.27,-64.62 61.62,-55.27"/>
<polygon fill="#9acd32" stroke="#9acd32" points="64.54,-53.35 56.37,-46.61 58.55,-56.97 64.54,-53.35"/>
</g>
<!-- node_0x504000000950 -->
<g id="node15" class="node">
<title>node_0x504000000950</title>
<path fill="#03cffc" stroke="#ffe9c7" d="M113.5,-0.5C113.5,-0.5 170.5,-0.5 170.5,-0.5 176.5,-0.5 182.5,-6.5 182.5,-12.5 182.5,-12.5 182.5,-34.5 182.5,-34.5 182.5,-40.5 176.5,-46.5 170.5,-46.5 170.5,-46.5 113.5,-46.5 113.5,-46.5 107.5,-46.5 101.5,-40.5 101.5,-34.5 101.5,-34.5 101.5,-12.5 101.5,-12.5 101.5,-6.5 107.5,-0.5 113.5,-0.5"/>
<text text-anchor="middle" x="142" y="-31.3" font-family="Times,serif" font-size="14.00">Constant</text>
<polyline fill="none" stroke="#ffe9c7" points="101.5,-23.5 182.5,-23.5 "/>
<text text-anchor="middle" x="142" y="-8.3" font-family="Times,serif" font-size="14.00">1</text>
</g>
<!-- node_0x504000000910&#45;&gt;node_0x504000000950 -->
<g id="edge14" class="edge">
<title>node_0x504000000910&#45;&gt;node_0x504000000950</title>
<path fill="none" stroke="#ff2b00" d="M105.66,-83.37C111.01,-74.71 117.23,-64.62 123,-55.27"/>
<polygon fill="#ff2b00" stroke="#ff2b00" points="126.08,-56.95 128.35,-46.61 120.12,-53.28 126.08,-56.95"/>
</g>
<!-- node_0x5040000009d0 -->
<g id="node18" class="node">
<title>node_0x5040000009d0</title>
<path fill="#9966ff" stroke="#ffe9c7" d="M208,-332.5C208,-332.5 264,-332.5 264,-332.5 270,-332.5 276,-338.5 276,-344.5 276,-344.5 276,-366.5 276,-366.5 276,-372.5 270,-378.5 264,-378.5 264,-378.5 208,-378.5 208,-378.5 202,-378.5 196,-372.5 196,-366.5 196,-366.5 196,-344.5 196,-344.5 196,-338.5 202,-332.5 208,-332.5"/>
<text text-anchor="middle" x="236" y="-363.3" font-family="Times,serif" font-size="14.00">KeyWord</text>
<polyline fill="none" stroke="#ffe9c7" points="196,-355.5 276,-355.5 "/>
<text text-anchor="middle" x="236" y="-340.3" font-family="Times,serif" font-size="14.00">int</text>
</g>
<!-- node_0x504000000a50&#45;&gt;node_0x5040000009d0 -->
<g id="edge17" class="edge">
<title>node_0x504000000a50&#45;&gt;node_0x5040000009d0</title>
<path fill="none" stroke="#9acd32" d="M236,-415.37C236,-407.15 236,-397.66 236,-388.73"/>
<polygon fill="#9acd32" stroke="#9acd32" points="239.5,-388.61 236,-378.61 232.5,-388.61 239.5,-388.61"/>
</g>
<!-- node_0x504000000a90 -->
<g id="node19" class="node">
<title>node_0x504000000a90</title>
<path fill="#9966ff" stroke="#ffe9c7" d="M306,-332.5C306,-332.5 362,-332.5 362,-332.5 368,-332.5 374,-338.5 374,-344.5 374,-344.5 374,-366.5 374,-366.5 374,-372.5 368,-378.5 362,-378.5 362,-378.5 306,-378.5 306,-378.5 300,-378.5 294,-372.5 294,-366.5 294,-366.5 294,-344.5 294,-344.5 294,-338.5 300,-332.5 306,-332.5"/>
<text text-anchor="middle" x="334" y="-363.3" font-family="Times,serif" font-size="14.00">KeyWord</text>
<polyline fill="none" stroke="#ffe9c7" points="294,-355.5 374,-355.5 "/>
<text text-anchor="middle" x="334" y="-340.3" font-family="Times,serif" font-size="14.00">=</text>
</g>
<!-- node_0x504000000a50&#45;&gt;node_0x504000000a90 -->
<g id="edge18" class="edge">
<title>node_0x504000000a50&#45;&gt;node_0x504000000a90</title>
<path fill="none" stroke="#ff2b00" d="M262.78,-415.37C274.01,-406.08 287.23,-395.16 299.2,-385.26"/>
<polygon fill="#ff2b00" stroke="#ff2b00" points="301.78,-387.68 307.25,-378.61 297.32,-382.28 301.78,-387.68"/>
</g>
<!-- node_0x504000000a10 -->
<g id="node20" class="node">
<title>node_0x504000000a10</title>
<path fill="#ff6699" stroke="#ffe9c7" d="M254.5,-249.5C254.5,-249.5 313.5,-249.5 313.5,-249.5 319.5,-249.5 325.5,-255.5 325.5,-261.5 325.5,-261.5 325.5,-283.5 325.5,-283.5 325.5,-289.5 319.5,-295.5 313.5,-295.5 313.5,-295.5 254.5,-295.5 254.5,-295.5 248.5,-295.5 242.5,-289.5 242.5,-283.5 242.5,-283.5 242.5,-261.5 242.5,-261.5 242.5,-255.5 248.5,-249.5 254.5,-249.5"/>
<text text-anchor="middle" x="284" y="-280.3" font-family="Times,serif" font-size="14.00">Identifier</text>
<polyline fill="none" stroke="#ffe9c7" points="242.5,-272.5 325.5,-272.5 "/>
<text text-anchor="middle" x="284" y="-257.3" font-family="Times,serif" font-size="14.00">3</text>
</g>
<!-- node_0x504000000a90&#45;&gt;node_0x504000000a10 -->
<g id="edge19" class="edge">
<title>node_0x504000000a90&#45;&gt;node_0x504000000a10</title>
<path fill="none" stroke="#9acd32" d="M320.34,-332.37C314.99,-323.71 308.77,-313.62 303,-304.27"/>
<polygon fill="#9acd32" stroke="#9acd32" points="305.88,-302.28 297.65,-295.61 299.92,-305.95 305.88,-302.28"/>
</g>
<!-- node_0x504000000ad0 -->
<g id="node21" class="node">
<title>node_0x504000000ad0</title>
<path fill="#03cffc" stroke="#ffe9c7" d="M355.5,-249.5C355.5,-249.5 412.5,-249.5 412.5,-249.5 418.5,-249.5 424.5,-255.5 424.5,-261.5 424.5,-261.5 424.5,-283.5 424.5,-283.5 424.5,-289.5 418.5,-295.5 412.5,-295.5 412.5,-295.5 355.5,-295.5 355.5,-295.5 349.5,-295.5 343.5,-289.5 343.5,-283.5 343.5,-283.5 343.5,-261.5 343.5,-261.5 343.5,-255.5 349.5,-249.5 355.5,-249.5"/>
<text text-anchor="middle" x="384" y="-280.3" font-family="Times,serif" font-size="14.00">Constant</text>
<polyline fill="none" stroke="#ffe9c7" points="343.5,-272.5 424.5,-272.5 "/>
<text text-anchor="middle" x="384" y="-257.3" font-family="Times,serif" font-size="14.00">15</text>
</g>
<!-- node_0x504000000a90&#45;&gt;node_0x504000000ad0 -->
<g id="edge20" class="edge">
<title>node_0x504000000a90&#45;&gt;node_0x504000000ad0</title>
<path fill="none" stroke="#ff2b00" d="M347.66,-332.37C353.01,-323.71 359.23,-313.62 365,-304.27"/>
<polygon fill="#ff2b00" stroke="#ff2b00" points="368.08,-305.95 370.35,-295.61 362.12,-302.28 368.08,-305.95"/>
</g>
<!-- node_0x504000000b50 -->
<g id="node23" class="node">
<title>node_0x504000000b50</title>
<path fill="#03cffc" stroke="#ffe9c7" d="M304.5,-415.5C304.5,-415.5 361.5,-415.5 361.5,-415.5 367.5,-415.5 373.5,-421.5 373.5,-427.5 373.5,-427.5 373.5,-449.5 373.5,-449.5 373.5,-455.5 367.5,-461.5 361.5,-461.5 361.5,-461.5 304.5,-461.5 304.5,-461.5 298.5,-461.5 292.5,-455.5 292.5,-449.5 292.5,-449.5 292.5,-427.5 292.5,-427.5 292.5,-421.5 298.5,-415.5 304.5,-415.5"/>
<text text-anchor="middle" x="333" y="-446.3" font-family="Times,serif" font-size="14.00">Constant</text>
<polyline fill="none" stroke="#ffe9c7" points="292.5,-438.5 373.5,-438.5 "/>
<text text-anchor="middle" x="333" y="-423.3" font-family="Times,serif" font-size="14.00">0</text>
</g>
<!-- node_0x504000000b10&#45;&gt;node_0x504000000b50 -->
<g id="edge22" class="edge">
<title>node_0x504000000b10&#45;&gt;node_0x504000000b50</title>
<path fill="none" stroke="#ff2b00" d="M333,-498.37C333,-490.15 333,-480.66 333,-471.73"/>
<polygon fill="#ff2b00" stroke="#ff2b00" points="336.5,-471.61 333,-461.61 329.5,-471.61 336.5,-471.61"/>
</g>
<!-- node_0x504000000bd0 -->
<g id="node25" class="node">
<title>node_0x504000000bd0</title>
<path fill="#9966ff" stroke="#ffe9c7" d="M408,-664.5C408,-664.5 464,-664.5 464,-664.5 470,-664.5 476,-670.5 476,-676.5 476,-676.5 476,-698.5 476,-698.5 476,-704.5 470,-710.5 464,-710.5 464,-710.5 408,-710.5 408,-710.5 402,-710.5 396,-704.5 396,-698.5 396,-698.5 396,-676.5 396,-676.5 396,-670.5 402,-664.5 408,-664.5"/>
<text text-anchor="middle" x="436" y="-695.3" font-family="Times,serif" font-size="14.00">KeyWord</text>
<polyline fill="none" stroke="#ffe9c7" points="396,-687.5 476,-687.5 "/>
<text text-anchor="middle" x="436" y="-672.3" font-family="Times,serif" font-size="14.00">int</text>
</g>
<!-- node_0x504000000c10&#45;&gt;node_0x504000000bd0 -->
<g id="edge24" class="edge">
<title>node_0x504000000c10&#45;&gt;node_0x504000000bd0</title>
<path fill="none" stroke="#9acd32" d="M436,-747.37C436,-739.15 436,-729.66 436,-720.73"/>
<polygon fill="#9acd32" stroke="#9acd32" points="439.5,-720.61 436,-710.61 432.5,-720.61 439.5,-720.61"/>
</g>
<!-- node_0x504000000c50 -->
<g id="node26" class="node">
<title>node_0x504000000c50</title>
<path fill="#fc0303" stroke="#ffe9c7" d="M506.5,-664.5C506.5,-664.5 581.5,-664.5 581.5,-664.5 587.5,-664.5 593.5,-670.5 593.5,-676.5 593.5,-676.5 593.5,-698.5 593.5,-698.5 593.5,-704.5 587.5,-710.5 581.5,-710.5 581.5,-710.5 506.5,-710.5 506.5,-710.5 500.5,-710.5 494.5,-704.5 494.5,-698.5 494.5,-698.5 494.5,-676.5 494.5,-676.5 494.5,-670.5 500.5,-664.5 506.5,-664.5"/>
<text text-anchor="middle" x="544" y="-695.3" font-family="Times,serif" font-size="14.00">Parameters</text>
<polyline fill="none" stroke="#ffe9c7" points="494.5,-687.5 593.5,-687.5 "/>
<text text-anchor="middle" x="544" y="-672.3" font-family="Times,serif" font-size="14.00">∅</text>
</g>
<!-- node_0x504000000c10&#45;&gt;node_0x504000000c50 -->
<g id="edge25" class="edge">
<title>node_0x504000000c10&#45;&gt;node_0x504000000c50</title>
<path fill="none" stroke="#ff2b00" d="M465.51,-747.37C478.13,-737.9 493.01,-726.74 506.41,-716.69"/>
<polygon fill="#ff2b00" stroke="#ff2b00" points="508.62,-719.41 514.52,-710.61 504.42,-713.81 508.62,-719.41"/>
</g>
<!-- node_0x504000000c90 -->
<g id="node27" class="node">
<title>node_0x504000000c90</title>
<path fill="#9966ff" stroke="#ffe9c7" d="M516,-581.5C516,-581.5 572,-581.5 572,-581.5 578,-581.5 584,-587.5 584,-593.5 584,-593.5 584,-615.5 584,-615.5 584,-621.5 578,-627.5 572,-627.5 572,-627.5 516,-627.5 516,-627.5 510,-627.5 504,-621.5 504,-615.5 504,-615.5 504,-593.5 504,-593.5 504,-587.5 510,-581.5 516,-581.5"/>
<text text-anchor="middle" x="544" y="-612.3" font-family="Times,serif" font-size="14.00">KeyWord</text>
<polyline fill="none" stroke="#ffe9c7" points="504,-604.5 584,-604.5 "/>
<text text-anchor="middle" x="544" y="-589.3" font-family="Times,serif" font-size="14.00">;</text>
</g>
<!-- node_0x504000000c50&#45;&gt;node_0x504000000c90 -->
<g id="edge26" class="edge">
<title>node_0x504000000c50&#45;&gt;node_0x504000000c90</title>
<path fill="none" stroke="#ff2b00" d="M544,-664.37C544,-656.15 544,-646.66 544,-637.73"/>
<polygon fill="#ff2b00" stroke="#ff2b00" points="547.5,-637.61 544,-627.61 540.5,-637.61 547.5,-637.61"/>
</g>
<!-- node_0x504000000d50 -->
<g id="node28" class="node">
<title>node_0x504000000d50</title>
<path fill="#08c41e" stroke="#ffe9c7" d="M512.5,-498.5C512.5,-498.5 565.5,-498.5 565.5,-498.5 571.5,-498.5 577.5,-504.5 577.5,-510.5 577.5,-510.5 577.5,-532.5 577.5,-532.5 577.5,-538.5 571.5,-544.5 565.5,-544.5 565.5,-544.5 512.5,-544.5 512.5,-544.5 506.5,-544.5 500.5,-538.5 500.5,-532.5 500.5,-532.5 500.5,-510.5 500.5,-510.5 500.5,-504.5 506.5,-498.5 512.5,-498.5"/>
<text text-anchor="middle" x="539" y="-529.3" font-family="Times,serif" font-size="14.00">Var Decl</text>
<polyline fill="none" stroke="#ffe9c7" points="500.5,-521.5 577.5,-521.5 "/>
<text text-anchor="middle" x="539" y="-506.3" font-family="Times,serif" font-size="14.00">3</text>
</g>
<!-- node_0x504000000c90&#45;&gt;node_0x504000000d50 -->
<g id="edge27" class="edge">
<title>node_0x504000000c90&#45;&gt;node_0x504000000d50</title>
<path fill="none" stroke="#9acd32" d="M542.63,-581.37C542.13,-573.15 541.54,-563.66 540.99,-554.73"/>
<polygon fill="#9acd32" stroke="#9acd32" points="544.47,-554.37 540.36,-544.61 537.49,-554.8 544.47,-554.37"/>
</g>
<!-- node_0x504000000e10 -->
<g id="node33" class="node">
<title>node_0x504000000e10</title>
<path fill="#9966ff" stroke="#ffe9c7" d="M609,-498.5C609,-498.5 665,-498.5 665,-498.5 671,-498.5 677,-504.5 677,-510.5 677,-510.5 677,-532.5 677,-532.5 677,-538.5 671,-544.5 665,-544.5 665,-544.5 609,-544.5 609,-544.5 603,-544.5 597,-538.5 597,-532.5 597,-532.5 597,-510.5 597,-510.5 597,-504.5 603,-498.5 609,-498.5"/>
<text text-anchor="middle" x="637" y="-529.3" font-family="Times,serif" font-size="14.00">KeyWord</text>
<polyline fill="none" stroke="#ffe9c7" points="597,-521.5 677,-521.5 "/>
<text text-anchor="middle" x="637" y="-506.3" font-family="Times,serif" font-size="14.00">return</text>
</g>
<!-- node_0x504000000c90&#45;&gt;node_0x504000000e10 -->
<g id="edge32" class="edge">
<title>node_0x504000000c90&#45;&gt;node_0x504000000e10</title>
<path fill="none" stroke="#ff2b00" d="M569.41,-581.37C580.07,-572.08 592.61,-561.16 603.98,-551.26"/>
<polygon fill="#ff2b00" stroke="#ff2b00" points="606.38,-553.81 611.62,-544.61 601.78,-548.54 606.38,-553.81"/>
</g>
<!-- node_0x504000000cd0 -->
<g id="node29" class="node">
<title>node_0x504000000cd0</title>
<path fill="#9966ff" stroke="#ffe9c7" d="M413,-415.5C413,-415.5 469,-415.5 469,-415.5 475,-415.5 481,-421.5 481,-427.5 481,-427.5 481,-449.5 481,-449.5 481,-455.5 475,-461.5 469,-461.5 469,-461.5 413,-461.5 413,-461.5 407,-461.5 401,-455.5 401,-449.5 401,-449.5 401,-427.5 401,-427.5 401,-421.5 407,-415.5 413,-415.5"/>
<text text-anchor="middle" x="441" y="-446.3" font-family="Times,serif" font-size="14.00">KeyWord</text>
<polyline fill="none" stroke="#ffe9c7" points="401,-438.5 481,-438.5 "/>
<text text-anchor="middle" x="441" y="-423.3" font-family="Times,serif" font-size="14.00">int</text>
</g>
<!-- node_0x504000000d50&#45;&gt;node_0x504000000cd0 -->
<g id="edge28" class="edge">
<title>node_0x504000000d50&#45;&gt;node_0x504000000cd0</title>
<path fill="none" stroke="#9acd32" d="M512.22,-498.37C500.99,-489.08 487.77,-478.16 475.8,-468.26"/>
<polygon fill="#9acd32" stroke="#9acd32" points="477.68,-465.28 467.75,-461.61 473.22,-470.68 477.68,-465.28"/>
</g>
<!-- node_0x504000000d90 -->
<g id="node30" class="node">
<title>node_0x504000000d90</title>
<path fill="#9966ff" stroke="#ffe9c7" d="M511,-415.5C511,-415.5 567,-415.5 567,-415.5 573,-415.5 579,-421.5 579,-427.5 579,-427.5 579,-449.5 579,-449.5 579,-455.5 573,-461.5 567,-461.5 567,-461.5 511,-461.5 511,-461.5 505,-461.5 499,-455.5 499,-449.5 499,-449.5 499,-427.5 499,-427.5 499,-421.5 505,-415.5 511,-415.5"/>
<text text-anchor="middle" x="539" y="-446.3" font-family="Times,serif" font-size="14.00">KeyWord</text>
<polyline fill="none" stroke="#ffe9c7" points="499,-438.5 579,-438.5 "/>
<text text-anchor="middle" x="539" y="-423.3" font-family="Times,serif" font-size="14.00">=</text>
</g>
<!-- node_0x504000000d50&#45;&gt;node_0x504000000d90 -->
<g id="edge29" class="edge">
<title>node_0x504000000d50&#45;&gt;node_0x504000000d90</title>
<path fill="none" stroke="#ff2b00" d="M539,-498.37C539,-490.15 539,-480.66 539,-471.73"/>
<polygon fill="#ff2b00" stroke="#ff2b00" points="542.5,-471.61 539,-461.61 535.5,-471.61 542.5,-471.61"/>
</g>
<!-- node_0x504000000d10 -->
<g id="node31" class="node">
<title>node_0x504000000d10</title>
<path fill="#ff6699" stroke="#ffe9c7" d="M459.5,-332.5C459.5,-332.5 518.5,-332.5 518.5,-332.5 524.5,-332.5 530.5,-338.5 530.5,-344.5 530.5,-344.5 530.5,-366.5 530.5,-366.5 530.5,-372.5 524.5,-378.5 518.5,-378.5 518.5,-378.5 459.5,-378.5 459.5,-378.5 453.5,-378.5 447.5,-372.5 447.5,-366.5 447.5,-366.5 447.5,-344.5 447.5,-344.5 447.5,-338.5 453.5,-332.5 459.5,-332.5"/>
<text text-anchor="middle" x="489" y="-363.3" font-family="Times,serif" font-size="14.00">Identifier</text>
<polyline fill="none" stroke="#ffe9c7" points="447.5,-355.5 530.5,-355.5 "/>
<text text-anchor="middle" x="489" y="-340.3" font-family="Times,serif" font-size="14.00">3</text>
</g>
<!-- node_0x504000000d90&#45;&gt;node_0x504000000d10 -->
<g id="edge30" class="edge">
<title>node_0x504000000d90&#45;&gt;node_0x504000000d10</title>
<path fill="none" stroke="#9acd32" d="M525.34,-415.37C519.99,-406.71 513.77,-396.62 508,-387.27"/>
<polygon fill="#9acd32" stroke="#9acd32" points="510.88,-385.28 502.65,-378.61 504.92,-388.95 510.88,-385.28"/>
</g>
<!-- node_0x504000000dd0 -->
<g id="node32" class="node">
<title>node_0x504000000dd0</title>
<path fill="#03cffc" stroke="#ffe9c7" d="M560.5,-332.5C560.5,-332.5 617.5,-332.5 617.5,-332.5 623.5,-332.5 629.5,-338.5 629.5,-344.5 629.5,-344.5 629.5,-366.5 629.5,-366.5 629.5,-372.5 623.5,-378.5 617.5,-378.5 617.5,-378.5 560.5,-378.5 560.5,-378.5 554.5,-378.5 548.5,-372.5 548.5,-366.5 548.5,-366.5 548.5,-344.5 548.5,-344.5 548.5,-338.5 554.5,-332.5 560.5,-332.5"/>
<text text-anchor="middle" x="589" y="-363.3" font-family="Times,serif" font-size="14.00">Constant</text>
<polyline fill="none" stroke="#ffe9c7" points="548.5,-355.5 629.5,-355.5 "/>
<text text-anchor="middle" x="589" y="-340.3" font-family="Times,serif" font-size="14.00">753</text>
</g>
<!-- node_0x504000000d90&#45;&gt;node_0x504000000dd0 -->
<g id="edge31" class="edge">
<title>node_0x504000000d90&#45;&gt;node_0x504000000dd0</title>
<path fill="none" stroke="#ff2b00" d="M552.66,-415.37C558.01,-406.71 564.23,-396.62 570,-387.27"/>
<polygon fill="#ff2b00" stroke="#ff2b00" points="573.08,-388.95 575.35,-378.61 567.12,-385.28 573.08,-388.95"/>
</g>
<!-- node_0x504000000e50 -->
<g id="node34" class="node">
<title>node_0x504000000e50</title>
<path fill="#ff6699" stroke="#ffe9c7" d="M609.5,-415.5C609.5,-415.5 668.5,-415.5 668.5,-415.5 674.5,-415.5 680.5,-421.5 680.5,-427.5 680.5,-427.5 680.5,-449.5 680.5,-449.5 680.5,-455.5 674.5,-461.5 668.5,-461.5 668.5,-461.5 609.5,-461.5 609.5,-461.5 603.5,-461.5 597.5,-455.5 597.5,-449.5 597.5,-449.5 597.5,-427.5 597.5,-427.5 597.5,-421.5 603.5,-415.5 609.5,-415.5"/>
<text text-anchor="middle" x="639" y="-446.3" font-family="Times,serif" font-size="14.00">Identifier</text>
<polyline fill="none" stroke="#ffe9c7" points="597.5,-438.5 680.5,-438.5 "/>
<text text-anchor="middle" x="639" y="-423.3" font-family="Times,serif" font-size="14.00">3</text>
</g>
<!-- node_0x504000000e10&#45;&gt;node_0x504000000e50 -->
<g id="edge33" class="edge">
<title>node_0x504000000e10&#45;&gt;node_0x504000000e50</title>
<path fill="none" stroke="#ff2b00" d="M637.55,-498.37C637.75,-490.15 637.98,-480.66 638.2,-471.73"/>
<polygon fill="#ff2b00" stroke="#ff2b00" points="641.71,-471.69 638.45,-461.61 634.71,-471.52 641.71,-471.69"/>
</g>
</g>
</svg>
