<?xml version="1.0" encoding="UTF-8" standalone="no"?>
<!DOCTYPE svg PUBLIC "-//W3C//DTD SVG 1.1//EN"
 "http://www.w3.org/Graphics/SVG/1.1/DTD/svg11.dtd">
<!-- Generated by graphviz version 2.43.0 (0)
 -->
<!-- Title: G Pages: 1 -->
<svg width="1174pt" height="760pt"
 viewBox="0.00 0.00 1173.50 760.00" xmlns="http://www.w3.org/2000/svg" xmlns:xlink="http://www.w3.org/1999/xlink">
<g id="graph0" class="graph" transform="scale(1 1) rotate(0) translate(4 756)">
<title>G</title>
<polygon fill="#ffd480" stroke="transparent" points="-4,4 -4,-756 1169.5,-756 1169.5,4 -4,4"/>
<text text-anchor="middle" x="582.75" y="-724" font-family="Verdana" font-size="30.00" fill="#ffffff">AST</text>
<!-- node_0x504000000a90 -->
<g id="node1" class="node">
<title>node_0x504000000a90</title>
<path fill="#9966ff" stroke="#ffe9c7" d="M425,-664.5C425,-664.5 481,-664.5 481,-664.5 487,-664.5 493,-670.5 493,-676.5 493,-676.5 493,-698.5 493,-698.5 493,-704.5 487,-710.5 481,-710.5 481,-710.5 425,-710.5 425,-710.5 419,-710.5 413,-704.5 413,-698.5 413,-698.5 413,-676.5 413,-676.5 413,-670.5 419,-664.5 425,-664.5"/>
<text text-anchor="middle" x="453" y="-695.3" font-family="Times,serif" font-size="14.00">KeyWord</text>
<polyline fill="none" stroke="#ffe9c7" points="413,-687.5 493,-687.5 "/>
<text text-anchor="middle" x="453" y="-672.3" font-family="Times,serif" font-size="14.00">;</text>
</g>
<!-- node_0x504000000650 -->
<g id="node2" class="node">
<title>node_0x504000000650</title>
<path fill="#fca103" stroke="#ffe9c7" d="M370.5,-581.5C370.5,-581.5 427.5,-581.5 427.5,-581.5 433.5,-581.5 439.5,-587.5 439.5,-593.5 439.5,-593.5 439.5,-615.5 439.5,-615.5 439.5,-621.5 433.5,-627.5 427.5,-627.5 427.5,-627.5 370.5,-627.5 370.5,-627.5 364.5,-627.5 358.5,-621.5 358.5,-615.5 358.5,-615.5 358.5,-593.5 358.5,-593.5 358.5,-587.5 364.5,-581.5 370.5,-581.5"/>
<text text-anchor="middle" x="399" y="-612.3" font-family="Times,serif" font-size="14.00">Func Def</text>
<polyline fill="none" stroke="#ffe9c7" points="358.5,-604.5 439.5,-604.5 "/>
<text text-anchor="middle" x="399" y="-589.3" font-family="Times,serif" font-size="14.00">0</text>
</g>
<!-- node_0x504000000a90&#45;&gt;node_0x504000000650 -->
<g id="edge1" class="edge">
<title>node_0x504000000a90&#45;&gt;node_0x504000000650</title>
<path fill="none" stroke="#9acd32" d="M438.24,-664.37C432.41,-655.62 425.61,-645.41 419.32,-635.99"/>
<polygon fill="#9acd32" stroke="#9acd32" points="422.2,-633.99 413.74,-627.61 416.37,-637.87 422.2,-633.99"/>
</g>
<!-- node_0x504000000b10 -->
<g id="node20" class="node">
<title>node_0x504000000b10</title>
<path fill="#fca103" stroke="#ffe9c7" d="M517.5,-581.5C517.5,-581.5 574.5,-581.5 574.5,-581.5 580.5,-581.5 586.5,-587.5 586.5,-593.5 586.5,-593.5 586.5,-615.5 586.5,-615.5 586.5,-621.5 580.5,-627.5 574.5,-627.5 574.5,-627.5 517.5,-627.5 517.5,-627.5 511.5,-627.5 505.5,-621.5 505.5,-615.5 505.5,-615.5 505.5,-593.5 505.5,-593.5 505.5,-587.5 511.5,-581.5 517.5,-581.5"/>
<text text-anchor="middle" x="546" y="-612.3" font-family="Times,serif" font-size="14.00">Func Def</text>
<polyline fill="none" stroke="#ffe9c7" points="505.5,-604.5 586.5,-604.5 "/>
<text text-anchor="middle" x="546" y="-589.3" font-family="Times,serif" font-size="14.00">2</text>
</g>
<!-- node_0x504000000a90&#45;&gt;node_0x504000000b10 -->
<g id="edge19" class="edge">
<title>node_0x504000000a90&#45;&gt;node_0x504000000b10</title>
<path fill="none" stroke="#ff2b00" d="M478.41,-664.37C489.07,-655.08 501.61,-644.16 512.98,-634.26"/>
<polygon fill="#ff2b00" stroke="#ff2b00" points="515.38,-636.81 520.62,-627.61 510.78,-631.54 515.38,-636.81"/>
</g>
<!-- node_0x504000000610 -->
<g id="node3" class="node">
<title>node_0x504000000610</title>
<path fill="#9966ff" stroke="#ffe9c7" d="M263,-498.5C263,-498.5 319,-498.5 319,-498.5 325,-498.5 331,-504.5 331,-510.5 331,-510.5 331,-532.5 331,-532.5 331,-538.5 325,-544.5 319,-544.5 319,-544.5 263,-544.5 263,-544.5 257,-544.5 251,-538.5 251,-532.5 251,-532.5 251,-510.5 251,-510.5 251,-504.5 257,-498.5 263,-498.5"/>
<text text-anchor="middle" x="291" y="-529.3" font-family="Times,serif" font-size="14.00">KeyWord</text>
<polyline fill="none" stroke="#ffe9c7" points="251,-521.5 331,-521.5 "/>
<text text-anchor="middle" x="291" y="-506.3" font-family="Times,serif" font-size="14.00">int</text>
</g>
<!-- node_0x504000000650&#45;&gt;node_0x504000000610 -->
<g id="edge2" class="edge">
<title>node_0x504000000650&#45;&gt;node_0x504000000610</title>
<path fill="none" stroke="#9acd32" d="M369.49,-581.37C356.87,-571.9 341.99,-560.74 328.59,-550.69"/>
<polygon fill="#9acd32" stroke="#9acd32" points="330.58,-547.81 320.48,-544.61 326.38,-553.41 330.58,-547.81"/>
</g>
<!-- node_0x504000000690 -->
<g id="node4" class="node">
<title>node_0x504000000690</title>
<path fill="#fc0303" stroke="#ffe9c7" d="M361.5,-498.5C361.5,-498.5 436.5,-498.5 436.5,-498.5 442.5,-498.5 448.5,-504.5 448.5,-510.5 448.5,-510.5 448.5,-532.5 448.5,-532.5 448.5,-538.5 442.5,-544.5 436.5,-544.5 436.5,-544.5 361.5,-544.5 361.5,-544.5 355.5,-544.5 349.5,-538.5 349.5,-532.5 349.5,-532.5 349.5,-510.5 349.5,-510.5 349.5,-504.5 355.5,-498.5 361.5,-498.5"/>
<text text-anchor="middle" x="399" y="-529.3" font-family="Times,serif" font-size="14.00">Parameters</text>
<polyline fill="none" stroke="#ffe9c7" points="349.5,-521.5 448.5,-521.5 "/>
<text text-anchor="middle" x="399" y="-506.3" font-family="Times,serif" font-size="14.00">∅</text>
</g>
<!-- node_0x504000000650&#45;&gt;node_0x504000000690 -->
<g id="edge3" class="edge">
<title>node_0x504000000650&#45;&gt;node_0x504000000690</title>
<path fill="none" stroke="#ff2b00" d="M399,-581.37C399,-573.15 399,-563.66 399,-554.73"/>
<polygon fill="#ff2b00" stroke="#ff2b00" points="402.5,-554.61 399,-544.61 395.5,-554.61 402.5,-554.61"/>
</g>
<!-- node_0x5040000006d0 -->
<g id="node5" class="node">
<title>node_0x5040000006d0</title>
<path fill="#9966ff" stroke="#ffe9c7" d="M361,-415.5C361,-415.5 417,-415.5 417,-415.5 423,-415.5 429,-421.5 429,-427.5 429,-427.5 429,-449.5 429,-449.5 429,-455.5 423,-461.5 417,-461.5 417,-461.5 361,-461.5 361,-461.5 355,-461.5 349,-455.5 349,-449.5 349,-449.5 349,-427.5 349,-427.5 349,-421.5 355,-415.5 361,-415.5"/>
<text text-anchor="middle" x="389" y="-446.3" font-family="Times,serif" font-size="14.00">KeyWord</text>
<polyline fill="none" stroke="#ffe9c7" points="349,-438.5 429,-438.5 "/>
<text text-anchor="middle" x="389" y="-423.3" font-family="Times,serif" font-size="14.00">;</text>
</g>
<!-- node_0x504000000690&#45;&gt;node_0x5040000006d0 -->
<g id="edge4" class="edge">
<title>node_0x504000000690&#45;&gt;node_0x5040000006d0</title>
<path fill="none" stroke="#ff2b00" d="M396.27,-498.37C395.25,-490.15 394.08,-480.66 392.98,-471.73"/>
<polygon fill="#ff2b00" stroke="#ff2b00" points="396.43,-471.1 391.73,-461.61 389.48,-471.96 396.43,-471.1"/>
</g>
<!-- node_0x504000000890 -->
<g id="node6" class="node">
<title>node_0x504000000890</title>
<path fill="#9966ff" stroke="#ffe9c7" d="M213,-332.5C213,-332.5 269,-332.5 269,-332.5 275,-332.5 281,-338.5 281,-344.5 281,-344.5 281,-366.5 281,-366.5 281,-372.5 275,-378.5 269,-378.5 269,-378.5 213,-378.5 213,-378.5 207,-378.5 201,-372.5 201,-366.5 201,-366.5 201,-344.5 201,-344.5 201,-338.5 207,-332.5 213,-332.5"/>
<text text-anchor="middle" x="241" y="-363.3" font-family="Times,serif" font-size="14.00">KeyWord</text>
<polyline fill="none" stroke="#ffe9c7" points="201,-355.5 281,-355.5 "/>
<text text-anchor="middle" x="241" y="-340.3" font-family="Times,serif" font-size="14.00">;</text>
</g>
<!-- node_0x5040000006d0&#45;&gt;node_0x504000000890 -->
<g id="edge5" class="edge">
<title>node_0x5040000006d0&#45;&gt;node_0x504000000890</title>
<path fill="none" stroke="#9acd32" d="M348.95,-415.58C330.77,-405.63 309.1,-393.77 289.96,-383.3"/>
<polygon fill="#9acd32" stroke="#9acd32" points="291.54,-380.17 281.08,-378.44 288.17,-386.31 291.54,-380.17"/>
</g>
<!-- node_0x504000000a10 -->
<g id="node18" class="node">
<title>node_0x504000000a10</title>
<path fill="#9966ff" stroke="#ffe9c7" d="M361,-332.5C361,-332.5 417,-332.5 417,-332.5 423,-332.5 429,-338.5 429,-344.5 429,-344.5 429,-366.5 429,-366.5 429,-372.5 423,-378.5 417,-378.5 417,-378.5 361,-378.5 361,-378.5 355,-378.5 349,-372.5 349,-366.5 349,-366.5 349,-344.5 349,-344.5 349,-338.5 355,-332.5 361,-332.5"/>
<text text-anchor="middle" x="389" y="-363.3" font-family="Times,serif" font-size="14.00">KeyWord</text>
<polyline fill="none" stroke="#ffe9c7" points="349,-355.5 429,-355.5 "/>
<text text-anchor="middle" x="389" y="-340.3" font-family="Times,serif" font-size="14.00">return</text>
</g>
<!-- node_0x5040000006d0&#45;&gt;node_0x504000000a10 -->
<g id="edge17" class="edge">
<title>node_0x5040000006d0&#45;&gt;node_0x504000000a10</title>
<path fill="none" stroke="#ff2b00" d="M389,-415.37C389,-407.15 389,-397.66 389,-388.73"/>
<polygon fill="#ff2b00" stroke="#ff2b00" points="392.5,-388.61 389,-378.61 385.5,-388.61 392.5,-388.61"/>
</g>
<!-- node_0x504000000790 -->
<g id="node7" class="node">
<title>node_0x504000000790</title>
<path fill="#08c41e" stroke="#ffe9c7" d="M111.5,-249.5C111.5,-249.5 164.5,-249.5 164.5,-249.5 170.5,-249.5 176.5,-255.5 176.5,-261.5 176.5,-261.5 176.5,-283.5 176.5,-283.5 176.5,-289.5 170.5,-295.5 164.5,-295.5 164.5,-295.5 111.5,-295.5 111.5,-295.5 105.5,-295.5 99.5,-289.5 99.5,-283.5 99.5,-283.5 99.5,-261.5 99.5,-261.5 99.5,-255.5 105.5,-249.5 111.5,-249.5"/>
<text text-anchor="middle" x="138" y="-280.3" font-family="Times,serif" font-size="14.00">Var Decl</text>
<polyline fill="none" stroke="#ffe9c7" points="99.5,-272.5 176.5,-272.5 "/>
<text text-anchor="middle" x="138" y="-257.3" font-family="Times,serif" font-size="14.00">1</text>
</g>
<!-- node_0x504000000890&#45;&gt;node_0x504000000790 -->
<g id="edge6" class="edge">
<title>node_0x504000000890&#45;&gt;node_0x504000000790</title>
<path fill="none" stroke="#9acd32" d="M212.85,-332.37C200.93,-322.99 186.89,-311.95 174.21,-301.98"/>
<polygon fill="#9acd32" stroke="#9acd32" points="176.14,-299.04 166.11,-295.61 171.81,-304.54 176.14,-299.04"/>
</g>
<!-- node_0x504000000950 -->
<g id="node13" class="node">
<title>node_0x504000000950</title>
<path fill="#08c41e" stroke="#ffe9c7" d="M214.5,-249.5C214.5,-249.5 267.5,-249.5 267.5,-249.5 273.5,-249.5 279.5,-255.5 279.5,-261.5 279.5,-261.5 279.5,-283.5 279.5,-283.5 279.5,-289.5 273.5,-295.5 267.5,-295.5 267.5,-295.5 214.5,-295.5 214.5,-295.5 208.5,-295.5 202.5,-289.5 202.5,-283.5 202.5,-283.5 202.5,-261.5 202.5,-261.5 202.5,-255.5 208.5,-249.5 214.5,-249.5"/>
<text text-anchor="middle" x="241" y="-280.3" font-family="Times,serif" font-size="14.00">Var Decl</text>
<polyline fill="none" stroke="#ffe9c7" points="202.5,-272.5 279.5,-272.5 "/>
<text text-anchor="middle" x="241" y="-257.3" font-family="Times,serif" font-size="14.00">3</text>
</g>
<!-- node_0x504000000890&#45;&gt;node_0x504000000950 -->
<g id="edge12" class="edge">
<title>node_0x504000000890&#45;&gt;node_0x504000000950</title>
<path fill="none" stroke="#ff2b00" d="M241,-332.37C241,-324.15 241,-314.66 241,-305.73"/>
<polygon fill="#ff2b00" stroke="#ff2b00" points="244.5,-305.61 241,-295.61 237.5,-305.61 244.5,-305.61"/>
</g>
<!-- node_0x504000000710 -->
<g id="node8" class="node">
<title>node_0x504000000710</title>
<path fill="#9966ff" stroke="#ffe9c7" d="M12,-166.5C12,-166.5 68,-166.5 68,-166.5 74,-166.5 80,-172.5 80,-178.5 80,-178.5 80,-200.5 80,-200.5 80,-206.5 74,-212.5 68,-212.5 68,-212.5 12,-212.5 12,-212.5 6,-212.5 0,-206.5 0,-200.5 0,-200.5 0,-178.5 0,-178.5 0,-172.5 6,-166.5 12,-166.5"/>
<text text-anchor="middle" x="40" y="-197.3" font-family="Times,serif" font-size="14.00">KeyWord</text>
<polyline fill="none" stroke="#ffe9c7" points="0,-189.5 80,-189.5 "/>
<text text-anchor="middle" x="40" y="-174.3" font-family="Times,serif" font-size="14.00">int</text>
</g>
<!-- node_0x504000000790&#45;&gt;node_0x504000000710 -->
<g id="edge7" class="edge">
<title>node_0x504000000790&#45;&gt;node_0x504000000710</title>
<path fill="none" stroke="#9acd32" d="M111.22,-249.37C99.99,-240.08 86.77,-229.16 74.8,-219.26"/>
<polygon fill="#9acd32" stroke="#9acd32" points="76.68,-216.28 66.75,-212.61 72.22,-221.68 76.68,-216.28"/>
</g>
<!-- node_0x5040000007d0 -->
<g id="node9" class="node">
<title>node_0x5040000007d0</title>
<path fill="#9966ff" stroke="#ffe9c7" d="M110,-166.5C110,-166.5 166,-166.5 166,-166.5 172,-166.5 178,-172.5 178,-178.5 178,-178.5 178,-200.5 178,-200.5 178,-206.5 172,-212.5 166,-212.5 166,-212.5 110,-212.5 110,-212.5 104,-212.5 98,-206.5 98,-200.5 98,-200.5 98,-178.5 98,-178.5 98,-172.5 104,-166.5 110,-166.5"/>
<text text-anchor="middle" x="138" y="-197.3" font-family="Times,serif" font-size="14.00">KeyWord</text>
<polyline fill="none" stroke="#ffe9c7" points="98,-189.5 178,-189.5 "/>
<text text-anchor="middle" x="138" y="-174.3" font-family="Times,serif" font-size="14.00">=</text>
</g>
<!-- node_0x504000000790&#45;&gt;node_0x5040000007d0 -->
<g id="edge8" class="edge">
<title>node_0x504000000790&#45;&gt;node_0x5040000007d0</title>
<path fill="none" stroke="#ff2b00" d="M138,-249.37C138,-241.15 138,-231.66 138,-222.73"/>
<polygon fill="#ff2b00" stroke="#ff2b00" points="141.5,-222.61 138,-212.61 134.5,-222.61 141.5,-222.61"/>
</g>
<!-- node_0x504000000750 -->
<g id="node10" class="node">
<title>node_0x504000000750</title>
<path fill="#ff6699" stroke="#ffe9c7" d="M25.5,-83.5C25.5,-83.5 84.5,-83.5 84.5,-83.5 90.5,-83.5 96.5,-89.5 96.5,-95.5 96.5,-95.5 96.5,-117.5 96.5,-117.5 96.5,-123.5 90.5,-129.5 84.5,-129.5 84.5,-129.5 25.5,-129.5 25.5,-129.5 19.5,-129.5 13.5,-123.5 13.5,-117.5 13.5,-117.5 13.5,-95.5 13.5,-95.5 13.5,-89.5 19.5,-83.5 25.5,-83.5"/>
<text text-anchor="middle" x="55" y="-114.3" font-family="Times,serif" font-size="14.00">Identifier</text>
<polyline fill="none" stroke="#ffe9c7" points="13.5,-106.5 96.5,-106.5 "/>
<text text-anchor="middle" x="55" y="-91.3" font-family="Times,serif" font-size="14.00">1</text>
</g>
<!-- node_0x5040000007d0&#45;&gt;node_0x504000000750 -->
<g id="edge9" class="edge">
<title>node_0x5040000007d0&#45;&gt;node_0x504000000750</title>
<path fill="none" stroke="#9acd32" d="M115.32,-166.37C105.99,-157.26 95.04,-146.58 85.06,-136.83"/>
<polygon fill="#9acd32" stroke="#9acd32" points="87.25,-134.09 77.65,-129.61 82.36,-139.1 87.25,-134.09"/>
</g>
<!-- node_0x504000000850 -->
<g id="node11" class="node">
<title>node_0x504000000850</title>
<path fill="#916306" stroke="#ffe9c7" d="M127,-83.5C127,-83.5 157,-83.5 157,-83.5 163,-83.5 169,-89.5 169,-95.5 169,-95.5 169,-117.5 169,-117.5 169,-123.5 163,-129.5 157,-129.5 157,-129.5 127,-129.5 127,-129.5 121,-129.5 115,-123.5 115,-117.5 115,-117.5 115,-95.5 115,-95.5 115,-89.5 121,-83.5 127,-83.5"/>
<text text-anchor="middle" x="142" y="-114.3" font-family="Times,serif" font-size="14.00">Call</text>
<polyline fill="none" stroke="#ffe9c7" points="115,-106.5 169,-106.5 "/>
<text text-anchor="middle" x="142" y="-91.3" font-family="Times,serif" font-size="14.00">∅</text>
</g>
<!-- node_0x5040000007d0&#45;&gt;node_0x504000000850 -->
<g id="edge10" class="edge">
<title>node_0x5040000007d0&#45;&gt;node_0x504000000850</title>
<path fill="none" stroke="#ff2b00" d="M139.09,-166.37C139.5,-158.15 139.97,-148.66 140.41,-139.73"/>
<polygon fill="#ff2b00" stroke="#ff2b00" points="143.91,-139.77 140.91,-129.61 136.92,-139.42 143.91,-139.77"/>
</g>
<!-- node_0x504000000810 -->
<g id="node12" class="node">
<title>node_0x504000000810</title>
<path fill="#ff6699" stroke="#ffe9c7" d="M112.5,-0.5C112.5,-0.5 171.5,-0.5 171.5,-0.5 177.5,-0.5 183.5,-6.5 183.5,-12.5 183.5,-12.5 183.5,-34.5 183.5,-34.5 183.5,-40.5 177.5,-46.5 171.5,-46.5 171.5,-46.5 112.5,-46.5 112.5,-46.5 106.5,-46.5 100.5,-40.5 100.5,-34.5 100.5,-34.5 100.5,-12.5 100.5,-12.5 100.5,-6.5 106.5,-0.5 112.5,-0.5"/>
<text text-anchor="middle" x="142" y="-31.3" font-family="Times,serif" font-size="14.00">Identifier</text>
<polyline fill="none" stroke="#ffe9c7" points="100.5,-23.5 183.5,-23.5 "/>
<text text-anchor="middle" x="142" y="-8.3" font-family="Times,serif" font-size="14.00">2</text>
</g>
<!-- node_0x504000000850&#45;&gt;node_0x504000000810 -->
<g id="edge11" class="edge">
<title>node_0x504000000850&#45;&gt;node_0x504000000810</title>
<path fill="none" stroke="#ff2b00" d="M142,-83.37C142,-75.15 142,-65.66 142,-56.73"/>
<polygon fill="#ff2b00" stroke="#ff2b00" points="145.5,-56.61 142,-46.61 138.5,-56.61 145.5,-56.61"/>
</g>
<!-- node_0x5040000008d0 -->
<g id="node14" class="node">
<title>node_0x5040000008d0</title>
<path fill="#9966ff" stroke="#ffe9c7" d="M208,-166.5C208,-166.5 264,-166.5 264,-166.5 270,-166.5 276,-172.5 276,-178.5 276,-178.5 276,-200.5 276,-200.5 276,-206.5 270,-212.5 264,-212.5 264,-212.5 208,-212.5 208,-212.5 202,-212.5 196,-206.5 196,-200.5 196,-200.5 196,-178.5 196,-178.5 196,-172.5 202,-166.5 208,-166.5"/>
<text text-anchor="middle" x="236" y="-197.3" font-family="Times,serif" font-size="14.00">KeyWord</text>
<polyline fill="none" stroke="#ffe9c7" points="196,-189.5 276,-189.5 "/>
<text text-anchor="middle" x="236" y="-174.3" font-family="Times,serif" font-size="14.00">int</text>
</g>
<!-- node_0x504000000950&#45;&gt;node_0x5040000008d0 -->
<g id="edge13" class="edge">
<title>node_0x504000000950&#45;&gt;node_0x5040000008d0</title>
<path fill="none" stroke="#9acd32" d="M239.63,-249.37C239.13,-241.15 238.54,-231.66 237.99,-222.73"/>
<polygon fill="#9acd32" stroke="#9acd32" points="241.47,-222.37 237.36,-212.61 234.49,-222.8 241.47,-222.37"/>
</g>
<!-- node_0x504000000990 -->
<g id="node15" class="node">
<title>node_0x504000000990</title>
<path fill="#9966ff" stroke="#ffe9c7" d="M306,-166.5C306,-166.5 362,-166.5 362,-166.5 368,-166.5 374,-172.5 374,-178.5 374,-178.5 374,-200.5 374,-200.5 374,-206.5 368,-212.5 362,-212.5 362,-212.5 306,-212.5 306,-212.5 300,-212.5 294,-206.5 294,-200.5 294,-200.5 294,-178.5 294,-178.5 294,-172.5 300,-166.5 306,-166.5"/>
<text text-anchor="middle" x="334" y="-197.3" font-family="Times,serif" font-size="14.00">KeyWord</text>
<polyline fill="none" stroke="#ffe9c7" points="294,-189.5 374,-189.5 "/>
<text text-anchor="middle" x="334" y="-174.3" font-family="Times,serif" font-size="14.00">=</text>
</g>
<!-- node_0x504000000950&#45;&gt;node_0x504000000990 -->
<g id="edge14" class="edge">
<title>node_0x504000000950&#45;&gt;node_0x504000000990</title>
<path fill="none" stroke="#ff2b00" d="M266.41,-249.37C277.07,-240.08 289.61,-229.16 300.98,-219.26"/>
<polygon fill="#ff2b00" stroke="#ff2b00" points="303.38,-221.81 308.62,-212.61 298.78,-216.54 303.38,-221.81"/>
</g>
<!-- node_0x504000000910 -->
<g id="node16" class="node">
<title>node_0x504000000910</title>
<path fill="#ff6699" stroke="#ffe9c7" d="M254.5,-83.5C254.5,-83.5 313.5,-83.5 313.5,-83.5 319.5,-83.5 325.5,-89.5 325.5,-95.5 325.5,-95.5 325.5,-117.5 325.5,-117.5 325.5,-123.5 319.5,-129.5 313.5,-129.5 313.5,-129.5 254.5,-129.5 254.5,-129.5 248.5,-129.5 242.5,-123.5 242.5,-117.5 242.5,-117.5 242.5,-95.5 242.5,-95.5 242.5,-89.5 248.5,-83.5 254.5,-83.5"/>
<text text-anchor="middle" x="284" y="-114.3" font-family="Times,serif" font-size="14.00">Identifier</text>
<polyline fill="none" stroke="#ffe9c7" points="242.5,-106.5 325.5,-106.5 "/>
<text text-anchor="middle" x="284" y="-91.3" font-family="Times,serif" font-size="14.00">3</text>
</g>
<!-- node_0x504000000990&#45;&gt;node_0x504000000910 -->
<g id="edge15" class="edge">
<title>node_0x504000000990&#45;&gt;node_0x504000000910</title>
<path fill="none" stroke="#9acd32" d="M320.34,-166.37C314.99,-157.71 308.77,-147.62 303,-138.27"/>
<polygon fill="#9acd32" stroke="#9acd32" points="305.88,-136.28 297.65,-129.61 299.92,-139.95 305.88,-136.28"/>
</g>
<!-- node_0x5040000009d0 -->
<g id="node17" class="node">
<title>node_0x5040000009d0</title>
<path fill="#03cffc" stroke="#ffe9c7" d="M355.5,-83.5C355.5,-83.5 412.5,-83.5 412.5,-83.5 418.5,-83.5 424.5,-89.5 424.5,-95.5 424.5,-95.5 424.5,-117.5 424.5,-117.5 424.5,-123.5 418.5,-129.5 412.5,-129.5 412.5,-129.5 355.5,-129.5 355.5,-129.5 349.5,-129.5 343.5,-123.5 343.5,-117.5 343.5,-117.5 343.5,-95.5 343.5,-95.5 343.5,-89.5 349.5,-83.5 355.5,-83.5"/>
<text text-anchor="middle" x="384" y="-114.3" font-family="Times,serif" font-size="14.00">Constant</text>
<polyline fill="none" stroke="#ffe9c7" points="343.5,-106.5 424.5,-106.5 "/>
<text text-anchor="middle" x="384" y="-91.3" font-family="Times,serif" font-size="14.00">15</text>
</g>
<!-- node_0x504000000990&#45;&gt;node_0x5040000009d0 -->
<g id="edge16" class="edge">
<title>node_0x504000000990&#45;&gt;node_0x5040000009d0</title>
<path fill="none" stroke="#ff2b00" d="M347.66,-166.37C353.01,-157.71 359.23,-147.62 365,-138.27"/>
<polygon fill="#ff2b00" stroke="#ff2b00" points="368.08,-139.95 370.35,-129.61 362.12,-136.28 368.08,-139.95"/>
</g>
<!-- node_0x504000000a50 -->
<g id="node19" class="node">
<title>node_0x504000000a50</title>
<path fill="#03cffc" stroke="#ffe9c7" d="M360.5,-249.5C360.5,-249.5 417.5,-249.5 417.5,-249.5 423.5,-249.5 429.5,-255.5 429.5,-261.5 429.5,-261.5 429.5,-283.5 429.5,-283.5 429.5,-289.5 423.5,-295.5 417.5,-295.5 417.5,-295.5 360.5,-295.5 360.5,-295.5 354.5,-295.5 348.5,-289.5 348.5,-283.5 348.5,-283.5 348.5,-261.5 348.5,-261.5 348.5,-255.5 354.5,-249.5 360.5,-249.5"/>
<text text-anchor="middle" x="389" y="-280.3" font-family="Times,serif" font-size="14.00">Constant</text>
<polyline fill="none" stroke="#ffe9c7" points="348.5,-272.5 429.5,-272.5 "/>
<text text-anchor="middle" x="389" y="-257.3" font-family="Times,serif" font-size="14.00">0</text>
</g>
<!-- node_0x504000000a10&#45;&gt;node_0x504000000a50 -->
<g id="edge18" class="edge">
<title>node_0x504000000a10&#45;&gt;node_0x504000000a50</title>
<path fill="none" stroke="#ff2b00" d="M389,-332.37C389,-324.15 389,-314.66 389,-305.73"/>
<polygon fill="#ff2b00" stroke="#ff2b00" points="392.5,-305.61 389,-295.61 385.5,-305.61 392.5,-305.61"/>
</g>
<!-- node_0x504000000ad0 -->
<g id="node21" class="node">
<title>node_0x504000000ad0</title>
<path fill="#9966ff" stroke="#ffe9c7" d="M518,-498.5C518,-498.5 574,-498.5 574,-498.5 580,-498.5 586,-504.5 586,-510.5 586,-510.5 586,-532.5 586,-532.5 586,-538.5 580,-544.5 574,-544.5 574,-544.5 518,-544.5 518,-544.5 512,-544.5 506,-538.5 506,-532.5 506,-532.5 506,-510.5 506,-510.5 506,-504.5 512,-498.5 518,-498.5"/>
<text text-anchor="middle" x="546" y="-529.3" font-family="Times,serif" font-size="14.00">KeyWord</text>
<polyline fill="none" stroke="#ffe9c7" points="506,-521.5 586,-521.5 "/>
<text text-anchor="middle" x="546" y="-506.3" font-family="Times,serif" font-size="14.00">int</text>
</g>
<!-- node_0x504000000b10&#45;&gt;node_0x504000000ad0 -->
<g id="edge20" class="edge">
<title>node_0x504000000b10&#45;&gt;node_0x504000000ad0</title>
<path fill="none" stroke="#9acd32" d="M546,-581.37C546,-573.15 546,-563.66 546,-554.73"/>
<polygon fill="#9acd32" stroke="#9acd32" points="549.5,-554.61 546,-544.61 542.5,-554.61 549.5,-554.61"/>
</g>
<!-- node_0x504000000b50 -->
<g id="node22" class="node">
<title>node_0x504000000b50</title>
<path fill="#fc0303" stroke="#ffe9c7" d="M636.5,-498.5C636.5,-498.5 711.5,-498.5 711.5,-498.5 717.5,-498.5 723.5,-504.5 723.5,-510.5 723.5,-510.5 723.5,-532.5 723.5,-532.5 723.5,-538.5 717.5,-544.5 711.5,-544.5 711.5,-544.5 636.5,-544.5 636.5,-544.5 630.5,-544.5 624.5,-538.5 624.5,-532.5 624.5,-532.5 624.5,-510.5 624.5,-510.5 624.5,-504.5 630.5,-498.5 636.5,-498.5"/>
<text text-anchor="middle" x="674" y="-529.3" font-family="Times,serif" font-size="14.00">Parameters</text>
<polyline fill="none" stroke="#ffe9c7" points="624.5,-521.5 723.5,-521.5 "/>
<text text-anchor="middle" x="674" y="-506.3" font-family="Times,serif" font-size="14.00">∅</text>
</g>
<!-- node_0x504000000b10&#45;&gt;node_0x504000000b50 -->
<g id="edge21" class="edge">
<title>node_0x504000000b10&#45;&gt;node_0x504000000b50</title>
<path fill="none" stroke="#ff2b00" d="M580.98,-581.37C596.22,-571.72 614.24,-560.32 630.35,-550.13"/>
<polygon fill="#ff2b00" stroke="#ff2b00" points="632.49,-552.91 639.07,-544.61 628.74,-547 632.49,-552.91"/>
</g>
<!-- node_0x504000000d50 -->
<g id="node23" class="node">
<title>node_0x504000000d50</title>
<path fill="#9966ff" stroke="#ffe9c7" d="M646,-415.5C646,-415.5 702,-415.5 702,-415.5 708,-415.5 714,-421.5 714,-427.5 714,-427.5 714,-449.5 714,-449.5 714,-455.5 708,-461.5 702,-461.5 702,-461.5 646,-461.5 646,-461.5 640,-461.5 634,-455.5 634,-449.5 634,-449.5 634,-427.5 634,-427.5 634,-421.5 640,-415.5 646,-415.5"/>
<text text-anchor="middle" x="674" y="-446.3" font-family="Times,serif" font-size="14.00">KeyWord</text>
<polyline fill="none" stroke="#ffe9c7" points="634,-438.5 714,-438.5 "/>
<text text-anchor="middle" x="674" y="-423.3" font-family="Times,serif" font-size="14.00">,</text>
</g>
<!-- node_0x504000000b50&#45;&gt;node_0x504000000d50 -->
<g id="edge22" class="edge">
<title>node_0x504000000b50&#45;&gt;node_0x504000000d50</title>
<path fill="none" stroke="#9acd32" d="M674,-498.37C674,-490.15 674,-480.66 674,-471.73"/>
<polygon fill="#9acd32" stroke="#9acd32" points="677.5,-471.61 674,-461.61 670.5,-471.61 677.5,-471.61"/>
</g>
<!-- node_0x504000000e50 -->
<g id="node34" class="node">
<title>node_0x504000000e50</title>
<path fill="#9966ff" stroke="#ffe9c7" d="M923,-415.5C923,-415.5 979,-415.5 979,-415.5 985,-415.5 991,-421.5 991,-427.5 991,-427.5 991,-449.5 991,-449.5 991,-455.5 985,-461.5 979,-461.5 979,-461.5 923,-461.5 923,-461.5 917,-461.5 911,-455.5 911,-449.5 911,-449.5 911,-427.5 911,-427.5 911,-421.5 917,-415.5 923,-415.5"/>
<text text-anchor="middle" x="951" y="-446.3" font-family="Times,serif" font-size="14.00">KeyWord</text>
<polyline fill="none" stroke="#ffe9c7" points="911,-438.5 991,-438.5 "/>
<text text-anchor="middle" x="951" y="-423.3" font-family="Times,serif" font-size="14.00">;</text>
</g>
<!-- node_0x504000000b50&#45;&gt;node_0x504000000e50 -->
<g id="edge33" class="edge">
<title>node_0x504000000b50&#45;&gt;node_0x504000000e50</title>
<path fill="none" stroke="#ff2b00" d="M723.52,-506.02C773.71,-491.34 850.92,-468.76 901.21,-454.06"/>
<polygon fill="#ff2b00" stroke="#ff2b00" points="902.27,-457.4 910.89,-451.23 900.31,-450.68 902.27,-457.4"/>
</g>
<!-- node_0x504000000c50 -->
<g id="node24" class="node">
<title>node_0x504000000c50</title>
<path fill="#9966ff" stroke="#ffe9c7" d="M601,-332.5C601,-332.5 657,-332.5 657,-332.5 663,-332.5 669,-338.5 669,-344.5 669,-344.5 669,-366.5 669,-366.5 669,-372.5 663,-378.5 657,-378.5 657,-378.5 601,-378.5 601,-378.5 595,-378.5 589,-372.5 589,-366.5 589,-366.5 589,-344.5 589,-344.5 589,-338.5 595,-332.5 601,-332.5"/>
<text text-anchor="middle" x="629" y="-363.3" font-family="Times,serif" font-size="14.00">KeyWord</text>
<polyline fill="none" stroke="#ffe9c7" points="589,-355.5 669,-355.5 "/>
<text text-anchor="middle" x="629" y="-340.3" font-family="Times,serif" font-size="14.00">,</text>
</g>
<!-- node_0x504000000d50&#45;&gt;node_0x504000000c50 -->
<g id="edge23" class="edge">
<title>node_0x504000000d50&#45;&gt;node_0x504000000c50</title>
<path fill="none" stroke="#9acd32" d="M661.7,-415.37C656.94,-406.79 651.41,-396.83 646.26,-387.56"/>
<polygon fill="#9acd32" stroke="#9acd32" points="649.2,-385.65 641.28,-378.61 643.08,-389.05 649.2,-385.65"/>
</g>
<!-- node_0x504000000e10 -->
<g id="node31" class="node">
<title>node_0x504000000e10</title>
<path fill="#08c41e" stroke="#ffe9c7" d="M699.5,-332.5C699.5,-332.5 752.5,-332.5 752.5,-332.5 758.5,-332.5 764.5,-338.5 764.5,-344.5 764.5,-344.5 764.5,-366.5 764.5,-366.5 764.5,-372.5 758.5,-378.5 752.5,-378.5 752.5,-378.5 699.5,-378.5 699.5,-378.5 693.5,-378.5 687.5,-372.5 687.5,-366.5 687.5,-366.5 687.5,-344.5 687.5,-344.5 687.5,-338.5 693.5,-332.5 699.5,-332.5"/>
<text text-anchor="middle" x="726" y="-363.3" font-family="Times,serif" font-size="14.00">Var Decl</text>
<polyline fill="none" stroke="#ffe9c7" points="687.5,-355.5 764.5,-355.5 "/>
<text text-anchor="middle" x="726" y="-340.3" font-family="Times,serif" font-size="14.00">6</text>
</g>
<!-- node_0x504000000d50&#45;&gt;node_0x504000000e10 -->
<g id="edge30" class="edge">
<title>node_0x504000000d50&#45;&gt;node_0x504000000e10</title>
<path fill="none" stroke="#ff2b00" d="M688.21,-415.37C693.77,-406.71 700.24,-396.62 706.24,-387.27"/>
<polygon fill="#ff2b00" stroke="#ff2b00" points="709.35,-388.91 711.81,-378.61 703.46,-385.13 709.35,-388.91"/>
</g>
<!-- node_0x504000000c10 -->
<g id="node25" class="node">
<title>node_0x504000000c10</title>
<path fill="#08c41e" stroke="#ffe9c7" d="M505.5,-249.5C505.5,-249.5 558.5,-249.5 558.5,-249.5 564.5,-249.5 570.5,-255.5 570.5,-261.5 570.5,-261.5 570.5,-283.5 570.5,-283.5 570.5,-289.5 564.5,-295.5 558.5,-295.5 558.5,-295.5 505.5,-295.5 505.5,-295.5 499.5,-295.5 493.5,-289.5 493.5,-283.5 493.5,-283.5 493.5,-261.5 493.5,-261.5 493.5,-255.5 499.5,-249.5 505.5,-249.5"/>
<text text-anchor="middle" x="532" y="-280.3" font-family="Times,serif" font-size="14.00">Var Decl</text>
<polyline fill="none" stroke="#ffe9c7" points="493.5,-272.5 570.5,-272.5 "/>
<text text-anchor="middle" x="532" y="-257.3" font-family="Times,serif" font-size="14.00">4</text>
</g>
<!-- node_0x504000000c50&#45;&gt;node_0x504000000c10 -->
<g id="edge24" class="edge">
<title>node_0x504000000c50&#45;&gt;node_0x504000000c10</title>
<path fill="none" stroke="#9acd32" d="M602.49,-332.37C591.37,-323.08 578.3,-312.16 566.44,-302.26"/>
<polygon fill="#9acd32" stroke="#9acd32" points="568.39,-299.33 558.47,-295.61 563.91,-304.7 568.39,-299.33"/>
</g>
<!-- node_0x504000000d10 -->
<g id="node28" class="node">
<title>node_0x504000000d10</title>
<path fill="#08c41e" stroke="#ffe9c7" d="M602.5,-249.5C602.5,-249.5 655.5,-249.5 655.5,-249.5 661.5,-249.5 667.5,-255.5 667.5,-261.5 667.5,-261.5 667.5,-283.5 667.5,-283.5 667.5,-289.5 661.5,-295.5 655.5,-295.5 655.5,-295.5 602.5,-295.5 602.5,-295.5 596.5,-295.5 590.5,-289.5 590.5,-283.5 590.5,-283.5 590.5,-261.5 590.5,-261.5 590.5,-255.5 596.5,-249.5 602.5,-249.5"/>
<text text-anchor="middle" x="629" y="-280.3" font-family="Times,serif" font-size="14.00">Var Decl</text>
<polyline fill="none" stroke="#ffe9c7" points="590.5,-272.5 667.5,-272.5 "/>
<text text-anchor="middle" x="629" y="-257.3" font-family="Times,serif" font-size="14.00">5</text>
</g>
<!-- node_0x504000000c50&#45;&gt;node_0x504000000d10 -->
<g id="edge27" class="edge">
<title>node_0x504000000c50&#45;&gt;node_0x504000000d10</title>
<path fill="none" stroke="#ff2b00" d="M629,-332.37C629,-324.15 629,-314.66 629,-305.73"/>
<polygon fill="#ff2b00" stroke="#ff2b00" points="632.5,-305.61 629,-295.61 625.5,-305.61 632.5,-305.61"/>
</g>
<!-- node_0x504000000b90 -->
<g id="node26" class="node">
<title>node_0x504000000b90</title>
<path fill="#9966ff" stroke="#ffe9c7" d="M404,-166.5C404,-166.5 460,-166.5 460,-166.5 466,-166.5 472,-172.5 472,-178.5 472,-178.5 472,-200.5 472,-200.5 472,-206.5 466,-212.5 460,-212.5 460,-212.5 404,-212.5 404,-212.5 398,-212.5 392,-206.5 392,-200.5 392,-200.5 392,-178.5 392,-178.5 392,-172.5 398,-166.5 404,-166.5"/>
<text text-anchor="middle" x="432" y="-197.3" font-family="Times,serif" font-size="14.00">KeyWord</text>
<polyline fill="none" stroke="#ffe9c7" points="392,-189.5 472,-189.5 "/>
<text text-anchor="middle" x="432" y="-174.3" font-family="Times,serif" font-size="14.00">int</text>
</g>
<!-- node_0x504000000c10&#45;&gt;node_0x504000000b90 -->
<g id="edge25" class="edge">
<title>node_0x504000000c10&#45;&gt;node_0x504000000b90</title>
<path fill="none" stroke="#9acd32" d="M504.67,-249.37C493.1,-239.99 479.47,-228.95 467.16,-218.98"/>
<polygon fill="#9acd32" stroke="#9acd32" points="469.27,-216.18 459.29,-212.61 464.86,-221.62 469.27,-216.18"/>
</g>
<!-- node_0x504000000bd0 -->
<g id="node27" class="node">
<title>node_0x504000000bd0</title>
<path fill="#ff6699" stroke="#ffe9c7" d="M502.5,-166.5C502.5,-166.5 561.5,-166.5 561.5,-166.5 567.5,-166.5 573.5,-172.5 573.5,-178.5 573.5,-178.5 573.5,-200.5 573.5,-200.5 573.5,-206.5 567.5,-212.5 561.5,-212.5 561.5,-212.5 502.5,-212.5 502.5,-212.5 496.5,-212.5 490.5,-206.5 490.5,-200.5 490.5,-200.5 490.5,-178.5 490.5,-178.5 490.5,-172.5 496.5,-166.5 502.5,-166.5"/>
<text text-anchor="middle" x="532" y="-197.3" font-family="Times,serif" font-size="14.00">Identifier</text>
<polyline fill="none" stroke="#ffe9c7" points="490.5,-189.5 573.5,-189.5 "/>
<text text-anchor="middle" x="532" y="-174.3" font-family="Times,serif" font-size="14.00">4</text>
</g>
<!-- node_0x504000000c10&#45;&gt;node_0x504000000bd0 -->
<g id="edge26" class="edge">
<title>node_0x504000000c10&#45;&gt;node_0x504000000bd0</title>
<path fill="none" stroke="#ff2b00" d="M532,-249.37C532,-241.15 532,-231.66 532,-222.73"/>
<polygon fill="#ff2b00" stroke="#ff2b00" points="535.5,-222.61 532,-212.61 528.5,-222.61 535.5,-222.61"/>
</g>
<!-- node_0x504000000c90 -->
<g id="node29" class="node">
<title>node_0x504000000c90</title>
<path fill="#9966ff" stroke="#ffe9c7" d="M604,-166.5C604,-166.5 660,-166.5 660,-166.5 666,-166.5 672,-172.5 672,-178.5 672,-178.5 672,-200.5 672,-200.5 672,-206.5 666,-212.5 660,-212.5 660,-212.5 604,-212.5 604,-212.5 598,-212.5 592,-206.5 592,-200.5 592,-200.5 592,-178.5 592,-178.5 592,-172.5 598,-166.5 604,-166.5"/>
<text text-anchor="middle" x="632" y="-197.3" font-family="Times,serif" font-size="14.00">KeyWord</text>
<polyline fill="none" stroke="#ffe9c7" points="592,-189.5 672,-189.5 "/>
<text text-anchor="middle" x="632" y="-174.3" font-family="Times,serif" font-size="14.00">int</text>
</g>
<!-- node_0x504000000d10&#45;&gt;node_0x504000000c90 -->
<g id="edge28" class="edge">
<title>node_0x504000000d10&#45;&gt;node_0x504000000c90</title>
<path fill="none" stroke="#9acd32" d="M629.82,-249.37C630.12,-241.15 630.48,-231.66 630.81,-222.73"/>
<polygon fill="#9acd32" stroke="#9acd32" points="634.31,-222.73 631.18,-212.61 627.31,-222.47 634.31,-222.73"/>
</g>
<!-- node_0x504000000cd0 -->
<g id="node30" class="node">
<title>node_0x504000000cd0</title>
<path fill="#ff6699" stroke="#ffe9c7" d="M702.5,-166.5C702.5,-166.5 761.5,-166.5 761.5,-166.5 767.5,-166.5 773.5,-172.5 773.5,-178.5 773.5,-178.5 773.5,-200.5 773.5,-200.5 773.5,-206.5 767.5,-212.5 761.5,-212.5 761.5,-212.5 702.5,-212.5 702.5,-212.5 696.5,-212.5 690.5,-206.5 690.5,-200.5 690.5,-200.5 690.5,-178.5 690.5,-178.5 690.5,-172.5 696.5,-166.5 702.5,-166.5"/>
<text text-anchor="middle" x="732" y="-197.3" font-family="Times,serif" font-size="14.00">Identifier</text>
<polyline fill="none" stroke="#ffe9c7" points="690.5,-189.5 773.5,-189.5 "/>
<text text-anchor="middle" x="732" y="-174.3" font-family="Times,serif" font-size="14.00">5</text>
</g>
<!-- node_0x504000000d10&#45;&gt;node_0x504000000cd0 -->
<g id="edge29" class="edge">
<title>node_0x504000000d10&#45;&gt;node_0x504000000cd0</title>
<path fill="none" stroke="#ff2b00" d="M657.15,-249.37C669.07,-239.99 683.11,-228.95 695.79,-218.98"/>
<polygon fill="#ff2b00" stroke="#ff2b00" points="698.19,-221.54 703.89,-212.61 693.86,-216.04 698.19,-221.54"/>
</g>
<!-- node_0x504000000d90 -->
<g id="node32" class="node">
<title>node_0x504000000d90</title>
<path fill="#9966ff" stroke="#ffe9c7" d="M698,-249.5C698,-249.5 754,-249.5 754,-249.5 760,-249.5 766,-255.5 766,-261.5 766,-261.5 766,-283.5 766,-283.5 766,-289.5 760,-295.5 754,-295.5 754,-295.5 698,-295.5 698,-295.5 692,-295.5 686,-289.5 686,-283.5 686,-283.5 686,-261.5 686,-261.5 686,-255.5 692,-249.5 698,-249.5"/>
<text text-anchor="middle" x="726" y="-280.3" font-family="Times,serif" font-size="14.00">KeyWord</text>
<polyline fill="none" stroke="#ffe9c7" points="686,-272.5 766,-272.5 "/>
<text text-anchor="middle" x="726" y="-257.3" font-family="Times,serif" font-size="14.00">int</text>
</g>
<!-- node_0x504000000e10&#45;&gt;node_0x504000000d90 -->
<g id="edge31" class="edge">
<title>node_0x504000000e10&#45;&gt;node_0x504000000d90</title>
<path fill="none" stroke="#9acd32" d="M726,-332.37C726,-324.15 726,-314.66 726,-305.73"/>
<polygon fill="#9acd32" stroke="#9acd32" points="729.5,-305.61 726,-295.61 722.5,-305.61 729.5,-305.61"/>
</g>
<!-- node_0x504000000dd0 -->
<g id="node33" class="node">
<title>node_0x504000000dd0</title>
<path fill="#ff6699" stroke="#ffe9c7" d="M796.5,-249.5C796.5,-249.5 855.5,-249.5 855.5,-249.5 861.5,-249.5 867.5,-255.5 867.5,-261.5 867.5,-261.5 867.5,-283.5 867.5,-283.5 867.5,-289.5 861.5,-295.5 855.5,-295.5 855.5,-295.5 796.5,-295.5 796.5,-295.5 790.5,-295.5 784.5,-289.5 784.5,-283.5 784.5,-283.5 784.5,-261.5 784.5,-261.5 784.5,-255.5 790.5,-249.5 796.5,-249.5"/>
<text text-anchor="middle" x="826" y="-280.3" font-family="Times,serif" font-size="14.00">Identifier</text>
<polyline fill="none" stroke="#ffe9c7" points="784.5,-272.5 867.5,-272.5 "/>
<text text-anchor="middle" x="826" y="-257.3" font-family="Times,serif" font-size="14.00">6</text>
</g>
<!-- node_0x504000000e10&#45;&gt;node_0x504000000dd0 -->
<g id="edge32" class="edge">
<title>node_0x504000000e10&#45;&gt;node_0x504000000dd0</title>
<path fill="none" stroke="#ff2b00" d="M753.33,-332.37C764.9,-322.99 778.53,-311.95 790.84,-301.98"/>
<polygon fill="#ff2b00" stroke="#ff2b00" points="793.14,-304.62 798.71,-295.61 788.73,-299.18 793.14,-304.62"/>
</g>
<!-- node_0x504000000f10 -->
<g id="node35" class="node">
<title>node_0x504000000f10</title>
<path fill="#08c41e" stroke="#ffe9c7" d="M924.5,-332.5C924.5,-332.5 977.5,-332.5 977.5,-332.5 983.5,-332.5 989.5,-338.5 989.5,-344.5 989.5,-344.5 989.5,-366.5 989.5,-366.5 989.5,-372.5 983.5,-378.5 977.5,-378.5 977.5,-378.5 924.5,-378.5 924.5,-378.5 918.5,-378.5 912.5,-372.5 912.5,-366.5 912.5,-366.5 912.5,-344.5 912.5,-344.5 912.5,-338.5 918.5,-332.5 924.5,-332.5"/>
<text text-anchor="middle" x="951" y="-363.3" font-family="Times,serif" font-size="14.00">Var Decl</text>
<polyline fill="none" stroke="#ffe9c7" points="912.5,-355.5 989.5,-355.5 "/>
<text text-anchor="middle" x="951" y="-340.3" font-family="Times,serif" font-size="14.00">7</text>
</g>
<!-- node_0x504000000e50&#45;&gt;node_0x504000000f10 -->
<g id="edge34" class="edge">
<title>node_0x504000000e50&#45;&gt;node_0x504000000f10</title>
<path fill="none" stroke="#9acd32" d="M951,-415.37C951,-407.15 951,-397.66 951,-388.73"/>
<polygon fill="#9acd32" stroke="#9acd32" points="954.5,-388.61 951,-378.61 947.5,-388.61 954.5,-388.61"/>
</g>
<!-- node_0x504000000fd0 -->
<g id="node40" class="node">
<title>node_0x504000000fd0</title>
<path fill="#9966ff" stroke="#ffe9c7" d="M1070,-332.5C1070,-332.5 1126,-332.5 1126,-332.5 1132,-332.5 1138,-338.5 1138,-344.5 1138,-344.5 1138,-366.5 1138,-366.5 1138,-372.5 1132,-378.5 1126,-378.5 1126,-378.5 1070,-378.5 1070,-378.5 1064,-378.5 1058,-372.5 1058,-366.5 1058,-366.5 1058,-344.5 1058,-344.5 1058,-338.5 1064,-332.5 1070,-332.5"/>
<text text-anchor="middle" x="1098" y="-363.3" font-family="Times,serif" font-size="14.00">KeyWord</text>
<polyline fill="none" stroke="#ffe9c7" points="1058,-355.5 1138,-355.5 "/>
<text text-anchor="middle" x="1098" y="-340.3" font-family="Times,serif" font-size="14.00">return</text>
</g>
<!-- node_0x504000000e50&#45;&gt;node_0x504000000fd0 -->
<g id="edge39" class="edge">
<title>node_0x504000000e50&#45;&gt;node_0x504000000fd0</title>
<path fill="none" stroke="#ff2b00" d="M991.17,-415.37C1008.99,-405.54 1030.14,-393.89 1048.89,-383.56"/>
<polygon fill="#ff2b00" stroke="#ff2b00" points="1050.81,-386.5 1057.88,-378.61 1047.43,-380.37 1050.81,-386.5"/>
</g>
<!-- node_0x504000000e90 -->
<g id="node36" class="node">
<title>node_0x504000000e90</title>
<path fill="#9966ff" stroke="#ffe9c7" d="M898,-249.5C898,-249.5 954,-249.5 954,-249.5 960,-249.5 966,-255.5 966,-261.5 966,-261.5 966,-283.5 966,-283.5 966,-289.5 960,-295.5 954,-295.5 954,-295.5 898,-295.5 898,-295.5 892,-295.5 886,-289.5 886,-283.5 886,-283.5 886,-261.5 886,-261.5 886,-255.5 892,-249.5 898,-249.5"/>
<text text-anchor="middle" x="926" y="-280.3" font-family="Times,serif" font-size="14.00">KeyWord</text>
<polyline fill="none" stroke="#ffe9c7" points="886,-272.5 966,-272.5 "/>
<text text-anchor="middle" x="926" y="-257.3" font-family="Times,serif" font-size="14.00">int</text>
</g>
<!-- node_0x504000000f10&#45;&gt;node_0x504000000e90 -->
<g id="edge35" class="edge">
<title>node_0x504000000f10&#45;&gt;node_0x504000000e90</title>
<path fill="none" stroke="#9acd32" d="M944.17,-332.37C941.61,-324.06 938.64,-314.45 935.86,-305.43"/>
<polygon fill="#9acd32" stroke="#9acd32" points="939.12,-304.13 932.82,-295.61 932.43,-306.19 939.12,-304.13"/>
</g>
<!-- node_0x504000000f50 -->
<g id="node37" class="node">
<title>node_0x504000000f50</title>
<path fill="#9966ff" stroke="#ffe9c7" d="M996,-249.5C996,-249.5 1052,-249.5 1052,-249.5 1058,-249.5 1064,-255.5 1064,-261.5 1064,-261.5 1064,-283.5 1064,-283.5 1064,-289.5 1058,-295.5 1052,-295.5 1052,-295.5 996,-295.5 996,-295.5 990,-295.5 984,-289.5 984,-283.5 984,-283.5 984,-261.5 984,-261.5 984,-255.5 990,-249.5 996,-249.5"/>
<text text-anchor="middle" x="1024" y="-280.3" font-family="Times,serif" font-size="14.00">KeyWord</text>
<polyline fill="none" stroke="#ffe9c7" points="984,-272.5 1064,-272.5 "/>
<text text-anchor="middle" x="1024" y="-257.3" font-family="Times,serif" font-size="14.00">=</text>
</g>
<!-- node_0x504000000f10&#45;&gt;node_0x504000000f50 -->
<g id="edge36" class="edge">
<title>node_0x504000000f10&#45;&gt;node_0x504000000f50</title>
<path fill="none" stroke="#ff2b00" d="M970.95,-332.37C979.08,-323.35 988.59,-312.79 997.3,-303.12"/>
<polygon fill="#ff2b00" stroke="#ff2b00" points="999.98,-305.38 1004.08,-295.61 994.78,-300.69 999.98,-305.38"/>
</g>
<!-- node_0x504000000ed0 -->
<g id="node38" class="node">
<title>node_0x504000000ed0</title>
<path fill="#ff6699" stroke="#ffe9c7" d="M944.5,-166.5C944.5,-166.5 1003.5,-166.5 1003.5,-166.5 1009.5,-166.5 1015.5,-172.5 1015.5,-178.5 1015.5,-178.5 1015.5,-200.5 1015.5,-200.5 1015.5,-206.5 1009.5,-212.5 1003.5,-212.5 1003.5,-212.5 944.5,-212.5 944.5,-212.5 938.5,-212.5 932.5,-206.5 932.5,-200.5 932.5,-200.5 932.5,-178.5 932.5,-178.5 932.5,-172.5 938.5,-166.5 944.5,-166.5"/>
<text text-anchor="middle" x="974" y="-197.3" font-family="Times,serif" font-size="14.00">Identifier</text>
<polyline fill="none" stroke="#ffe9c7" points="932.5,-189.5 1015.5,-189.5 "/>
<text text-anchor="middle" x="974" y="-174.3" font-family="Times,serif" font-size="14.00">7</text>
</g>
<!-- node_0x504000000f50&#45;&gt;node_0x504000000ed0 -->
<g id="edge37" class="edge">
<title>node_0x504000000f50&#45;&gt;node_0x504000000ed0</title>
<path fill="none" stroke="#9acd32" d="M1010.34,-249.37C1004.99,-240.71 998.77,-230.62 993,-221.27"/>
<polygon fill="#9acd32" stroke="#9acd32" points="995.88,-219.28 987.65,-212.61 989.92,-222.95 995.88,-219.28"/>
</g>
<!-- node_0x504000000f90 -->
<g id="node39" class="node">
<title>node_0x504000000f90</title>
<path fill="#ff6699" stroke="#ffe9c7" d="M1045.5,-166.5C1045.5,-166.5 1104.5,-166.5 1104.5,-166.5 1110.5,-166.5 1116.5,-172.5 1116.5,-178.5 1116.5,-178.5 1116.5,-200.5 1116.5,-200.5 1116.5,-206.5 1110.5,-212.5 1104.5,-212.5 1104.5,-212.5 1045.5,-212.5 1045.5,-212.5 1039.5,-212.5 1033.5,-206.5 1033.5,-200.5 1033.5,-200.5 1033.5,-178.5 1033.5,-178.5 1033.5,-172.5 1039.5,-166.5 1045.5,-166.5"/>
<text text-anchor="middle" x="1075" y="-197.3" font-family="Times,serif" font-size="14.00">Identifier</text>
<polyline fill="none" stroke="#ffe9c7" points="1033.5,-189.5 1116.5,-189.5 "/>
<text text-anchor="middle" x="1075" y="-174.3" font-family="Times,serif" font-size="14.00">4</text>
</g>
<!-- node_0x504000000f50&#45;&gt;node_0x504000000f90 -->
<g id="edge38" class="edge">
<title>node_0x504000000f50&#45;&gt;node_0x504000000f90</title>
<path fill="none" stroke="#ff2b00" d="M1037.94,-249.37C1043.39,-240.71 1049.74,-230.62 1055.62,-221.27"/>
<polygon fill="#ff2b00" stroke="#ff2b00" points="1058.71,-222.93 1061.08,-212.61 1052.79,-219.2 1058.71,-222.93"/>
</g>
<!-- node_0x504000001010 -->
<g id="node41" class="node">
<title>node_0x504000001010</title>
<path fill="#ff6699" stroke="#ffe9c7" d="M1094.5,-249.5C1094.5,-249.5 1153.5,-249.5 1153.5,-249.5 1159.5,-249.5 1165.5,-255.5 1165.5,-261.5 1165.5,-261.5 1165.5,-283.5 1165.5,-283.5 1165.5,-289.5 1159.5,-295.5 1153.5,-295.5 1153.5,-295.5 1094.5,-295.5 1094.5,-295.5 1088.5,-295.5 1082.5,-289.5 1082.5,-283.5 1082.5,-283.5 1082.5,-261.5 1082.5,-261.5 1082.5,-255.5 1088.5,-249.5 1094.5,-249.5"/>
<text text-anchor="middle" x="1124" y="-280.3" font-family="Times,serif" font-size="14.00">Identifier</text>
<polyline fill="none" stroke="#ffe9c7" points="1082.5,-272.5 1165.5,-272.5 "/>
<text text-anchor="middle" x="1124" y="-257.3" font-family="Times,serif" font-size="14.00">3</text>
</g>
<!-- node_0x504000000fd0&#45;&gt;node_0x504000001010 -->
<g id="edge40" class="edge">
<title>node_0x504000000fd0&#45;&gt;node_0x504000001010</title>
<path fill="none" stroke="#ff2b00" d="M1105.1,-332.37C1107.8,-323.97 1110.92,-314.24 1113.84,-305.14"/>
<polygon fill="#ff2b00" stroke="#ff2b00" points="1117.18,-306.2 1116.9,-295.61 1110.52,-304.06 1117.18,-306.2"/>
</g>
</g>
</svg>
