<?xml version="1.0" encoding="UTF-8" standalone="no"?>
<!DOCTYPE svg PUBLIC "-//W3C//DTD SVG 1.1//EN"
 "http://www.w3.org/Graphics/SVG/1.1/DTD/svg11.dtd">
<!-- Generated by graphviz version 2.43.0 (0)
 -->
<!-- Title: G Pages: 1 -->
<svg width="689pt" height="594pt"
 viewBox="0.00 0.00 688.50 594.00" xmlns="http://www.w3.org/2000/svg" xmlns:xlink="http://www.w3.org/1999/xlink">
<g id="graph0" class="graph" transform="scale(1 1) rotate(0) translate(4 590)">
<title>G</title>
<polygon fill="#ffd480" stroke="transparent" points="-4,4 -4,-590 684.5,-590 684.5,4 -4,4"/>
<text text-anchor="middle" x="340.25" y="-558" font-family="Verdana" font-size="30.00" fill="#ffffff">AST</text>
<!-- node_0x504000000750 -->
<g id="node1" class="node">
<title>node_0x504000000750</title>
<path fill="#9966ff" stroke="#ffe9c7" d="M258,-498.5C258,-498.5 314,-498.5 314,-498.5 320,-498.5 326,-504.5 326,-510.5 326,-510.5 326,-532.5 326,-532.5 326,-538.5 320,-544.5 314,-544.5 314,-544.5 258,-544.5 258,-544.5 252,-544.5 246,-538.5 246,-532.5 246,-532.5 246,-510.5 246,-510.5 246,-504.5 252,-498.5 258,-498.5"/>
<text text-anchor="middle" x="286" y="-529.3" font-family="Times,serif" font-size="14.00">KeyWord</text>
<polyline fill="none" stroke="#ffe9c7" points="246,-521.5 326,-521.5 "/>
<text text-anchor="middle" x="286" y="-506.3" font-family="Times,serif" font-size="14.00">;</text>
</g>
<!-- node_0x5040000004d0 -->
<g id="node2" class="node">
<title>node_0x5040000004d0</title>
<path fill="#fca103" stroke="#ffe9c7" d="M203.5,-415.5C203.5,-415.5 260.5,-415.5 260.5,-415.5 266.5,-415.5 272.5,-421.5 272.5,-427.5 272.5,-427.5 272.5,-449.5 272.5,-449.5 272.5,-455.5 266.5,-461.5 260.5,-461.5 260.5,-461.5 203.5,-461.5 203.5,-461.5 197.5,-461.5 191.5,-455.5 191.5,-449.5 191.5,-449.5 191.5,-427.5 191.5,-427.5 191.5,-421.5 197.5,-415.5 203.5,-415.5"/>
<text text-anchor="middle" x="232" y="-446.3" font-family="Times,serif" font-size="14.00">Func Def</text>
<polyline fill="none" stroke="#ffe9c7" points="191.5,-438.5 272.5,-438.5 "/>
<text text-anchor="middle" x="232" y="-423.3" font-family="Times,serif" font-size="14.00">0</text>
</g>
<!-- node_0x504000000750&#45;&gt;node_0x5040000004d0 -->
<g id="edge1" class="edge">
<title>node_0x504000000750&#45;&gt;node_0x5040000004d0</title>
<path fill="none" stroke="#9acd32" d="M271.24,-498.37C265.41,-489.62 258.61,-479.41 252.32,-469.99"/>
<polygon fill="#9acd32" stroke="#9acd32" points="255.2,-467.99 246.74,-461.61 249.37,-471.87 255.2,-467.99"/>
</g>
<!-- node_0x5040000007d0 -->
<g id="node13" class="node">
<title>node_0x5040000007d0</title>
<path fill="#fca103" stroke="#ffe9c7" d="M311.5,-415.5C311.5,-415.5 368.5,-415.5 368.5,-415.5 374.5,-415.5 380.5,-421.5 380.5,-427.5 380.5,-427.5 380.5,-449.5 380.5,-449.5 380.5,-455.5 374.5,-461.5 368.5,-461.5 368.5,-461.5 311.5,-461.5 311.5,-461.5 305.5,-461.5 299.5,-455.5 299.5,-449.5 299.5,-449.5 299.5,-427.5 299.5,-427.5 299.5,-421.5 305.5,-415.5 311.5,-415.5"/>
<text text-anchor="middle" x="340" y="-446.3" font-family="Times,serif" font-size="14.00">Func Def</text>
<polyline fill="none" stroke="#ffe9c7" points="299.5,-438.5 380.5,-438.5 "/>
<text text-anchor="middle" x="340" y="-423.3" font-family="Times,serif" font-size="14.00">2</text>
</g>
<!-- node_0x504000000750&#45;&gt;node_0x5040000007d0 -->
<g id="edge12" class="edge">
<title>node_0x504000000750&#45;&gt;node_0x5040000007d0</title>
<path fill="none" stroke="#ff2b00" d="M300.76,-498.37C306.59,-489.62 313.39,-479.41 319.68,-469.99"/>
<polygon fill="#ff2b00" stroke="#ff2b00" points="322.63,-471.87 325.26,-461.61 316.8,-467.99 322.63,-471.87"/>
</g>
<!-- node_0x504000000490 -->
<g id="node3" class="node">
<title>node_0x504000000490</title>
<path fill="#9966ff" stroke="#ffe9c7" d="M96,-332.5C96,-332.5 152,-332.5 152,-332.5 158,-332.5 164,-338.5 164,-344.5 164,-344.5 164,-366.5 164,-366.5 164,-372.5 158,-378.5 152,-378.5 152,-378.5 96,-378.5 96,-378.5 90,-378.5 84,-372.5 84,-366.5 84,-366.5 84,-344.5 84,-344.5 84,-338.5 90,-332.5 96,-332.5"/>
<text text-anchor="middle" x="124" y="-363.3" font-family="Times,serif" font-size="14.00">KeyWord</text>
<polyline fill="none" stroke="#ffe9c7" points="84,-355.5 164,-355.5 "/>
<text text-anchor="middle" x="124" y="-340.3" font-family="Times,serif" font-size="14.00">int</text>
</g>
<!-- node_0x5040000004d0&#45;&gt;node_0x504000000490 -->
<g id="edge2" class="edge">
<title>node_0x5040000004d0&#45;&gt;node_0x504000000490</title>
<path fill="none" stroke="#9acd32" d="M202.49,-415.37C189.87,-405.9 174.99,-394.74 161.59,-384.69"/>
<polygon fill="#9acd32" stroke="#9acd32" points="163.58,-381.81 153.48,-378.61 159.38,-387.41 163.58,-381.81"/>
</g>
<!-- node_0x504000000510 -->
<g id="node4" class="node">
<title>node_0x504000000510</title>
<path fill="#fc0303" stroke="#ffe9c7" d="M194.5,-332.5C194.5,-332.5 269.5,-332.5 269.5,-332.5 275.5,-332.5 281.5,-338.5 281.5,-344.5 281.5,-344.5 281.5,-366.5 281.5,-366.5 281.5,-372.5 275.5,-378.5 269.5,-378.5 269.5,-378.5 194.5,-378.5 194.5,-378.5 188.5,-378.5 182.5,-372.5 182.5,-366.5 182.5,-366.5 182.5,-344.5 182.5,-344.5 182.5,-338.5 188.5,-332.5 194.5,-332.5"/>
<text text-anchor="middle" x="232" y="-363.3" font-family="Times,serif" font-size="14.00">Parameters</text>
<polyline fill="none" stroke="#ffe9c7" points="182.5,-355.5 281.5,-355.5 "/>
<text text-anchor="middle" x="232" y="-340.3" font-family="Times,serif" font-size="14.00">∅</text>
</g>
<!-- node_0x5040000004d0&#45;&gt;node_0x504000000510 -->
<g id="edge3" class="edge">
<title>node_0x5040000004d0&#45;&gt;node_0x504000000510</title>
<path fill="none" stroke="#ff2b00" d="M232,-415.37C232,-407.15 232,-397.66 232,-388.73"/>
<polygon fill="#ff2b00" stroke="#ff2b00" points="235.5,-388.61 232,-378.61 228.5,-388.61 235.5,-388.61"/>
</g>
<!-- node_0x504000000550 -->
<g id="node5" class="node">
<title>node_0x504000000550</title>
<path fill="#9966ff" stroke="#ffe9c7" d="M204,-249.5C204,-249.5 260,-249.5 260,-249.5 266,-249.5 272,-255.5 272,-261.5 272,-261.5 272,-283.5 272,-283.5 272,-289.5 266,-295.5 260,-295.5 260,-295.5 204,-295.5 204,-295.5 198,-295.5 192,-289.5 192,-283.5 192,-283.5 192,-261.5 192,-261.5 192,-255.5 198,-249.5 204,-249.5"/>
<text text-anchor="middle" x="232" y="-280.3" font-family="Times,serif" font-size="14.00">KeyWord</text>
<polyline fill="none" stroke="#ffe9c7" points="192,-272.5 272,-272.5 "/>
<text text-anchor="middle" x="232" y="-257.3" font-family="Times,serif" font-size="14.00">;</text>
</g>
<!-- node_0x504000000510&#45;&gt;node_0x504000000550 -->
<g id="edge4" class="edge">
<title>node_0x504000000510&#45;&gt;node_0x504000000550</title>
<path fill="none" stroke="#ff2b00" d="M232,-332.37C232,-324.15 232,-314.66 232,-305.73"/>
<polygon fill="#ff2b00" stroke="#ff2b00" points="235.5,-305.61 232,-295.61 228.5,-305.61 235.5,-305.61"/>
</g>
<!-- node_0x504000000610 -->
<g id="node6" class="node">
<title>node_0x504000000610</title>
<path fill="#08c41e" stroke="#ffe9c7" d="M111.5,-166.5C111.5,-166.5 164.5,-166.5 164.5,-166.5 170.5,-166.5 176.5,-172.5 176.5,-178.5 176.5,-178.5 176.5,-200.5 176.5,-200.5 176.5,-206.5 170.5,-212.5 164.5,-212.5 164.5,-212.5 111.5,-212.5 111.5,-212.5 105.5,-212.5 99.5,-206.5 99.5,-200.5 99.5,-200.5 99.5,-178.5 99.5,-178.5 99.5,-172.5 105.5,-166.5 111.5,-166.5"/>
<text text-anchor="middle" x="138" y="-197.3" font-family="Times,serif" font-size="14.00">Var Decl</text>
<polyline fill="none" stroke="#ffe9c7" points="99.5,-189.5 176.5,-189.5 "/>
<text text-anchor="middle" x="138" y="-174.3" font-family="Times,serif" font-size="14.00">1</text>
</g>
<!-- node_0x504000000550&#45;&gt;node_0x504000000610 -->
<g id="edge5" class="edge">
<title>node_0x504000000550&#45;&gt;node_0x504000000610</title>
<path fill="none" stroke="#9acd32" d="M206.31,-249.37C195.54,-240.08 182.86,-229.16 171.38,-219.26"/>
<polygon fill="#9acd32" stroke="#9acd32" points="173.52,-216.48 163.65,-212.61 168.95,-221.79 173.52,-216.48"/>
</g>
<!-- node_0x5040000006d0 -->
<g id="node11" class="node">
<title>node_0x5040000006d0</title>
<path fill="#9966ff" stroke="#ffe9c7" d="M208,-166.5C208,-166.5 264,-166.5 264,-166.5 270,-166.5 276,-172.5 276,-178.5 276,-178.5 276,-200.5 276,-200.5 276,-206.5 270,-212.5 264,-212.5 264,-212.5 208,-212.5 208,-212.5 202,-212.5 196,-206.5 196,-200.5 196,-200.5 196,-178.5 196,-178.5 196,-172.5 202,-166.5 208,-166.5"/>
<text text-anchor="middle" x="236" y="-197.3" font-family="Times,serif" font-size="14.00">KeyWord</text>
<polyline fill="none" stroke="#ffe9c7" points="196,-189.5 276,-189.5 "/>
<text text-anchor="middle" x="236" y="-174.3" font-family="Times,serif" font-size="14.00">return</text>
</g>
<!-- node_0x504000000550&#45;&gt;node_0x5040000006d0 -->
<g id="edge10" class="edge">
<title>node_0x504000000550&#45;&gt;node_0x5040000006d0</title>
<path fill="none" stroke="#ff2b00" d="M233.09,-249.37C233.5,-241.15 233.97,-231.66 234.41,-222.73"/>
<polygon fill="#ff2b00" stroke="#ff2b00" points="237.91,-222.77 234.91,-212.61 230.92,-222.42 237.91,-222.77"/>
</g>
<!-- node_0x504000000590 -->
<g id="node7" class="node">
<title>node_0x504000000590</title>
<path fill="#9966ff" stroke="#ffe9c7" d="M12,-83.5C12,-83.5 68,-83.5 68,-83.5 74,-83.5 80,-89.5 80,-95.5 80,-95.5 80,-117.5 80,-117.5 80,-123.5 74,-129.5 68,-129.5 68,-129.5 12,-129.5 12,-129.5 6,-129.5 0,-123.5 0,-117.5 0,-117.5 0,-95.5 0,-95.5 0,-89.5 6,-83.5 12,-83.5"/>
<text text-anchor="middle" x="40" y="-114.3" font-family="Times,serif" font-size="14.00">KeyWord</text>
<polyline fill="none" stroke="#ffe9c7" points="0,-106.5 80,-106.5 "/>
<text text-anchor="middle" x="40" y="-91.3" font-family="Times,serif" font-size="14.00">int</text>
</g>
<!-- node_0x504000000610&#45;&gt;node_0x504000000590 -->
<g id="edge6" class="edge">
<title>node_0x504000000610&#45;&gt;node_0x504000000590</title>
<path fill="none" stroke="#9acd32" d="M111.22,-166.37C99.99,-157.08 86.77,-146.16 74.8,-136.26"/>
<polygon fill="#9acd32" stroke="#9acd32" points="76.68,-133.28 66.75,-129.61 72.22,-138.68 76.68,-133.28"/>
</g>
<!-- node_0x504000000650 -->
<g id="node8" class="node">
<title>node_0x504000000650</title>
<path fill="#9966ff" stroke="#ffe9c7" d="M110,-83.5C110,-83.5 166,-83.5 166,-83.5 172,-83.5 178,-89.5 178,-95.5 178,-95.5 178,-117.5 178,-117.5 178,-123.5 172,-129.5 166,-129.5 166,-129.5 110,-129.5 110,-129.5 104,-129.5 98,-123.5 98,-117.5 98,-117.5 98,-95.5 98,-95.5 98,-89.5 104,-83.5 110,-83.5"/>
<text text-anchor="middle" x="138" y="-114.3" font-family="Times,serif" font-size="14.00">KeyWord</text>
<polyline fill="none" stroke="#ffe9c7" points="98,-106.5 178,-106.5 "/>
<text text-anchor="middle" x="138" y="-91.3" font-family="Times,serif" font-size="14.00">=</text>
</g>
<!-- node_0x504000000610&#45;&gt;node_0x504000000650 -->
<g id="edge7" class="edge">
<title>node_0x504000000610&#45;&gt;node_0x504000000650</title>
<path fill="none" stroke="#ff2b00" d="M138,-166.37C138,-158.15 138,-148.66 138,-139.73"/>
<polygon fill="#ff2b00" stroke="#ff2b00" points="141.5,-139.61 138,-129.61 134.5,-139.61 141.5,-139.61"/>
</g>
<!-- node_0x5040000005d0 -->
<g id="node9" class="node">
<title>node_0x5040000005d0</title>
<path fill="#ff6699" stroke="#ffe9c7" d="M58.5,-0.5C58.5,-0.5 117.5,-0.5 117.5,-0.5 123.5,-0.5 129.5,-6.5 129.5,-12.5 129.5,-12.5 129.5,-34.5 129.5,-34.5 129.5,-40.5 123.5,-46.5 117.5,-46.5 117.5,-46.5 58.5,-46.5 58.5,-46.5 52.5,-46.5 46.5,-40.5 46.5,-34.5 46.5,-34.5 46.5,-12.5 46.5,-12.5 46.5,-6.5 52.5,-0.5 58.5,-0.5"/>
<text text-anchor="middle" x="88" y="-31.3" font-family="Times,serif" font-size="14.00">Identifier</text>
<polyline fill="none" stroke="#ffe9c7" points="46.5,-23.5 129.5,-23.5 "/>
<text text-anchor="middle" x="88" y="-8.3" font-family="Times,serif" font-size="14.00">1</text>
</g>
<!-- node_0x504000000650&#45;&gt;node_0x5040000005d0 -->
<g id="edge8" class="edge">
<title>node_0x504000000650&#45;&gt;node_0x5040000005d0</title>
<path fill="none" stroke="#9acd32" d="M124.34,-83.37C118.99,-74.71 112.77,-64.62 107,-55.27"/>
<polygon fill="#9acd32" stroke="#9acd32" points="109.88,-53.28 101.65,-46.61 103.92,-56.95 109.88,-53.28"/>
</g>
<!-- node_0x504000000690 -->
<g id="node10" class="node">
<title>node_0x504000000690</title>
<path fill="#03cffc" stroke="#ffe9c7" d="M159.5,-0.5C159.5,-0.5 216.5,-0.5 216.5,-0.5 222.5,-0.5 228.5,-6.5 228.5,-12.5 228.5,-12.5 228.5,-34.5 228.5,-34.5 228.5,-40.5 222.5,-46.5 216.5,-46.5 216.5,-46.5 159.5,-46.5 159.5,-46.5 153.5,-46.5 147.5,-40.5 147.5,-34.5 147.5,-34.5 147.5,-12.5 147.5,-12.5 147.5,-6.5 153.5,-0.5 159.5,-0.5"/>
<text text-anchor="middle" x="188" y="-31.3" font-family="Times,serif" font-size="14.00">Constant</text>
<polyline fill="none" stroke="#ffe9c7" points="147.5,-23.5 228.5,-23.5 "/>
<text text-anchor="middle" x="188" y="-8.3" font-family="Times,serif" font-size="14.00">15</text>
</g>
<!-- node_0x504000000650&#45;&gt;node_0x504000000690 -->
<g id="edge9" class="edge">
<title>node_0x504000000650&#45;&gt;node_0x504000000690</title>
<path fill="none" stroke="#ff2b00" d="M151.66,-83.37C157.01,-74.71 163.23,-64.62 169,-55.27"/>
<polygon fill="#ff2b00" stroke="#ff2b00" points="172.08,-56.95 174.35,-46.61 166.12,-53.28 172.08,-56.95"/>
</g>
<!-- node_0x504000000710 -->
<g id="node12" class="node">
<title>node_0x504000000710</title>
<path fill="#03cffc" stroke="#ffe9c7" d="M208.5,-83.5C208.5,-83.5 265.5,-83.5 265.5,-83.5 271.5,-83.5 277.5,-89.5 277.5,-95.5 277.5,-95.5 277.5,-117.5 277.5,-117.5 277.5,-123.5 271.5,-129.5 265.5,-129.5 265.5,-129.5 208.5,-129.5 208.5,-129.5 202.5,-129.5 196.5,-123.5 196.5,-117.5 196.5,-117.5 196.5,-95.5 196.5,-95.5 196.5,-89.5 202.5,-83.5 208.5,-83.5"/>
<text text-anchor="middle" x="237" y="-114.3" font-family="Times,serif" font-size="14.00">Constant</text>
<polyline fill="none" stroke="#ffe9c7" points="196.5,-106.5 277.5,-106.5 "/>
<text text-anchor="middle" x="237" y="-91.3" font-family="Times,serif" font-size="14.00">0</text>
</g>
<!-- node_0x5040000006d0&#45;&gt;node_0x504000000710 -->
<g id="edge11" class="edge">
<title>node_0x5040000006d0&#45;&gt;node_0x504000000710</title>
<path fill="none" stroke="#ff2b00" d="M236.27,-166.37C236.37,-158.15 236.49,-148.66 236.6,-139.73"/>
<polygon fill="#ff2b00" stroke="#ff2b00" points="240.1,-139.65 236.73,-129.61 233.1,-139.56 240.1,-139.65"/>
</g>
<!-- node_0x504000000790 -->
<g id="node14" class="node">
<title>node_0x504000000790</title>
<path fill="#9966ff" stroke="#ffe9c7" d="M312,-332.5C312,-332.5 368,-332.5 368,-332.5 374,-332.5 380,-338.5 380,-344.5 380,-344.5 380,-366.5 380,-366.5 380,-372.5 374,-378.5 368,-378.5 368,-378.5 312,-378.5 312,-378.5 306,-378.5 300,-372.5 300,-366.5 300,-366.5 300,-344.5 300,-344.5 300,-338.5 306,-332.5 312,-332.5"/>
<text text-anchor="middle" x="340" y="-363.3" font-family="Times,serif" font-size="14.00">KeyWord</text>
<polyline fill="none" stroke="#ffe9c7" points="300,-355.5 380,-355.5 "/>
<text text-anchor="middle" x="340" y="-340.3" font-family="Times,serif" font-size="14.00">int</text>
</g>
<!-- node_0x5040000007d0&#45;&gt;node_0x504000000790 -->
<g id="edge13" class="edge">
<title>node_0x5040000007d0&#45;&gt;node_0x504000000790</title>
<path fill="none" stroke="#9acd32" d="M340,-415.37C340,-407.15 340,-397.66 340,-388.73"/>
<polygon fill="#9acd32" stroke="#9acd32" points="343.5,-388.61 340,-378.61 336.5,-388.61 343.5,-388.61"/>
</g>
<!-- node_0x504000000810 -->
<g id="node15" class="node">
<title>node_0x504000000810</title>
<path fill="#fc0303" stroke="#ffe9c7" d="M410.5,-332.5C410.5,-332.5 485.5,-332.5 485.5,-332.5 491.5,-332.5 497.5,-338.5 497.5,-344.5 497.5,-344.5 497.5,-366.5 497.5,-366.5 497.5,-372.5 491.5,-378.5 485.5,-378.5 485.5,-378.5 410.5,-378.5 410.5,-378.5 404.5,-378.5 398.5,-372.5 398.5,-366.5 398.5,-366.5 398.5,-344.5 398.5,-344.5 398.5,-338.5 404.5,-332.5 410.5,-332.5"/>
<text text-anchor="middle" x="448" y="-363.3" font-family="Times,serif" font-size="14.00">Parameters</text>
<polyline fill="none" stroke="#ffe9c7" points="398.5,-355.5 497.5,-355.5 "/>
<text text-anchor="middle" x="448" y="-340.3" font-family="Times,serif" font-size="14.00">∅</text>
</g>
<!-- node_0x5040000007d0&#45;&gt;node_0x504000000810 -->
<g id="edge14" class="edge">
<title>node_0x5040000007d0&#45;&gt;node_0x504000000810</title>
<path fill="none" stroke="#ff2b00" d="M369.51,-415.37C382.13,-405.9 397.01,-394.74 410.41,-384.69"/>
<polygon fill="#ff2b00" stroke="#ff2b00" points="412.62,-387.41 418.52,-378.61 408.42,-381.81 412.62,-387.41"/>
</g>
<!-- node_0x5040000008d0 -->
<g id="node16" class="node">
<title>node_0x5040000008d0</title>
<path fill="#08c41e" stroke="#ffe9c7" d="M416.5,-249.5C416.5,-249.5 469.5,-249.5 469.5,-249.5 475.5,-249.5 481.5,-255.5 481.5,-261.5 481.5,-261.5 481.5,-283.5 481.5,-283.5 481.5,-289.5 475.5,-295.5 469.5,-295.5 469.5,-295.5 416.5,-295.5 416.5,-295.5 410.5,-295.5 404.5,-289.5 404.5,-283.5 404.5,-283.5 404.5,-261.5 404.5,-261.5 404.5,-255.5 410.5,-249.5 416.5,-249.5"/>
<text text-anchor="middle" x="443" y="-280.3" font-family="Times,serif" font-size="14.00">Var Decl</text>
<polyline fill="none" stroke="#ffe9c7" points="404.5,-272.5 481.5,-272.5 "/>
<text text-anchor="middle" x="443" y="-257.3" font-family="Times,serif" font-size="14.00">3</text>
</g>
<!-- node_0x504000000810&#45;&gt;node_0x5040000008d0 -->
<g id="edge15" class="edge">
<title>node_0x504000000810&#45;&gt;node_0x5040000008d0</title>
<path fill="none" stroke="#9acd32" d="M446.63,-332.37C446.13,-324.15 445.54,-314.66 444.99,-305.73"/>
<polygon fill="#9acd32" stroke="#9acd32" points="448.47,-305.37 444.36,-295.61 441.49,-305.8 448.47,-305.37"/>
</g>
<!-- node_0x504000000910 -->
<g id="node19" class="node">
<title>node_0x504000000910</title>
<path fill="#9966ff" stroke="#ffe9c7" d="M513,-249.5C513,-249.5 569,-249.5 569,-249.5 575,-249.5 581,-255.5 581,-261.5 581,-261.5 581,-283.5 581,-283.5 581,-289.5 575,-295.5 569,-295.5 569,-295.5 513,-295.5 513,-295.5 507,-295.5 501,-289.5 501,-283.5 501,-283.5 501,-261.5 501,-261.5 501,-255.5 507,-249.5 513,-249.5"/>
<text text-anchor="middle" x="541" y="-280.3" font-family="Times,serif" font-size="14.00">KeyWord</text>
<polyline fill="none" stroke="#ffe9c7" points="501,-272.5 581,-272.5 "/>
<text text-anchor="middle" x="541" y="-257.3" font-family="Times,serif" font-size="14.00">;</text>
</g>
<!-- node_0x504000000810&#45;&gt;node_0x504000000910 -->
<g id="edge18" class="edge">
<title>node_0x504000000810&#45;&gt;node_0x504000000910</title>
<path fill="none" stroke="#ff2b00" d="M473.41,-332.37C484.07,-323.08 496.61,-312.16 507.98,-302.26"/>
<polygon fill="#ff2b00" stroke="#ff2b00" points="510.38,-304.81 515.62,-295.61 505.78,-299.54 510.38,-304.81"/>
</g>
<!-- node_0x504000000850 -->
<g id="node17" class="node">
<title>node_0x504000000850</title>
<path fill="#9966ff" stroke="#ffe9c7" d="M315,-166.5C315,-166.5 371,-166.5 371,-166.5 377,-166.5 383,-172.5 383,-178.5 383,-178.5 383,-200.5 383,-200.5 383,-206.5 377,-212.5 371,-212.5 371,-212.5 315,-212.5 315,-212.5 309,-212.5 303,-206.5 303,-200.5 303,-200.5 303,-178.5 303,-178.5 303,-172.5 309,-166.5 315,-166.5"/>
<text text-anchor="middle" x="343" y="-197.3" font-family="Times,serif" font-size="14.00">KeyWord</text>
<polyline fill="none" stroke="#ffe9c7" points="303,-189.5 383,-189.5 "/>
<text text-anchor="middle" x="343" y="-174.3" font-family="Times,serif" font-size="14.00">int</text>
</g>
<!-- node_0x5040000008d0&#45;&gt;node_0x504000000850 -->
<g id="edge16" class="edge">
<title>node_0x5040000008d0&#45;&gt;node_0x504000000850</title>
<path fill="none" stroke="#9acd32" d="M415.67,-249.37C404.1,-239.99 390.47,-228.95 378.16,-218.98"/>
<polygon fill="#9acd32" stroke="#9acd32" points="380.27,-216.18 370.29,-212.61 375.86,-221.62 380.27,-216.18"/>
</g>
<!-- node_0x504000000890 -->
<g id="node18" class="node">
<title>node_0x504000000890</title>
<path fill="#ff6699" stroke="#ffe9c7" d="M413.5,-166.5C413.5,-166.5 472.5,-166.5 472.5,-166.5 478.5,-166.5 484.5,-172.5 484.5,-178.5 484.5,-178.5 484.5,-200.5 484.5,-200.5 484.5,-206.5 478.5,-212.5 472.5,-212.5 472.5,-212.5 413.5,-212.5 413.5,-212.5 407.5,-212.5 401.5,-206.5 401.5,-200.5 401.5,-200.5 401.5,-178.5 401.5,-178.5 401.5,-172.5 407.5,-166.5 413.5,-166.5"/>
<text text-anchor="middle" x="443" y="-197.3" font-family="Times,serif" font-size="14.00">Identifier</text>
<polyline fill="none" stroke="#ffe9c7" points="401.5,-189.5 484.5,-189.5 "/>
<text text-anchor="middle" x="443" y="-174.3" font-family="Times,serif" font-size="14.00">3</text>
</g>
<!-- node_0x5040000008d0&#45;&gt;node_0x504000000890 -->
<g id="edge17" class="edge">
<title>node_0x5040000008d0&#45;&gt;node_0x504000000890</title>
<path fill="none" stroke="#ff2b00" d="M443,-249.37C443,-241.15 443,-231.66 443,-222.73"/>
<polygon fill="#ff2b00" stroke="#ff2b00" points="446.5,-222.61 443,-212.61 439.5,-222.61 446.5,-222.61"/>
</g>
<!-- node_0x5040000009d0 -->
<g id="node20" class="node">
<title>node_0x5040000009d0</title>
<path fill="#08c41e" stroke="#ffe9c7" d="M514.5,-166.5C514.5,-166.5 567.5,-166.5 567.5,-166.5 573.5,-166.5 579.5,-172.5 579.5,-178.5 579.5,-178.5 579.5,-200.5 579.5,-200.5 579.5,-206.5 573.5,-212.5 567.5,-212.5 567.5,-212.5 514.5,-212.5 514.5,-212.5 508.5,-212.5 502.5,-206.5 502.5,-200.5 502.5,-200.5 502.5,-178.5 502.5,-178.5 502.5,-172.5 508.5,-166.5 514.5,-166.5"/>
<text text-anchor="middle" x="541" y="-197.3" font-family="Times,serif" font-size="14.00">Var Decl</text>
<polyline fill="none" stroke="#ffe9c7" points="502.5,-189.5 579.5,-189.5 "/>
<text text-anchor="middle" x="541" y="-174.3" font-family="Times,serif" font-size="14.00">4</text>
</g>
<!-- node_0x504000000910&#45;&gt;node_0x5040000009d0 -->
<g id="edge19" class="edge">
<title>node_0x504000000910&#45;&gt;node_0x5040000009d0</title>
<path fill="none" stroke="#9acd32" d="M541,-249.37C541,-241.15 541,-231.66 541,-222.73"/>
<polygon fill="#9acd32" stroke="#9acd32" points="544.5,-222.61 541,-212.61 537.5,-222.61 544.5,-222.61"/>
</g>
<!-- node_0x504000000a90 -->
<g id="node25" class="node">
<title>node_0x504000000a90</title>
<path fill="#9966ff" stroke="#ffe9c7" d="M611,-166.5C611,-166.5 667,-166.5 667,-166.5 673,-166.5 679,-172.5 679,-178.5 679,-178.5 679,-200.5 679,-200.5 679,-206.5 673,-212.5 667,-212.5 667,-212.5 611,-212.5 611,-212.5 605,-212.5 599,-206.5 599,-200.5 599,-200.5 599,-178.5 599,-178.5 599,-172.5 605,-166.5 611,-166.5"/>
<text text-anchor="middle" x="639" y="-197.3" font-family="Times,serif" font-size="14.00">KeyWord</text>
<polyline fill="none" stroke="#ffe9c7" points="599,-189.5 679,-189.5 "/>
<text text-anchor="middle" x="639" y="-174.3" font-family="Times,serif" font-size="14.00">return</text>
</g>
<!-- node_0x504000000910&#45;&gt;node_0x504000000a90 -->
<g id="edge24" class="edge">
<title>node_0x504000000910&#45;&gt;node_0x504000000a90</title>
<path fill="none" stroke="#ff2b00" d="M567.78,-249.37C579.01,-240.08 592.23,-229.16 604.2,-219.26"/>
<polygon fill="#ff2b00" stroke="#ff2b00" points="606.78,-221.68 612.25,-212.61 602.32,-216.28 606.78,-221.68"/>
</g>
<!-- node_0x504000000950 -->
<g id="node21" class="node">
<title>node_0x504000000950</title>
<path fill="#9966ff" stroke="#ffe9c7" d="M415,-83.5C415,-83.5 471,-83.5 471,-83.5 477,-83.5 483,-89.5 483,-95.5 483,-95.5 483,-117.5 483,-117.5 483,-123.5 477,-129.5 471,-129.5 471,-129.5 415,-129.5 415,-129.5 409,-129.5 403,-123.5 403,-117.5 403,-117.5 403,-95.5 403,-95.5 403,-89.5 409,-83.5 415,-83.5"/>
<text text-anchor="middle" x="443" y="-114.3" font-family="Times,serif" font-size="14.00">KeyWord</text>
<polyline fill="none" stroke="#ffe9c7" points="403,-106.5 483,-106.5 "/>
<text text-anchor="middle" x="443" y="-91.3" font-family="Times,serif" font-size="14.00">int</text>
</g>
<!-- node_0x5040000009d0&#45;&gt;node_0x504000000950 -->
<g id="edge20" class="edge">
<title>node_0x5040000009d0&#45;&gt;node_0x504000000950</title>
<path fill="none" stroke="#9acd32" d="M514.22,-166.37C502.99,-157.08 489.77,-146.16 477.8,-136.26"/>
<polygon fill="#9acd32" stroke="#9acd32" points="479.68,-133.28 469.75,-129.61 475.22,-138.68 479.68,-133.28"/>
</g>
<!-- node_0x504000000a10 -->
<g id="node22" class="node">
<title>node_0x504000000a10</title>
<path fill="#9966ff" stroke="#ffe9c7" d="M513,-83.5C513,-83.5 569,-83.5 569,-83.5 575,-83.5 581,-89.5 581,-95.5 581,-95.5 581,-117.5 581,-117.5 581,-123.5 575,-129.5 569,-129.5 569,-129.5 513,-129.5 513,-129.5 507,-129.5 501,-123.5 501,-117.5 501,-117.5 501,-95.5 501,-95.5 501,-89.5 507,-83.5 513,-83.5"/>
<text text-anchor="middle" x="541" y="-114.3" font-family="Times,serif" font-size="14.00">KeyWord</text>
<polyline fill="none" stroke="#ffe9c7" points="501,-106.5 581,-106.5 "/>
<text text-anchor="middle" x="541" y="-91.3" font-family="Times,serif" font-size="14.00">=</text>
</g>
<!-- node_0x5040000009d0&#45;&gt;node_0x504000000a10 -->
<g id="edge21" class="edge">
<title>node_0x5040000009d0&#45;&gt;node_0x504000000a10</title>
<path fill="none" stroke="#ff2b00" d="M541,-166.37C541,-158.15 541,-148.66 541,-139.73"/>
<polygon fill="#ff2b00" stroke="#ff2b00" points="544.5,-139.61 541,-129.61 537.5,-139.61 544.5,-139.61"/>
</g>
<!-- node_0x504000000990 -->
<g id="node23" class="node">
<title>node_0x504000000990</title>
<path fill="#ff6699" stroke="#ffe9c7" d="M460.5,-0.5C460.5,-0.5 519.5,-0.5 519.5,-0.5 525.5,-0.5 531.5,-6.5 531.5,-12.5 531.5,-12.5 531.5,-34.5 531.5,-34.5 531.5,-40.5 525.5,-46.5 519.5,-46.5 519.5,-46.5 460.5,-46.5 460.5,-46.5 454.5,-46.5 448.5,-40.5 448.5,-34.5 448.5,-34.5 448.5,-12.5 448.5,-12.5 448.5,-6.5 454.5,-0.5 460.5,-0.5"/>
<text text-anchor="middle" x="490" y="-31.3" font-family="Times,serif" font-size="14.00">Identifier</text>
<polyline fill="none" stroke="#ffe9c7" points="448.5,-23.5 531.5,-23.5 "/>
<text text-anchor="middle" x="490" y="-8.3" font-family="Times,serif" font-size="14.00">4</text>
</g>
<!-- node_0x504000000a10&#45;&gt;node_0x504000000990 -->
<g id="edge22" class="edge">
<title>node_0x504000000a10&#45;&gt;node_0x504000000990</title>
<path fill="none" stroke="#9acd32" d="M527.06,-83.37C521.61,-74.71 515.26,-64.62 509.38,-55.27"/>
<polygon fill="#9acd32" stroke="#9acd32" points="512.21,-53.2 503.92,-46.61 506.29,-56.93 512.21,-53.2"/>
</g>
<!-- node_0x504000000a50 -->
<g id="node24" class="node">
<title>node_0x504000000a50</title>
<path fill="#ff6699" stroke="#ffe9c7" d="M561.5,-0.5C561.5,-0.5 620.5,-0.5 620.5,-0.5 626.5,-0.5 632.5,-6.5 632.5,-12.5 632.5,-12.5 632.5,-34.5 632.5,-34.5 632.5,-40.5 626.5,-46.5 620.5,-46.5 620.5,-46.5 561.5,-46.5 561.5,-46.5 555.5,-46.5 549.5,-40.5 549.5,-34.5 549.5,-34.5 549.5,-12.5 549.5,-12.5 549.5,-6.5 555.5,-0.5 561.5,-0.5"/>
<text text-anchor="middle" x="591" y="-31.3" font-family="Times,serif" font-size="14.00">Identifier</text>
<polyline fill="none" stroke="#ffe9c7" points="549.5,-23.5 632.5,-23.5 "/>
<text text-anchor="middle" x="591" y="-8.3" font-family="Times,serif" font-size="14.00">3</text>
</g>
<!-- node_0x504000000a10&#45;&gt;node_0x504000000a50 -->
<g id="edge23" class="edge">
<title>node_0x504000000a10&#45;&gt;node_0x504000000a50</title>
<path fill="none" stroke="#ff2b00" d="M554.66,-83.37C560.01,-74.71 566.23,-64.62 572,-55.27"/>
<polygon fill="#ff2b00" stroke="#ff2b00" points="575.08,-56.95 577.35,-46.61 569.12,-53.28 575.08,-56.95"/>
</g>
<!-- node_0x504000000ad0 -->
<g id="node26" class="node">
<title>node_0x504000000ad0</title>
<path fill="#03cffc" stroke="#ffe9c7" d="M611.5,-83.5C611.5,-83.5 668.5,-83.5 668.5,-83.5 674.5,-83.5 680.5,-89.5 680.5,-95.5 680.5,-95.5 680.5,-117.5 680.5,-117.5 680.5,-123.5 674.5,-129.5 668.5,-129.5 668.5,-129.5 611.5,-129.5 611.5,-129.5 605.5,-129.5 599.5,-123.5 599.5,-117.5 599.5,-117.5 599.5,-95.5 599.5,-95.5 599.5,-89.5 605.5,-83.5 611.5,-83.5"/>
<text text-anchor="middle" x="640" y="-114.3" font-family="Times,serif" font-size="14.00">Constant</text>
<polyline fill="none" stroke="#ffe9c7" points="599.5,-106.5 680.5,-106.5 "/>
<text text-anchor="middle" x="640" y="-91.3" font-family="Times,serif" font-size="14.00">0</text>
</g>
<!-- node_0x504000000a90&#45;&gt;node_0x504000000ad0 -->
<g id="edge25" class="edge">
<title>node_0x504000000a90&#45;&gt;node_0x504000000ad0</title>
<path fill="none" stroke="#ff2b00" d="M639.27,-166.37C639.37,-158.15 639.49,-148.66 639.6,-139.73"/>
<polygon fill="#ff2b00" stroke="#ff2b00" points="643.1,-139.65 639.73,-129.61 636.1,-139.56 643.1,-139.65"/>
</g>
</g>
</svg>
