<?xml version="1.0" encoding="UTF-8" standalone="no"?>
<!DOCTYPE svg PUBLIC "-//W3C//DTD SVG 1.1//EN"
 "http://www.w3.org/Graphics/SVG/1.1/DTD/svg11.dtd">
<!-- Generated by graphviz version 2.43.0 (0)
 -->
<!-- Title: G Pages: 1 -->
<svg width="1776pt" height="926pt"
 viewBox="0.00 0.00 1775.50 926.00" xmlns="http://www.w3.org/2000/svg" xmlns:xlink="http://www.w3.org/1999/xlink">
<g id="graph0" class="graph" transform="scale(1 1) rotate(0) translate(4 922)">
<title>G</title>
<polygon fill="#ffd480" stroke="transparent" points="-4,4 -4,-922 1771.5,-922 1771.5,4 -4,4"/>
<text text-anchor="middle" x="883.75" y="-890" font-family="Verdana" font-size="30.00" fill="#ffffff">AST</text>
<!-- node_0x504000000790 -->
<g id="node1" class="node">
<title>node_0x504000000790</title>
<path fill="#fca103" stroke="#ffe9c7" d="M792.5,-830.5C792.5,-830.5 849.5,-830.5 849.5,-830.5 855.5,-830.5 861.5,-836.5 861.5,-842.5 861.5,-842.5 861.5,-864.5 861.5,-864.5 861.5,-870.5 855.5,-876.5 849.5,-876.5 849.5,-876.5 792.5,-876.5 792.5,-876.5 786.5,-876.5 780.5,-870.5 780.5,-864.5 780.5,-864.5 780.5,-842.5 780.5,-842.5 780.5,-836.5 786.5,-830.5 792.5,-830.5"/>
<text text-anchor="middle" x="821" y="-861.3" font-family="Times,serif" font-size="14.00">Func Def</text>
<polyline fill="none" stroke="#ffe9c7" points="780.5,-853.5 861.5,-853.5 "/>
<text text-anchor="middle" x="821" y="-838.3" font-family="Times,serif" font-size="14.00">0</text>
</g>
<!-- node_0x504000000750 -->
<g id="node2" class="node">
<title>node_0x504000000750</title>
<path fill="#9966ff" stroke="#ffe9c7" d="M739,-747.5C739,-747.5 795,-747.5 795,-747.5 801,-747.5 807,-753.5 807,-759.5 807,-759.5 807,-781.5 807,-781.5 807,-787.5 801,-793.5 795,-793.5 795,-793.5 739,-793.5 739,-793.5 733,-793.5 727,-787.5 727,-781.5 727,-781.5 727,-759.5 727,-759.5 727,-753.5 733,-747.5 739,-747.5"/>
<text text-anchor="middle" x="767" y="-778.3" font-family="Times,serif" font-size="14.00">KeyWord</text>
<polyline fill="none" stroke="#ffe9c7" points="727,-770.5 807,-770.5 "/>
<text text-anchor="middle" x="767" y="-755.3" font-family="Times,serif" font-size="14.00">int</text>
</g>
<!-- node_0x504000000790&#45;&gt;node_0x504000000750 -->
<g id="edge1" class="edge">
<title>node_0x504000000790&#45;&gt;node_0x504000000750</title>
<path fill="none" stroke="#9acd32" d="M806.24,-830.37C800.41,-821.62 793.61,-811.41 787.32,-801.99"/>
<polygon fill="#9acd32" stroke="#9acd32" points="790.2,-799.99 781.74,-793.61 784.37,-803.87 790.2,-799.99"/>
</g>
<!-- node_0x5040000007d0 -->
<g id="node3" class="node">
<title>node_0x5040000007d0</title>
<path fill="#fc0303" stroke="#ffe9c7" d="M837.5,-747.5C837.5,-747.5 912.5,-747.5 912.5,-747.5 918.5,-747.5 924.5,-753.5 924.5,-759.5 924.5,-759.5 924.5,-781.5 924.5,-781.5 924.5,-787.5 918.5,-793.5 912.5,-793.5 912.5,-793.5 837.5,-793.5 837.5,-793.5 831.5,-793.5 825.5,-787.5 825.5,-781.5 825.5,-781.5 825.5,-759.5 825.5,-759.5 825.5,-753.5 831.5,-747.5 837.5,-747.5"/>
<text text-anchor="middle" x="875" y="-778.3" font-family="Times,serif" font-size="14.00">Parameters</text>
<polyline fill="none" stroke="#ffe9c7" points="825.5,-770.5 924.5,-770.5 "/>
<text text-anchor="middle" x="875" y="-755.3" font-family="Times,serif" font-size="14.00">∅</text>
</g>
<!-- node_0x504000000790&#45;&gt;node_0x5040000007d0 -->
<g id="edge2" class="edge">
<title>node_0x504000000790&#45;&gt;node_0x5040000007d0</title>
<path fill="none" stroke="#ff2b00" d="M835.76,-830.37C841.59,-821.62 848.39,-811.41 854.68,-801.99"/>
<polygon fill="#ff2b00" stroke="#ff2b00" points="857.63,-803.87 860.26,-793.61 851.8,-799.99 857.63,-803.87"/>
</g>
<!-- node_0x504000000dd0 -->
<g id="node4" class="node">
<title>node_0x504000000dd0</title>
<path fill="#9966ff" stroke="#ffe9c7" d="M748,-664.5C748,-664.5 804,-664.5 804,-664.5 810,-664.5 816,-670.5 816,-676.5 816,-676.5 816,-698.5 816,-698.5 816,-704.5 810,-710.5 804,-710.5 804,-710.5 748,-710.5 748,-710.5 742,-710.5 736,-704.5 736,-698.5 736,-698.5 736,-676.5 736,-676.5 736,-670.5 742,-664.5 748,-664.5"/>
<text text-anchor="middle" x="776" y="-695.3" font-family="Times,serif" font-size="14.00">KeyWord</text>
<polyline fill="none" stroke="#ffe9c7" points="736,-687.5 816,-687.5 "/>
<text text-anchor="middle" x="776" y="-672.3" font-family="Times,serif" font-size="14.00">,</text>
</g>
<!-- node_0x5040000007d0&#45;&gt;node_0x504000000dd0 -->
<g id="edge3" class="edge">
<title>node_0x5040000007d0&#45;&gt;node_0x504000000dd0</title>
<path fill="none" stroke="#9acd32" d="M847.95,-747.37C836.49,-737.99 822.99,-726.95 810.81,-716.98"/>
<polygon fill="#9acd32" stroke="#9acd32" points="812.98,-714.23 803.02,-710.61 808.54,-719.65 812.98,-714.23"/>
</g>
<!-- node_0x504000000ed0 -->
<g id="node31" class="node">
<title>node_0x504000000ed0</title>
<path fill="#9966ff" stroke="#ffe9c7" d="M947,-664.5C947,-664.5 1003,-664.5 1003,-664.5 1009,-664.5 1015,-670.5 1015,-676.5 1015,-676.5 1015,-698.5 1015,-698.5 1015,-704.5 1009,-710.5 1003,-710.5 1003,-710.5 947,-710.5 947,-710.5 941,-710.5 935,-704.5 935,-698.5 935,-698.5 935,-676.5 935,-676.5 935,-670.5 941,-664.5 947,-664.5"/>
<text text-anchor="middle" x="975" y="-695.3" font-family="Times,serif" font-size="14.00">KeyWord</text>
<polyline fill="none" stroke="#ffe9c7" points="935,-687.5 1015,-687.5 "/>
<text text-anchor="middle" x="975" y="-672.3" font-family="Times,serif" font-size="14.00">;</text>
</g>
<!-- node_0x5040000007d0&#45;&gt;node_0x504000000ed0 -->
<g id="edge30" class="edge">
<title>node_0x5040000007d0&#45;&gt;node_0x504000000ed0</title>
<path fill="none" stroke="#ff2b00" d="M902.33,-747.37C913.9,-737.99 927.53,-726.95 939.84,-716.98"/>
<polygon fill="#ff2b00" stroke="#ff2b00" points="942.14,-719.62 947.71,-710.61 937.73,-714.18 942.14,-719.62"/>
</g>
<!-- node_0x504000000cd0 -->
<g id="node5" class="node">
<title>node_0x504000000cd0</title>
<path fill="#9966ff" stroke="#ffe9c7" d="M601,-581.5C601,-581.5 657,-581.5 657,-581.5 663,-581.5 669,-587.5 669,-593.5 669,-593.5 669,-615.5 669,-615.5 669,-621.5 663,-627.5 657,-627.5 657,-627.5 601,-627.5 601,-627.5 595,-627.5 589,-621.5 589,-615.5 589,-615.5 589,-593.5 589,-593.5 589,-587.5 595,-581.5 601,-581.5"/>
<text text-anchor="middle" x="629" y="-612.3" font-family="Times,serif" font-size="14.00">KeyWord</text>
<polyline fill="none" stroke="#ffe9c7" points="589,-604.5 669,-604.5 "/>
<text text-anchor="middle" x="629" y="-589.3" font-family="Times,serif" font-size="14.00">,</text>
</g>
<!-- node_0x504000000dd0&#45;&gt;node_0x504000000cd0 -->
<g id="edge4" class="edge">
<title>node_0x504000000dd0&#45;&gt;node_0x504000000cd0</title>
<path fill="none" stroke="#9acd32" d="M735.83,-664.37C718.01,-654.54 696.86,-642.89 678.11,-632.56"/>
<polygon fill="#9acd32" stroke="#9acd32" points="679.57,-629.37 669.12,-627.61 676.19,-635.5 679.57,-629.37"/>
</g>
<!-- node_0x504000000e90 -->
<g id="node28" class="node">
<title>node_0x504000000e90</title>
<path fill="#08c41e" stroke="#ffe9c7" d="M749.5,-581.5C749.5,-581.5 802.5,-581.5 802.5,-581.5 808.5,-581.5 814.5,-587.5 814.5,-593.5 814.5,-593.5 814.5,-615.5 814.5,-615.5 814.5,-621.5 808.5,-627.5 802.5,-627.5 802.5,-627.5 749.5,-627.5 749.5,-627.5 743.5,-627.5 737.5,-621.5 737.5,-615.5 737.5,-615.5 737.5,-593.5 737.5,-593.5 737.5,-587.5 743.5,-581.5 749.5,-581.5"/>
<text text-anchor="middle" x="776" y="-612.3" font-family="Times,serif" font-size="14.00">Var Decl</text>
<polyline fill="none" stroke="#ffe9c7" points="737.5,-604.5 814.5,-604.5 "/>
<text text-anchor="middle" x="776" y="-589.3" font-family="Times,serif" font-size="14.00">7</text>
</g>
<!-- node_0x504000000dd0&#45;&gt;node_0x504000000e90 -->
<g id="edge27" class="edge">
<title>node_0x504000000dd0&#45;&gt;node_0x504000000e90</title>
<path fill="none" stroke="#ff2b00" d="M776,-664.37C776,-656.15 776,-646.66 776,-637.73"/>
<polygon fill="#ff2b00" stroke="#ff2b00" points="779.5,-637.61 776,-627.61 772.5,-637.61 779.5,-637.61"/>
</g>
<!-- node_0x504000000bd0 -->
<g id="node6" class="node">
<title>node_0x504000000bd0</title>
<path fill="#9966ff" stroke="#ffe9c7" d="M503,-498.5C503,-498.5 559,-498.5 559,-498.5 565,-498.5 571,-504.5 571,-510.5 571,-510.5 571,-532.5 571,-532.5 571,-538.5 565,-544.5 559,-544.5 559,-544.5 503,-544.5 503,-544.5 497,-544.5 491,-538.5 491,-532.5 491,-532.5 491,-510.5 491,-510.5 491,-504.5 497,-498.5 503,-498.5"/>
<text text-anchor="middle" x="531" y="-529.3" font-family="Times,serif" font-size="14.00">KeyWord</text>
<polyline fill="none" stroke="#ffe9c7" points="491,-521.5 571,-521.5 "/>
<text text-anchor="middle" x="531" y="-506.3" font-family="Times,serif" font-size="14.00">,</text>
</g>
<!-- node_0x504000000cd0&#45;&gt;node_0x504000000bd0 -->
<g id="edge5" class="edge">
<title>node_0x504000000cd0&#45;&gt;node_0x504000000bd0</title>
<path fill="none" stroke="#9acd32" d="M602.22,-581.37C590.99,-572.08 577.77,-561.16 565.8,-551.26"/>
<polygon fill="#9acd32" stroke="#9acd32" points="567.68,-548.28 557.75,-544.61 563.22,-553.68 567.68,-548.28"/>
</g>
<!-- node_0x504000000d90 -->
<g id="node25" class="node">
<title>node_0x504000000d90</title>
<path fill="#08c41e" stroke="#ffe9c7" d="M602.5,-498.5C602.5,-498.5 655.5,-498.5 655.5,-498.5 661.5,-498.5 667.5,-504.5 667.5,-510.5 667.5,-510.5 667.5,-532.5 667.5,-532.5 667.5,-538.5 661.5,-544.5 655.5,-544.5 655.5,-544.5 602.5,-544.5 602.5,-544.5 596.5,-544.5 590.5,-538.5 590.5,-532.5 590.5,-532.5 590.5,-510.5 590.5,-510.5 590.5,-504.5 596.5,-498.5 602.5,-498.5"/>
<text text-anchor="middle" x="629" y="-529.3" font-family="Times,serif" font-size="14.00">Var Decl</text>
<polyline fill="none" stroke="#ffe9c7" points="590.5,-521.5 667.5,-521.5 "/>
<text text-anchor="middle" x="629" y="-506.3" font-family="Times,serif" font-size="14.00">6</text>
</g>
<!-- node_0x504000000cd0&#45;&gt;node_0x504000000d90 -->
<g id="edge24" class="edge">
<title>node_0x504000000cd0&#45;&gt;node_0x504000000d90</title>
<path fill="none" stroke="#ff2b00" d="M629,-581.37C629,-573.15 629,-563.66 629,-554.73"/>
<polygon fill="#ff2b00" stroke="#ff2b00" points="632.5,-554.61 629,-544.61 625.5,-554.61 632.5,-554.61"/>
</g>
<!-- node_0x504000000ad0 -->
<g id="node7" class="node">
<title>node_0x504000000ad0</title>
<path fill="#9966ff" stroke="#ffe9c7" d="M406,-415.5C406,-415.5 462,-415.5 462,-415.5 468,-415.5 474,-421.5 474,-427.5 474,-427.5 474,-449.5 474,-449.5 474,-455.5 468,-461.5 462,-461.5 462,-461.5 406,-461.5 406,-461.5 400,-461.5 394,-455.5 394,-449.5 394,-449.5 394,-427.5 394,-427.5 394,-421.5 400,-415.5 406,-415.5"/>
<text text-anchor="middle" x="434" y="-446.3" font-family="Times,serif" font-size="14.00">KeyWord</text>
<polyline fill="none" stroke="#ffe9c7" points="394,-438.5 474,-438.5 "/>
<text text-anchor="middle" x="434" y="-423.3" font-family="Times,serif" font-size="14.00">,</text>
</g>
<!-- node_0x504000000bd0&#45;&gt;node_0x504000000ad0 -->
<g id="edge6" class="edge">
<title>node_0x504000000bd0&#45;&gt;node_0x504000000ad0</title>
<path fill="none" stroke="#9acd32" d="M504.49,-498.37C493.37,-489.08 480.3,-478.16 468.44,-468.26"/>
<polygon fill="#9acd32" stroke="#9acd32" points="470.39,-465.33 460.47,-461.61 465.91,-470.7 470.39,-465.33"/>
</g>
<!-- node_0x504000000c90 -->
<g id="node22" class="node">
<title>node_0x504000000c90</title>
<path fill="#08c41e" stroke="#ffe9c7" d="M504.5,-415.5C504.5,-415.5 557.5,-415.5 557.5,-415.5 563.5,-415.5 569.5,-421.5 569.5,-427.5 569.5,-427.5 569.5,-449.5 569.5,-449.5 569.5,-455.5 563.5,-461.5 557.5,-461.5 557.5,-461.5 504.5,-461.5 504.5,-461.5 498.5,-461.5 492.5,-455.5 492.5,-449.5 492.5,-449.5 492.5,-427.5 492.5,-427.5 492.5,-421.5 498.5,-415.5 504.5,-415.5"/>
<text text-anchor="middle" x="531" y="-446.3" font-family="Times,serif" font-size="14.00">Var Decl</text>
<polyline fill="none" stroke="#ffe9c7" points="492.5,-438.5 569.5,-438.5 "/>
<text text-anchor="middle" x="531" y="-423.3" font-family="Times,serif" font-size="14.00">5</text>
</g>
<!-- node_0x504000000bd0&#45;&gt;node_0x504000000c90 -->
<g id="edge21" class="edge">
<title>node_0x504000000bd0&#45;&gt;node_0x504000000c90</title>
<path fill="none" stroke="#ff2b00" d="M531,-498.37C531,-490.15 531,-480.66 531,-471.73"/>
<polygon fill="#ff2b00" stroke="#ff2b00" points="534.5,-471.61 531,-461.61 527.5,-471.61 534.5,-471.61"/>
</g>
<!-- node_0x5040000009d0 -->
<g id="node8" class="node">
<title>node_0x5040000009d0</title>
<path fill="#9966ff" stroke="#ffe9c7" d="M309,-332.5C309,-332.5 365,-332.5 365,-332.5 371,-332.5 377,-338.5 377,-344.5 377,-344.5 377,-366.5 377,-366.5 377,-372.5 371,-378.5 365,-378.5 365,-378.5 309,-378.5 309,-378.5 303,-378.5 297,-372.5 297,-366.5 297,-366.5 297,-344.5 297,-344.5 297,-338.5 303,-332.5 309,-332.5"/>
<text text-anchor="middle" x="337" y="-363.3" font-family="Times,serif" font-size="14.00">KeyWord</text>
<polyline fill="none" stroke="#ffe9c7" points="297,-355.5 377,-355.5 "/>
<text text-anchor="middle" x="337" y="-340.3" font-family="Times,serif" font-size="14.00">,</text>
</g>
<!-- node_0x504000000ad0&#45;&gt;node_0x5040000009d0 -->
<g id="edge7" class="edge">
<title>node_0x504000000ad0&#45;&gt;node_0x5040000009d0</title>
<path fill="none" stroke="#9acd32" d="M407.49,-415.37C396.37,-406.08 383.3,-395.16 371.44,-385.26"/>
<polygon fill="#9acd32" stroke="#9acd32" points="373.39,-382.33 363.47,-378.61 368.91,-387.7 373.39,-382.33"/>
</g>
<!-- node_0x504000000b90 -->
<g id="node19" class="node">
<title>node_0x504000000b90</title>
<path fill="#08c41e" stroke="#ffe9c7" d="M407.5,-332.5C407.5,-332.5 460.5,-332.5 460.5,-332.5 466.5,-332.5 472.5,-338.5 472.5,-344.5 472.5,-344.5 472.5,-366.5 472.5,-366.5 472.5,-372.5 466.5,-378.5 460.5,-378.5 460.5,-378.5 407.5,-378.5 407.5,-378.5 401.5,-378.5 395.5,-372.5 395.5,-366.5 395.5,-366.5 395.5,-344.5 395.5,-344.5 395.5,-338.5 401.5,-332.5 407.5,-332.5"/>
<text text-anchor="middle" x="434" y="-363.3" font-family="Times,serif" font-size="14.00">Var Decl</text>
<polyline fill="none" stroke="#ffe9c7" points="395.5,-355.5 472.5,-355.5 "/>
<text text-anchor="middle" x="434" y="-340.3" font-family="Times,serif" font-size="14.00">4</text>
</g>
<!-- node_0x504000000ad0&#45;&gt;node_0x504000000b90 -->
<g id="edge18" class="edge">
<title>node_0x504000000ad0&#45;&gt;node_0x504000000b90</title>
<path fill="none" stroke="#ff2b00" d="M434,-415.37C434,-407.15 434,-397.66 434,-388.73"/>
<polygon fill="#ff2b00" stroke="#ff2b00" points="437.5,-388.61 434,-378.61 430.5,-388.61 437.5,-388.61"/>
</g>
<!-- node_0x5040000008d0 -->
<g id="node9" class="node">
<title>node_0x5040000008d0</title>
<path fill="#9966ff" stroke="#ffe9c7" d="M212,-249.5C212,-249.5 268,-249.5 268,-249.5 274,-249.5 280,-255.5 280,-261.5 280,-261.5 280,-283.5 280,-283.5 280,-289.5 274,-295.5 268,-295.5 268,-295.5 212,-295.5 212,-295.5 206,-295.5 200,-289.5 200,-283.5 200,-283.5 200,-261.5 200,-261.5 200,-255.5 206,-249.5 212,-249.5"/>
<text text-anchor="middle" x="240" y="-280.3" font-family="Times,serif" font-size="14.00">KeyWord</text>
<polyline fill="none" stroke="#ffe9c7" points="200,-272.5 280,-272.5 "/>
<text text-anchor="middle" x="240" y="-257.3" font-family="Times,serif" font-size="14.00">,</text>
</g>
<!-- node_0x5040000009d0&#45;&gt;node_0x5040000008d0 -->
<g id="edge8" class="edge">
<title>node_0x5040000009d0&#45;&gt;node_0x5040000008d0</title>
<path fill="none" stroke="#9acd32" d="M310.49,-332.37C299.37,-323.08 286.3,-312.16 274.44,-302.26"/>
<polygon fill="#9acd32" stroke="#9acd32" points="276.39,-299.33 266.47,-295.61 271.91,-304.7 276.39,-299.33"/>
</g>
<!-- node_0x504000000a90 -->
<g id="node16" class="node">
<title>node_0x504000000a90</title>
<path fill="#08c41e" stroke="#ffe9c7" d="M310.5,-249.5C310.5,-249.5 363.5,-249.5 363.5,-249.5 369.5,-249.5 375.5,-255.5 375.5,-261.5 375.5,-261.5 375.5,-283.5 375.5,-283.5 375.5,-289.5 369.5,-295.5 363.5,-295.5 363.5,-295.5 310.5,-295.5 310.5,-295.5 304.5,-295.5 298.5,-289.5 298.5,-283.5 298.5,-283.5 298.5,-261.5 298.5,-261.5 298.5,-255.5 304.5,-249.5 310.5,-249.5"/>
<text text-anchor="middle" x="337" y="-280.3" font-family="Times,serif" font-size="14.00">Var Decl</text>
<polyline fill="none" stroke="#ffe9c7" points="298.5,-272.5 375.5,-272.5 "/>
<text text-anchor="middle" x="337" y="-257.3" font-family="Times,serif" font-size="14.00">3</text>
</g>
<!-- node_0x5040000009d0&#45;&gt;node_0x504000000a90 -->
<g id="edge15" class="edge">
<title>node_0x5040000009d0&#45;&gt;node_0x504000000a90</title>
<path fill="none" stroke="#ff2b00" d="M337,-332.37C337,-324.15 337,-314.66 337,-305.73"/>
<polygon fill="#ff2b00" stroke="#ff2b00" points="340.5,-305.61 337,-295.61 333.5,-305.61 340.5,-305.61"/>
</g>
<!-- node_0x504000000890 -->
<g id="node10" class="node">
<title>node_0x504000000890</title>
<path fill="#08c41e" stroke="#ffe9c7" d="M113.5,-166.5C113.5,-166.5 166.5,-166.5 166.5,-166.5 172.5,-166.5 178.5,-172.5 178.5,-178.5 178.5,-178.5 178.5,-200.5 178.5,-200.5 178.5,-206.5 172.5,-212.5 166.5,-212.5 166.5,-212.5 113.5,-212.5 113.5,-212.5 107.5,-212.5 101.5,-206.5 101.5,-200.5 101.5,-200.5 101.5,-178.5 101.5,-178.5 101.5,-172.5 107.5,-166.5 113.5,-166.5"/>
<text text-anchor="middle" x="140" y="-197.3" font-family="Times,serif" font-size="14.00">Var Decl</text>
<polyline fill="none" stroke="#ffe9c7" points="101.5,-189.5 178.5,-189.5 "/>
<text text-anchor="middle" x="140" y="-174.3" font-family="Times,serif" font-size="14.00">1</text>
</g>
<!-- node_0x5040000008d0&#45;&gt;node_0x504000000890 -->
<g id="edge9" class="edge">
<title>node_0x5040000008d0&#45;&gt;node_0x504000000890</title>
<path fill="none" stroke="#9acd32" d="M212.67,-249.37C201.1,-239.99 187.47,-228.95 175.16,-218.98"/>
<polygon fill="#9acd32" stroke="#9acd32" points="177.27,-216.18 167.29,-212.61 172.86,-221.62 177.27,-216.18"/>
</g>
<!-- node_0x504000000990 -->
<g id="node13" class="node">
<title>node_0x504000000990</title>
<path fill="#08c41e" stroke="#ffe9c7" d="M213.5,-166.5C213.5,-166.5 266.5,-166.5 266.5,-166.5 272.5,-166.5 278.5,-172.5 278.5,-178.5 278.5,-178.5 278.5,-200.5 278.5,-200.5 278.5,-206.5 272.5,-212.5 266.5,-212.5 266.5,-212.5 213.5,-212.5 213.5,-212.5 207.5,-212.5 201.5,-206.5 201.5,-200.5 201.5,-200.5 201.5,-178.5 201.5,-178.5 201.5,-172.5 207.5,-166.5 213.5,-166.5"/>
<text text-anchor="middle" x="240" y="-197.3" font-family="Times,serif" font-size="14.00">Var Decl</text>
<polyline fill="none" stroke="#ffe9c7" points="201.5,-189.5 278.5,-189.5 "/>
<text text-anchor="middle" x="240" y="-174.3" font-family="Times,serif" font-size="14.00">2</text>
</g>
<!-- node_0x5040000008d0&#45;&gt;node_0x504000000990 -->
<g id="edge12" class="edge">
<title>node_0x5040000008d0&#45;&gt;node_0x504000000990</title>
<path fill="none" stroke="#ff2b00" d="M240,-249.37C240,-241.15 240,-231.66 240,-222.73"/>
<polygon fill="#ff2b00" stroke="#ff2b00" points="243.5,-222.61 240,-212.61 236.5,-222.61 243.5,-222.61"/>
</g>
<!-- node_0x504000000810 -->
<g id="node11" class="node">
<title>node_0x504000000810</title>
<path fill="#9966ff" stroke="#ffe9c7" d="M12,-83.5C12,-83.5 68,-83.5 68,-83.5 74,-83.5 80,-89.5 80,-95.5 80,-95.5 80,-117.5 80,-117.5 80,-123.5 74,-129.5 68,-129.5 68,-129.5 12,-129.5 12,-129.5 6,-129.5 0,-123.5 0,-117.5 0,-117.5 0,-95.5 0,-95.5 0,-89.5 6,-83.5 12,-83.5"/>
<text text-anchor="middle" x="40" y="-114.3" font-family="Times,serif" font-size="14.00">KeyWord</text>
<polyline fill="none" stroke="#ffe9c7" points="0,-106.5 80,-106.5 "/>
<text text-anchor="middle" x="40" y="-91.3" font-family="Times,serif" font-size="14.00">int</text>
</g>
<!-- node_0x504000000890&#45;&gt;node_0x504000000810 -->
<g id="edge10" class="edge">
<title>node_0x504000000890&#45;&gt;node_0x504000000810</title>
<path fill="none" stroke="#9acd32" d="M112.67,-166.37C101.1,-156.99 87.47,-145.95 75.16,-135.98"/>
<polygon fill="#9acd32" stroke="#9acd32" points="77.27,-133.18 67.29,-129.61 72.86,-138.62 77.27,-133.18"/>
</g>
<!-- node_0x504000000850 -->
<g id="node12" class="node">
<title>node_0x504000000850</title>
<path fill="#ff6699" stroke="#ffe9c7" d="M110.5,-83.5C110.5,-83.5 169.5,-83.5 169.5,-83.5 175.5,-83.5 181.5,-89.5 181.5,-95.5 181.5,-95.5 181.5,-117.5 181.5,-117.5 181.5,-123.5 175.5,-129.5 169.5,-129.5 169.5,-129.5 110.5,-129.5 110.5,-129.5 104.5,-129.5 98.5,-123.5 98.5,-117.5 98.5,-117.5 98.5,-95.5 98.5,-95.5 98.5,-89.5 104.5,-83.5 110.5,-83.5"/>
<text text-anchor="middle" x="140" y="-114.3" font-family="Times,serif" font-size="14.00">Identifier</text>
<polyline fill="none" stroke="#ffe9c7" points="98.5,-106.5 181.5,-106.5 "/>
<text text-anchor="middle" x="140" y="-91.3" font-family="Times,serif" font-size="14.00">1</text>
</g>
<!-- node_0x504000000890&#45;&gt;node_0x504000000850 -->
<g id="edge11" class="edge">
<title>node_0x504000000890&#45;&gt;node_0x504000000850</title>
<path fill="none" stroke="#ff2b00" d="M140,-166.37C140,-158.15 140,-148.66 140,-139.73"/>
<polygon fill="#ff2b00" stroke="#ff2b00" points="143.5,-139.61 140,-129.61 136.5,-139.61 143.5,-139.61"/>
</g>
<!-- node_0x504000000910 -->
<g id="node14" class="node">
<title>node_0x504000000910</title>
<path fill="#9966ff" stroke="#ffe9c7" d="M212,-83.5C212,-83.5 268,-83.5 268,-83.5 274,-83.5 280,-89.5 280,-95.5 280,-95.5 280,-117.5 280,-117.5 280,-123.5 274,-129.5 268,-129.5 268,-129.5 212,-129.5 212,-129.5 206,-129.5 200,-123.5 200,-117.5 200,-117.5 200,-95.5 200,-95.5 200,-89.5 206,-83.5 212,-83.5"/>
<text text-anchor="middle" x="240" y="-114.3" font-family="Times,serif" font-size="14.00">KeyWord</text>
<polyline fill="none" stroke="#ffe9c7" points="200,-106.5 280,-106.5 "/>
<text text-anchor="middle" x="240" y="-91.3" font-family="Times,serif" font-size="14.00">int</text>
</g>
<!-- node_0x504000000990&#45;&gt;node_0x504000000910 -->
<g id="edge13" class="edge">
<title>node_0x504000000990&#45;&gt;node_0x504000000910</title>
<path fill="none" stroke="#9acd32" d="M240,-166.37C240,-158.15 240,-148.66 240,-139.73"/>
<polygon fill="#9acd32" stroke="#9acd32" points="243.5,-139.61 240,-129.61 236.5,-139.61 243.5,-139.61"/>
</g>
<!-- node_0x504000000950 -->
<g id="node15" class="node">
<title>node_0x504000000950</title>
<path fill="#ff6699" stroke="#ffe9c7" d="M310.5,-83.5C310.5,-83.5 369.5,-83.5 369.5,-83.5 375.5,-83.5 381.5,-89.5 381.5,-95.5 381.5,-95.5 381.5,-117.5 381.5,-117.5 381.5,-123.5 375.5,-129.5 369.5,-129.5 369.5,-129.5 310.5,-129.5 310.5,-129.5 304.5,-129.5 298.5,-123.5 298.5,-117.5 298.5,-117.5 298.5,-95.5 298.5,-95.5 298.5,-89.5 304.5,-83.5 310.5,-83.5"/>
<text text-anchor="middle" x="340" y="-114.3" font-family="Times,serif" font-size="14.00">Identifier</text>
<polyline fill="none" stroke="#ffe9c7" points="298.5,-106.5 381.5,-106.5 "/>
<text text-anchor="middle" x="340" y="-91.3" font-family="Times,serif" font-size="14.00">2</text>
</g>
<!-- node_0x504000000990&#45;&gt;node_0x504000000950 -->
<g id="edge14" class="edge">
<title>node_0x504000000990&#45;&gt;node_0x504000000950</title>
<path fill="none" stroke="#ff2b00" d="M267.33,-166.37C278.9,-156.99 292.53,-145.95 304.84,-135.98"/>
<polygon fill="#ff2b00" stroke="#ff2b00" points="307.14,-138.62 312.71,-129.61 302.73,-133.18 307.14,-138.62"/>
</g>
<!-- node_0x504000000a10 -->
<g id="node17" class="node">
<title>node_0x504000000a10</title>
<path fill="#9966ff" stroke="#ffe9c7" d="M309,-166.5C309,-166.5 365,-166.5 365,-166.5 371,-166.5 377,-172.5 377,-178.5 377,-178.5 377,-200.5 377,-200.5 377,-206.5 371,-212.5 365,-212.5 365,-212.5 309,-212.5 309,-212.5 303,-212.5 297,-206.5 297,-200.5 297,-200.5 297,-178.5 297,-178.5 297,-172.5 303,-166.5 309,-166.5"/>
<text text-anchor="middle" x="337" y="-197.3" font-family="Times,serif" font-size="14.00">KeyWord</text>
<polyline fill="none" stroke="#ffe9c7" points="297,-189.5 377,-189.5 "/>
<text text-anchor="middle" x="337" y="-174.3" font-family="Times,serif" font-size="14.00">int</text>
</g>
<!-- node_0x504000000a90&#45;&gt;node_0x504000000a10 -->
<g id="edge16" class="edge">
<title>node_0x504000000a90&#45;&gt;node_0x504000000a10</title>
<path fill="none" stroke="#9acd32" d="M337,-249.37C337,-241.15 337,-231.66 337,-222.73"/>
<polygon fill="#9acd32" stroke="#9acd32" points="340.5,-222.61 337,-212.61 333.5,-222.61 340.5,-222.61"/>
</g>
<!-- node_0x504000000a50 -->
<g id="node18" class="node">
<title>node_0x504000000a50</title>
<path fill="#ff6699" stroke="#ffe9c7" d="M407.5,-166.5C407.5,-166.5 466.5,-166.5 466.5,-166.5 472.5,-166.5 478.5,-172.5 478.5,-178.5 478.5,-178.5 478.5,-200.5 478.5,-200.5 478.5,-206.5 472.5,-212.5 466.5,-212.5 466.5,-212.5 407.5,-212.5 407.5,-212.5 401.5,-212.5 395.5,-206.5 395.5,-200.5 395.5,-200.5 395.5,-178.5 395.5,-178.5 395.5,-172.5 401.5,-166.5 407.5,-166.5"/>
<text text-anchor="middle" x="437" y="-197.3" font-family="Times,serif" font-size="14.00">Identifier</text>
<polyline fill="none" stroke="#ffe9c7" points="395.5,-189.5 478.5,-189.5 "/>
<text text-anchor="middle" x="437" y="-174.3" font-family="Times,serif" font-size="14.00">3</text>
</g>
<!-- node_0x504000000a90&#45;&gt;node_0x504000000a50 -->
<g id="edge17" class="edge">
<title>node_0x504000000a90&#45;&gt;node_0x504000000a50</title>
<path fill="none" stroke="#ff2b00" d="M364.33,-249.37C375.9,-239.99 389.53,-228.95 401.84,-218.98"/>
<polygon fill="#ff2b00" stroke="#ff2b00" points="404.14,-221.62 409.71,-212.61 399.73,-216.18 404.14,-221.62"/>
</g>
<!-- node_0x504000000b10 -->
<g id="node20" class="node">
<title>node_0x504000000b10</title>
<path fill="#9966ff" stroke="#ffe9c7" d="M406,-249.5C406,-249.5 462,-249.5 462,-249.5 468,-249.5 474,-255.5 474,-261.5 474,-261.5 474,-283.5 474,-283.5 474,-289.5 468,-295.5 462,-295.5 462,-295.5 406,-295.5 406,-295.5 400,-295.5 394,-289.5 394,-283.5 394,-283.5 394,-261.5 394,-261.5 394,-255.5 400,-249.5 406,-249.5"/>
<text text-anchor="middle" x="434" y="-280.3" font-family="Times,serif" font-size="14.00">KeyWord</text>
<polyline fill="none" stroke="#ffe9c7" points="394,-272.5 474,-272.5 "/>
<text text-anchor="middle" x="434" y="-257.3" font-family="Times,serif" font-size="14.00">int</text>
</g>
<!-- node_0x504000000b90&#45;&gt;node_0x504000000b10 -->
<g id="edge19" class="edge">
<title>node_0x504000000b90&#45;&gt;node_0x504000000b10</title>
<path fill="none" stroke="#9acd32" d="M434,-332.37C434,-324.15 434,-314.66 434,-305.73"/>
<polygon fill="#9acd32" stroke="#9acd32" points="437.5,-305.61 434,-295.61 430.5,-305.61 437.5,-305.61"/>
</g>
<!-- node_0x504000000b50 -->
<g id="node21" class="node">
<title>node_0x504000000b50</title>
<path fill="#ff6699" stroke="#ffe9c7" d="M504.5,-249.5C504.5,-249.5 563.5,-249.5 563.5,-249.5 569.5,-249.5 575.5,-255.5 575.5,-261.5 575.5,-261.5 575.5,-283.5 575.5,-283.5 575.5,-289.5 569.5,-295.5 563.5,-295.5 563.5,-295.5 504.5,-295.5 504.5,-295.5 498.5,-295.5 492.5,-289.5 492.5,-283.5 492.5,-283.5 492.5,-261.5 492.5,-261.5 492.5,-255.5 498.5,-249.5 504.5,-249.5"/>
<text text-anchor="middle" x="534" y="-280.3" font-family="Times,serif" font-size="14.00">Identifier</text>
<polyline fill="none" stroke="#ffe9c7" points="492.5,-272.5 575.5,-272.5 "/>
<text text-anchor="middle" x="534" y="-257.3" font-family="Times,serif" font-size="14.00">4</text>
</g>
<!-- node_0x504000000b90&#45;&gt;node_0x504000000b50 -->
<g id="edge20" class="edge">
<title>node_0x504000000b90&#45;&gt;node_0x504000000b50</title>
<path fill="none" stroke="#ff2b00" d="M461.33,-332.37C472.9,-322.99 486.53,-311.95 498.84,-301.98"/>
<polygon fill="#ff2b00" stroke="#ff2b00" points="501.14,-304.62 506.71,-295.61 496.73,-299.18 501.14,-304.62"/>
</g>
<!-- node_0x504000000c10 -->
<g id="node23" class="node">
<title>node_0x504000000c10</title>
<path fill="#9966ff" stroke="#ffe9c7" d="M503,-332.5C503,-332.5 559,-332.5 559,-332.5 565,-332.5 571,-338.5 571,-344.5 571,-344.5 571,-366.5 571,-366.5 571,-372.5 565,-378.5 559,-378.5 559,-378.5 503,-378.5 503,-378.5 497,-378.5 491,-372.5 491,-366.5 491,-366.5 491,-344.5 491,-344.5 491,-338.5 497,-332.5 503,-332.5"/>
<text text-anchor="middle" x="531" y="-363.3" font-family="Times,serif" font-size="14.00">KeyWord</text>
<polyline fill="none" stroke="#ffe9c7" points="491,-355.5 571,-355.5 "/>
<text text-anchor="middle" x="531" y="-340.3" font-family="Times,serif" font-size="14.00">int</text>
</g>
<!-- node_0x504000000c90&#45;&gt;node_0x504000000c10 -->
<g id="edge22" class="edge">
<title>node_0x504000000c90&#45;&gt;node_0x504000000c10</title>
<path fill="none" stroke="#9acd32" d="M531,-415.37C531,-407.15 531,-397.66 531,-388.73"/>
<polygon fill="#9acd32" stroke="#9acd32" points="534.5,-388.61 531,-378.61 527.5,-388.61 534.5,-388.61"/>
</g>
<!-- node_0x504000000c50 -->
<g id="node24" class="node">
<title>node_0x504000000c50</title>
<path fill="#ff6699" stroke="#ffe9c7" d="M601.5,-332.5C601.5,-332.5 660.5,-332.5 660.5,-332.5 666.5,-332.5 672.5,-338.5 672.5,-344.5 672.5,-344.5 672.5,-366.5 672.5,-366.5 672.5,-372.5 666.5,-378.5 660.5,-378.5 660.5,-378.5 601.5,-378.5 601.5,-378.5 595.5,-378.5 589.5,-372.5 589.5,-366.5 589.5,-366.5 589.5,-344.5 589.5,-344.5 589.5,-338.5 595.5,-332.5 601.5,-332.5"/>
<text text-anchor="middle" x="631" y="-363.3" font-family="Times,serif" font-size="14.00">Identifier</text>
<polyline fill="none" stroke="#ffe9c7" points="589.5,-355.5 672.5,-355.5 "/>
<text text-anchor="middle" x="631" y="-340.3" font-family="Times,serif" font-size="14.00">5</text>
</g>
<!-- node_0x504000000c90&#45;&gt;node_0x504000000c50 -->
<g id="edge23" class="edge">
<title>node_0x504000000c90&#45;&gt;node_0x504000000c50</title>
<path fill="none" stroke="#ff2b00" d="M558.33,-415.37C569.9,-405.99 583.53,-394.95 595.84,-384.98"/>
<polygon fill="#ff2b00" stroke="#ff2b00" points="598.14,-387.62 603.71,-378.61 593.73,-382.18 598.14,-387.62"/>
</g>
<!-- node_0x504000000d10 -->
<g id="node26" class="node">
<title>node_0x504000000d10</title>
<path fill="#9966ff" stroke="#ffe9c7" d="M600,-415.5C600,-415.5 656,-415.5 656,-415.5 662,-415.5 668,-421.5 668,-427.5 668,-427.5 668,-449.5 668,-449.5 668,-455.5 662,-461.5 656,-461.5 656,-461.5 600,-461.5 600,-461.5 594,-461.5 588,-455.5 588,-449.5 588,-449.5 588,-427.5 588,-427.5 588,-421.5 594,-415.5 600,-415.5"/>
<text text-anchor="middle" x="628" y="-446.3" font-family="Times,serif" font-size="14.00">KeyWord</text>
<polyline fill="none" stroke="#ffe9c7" points="588,-438.5 668,-438.5 "/>
<text text-anchor="middle" x="628" y="-423.3" font-family="Times,serif" font-size="14.00">int</text>
</g>
<!-- node_0x504000000d90&#45;&gt;node_0x504000000d10 -->
<g id="edge25" class="edge">
<title>node_0x504000000d90&#45;&gt;node_0x504000000d10</title>
<path fill="none" stroke="#9acd32" d="M628.73,-498.37C628.63,-490.15 628.51,-480.66 628.4,-471.73"/>
<polygon fill="#9acd32" stroke="#9acd32" points="631.9,-471.56 628.27,-461.61 624.9,-471.65 631.9,-471.56"/>
</g>
<!-- node_0x504000000d50 -->
<g id="node27" class="node">
<title>node_0x504000000d50</title>
<path fill="#ff6699" stroke="#ffe9c7" d="M698.5,-415.5C698.5,-415.5 757.5,-415.5 757.5,-415.5 763.5,-415.5 769.5,-421.5 769.5,-427.5 769.5,-427.5 769.5,-449.5 769.5,-449.5 769.5,-455.5 763.5,-461.5 757.5,-461.5 757.5,-461.5 698.5,-461.5 698.5,-461.5 692.5,-461.5 686.5,-455.5 686.5,-449.5 686.5,-449.5 686.5,-427.5 686.5,-427.5 686.5,-421.5 692.5,-415.5 698.5,-415.5"/>
<text text-anchor="middle" x="728" y="-446.3" font-family="Times,serif" font-size="14.00">Identifier</text>
<polyline fill="none" stroke="#ffe9c7" points="686.5,-438.5 769.5,-438.5 "/>
<text text-anchor="middle" x="728" y="-423.3" font-family="Times,serif" font-size="14.00">6</text>
</g>
<!-- node_0x504000000d90&#45;&gt;node_0x504000000d50 -->
<g id="edge26" class="edge">
<title>node_0x504000000d90&#45;&gt;node_0x504000000d50</title>
<path fill="none" stroke="#ff2b00" d="M656.05,-498.37C667.51,-488.99 681.01,-477.95 693.19,-467.98"/>
<polygon fill="#ff2b00" stroke="#ff2b00" points="695.46,-470.65 700.98,-461.61 691.02,-465.23 695.46,-470.65"/>
</g>
<!-- node_0x504000000e10 -->
<g id="node29" class="node">
<title>node_0x504000000e10</title>
<path fill="#9966ff" stroke="#ffe9c7" d="M699,-498.5C699,-498.5 755,-498.5 755,-498.5 761,-498.5 767,-504.5 767,-510.5 767,-510.5 767,-532.5 767,-532.5 767,-538.5 761,-544.5 755,-544.5 755,-544.5 699,-544.5 699,-544.5 693,-544.5 687,-538.5 687,-532.5 687,-532.5 687,-510.5 687,-510.5 687,-504.5 693,-498.5 699,-498.5"/>
<text text-anchor="middle" x="727" y="-529.3" font-family="Times,serif" font-size="14.00">KeyWord</text>
<polyline fill="none" stroke="#ffe9c7" points="687,-521.5 767,-521.5 "/>
<text text-anchor="middle" x="727" y="-506.3" font-family="Times,serif" font-size="14.00">int</text>
</g>
<!-- node_0x504000000e90&#45;&gt;node_0x504000000e10 -->
<g id="edge28" class="edge">
<title>node_0x504000000e90&#45;&gt;node_0x504000000e10</title>
<path fill="none" stroke="#9acd32" d="M762.61,-581.37C757.37,-572.71 751.27,-562.62 745.62,-553.27"/>
<polygon fill="#9acd32" stroke="#9acd32" points="748.54,-551.35 740.37,-544.61 742.55,-554.97 748.54,-551.35"/>
</g>
<!-- node_0x504000000e50 -->
<g id="node30" class="node">
<title>node_0x504000000e50</title>
<path fill="#ff6699" stroke="#ffe9c7" d="M797.5,-498.5C797.5,-498.5 856.5,-498.5 856.5,-498.5 862.5,-498.5 868.5,-504.5 868.5,-510.5 868.5,-510.5 868.5,-532.5 868.5,-532.5 868.5,-538.5 862.5,-544.5 856.5,-544.5 856.5,-544.5 797.5,-544.5 797.5,-544.5 791.5,-544.5 785.5,-538.5 785.5,-532.5 785.5,-532.5 785.5,-510.5 785.5,-510.5 785.5,-504.5 791.5,-498.5 797.5,-498.5"/>
<text text-anchor="middle" x="827" y="-529.3" font-family="Times,serif" font-size="14.00">Identifier</text>
<polyline fill="none" stroke="#ffe9c7" points="785.5,-521.5 868.5,-521.5 "/>
<text text-anchor="middle" x="827" y="-506.3" font-family="Times,serif" font-size="14.00">7</text>
</g>
<!-- node_0x504000000e90&#45;&gt;node_0x504000000e50 -->
<g id="edge29" class="edge">
<title>node_0x504000000e90&#45;&gt;node_0x504000000e50</title>
<path fill="none" stroke="#ff2b00" d="M789.94,-581.37C795.39,-572.71 801.74,-562.62 807.62,-553.27"/>
<polygon fill="#ff2b00" stroke="#ff2b00" points="810.71,-554.93 813.08,-544.61 804.79,-551.2 810.71,-554.93"/>
</g>
<!-- node_0x504000001050 -->
<g id="node32" class="node">
<title>node_0x504000001050</title>
<path fill="#9966ff" stroke="#ffe9c7" d="M947,-581.5C947,-581.5 1003,-581.5 1003,-581.5 1009,-581.5 1015,-587.5 1015,-593.5 1015,-593.5 1015,-615.5 1015,-615.5 1015,-621.5 1009,-627.5 1003,-627.5 1003,-627.5 947,-627.5 947,-627.5 941,-627.5 935,-621.5 935,-615.5 935,-615.5 935,-593.5 935,-593.5 935,-587.5 941,-581.5 947,-581.5"/>
<text text-anchor="middle" x="975" y="-612.3" font-family="Times,serif" font-size="14.00">KeyWord</text>
<polyline fill="none" stroke="#ffe9c7" points="935,-604.5 1015,-604.5 "/>
<text text-anchor="middle" x="975" y="-589.3" font-family="Times,serif" font-size="14.00">;</text>
</g>
<!-- node_0x504000000ed0&#45;&gt;node_0x504000001050 -->
<g id="edge31" class="edge">
<title>node_0x504000000ed0&#45;&gt;node_0x504000001050</title>
<path fill="none" stroke="#9acd32" d="M975,-664.37C975,-656.15 975,-646.66 975,-637.73"/>
<polygon fill="#9acd32" stroke="#9acd32" points="978.5,-637.61 975,-627.61 971.5,-637.61 978.5,-637.61"/>
</g>
<!-- node_0x504000001810 -->
<g id="node43" class="node">
<title>node_0x504000001810</title>
<path fill="#9966ff" stroke="#ffe9c7" d="M1323,-581.5C1323,-581.5 1379,-581.5 1379,-581.5 1385,-581.5 1391,-587.5 1391,-593.5 1391,-593.5 1391,-615.5 1391,-615.5 1391,-621.5 1385,-627.5 1379,-627.5 1379,-627.5 1323,-627.5 1323,-627.5 1317,-627.5 1311,-621.5 1311,-615.5 1311,-615.5 1311,-593.5 1311,-593.5 1311,-587.5 1317,-581.5 1323,-581.5"/>
<text text-anchor="middle" x="1351" y="-612.3" font-family="Times,serif" font-size="14.00">KeyWord</text>
<polyline fill="none" stroke="#ffe9c7" points="1311,-604.5 1391,-604.5 "/>
<text text-anchor="middle" x="1351" y="-589.3" font-family="Times,serif" font-size="14.00">;</text>
</g>
<!-- node_0x504000000ed0&#45;&gt;node_0x504000001810 -->
<g id="edge42" class="edge">
<title>node_0x504000000ed0&#45;&gt;node_0x504000001810</title>
<path fill="none" stroke="#ff2b00" d="M1015.24,-677.83C1084.27,-662.96 1225.09,-632.62 1300.57,-616.36"/>
<polygon fill="#ff2b00" stroke="#ff2b00" points="1301.73,-619.69 1310.77,-614.17 1300.25,-612.85 1301.73,-619.69"/>
</g>
<!-- node_0x504000000f90 -->
<g id="node33" class="node">
<title>node_0x504000000f90</title>
<path fill="#08c41e" stroke="#ffe9c7" d="M899.5,-498.5C899.5,-498.5 952.5,-498.5 952.5,-498.5 958.5,-498.5 964.5,-504.5 964.5,-510.5 964.5,-510.5 964.5,-532.5 964.5,-532.5 964.5,-538.5 958.5,-544.5 952.5,-544.5 952.5,-544.5 899.5,-544.5 899.5,-544.5 893.5,-544.5 887.5,-538.5 887.5,-532.5 887.5,-532.5 887.5,-510.5 887.5,-510.5 887.5,-504.5 893.5,-498.5 899.5,-498.5"/>
<text text-anchor="middle" x="926" y="-529.3" font-family="Times,serif" font-size="14.00">Var Decl</text>
<polyline fill="none" stroke="#ffe9c7" points="887.5,-521.5 964.5,-521.5 "/>
<text text-anchor="middle" x="926" y="-506.3" font-family="Times,serif" font-size="14.00">8</text>
</g>
<!-- node_0x504000001050&#45;&gt;node_0x504000000f90 -->
<g id="edge32" class="edge">
<title>node_0x504000001050&#45;&gt;node_0x504000000f90</title>
<path fill="none" stroke="#9acd32" d="M961.61,-581.37C956.37,-572.71 950.27,-562.62 944.62,-553.27"/>
<polygon fill="#9acd32" stroke="#9acd32" points="947.54,-551.35 939.37,-544.61 941.55,-554.97 947.54,-551.35"/>
</g>
<!-- node_0x504000001110 -->
<g id="node38" class="node">
<title>node_0x504000001110</title>
<path fill="#08c41e" stroke="#ffe9c7" d="M997.5,-498.5C997.5,-498.5 1050.5,-498.5 1050.5,-498.5 1056.5,-498.5 1062.5,-504.5 1062.5,-510.5 1062.5,-510.5 1062.5,-532.5 1062.5,-532.5 1062.5,-538.5 1056.5,-544.5 1050.5,-544.5 1050.5,-544.5 997.5,-544.5 997.5,-544.5 991.5,-544.5 985.5,-538.5 985.5,-532.5 985.5,-532.5 985.5,-510.5 985.5,-510.5 985.5,-504.5 991.5,-498.5 997.5,-498.5"/>
<text text-anchor="middle" x="1024" y="-529.3" font-family="Times,serif" font-size="14.00">Var Decl</text>
<polyline fill="none" stroke="#ffe9c7" points="985.5,-521.5 1062.5,-521.5 "/>
<text text-anchor="middle" x="1024" y="-506.3" font-family="Times,serif" font-size="14.00">9</text>
</g>
<!-- node_0x504000001050&#45;&gt;node_0x504000001110 -->
<g id="edge37" class="edge">
<title>node_0x504000001050&#45;&gt;node_0x504000001110</title>
<path fill="none" stroke="#ff2b00" d="M988.39,-581.37C993.63,-572.71 999.73,-562.62 1005.38,-553.27"/>
<polygon fill="#ff2b00" stroke="#ff2b00" points="1008.45,-554.97 1010.63,-544.61 1002.46,-551.35 1008.45,-554.97"/>
</g>
<!-- node_0x504000000f10 -->
<g id="node34" class="node">
<title>node_0x504000000f10</title>
<path fill="#9966ff" stroke="#ffe9c7" d="M800,-415.5C800,-415.5 856,-415.5 856,-415.5 862,-415.5 868,-421.5 868,-427.5 868,-427.5 868,-449.5 868,-449.5 868,-455.5 862,-461.5 856,-461.5 856,-461.5 800,-461.5 800,-461.5 794,-461.5 788,-455.5 788,-449.5 788,-449.5 788,-427.5 788,-427.5 788,-421.5 794,-415.5 800,-415.5"/>
<text text-anchor="middle" x="828" y="-446.3" font-family="Times,serif" font-size="14.00">KeyWord</text>
<polyline fill="none" stroke="#ffe9c7" points="788,-438.5 868,-438.5 "/>
<text text-anchor="middle" x="828" y="-423.3" font-family="Times,serif" font-size="14.00">int</text>
</g>
<!-- node_0x504000000f90&#45;&gt;node_0x504000000f10 -->
<g id="edge33" class="edge">
<title>node_0x504000000f90&#45;&gt;node_0x504000000f10</title>
<path fill="none" stroke="#9acd32" d="M899.22,-498.37C887.99,-489.08 874.77,-478.16 862.8,-468.26"/>
<polygon fill="#9acd32" stroke="#9acd32" points="864.68,-465.28 854.75,-461.61 860.22,-470.68 864.68,-465.28"/>
</g>
<!-- node_0x504000000fd0 -->
<g id="node35" class="node">
<title>node_0x504000000fd0</title>
<path fill="#9966ff" stroke="#ffe9c7" d="M898,-415.5C898,-415.5 954,-415.5 954,-415.5 960,-415.5 966,-421.5 966,-427.5 966,-427.5 966,-449.5 966,-449.5 966,-455.5 960,-461.5 954,-461.5 954,-461.5 898,-461.5 898,-461.5 892,-461.5 886,-455.5 886,-449.5 886,-449.5 886,-427.5 886,-427.5 886,-421.5 892,-415.5 898,-415.5"/>
<text text-anchor="middle" x="926" y="-446.3" font-family="Times,serif" font-size="14.00">KeyWord</text>
<polyline fill="none" stroke="#ffe9c7" points="886,-438.5 966,-438.5 "/>
<text text-anchor="middle" x="926" y="-423.3" font-family="Times,serif" font-size="14.00">=</text>
</g>
<!-- node_0x504000000f90&#45;&gt;node_0x504000000fd0 -->
<g id="edge34" class="edge">
<title>node_0x504000000f90&#45;&gt;node_0x504000000fd0</title>
<path fill="none" stroke="#ff2b00" d="M926,-498.37C926,-490.15 926,-480.66 926,-471.73"/>
<polygon fill="#ff2b00" stroke="#ff2b00" points="929.5,-471.61 926,-461.61 922.5,-471.61 929.5,-471.61"/>
</g>
<!-- node_0x504000000f50 -->
<g id="node36" class="node">
<title>node_0x504000000f50</title>
<path fill="#ff6699" stroke="#ffe9c7" d="M795.5,-332.5C795.5,-332.5 854.5,-332.5 854.5,-332.5 860.5,-332.5 866.5,-338.5 866.5,-344.5 866.5,-344.5 866.5,-366.5 866.5,-366.5 866.5,-372.5 860.5,-378.5 854.5,-378.5 854.5,-378.5 795.5,-378.5 795.5,-378.5 789.5,-378.5 783.5,-372.5 783.5,-366.5 783.5,-366.5 783.5,-344.5 783.5,-344.5 783.5,-338.5 789.5,-332.5 795.5,-332.5"/>
<text text-anchor="middle" x="825" y="-363.3" font-family="Times,serif" font-size="14.00">Identifier</text>
<polyline fill="none" stroke="#ffe9c7" points="783.5,-355.5 866.5,-355.5 "/>
<text text-anchor="middle" x="825" y="-340.3" font-family="Times,serif" font-size="14.00">8</text>
</g>
<!-- node_0x504000000fd0&#45;&gt;node_0x504000000f50 -->
<g id="edge35" class="edge">
<title>node_0x504000000fd0&#45;&gt;node_0x504000000f50</title>
<path fill="none" stroke="#9acd32" d="M898.4,-415.37C886.71,-405.99 872.94,-394.95 860.51,-384.98"/>
<polygon fill="#9acd32" stroke="#9acd32" points="862.56,-382.13 852.57,-378.61 858.18,-387.59 862.56,-382.13"/>
</g>
<!-- node_0x504000001010 -->
<g id="node37" class="node">
<title>node_0x504000001010</title>
<path fill="#ff6699" stroke="#ffe9c7" d="M896.5,-332.5C896.5,-332.5 955.5,-332.5 955.5,-332.5 961.5,-332.5 967.5,-338.5 967.5,-344.5 967.5,-344.5 967.5,-366.5 967.5,-366.5 967.5,-372.5 961.5,-378.5 955.5,-378.5 955.5,-378.5 896.5,-378.5 896.5,-378.5 890.5,-378.5 884.5,-372.5 884.5,-366.5 884.5,-366.5 884.5,-344.5 884.5,-344.5 884.5,-338.5 890.5,-332.5 896.5,-332.5"/>
<text text-anchor="middle" x="926" y="-363.3" font-family="Times,serif" font-size="14.00">Identifier</text>
<polyline fill="none" stroke="#ffe9c7" points="884.5,-355.5 967.5,-355.5 "/>
<text text-anchor="middle" x="926" y="-340.3" font-family="Times,serif" font-size="14.00">1</text>
</g>
<!-- node_0x504000000fd0&#45;&gt;node_0x504000001010 -->
<g id="edge36" class="edge">
<title>node_0x504000000fd0&#45;&gt;node_0x504000001010</title>
<path fill="none" stroke="#ff2b00" d="M926,-415.37C926,-407.15 926,-397.66 926,-388.73"/>
<polygon fill="#ff2b00" stroke="#ff2b00" points="929.5,-388.61 926,-378.61 922.5,-388.61 929.5,-388.61"/>
</g>
<!-- node_0x504000001090 -->
<g id="node39" class="node">
<title>node_0x504000001090</title>
<path fill="#9966ff" stroke="#ffe9c7" d="M996,-415.5C996,-415.5 1052,-415.5 1052,-415.5 1058,-415.5 1064,-421.5 1064,-427.5 1064,-427.5 1064,-449.5 1064,-449.5 1064,-455.5 1058,-461.5 1052,-461.5 1052,-461.5 996,-461.5 996,-461.5 990,-461.5 984,-455.5 984,-449.5 984,-449.5 984,-427.5 984,-427.5 984,-421.5 990,-415.5 996,-415.5"/>
<text text-anchor="middle" x="1024" y="-446.3" font-family="Times,serif" font-size="14.00">KeyWord</text>
<polyline fill="none" stroke="#ffe9c7" points="984,-438.5 1064,-438.5 "/>
<text text-anchor="middle" x="1024" y="-423.3" font-family="Times,serif" font-size="14.00">int</text>
</g>
<!-- node_0x504000001110&#45;&gt;node_0x504000001090 -->
<g id="edge38" class="edge">
<title>node_0x504000001110&#45;&gt;node_0x504000001090</title>
<path fill="none" stroke="#9acd32" d="M1024,-498.37C1024,-490.15 1024,-480.66 1024,-471.73"/>
<polygon fill="#9acd32" stroke="#9acd32" points="1027.5,-471.61 1024,-461.61 1020.5,-471.61 1027.5,-471.61"/>
</g>
<!-- node_0x504000001150 -->
<g id="node40" class="node">
<title>node_0x504000001150</title>
<path fill="#9966ff" stroke="#ffe9c7" d="M1094,-415.5C1094,-415.5 1150,-415.5 1150,-415.5 1156,-415.5 1162,-421.5 1162,-427.5 1162,-427.5 1162,-449.5 1162,-449.5 1162,-455.5 1156,-461.5 1150,-461.5 1150,-461.5 1094,-461.5 1094,-461.5 1088,-461.5 1082,-455.5 1082,-449.5 1082,-449.5 1082,-427.5 1082,-427.5 1082,-421.5 1088,-415.5 1094,-415.5"/>
<text text-anchor="middle" x="1122" y="-446.3" font-family="Times,serif" font-size="14.00">KeyWord</text>
<polyline fill="none" stroke="#ffe9c7" points="1082,-438.5 1162,-438.5 "/>
<text text-anchor="middle" x="1122" y="-423.3" font-family="Times,serif" font-size="14.00">=</text>
</g>
<!-- node_0x504000001110&#45;&gt;node_0x504000001150 -->
<g id="edge39" class="edge">
<title>node_0x504000001110&#45;&gt;node_0x504000001150</title>
<path fill="none" stroke="#ff2b00" d="M1050.78,-498.37C1062.01,-489.08 1075.23,-478.16 1087.2,-468.26"/>
<polygon fill="#ff2b00" stroke="#ff2b00" points="1089.78,-470.68 1095.25,-461.61 1085.32,-465.28 1089.78,-470.68"/>
</g>
<!-- node_0x5040000010d0 -->
<g id="node41" class="node">
<title>node_0x5040000010d0</title>
<path fill="#ff6699" stroke="#ffe9c7" d="M997.5,-332.5C997.5,-332.5 1056.5,-332.5 1056.5,-332.5 1062.5,-332.5 1068.5,-338.5 1068.5,-344.5 1068.5,-344.5 1068.5,-366.5 1068.5,-366.5 1068.5,-372.5 1062.5,-378.5 1056.5,-378.5 1056.5,-378.5 997.5,-378.5 997.5,-378.5 991.5,-378.5 985.5,-372.5 985.5,-366.5 985.5,-366.5 985.5,-344.5 985.5,-344.5 985.5,-338.5 991.5,-332.5 997.5,-332.5"/>
<text text-anchor="middle" x="1027" y="-363.3" font-family="Times,serif" font-size="14.00">Identifier</text>
<polyline fill="none" stroke="#ffe9c7" points="985.5,-355.5 1068.5,-355.5 "/>
<text text-anchor="middle" x="1027" y="-340.3" font-family="Times,serif" font-size="14.00">9</text>
</g>
<!-- node_0x504000001150&#45;&gt;node_0x5040000010d0 -->
<g id="edge40" class="edge">
<title>node_0x504000001150&#45;&gt;node_0x5040000010d0</title>
<path fill="none" stroke="#9acd32" d="M1096.04,-415.37C1085.15,-406.08 1072.34,-395.16 1060.73,-385.26"/>
<polygon fill="#9acd32" stroke="#9acd32" points="1062.81,-382.43 1052.93,-378.61 1058.27,-387.76 1062.81,-382.43"/>
</g>
<!-- node_0x504000001190 -->
<g id="node42" class="node">
<title>node_0x504000001190</title>
<path fill="#ff6699" stroke="#ffe9c7" d="M1098.5,-332.5C1098.5,-332.5 1157.5,-332.5 1157.5,-332.5 1163.5,-332.5 1169.5,-338.5 1169.5,-344.5 1169.5,-344.5 1169.5,-366.5 1169.5,-366.5 1169.5,-372.5 1163.5,-378.5 1157.5,-378.5 1157.5,-378.5 1098.5,-378.5 1098.5,-378.5 1092.5,-378.5 1086.5,-372.5 1086.5,-366.5 1086.5,-366.5 1086.5,-344.5 1086.5,-344.5 1086.5,-338.5 1092.5,-332.5 1098.5,-332.5"/>
<text text-anchor="middle" x="1128" y="-363.3" font-family="Times,serif" font-size="14.00">Identifier</text>
<polyline fill="none" stroke="#ffe9c7" points="1086.5,-355.5 1169.5,-355.5 "/>
<text text-anchor="middle" x="1128" y="-340.3" font-family="Times,serif" font-size="14.00">7</text>
</g>
<!-- node_0x504000001150&#45;&gt;node_0x504000001190 -->
<g id="edge41" class="edge">
<title>node_0x504000001150&#45;&gt;node_0x504000001190</title>
<path fill="none" stroke="#ff2b00" d="M1123.64,-415.37C1124.25,-407.15 1124.95,-397.66 1125.61,-388.73"/>
<polygon fill="#ff2b00" stroke="#ff2b00" points="1129.11,-388.84 1126.36,-378.61 1122.13,-388.32 1129.11,-388.84"/>
</g>
<!-- node_0x5040000014d0 -->
<g id="node44" class="node">
<title>node_0x5040000014d0</title>
<path fill="#9966ff" stroke="#ffe9c7" d="M1323,-498.5C1323,-498.5 1379,-498.5 1379,-498.5 1385,-498.5 1391,-504.5 1391,-510.5 1391,-510.5 1391,-532.5 1391,-532.5 1391,-538.5 1385,-544.5 1379,-544.5 1379,-544.5 1323,-544.5 1323,-544.5 1317,-544.5 1311,-538.5 1311,-532.5 1311,-532.5 1311,-510.5 1311,-510.5 1311,-504.5 1317,-498.5 1323,-498.5"/>
<text text-anchor="middle" x="1351" y="-529.3" font-family="Times,serif" font-size="14.00">KeyWord</text>
<polyline fill="none" stroke="#ffe9c7" points="1311,-521.5 1391,-521.5 "/>
<text text-anchor="middle" x="1351" y="-506.3" font-family="Times,serif" font-size="14.00">;</text>
</g>
<!-- node_0x504000001810&#45;&gt;node_0x5040000014d0 -->
<g id="edge43" class="edge">
<title>node_0x504000001810&#45;&gt;node_0x5040000014d0</title>
<path fill="none" stroke="#9acd32" d="M1351,-581.37C1351,-573.15 1351,-563.66 1351,-554.73"/>
<polygon fill="#9acd32" stroke="#9acd32" points="1354.5,-554.61 1351,-544.61 1347.5,-554.61 1354.5,-554.61"/>
</g>
<!-- node_0x504000001850 -->
<g id="node69" class="node">
<title>node_0x504000001850</title>
<path fill="#9966ff" stroke="#ffe9c7" d="M1470,-498.5C1470,-498.5 1526,-498.5 1526,-498.5 1532,-498.5 1538,-504.5 1538,-510.5 1538,-510.5 1538,-532.5 1538,-532.5 1538,-538.5 1532,-544.5 1526,-544.5 1526,-544.5 1470,-544.5 1470,-544.5 1464,-544.5 1458,-538.5 1458,-532.5 1458,-532.5 1458,-510.5 1458,-510.5 1458,-504.5 1464,-498.5 1470,-498.5"/>
<text text-anchor="middle" x="1498" y="-529.3" font-family="Times,serif" font-size="14.00">KeyWord</text>
<polyline fill="none" stroke="#ffe9c7" points="1458,-521.5 1538,-521.5 "/>
<text text-anchor="middle" x="1498" y="-506.3" font-family="Times,serif" font-size="14.00">return</text>
</g>
<!-- node_0x504000001810&#45;&gt;node_0x504000001850 -->
<g id="edge68" class="edge">
<title>node_0x504000001810&#45;&gt;node_0x504000001850</title>
<path fill="none" stroke="#ff2b00" d="M1391.17,-581.37C1408.99,-571.54 1430.14,-559.89 1448.89,-549.56"/>
<polygon fill="#ff2b00" stroke="#ff2b00" points="1450.81,-552.5 1457.88,-544.61 1447.43,-546.37 1450.81,-552.5"/>
</g>
<!-- node_0x5040000011d0 -->
<g id="node45" class="node">
<title>node_0x5040000011d0</title>
<path fill="#9966ff" stroke="#ffe9c7" d="M1298,-415.5C1298,-415.5 1354,-415.5 1354,-415.5 1360,-415.5 1366,-421.5 1366,-427.5 1366,-427.5 1366,-449.5 1366,-449.5 1366,-455.5 1360,-461.5 1354,-461.5 1354,-461.5 1298,-461.5 1298,-461.5 1292,-461.5 1286,-455.5 1286,-449.5 1286,-449.5 1286,-427.5 1286,-427.5 1286,-421.5 1292,-415.5 1298,-415.5"/>
<text text-anchor="middle" x="1326" y="-446.3" font-family="Times,serif" font-size="14.00">KeyWord</text>
<polyline fill="none" stroke="#ffe9c7" points="1286,-438.5 1366,-438.5 "/>
<text text-anchor="middle" x="1326" y="-423.3" font-family="Times,serif" font-size="14.00">while</text>
</g>
<!-- node_0x5040000014d0&#45;&gt;node_0x5040000011d0 -->
<g id="edge44" class="edge">
<title>node_0x5040000014d0&#45;&gt;node_0x5040000011d0</title>
<path fill="none" stroke="#9acd32" d="M1344.17,-498.37C1341.61,-490.06 1338.64,-480.45 1335.86,-471.43"/>
<polygon fill="#9acd32" stroke="#9acd32" points="1339.12,-470.13 1332.82,-461.61 1332.43,-472.19 1339.12,-470.13"/>
</g>
<!-- node_0x504000001510 -->
<g id="node57" class="node">
<title>node_0x504000001510</title>
<path fill="#9966ff" stroke="#ffe9c7" d="M1396,-415.5C1396,-415.5 1452,-415.5 1452,-415.5 1458,-415.5 1464,-421.5 1464,-427.5 1464,-427.5 1464,-449.5 1464,-449.5 1464,-455.5 1458,-461.5 1452,-461.5 1452,-461.5 1396,-461.5 1396,-461.5 1390,-461.5 1384,-455.5 1384,-449.5 1384,-449.5 1384,-427.5 1384,-427.5 1384,-421.5 1390,-415.5 1396,-415.5"/>
<text text-anchor="middle" x="1424" y="-446.3" font-family="Times,serif" font-size="14.00">KeyWord</text>
<polyline fill="none" stroke="#ffe9c7" points="1384,-438.5 1464,-438.5 "/>
<text text-anchor="middle" x="1424" y="-423.3" font-family="Times,serif" font-size="14.00">if</text>
</g>
<!-- node_0x5040000014d0&#45;&gt;node_0x504000001510 -->
<g id="edge56" class="edge">
<title>node_0x5040000014d0&#45;&gt;node_0x504000001510</title>
<path fill="none" stroke="#ff2b00" d="M1370.95,-498.37C1379.08,-489.35 1388.59,-478.79 1397.3,-469.12"/>
<polygon fill="#ff2b00" stroke="#ff2b00" points="1399.98,-471.38 1404.08,-461.61 1394.78,-466.69 1399.98,-471.38"/>
</g>
<!-- node_0x504000001250 -->
<g id="node46" class="node">
<title>node_0x504000001250</title>
<path fill="#9966ff" stroke="#ffe9c7" d="M1200,-332.5C1200,-332.5 1256,-332.5 1256,-332.5 1262,-332.5 1268,-338.5 1268,-344.5 1268,-344.5 1268,-366.5 1268,-366.5 1268,-372.5 1262,-378.5 1256,-378.5 1256,-378.5 1200,-378.5 1200,-378.5 1194,-378.5 1188,-372.5 1188,-366.5 1188,-366.5 1188,-344.5 1188,-344.5 1188,-338.5 1194,-332.5 1200,-332.5"/>
<text text-anchor="middle" x="1228" y="-363.3" font-family="Times,serif" font-size="14.00">KeyWord</text>
<polyline fill="none" stroke="#ffe9c7" points="1188,-355.5 1268,-355.5 "/>
<text text-anchor="middle" x="1228" y="-340.3" font-family="Times,serif" font-size="14.00">&gt;</text>
</g>
<!-- node_0x5040000011d0&#45;&gt;node_0x504000001250 -->
<g id="edge45" class="edge">
<title>node_0x5040000011d0&#45;&gt;node_0x504000001250</title>
<path fill="none" stroke="#9acd32" d="M1299.22,-415.37C1287.99,-406.08 1274.77,-395.16 1262.8,-385.26"/>
<polygon fill="#9acd32" stroke="#9acd32" points="1264.68,-382.28 1254.75,-378.61 1260.22,-387.68 1264.68,-382.28"/>
</g>
<!-- node_0x5040000012d0 -->
<g id="node49" class="node">
<title>node_0x5040000012d0</title>
<path fill="#9966ff" stroke="#ffe9c7" d="M1298,-332.5C1298,-332.5 1354,-332.5 1354,-332.5 1360,-332.5 1366,-338.5 1366,-344.5 1366,-344.5 1366,-366.5 1366,-366.5 1366,-372.5 1360,-378.5 1354,-378.5 1354,-378.5 1298,-378.5 1298,-378.5 1292,-378.5 1286,-372.5 1286,-366.5 1286,-366.5 1286,-344.5 1286,-344.5 1286,-338.5 1292,-332.5 1298,-332.5"/>
<text text-anchor="middle" x="1326" y="-363.3" font-family="Times,serif" font-size="14.00">KeyWord</text>
<polyline fill="none" stroke="#ffe9c7" points="1286,-355.5 1366,-355.5 "/>
<text text-anchor="middle" x="1326" y="-340.3" font-family="Times,serif" font-size="14.00">;</text>
</g>
<!-- node_0x5040000011d0&#45;&gt;node_0x5040000012d0 -->
<g id="edge48" class="edge">
<title>node_0x5040000011d0&#45;&gt;node_0x5040000012d0</title>
<path fill="none" stroke="#ff2b00" d="M1326,-415.37C1326,-407.15 1326,-397.66 1326,-388.73"/>
<polygon fill="#ff2b00" stroke="#ff2b00" points="1329.5,-388.61 1326,-378.61 1322.5,-388.61 1329.5,-388.61"/>
</g>
<!-- node_0x504000001210 -->
<g id="node47" class="node">
<title>node_0x504000001210</title>
<path fill="#ff6699" stroke="#ffe9c7" d="M1098.5,-249.5C1098.5,-249.5 1157.5,-249.5 1157.5,-249.5 1163.5,-249.5 1169.5,-255.5 1169.5,-261.5 1169.5,-261.5 1169.5,-283.5 1169.5,-283.5 1169.5,-289.5 1163.5,-295.5 1157.5,-295.5 1157.5,-295.5 1098.5,-295.5 1098.5,-295.5 1092.5,-295.5 1086.5,-289.5 1086.5,-283.5 1086.5,-283.5 1086.5,-261.5 1086.5,-261.5 1086.5,-255.5 1092.5,-249.5 1098.5,-249.5"/>
<text text-anchor="middle" x="1128" y="-280.3" font-family="Times,serif" font-size="14.00">Identifier</text>
<polyline fill="none" stroke="#ffe9c7" points="1086.5,-272.5 1169.5,-272.5 "/>
<text text-anchor="middle" x="1128" y="-257.3" font-family="Times,serif" font-size="14.00">8</text>
</g>
<!-- node_0x504000001250&#45;&gt;node_0x504000001210 -->
<g id="edge46" class="edge">
<title>node_0x504000001250&#45;&gt;node_0x504000001210</title>
<path fill="none" stroke="#9acd32" d="M1200.67,-332.37C1189.1,-322.99 1175.47,-311.95 1163.16,-301.98"/>
<polygon fill="#9acd32" stroke="#9acd32" points="1165.27,-299.18 1155.29,-295.61 1160.86,-304.62 1165.27,-299.18"/>
</g>
<!-- node_0x504000001290 -->
<g id="node48" class="node">
<title>node_0x504000001290</title>
<path fill="#03cffc" stroke="#ffe9c7" d="M1199.5,-249.5C1199.5,-249.5 1256.5,-249.5 1256.5,-249.5 1262.5,-249.5 1268.5,-255.5 1268.5,-261.5 1268.5,-261.5 1268.5,-283.5 1268.5,-283.5 1268.5,-289.5 1262.5,-295.5 1256.5,-295.5 1256.5,-295.5 1199.5,-295.5 1199.5,-295.5 1193.5,-295.5 1187.5,-289.5 1187.5,-283.5 1187.5,-283.5 1187.5,-261.5 1187.5,-261.5 1187.5,-255.5 1193.5,-249.5 1199.5,-249.5"/>
<text text-anchor="middle" x="1228" y="-280.3" font-family="Times,serif" font-size="14.00">Constant</text>
<polyline fill="none" stroke="#ffe9c7" points="1187.5,-272.5 1268.5,-272.5 "/>
<text text-anchor="middle" x="1228" y="-257.3" font-family="Times,serif" font-size="14.00">1</text>
</g>
<!-- node_0x504000001250&#45;&gt;node_0x504000001290 -->
<g id="edge47" class="edge">
<title>node_0x504000001250&#45;&gt;node_0x504000001290</title>
<path fill="none" stroke="#ff2b00" d="M1228,-332.37C1228,-324.15 1228,-314.66 1228,-305.73"/>
<polygon fill="#ff2b00" stroke="#ff2b00" points="1231.5,-305.61 1228,-295.61 1224.5,-305.61 1231.5,-305.61"/>
</g>
<!-- node_0x504000001390 -->
<g id="node50" class="node">
<title>node_0x504000001390</title>
<path fill="#08c41e" stroke="#ffe9c7" d="M1298.5,-249.5C1298.5,-249.5 1351.5,-249.5 1351.5,-249.5 1357.5,-249.5 1363.5,-255.5 1363.5,-261.5 1363.5,-261.5 1363.5,-283.5 1363.5,-283.5 1363.5,-289.5 1357.5,-295.5 1351.5,-295.5 1351.5,-295.5 1298.5,-295.5 1298.5,-295.5 1292.5,-295.5 1286.5,-289.5 1286.5,-283.5 1286.5,-283.5 1286.5,-261.5 1286.5,-261.5 1286.5,-255.5 1292.5,-249.5 1298.5,-249.5"/>
<text text-anchor="middle" x="1325" y="-280.3" font-family="Times,serif" font-size="14.00">Var Decl</text>
<polyline fill="none" stroke="#ffe9c7" points="1286.5,-272.5 1363.5,-272.5 "/>
<text text-anchor="middle" x="1325" y="-257.3" font-family="Times,serif" font-size="14.00">8</text>
</g>
<!-- node_0x5040000012d0&#45;&gt;node_0x504000001390 -->
<g id="edge49" class="edge">
<title>node_0x5040000012d0&#45;&gt;node_0x504000001390</title>
<path fill="none" stroke="#9acd32" d="M1325.73,-332.37C1325.63,-324.15 1325.51,-314.66 1325.4,-305.73"/>
<polygon fill="#9acd32" stroke="#9acd32" points="1328.9,-305.56 1325.27,-295.61 1321.9,-305.65 1328.9,-305.56"/>
</g>
<!-- node_0x504000001310 -->
<g id="node51" class="node">
<title>node_0x504000001310</title>
<path fill="#9966ff" stroke="#ffe9c7" d="M1235,-166.5C1235,-166.5 1291,-166.5 1291,-166.5 1297,-166.5 1303,-172.5 1303,-178.5 1303,-178.5 1303,-200.5 1303,-200.5 1303,-206.5 1297,-212.5 1291,-212.5 1291,-212.5 1235,-212.5 1235,-212.5 1229,-212.5 1223,-206.5 1223,-200.5 1223,-200.5 1223,-178.5 1223,-178.5 1223,-172.5 1229,-166.5 1235,-166.5"/>
<text text-anchor="middle" x="1263" y="-197.3" font-family="Times,serif" font-size="14.00">KeyWord</text>
<polyline fill="none" stroke="#ffe9c7" points="1223,-189.5 1303,-189.5 "/>
<text text-anchor="middle" x="1263" y="-174.3" font-family="Times,serif" font-size="14.00">int</text>
</g>
<!-- node_0x504000001390&#45;&gt;node_0x504000001310 -->
<g id="edge50" class="edge">
<title>node_0x504000001390&#45;&gt;node_0x504000001310</title>
<path fill="none" stroke="#9acd32" d="M1308.06,-249.37C1301.29,-240.53 1293.39,-230.21 1286.11,-220.7"/>
<polygon fill="#9acd32" stroke="#9acd32" points="1288.78,-218.42 1279.92,-212.61 1283.22,-222.68 1288.78,-218.42"/>
</g>
<!-- node_0x5040000013d0 -->
<g id="node52" class="node">
<title>node_0x5040000013d0</title>
<path fill="#9966ff" stroke="#ffe9c7" d="M1333,-166.5C1333,-166.5 1389,-166.5 1389,-166.5 1395,-166.5 1401,-172.5 1401,-178.5 1401,-178.5 1401,-200.5 1401,-200.5 1401,-206.5 1395,-212.5 1389,-212.5 1389,-212.5 1333,-212.5 1333,-212.5 1327,-212.5 1321,-206.5 1321,-200.5 1321,-200.5 1321,-178.5 1321,-178.5 1321,-172.5 1327,-166.5 1333,-166.5"/>
<text text-anchor="middle" x="1361" y="-197.3" font-family="Times,serif" font-size="14.00">KeyWord</text>
<polyline fill="none" stroke="#ffe9c7" points="1321,-189.5 1401,-189.5 "/>
<text text-anchor="middle" x="1361" y="-174.3" font-family="Times,serif" font-size="14.00">=</text>
</g>
<!-- node_0x504000001390&#45;&gt;node_0x5040000013d0 -->
<g id="edge51" class="edge">
<title>node_0x504000001390&#45;&gt;node_0x5040000013d0</title>
<path fill="none" stroke="#ff2b00" d="M1334.84,-249.37C1338.61,-240.88 1342.98,-231.04 1347.07,-221.85"/>
<polygon fill="#ff2b00" stroke="#ff2b00" points="1350.31,-223.17 1351.17,-212.61 1343.91,-220.32 1350.31,-223.17"/>
</g>
<!-- node_0x504000001350 -->
<g id="node53" class="node">
<title>node_0x504000001350</title>
<path fill="#ff6699" stroke="#ffe9c7" d="M1271.5,-83.5C1271.5,-83.5 1330.5,-83.5 1330.5,-83.5 1336.5,-83.5 1342.5,-89.5 1342.5,-95.5 1342.5,-95.5 1342.5,-117.5 1342.5,-117.5 1342.5,-123.5 1336.5,-129.5 1330.5,-129.5 1330.5,-129.5 1271.5,-129.5 1271.5,-129.5 1265.5,-129.5 1259.5,-123.5 1259.5,-117.5 1259.5,-117.5 1259.5,-95.5 1259.5,-95.5 1259.5,-89.5 1265.5,-83.5 1271.5,-83.5"/>
<text text-anchor="middle" x="1301" y="-114.3" font-family="Times,serif" font-size="14.00">Identifier</text>
<polyline fill="none" stroke="#ffe9c7" points="1259.5,-106.5 1342.5,-106.5 "/>
<text text-anchor="middle" x="1301" y="-91.3" font-family="Times,serif" font-size="14.00">8</text>
</g>
<!-- node_0x5040000013d0&#45;&gt;node_0x504000001350 -->
<g id="edge52" class="edge">
<title>node_0x5040000013d0&#45;&gt;node_0x504000001350</title>
<path fill="none" stroke="#9acd32" d="M1344.6,-166.37C1338.06,-157.53 1330.41,-147.21 1323.37,-137.7"/>
<polygon fill="#9acd32" stroke="#9acd32" points="1326.14,-135.56 1317.38,-129.61 1320.52,-139.73 1326.14,-135.56"/>
</g>
<!-- node_0x504000001450 -->
<g id="node54" class="node">
<title>node_0x504000001450</title>
<path fill="#9966ff" stroke="#ffe9c7" d="M1373,-83.5C1373,-83.5 1429,-83.5 1429,-83.5 1435,-83.5 1441,-89.5 1441,-95.5 1441,-95.5 1441,-117.5 1441,-117.5 1441,-123.5 1435,-129.5 1429,-129.5 1429,-129.5 1373,-129.5 1373,-129.5 1367,-129.5 1361,-123.5 1361,-117.5 1361,-117.5 1361,-95.5 1361,-95.5 1361,-89.5 1367,-83.5 1373,-83.5"/>
<text text-anchor="middle" x="1401" y="-114.3" font-family="Times,serif" font-size="14.00">KeyWord</text>
<polyline fill="none" stroke="#ffe9c7" points="1361,-106.5 1441,-106.5 "/>
<text text-anchor="middle" x="1401" y="-91.3" font-family="Times,serif" font-size="14.00">+</text>
</g>
<!-- node_0x5040000013d0&#45;&gt;node_0x504000001450 -->
<g id="edge53" class="edge">
<title>node_0x5040000013d0&#45;&gt;node_0x504000001450</title>
<path fill="none" stroke="#ff2b00" d="M1371.93,-166.37C1376.12,-157.88 1380.98,-148.04 1385.52,-138.85"/>
<polygon fill="#ff2b00" stroke="#ff2b00" points="1388.79,-140.12 1390.08,-129.61 1382.52,-137.02 1388.79,-140.12"/>
</g>
<!-- node_0x504000001410 -->
<g id="node55" class="node">
<title>node_0x504000001410</title>
<path fill="#ff6699" stroke="#ffe9c7" d="M1347.5,-0.5C1347.5,-0.5 1406.5,-0.5 1406.5,-0.5 1412.5,-0.5 1418.5,-6.5 1418.5,-12.5 1418.5,-12.5 1418.5,-34.5 1418.5,-34.5 1418.5,-40.5 1412.5,-46.5 1406.5,-46.5 1406.5,-46.5 1347.5,-46.5 1347.5,-46.5 1341.5,-46.5 1335.5,-40.5 1335.5,-34.5 1335.5,-34.5 1335.5,-12.5 1335.5,-12.5 1335.5,-6.5 1341.5,-0.5 1347.5,-0.5"/>
<text text-anchor="middle" x="1377" y="-31.3" font-family="Times,serif" font-size="14.00">Identifier</text>
<polyline fill="none" stroke="#ffe9c7" points="1335.5,-23.5 1418.5,-23.5 "/>
<text text-anchor="middle" x="1377" y="-8.3" font-family="Times,serif" font-size="14.00">8</text>
</g>
<!-- node_0x504000001450&#45;&gt;node_0x504000001410 -->
<g id="edge54" class="edge">
<title>node_0x504000001450&#45;&gt;node_0x504000001410</title>
<path fill="none" stroke="#9acd32" d="M1394.44,-83.37C1391.98,-75.06 1389.13,-65.45 1386.46,-56.43"/>
<polygon fill="#9acd32" stroke="#9acd32" points="1389.75,-55.2 1383.55,-46.61 1383.04,-57.19 1389.75,-55.2"/>
</g>
<!-- node_0x504000001490 -->
<g id="node56" class="node">
<title>node_0x504000001490</title>
<path fill="#ff6699" stroke="#ffe9c7" d="M1448.5,-0.5C1448.5,-0.5 1507.5,-0.5 1507.5,-0.5 1513.5,-0.5 1519.5,-6.5 1519.5,-12.5 1519.5,-12.5 1519.5,-34.5 1519.5,-34.5 1519.5,-40.5 1513.5,-46.5 1507.5,-46.5 1507.5,-46.5 1448.5,-46.5 1448.5,-46.5 1442.5,-46.5 1436.5,-40.5 1436.5,-34.5 1436.5,-34.5 1436.5,-12.5 1436.5,-12.5 1436.5,-6.5 1442.5,-0.5 1448.5,-0.5"/>
<text text-anchor="middle" x="1478" y="-31.3" font-family="Times,serif" font-size="14.00">Identifier</text>
<polyline fill="none" stroke="#ffe9c7" points="1436.5,-23.5 1519.5,-23.5 "/>
<text text-anchor="middle" x="1478" y="-8.3" font-family="Times,serif" font-size="14.00">9</text>
</g>
<!-- node_0x504000001450&#45;&gt;node_0x504000001490 -->
<g id="edge55" class="edge">
<title>node_0x504000001450&#45;&gt;node_0x504000001490</title>
<path fill="none" stroke="#ff2b00" d="M1422.04,-83.37C1430.61,-74.35 1440.65,-63.79 1449.84,-54.12"/>
<polygon fill="#ff2b00" stroke="#ff2b00" points="1452.63,-56.27 1456.98,-46.61 1447.56,-51.44 1452.63,-56.27"/>
</g>
<!-- node_0x504000001590 -->
<g id="node58" class="node">
<title>node_0x504000001590</title>
<path fill="#9966ff" stroke="#ffe9c7" d="M1396,-332.5C1396,-332.5 1452,-332.5 1452,-332.5 1458,-332.5 1464,-338.5 1464,-344.5 1464,-344.5 1464,-366.5 1464,-366.5 1464,-372.5 1458,-378.5 1452,-378.5 1452,-378.5 1396,-378.5 1396,-378.5 1390,-378.5 1384,-372.5 1384,-366.5 1384,-366.5 1384,-344.5 1384,-344.5 1384,-338.5 1390,-332.5 1396,-332.5"/>
<text text-anchor="middle" x="1424" y="-363.3" font-family="Times,serif" font-size="14.00">KeyWord</text>
<polyline fill="none" stroke="#ffe9c7" points="1384,-355.5 1464,-355.5 "/>
<text text-anchor="middle" x="1424" y="-340.3" font-family="Times,serif" font-size="14.00">&gt;</text>
</g>
<!-- node_0x504000001510&#45;&gt;node_0x504000001590 -->
<g id="edge57" class="edge">
<title>node_0x504000001510&#45;&gt;node_0x504000001590</title>
<path fill="none" stroke="#9acd32" d="M1424,-415.37C1424,-407.15 1424,-397.66 1424,-388.73"/>
<polygon fill="#9acd32" stroke="#9acd32" points="1427.5,-388.61 1424,-378.61 1420.5,-388.61 1427.5,-388.61"/>
</g>
<!-- node_0x504000001610 -->
<g id="node61" class="node">
<title>node_0x504000001610</title>
<path fill="#9966ff" stroke="#ffe9c7" d="M1543,-332.5C1543,-332.5 1599,-332.5 1599,-332.5 1605,-332.5 1611,-338.5 1611,-344.5 1611,-344.5 1611,-366.5 1611,-366.5 1611,-372.5 1605,-378.5 1599,-378.5 1599,-378.5 1543,-378.5 1543,-378.5 1537,-378.5 1531,-372.5 1531,-366.5 1531,-366.5 1531,-344.5 1531,-344.5 1531,-338.5 1537,-332.5 1543,-332.5"/>
<text text-anchor="middle" x="1571" y="-363.3" font-family="Times,serif" font-size="14.00">KeyWord</text>
<polyline fill="none" stroke="#ffe9c7" points="1531,-355.5 1611,-355.5 "/>
<text text-anchor="middle" x="1571" y="-340.3" font-family="Times,serif" font-size="14.00">;</text>
</g>
<!-- node_0x504000001510&#45;&gt;node_0x504000001610 -->
<g id="edge60" class="edge">
<title>node_0x504000001510&#45;&gt;node_0x504000001610</title>
<path fill="none" stroke="#ff2b00" d="M1464.17,-415.37C1481.99,-405.54 1503.14,-393.89 1521.89,-383.56"/>
<polygon fill="#ff2b00" stroke="#ff2b00" points="1523.81,-386.5 1530.88,-378.61 1520.43,-380.37 1523.81,-386.5"/>
</g>
<!-- node_0x504000001550 -->
<g id="node59" class="node">
<title>node_0x504000001550</title>
<path fill="#ff6699" stroke="#ffe9c7" d="M1393.5,-249.5C1393.5,-249.5 1452.5,-249.5 1452.5,-249.5 1458.5,-249.5 1464.5,-255.5 1464.5,-261.5 1464.5,-261.5 1464.5,-283.5 1464.5,-283.5 1464.5,-289.5 1458.5,-295.5 1452.5,-295.5 1452.5,-295.5 1393.5,-295.5 1393.5,-295.5 1387.5,-295.5 1381.5,-289.5 1381.5,-283.5 1381.5,-283.5 1381.5,-261.5 1381.5,-261.5 1381.5,-255.5 1387.5,-249.5 1393.5,-249.5"/>
<text text-anchor="middle" x="1423" y="-280.3" font-family="Times,serif" font-size="14.00">Identifier</text>
<polyline fill="none" stroke="#ffe9c7" points="1381.5,-272.5 1464.5,-272.5 "/>
<text text-anchor="middle" x="1423" y="-257.3" font-family="Times,serif" font-size="14.00">8</text>
</g>
<!-- node_0x504000001590&#45;&gt;node_0x504000001550 -->
<g id="edge58" class="edge">
<title>node_0x504000001590&#45;&gt;node_0x504000001550</title>
<path fill="none" stroke="#9acd32" d="M1423.73,-332.37C1423.63,-324.15 1423.51,-314.66 1423.4,-305.73"/>
<polygon fill="#9acd32" stroke="#9acd32" points="1426.9,-305.56 1423.27,-295.61 1419.9,-305.65 1426.9,-305.56"/>
</g>
<!-- node_0x5040000015d0 -->
<g id="node60" class="node">
<title>node_0x5040000015d0</title>
<path fill="#03cffc" stroke="#ffe9c7" d="M1494.5,-249.5C1494.5,-249.5 1551.5,-249.5 1551.5,-249.5 1557.5,-249.5 1563.5,-255.5 1563.5,-261.5 1563.5,-261.5 1563.5,-283.5 1563.5,-283.5 1563.5,-289.5 1557.5,-295.5 1551.5,-295.5 1551.5,-295.5 1494.5,-295.5 1494.5,-295.5 1488.5,-295.5 1482.5,-289.5 1482.5,-283.5 1482.5,-283.5 1482.5,-261.5 1482.5,-261.5 1482.5,-255.5 1488.5,-249.5 1494.5,-249.5"/>
<text text-anchor="middle" x="1523" y="-280.3" font-family="Times,serif" font-size="14.00">Constant</text>
<polyline fill="none" stroke="#ffe9c7" points="1482.5,-272.5 1563.5,-272.5 "/>
<text text-anchor="middle" x="1523" y="-257.3" font-family="Times,serif" font-size="14.00">1</text>
</g>
<!-- node_0x504000001590&#45;&gt;node_0x5040000015d0 -->
<g id="edge59" class="edge">
<title>node_0x504000001590&#45;&gt;node_0x5040000015d0</title>
<path fill="none" stroke="#ff2b00" d="M1451.05,-332.37C1462.51,-322.99 1476.01,-311.95 1488.19,-301.98"/>
<polygon fill="#ff2b00" stroke="#ff2b00" points="1490.46,-304.65 1495.98,-295.61 1486.02,-299.23 1490.46,-304.65"/>
</g>
<!-- node_0x5040000016d0 -->
<g id="node62" class="node">
<title>node_0x5040000016d0</title>
<path fill="#08c41e" stroke="#ffe9c7" d="M1593.5,-249.5C1593.5,-249.5 1646.5,-249.5 1646.5,-249.5 1652.5,-249.5 1658.5,-255.5 1658.5,-261.5 1658.5,-261.5 1658.5,-283.5 1658.5,-283.5 1658.5,-289.5 1652.5,-295.5 1646.5,-295.5 1646.5,-295.5 1593.5,-295.5 1593.5,-295.5 1587.5,-295.5 1581.5,-289.5 1581.5,-283.5 1581.5,-283.5 1581.5,-261.5 1581.5,-261.5 1581.5,-255.5 1587.5,-249.5 1593.5,-249.5"/>
<text text-anchor="middle" x="1620" y="-280.3" font-family="Times,serif" font-size="14.00">Var Decl</text>
<polyline fill="none" stroke="#ffe9c7" points="1581.5,-272.5 1658.5,-272.5 "/>
<text text-anchor="middle" x="1620" y="-257.3" font-family="Times,serif" font-size="14.00">8</text>
</g>
<!-- node_0x504000001610&#45;&gt;node_0x5040000016d0 -->
<g id="edge61" class="edge">
<title>node_0x504000001610&#45;&gt;node_0x5040000016d0</title>
<path fill="none" stroke="#9acd32" d="M1584.39,-332.37C1589.63,-323.71 1595.73,-313.62 1601.38,-304.27"/>
<polygon fill="#9acd32" stroke="#9acd32" points="1604.45,-305.97 1606.63,-295.61 1598.46,-302.35 1604.45,-305.97"/>
</g>
<!-- node_0x504000001650 -->
<g id="node63" class="node">
<title>node_0x504000001650</title>
<path fill="#9966ff" stroke="#ffe9c7" d="M1513,-166.5C1513,-166.5 1569,-166.5 1569,-166.5 1575,-166.5 1581,-172.5 1581,-178.5 1581,-178.5 1581,-200.5 1581,-200.5 1581,-206.5 1575,-212.5 1569,-212.5 1569,-212.5 1513,-212.5 1513,-212.5 1507,-212.5 1501,-206.5 1501,-200.5 1501,-200.5 1501,-178.5 1501,-178.5 1501,-172.5 1507,-166.5 1513,-166.5"/>
<text text-anchor="middle" x="1541" y="-197.3" font-family="Times,serif" font-size="14.00">KeyWord</text>
<polyline fill="none" stroke="#ffe9c7" points="1501,-189.5 1581,-189.5 "/>
<text text-anchor="middle" x="1541" y="-174.3" font-family="Times,serif" font-size="14.00">int</text>
</g>
<!-- node_0x5040000016d0&#45;&gt;node_0x504000001650 -->
<g id="edge62" class="edge">
<title>node_0x5040000016d0&#45;&gt;node_0x504000001650</title>
<path fill="none" stroke="#9acd32" d="M1598.41,-249.37C1589.53,-240.26 1579.11,-229.58 1569.61,-219.83"/>
<polygon fill="#9acd32" stroke="#9acd32" points="1572.05,-217.32 1562.56,-212.61 1567.04,-222.21 1572.05,-217.32"/>
</g>
<!-- node_0x504000001710 -->
<g id="node64" class="node">
<title>node_0x504000001710</title>
<path fill="#9966ff" stroke="#ffe9c7" d="M1611,-166.5C1611,-166.5 1667,-166.5 1667,-166.5 1673,-166.5 1679,-172.5 1679,-178.5 1679,-178.5 1679,-200.5 1679,-200.5 1679,-206.5 1673,-212.5 1667,-212.5 1667,-212.5 1611,-212.5 1611,-212.5 1605,-212.5 1599,-206.5 1599,-200.5 1599,-200.5 1599,-178.5 1599,-178.5 1599,-172.5 1605,-166.5 1611,-166.5"/>
<text text-anchor="middle" x="1639" y="-197.3" font-family="Times,serif" font-size="14.00">KeyWord</text>
<polyline fill="none" stroke="#ffe9c7" points="1599,-189.5 1679,-189.5 "/>
<text text-anchor="middle" x="1639" y="-174.3" font-family="Times,serif" font-size="14.00">=</text>
</g>
<!-- node_0x5040000016d0&#45;&gt;node_0x504000001710 -->
<g id="edge63" class="edge">
<title>node_0x5040000016d0&#45;&gt;node_0x504000001710</title>
<path fill="none" stroke="#ff2b00" d="M1625.19,-249.37C1627.14,-241.06 1629.39,-231.45 1631.51,-222.43"/>
<polygon fill="#ff2b00" stroke="#ff2b00" points="1634.94,-223.14 1633.81,-212.61 1628.12,-221.54 1634.94,-223.14"/>
</g>
<!-- node_0x504000001690 -->
<g id="node65" class="node">
<title>node_0x504000001690</title>
<path fill="#ff6699" stroke="#ffe9c7" d="M1535.5,-83.5C1535.5,-83.5 1594.5,-83.5 1594.5,-83.5 1600.5,-83.5 1606.5,-89.5 1606.5,-95.5 1606.5,-95.5 1606.5,-117.5 1606.5,-117.5 1606.5,-123.5 1600.5,-129.5 1594.5,-129.5 1594.5,-129.5 1535.5,-129.5 1535.5,-129.5 1529.5,-129.5 1523.5,-123.5 1523.5,-117.5 1523.5,-117.5 1523.5,-95.5 1523.5,-95.5 1523.5,-89.5 1529.5,-83.5 1535.5,-83.5"/>
<text text-anchor="middle" x="1565" y="-114.3" font-family="Times,serif" font-size="14.00">Identifier</text>
<polyline fill="none" stroke="#ffe9c7" points="1523.5,-106.5 1606.5,-106.5 "/>
<text text-anchor="middle" x="1565" y="-91.3" font-family="Times,serif" font-size="14.00">8</text>
</g>
<!-- node_0x504000001710&#45;&gt;node_0x504000001690 -->
<g id="edge64" class="edge">
<title>node_0x504000001710&#45;&gt;node_0x504000001690</title>
<path fill="none" stroke="#9acd32" d="M1618.78,-166.37C1610.54,-157.35 1600.89,-146.79 1592.06,-137.12"/>
<polygon fill="#9acd32" stroke="#9acd32" points="1594.53,-134.63 1585.2,-129.61 1589.36,-139.35 1594.53,-134.63"/>
</g>
<!-- node_0x504000001790 -->
<g id="node66" class="node">
<title>node_0x504000001790</title>
<path fill="#9966ff" stroke="#ffe9c7" d="M1637,-83.5C1637,-83.5 1693,-83.5 1693,-83.5 1699,-83.5 1705,-89.5 1705,-95.5 1705,-95.5 1705,-117.5 1705,-117.5 1705,-123.5 1699,-129.5 1693,-129.5 1693,-129.5 1637,-129.5 1637,-129.5 1631,-129.5 1625,-123.5 1625,-117.5 1625,-117.5 1625,-95.5 1625,-95.5 1625,-89.5 1631,-83.5 1637,-83.5"/>
<text text-anchor="middle" x="1665" y="-114.3" font-family="Times,serif" font-size="14.00">KeyWord</text>
<polyline fill="none" stroke="#ffe9c7" points="1625,-106.5 1705,-106.5 "/>
<text text-anchor="middle" x="1665" y="-91.3" font-family="Times,serif" font-size="14.00">+</text>
</g>
<!-- node_0x504000001710&#45;&gt;node_0x504000001790 -->
<g id="edge65" class="edge">
<title>node_0x504000001710&#45;&gt;node_0x504000001790</title>
<path fill="none" stroke="#ff2b00" d="M1646.1,-166.37C1648.8,-157.97 1651.92,-148.24 1654.84,-139.14"/>
<polygon fill="#ff2b00" stroke="#ff2b00" points="1658.18,-140.2 1657.9,-129.61 1651.52,-138.06 1658.18,-140.2"/>
</g>
<!-- node_0x504000001750 -->
<g id="node67" class="node">
<title>node_0x504000001750</title>
<path fill="#ff6699" stroke="#ffe9c7" d="M1595.5,-0.5C1595.5,-0.5 1654.5,-0.5 1654.5,-0.5 1660.5,-0.5 1666.5,-6.5 1666.5,-12.5 1666.5,-12.5 1666.5,-34.5 1666.5,-34.5 1666.5,-40.5 1660.5,-46.5 1654.5,-46.5 1654.5,-46.5 1595.5,-46.5 1595.5,-46.5 1589.5,-46.5 1583.5,-40.5 1583.5,-34.5 1583.5,-34.5 1583.5,-12.5 1583.5,-12.5 1583.5,-6.5 1589.5,-0.5 1595.5,-0.5"/>
<text text-anchor="middle" x="1625" y="-31.3" font-family="Times,serif" font-size="14.00">Identifier</text>
<polyline fill="none" stroke="#ffe9c7" points="1583.5,-23.5 1666.5,-23.5 "/>
<text text-anchor="middle" x="1625" y="-8.3" font-family="Times,serif" font-size="14.00">8</text>
</g>
<!-- node_0x504000001790&#45;&gt;node_0x504000001750 -->
<g id="edge66" class="edge">
<title>node_0x504000001790&#45;&gt;node_0x504000001750</title>
<path fill="none" stroke="#9acd32" d="M1654.07,-83.37C1649.88,-74.88 1645.02,-65.04 1640.48,-55.85"/>
<polygon fill="#9acd32" stroke="#9acd32" points="1643.48,-54.02 1635.92,-46.61 1637.21,-57.12 1643.48,-54.02"/>
</g>
<!-- node_0x5040000017d0 -->
<g id="node68" class="node">
<title>node_0x5040000017d0</title>
<path fill="#ff6699" stroke="#ffe9c7" d="M1696.5,-0.5C1696.5,-0.5 1755.5,-0.5 1755.5,-0.5 1761.5,-0.5 1767.5,-6.5 1767.5,-12.5 1767.5,-12.5 1767.5,-34.5 1767.5,-34.5 1767.5,-40.5 1761.5,-46.5 1755.5,-46.5 1755.5,-46.5 1696.5,-46.5 1696.5,-46.5 1690.5,-46.5 1684.5,-40.5 1684.5,-34.5 1684.5,-34.5 1684.5,-12.5 1684.5,-12.5 1684.5,-6.5 1690.5,-0.5 1696.5,-0.5"/>
<text text-anchor="middle" x="1726" y="-31.3" font-family="Times,serif" font-size="14.00">Identifier</text>
<polyline fill="none" stroke="#ffe9c7" points="1684.5,-23.5 1767.5,-23.5 "/>
<text text-anchor="middle" x="1726" y="-8.3" font-family="Times,serif" font-size="14.00">9</text>
</g>
<!-- node_0x504000001790&#45;&gt;node_0x5040000017d0 -->
<g id="edge67" class="edge">
<title>node_0x504000001790&#45;&gt;node_0x5040000017d0</title>
<path fill="none" stroke="#ff2b00" d="M1681.67,-83.37C1688.33,-74.53 1696.1,-64.21 1703.26,-54.7"/>
<polygon fill="#ff2b00" stroke="#ff2b00" points="1706.13,-56.7 1709.35,-46.61 1700.54,-52.49 1706.13,-56.7"/>
</g>
<!-- node_0x504000001890 -->
<g id="node70" class="node">
<title>node_0x504000001890</title>
<path fill="#03cffc" stroke="#ffe9c7" d="M1494.5,-415.5C1494.5,-415.5 1551.5,-415.5 1551.5,-415.5 1557.5,-415.5 1563.5,-421.5 1563.5,-427.5 1563.5,-427.5 1563.5,-449.5 1563.5,-449.5 1563.5,-455.5 1557.5,-461.5 1551.5,-461.5 1551.5,-461.5 1494.5,-461.5 1494.5,-461.5 1488.5,-461.5 1482.5,-455.5 1482.5,-449.5 1482.5,-449.5 1482.5,-427.5 1482.5,-427.5 1482.5,-421.5 1488.5,-415.5 1494.5,-415.5"/>
<text text-anchor="middle" x="1523" y="-446.3" font-family="Times,serif" font-size="14.00">Constant</text>
<polyline fill="none" stroke="#ffe9c7" points="1482.5,-438.5 1563.5,-438.5 "/>
<text text-anchor="middle" x="1523" y="-423.3" font-family="Times,serif" font-size="14.00">0</text>
</g>
<!-- node_0x504000001850&#45;&gt;node_0x504000001890 -->
<g id="edge69" class="edge">
<title>node_0x504000001850&#45;&gt;node_0x504000001890</title>
<path fill="none" stroke="#ff2b00" d="M1504.83,-498.37C1507.39,-490.06 1510.36,-480.45 1513.14,-471.43"/>
<polygon fill="#ff2b00" stroke="#ff2b00" points="1516.57,-472.19 1516.18,-461.61 1509.88,-470.13 1516.57,-472.19"/>
</g>
</g>
</svg>
