<?xml version="1.0" encoding="UTF-8" standalone="no"?>
<!DOCTYPE svg PUBLIC "-//W3C//DTD SVG 1.1//EN"
 "http://www.w3.org/Graphics/SVG/1.1/DTD/svg11.dtd">
<!-- Generated by graphviz version 2.43.0 (0)
 -->
<!-- Title: G Pages: 1 -->
<svg width="1935pt" height="184pt"
 viewBox="0.00 0.00 1935.00 184.00" xmlns="http://www.w3.org/2000/svg" xmlns:xlink="http://www.w3.org/1999/xlink">
<g id="graph0" class="graph" transform="scale(1 1) rotate(0) translate(4 180)">
<title>G</title>
<polygon fill="#ffd480" stroke="transparent" points="-4,4 -4,-180 1931,-180 1931,4 -4,4"/>
<text text-anchor="middle" x="963.5" y="-148" font-family="Verdana" font-size="30.00" fill="#ffffff">List</text>
<!-- node_0x57d8f39840f0 -->
<g id="node1" class="node">
<title>node_0x57d8f39840f0</title>
<path fill="#ff6699" stroke="#ffe9c7" d="M12,-0.5C12,-0.5 346,-0.5 346,-0.5 352,-0.5 358,-6.5 358,-12.5 358,-12.5 358,-80.5 358,-80.5 358,-86.5 352,-92.5 346,-92.5 346,-92.5 12,-92.5 12,-92.5 6,-92.5 0,-86.5 0,-80.5 0,-80.5 0,-12.5 0,-12.5 0,-6.5 6,-0.5 12,-0.5"/>
<text text-anchor="middle" x="179" y="-77.3" font-family="Times,serif" font-size="14.00">Phantom</text>
<polyline fill="none" stroke="#ffe9c7" points="0,-69.5 358,-69.5 "/>
<text text-anchor="middle" x="179" y="-54.3" font-family="Times,serif" font-size="14.00">data: BADBABA</text>
<polyline fill="none" stroke="#ffe9c7" points="0,-46.5 358,-46.5 "/>
<text text-anchor="middle" x="179" y="-31.3" font-family="Times,serif" font-size="14.00">curr: 0x57d8f39840f0</text>
<polyline fill="none" stroke="#ffe9c7" points="0,-23.5 358,-23.5 "/>
<text text-anchor="middle" x="89.5" y="-8.3" font-family="Times,serif" font-size="14.00">prev: 0x57d8f3984570</text>
<polyline fill="none" stroke="#ffe9c7" points="179,-0.5 179,-23.5 "/>
<text text-anchor="middle" x="268.5" y="-8.3" font-family="Times,serif" font-size="14.00">next: 0x57d8f3984160</text>
</g>
<!-- node_0x57d8f3984160 -->
<g id="node2" class="node">
<title>node_0x57d8f3984160</title>
<path fill="#9966ff" stroke="#ffe9c7" d="M406,-42.5C406,-42.5 737,-42.5 737,-42.5 743,-42.5 749,-48.5 749,-54.5 749,-54.5 749,-122.5 749,-122.5 749,-128.5 743,-134.5 737,-134.5 737,-134.5 406,-134.5 406,-134.5 400,-134.5 394,-128.5 394,-122.5 394,-122.5 394,-54.5 394,-54.5 394,-48.5 400,-42.5 406,-42.5"/>
<text text-anchor="middle" x="571.5" y="-119.3" font-family="Times,serif" font-size="14.00">num: 0</text>
<polyline fill="none" stroke="#ffe9c7" points="394,-111.5 749,-111.5 "/>
<text text-anchor="middle" x="571.5" y="-96.3" font-family="Times,serif" font-size="14.00">data: main</text>
<polyline fill="none" stroke="#ffe9c7" points="394,-88.5 749,-88.5 "/>
<text text-anchor="middle" x="571.5" y="-73.3" font-family="Times,serif" font-size="14.00">curr: 0x57d8f3984160</text>
<polyline fill="none" stroke="#ffe9c7" points="394,-65.5 749,-65.5 "/>
<text text-anchor="middle" x="482" y="-50.3" font-family="Times,serif" font-size="14.00">prev: 0x57d8f39840f0</text>
<polyline fill="none" stroke="#ffe9c7" points="570,-42.5 570,-65.5 "/>
<text text-anchor="middle" x="659.5" y="-50.3" font-family="Times,serif" font-size="14.00">next: 0x57d8f3984290</text>
</g>
<!-- node_0x57d8f39840f0&#45;&gt;node_0x57d8f3984160 -->
<g id="edge1" class="edge">
<title>node_0x57d8f39840f0&#45;&gt;node_0x57d8f3984160</title>
<path fill="none" stroke="#ff6699" d="M358.02,-59C358.02,-59 383.89,-59 383.89,-59"/>
<polygon fill="#ff6699" stroke="#ff6699" points="383.89,-62.5 393.89,-59 383.89,-55.5 383.89,-62.5"/>
</g>
<!-- node_0x57d8f3984570 -->
<g id="node5" class="node">
<title>node_0x57d8f3984570</title>
<path fill="#9966ff" stroke="#ffe9c7" d="M1585,-0.5C1585,-0.5 1915,-0.5 1915,-0.5 1921,-0.5 1927,-6.5 1927,-12.5 1927,-12.5 1927,-80.5 1927,-80.5 1927,-86.5 1921,-92.5 1915,-92.5 1915,-92.5 1585,-92.5 1585,-92.5 1579,-92.5 1573,-86.5 1573,-80.5 1573,-80.5 1573,-12.5 1573,-12.5 1573,-6.5 1579,-0.5 1585,-0.5"/>
<text text-anchor="middle" x="1750" y="-77.3" font-family="Times,serif" font-size="14.00">num: 3</text>
<polyline fill="none" stroke="#ffe9c7" points="1573,-69.5 1927,-69.5 "/>
<text text-anchor="middle" x="1750" y="-54.3" font-family="Times,serif" font-size="14.00">data: two</text>
<polyline fill="none" stroke="#ffe9c7" points="1573,-46.5 1927,-46.5 "/>
<text text-anchor="middle" x="1750" y="-31.3" font-family="Times,serif" font-size="14.00">curr: 0x57d8f3984570</text>
<polyline fill="none" stroke="#ffe9c7" points="1573,-23.5 1927,-23.5 "/>
<text text-anchor="middle" x="1662.5" y="-8.3" font-family="Times,serif" font-size="14.00">prev: 0x57d8f3984320</text>
<polyline fill="none" stroke="#ffe9c7" points="1752,-0.5 1752,-23.5 "/>
<text text-anchor="middle" x="1839.5" y="-8.3" font-family="Times,serif" font-size="14.00">next: 0x57d8f39840f0</text>
</g>
<!-- node_0x57d8f39840f0&#45;&gt;node_0x57d8f3984570 -->
<g id="edge2" class="edge">
<title>node_0x57d8f39840f0&#45;&gt;node_0x57d8f3984570</title>
<path fill="none" stroke="#34cb34" d="M358.07,-14C358.07,-14 1562.79,-14 1562.79,-14"/>
<polygon fill="#34cb34" stroke="#34cb34" points="1562.79,-17.5 1572.79,-14 1562.79,-10.5 1562.79,-17.5"/>
</g>
<!-- node_0x57d8f3984160&#45;&gt;node_0x57d8f39840f0 -->
<g id="edge4" class="edge">
<title>node_0x57d8f3984160&#45;&gt;node_0x57d8f39840f0</title>
<path fill="none" stroke="#34cb34" d="M393.91,-76C393.91,-76 368.19,-76 368.19,-76"/>
<polygon fill="#34cb34" stroke="#34cb34" points="368.19,-72.5 358.19,-76 368.19,-79.5 368.19,-72.5"/>
</g>
<!-- node_0x57d8f3984290 -->
<g id="node3" class="node">
<title>node_0x57d8f3984290</title>
<path fill="#9966ff" stroke="#ffe9c7" d="M797,-42.5C797,-42.5 1131,-42.5 1131,-42.5 1137,-42.5 1143,-48.5 1143,-54.5 1143,-54.5 1143,-122.5 1143,-122.5 1143,-128.5 1137,-134.5 1131,-134.5 1131,-134.5 797,-134.5 797,-134.5 791,-134.5 785,-128.5 785,-122.5 785,-122.5 785,-54.5 785,-54.5 785,-48.5 791,-42.5 797,-42.5"/>
<text text-anchor="middle" x="964" y="-119.3" font-family="Times,serif" font-size="14.00">num: 1</text>
<polyline fill="none" stroke="#ffe9c7" points="785,-111.5 1143,-111.5 "/>
<text text-anchor="middle" x="964" y="-96.3" font-family="Times,serif" font-size="14.00">data: one</text>
<polyline fill="none" stroke="#ffe9c7" points="785,-88.5 1143,-88.5 "/>
<text text-anchor="middle" x="964" y="-73.3" font-family="Times,serif" font-size="14.00">curr: 0x57d8f3984290</text>
<polyline fill="none" stroke="#ffe9c7" points="785,-65.5 1143,-65.5 "/>
<text text-anchor="middle" x="874.5" y="-50.3" font-family="Times,serif" font-size="14.00">prev: 0x57d8f3984160</text>
<polyline fill="none" stroke="#ffe9c7" points="964,-42.5 964,-65.5 "/>
<text text-anchor="middle" x="1053.5" y="-50.3" font-family="Times,serif" font-size="14.00">next: 0x57d8f3984320</text>
</g>
<!-- node_0x57d8f3984160&#45;&gt;node_0x57d8f3984290 -->
<g id="edge3" class="edge">
<title>node_0x57d8f3984160&#45;&gt;node_0x57d8f3984290</title>
<path fill="none" stroke="#ff6699" d="M749.09,-73C749.09,-73 774.81,-73 774.81,-73"/>
<polygon fill="#ff6699" stroke="#ff6699" points="774.81,-76.5 784.81,-73 774.81,-69.5 774.81,-76.5"/>
</g>
<!-- node_0x57d8f3984290&#45;&gt;node_0x57d8f3984160 -->
<g id="edge6" class="edge">
<title>node_0x57d8f3984290&#45;&gt;node_0x57d8f3984160</title>
<path fill="none" stroke="#34cb34" d="M784.98,-104C784.98,-104 759.11,-104 759.11,-104"/>
<polygon fill="#34cb34" stroke="#34cb34" points="759.11,-100.5 749.11,-104 759.11,-107.5 759.11,-100.5"/>
</g>
<!-- node_0x57d8f3984320 -->
<g id="node4" class="node">
<title>node_0x57d8f3984320</title>
<path fill="#9966ff" stroke="#ffe9c7" d="M1191,-42.5C1191,-42.5 1525,-42.5 1525,-42.5 1531,-42.5 1537,-48.5 1537,-54.5 1537,-54.5 1537,-122.5 1537,-122.5 1537,-128.5 1531,-134.5 1525,-134.5 1525,-134.5 1191,-134.5 1191,-134.5 1185,-134.5 1179,-128.5 1179,-122.5 1179,-122.5 1179,-54.5 1179,-54.5 1179,-48.5 1185,-42.5 1191,-42.5"/>
<text text-anchor="middle" x="1358" y="-119.3" font-family="Times,serif" font-size="14.00">num: 2</text>
<polyline fill="none" stroke="#ffe9c7" points="1179,-111.5 1537,-111.5 "/>
<text text-anchor="middle" x="1358" y="-96.3" font-family="Times,serif" font-size="14.00">data: func</text>
<polyline fill="none" stroke="#ffe9c7" points="1179,-88.5 1537,-88.5 "/>
<text text-anchor="middle" x="1358" y="-73.3" font-family="Times,serif" font-size="14.00">curr: 0x57d8f3984320</text>
<polyline fill="none" stroke="#ffe9c7" points="1179,-65.5 1537,-65.5 "/>
<text text-anchor="middle" x="1268.5" y="-50.3" font-family="Times,serif" font-size="14.00">prev: 0x57d8f3984290</text>
<polyline fill="none" stroke="#ffe9c7" points="1358,-42.5 1358,-65.5 "/>
<text text-anchor="middle" x="1447.5" y="-50.3" font-family="Times,serif" font-size="14.00">next: 0x57d8f3984570</text>
</g>
<!-- node_0x57d8f3984290&#45;&gt;node_0x57d8f3984320 -->
<g id="edge5" class="edge">
<title>node_0x57d8f3984290&#45;&gt;node_0x57d8f3984320</title>
<path fill="none" stroke="#ff6699" d="M1143.13,-73C1143.13,-73 1168.89,-73 1168.89,-73"/>
<polygon fill="#ff6699" stroke="#ff6699" points="1168.89,-76.5 1178.89,-73 1168.89,-69.5 1168.89,-76.5"/>
</g>
<!-- node_0x57d8f3984320&#45;&gt;node_0x57d8f3984290 -->
<g id="edge8" class="edge">
<title>node_0x57d8f3984320&#45;&gt;node_0x57d8f3984290</title>
<path fill="none" stroke="#34cb34" d="M1178.87,-104C1178.87,-104 1153.11,-104 1153.11,-104"/>
<polygon fill="#34cb34" stroke="#34cb34" points="1153.11,-100.5 1143.11,-104 1153.11,-107.5 1153.11,-100.5"/>
</g>
<!-- node_0x57d8f3984320&#45;&gt;node_0x57d8f3984570 -->
<g id="edge7" class="edge">
<title>node_0x57d8f3984320&#45;&gt;node_0x57d8f3984570</title>
<path fill="none" stroke="#ff6699" d="M1537.08,-59C1537.08,-59 1562.87,-59 1562.87,-59"/>
<polygon fill="#ff6699" stroke="#ff6699" points="1562.87,-62.5 1572.87,-59 1562.87,-55.5 1562.87,-62.5"/>
</g>
<!-- node_0x57d8f3984570&#45;&gt;node_0x57d8f39840f0 -->
<g id="edge9" class="edge">
<title>node_0x57d8f3984570&#45;&gt;node_0x57d8f39840f0</title>
<path fill="none" stroke="#ff6699" d="M1572.84,-28C1572.84,-28 368.23,-28 368.23,-28"/>
<polygon fill="#ff6699" stroke="#ff6699" points="368.23,-24.5 358.23,-28 368.22,-31.5 368.23,-24.5"/>
</g>
<!-- node_0x57d8f3984570&#45;&gt;node_0x57d8f3984320 -->
<g id="edge10" class="edge">
<title>node_0x57d8f3984570&#45;&gt;node_0x57d8f3984320</title>
<path fill="none" stroke="#34cb34" d="M1572.92,-76C1572.92,-76 1547.21,-76 1547.21,-76"/>
<polygon fill="#34cb34" stroke="#34cb34" points="1547.21,-72.5 1537.21,-76 1547.21,-79.5 1547.21,-72.5"/>
</g>
</g>
</svg>
