<?xml version="1.0" encoding="UTF-8" standalone="no"?>
<!DOCTYPE svg PUBLIC "-//W3C//DTD SVG 1.1//EN"
 "http://www.w3.org/Graphics/SVG/1.1/DTD/svg11.dtd">
<!-- Generated by graphviz version 2.43.0 (0)
 -->
<!-- Title: G Pages: 1 -->
<svg width="2375pt" height="184pt"
 viewBox="0.00 0.00 2375.00 184.00" xmlns="http://www.w3.org/2000/svg" xmlns:xlink="http://www.w3.org/1999/xlink">
<g id="graph0" class="graph" transform="scale(1 1) rotate(0) translate(4 180)">
<title>G</title>
<polygon fill="#ffd480" stroke="transparent" points="-4,4 -4,-180 2371,-180 2371,4 -4,4"/>
<text text-anchor="middle" x="1183.5" y="-148" font-family="Verdana" font-size="30.00" fill="#ffffff">List</text>
<!-- node_0x5060000001a0 -->
<g id="node1" class="node">
<title>node_0x5060000001a0</title>
<path fill="#ff6699" stroke="#ffe9c7" d="M12,-0.5C12,-0.5 353,-0.5 353,-0.5 359,-0.5 365,-6.5 365,-12.5 365,-12.5 365,-80.5 365,-80.5 365,-86.5 359,-92.5 353,-92.5 353,-92.5 12,-92.5 12,-92.5 6,-92.5 0,-86.5 0,-80.5 0,-80.5 0,-12.5 0,-12.5 0,-6.5 6,-0.5 12,-0.5"/>
<text text-anchor="middle" x="182.5" y="-77.3" font-family="Times,serif" font-size="14.00">Phantom</text>
<polyline fill="none" stroke="#ffe9c7" points="0,-69.5 365,-69.5 "/>
<text text-anchor="middle" x="182.5" y="-54.3" font-family="Times,serif" font-size="14.00">data: BADBABA</text>
<polyline fill="none" stroke="#ffe9c7" points="0,-46.5 365,-46.5 "/>
<text text-anchor="middle" x="182.5" y="-31.3" font-family="Times,serif" font-size="14.00">curr: 0x5060000001a0</text>
<polyline fill="none" stroke="#ffe9c7" points="0,-23.5 365,-23.5 "/>
<text text-anchor="middle" x="91.5" y="-8.3" font-family="Times,serif" font-size="14.00">prev: 0x506000000380</text>
<polyline fill="none" stroke="#ffe9c7" points="183,-0.5 183,-23.5 "/>
<text text-anchor="middle" x="274" y="-8.3" font-family="Times,serif" font-size="14.00">next: 0x506000000200</text>
</g>
<!-- node_0x506000000200 -->
<g id="node2" class="node">
<title>node_0x506000000200</title>
<path fill="#9966ff" stroke="#ffe9c7" d="M413,-42.5C413,-42.5 753,-42.5 753,-42.5 759,-42.5 765,-48.5 765,-54.5 765,-54.5 765,-122.5 765,-122.5 765,-128.5 759,-134.5 753,-134.5 753,-134.5 413,-134.5 413,-134.5 407,-134.5 401,-128.5 401,-122.5 401,-122.5 401,-54.5 401,-54.5 401,-48.5 407,-42.5 413,-42.5"/>
<text text-anchor="middle" x="583" y="-119.3" font-family="Times,serif" font-size="14.00">num: 0</text>
<polyline fill="none" stroke="#ffe9c7" points="401,-111.5 765,-111.5 "/>
<text text-anchor="middle" x="583" y="-96.3" font-family="Times,serif" font-size="14.00">data: BADBABA</text>
<polyline fill="none" stroke="#ffe9c7" points="401,-88.5 765,-88.5 "/>
<text text-anchor="middle" x="583" y="-73.3" font-family="Times,serif" font-size="14.00">curr: 0x506000000200</text>
<polyline fill="none" stroke="#ffe9c7" points="401,-65.5 765,-65.5 "/>
<text text-anchor="middle" x="492" y="-50.3" font-family="Times,serif" font-size="14.00">prev: 0x5060000001a0</text>
<polyline fill="none" stroke="#ffe9c7" points="583,-42.5 583,-65.5 "/>
<text text-anchor="middle" x="674" y="-50.3" font-family="Times,serif" font-size="14.00">next: 0x506000000260</text>
</g>
<!-- node_0x5060000001a0&#45;&gt;node_0x506000000200 -->
<g id="edge1" class="edge">
<title>node_0x5060000001a0&#45;&gt;node_0x506000000200</title>
<path fill="none" stroke="#ff6699" d="M365.17,-59C365.17,-59 390.84,-59 390.84,-59"/>
<polygon fill="#ff6699" stroke="#ff6699" points="390.84,-62.5 400.84,-59 390.84,-55.5 390.84,-62.5"/>
</g>
<!-- node_0x506000000380 -->
<g id="node6" class="node">
<title>node_0x506000000380</title>
<path fill="#9966ff" stroke="#ffe9c7" d="M2014,-0.5C2014,-0.5 2355,-0.5 2355,-0.5 2361,-0.5 2367,-6.5 2367,-12.5 2367,-12.5 2367,-80.5 2367,-80.5 2367,-86.5 2361,-92.5 2355,-92.5 2355,-92.5 2014,-92.5 2014,-92.5 2008,-92.5 2002,-86.5 2002,-80.5 2002,-80.5 2002,-12.5 2002,-12.5 2002,-6.5 2008,-0.5 2014,-0.5"/>
<text text-anchor="middle" x="2184.5" y="-77.3" font-family="Times,serif" font-size="14.00">num: 4</text>
<polyline fill="none" stroke="#ffe9c7" points="2002,-69.5 2367,-69.5 "/>
<text text-anchor="middle" x="2184.5" y="-54.3" font-family="Times,serif" font-size="14.00">data: BADBABA</text>
<polyline fill="none" stroke="#ffe9c7" points="2002,-46.5 2367,-46.5 "/>
<text text-anchor="middle" x="2184.5" y="-31.3" font-family="Times,serif" font-size="14.00">curr: 0x506000000380</text>
<polyline fill="none" stroke="#ffe9c7" points="2002,-23.5 2367,-23.5 "/>
<text text-anchor="middle" x="2093.5" y="-8.3" font-family="Times,serif" font-size="14.00">prev: 0x506000000320</text>
<polyline fill="none" stroke="#ffe9c7" points="2185,-0.5 2185,-23.5 "/>
<text text-anchor="middle" x="2276" y="-8.3" font-family="Times,serif" font-size="14.00">next: 0x5060000001a0</text>
</g>
<!-- node_0x5060000001a0&#45;&gt;node_0x506000000380 -->
<g id="edge2" class="edge">
<title>node_0x5060000001a0&#45;&gt;node_0x506000000380</title>
<path fill="none" stroke="#34cb34" d="M365.03,-14C365.03,-14 1991.85,-14 1991.85,-14"/>
<polygon fill="#34cb34" stroke="#34cb34" points="1991.85,-17.5 2001.85,-14 1991.85,-10.5 1991.85,-17.5"/>
</g>
<!-- node_0x506000000200&#45;&gt;node_0x5060000001a0 -->
<g id="edge4" class="edge">
<title>node_0x506000000200&#45;&gt;node_0x5060000001a0</title>
<path fill="none" stroke="#34cb34" d="M400.91,-76C400.91,-76 375.18,-76 375.18,-76"/>
<polygon fill="#34cb34" stroke="#34cb34" points="375.18,-72.5 365.18,-76 375.18,-79.5 375.18,-72.5"/>
</g>
<!-- node_0x506000000260 -->
<g id="node3" class="node">
<title>node_0x506000000260</title>
<path fill="#9966ff" stroke="#ffe9c7" d="M813,-42.5C813,-42.5 1153,-42.5 1153,-42.5 1159,-42.5 1165,-48.5 1165,-54.5 1165,-54.5 1165,-122.5 1165,-122.5 1165,-128.5 1159,-134.5 1153,-134.5 1153,-134.5 813,-134.5 813,-134.5 807,-134.5 801,-128.5 801,-122.5 801,-122.5 801,-54.5 801,-54.5 801,-48.5 807,-42.5 813,-42.5"/>
<text text-anchor="middle" x="983" y="-119.3" font-family="Times,serif" font-size="14.00">num: 1</text>
<polyline fill="none" stroke="#ffe9c7" points="801,-111.5 1165,-111.5 "/>
<text text-anchor="middle" x="983" y="-96.3" font-family="Times,serif" font-size="14.00">data: BADBABA</text>
<polyline fill="none" stroke="#ffe9c7" points="801,-88.5 1165,-88.5 "/>
<text text-anchor="middle" x="983" y="-73.3" font-family="Times,serif" font-size="14.00">curr: 0x506000000260</text>
<polyline fill="none" stroke="#ffe9c7" points="801,-65.5 1165,-65.5 "/>
<text text-anchor="middle" x="892.5" y="-50.3" font-family="Times,serif" font-size="14.00">prev: 0x506000000200</text>
<polyline fill="none" stroke="#ffe9c7" points="984,-42.5 984,-65.5 "/>
<text text-anchor="middle" x="1074.5" y="-50.3" font-family="Times,serif" font-size="14.00">next: 0x5060000002c0</text>
</g>
<!-- node_0x506000000200&#45;&gt;node_0x506000000260 -->
<g id="edge3" class="edge">
<title>node_0x506000000200&#45;&gt;node_0x506000000260</title>
<path fill="none" stroke="#ff6699" d="M765.15,-73C765.15,-73 790.81,-73 790.81,-73"/>
<polygon fill="#ff6699" stroke="#ff6699" points="790.81,-76.5 800.81,-73 790.81,-69.5 790.81,-76.5"/>
</g>
<!-- node_0x506000000260&#45;&gt;node_0x506000000200 -->
<g id="edge6" class="edge">
<title>node_0x506000000260&#45;&gt;node_0x506000000200</title>
<path fill="none" stroke="#34cb34" d="M800.85,-104C800.85,-104 775.19,-104 775.19,-104"/>
<polygon fill="#34cb34" stroke="#34cb34" points="775.19,-100.5 765.19,-104 775.19,-107.5 775.19,-100.5"/>
</g>
<!-- node_0x5060000002c0 -->
<g id="node4" class="node">
<title>node_0x5060000002c0</title>
<path fill="#9966ff" stroke="#ffe9c7" d="M1213,-42.5C1213,-42.5 1554,-42.5 1554,-42.5 1560,-42.5 1566,-48.5 1566,-54.5 1566,-54.5 1566,-122.5 1566,-122.5 1566,-128.5 1560,-134.5 1554,-134.5 1554,-134.5 1213,-134.5 1213,-134.5 1207,-134.5 1201,-128.5 1201,-122.5 1201,-122.5 1201,-54.5 1201,-54.5 1201,-48.5 1207,-42.5 1213,-42.5"/>
<text text-anchor="middle" x="1383.5" y="-119.3" font-family="Times,serif" font-size="14.00">num: 2</text>
<polyline fill="none" stroke="#ffe9c7" points="1201,-111.5 1566,-111.5 "/>
<text text-anchor="middle" x="1383.5" y="-96.3" font-family="Times,serif" font-size="14.00">data: BADBABA</text>
<polyline fill="none" stroke="#ffe9c7" points="1201,-88.5 1566,-88.5 "/>
<text text-anchor="middle" x="1383.5" y="-73.3" font-family="Times,serif" font-size="14.00">curr: 0x5060000002c0</text>
<polyline fill="none" stroke="#ffe9c7" points="1201,-65.5 1566,-65.5 "/>
<text text-anchor="middle" x="1292.5" y="-50.3" font-family="Times,serif" font-size="14.00">prev: 0x506000000260</text>
<polyline fill="none" stroke="#ffe9c7" points="1384,-42.5 1384,-65.5 "/>
<text text-anchor="middle" x="1475" y="-50.3" font-family="Times,serif" font-size="14.00">next: 0x506000000320</text>
</g>
<!-- node_0x506000000260&#45;&gt;node_0x5060000002c0 -->
<g id="edge5" class="edge">
<title>node_0x506000000260&#45;&gt;node_0x5060000002c0</title>
<path fill="none" stroke="#ff6699" d="M1165.09,-73C1165.09,-73 1190.82,-73 1190.82,-73"/>
<polygon fill="#ff6699" stroke="#ff6699" points="1190.82,-76.5 1200.82,-73 1190.82,-69.5 1190.82,-76.5"/>
</g>
<!-- node_0x5060000002c0&#45;&gt;node_0x506000000260 -->
<g id="edge8" class="edge">
<title>node_0x5060000002c0&#45;&gt;node_0x506000000260</title>
<path fill="none" stroke="#34cb34" d="M1200.83,-104C1200.83,-104 1175.16,-104 1175.16,-104"/>
<polygon fill="#34cb34" stroke="#34cb34" points="1175.16,-100.5 1165.16,-104 1175.16,-107.5 1175.16,-100.5"/>
</g>
<!-- node_0x506000000320 -->
<g id="node5" class="node">
<title>node_0x506000000320</title>
<path fill="#9966ff" stroke="#ffe9c7" d="M1614,-42.5C1614,-42.5 1954,-42.5 1954,-42.5 1960,-42.5 1966,-48.5 1966,-54.5 1966,-54.5 1966,-122.5 1966,-122.5 1966,-128.5 1960,-134.5 1954,-134.5 1954,-134.5 1614,-134.5 1614,-134.5 1608,-134.5 1602,-128.5 1602,-122.5 1602,-122.5 1602,-54.5 1602,-54.5 1602,-48.5 1608,-42.5 1614,-42.5"/>
<text text-anchor="middle" x="1784" y="-119.3" font-family="Times,serif" font-size="14.00">num: 3</text>
<polyline fill="none" stroke="#ffe9c7" points="1602,-111.5 1966,-111.5 "/>
<text text-anchor="middle" x="1784" y="-96.3" font-family="Times,serif" font-size="14.00">data: BADBABA</text>
<polyline fill="none" stroke="#ffe9c7" points="1602,-88.5 1966,-88.5 "/>
<text text-anchor="middle" x="1784" y="-73.3" font-family="Times,serif" font-size="14.00">curr: 0x506000000320</text>
<polyline fill="none" stroke="#ffe9c7" points="1602,-65.5 1966,-65.5 "/>
<text text-anchor="middle" x="1693" y="-50.3" font-family="Times,serif" font-size="14.00">prev: 0x5060000002c0</text>
<polyline fill="none" stroke="#ffe9c7" points="1784,-42.5 1784,-65.5 "/>
<text text-anchor="middle" x="1875" y="-50.3" font-family="Times,serif" font-size="14.00">next: 0x506000000380</text>
</g>
<!-- node_0x5060000002c0&#45;&gt;node_0x506000000320 -->
<g id="edge7" class="edge">
<title>node_0x5060000002c0&#45;&gt;node_0x506000000320</title>
<path fill="none" stroke="#ff6699" d="M1566.17,-73C1566.17,-73 1591.84,-73 1591.84,-73"/>
<polygon fill="#ff6699" stroke="#ff6699" points="1591.84,-76.5 1601.84,-73 1591.84,-69.5 1591.84,-76.5"/>
</g>
<!-- node_0x506000000320&#45;&gt;node_0x5060000002c0 -->
<g id="edge10" class="edge">
<title>node_0x506000000320&#45;&gt;node_0x5060000002c0</title>
<path fill="none" stroke="#34cb34" d="M1601.91,-104C1601.91,-104 1576.18,-104 1576.18,-104"/>
<polygon fill="#34cb34" stroke="#34cb34" points="1576.18,-100.5 1566.18,-104 1576.18,-107.5 1576.18,-100.5"/>
</g>
<!-- node_0x506000000320&#45;&gt;node_0x506000000380 -->
<g id="edge9" class="edge">
<title>node_0x506000000320&#45;&gt;node_0x506000000380</title>
<path fill="none" stroke="#ff6699" d="M1966.09,-59C1966.09,-59 1991.82,-59 1991.82,-59"/>
<polygon fill="#ff6699" stroke="#ff6699" points="1991.82,-62.5 2001.82,-59 1991.82,-55.5 1991.82,-62.5"/>
</g>
<!-- node_0x506000000380&#45;&gt;node_0x5060000001a0 -->
<g id="edge11" class="edge">
<title>node_0x506000000380&#45;&gt;node_0x5060000001a0</title>
<path fill="none" stroke="#ff6699" d="M2001.97,-28C2001.97,-28 375.15,-28 375.15,-28"/>
<polygon fill="#ff6699" stroke="#ff6699" points="375.15,-24.5 365.15,-28 375.15,-31.5 375.15,-24.5"/>
</g>
<!-- node_0x506000000380&#45;&gt;node_0x506000000320 -->
<g id="edge12" class="edge">
<title>node_0x506000000380&#45;&gt;node_0x506000000320</title>
<path fill="none" stroke="#34cb34" d="M2001.83,-76C2001.83,-76 1976.16,-76 1976.16,-76"/>
<polygon fill="#34cb34" stroke="#34cb34" points="1976.16,-72.5 1966.16,-76 1976.16,-79.5 1976.16,-72.5"/>
</g>
</g>
</svg>
