<?xml version="1.0" encoding="UTF-8" standalone="no"?>
<!DOCTYPE svg PUBLIC "-//W3C//DTD SVG 1.1//EN"
 "http://www.w3.org/Graphics/SVG/1.1/DTD/svg11.dtd">
<!-- Generated by graphviz version 2.43.0 (0)
 -->
<!-- Title: G Pages: 1 -->
<svg width="1574pt" height="184pt"
 viewBox="0.00 0.00 1574.00 184.00" xmlns="http://www.w3.org/2000/svg" xmlns:xlink="http://www.w3.org/1999/xlink">
<g id="graph0" class="graph" transform="scale(1 1) rotate(0) translate(4 180)">
<title>G</title>
<polygon fill="#ffd480" stroke="transparent" points="-4,4 -4,-180 1570,-180 1570,4 -4,4"/>
<text text-anchor="middle" x="783" y="-148" font-family="Verdana" font-size="30.00" fill="#ffffff">List</text>
<!-- node_0x5060000002c0 -->
<g id="node1" class="node">
<title>node_0x5060000002c0</title>
<path fill="#ff6699" stroke="#ffe9c7" d="M12,-0.5C12,-0.5 353,-0.5 353,-0.5 359,-0.5 365,-6.5 365,-12.5 365,-12.5 365,-80.5 365,-80.5 365,-86.5 359,-92.5 353,-92.5 353,-92.5 12,-92.5 12,-92.5 6,-92.5 0,-86.5 0,-80.5 0,-80.5 0,-12.5 0,-12.5 0,-6.5 6,-0.5 12,-0.5"/>
<text text-anchor="middle" x="182.5" y="-77.3" font-family="Times,serif" font-size="14.00">Phantom</text>
<polyline fill="none" stroke="#ffe9c7" points="0,-69.5 365,-69.5 "/>
<text text-anchor="middle" x="182.5" y="-54.3" font-family="Times,serif" font-size="14.00">data: BADBABA</text>
<polyline fill="none" stroke="#ffe9c7" points="0,-46.5 365,-46.5 "/>
<text text-anchor="middle" x="182.5" y="-31.3" font-family="Times,serif" font-size="14.00">curr: 0x5060000002c0</text>
<polyline fill="none" stroke="#ffe9c7" points="0,-23.5 365,-23.5 "/>
<text text-anchor="middle" x="91.5" y="-8.3" font-family="Times,serif" font-size="14.00">prev: 0x504000000290</text>
<polyline fill="none" stroke="#ffe9c7" points="183,-0.5 183,-23.5 "/>
<text text-anchor="middle" x="274" y="-8.3" font-family="Times,serif" font-size="14.00">next: 0x504000000210</text>
</g>
<!-- node_0x504000000210 -->
<g id="node2" class="node">
<title>node_0x504000000210</title>
<path fill="#9966ff" stroke="#ffe9c7" d="M413,-42.5C413,-42.5 753,-42.5 753,-42.5 759,-42.5 765,-48.5 765,-54.5 765,-54.5 765,-122.5 765,-122.5 765,-128.5 759,-134.5 753,-134.5 753,-134.5 413,-134.5 413,-134.5 407,-134.5 401,-128.5 401,-122.5 401,-122.5 401,-54.5 401,-54.5 401,-48.5 407,-42.5 413,-42.5"/>
<text text-anchor="middle" x="583" y="-119.3" font-family="Times,serif" font-size="14.00">num: 0</text>
<polyline fill="none" stroke="#ffe9c7" points="401,-111.5 765,-111.5 "/>
<text text-anchor="middle" x="583" y="-96.3" font-family="Times,serif" font-size="14.00">data: main</text>
<polyline fill="none" stroke="#ffe9c7" points="401,-88.5 765,-88.5 "/>
<text text-anchor="middle" x="583" y="-73.3" font-family="Times,serif" font-size="14.00">curr: 0x504000000210</text>
<polyline fill="none" stroke="#ffe9c7" points="401,-65.5 765,-65.5 "/>
<text text-anchor="middle" x="492" y="-50.3" font-family="Times,serif" font-size="14.00">prev: 0x5060000002c0</text>
<polyline fill="none" stroke="#ffe9c7" points="583,-42.5 583,-65.5 "/>
<text text-anchor="middle" x="674" y="-50.3" font-family="Times,serif" font-size="14.00">next: 0x504000000250</text>
</g>
<!-- node_0x5060000002c0&#45;&gt;node_0x504000000210 -->
<g id="edge1" class="edge">
<title>node_0x5060000002c0&#45;&gt;node_0x504000000210</title>
<path fill="none" stroke="#ff6699" d="M365.17,-59C365.17,-59 390.84,-59 390.84,-59"/>
<polygon fill="#ff6699" stroke="#ff6699" points="390.84,-62.5 400.84,-59 390.84,-55.5 390.84,-62.5"/>
</g>
<!-- node_0x504000000290 -->
<g id="node4" class="node">
<title>node_0x504000000290</title>
<path fill="#9966ff" stroke="#ffe9c7" d="M1214,-0.5C1214,-0.5 1554,-0.5 1554,-0.5 1560,-0.5 1566,-6.5 1566,-12.5 1566,-12.5 1566,-80.5 1566,-80.5 1566,-86.5 1560,-92.5 1554,-92.5 1554,-92.5 1214,-92.5 1214,-92.5 1208,-92.5 1202,-86.5 1202,-80.5 1202,-80.5 1202,-12.5 1202,-12.5 1202,-6.5 1208,-0.5 1214,-0.5"/>
<text text-anchor="middle" x="1384" y="-77.3" font-family="Times,serif" font-size="14.00">num: 2</text>
<polyline fill="none" stroke="#ffe9c7" points="1202,-69.5 1566,-69.5 "/>
<text text-anchor="middle" x="1384" y="-54.3" font-family="Times,serif" font-size="14.00">data: func</text>
<polyline fill="none" stroke="#ffe9c7" points="1202,-46.5 1566,-46.5 "/>
<text text-anchor="middle" x="1384" y="-31.3" font-family="Times,serif" font-size="14.00">curr: 0x504000000290</text>
<polyline fill="none" stroke="#ffe9c7" points="1202,-23.5 1566,-23.5 "/>
<text text-anchor="middle" x="1293.5" y="-8.3" font-family="Times,serif" font-size="14.00">prev: 0x504000000250</text>
<polyline fill="none" stroke="#ffe9c7" points="1385,-0.5 1385,-23.5 "/>
<text text-anchor="middle" x="1475.5" y="-8.3" font-family="Times,serif" font-size="14.00">next: 0x5060000002c0</text>
</g>
<!-- node_0x5060000002c0&#45;&gt;node_0x504000000290 -->
<g id="edge2" class="edge">
<title>node_0x5060000002c0&#45;&gt;node_0x504000000290</title>
<path fill="none" stroke="#34cb34" d="M365.31,-14C365.31,-14 1191.88,-14 1191.88,-14"/>
<polygon fill="#34cb34" stroke="#34cb34" points="1191.88,-17.5 1201.88,-14 1191.88,-10.5 1191.88,-17.5"/>
</g>
<!-- node_0x504000000210&#45;&gt;node_0x5060000002c0 -->
<g id="edge4" class="edge">
<title>node_0x504000000210&#45;&gt;node_0x5060000002c0</title>
<path fill="none" stroke="#34cb34" d="M400.91,-76C400.91,-76 375.18,-76 375.18,-76"/>
<polygon fill="#34cb34" stroke="#34cb34" points="375.18,-72.5 365.18,-76 375.18,-79.5 375.18,-72.5"/>
</g>
<!-- node_0x504000000250 -->
<g id="node3" class="node">
<title>node_0x504000000250</title>
<path fill="#9966ff" stroke="#ffe9c7" d="M813,-42.5C813,-42.5 1154,-42.5 1154,-42.5 1160,-42.5 1166,-48.5 1166,-54.5 1166,-54.5 1166,-122.5 1166,-122.5 1166,-128.5 1160,-134.5 1154,-134.5 1154,-134.5 813,-134.5 813,-134.5 807,-134.5 801,-128.5 801,-122.5 801,-122.5 801,-54.5 801,-54.5 801,-48.5 807,-42.5 813,-42.5"/>
<text text-anchor="middle" x="983.5" y="-119.3" font-family="Times,serif" font-size="14.00">num: 1</text>
<polyline fill="none" stroke="#ffe9c7" points="801,-111.5 1166,-111.5 "/>
<text text-anchor="middle" x="983.5" y="-96.3" font-family="Times,serif" font-size="14.00">data: one</text>
<polyline fill="none" stroke="#ffe9c7" points="801,-88.5 1166,-88.5 "/>
<text text-anchor="middle" x="983.5" y="-73.3" font-family="Times,serif" font-size="14.00">curr: 0x504000000250</text>
<polyline fill="none" stroke="#ffe9c7" points="801,-65.5 1166,-65.5 "/>
<text text-anchor="middle" x="892.5" y="-50.3" font-family="Times,serif" font-size="14.00">prev: 0x504000000210</text>
<polyline fill="none" stroke="#ffe9c7" points="984,-42.5 984,-65.5 "/>
<text text-anchor="middle" x="1075" y="-50.3" font-family="Times,serif" font-size="14.00">next: 0x504000000290</text>
</g>
<!-- node_0x504000000210&#45;&gt;node_0x504000000250 -->
<g id="edge3" class="edge">
<title>node_0x504000000210&#45;&gt;node_0x504000000250</title>
<path fill="none" stroke="#ff6699" d="M765.09,-73C765.09,-73 790.82,-73 790.82,-73"/>
<polygon fill="#ff6699" stroke="#ff6699" points="790.82,-76.5 800.82,-73 790.82,-69.5 790.82,-76.5"/>
</g>
<!-- node_0x504000000250&#45;&gt;node_0x504000000210 -->
<g id="edge6" class="edge">
<title>node_0x504000000250&#45;&gt;node_0x504000000210</title>
<path fill="none" stroke="#34cb34" d="M800.83,-104C800.83,-104 775.16,-104 775.16,-104"/>
<polygon fill="#34cb34" stroke="#34cb34" points="775.16,-100.5 765.16,-104 775.16,-107.5 775.16,-100.5"/>
</g>
<!-- node_0x504000000250&#45;&gt;node_0x504000000290 -->
<g id="edge5" class="edge">
<title>node_0x504000000250&#45;&gt;node_0x504000000290</title>
<path fill="none" stroke="#ff6699" d="M1166.17,-59C1166.17,-59 1191.84,-59 1191.84,-59"/>
<polygon fill="#ff6699" stroke="#ff6699" points="1191.84,-62.5 1201.84,-59 1191.84,-55.5 1191.84,-62.5"/>
</g>
<!-- node_0x504000000290&#45;&gt;node_0x5060000002c0 -->
<g id="edge7" class="edge">
<title>node_0x504000000290&#45;&gt;node_0x5060000002c0</title>
<path fill="none" stroke="#ff6699" d="M1201.84,-28C1201.84,-28 375.33,-28 375.33,-28"/>
<polygon fill="#ff6699" stroke="#ff6699" points="375.33,-24.5 365.33,-28 375.33,-31.5 375.33,-24.5"/>
</g>
<!-- node_0x504000000290&#45;&gt;node_0x504000000250 -->
<g id="edge8" class="edge">
<title>node_0x504000000290&#45;&gt;node_0x504000000250</title>
<path fill="none" stroke="#34cb34" d="M1201.91,-76C1201.91,-76 1176.18,-76 1176.18,-76"/>
<polygon fill="#34cb34" stroke="#34cb34" points="1176.18,-72.5 1166.18,-76 1176.18,-79.5 1176.18,-72.5"/>
</g>
</g>
</svg>
