<?xml version="1.0" encoding="UTF-8" standalone="no"?>
<!DOCTYPE svg PUBLIC "-//W3C//DTD SVG 1.1//EN"
 "http://www.w3.org/Graphics/SVG/1.1/DTD/svg11.dtd">
<!-- Generated by graphviz version 2.43.0 (0)
 -->
<!-- Title: G Pages: 1 -->
<svg width="5983pt" height="184pt"
 viewBox="0.00 0.00 5983.00 184.00" xmlns="http://www.w3.org/2000/svg" xmlns:xlink="http://www.w3.org/1999/xlink">
<g id="graph0" class="graph" transform="scale(1 1) rotate(0) translate(4 180)">
<title>G</title>
<polygon fill="#ffd480" stroke="transparent" points="-4,4 -4,-180 5979,-180 5979,4 -4,4"/>
<text text-anchor="middle" x="2987.5" y="-148" font-family="Verdana" font-size="30.00" fill="#ffffff">List</text>
<!-- node_0x506000000020 -->
<g id="node1" class="node">
<title>node_0x506000000020</title>
<path fill="#ff6699" stroke="#ffe9c7" d="M12,-0.5C12,-0.5 352,-0.5 352,-0.5 358,-0.5 364,-6.5 364,-12.5 364,-12.5 364,-80.5 364,-80.5 364,-86.5 358,-92.5 352,-92.5 352,-92.5 12,-92.5 12,-92.5 6,-92.5 0,-86.5 0,-80.5 0,-80.5 0,-12.5 0,-12.5 0,-6.5 6,-0.5 12,-0.5"/>
<text text-anchor="middle" x="182" y="-77.3" font-family="Times,serif" font-size="14.00">Phantom</text>
<polyline fill="none" stroke="#ffe9c7" points="0,-69.5 364,-69.5 "/>
<text text-anchor="middle" x="182" y="-54.3" font-family="Times,serif" font-size="14.00">data: BADBABA</text>
<polyline fill="none" stroke="#ffe9c7" points="0,-46.5 364,-46.5 "/>
<text text-anchor="middle" x="182" y="-31.3" font-family="Times,serif" font-size="14.00">curr: 0x506000000020</text>
<polyline fill="none" stroke="#ffe9c7" points="0,-23.5 364,-23.5 "/>
<text text-anchor="middle" x="91" y="-8.3" font-family="Times,serif" font-size="14.00">prev: 0x5070000001e0</text>
<polyline fill="none" stroke="#ffe9c7" points="182,-0.5 182,-23.5 "/>
<text text-anchor="middle" x="273" y="-8.3" font-family="Times,serif" font-size="14.00">next: 0x508000000120</text>
</g>
<!-- node_0x508000000120 -->
<g id="node2" class="node">
<title>node_0x508000000120</title>
<path fill="#9966ff" stroke="#ffe9c7" d="M412,-42.5C412,-42.5 753,-42.5 753,-42.5 759,-42.5 765,-48.5 765,-54.5 765,-54.5 765,-122.5 765,-122.5 765,-128.5 759,-134.5 753,-134.5 753,-134.5 412,-134.5 412,-134.5 406,-134.5 400,-128.5 400,-122.5 400,-122.5 400,-54.5 400,-54.5 400,-48.5 406,-42.5 412,-42.5"/>
<text text-anchor="middle" x="582.5" y="-119.3" font-family="Times,serif" font-size="14.00">num: 0</text>
<polyline fill="none" stroke="#ffe9c7" points="400,-111.5 765,-111.5 "/>
<text text-anchor="middle" x="582.5" y="-96.3" font-family="Times,serif" font-size="14.00">data: ячейка&#45;из&#45;говна</text>
<polyline fill="none" stroke="#ffe9c7" points="400,-88.5 765,-88.5 "/>
<text text-anchor="middle" x="582.5" y="-73.3" font-family="Times,serif" font-size="14.00">curr: 0x508000000120</text>
<polyline fill="none" stroke="#ffe9c7" points="400,-65.5 765,-65.5 "/>
<text text-anchor="middle" x="491.5" y="-50.3" font-family="Times,serif" font-size="14.00">prev: 0x506000000020</text>
<polyline fill="none" stroke="#ffe9c7" points="583,-42.5 583,-65.5 "/>
<text text-anchor="middle" x="674" y="-50.3" font-family="Times,serif" font-size="14.00">next: 0x504000000010</text>
</g>
<!-- node_0x506000000020&#45;&gt;node_0x508000000120 -->
<g id="edge1" class="edge">
<title>node_0x506000000020&#45;&gt;node_0x508000000120</title>
<path fill="none" stroke="#ff6699" d="M364.09,-59C364.09,-59 389.82,-59 389.82,-59"/>
<polygon fill="#ff6699" stroke="#ff6699" points="389.82,-62.5 399.82,-59 389.82,-55.5 389.82,-62.5"/>
</g>
<!-- node_0x5070000001e0 -->
<g id="node15" class="node">
<title>node_0x5070000001e0</title>
<path fill="#9966ff" stroke="#ffe9c7" d="M5622,-0.5C5622,-0.5 5963,-0.5 5963,-0.5 5969,-0.5 5975,-6.5 5975,-12.5 5975,-12.5 5975,-80.5 5975,-80.5 5975,-86.5 5969,-92.5 5963,-92.5 5963,-92.5 5622,-92.5 5622,-92.5 5616,-92.5 5610,-86.5 5610,-80.5 5610,-80.5 5610,-12.5 5610,-12.5 5610,-6.5 5616,-0.5 5622,-0.5"/>
<text text-anchor="middle" x="5792.5" y="-77.3" font-family="Times,serif" font-size="14.00">num: 13</text>
<polyline fill="none" stroke="#ffe9c7" points="5610,-69.5 5975,-69.5 "/>
<text text-anchor="middle" x="5792.5" y="-54.3" font-family="Times,serif" font-size="14.00">data: с&#45;горемыкой</text>
<polyline fill="none" stroke="#ffe9c7" points="5610,-46.5 5975,-46.5 "/>
<text text-anchor="middle" x="5792.5" y="-31.3" font-family="Times,serif" font-size="14.00">curr: 0x5070000001e0</text>
<polyline fill="none" stroke="#ffe9c7" points="5610,-23.5 5975,-23.5 "/>
<text text-anchor="middle" x="5701.5" y="-8.3" font-family="Times,serif" font-size="14.00">prev: 0x504000000110</text>
<polyline fill="none" stroke="#ffe9c7" points="5793,-0.5 5793,-23.5 "/>
<text text-anchor="middle" x="5884" y="-8.3" font-family="Times,serif" font-size="14.00">next: 0x506000000020</text>
</g>
<!-- node_0x506000000020&#45;&gt;node_0x5070000001e0 -->
<g id="edge2" class="edge">
<title>node_0x506000000020&#45;&gt;node_0x5070000001e0</title>
<path fill="none" stroke="#34cb34" d="M364.29,-14C364.29,-14 5599.92,-14 5599.92,-14"/>
<polygon fill="#34cb34" stroke="#34cb34" points="5599.92,-17.5 5609.92,-14 5599.92,-10.5 5599.92,-17.5"/>
</g>
<!-- node_0x508000000120&#45;&gt;node_0x506000000020 -->
<g id="edge4" class="edge">
<title>node_0x508000000120&#45;&gt;node_0x506000000020</title>
<path fill="none" stroke="#34cb34" d="M399.83,-76C399.83,-76 374.16,-76 374.16,-76"/>
<polygon fill="#34cb34" stroke="#34cb34" points="374.16,-72.5 364.16,-76 374.16,-79.5 374.16,-72.5"/>
</g>
<!-- node_0x504000000010 -->
<g id="node3" class="node">
<title>node_0x504000000010</title>
<path fill="#9966ff" stroke="#ffe9c7" d="M813,-42.5C813,-42.5 1154,-42.5 1154,-42.5 1160,-42.5 1166,-48.5 1166,-54.5 1166,-54.5 1166,-122.5 1166,-122.5 1166,-128.5 1160,-134.5 1154,-134.5 1154,-134.5 813,-134.5 813,-134.5 807,-134.5 801,-128.5 801,-122.5 801,-122.5 801,-54.5 801,-54.5 801,-48.5 807,-42.5 813,-42.5"/>
<text text-anchor="middle" x="983.5" y="-119.3" font-family="Times,serif" font-size="14.00">num: 1</text>
<polyline fill="none" stroke="#ffe9c7" points="801,-111.5 1166,-111.5 "/>
<text text-anchor="middle" x="983.5" y="-96.3" font-family="Times,serif" font-size="14.00">data: мэйн</text>
<polyline fill="none" stroke="#ffe9c7" points="801,-88.5 1166,-88.5 "/>
<text text-anchor="middle" x="983.5" y="-73.3" font-family="Times,serif" font-size="14.00">curr: 0x504000000010</text>
<polyline fill="none" stroke="#ffe9c7" points="801,-65.5 1166,-65.5 "/>
<text text-anchor="middle" x="892.5" y="-50.3" font-family="Times,serif" font-size="14.00">prev: 0x508000000120</text>
<polyline fill="none" stroke="#ffe9c7" points="984,-42.5 984,-65.5 "/>
<text text-anchor="middle" x="1075" y="-50.3" font-family="Times,serif" font-size="14.00">next: 0x506000000080</text>
</g>
<!-- node_0x508000000120&#45;&gt;node_0x504000000010 -->
<g id="edge3" class="edge">
<title>node_0x508000000120&#45;&gt;node_0x504000000010</title>
<path fill="none" stroke="#ff6699" d="M765.11,-73C765.11,-73 790.85,-73 790.85,-73"/>
<polygon fill="#ff6699" stroke="#ff6699" points="790.85,-76.5 800.85,-73 790.85,-69.5 790.85,-76.5"/>
</g>
<!-- node_0x504000000010&#45;&gt;node_0x508000000120 -->
<g id="edge6" class="edge">
<title>node_0x504000000010&#45;&gt;node_0x508000000120</title>
<path fill="none" stroke="#34cb34" d="M800.89,-104C800.89,-104 775.15,-104 775.15,-104"/>
<polygon fill="#34cb34" stroke="#34cb34" points="775.15,-100.5 765.15,-104 775.15,-107.5 775.15,-100.5"/>
</g>
<!-- node_0x506000000080 -->
<g id="node4" class="node">
<title>node_0x506000000080</title>
<path fill="#9966ff" stroke="#ffe9c7" d="M1214,-42.5C1214,-42.5 1555,-42.5 1555,-42.5 1561,-42.5 1567,-48.5 1567,-54.5 1567,-54.5 1567,-122.5 1567,-122.5 1567,-128.5 1561,-134.5 1555,-134.5 1555,-134.5 1214,-134.5 1214,-134.5 1208,-134.5 1202,-128.5 1202,-122.5 1202,-122.5 1202,-54.5 1202,-54.5 1202,-48.5 1208,-42.5 1214,-42.5"/>
<text text-anchor="middle" x="1384.5" y="-119.3" font-family="Times,serif" font-size="14.00">num: 2</text>
<polyline fill="none" stroke="#ffe9c7" points="1202,-111.5 1567,-111.5 "/>
<text text-anchor="middle" x="1384.5" y="-96.3" font-family="Times,serif" font-size="14.00">data: кунимэн</text>
<polyline fill="none" stroke="#ffe9c7" points="1202,-88.5 1567,-88.5 "/>
<text text-anchor="middle" x="1384.5" y="-73.3" font-family="Times,serif" font-size="14.00">curr: 0x506000000080</text>
<polyline fill="none" stroke="#ffe9c7" points="1202,-65.5 1567,-65.5 "/>
<text text-anchor="middle" x="1293.5" y="-50.3" font-family="Times,serif" font-size="14.00">prev: 0x504000000010</text>
<polyline fill="none" stroke="#ffe9c7" points="1385,-42.5 1385,-65.5 "/>
<text text-anchor="middle" x="1476" y="-50.3" font-family="Times,serif" font-size="14.00">next: 0x5060000000e0</text>
</g>
<!-- node_0x504000000010&#45;&gt;node_0x506000000080 -->
<g id="edge5" class="edge">
<title>node_0x504000000010&#45;&gt;node_0x506000000080</title>
<path fill="none" stroke="#ff6699" d="M1166.11,-73C1166.11,-73 1191.85,-73 1191.85,-73"/>
<polygon fill="#ff6699" stroke="#ff6699" points="1191.85,-76.5 1201.85,-73 1191.85,-69.5 1191.85,-76.5"/>
</g>
<!-- node_0x506000000080&#45;&gt;node_0x504000000010 -->
<g id="edge8" class="edge">
<title>node_0x506000000080&#45;&gt;node_0x504000000010</title>
<path fill="none" stroke="#34cb34" d="M1201.89,-104C1201.89,-104 1176.15,-104 1176.15,-104"/>
<polygon fill="#34cb34" stroke="#34cb34" points="1176.15,-100.5 1166.15,-104 1176.15,-107.5 1176.15,-100.5"/>
</g>
<!-- node_0x5060000000e0 -->
<g id="node5" class="node">
<title>node_0x5060000000e0</title>
<path fill="#9966ff" stroke="#ffe9c7" d="M1615,-42.5C1615,-42.5 1956,-42.5 1956,-42.5 1962,-42.5 1968,-48.5 1968,-54.5 1968,-54.5 1968,-122.5 1968,-122.5 1968,-128.5 1962,-134.5 1956,-134.5 1956,-134.5 1615,-134.5 1615,-134.5 1609,-134.5 1603,-128.5 1603,-122.5 1603,-122.5 1603,-54.5 1603,-54.5 1603,-48.5 1609,-42.5 1615,-42.5"/>
<text text-anchor="middle" x="1785.5" y="-119.3" font-family="Times,serif" font-size="14.00">num: 3</text>
<polyline fill="none" stroke="#ffe9c7" points="1603,-111.5 1968,-111.5 "/>
<text text-anchor="middle" x="1785.5" y="-96.3" font-family="Times,serif" font-size="14.00">data: кишкоблуд</text>
<polyline fill="none" stroke="#ffe9c7" points="1603,-88.5 1968,-88.5 "/>
<text text-anchor="middle" x="1785.5" y="-73.3" font-family="Times,serif" font-size="14.00">curr: 0x5060000000e0</text>
<polyline fill="none" stroke="#ffe9c7" points="1603,-65.5 1968,-65.5 "/>
<text text-anchor="middle" x="1694.5" y="-50.3" font-family="Times,serif" font-size="14.00">prev: 0x506000000080</text>
<polyline fill="none" stroke="#ffe9c7" points="1786,-42.5 1786,-65.5 "/>
<text text-anchor="middle" x="1877" y="-50.3" font-family="Times,serif" font-size="14.00">next: 0x507000000170</text>
</g>
<!-- node_0x506000000080&#45;&gt;node_0x5060000000e0 -->
<g id="edge7" class="edge">
<title>node_0x506000000080&#45;&gt;node_0x5060000000e0</title>
<path fill="none" stroke="#ff6699" d="M1567.11,-73C1567.11,-73 1592.85,-73 1592.85,-73"/>
<polygon fill="#ff6699" stroke="#ff6699" points="1592.85,-76.5 1602.85,-73 1592.85,-69.5 1592.85,-76.5"/>
</g>
<!-- node_0x5060000000e0&#45;&gt;node_0x506000000080 -->
<g id="edge10" class="edge">
<title>node_0x5060000000e0&#45;&gt;node_0x506000000080</title>
<path fill="none" stroke="#34cb34" d="M1602.89,-104C1602.89,-104 1577.15,-104 1577.15,-104"/>
<polygon fill="#34cb34" stroke="#34cb34" points="1577.15,-100.5 1567.15,-104 1577.15,-107.5 1577.15,-100.5"/>
</g>
<!-- node_0x507000000170 -->
<g id="node6" class="node">
<title>node_0x507000000170</title>
<path fill="#9966ff" stroke="#ffe9c7" d="M2016,-42.5C2016,-42.5 2356,-42.5 2356,-42.5 2362,-42.5 2368,-48.5 2368,-54.5 2368,-54.5 2368,-122.5 2368,-122.5 2368,-128.5 2362,-134.5 2356,-134.5 2356,-134.5 2016,-134.5 2016,-134.5 2010,-134.5 2004,-128.5 2004,-122.5 2004,-122.5 2004,-54.5 2004,-54.5 2004,-48.5 2010,-42.5 2016,-42.5"/>
<text text-anchor="middle" x="2186" y="-119.3" font-family="Times,serif" font-size="14.00">num: 4</text>
<polyline fill="none" stroke="#ffe9c7" points="2004,-111.5 2368,-111.5 "/>
<text text-anchor="middle" x="2186" y="-96.3" font-family="Times,serif" font-size="14.00">data: забаристый</text>
<polyline fill="none" stroke="#ffe9c7" points="2004,-88.5 2368,-88.5 "/>
<text text-anchor="middle" x="2186" y="-73.3" font-family="Times,serif" font-size="14.00">curr: 0x507000000170</text>
<polyline fill="none" stroke="#ffe9c7" points="2004,-65.5 2368,-65.5 "/>
<text text-anchor="middle" x="2095" y="-50.3" font-family="Times,serif" font-size="14.00">prev: 0x5060000000e0</text>
<polyline fill="none" stroke="#ffe9c7" points="2186,-42.5 2186,-65.5 "/>
<text text-anchor="middle" x="2277" y="-50.3" font-family="Times,serif" font-size="14.00">next: 0x5080000001a0</text>
</g>
<!-- node_0x5060000000e0&#45;&gt;node_0x507000000170 -->
<g id="edge9" class="edge">
<title>node_0x5060000000e0&#45;&gt;node_0x507000000170</title>
<path fill="none" stroke="#ff6699" d="M1968.17,-73C1968.17,-73 1993.84,-73 1993.84,-73"/>
<polygon fill="#ff6699" stroke="#ff6699" points="1993.84,-76.5 2003.84,-73 1993.84,-69.5 1993.84,-76.5"/>
</g>
<!-- node_0x507000000170&#45;&gt;node_0x5060000000e0 -->
<g id="edge12" class="edge">
<title>node_0x507000000170&#45;&gt;node_0x5060000000e0</title>
<path fill="none" stroke="#34cb34" d="M2003.91,-104C2003.91,-104 1978.18,-104 1978.18,-104"/>
<polygon fill="#34cb34" stroke="#34cb34" points="1978.18,-100.5 1968.18,-104 1978.18,-107.5 1978.18,-100.5"/>
</g>
<!-- node_0x5080000001a0 -->
<g id="node7" class="node">
<title>node_0x5080000001a0</title>
<path fill="#9966ff" stroke="#ffe9c7" d="M2416,-42.5C2416,-42.5 2757,-42.5 2757,-42.5 2763,-42.5 2769,-48.5 2769,-54.5 2769,-54.5 2769,-122.5 2769,-122.5 2769,-128.5 2763,-134.5 2757,-134.5 2757,-134.5 2416,-134.5 2416,-134.5 2410,-134.5 2404,-128.5 2404,-122.5 2404,-122.5 2404,-54.5 2404,-54.5 2404,-48.5 2410,-42.5 2416,-42.5"/>
<text text-anchor="middle" x="2586.5" y="-119.3" font-family="Times,serif" font-size="14.00">num: 5</text>
<polyline fill="none" stroke="#ffe9c7" points="2404,-111.5 2769,-111.5 "/>
<text text-anchor="middle" x="2586.5" y="-96.3" font-family="Times,serif" font-size="14.00">data: ячейка&#45;из&#45;говна</text>
<polyline fill="none" stroke="#ffe9c7" points="2404,-88.5 2769,-88.5 "/>
<text text-anchor="middle" x="2586.5" y="-73.3" font-family="Times,serif" font-size="14.00">curr: 0x5080000001a0</text>
<polyline fill="none" stroke="#ffe9c7" points="2404,-65.5 2769,-65.5 "/>
<text text-anchor="middle" x="2495.5" y="-50.3" font-family="Times,serif" font-size="14.00">prev: 0x507000000170</text>
<polyline fill="none" stroke="#ffe9c7" points="2587,-42.5 2587,-65.5 "/>
<text text-anchor="middle" x="2678" y="-50.3" font-family="Times,serif" font-size="14.00">next: 0x503000000070</text>
</g>
<!-- node_0x507000000170&#45;&gt;node_0x5080000001a0 -->
<g id="edge11" class="edge">
<title>node_0x507000000170&#45;&gt;node_0x5080000001a0</title>
<path fill="none" stroke="#ff6699" d="M2368.09,-73C2368.09,-73 2393.82,-73 2393.82,-73"/>
<polygon fill="#ff6699" stroke="#ff6699" points="2393.82,-76.5 2403.82,-73 2393.82,-69.5 2393.82,-76.5"/>
</g>
<!-- node_0x5080000001a0&#45;&gt;node_0x507000000170 -->
<g id="edge14" class="edge">
<title>node_0x5080000001a0&#45;&gt;node_0x507000000170</title>
<path fill="none" stroke="#34cb34" d="M2403.83,-104C2403.83,-104 2378.16,-104 2378.16,-104"/>
<polygon fill="#34cb34" stroke="#34cb34" points="2378.16,-100.5 2368.16,-104 2378.16,-107.5 2378.16,-100.5"/>
</g>
<!-- node_0x503000000070 -->
<g id="node8" class="node">
<title>node_0x503000000070</title>
<path fill="#9966ff" stroke="#ffe9c7" d="M2817,-42.5C2817,-42.5 3157,-42.5 3157,-42.5 3163,-42.5 3169,-48.5 3169,-54.5 3169,-54.5 3169,-122.5 3169,-122.5 3169,-128.5 3163,-134.5 3157,-134.5 3157,-134.5 2817,-134.5 2817,-134.5 2811,-134.5 2805,-128.5 2805,-122.5 2805,-122.5 2805,-54.5 2805,-54.5 2805,-48.5 2811,-42.5 2817,-42.5"/>
<text text-anchor="middle" x="2987" y="-119.3" font-family="Times,serif" font-size="14.00">num: 6</text>
<polyline fill="none" stroke="#ffe9c7" points="2805,-111.5 3169,-111.5 "/>
<text text-anchor="middle" x="2987" y="-96.3" font-family="Times,serif" font-size="14.00">data: x</text>
<polyline fill="none" stroke="#ffe9c7" points="2805,-88.5 3169,-88.5 "/>
<text text-anchor="middle" x="2987" y="-73.3" font-family="Times,serif" font-size="14.00">curr: 0x503000000070</text>
<polyline fill="none" stroke="#ffe9c7" points="2805,-65.5 3169,-65.5 "/>
<text text-anchor="middle" x="2896" y="-50.3" font-family="Times,serif" font-size="14.00">prev: 0x5080000001a0</text>
<polyline fill="none" stroke="#ffe9c7" points="2987,-42.5 2987,-65.5 "/>
<text text-anchor="middle" x="3078" y="-50.3" font-family="Times,serif" font-size="14.00">next: 0x504000000050</text>
</g>
<!-- node_0x5080000001a0&#45;&gt;node_0x503000000070 -->
<g id="edge13" class="edge">
<title>node_0x5080000001a0&#45;&gt;node_0x503000000070</title>
<path fill="none" stroke="#ff6699" d="M2769.17,-73C2769.17,-73 2794.84,-73 2794.84,-73"/>
<polygon fill="#ff6699" stroke="#ff6699" points="2794.84,-76.5 2804.84,-73 2794.84,-69.5 2794.84,-76.5"/>
</g>
<!-- node_0x503000000070&#45;&gt;node_0x5080000001a0 -->
<g id="edge16" class="edge">
<title>node_0x503000000070&#45;&gt;node_0x5080000001a0</title>
<path fill="none" stroke="#34cb34" d="M2804.91,-104C2804.91,-104 2779.18,-104 2779.18,-104"/>
<polygon fill="#34cb34" stroke="#34cb34" points="2779.18,-100.5 2769.18,-104 2779.18,-107.5 2779.18,-100.5"/>
</g>
<!-- node_0x504000000050 -->
<g id="node9" class="node">
<title>node_0x504000000050</title>
<path fill="#9966ff" stroke="#ffe9c7" d="M3217,-42.5C3217,-42.5 3558,-42.5 3558,-42.5 3564,-42.5 3570,-48.5 3570,-54.5 3570,-54.5 3570,-122.5 3570,-122.5 3570,-128.5 3564,-134.5 3558,-134.5 3558,-134.5 3217,-134.5 3217,-134.5 3211,-134.5 3205,-128.5 3205,-122.5 3205,-122.5 3205,-54.5 3205,-54.5 3205,-48.5 3211,-42.5 3217,-42.5"/>
<text text-anchor="middle" x="3387.5" y="-119.3" font-family="Times,serif" font-size="14.00">num: 7</text>
<polyline fill="none" stroke="#ffe9c7" points="3205,-111.5 3570,-111.5 "/>
<text text-anchor="middle" x="3387.5" y="-96.3" font-family="Times,serif" font-size="14.00">data: равно</text>
<polyline fill="none" stroke="#ffe9c7" points="3205,-88.5 3570,-88.5 "/>
<text text-anchor="middle" x="3387.5" y="-73.3" font-family="Times,serif" font-size="14.00">curr: 0x504000000050</text>
<polyline fill="none" stroke="#ffe9c7" points="3205,-65.5 3570,-65.5 "/>
<text text-anchor="middle" x="3296.5" y="-50.3" font-family="Times,serif" font-size="14.00">prev: 0x503000000070</text>
<polyline fill="none" stroke="#ffe9c7" points="3388,-42.5 3388,-65.5 "/>
<text text-anchor="middle" x="3479" y="-50.3" font-family="Times,serif" font-size="14.00">next: 0x504000000090</text>
</g>
<!-- node_0x503000000070&#45;&gt;node_0x504000000050 -->
<g id="edge15" class="edge">
<title>node_0x503000000070&#45;&gt;node_0x504000000050</title>
<path fill="none" stroke="#ff6699" d="M3169.09,-73C3169.09,-73 3194.82,-73 3194.82,-73"/>
<polygon fill="#ff6699" stroke="#ff6699" points="3194.82,-76.5 3204.82,-73 3194.82,-69.5 3194.82,-76.5"/>
</g>
<!-- node_0x504000000050&#45;&gt;node_0x503000000070 -->
<g id="edge18" class="edge">
<title>node_0x504000000050&#45;&gt;node_0x503000000070</title>
<path fill="none" stroke="#34cb34" d="M3204.83,-104C3204.83,-104 3179.16,-104 3179.16,-104"/>
<polygon fill="#34cb34" stroke="#34cb34" points="3179.16,-100.5 3169.16,-104 3179.16,-107.5 3179.16,-100.5"/>
</g>
<!-- node_0x504000000090 -->
<g id="node10" class="node">
<title>node_0x504000000090</title>
<path fill="#9966ff" stroke="#ffe9c7" d="M3618,-42.5C3618,-42.5 3959,-42.5 3959,-42.5 3965,-42.5 3971,-48.5 3971,-54.5 3971,-54.5 3971,-122.5 3971,-122.5 3971,-128.5 3965,-134.5 3959,-134.5 3959,-134.5 3618,-134.5 3618,-134.5 3612,-134.5 3606,-128.5 3606,-122.5 3606,-122.5 3606,-54.5 3606,-54.5 3606,-48.5 3612,-42.5 3618,-42.5"/>
<text text-anchor="middle" x="3788.5" y="-119.3" font-family="Times,serif" font-size="14.00">num: 8</text>
<polyline fill="none" stroke="#ffe9c7" points="3606,-111.5 3971,-111.5 "/>
<text text-anchor="middle" x="3788.5" y="-96.3" font-family="Times,serif" font-size="14.00">data: 15</text>
<polyline fill="none" stroke="#ffe9c7" points="3606,-88.5 3971,-88.5 "/>
<text text-anchor="middle" x="3788.5" y="-73.3" font-family="Times,serif" font-size="14.00">curr: 0x504000000090</text>
<polyline fill="none" stroke="#ffe9c7" points="3606,-65.5 3971,-65.5 "/>
<text text-anchor="middle" x="3697.5" y="-50.3" font-family="Times,serif" font-size="14.00">prev: 0x504000000050</text>
<polyline fill="none" stroke="#ffe9c7" points="3789,-42.5 3789,-65.5 "/>
<text text-anchor="middle" x="3880" y="-50.3" font-family="Times,serif" font-size="14.00">next: 0x5040000000d0</text>
</g>
<!-- node_0x504000000050&#45;&gt;node_0x504000000090 -->
<g id="edge17" class="edge">
<title>node_0x504000000050&#45;&gt;node_0x504000000090</title>
<path fill="none" stroke="#ff6699" d="M3570.11,-73C3570.11,-73 3595.85,-73 3595.85,-73"/>
<polygon fill="#ff6699" stroke="#ff6699" points="3595.85,-76.5 3605.85,-73 3595.85,-69.5 3595.85,-76.5"/>
</g>
<!-- node_0x504000000090&#45;&gt;node_0x504000000050 -->
<g id="edge20" class="edge">
<title>node_0x504000000090&#45;&gt;node_0x504000000050</title>
<path fill="none" stroke="#34cb34" d="M3605.89,-104C3605.89,-104 3580.15,-104 3580.15,-104"/>
<polygon fill="#34cb34" stroke="#34cb34" points="3580.15,-100.5 3570.15,-104 3580.15,-107.5 3580.15,-100.5"/>
</g>
<!-- node_0x5040000000d0 -->
<g id="node11" class="node">
<title>node_0x5040000000d0</title>
<path fill="#9966ff" stroke="#ffe9c7" d="M4019,-42.5C4019,-42.5 4360,-42.5 4360,-42.5 4366,-42.5 4372,-48.5 4372,-54.5 4372,-54.5 4372,-122.5 4372,-122.5 4372,-128.5 4366,-134.5 4360,-134.5 4360,-134.5 4019,-134.5 4019,-134.5 4013,-134.5 4007,-128.5 4007,-122.5 4007,-122.5 4007,-54.5 4007,-54.5 4007,-48.5 4013,-42.5 4019,-42.5"/>
<text text-anchor="middle" x="4189.5" y="-119.3" font-family="Times,serif" font-size="14.00">num: 9</text>
<polyline fill="none" stroke="#ffe9c7" points="4007,-111.5 4372,-111.5 "/>
<text text-anchor="middle" x="4189.5" y="-96.3" font-family="Times,serif" font-size="14.00">data: конец</text>
<polyline fill="none" stroke="#ffe9c7" points="4007,-88.5 4372,-88.5 "/>
<text text-anchor="middle" x="4189.5" y="-73.3" font-family="Times,serif" font-size="14.00">curr: 0x5040000000d0</text>
<polyline fill="none" stroke="#ffe9c7" points="4007,-65.5 4372,-65.5 "/>
<text text-anchor="middle" x="4098.5" y="-50.3" font-family="Times,serif" font-size="14.00">prev: 0x504000000090</text>
<polyline fill="none" stroke="#ffe9c7" points="4190,-42.5 4190,-65.5 "/>
<text text-anchor="middle" x="4281" y="-50.3" font-family="Times,serif" font-size="14.00">next: 0x506000000140</text>
</g>
<!-- node_0x504000000090&#45;&gt;node_0x5040000000d0 -->
<g id="edge19" class="edge">
<title>node_0x504000000090&#45;&gt;node_0x5040000000d0</title>
<path fill="none" stroke="#ff6699" d="M3971.11,-73C3971.11,-73 3996.85,-73 3996.85,-73"/>
<polygon fill="#ff6699" stroke="#ff6699" points="3996.85,-76.5 4006.85,-73 3996.85,-69.5 3996.85,-76.5"/>
</g>
<!-- node_0x5040000000d0&#45;&gt;node_0x504000000090 -->
<g id="edge22" class="edge">
<title>node_0x5040000000d0&#45;&gt;node_0x504000000090</title>
<path fill="none" stroke="#34cb34" d="M4006.89,-104C4006.89,-104 3981.15,-104 3981.15,-104"/>
<polygon fill="#34cb34" stroke="#34cb34" points="3981.15,-100.5 3971.15,-104 3981.15,-107.5 3981.15,-100.5"/>
</g>
<!-- node_0x506000000140 -->
<g id="node12" class="node">
<title>node_0x506000000140</title>
<path fill="#9966ff" stroke="#ffe9c7" d="M4420,-42.5C4420,-42.5 4761,-42.5 4761,-42.5 4767,-42.5 4773,-48.5 4773,-54.5 4773,-54.5 4773,-122.5 4773,-122.5 4773,-128.5 4767,-134.5 4761,-134.5 4761,-134.5 4420,-134.5 4420,-134.5 4414,-134.5 4408,-128.5 4408,-122.5 4408,-122.5 4408,-54.5 4408,-54.5 4408,-48.5 4414,-42.5 4420,-42.5"/>
<text text-anchor="middle" x="4590.5" y="-119.3" font-family="Times,serif" font-size="14.00">num: 10</text>
<polyline fill="none" stroke="#ffe9c7" points="4408,-111.5 4773,-111.5 "/>
<text text-anchor="middle" x="4590.5" y="-96.3" font-family="Times,serif" font-size="14.00">data: на&#45;базу</text>
<polyline fill="none" stroke="#ffe9c7" points="4408,-88.5 4773,-88.5 "/>
<text text-anchor="middle" x="4590.5" y="-73.3" font-family="Times,serif" font-size="14.00">curr: 0x506000000140</text>
<polyline fill="none" stroke="#ffe9c7" points="4408,-65.5 4773,-65.5 "/>
<text text-anchor="middle" x="4499.5" y="-50.3" font-family="Times,serif" font-size="14.00">prev: 0x5040000000d0</text>
<polyline fill="none" stroke="#ffe9c7" points="4591,-42.5 4591,-65.5 "/>
<text text-anchor="middle" x="4682" y="-50.3" font-family="Times,serif" font-size="14.00">next: 0x5030000000a0</text>
</g>
<!-- node_0x5040000000d0&#45;&gt;node_0x506000000140 -->
<g id="edge21" class="edge">
<title>node_0x5040000000d0&#45;&gt;node_0x506000000140</title>
<path fill="none" stroke="#ff6699" d="M4372.11,-73C4372.11,-73 4397.85,-73 4397.85,-73"/>
<polygon fill="#ff6699" stroke="#ff6699" points="4397.85,-76.5 4407.85,-73 4397.85,-69.5 4397.85,-76.5"/>
</g>
<!-- node_0x506000000140&#45;&gt;node_0x5040000000d0 -->
<g id="edge24" class="edge">
<title>node_0x506000000140&#45;&gt;node_0x5040000000d0</title>
<path fill="none" stroke="#34cb34" d="M4407.89,-104C4407.89,-104 4382.15,-104 4382.15,-104"/>
<polygon fill="#34cb34" stroke="#34cb34" points="4382.15,-100.5 4372.15,-104 4382.15,-107.5 4382.15,-100.5"/>
</g>
<!-- node_0x5030000000a0 -->
<g id="node13" class="node">
<title>node_0x5030000000a0</title>
<path fill="#9966ff" stroke="#ffe9c7" d="M4821,-42.5C4821,-42.5 5162,-42.5 5162,-42.5 5168,-42.5 5174,-48.5 5174,-54.5 5174,-54.5 5174,-122.5 5174,-122.5 5174,-128.5 5168,-134.5 5162,-134.5 5162,-134.5 4821,-134.5 4821,-134.5 4815,-134.5 4809,-128.5 4809,-122.5 4809,-122.5 4809,-54.5 4809,-54.5 4809,-48.5 4815,-42.5 4821,-42.5"/>
<text text-anchor="middle" x="4991.5" y="-119.3" font-family="Times,serif" font-size="14.00">num: 11</text>
<polyline fill="none" stroke="#ffe9c7" points="4809,-111.5 5174,-111.5 "/>
<text text-anchor="middle" x="4991.5" y="-96.3" font-family="Times,serif" font-size="14.00">data: x</text>
<polyline fill="none" stroke="#ffe9c7" points="4809,-88.5 5174,-88.5 "/>
<text text-anchor="middle" x="4991.5" y="-73.3" font-family="Times,serif" font-size="14.00">curr: 0x5030000000a0</text>
<polyline fill="none" stroke="#ffe9c7" points="4809,-65.5 5174,-65.5 "/>
<text text-anchor="middle" x="4900.5" y="-50.3" font-family="Times,serif" font-size="14.00">prev: 0x506000000140</text>
<polyline fill="none" stroke="#ffe9c7" points="4992,-42.5 4992,-65.5 "/>
<text text-anchor="middle" x="5083" y="-50.3" font-family="Times,serif" font-size="14.00">next: 0x504000000110</text>
</g>
<!-- node_0x506000000140&#45;&gt;node_0x5030000000a0 -->
<g id="edge23" class="edge">
<title>node_0x506000000140&#45;&gt;node_0x5030000000a0</title>
<path fill="none" stroke="#ff6699" d="M4773.11,-73C4773.11,-73 4798.85,-73 4798.85,-73"/>
<polygon fill="#ff6699" stroke="#ff6699" points="4798.85,-76.5 4808.85,-73 4798.85,-69.5 4798.85,-76.5"/>
</g>
<!-- node_0x5030000000a0&#45;&gt;node_0x506000000140 -->
<g id="edge26" class="edge">
<title>node_0x5030000000a0&#45;&gt;node_0x506000000140</title>
<path fill="none" stroke="#34cb34" d="M4808.89,-104C4808.89,-104 4783.15,-104 4783.15,-104"/>
<polygon fill="#34cb34" stroke="#34cb34" points="4783.15,-100.5 4773.15,-104 4783.15,-107.5 4783.15,-100.5"/>
</g>
<!-- node_0x504000000110 -->
<g id="node14" class="node">
<title>node_0x504000000110</title>
<path fill="#9966ff" stroke="#ffe9c7" d="M5222,-42.5C5222,-42.5 5562,-42.5 5562,-42.5 5568,-42.5 5574,-48.5 5574,-54.5 5574,-54.5 5574,-122.5 5574,-122.5 5574,-128.5 5568,-134.5 5562,-134.5 5562,-134.5 5222,-134.5 5222,-134.5 5216,-134.5 5210,-128.5 5210,-122.5 5210,-122.5 5210,-54.5 5210,-54.5 5210,-48.5 5216,-42.5 5222,-42.5"/>
<text text-anchor="middle" x="5392" y="-119.3" font-family="Times,serif" font-size="14.00">num: 12</text>
<polyline fill="none" stroke="#ffe9c7" points="5210,-111.5 5574,-111.5 "/>
<text text-anchor="middle" x="5392" y="-96.3" font-family="Times,serif" font-size="14.00">data: конец</text>
<polyline fill="none" stroke="#ffe9c7" points="5210,-88.5 5574,-88.5 "/>
<text text-anchor="middle" x="5392" y="-73.3" font-family="Times,serif" font-size="14.00">curr: 0x504000000110</text>
<polyline fill="none" stroke="#ffe9c7" points="5210,-65.5 5574,-65.5 "/>
<text text-anchor="middle" x="5301" y="-50.3" font-family="Times,serif" font-size="14.00">prev: 0x5030000000a0</text>
<polyline fill="none" stroke="#ffe9c7" points="5392,-42.5 5392,-65.5 "/>
<text text-anchor="middle" x="5483" y="-50.3" font-family="Times,serif" font-size="14.00">next: 0x5070000001e0</text>
</g>
<!-- node_0x5030000000a0&#45;&gt;node_0x504000000110 -->
<g id="edge25" class="edge">
<title>node_0x5030000000a0&#45;&gt;node_0x504000000110</title>
<path fill="none" stroke="#ff6699" d="M5174.17,-73C5174.17,-73 5199.84,-73 5199.84,-73"/>
<polygon fill="#ff6699" stroke="#ff6699" points="5199.84,-76.5 5209.84,-73 5199.84,-69.5 5199.84,-76.5"/>
</g>
<!-- node_0x504000000110&#45;&gt;node_0x5030000000a0 -->
<g id="edge28" class="edge">
<title>node_0x504000000110&#45;&gt;node_0x5030000000a0</title>
<path fill="none" stroke="#34cb34" d="M5209.91,-104C5209.91,-104 5184.18,-104 5184.18,-104"/>
<polygon fill="#34cb34" stroke="#34cb34" points="5184.18,-100.5 5174.18,-104 5184.18,-107.5 5184.18,-100.5"/>
</g>
<!-- node_0x504000000110&#45;&gt;node_0x5070000001e0 -->
<g id="edge27" class="edge">
<title>node_0x504000000110&#45;&gt;node_0x5070000001e0</title>
<path fill="none" stroke="#ff6699" d="M5574.09,-59C5574.09,-59 5599.82,-59 5599.82,-59"/>
<polygon fill="#ff6699" stroke="#ff6699" points="5599.82,-62.5 5609.82,-59 5599.82,-55.5 5599.82,-62.5"/>
</g>
<!-- node_0x5070000001e0&#45;&gt;node_0x506000000020 -->
<g id="edge29" class="edge">
<title>node_0x5070000001e0&#45;&gt;node_0x506000000020</title>
<path fill="none" stroke="#ff6699" d="M5609.81,-28C5609.81,-28 374.18,-28 374.18,-28"/>
<polygon fill="#ff6699" stroke="#ff6699" points="374.18,-24.5 364.18,-28 374.18,-31.5 374.18,-24.5"/>
</g>
<!-- node_0x5070000001e0&#45;&gt;node_0x504000000110 -->
<g id="edge30" class="edge">
<title>node_0x5070000001e0&#45;&gt;node_0x504000000110</title>
<path fill="none" stroke="#34cb34" d="M5609.83,-76C5609.83,-76 5584.16,-76 5584.16,-76"/>
<polygon fill="#34cb34" stroke="#34cb34" points="5584.16,-72.5 5574.16,-76 5584.16,-79.5 5584.16,-72.5"/>
</g>
</g>
</svg>
