<?xml version="1.0" encoding="UTF-8" standalone="no"?>
<!DOCTYPE svg PUBLIC "-//W3C//DTD SVG 1.1//EN"
 "http://www.w3.org/Graphics/SVG/1.1/DTD/svg11.dtd">
<!-- Generated by graphviz version 2.43.0 (0)
 -->
<!-- Title: G Pages: 1 -->
<svg width="774pt" height="142pt"
 viewBox="0.00 0.00 774.00 142.00" xmlns="http://www.w3.org/2000/svg" xmlns:xlink="http://www.w3.org/1999/xlink">
<g id="graph0" class="graph" transform="scale(1 1) rotate(0) translate(4 138)">
<title>G</title>
<polygon fill="#ffd480" stroke="transparent" points="-4,4 -4,-138 770,-138 770,4 -4,4"/>
<text text-anchor="middle" x="383" y="-106" font-family="Verdana" font-size="30.00" fill="#ffffff">List</text>
<!-- node_0x506000000080 -->
<g id="node1" class="node">
<title>node_0x506000000080</title>
<path fill="#ff6699" stroke="#ffe9c7" d="M12,-0.5C12,-0.5 353,-0.5 353,-0.5 359,-0.5 365,-6.5 365,-12.5 365,-12.5 365,-80.5 365,-80.5 365,-86.5 359,-92.5 353,-92.5 353,-92.5 12,-92.5 12,-92.5 6,-92.5 0,-86.5 0,-80.5 0,-80.5 0,-12.5 0,-12.5 0,-6.5 6,-0.5 12,-0.5"/>
<text text-anchor="middle" x="182.5" y="-77.3" font-family="Times,serif" font-size="14.00">Phantom</text>
<polyline fill="none" stroke="#ffe9c7" points="0,-69.5 365,-69.5 "/>
<text text-anchor="middle" x="182.5" y="-54.3" font-family="Times,serif" font-size="14.00">data: BADBABA</text>
<polyline fill="none" stroke="#ffe9c7" points="0,-46.5 365,-46.5 "/>
<text text-anchor="middle" x="182.5" y="-31.3" font-family="Times,serif" font-size="14.00">curr: 0x506000000080</text>
<polyline fill="none" stroke="#ffe9c7" points="0,-23.5 365,-23.5 "/>
<text text-anchor="middle" x="91.5" y="-8.3" font-family="Times,serif" font-size="14.00">prev: 0x503000000100</text>
<polyline fill="none" stroke="#ffe9c7" points="183,-0.5 183,-23.5 "/>
<text text-anchor="middle" x="274" y="-8.3" font-family="Times,serif" font-size="14.00">next: 0x503000000100</text>
</g>
<!-- node_0x503000000100 -->
<g id="node2" class="node">
<title>node_0x503000000100</title>
<path fill="#9966ff" stroke="#ffe9c7" d="M413,-0.5C413,-0.5 754,-0.5 754,-0.5 760,-0.5 766,-6.5 766,-12.5 766,-12.5 766,-80.5 766,-80.5 766,-86.5 760,-92.5 754,-92.5 754,-92.5 413,-92.5 413,-92.5 407,-92.5 401,-86.5 401,-80.5 401,-80.5 401,-12.5 401,-12.5 401,-6.5 407,-0.5 413,-0.5"/>
<text text-anchor="middle" x="583.5" y="-77.3" font-family="Times,serif" font-size="14.00">num: 0</text>
<polyline fill="none" stroke="#ffe9c7" points="401,-69.5 766,-69.5 "/>
<text text-anchor="middle" x="583.5" y="-54.3" font-family="Times,serif" font-size="14.00">data: x</text>
<polyline fill="none" stroke="#ffe9c7" points="401,-46.5 766,-46.5 "/>
<text text-anchor="middle" x="583.5" y="-31.3" font-family="Times,serif" font-size="14.00">curr: 0x503000000100</text>
<polyline fill="none" stroke="#ffe9c7" points="401,-23.5 766,-23.5 "/>
<text text-anchor="middle" x="492.5" y="-8.3" font-family="Times,serif" font-size="14.00">prev: 0x506000000080</text>
<polyline fill="none" stroke="#ffe9c7" points="584,-0.5 584,-23.5 "/>
<text text-anchor="middle" x="675" y="-8.3" font-family="Times,serif" font-size="14.00">next: 0x506000000080</text>
</g>
<!-- node_0x506000000080&#45;&gt;node_0x503000000100 -->
<g id="edge1" class="edge">
<title>node_0x506000000080&#45;&gt;node_0x503000000100</title>
<path fill="none" stroke="#ff6699" d="M365.11,-18.6C365.11,-18.6 390.85,-18.6 390.85,-18.6"/>
<polygon fill="#ff6699" stroke="#ff6699" points="390.85,-22.1 400.85,-18.6 390.85,-15.1 390.85,-22.1"/>
</g>
<!-- node_0x506000000080&#45;&gt;node_0x503000000100 -->
<g id="edge2" class="edge">
<title>node_0x506000000080&#45;&gt;node_0x503000000100</title>
<path fill="none" stroke="#34cb34" d="M365.11,-37.2C365.11,-37.2 390.85,-37.2 390.85,-37.2"/>
<polygon fill="#34cb34" stroke="#34cb34" points="390.85,-40.7 400.85,-37.2 390.85,-33.7 390.85,-40.7"/>
</g>
<!-- node_0x503000000100&#45;&gt;node_0x506000000080 -->
<g id="edge3" class="edge">
<title>node_0x503000000100&#45;&gt;node_0x506000000080</title>
<path fill="none" stroke="#ff6699" d="M400.89,-55.8C400.89,-55.8 375.15,-55.8 375.15,-55.8"/>
<polygon fill="#ff6699" stroke="#ff6699" points="375.15,-52.3 365.15,-55.8 375.15,-59.3 375.15,-52.3"/>
</g>
<!-- node_0x503000000100&#45;&gt;node_0x506000000080 -->
<g id="edge4" class="edge">
<title>node_0x503000000100&#45;&gt;node_0x506000000080</title>
<path fill="none" stroke="#34cb34" d="M400.89,-74.4C400.89,-74.4 375.15,-74.4 375.15,-74.4"/>
<polygon fill="#34cb34" stroke="#34cb34" points="375.15,-70.9 365.15,-74.4 375.15,-77.9 375.15,-70.9"/>
</g>
</g>
</svg>
