<?xml version="1.0" encoding="UTF-8" standalone="no"?>
<!DOCTYPE svg PUBLIC "-//W3C//DTD SVG 1.1//EN"
 "http://www.w3.org/Graphics/SVG/1.1/DTD/svg11.dtd">
<!-- Generated by graphviz version 2.43.0 (0)
 -->
<!-- Title: G Pages: 1 -->
<svg width="7976pt" height="184pt"
 viewBox="0.00 0.00 7976.00 184.00" xmlns="http://www.w3.org/2000/svg" xmlns:xlink="http://www.w3.org/1999/xlink">
<g id="graph0" class="graph" transform="scale(1 1) rotate(0) translate(4 180)">
<title>G</title>
<polygon fill="#ffd480" stroke="transparent" points="-4,4 -4,-180 7972,-180 7972,4 -4,4"/>
<text text-anchor="middle" x="3984" y="-148" font-family="Verdana" font-size="30.00" fill="#ffffff">List</text>
<!-- node_0x506000000b60 -->
<g id="node1" class="node">
<title>node_0x506000000b60</title>
<path fill="#ff6699" stroke="#ffe9c7" d="M12,-0.5C12,-0.5 352,-0.5 352,-0.5 358,-0.5 364,-6.5 364,-12.5 364,-12.5 364,-80.5 364,-80.5 364,-86.5 358,-92.5 352,-92.5 352,-92.5 12,-92.5 12,-92.5 6,-92.5 0,-86.5 0,-80.5 0,-80.5 0,-12.5 0,-12.5 0,-6.5 6,-0.5 12,-0.5"/>
<text text-anchor="middle" x="182" y="-77.3" font-family="Times,serif" font-size="14.00">Phantom</text>
<polyline fill="none" stroke="#ffe9c7" points="0,-69.5 364,-69.5 "/>
<text text-anchor="middle" x="182" y="-54.3" font-family="Times,serif" font-size="14.00">data: BADBABA</text>
<polyline fill="none" stroke="#ffe9c7" points="0,-46.5 364,-46.5 "/>
<text text-anchor="middle" x="182" y="-31.3" font-family="Times,serif" font-size="14.00">curr: 0x506000000b60</text>
<polyline fill="none" stroke="#ffe9c7" points="0,-23.5 364,-23.5 "/>
<text text-anchor="middle" x="91" y="-8.3" font-family="Times,serif" font-size="14.00">prev: 0x504000000a90</text>
<polyline fill="none" stroke="#ffe9c7" points="182,-0.5 182,-23.5 "/>
<text text-anchor="middle" x="273" y="-8.3" font-family="Times,serif" font-size="14.00">next: 0x504000000810</text>
</g>
<!-- node_0x504000000810 -->
<g id="node2" class="node">
<title>node_0x504000000810</title>
<path fill="#9966ff" stroke="#ffe9c7" d="M412,-42.5C412,-42.5 753,-42.5 753,-42.5 759,-42.5 765,-48.5 765,-54.5 765,-54.5 765,-122.5 765,-122.5 765,-128.5 759,-134.5 753,-134.5 753,-134.5 412,-134.5 412,-134.5 406,-134.5 400,-128.5 400,-122.5 400,-122.5 400,-54.5 400,-54.5 400,-48.5 406,-42.5 412,-42.5"/>
<text text-anchor="middle" x="582.5" y="-119.3" font-family="Times,serif" font-size="14.00">num: 0</text>
<polyline fill="none" stroke="#ffe9c7" points="400,-111.5 765,-111.5 "/>
<text text-anchor="middle" x="582.5" y="-96.3" font-family="Times,serif" font-size="14.00">data: main</text>
<polyline fill="none" stroke="#ffe9c7" points="400,-88.5 765,-88.5 "/>
<text text-anchor="middle" x="582.5" y="-73.3" font-family="Times,serif" font-size="14.00">curr: 0x504000000810</text>
<polyline fill="none" stroke="#ffe9c7" points="400,-65.5 765,-65.5 "/>
<text text-anchor="middle" x="491.5" y="-50.3" font-family="Times,serif" font-size="14.00">prev: 0x506000000b60</text>
<polyline fill="none" stroke="#ffe9c7" points="583,-42.5 583,-65.5 "/>
<text text-anchor="middle" x="674" y="-50.3" font-family="Times,serif" font-size="14.00">next: 0x504000000850</text>
</g>
<!-- node_0x506000000b60&#45;&gt;node_0x504000000810 -->
<g id="edge1" class="edge">
<title>node_0x506000000b60&#45;&gt;node_0x504000000810</title>
<path fill="none" stroke="#ff6699" d="M364.09,-59C364.09,-59 389.82,-59 389.82,-59"/>
<polygon fill="#ff6699" stroke="#ff6699" points="389.82,-62.5 399.82,-59 389.82,-55.5 389.82,-62.5"/>
</g>
<!-- node_0x504000000a90 -->
<g id="node20" class="node">
<title>node_0x504000000a90</title>
<path fill="#9966ff" stroke="#ffe9c7" d="M7616,-0.5C7616,-0.5 7956,-0.5 7956,-0.5 7962,-0.5 7968,-6.5 7968,-12.5 7968,-12.5 7968,-80.5 7968,-80.5 7968,-86.5 7962,-92.5 7956,-92.5 7956,-92.5 7616,-92.5 7616,-92.5 7610,-92.5 7604,-86.5 7604,-80.5 7604,-80.5 7604,-12.5 7604,-12.5 7604,-6.5 7610,-0.5 7616,-0.5"/>
<text text-anchor="middle" x="7786" y="-77.3" font-family="Times,serif" font-size="14.00">num: 18</text>
<polyline fill="none" stroke="#ffe9c7" points="7604,-69.5 7968,-69.5 "/>
<text text-anchor="middle" x="7786" y="-54.3" font-family="Times,serif" font-size="14.00">data: var8</text>
<polyline fill="none" stroke="#ffe9c7" points="7604,-46.5 7968,-46.5 "/>
<text text-anchor="middle" x="7786" y="-31.3" font-family="Times,serif" font-size="14.00">curr: 0x504000000a90</text>
<polyline fill="none" stroke="#ffe9c7" points="7604,-23.5 7968,-23.5 "/>
<text text-anchor="middle" x="7695" y="-8.3" font-family="Times,serif" font-size="14.00">prev: 0x504000000a50</text>
<polyline fill="none" stroke="#ffe9c7" points="7786,-0.5 7786,-23.5 "/>
<text text-anchor="middle" x="7877" y="-8.3" font-family="Times,serif" font-size="14.00">next: 0x506000000b60</text>
</g>
<!-- node_0x506000000b60&#45;&gt;node_0x504000000a90 -->
<g id="edge2" class="edge">
<title>node_0x506000000b60&#45;&gt;node_0x504000000a90</title>
<path fill="none" stroke="#34cb34" d="M364.33,-14C364.33,-14 7593.61,-14 7593.61,-14"/>
<polygon fill="#34cb34" stroke="#34cb34" points="7593.61,-17.5 7603.61,-14 7593.61,-10.5 7593.61,-17.5"/>
</g>
<!-- node_0x504000000810&#45;&gt;node_0x506000000b60 -->
<g id="edge4" class="edge">
<title>node_0x504000000810&#45;&gt;node_0x506000000b60</title>
<path fill="none" stroke="#34cb34" d="M399.83,-76C399.83,-76 374.16,-76 374.16,-76"/>
<polygon fill="#34cb34" stroke="#34cb34" points="374.16,-72.5 364.16,-76 374.16,-79.5 374.16,-72.5"/>
</g>
<!-- node_0x504000000850 -->
<g id="node3" class="node">
<title>node_0x504000000850</title>
<path fill="#9966ff" stroke="#ffe9c7" d="M813,-42.5C813,-42.5 1154,-42.5 1154,-42.5 1160,-42.5 1166,-48.5 1166,-54.5 1166,-54.5 1166,-122.5 1166,-122.5 1166,-128.5 1160,-134.5 1154,-134.5 1154,-134.5 813,-134.5 813,-134.5 807,-134.5 801,-128.5 801,-122.5 801,-122.5 801,-54.5 801,-54.5 801,-48.5 807,-42.5 813,-42.5"/>
<text text-anchor="middle" x="983.5" y="-119.3" font-family="Times,serif" font-size="14.00">num: 1</text>
<polyline fill="none" stroke="#ffe9c7" points="801,-111.5 1166,-111.5 "/>
<text text-anchor="middle" x="983.5" y="-96.3" font-family="Times,serif" font-size="14.00">data: two</text>
<polyline fill="none" stroke="#ffe9c7" points="801,-88.5 1166,-88.5 "/>
<text text-anchor="middle" x="983.5" y="-73.3" font-family="Times,serif" font-size="14.00">curr: 0x504000000850</text>
<polyline fill="none" stroke="#ffe9c7" points="801,-65.5 1166,-65.5 "/>
<text text-anchor="middle" x="892.5" y="-50.3" font-family="Times,serif" font-size="14.00">prev: 0x504000000810</text>
<polyline fill="none" stroke="#ffe9c7" points="984,-42.5 984,-65.5 "/>
<text text-anchor="middle" x="1075" y="-50.3" font-family="Times,serif" font-size="14.00">next: 0x504000000890</text>
</g>
<!-- node_0x504000000810&#45;&gt;node_0x504000000850 -->
<g id="edge3" class="edge">
<title>node_0x504000000810&#45;&gt;node_0x504000000850</title>
<path fill="none" stroke="#ff6699" d="M765.11,-73C765.11,-73 790.85,-73 790.85,-73"/>
<polygon fill="#ff6699" stroke="#ff6699" points="790.85,-76.5 800.85,-73 790.85,-69.5 790.85,-76.5"/>
</g>
<!-- node_0x504000000850&#45;&gt;node_0x504000000810 -->
<g id="edge6" class="edge">
<title>node_0x504000000850&#45;&gt;node_0x504000000810</title>
<path fill="none" stroke="#34cb34" d="M800.89,-104C800.89,-104 775.15,-104 775.15,-104"/>
<polygon fill="#34cb34" stroke="#34cb34" points="775.15,-100.5 765.15,-104 775.15,-107.5 775.15,-100.5"/>
</g>
<!-- node_0x504000000890 -->
<g id="node4" class="node">
<title>node_0x504000000890</title>
<path fill="#9966ff" stroke="#ffe9c7" d="M1214,-42.5C1214,-42.5 1554,-42.5 1554,-42.5 1560,-42.5 1566,-48.5 1566,-54.5 1566,-54.5 1566,-122.5 1566,-122.5 1566,-128.5 1560,-134.5 1554,-134.5 1554,-134.5 1214,-134.5 1214,-134.5 1208,-134.5 1202,-128.5 1202,-122.5 1202,-122.5 1202,-54.5 1202,-54.5 1202,-48.5 1208,-42.5 1214,-42.5"/>
<text text-anchor="middle" x="1384" y="-119.3" font-family="Times,serif" font-size="14.00">num: 2</text>
<polyline fill="none" stroke="#ffe9c7" points="1202,-111.5 1566,-111.5 "/>
<text text-anchor="middle" x="1384" y="-96.3" font-family="Times,serif" font-size="14.00">data: func</text>
<polyline fill="none" stroke="#ffe9c7" points="1202,-88.5 1566,-88.5 "/>
<text text-anchor="middle" x="1384" y="-73.3" font-family="Times,serif" font-size="14.00">curr: 0x504000000890</text>
<polyline fill="none" stroke="#ffe9c7" points="1202,-65.5 1566,-65.5 "/>
<text text-anchor="middle" x="1293.5" y="-50.3" font-family="Times,serif" font-size="14.00">prev: 0x504000000850</text>
<polyline fill="none" stroke="#ffe9c7" points="1385,-42.5 1385,-65.5 "/>
<text text-anchor="middle" x="1475.5" y="-50.3" font-family="Times,serif" font-size="14.00">next: 0x506000000bc0</text>
</g>
<!-- node_0x504000000850&#45;&gt;node_0x504000000890 -->
<g id="edge5" class="edge">
<title>node_0x504000000850&#45;&gt;node_0x504000000890</title>
<path fill="none" stroke="#ff6699" d="M1166.17,-73C1166.17,-73 1191.84,-73 1191.84,-73"/>
<polygon fill="#ff6699" stroke="#ff6699" points="1191.84,-76.5 1201.84,-73 1191.84,-69.5 1191.84,-76.5"/>
</g>
<!-- node_0x504000000890&#45;&gt;node_0x504000000850 -->
<g id="edge8" class="edge">
<title>node_0x504000000890&#45;&gt;node_0x504000000850</title>
<path fill="none" stroke="#34cb34" d="M1201.91,-104C1201.91,-104 1176.18,-104 1176.18,-104"/>
<polygon fill="#34cb34" stroke="#34cb34" points="1176.18,-100.5 1166.18,-104 1176.18,-107.5 1176.18,-100.5"/>
</g>
<!-- node_0x506000000bc0 -->
<g id="node5" class="node">
<title>node_0x506000000bc0</title>
<path fill="#9966ff" stroke="#ffe9c7" d="M1614,-42.5C1614,-42.5 1954,-42.5 1954,-42.5 1960,-42.5 1966,-48.5 1966,-54.5 1966,-54.5 1966,-122.5 1966,-122.5 1966,-128.5 1960,-134.5 1954,-134.5 1954,-134.5 1614,-134.5 1614,-134.5 1608,-134.5 1602,-128.5 1602,-122.5 1602,-122.5 1602,-54.5 1602,-54.5 1602,-48.5 1608,-42.5 1614,-42.5"/>
<text text-anchor="middle" x="1784" y="-119.3" font-family="Times,serif" font-size="14.00">num: 3</text>
<polyline fill="none" stroke="#ffe9c7" points="1602,-111.5 1966,-111.5 "/>
<text text-anchor="middle" x="1784" y="-96.3" font-family="Times,serif" font-size="14.00">data: param1</text>
<polyline fill="none" stroke="#ffe9c7" points="1602,-88.5 1966,-88.5 "/>
<text text-anchor="middle" x="1784" y="-73.3" font-family="Times,serif" font-size="14.00">curr: 0x506000000bc0</text>
<polyline fill="none" stroke="#ffe9c7" points="1602,-65.5 1966,-65.5 "/>
<text text-anchor="middle" x="1693.5" y="-50.3" font-family="Times,serif" font-size="14.00">prev: 0x504000000890</text>
<polyline fill="none" stroke="#ffe9c7" points="1785,-42.5 1785,-65.5 "/>
<text text-anchor="middle" x="1875.5" y="-50.3" font-family="Times,serif" font-size="14.00">next: 0x506000000c20</text>
</g>
<!-- node_0x504000000890&#45;&gt;node_0x506000000bc0 -->
<g id="edge7" class="edge">
<title>node_0x504000000890&#45;&gt;node_0x506000000bc0</title>
<path fill="none" stroke="#ff6699" d="M1566.15,-73C1566.15,-73 1591.81,-73 1591.81,-73"/>
<polygon fill="#ff6699" stroke="#ff6699" points="1591.81,-76.5 1601.81,-73 1591.81,-69.5 1591.81,-76.5"/>
</g>
<!-- node_0x506000000bc0&#45;&gt;node_0x504000000890 -->
<g id="edge10" class="edge">
<title>node_0x506000000bc0&#45;&gt;node_0x504000000890</title>
<path fill="none" stroke="#34cb34" d="M1601.85,-104C1601.85,-104 1576.19,-104 1576.19,-104"/>
<polygon fill="#34cb34" stroke="#34cb34" points="1576.19,-100.5 1566.19,-104 1576.19,-107.5 1576.19,-100.5"/>
</g>
<!-- node_0x506000000c20 -->
<g id="node6" class="node">
<title>node_0x506000000c20</title>
<path fill="#9966ff" stroke="#ffe9c7" d="M2014,-42.5C2014,-42.5 2353,-42.5 2353,-42.5 2359,-42.5 2365,-48.5 2365,-54.5 2365,-54.5 2365,-122.5 2365,-122.5 2365,-128.5 2359,-134.5 2353,-134.5 2353,-134.5 2014,-134.5 2014,-134.5 2008,-134.5 2002,-128.5 2002,-122.5 2002,-122.5 2002,-54.5 2002,-54.5 2002,-48.5 2008,-42.5 2014,-42.5"/>
<text text-anchor="middle" x="2183.5" y="-119.3" font-family="Times,serif" font-size="14.00">num: 4</text>
<polyline fill="none" stroke="#ffe9c7" points="2002,-111.5 2365,-111.5 "/>
<text text-anchor="middle" x="2183.5" y="-96.3" font-family="Times,serif" font-size="14.00">data: param2</text>
<polyline fill="none" stroke="#ffe9c7" points="2002,-88.5 2365,-88.5 "/>
<text text-anchor="middle" x="2183.5" y="-73.3" font-family="Times,serif" font-size="14.00">curr: 0x506000000c20</text>
<polyline fill="none" stroke="#ffe9c7" points="2002,-65.5 2365,-65.5 "/>
<text text-anchor="middle" x="2093" y="-50.3" font-family="Times,serif" font-size="14.00">prev: 0x506000000bc0</text>
<polyline fill="none" stroke="#ffe9c7" points="2184,-42.5 2184,-65.5 "/>
<text text-anchor="middle" x="2274.5" y="-50.3" font-family="Times,serif" font-size="14.00">next: 0x506000000c80</text>
</g>
<!-- node_0x506000000bc0&#45;&gt;node_0x506000000c20 -->
<g id="edge9" class="edge">
<title>node_0x506000000bc0&#45;&gt;node_0x506000000c20</title>
<path fill="none" stroke="#ff6699" d="M1966.21,-73C1966.21,-73 1991.79,-73 1991.79,-73"/>
<polygon fill="#ff6699" stroke="#ff6699" points="1991.79,-76.5 2001.79,-73 1991.79,-69.5 1991.79,-76.5"/>
</g>
<!-- node_0x506000000c20&#45;&gt;node_0x506000000bc0 -->
<g id="edge12" class="edge">
<title>node_0x506000000c20&#45;&gt;node_0x506000000bc0</title>
<path fill="none" stroke="#34cb34" d="M2001.87,-104C2001.87,-104 1976.22,-104 1976.22,-104"/>
<polygon fill="#34cb34" stroke="#34cb34" points="1976.22,-100.5 1966.22,-104 1976.22,-107.5 1976.22,-100.5"/>
</g>
<!-- node_0x506000000c80 -->
<g id="node7" class="node">
<title>node_0x506000000c80</title>
<path fill="#9966ff" stroke="#ffe9c7" d="M2413,-42.5C2413,-42.5 2751,-42.5 2751,-42.5 2757,-42.5 2763,-48.5 2763,-54.5 2763,-54.5 2763,-122.5 2763,-122.5 2763,-128.5 2757,-134.5 2751,-134.5 2751,-134.5 2413,-134.5 2413,-134.5 2407,-134.5 2401,-128.5 2401,-122.5 2401,-122.5 2401,-54.5 2401,-54.5 2401,-48.5 2407,-42.5 2413,-42.5"/>
<text text-anchor="middle" x="2582" y="-119.3" font-family="Times,serif" font-size="14.00">num: 5</text>
<polyline fill="none" stroke="#ffe9c7" points="2401,-111.5 2763,-111.5 "/>
<text text-anchor="middle" x="2582" y="-96.3" font-family="Times,serif" font-size="14.00">data: param3</text>
<polyline fill="none" stroke="#ffe9c7" points="2401,-88.5 2763,-88.5 "/>
<text text-anchor="middle" x="2582" y="-73.3" font-family="Times,serif" font-size="14.00">curr: 0x506000000c80</text>
<polyline fill="none" stroke="#ffe9c7" points="2401,-65.5 2763,-65.5 "/>
<text text-anchor="middle" x="2492" y="-50.3" font-family="Times,serif" font-size="14.00">prev: 0x506000000c20</text>
<polyline fill="none" stroke="#ffe9c7" points="2583,-42.5 2583,-65.5 "/>
<text text-anchor="middle" x="2673" y="-50.3" font-family="Times,serif" font-size="14.00">next: 0x506000000ce0</text>
</g>
<!-- node_0x506000000c20&#45;&gt;node_0x506000000c80 -->
<g id="edge11" class="edge">
<title>node_0x506000000c20&#45;&gt;node_0x506000000c80</title>
<path fill="none" stroke="#ff6699" d="M2365.26,-73C2365.26,-73 2390.75,-73 2390.75,-73"/>
<polygon fill="#ff6699" stroke="#ff6699" points="2390.75,-76.5 2400.75,-73 2390.75,-69.5 2390.75,-76.5"/>
</g>
<!-- node_0x506000000c80&#45;&gt;node_0x506000000c20 -->
<g id="edge14" class="edge">
<title>node_0x506000000c80&#45;&gt;node_0x506000000c20</title>
<path fill="none" stroke="#34cb34" d="M2400.82,-104C2400.82,-104 2375.27,-104 2375.27,-104"/>
<polygon fill="#34cb34" stroke="#34cb34" points="2375.27,-100.5 2365.27,-104 2375.27,-107.5 2375.27,-100.5"/>
</g>
<!-- node_0x506000000ce0 -->
<g id="node8" class="node">
<title>node_0x506000000ce0</title>
<path fill="#9966ff" stroke="#ffe9c7" d="M2811,-42.5C2811,-42.5 3151,-42.5 3151,-42.5 3157,-42.5 3163,-48.5 3163,-54.5 3163,-54.5 3163,-122.5 3163,-122.5 3163,-128.5 3157,-134.5 3151,-134.5 3151,-134.5 2811,-134.5 2811,-134.5 2805,-134.5 2799,-128.5 2799,-122.5 2799,-122.5 2799,-54.5 2799,-54.5 2799,-48.5 2805,-42.5 2811,-42.5"/>
<text text-anchor="middle" x="2981" y="-119.3" font-family="Times,serif" font-size="14.00">num: 6</text>
<polyline fill="none" stroke="#ffe9c7" points="2799,-111.5 3163,-111.5 "/>
<text text-anchor="middle" x="2981" y="-96.3" font-family="Times,serif" font-size="14.00">data: param4</text>
<polyline fill="none" stroke="#ffe9c7" points="2799,-88.5 3163,-88.5 "/>
<text text-anchor="middle" x="2981" y="-73.3" font-family="Times,serif" font-size="14.00">curr: 0x506000000ce0</text>
<polyline fill="none" stroke="#ffe9c7" points="2799,-65.5 3163,-65.5 "/>
<text text-anchor="middle" x="2890" y="-50.3" font-family="Times,serif" font-size="14.00">prev: 0x506000000c80</text>
<polyline fill="none" stroke="#ffe9c7" points="2981,-42.5 2981,-65.5 "/>
<text text-anchor="middle" x="3072" y="-50.3" font-family="Times,serif" font-size="14.00">next: 0x506000000d40</text>
</g>
<!-- node_0x506000000c80&#45;&gt;node_0x506000000ce0 -->
<g id="edge13" class="edge">
<title>node_0x506000000c80&#45;&gt;node_0x506000000ce0</title>
<path fill="none" stroke="#ff6699" d="M2763.11,-73C2763.11,-73 2788.74,-73 2788.74,-73"/>
<polygon fill="#ff6699" stroke="#ff6699" points="2788.74,-76.5 2798.74,-73 2788.74,-69.5 2788.74,-76.5"/>
</g>
<!-- node_0x506000000ce0&#45;&gt;node_0x506000000c80 -->
<g id="edge16" class="edge">
<title>node_0x506000000ce0&#45;&gt;node_0x506000000c80</title>
<path fill="none" stroke="#34cb34" d="M2798.72,-104C2798.72,-104 2773.22,-104 2773.22,-104"/>
<polygon fill="#34cb34" stroke="#34cb34" points="2773.22,-100.5 2763.22,-104 2773.22,-107.5 2773.22,-100.5"/>
</g>
<!-- node_0x506000000d40 -->
<g id="node9" class="node">
<title>node_0x506000000d40</title>
<path fill="#9966ff" stroke="#ffe9c7" d="M3211,-42.5C3211,-42.5 3550,-42.5 3550,-42.5 3556,-42.5 3562,-48.5 3562,-54.5 3562,-54.5 3562,-122.5 3562,-122.5 3562,-128.5 3556,-134.5 3550,-134.5 3550,-134.5 3211,-134.5 3211,-134.5 3205,-134.5 3199,-128.5 3199,-122.5 3199,-122.5 3199,-54.5 3199,-54.5 3199,-48.5 3205,-42.5 3211,-42.5"/>
<text text-anchor="middle" x="3380.5" y="-119.3" font-family="Times,serif" font-size="14.00">num: 7</text>
<polyline fill="none" stroke="#ffe9c7" points="3199,-111.5 3562,-111.5 "/>
<text text-anchor="middle" x="3380.5" y="-96.3" font-family="Times,serif" font-size="14.00">data: param5</text>
<polyline fill="none" stroke="#ffe9c7" points="3199,-88.5 3562,-88.5 "/>
<text text-anchor="middle" x="3380.5" y="-73.3" font-family="Times,serif" font-size="14.00">curr: 0x506000000d40</text>
<polyline fill="none" stroke="#ffe9c7" points="3199,-65.5 3562,-65.5 "/>
<text text-anchor="middle" x="3289.5" y="-50.3" font-family="Times,serif" font-size="14.00">prev: 0x506000000ce0</text>
<polyline fill="none" stroke="#ffe9c7" points="3380,-42.5 3380,-65.5 "/>
<text text-anchor="middle" x="3471" y="-50.3" font-family="Times,serif" font-size="14.00">next: 0x506000000da0</text>
</g>
<!-- node_0x506000000ce0&#45;&gt;node_0x506000000d40 -->
<g id="edge15" class="edge">
<title>node_0x506000000ce0&#45;&gt;node_0x506000000d40</title>
<path fill="none" stroke="#ff6699" d="M3163.21,-73C3163.21,-73 3188.79,-73 3188.79,-73"/>
<polygon fill="#ff6699" stroke="#ff6699" points="3188.79,-76.5 3198.79,-73 3188.79,-69.5 3188.79,-76.5"/>
</g>
<!-- node_0x506000000d40&#45;&gt;node_0x506000000ce0 -->
<g id="edge18" class="edge">
<title>node_0x506000000d40&#45;&gt;node_0x506000000ce0</title>
<path fill="none" stroke="#34cb34" d="M3198.87,-104C3198.87,-104 3173.22,-104 3173.22,-104"/>
<polygon fill="#34cb34" stroke="#34cb34" points="3173.22,-100.5 3163.22,-104 3173.22,-107.5 3173.22,-100.5"/>
</g>
<!-- node_0x506000000da0 -->
<g id="node10" class="node">
<title>node_0x506000000da0</title>
<path fill="#9966ff" stroke="#ffe9c7" d="M3610,-42.5C3610,-42.5 3951,-42.5 3951,-42.5 3957,-42.5 3963,-48.5 3963,-54.5 3963,-54.5 3963,-122.5 3963,-122.5 3963,-128.5 3957,-134.5 3951,-134.5 3951,-134.5 3610,-134.5 3610,-134.5 3604,-134.5 3598,-128.5 3598,-122.5 3598,-122.5 3598,-54.5 3598,-54.5 3598,-48.5 3604,-42.5 3610,-42.5"/>
<text text-anchor="middle" x="3780.5" y="-119.3" font-family="Times,serif" font-size="14.00">num: 8</text>
<polyline fill="none" stroke="#ffe9c7" points="3598,-111.5 3963,-111.5 "/>
<text text-anchor="middle" x="3780.5" y="-96.3" font-family="Times,serif" font-size="14.00">data: param6</text>
<polyline fill="none" stroke="#ffe9c7" points="3598,-88.5 3963,-88.5 "/>
<text text-anchor="middle" x="3780.5" y="-73.3" font-family="Times,serif" font-size="14.00">curr: 0x506000000da0</text>
<polyline fill="none" stroke="#ffe9c7" points="3598,-65.5 3963,-65.5 "/>
<text text-anchor="middle" x="3689.5" y="-50.3" font-family="Times,serif" font-size="14.00">prev: 0x506000000d40</text>
<polyline fill="none" stroke="#ffe9c7" points="3781,-42.5 3781,-65.5 "/>
<text text-anchor="middle" x="3872" y="-50.3" font-family="Times,serif" font-size="14.00">next: 0x506000000e00</text>
</g>
<!-- node_0x506000000d40&#45;&gt;node_0x506000000da0 -->
<g id="edge17" class="edge">
<title>node_0x506000000d40&#45;&gt;node_0x506000000da0</title>
<path fill="none" stroke="#ff6699" d="M3562.07,-73C3562.07,-73 3587.79,-73 3587.79,-73"/>
<polygon fill="#ff6699" stroke="#ff6699" points="3587.79,-76.5 3597.79,-73 3587.79,-69.5 3587.79,-76.5"/>
</g>
<!-- node_0x506000000da0&#45;&gt;node_0x506000000d40 -->
<g id="edge20" class="edge">
<title>node_0x506000000da0&#45;&gt;node_0x506000000d40</title>
<path fill="none" stroke="#34cb34" d="M3597.77,-104C3597.77,-104 3572.18,-104 3572.18,-104"/>
<polygon fill="#34cb34" stroke="#34cb34" points="3572.18,-100.5 3562.18,-104 3572.18,-107.5 3572.18,-100.5"/>
</g>
<!-- node_0x506000000e00 -->
<g id="node11" class="node">
<title>node_0x506000000e00</title>
<path fill="#9966ff" stroke="#ffe9c7" d="M4011,-42.5C4011,-42.5 4351,-42.5 4351,-42.5 4357,-42.5 4363,-48.5 4363,-54.5 4363,-54.5 4363,-122.5 4363,-122.5 4363,-128.5 4357,-134.5 4351,-134.5 4351,-134.5 4011,-134.5 4011,-134.5 4005,-134.5 3999,-128.5 3999,-122.5 3999,-122.5 3999,-54.5 3999,-54.5 3999,-48.5 4005,-42.5 4011,-42.5"/>
<text text-anchor="middle" x="4181" y="-119.3" font-family="Times,serif" font-size="14.00">num: 9</text>
<polyline fill="none" stroke="#ffe9c7" points="3999,-111.5 4363,-111.5 "/>
<text text-anchor="middle" x="4181" y="-96.3" font-family="Times,serif" font-size="14.00">data: param7</text>
<polyline fill="none" stroke="#ffe9c7" points="3999,-88.5 4363,-88.5 "/>
<text text-anchor="middle" x="4181" y="-73.3" font-family="Times,serif" font-size="14.00">curr: 0x506000000e00</text>
<polyline fill="none" stroke="#ffe9c7" points="3999,-65.5 4363,-65.5 "/>
<text text-anchor="middle" x="4090" y="-50.3" font-family="Times,serif" font-size="14.00">prev: 0x506000000da0</text>
<polyline fill="none" stroke="#ffe9c7" points="4181,-42.5 4181,-65.5 "/>
<text text-anchor="middle" x="4272" y="-50.3" font-family="Times,serif" font-size="14.00">next: 0x506000000e60</text>
</g>
<!-- node_0x506000000da0&#45;&gt;node_0x506000000e00 -->
<g id="edge19" class="edge">
<title>node_0x506000000da0&#45;&gt;node_0x506000000e00</title>
<path fill="none" stroke="#ff6699" d="M3963.17,-73C3963.17,-73 3988.84,-73 3988.84,-73"/>
<polygon fill="#ff6699" stroke="#ff6699" points="3988.84,-76.5 3998.84,-73 3988.84,-69.5 3988.84,-76.5"/>
</g>
<!-- node_0x506000000e00&#45;&gt;node_0x506000000da0 -->
<g id="edge22" class="edge">
<title>node_0x506000000e00&#45;&gt;node_0x506000000da0</title>
<path fill="none" stroke="#34cb34" d="M3998.91,-104C3998.91,-104 3973.18,-104 3973.18,-104"/>
<polygon fill="#34cb34" stroke="#34cb34" points="3973.18,-100.5 3963.18,-104 3973.18,-107.5 3973.18,-100.5"/>
</g>
<!-- node_0x506000000e60 -->
<g id="node12" class="node">
<title>node_0x506000000e60</title>
<path fill="#9966ff" stroke="#ffe9c7" d="M4411,-42.5C4411,-42.5 4751,-42.5 4751,-42.5 4757,-42.5 4763,-48.5 4763,-54.5 4763,-54.5 4763,-122.5 4763,-122.5 4763,-128.5 4757,-134.5 4751,-134.5 4751,-134.5 4411,-134.5 4411,-134.5 4405,-134.5 4399,-128.5 4399,-122.5 4399,-122.5 4399,-54.5 4399,-54.5 4399,-48.5 4405,-42.5 4411,-42.5"/>
<text text-anchor="middle" x="4581" y="-119.3" font-family="Times,serif" font-size="14.00">num: 10</text>
<polyline fill="none" stroke="#ffe9c7" points="4399,-111.5 4763,-111.5 "/>
<text text-anchor="middle" x="4581" y="-96.3" font-family="Times,serif" font-size="14.00">data: param8</text>
<polyline fill="none" stroke="#ffe9c7" points="4399,-88.5 4763,-88.5 "/>
<text text-anchor="middle" x="4581" y="-73.3" font-family="Times,serif" font-size="14.00">curr: 0x506000000e60</text>
<polyline fill="none" stroke="#ffe9c7" points="4399,-65.5 4763,-65.5 "/>
<text text-anchor="middle" x="4490" y="-50.3" font-family="Times,serif" font-size="14.00">prev: 0x506000000e00</text>
<polyline fill="none" stroke="#ffe9c7" points="4581,-42.5 4581,-65.5 "/>
<text text-anchor="middle" x="4672" y="-50.3" font-family="Times,serif" font-size="14.00">next: 0x5040000008d0</text>
</g>
<!-- node_0x506000000e00&#45;&gt;node_0x506000000e60 -->
<g id="edge21" class="edge">
<title>node_0x506000000e00&#45;&gt;node_0x506000000e60</title>
<path fill="none" stroke="#ff6699" d="M4363.15,-73C4363.15,-73 4388.81,-73 4388.81,-73"/>
<polygon fill="#ff6699" stroke="#ff6699" points="4388.81,-76.5 4398.81,-73 4388.81,-69.5 4388.81,-76.5"/>
</g>
<!-- node_0x506000000e60&#45;&gt;node_0x506000000e00 -->
<g id="edge24" class="edge">
<title>node_0x506000000e60&#45;&gt;node_0x506000000e00</title>
<path fill="none" stroke="#34cb34" d="M4398.85,-104C4398.85,-104 4373.19,-104 4373.19,-104"/>
<polygon fill="#34cb34" stroke="#34cb34" points="4373.19,-100.5 4363.19,-104 4373.19,-107.5 4373.19,-100.5"/>
</g>
<!-- node_0x5040000008d0 -->
<g id="node13" class="node">
<title>node_0x5040000008d0</title>
<path fill="#9966ff" stroke="#ffe9c7" d="M4811,-42.5C4811,-42.5 5151,-42.5 5151,-42.5 5157,-42.5 5163,-48.5 5163,-54.5 5163,-54.5 5163,-122.5 5163,-122.5 5163,-128.5 5157,-134.5 5151,-134.5 5151,-134.5 4811,-134.5 4811,-134.5 4805,-134.5 4799,-128.5 4799,-122.5 4799,-122.5 4799,-54.5 4799,-54.5 4799,-48.5 4805,-42.5 4811,-42.5"/>
<text text-anchor="middle" x="4981" y="-119.3" font-family="Times,serif" font-size="14.00">num: 11</text>
<polyline fill="none" stroke="#ffe9c7" points="4799,-111.5 5163,-111.5 "/>
<text text-anchor="middle" x="4981" y="-96.3" font-family="Times,serif" font-size="14.00">data: var1</text>
<polyline fill="none" stroke="#ffe9c7" points="4799,-88.5 5163,-88.5 "/>
<text text-anchor="middle" x="4981" y="-73.3" font-family="Times,serif" font-size="14.00">curr: 0x5040000008d0</text>
<polyline fill="none" stroke="#ffe9c7" points="4799,-65.5 5163,-65.5 "/>
<text text-anchor="middle" x="4890" y="-50.3" font-family="Times,serif" font-size="14.00">prev: 0x506000000e60</text>
<polyline fill="none" stroke="#ffe9c7" points="4981,-42.5 4981,-65.5 "/>
<text text-anchor="middle" x="5072" y="-50.3" font-family="Times,serif" font-size="14.00">next: 0x504000000910</text>
</g>
<!-- node_0x506000000e60&#45;&gt;node_0x5040000008d0 -->
<g id="edge23" class="edge">
<title>node_0x506000000e60&#45;&gt;node_0x5040000008d0</title>
<path fill="none" stroke="#ff6699" d="M4763.15,-73C4763.15,-73 4788.81,-73 4788.81,-73"/>
<polygon fill="#ff6699" stroke="#ff6699" points="4788.81,-76.5 4798.81,-73 4788.81,-69.5 4788.81,-76.5"/>
</g>
<!-- node_0x5040000008d0&#45;&gt;node_0x506000000e60 -->
<g id="edge26" class="edge">
<title>node_0x5040000008d0&#45;&gt;node_0x506000000e60</title>
<path fill="none" stroke="#34cb34" d="M4798.85,-104C4798.85,-104 4773.19,-104 4773.19,-104"/>
<polygon fill="#34cb34" stroke="#34cb34" points="4773.19,-100.5 4763.19,-104 4773.19,-107.5 4773.19,-100.5"/>
</g>
<!-- node_0x504000000910 -->
<g id="node14" class="node">
<title>node_0x504000000910</title>
<path fill="#9966ff" stroke="#ffe9c7" d="M5211,-42.5C5211,-42.5 5552,-42.5 5552,-42.5 5558,-42.5 5564,-48.5 5564,-54.5 5564,-54.5 5564,-122.5 5564,-122.5 5564,-128.5 5558,-134.5 5552,-134.5 5552,-134.5 5211,-134.5 5211,-134.5 5205,-134.5 5199,-128.5 5199,-122.5 5199,-122.5 5199,-54.5 5199,-54.5 5199,-48.5 5205,-42.5 5211,-42.5"/>
<text text-anchor="middle" x="5381.5" y="-119.3" font-family="Times,serif" font-size="14.00">num: 12</text>
<polyline fill="none" stroke="#ffe9c7" points="5199,-111.5 5564,-111.5 "/>
<text text-anchor="middle" x="5381.5" y="-96.3" font-family="Times,serif" font-size="14.00">data: var2</text>
<polyline fill="none" stroke="#ffe9c7" points="5199,-88.5 5564,-88.5 "/>
<text text-anchor="middle" x="5381.5" y="-73.3" font-family="Times,serif" font-size="14.00">curr: 0x504000000910</text>
<polyline fill="none" stroke="#ffe9c7" points="5199,-65.5 5564,-65.5 "/>
<text text-anchor="middle" x="5290.5" y="-50.3" font-family="Times,serif" font-size="14.00">prev: 0x5040000008d0</text>
<polyline fill="none" stroke="#ffe9c7" points="5382,-42.5 5382,-65.5 "/>
<text text-anchor="middle" x="5473" y="-50.3" font-family="Times,serif" font-size="14.00">next: 0x504000000950</text>
</g>
<!-- node_0x5040000008d0&#45;&gt;node_0x504000000910 -->
<g id="edge25" class="edge">
<title>node_0x5040000008d0&#45;&gt;node_0x504000000910</title>
<path fill="none" stroke="#ff6699" d="M5163.09,-73C5163.09,-73 5188.82,-73 5188.82,-73"/>
<polygon fill="#ff6699" stroke="#ff6699" points="5188.82,-76.5 5198.82,-73 5188.82,-69.5 5188.82,-76.5"/>
</g>
<!-- node_0x504000000910&#45;&gt;node_0x5040000008d0 -->
<g id="edge28" class="edge">
<title>node_0x504000000910&#45;&gt;node_0x5040000008d0</title>
<path fill="none" stroke="#34cb34" d="M5198.83,-104C5198.83,-104 5173.16,-104 5173.16,-104"/>
<polygon fill="#34cb34" stroke="#34cb34" points="5173.16,-100.5 5163.16,-104 5173.16,-107.5 5173.16,-100.5"/>
</g>
<!-- node_0x504000000950 -->
<g id="node15" class="node">
<title>node_0x504000000950</title>
<path fill="#9966ff" stroke="#ffe9c7" d="M5612,-42.5C5612,-42.5 5953,-42.5 5953,-42.5 5959,-42.5 5965,-48.5 5965,-54.5 5965,-54.5 5965,-122.5 5965,-122.5 5965,-128.5 5959,-134.5 5953,-134.5 5953,-134.5 5612,-134.5 5612,-134.5 5606,-134.5 5600,-128.5 5600,-122.5 5600,-122.5 5600,-54.5 5600,-54.5 5600,-48.5 5606,-42.5 5612,-42.5"/>
<text text-anchor="middle" x="5782.5" y="-119.3" font-family="Times,serif" font-size="14.00">num: 13</text>
<polyline fill="none" stroke="#ffe9c7" points="5600,-111.5 5965,-111.5 "/>
<text text-anchor="middle" x="5782.5" y="-96.3" font-family="Times,serif" font-size="14.00">data: var3</text>
<polyline fill="none" stroke="#ffe9c7" points="5600,-88.5 5965,-88.5 "/>
<text text-anchor="middle" x="5782.5" y="-73.3" font-family="Times,serif" font-size="14.00">curr: 0x504000000950</text>
<polyline fill="none" stroke="#ffe9c7" points="5600,-65.5 5965,-65.5 "/>
<text text-anchor="middle" x="5691.5" y="-50.3" font-family="Times,serif" font-size="14.00">prev: 0x504000000910</text>
<polyline fill="none" stroke="#ffe9c7" points="5783,-42.5 5783,-65.5 "/>
<text text-anchor="middle" x="5874" y="-50.3" font-family="Times,serif" font-size="14.00">next: 0x504000000990</text>
</g>
<!-- node_0x504000000910&#45;&gt;node_0x504000000950 -->
<g id="edge27" class="edge">
<title>node_0x504000000910&#45;&gt;node_0x504000000950</title>
<path fill="none" stroke="#ff6699" d="M5564.11,-73C5564.11,-73 5589.85,-73 5589.85,-73"/>
<polygon fill="#ff6699" stroke="#ff6699" points="5589.85,-76.5 5599.85,-73 5589.85,-69.5 5589.85,-76.5"/>
</g>
<!-- node_0x504000000950&#45;&gt;node_0x504000000910 -->
<g id="edge30" class="edge">
<title>node_0x504000000950&#45;&gt;node_0x504000000910</title>
<path fill="none" stroke="#34cb34" d="M5599.89,-104C5599.89,-104 5574.15,-104 5574.15,-104"/>
<polygon fill="#34cb34" stroke="#34cb34" points="5574.15,-100.5 5564.15,-104 5574.15,-107.5 5574.15,-100.5"/>
</g>
<!-- node_0x504000000990 -->
<g id="node16" class="node">
<title>node_0x504000000990</title>
<path fill="#9966ff" stroke="#ffe9c7" d="M6013,-42.5C6013,-42.5 6354,-42.5 6354,-42.5 6360,-42.5 6366,-48.5 6366,-54.5 6366,-54.5 6366,-122.5 6366,-122.5 6366,-128.5 6360,-134.5 6354,-134.5 6354,-134.5 6013,-134.5 6013,-134.5 6007,-134.5 6001,-128.5 6001,-122.5 6001,-122.5 6001,-54.5 6001,-54.5 6001,-48.5 6007,-42.5 6013,-42.5"/>
<text text-anchor="middle" x="6183.5" y="-119.3" font-family="Times,serif" font-size="14.00">num: 14</text>
<polyline fill="none" stroke="#ffe9c7" points="6001,-111.5 6366,-111.5 "/>
<text text-anchor="middle" x="6183.5" y="-96.3" font-family="Times,serif" font-size="14.00">data: var4</text>
<polyline fill="none" stroke="#ffe9c7" points="6001,-88.5 6366,-88.5 "/>
<text text-anchor="middle" x="6183.5" y="-73.3" font-family="Times,serif" font-size="14.00">curr: 0x504000000990</text>
<polyline fill="none" stroke="#ffe9c7" points="6001,-65.5 6366,-65.5 "/>
<text text-anchor="middle" x="6092.5" y="-50.3" font-family="Times,serif" font-size="14.00">prev: 0x504000000950</text>
<polyline fill="none" stroke="#ffe9c7" points="6184,-42.5 6184,-65.5 "/>
<text text-anchor="middle" x="6275" y="-50.3" font-family="Times,serif" font-size="14.00">next: 0x5040000009d0</text>
</g>
<!-- node_0x504000000950&#45;&gt;node_0x504000000990 -->
<g id="edge29" class="edge">
<title>node_0x504000000950&#45;&gt;node_0x504000000990</title>
<path fill="none" stroke="#ff6699" d="M5965.11,-73C5965.11,-73 5990.85,-73 5990.85,-73"/>
<polygon fill="#ff6699" stroke="#ff6699" points="5990.85,-76.5 6000.85,-73 5990.85,-69.5 5990.85,-76.5"/>
</g>
<!-- node_0x504000000990&#45;&gt;node_0x504000000950 -->
<g id="edge32" class="edge">
<title>node_0x504000000990&#45;&gt;node_0x504000000950</title>
<path fill="none" stroke="#34cb34" d="M6000.89,-104C6000.89,-104 5975.15,-104 5975.15,-104"/>
<polygon fill="#34cb34" stroke="#34cb34" points="5975.15,-100.5 5965.15,-104 5975.15,-107.5 5975.15,-100.5"/>
</g>
<!-- node_0x5040000009d0 -->
<g id="node17" class="node">
<title>node_0x5040000009d0</title>
<path fill="#9966ff" stroke="#ffe9c7" d="M6414,-42.5C6414,-42.5 6755,-42.5 6755,-42.5 6761,-42.5 6767,-48.5 6767,-54.5 6767,-54.5 6767,-122.5 6767,-122.5 6767,-128.5 6761,-134.5 6755,-134.5 6755,-134.5 6414,-134.5 6414,-134.5 6408,-134.5 6402,-128.5 6402,-122.5 6402,-122.5 6402,-54.5 6402,-54.5 6402,-48.5 6408,-42.5 6414,-42.5"/>
<text text-anchor="middle" x="6584.5" y="-119.3" font-family="Times,serif" font-size="14.00">num: 15</text>
<polyline fill="none" stroke="#ffe9c7" points="6402,-111.5 6767,-111.5 "/>
<text text-anchor="middle" x="6584.5" y="-96.3" font-family="Times,serif" font-size="14.00">data: var5</text>
<polyline fill="none" stroke="#ffe9c7" points="6402,-88.5 6767,-88.5 "/>
<text text-anchor="middle" x="6584.5" y="-73.3" font-family="Times,serif" font-size="14.00">curr: 0x5040000009d0</text>
<polyline fill="none" stroke="#ffe9c7" points="6402,-65.5 6767,-65.5 "/>
<text text-anchor="middle" x="6493.5" y="-50.3" font-family="Times,serif" font-size="14.00">prev: 0x504000000990</text>
<polyline fill="none" stroke="#ffe9c7" points="6585,-42.5 6585,-65.5 "/>
<text text-anchor="middle" x="6676" y="-50.3" font-family="Times,serif" font-size="14.00">next: 0x504000000a10</text>
</g>
<!-- node_0x504000000990&#45;&gt;node_0x5040000009d0 -->
<g id="edge31" class="edge">
<title>node_0x504000000990&#45;&gt;node_0x5040000009d0</title>
<path fill="none" stroke="#ff6699" d="M6366.11,-73C6366.11,-73 6391.85,-73 6391.85,-73"/>
<polygon fill="#ff6699" stroke="#ff6699" points="6391.85,-76.5 6401.85,-73 6391.85,-69.5 6391.85,-76.5"/>
</g>
<!-- node_0x5040000009d0&#45;&gt;node_0x504000000990 -->
<g id="edge34" class="edge">
<title>node_0x5040000009d0&#45;&gt;node_0x504000000990</title>
<path fill="none" stroke="#34cb34" d="M6401.89,-104C6401.89,-104 6376.15,-104 6376.15,-104"/>
<polygon fill="#34cb34" stroke="#34cb34" points="6376.15,-100.5 6366.15,-104 6376.15,-107.5 6376.15,-100.5"/>
</g>
<!-- node_0x504000000a10 -->
<g id="node18" class="node">
<title>node_0x504000000a10</title>
<path fill="#9966ff" stroke="#ffe9c7" d="M6815,-42.5C6815,-42.5 7156,-42.5 7156,-42.5 7162,-42.5 7168,-48.5 7168,-54.5 7168,-54.5 7168,-122.5 7168,-122.5 7168,-128.5 7162,-134.5 7156,-134.5 7156,-134.5 6815,-134.5 6815,-134.5 6809,-134.5 6803,-128.5 6803,-122.5 6803,-122.5 6803,-54.5 6803,-54.5 6803,-48.5 6809,-42.5 6815,-42.5"/>
<text text-anchor="middle" x="6985.5" y="-119.3" font-family="Times,serif" font-size="14.00">num: 16</text>
<polyline fill="none" stroke="#ffe9c7" points="6803,-111.5 7168,-111.5 "/>
<text text-anchor="middle" x="6985.5" y="-96.3" font-family="Times,serif" font-size="14.00">data: var6</text>
<polyline fill="none" stroke="#ffe9c7" points="6803,-88.5 7168,-88.5 "/>
<text text-anchor="middle" x="6985.5" y="-73.3" font-family="Times,serif" font-size="14.00">curr: 0x504000000a10</text>
<polyline fill="none" stroke="#ffe9c7" points="6803,-65.5 7168,-65.5 "/>
<text text-anchor="middle" x="6894.5" y="-50.3" font-family="Times,serif" font-size="14.00">prev: 0x5040000009d0</text>
<polyline fill="none" stroke="#ffe9c7" points="6986,-42.5 6986,-65.5 "/>
<text text-anchor="middle" x="7077" y="-50.3" font-family="Times,serif" font-size="14.00">next: 0x504000000a50</text>
</g>
<!-- node_0x5040000009d0&#45;&gt;node_0x504000000a10 -->
<g id="edge33" class="edge">
<title>node_0x5040000009d0&#45;&gt;node_0x504000000a10</title>
<path fill="none" stroke="#ff6699" d="M6767.11,-73C6767.11,-73 6792.85,-73 6792.85,-73"/>
<polygon fill="#ff6699" stroke="#ff6699" points="6792.85,-76.5 6802.85,-73 6792.85,-69.5 6792.85,-76.5"/>
</g>
<!-- node_0x504000000a10&#45;&gt;node_0x5040000009d0 -->
<g id="edge36" class="edge">
<title>node_0x504000000a10&#45;&gt;node_0x5040000009d0</title>
<path fill="none" stroke="#34cb34" d="M6802.89,-104C6802.89,-104 6777.15,-104 6777.15,-104"/>
<polygon fill="#34cb34" stroke="#34cb34" points="6777.15,-100.5 6767.15,-104 6777.15,-107.5 6777.15,-100.5"/>
</g>
<!-- node_0x504000000a50 -->
<g id="node19" class="node">
<title>node_0x504000000a50</title>
<path fill="#9966ff" stroke="#ffe9c7" d="M7216,-42.5C7216,-42.5 7556,-42.5 7556,-42.5 7562,-42.5 7568,-48.5 7568,-54.5 7568,-54.5 7568,-122.5 7568,-122.5 7568,-128.5 7562,-134.5 7556,-134.5 7556,-134.5 7216,-134.5 7216,-134.5 7210,-134.5 7204,-128.5 7204,-122.5 7204,-122.5 7204,-54.5 7204,-54.5 7204,-48.5 7210,-42.5 7216,-42.5"/>
<text text-anchor="middle" x="7386" y="-119.3" font-family="Times,serif" font-size="14.00">num: 17</text>
<polyline fill="none" stroke="#ffe9c7" points="7204,-111.5 7568,-111.5 "/>
<text text-anchor="middle" x="7386" y="-96.3" font-family="Times,serif" font-size="14.00">data: var7</text>
<polyline fill="none" stroke="#ffe9c7" points="7204,-88.5 7568,-88.5 "/>
<text text-anchor="middle" x="7386" y="-73.3" font-family="Times,serif" font-size="14.00">curr: 0x504000000a50</text>
<polyline fill="none" stroke="#ffe9c7" points="7204,-65.5 7568,-65.5 "/>
<text text-anchor="middle" x="7295" y="-50.3" font-family="Times,serif" font-size="14.00">prev: 0x504000000a10</text>
<polyline fill="none" stroke="#ffe9c7" points="7386,-42.5 7386,-65.5 "/>
<text text-anchor="middle" x="7477" y="-50.3" font-family="Times,serif" font-size="14.00">next: 0x504000000a90</text>
</g>
<!-- node_0x504000000a10&#45;&gt;node_0x504000000a50 -->
<g id="edge35" class="edge">
<title>node_0x504000000a10&#45;&gt;node_0x504000000a50</title>
<path fill="none" stroke="#ff6699" d="M7168.17,-73C7168.17,-73 7193.84,-73 7193.84,-73"/>
<polygon fill="#ff6699" stroke="#ff6699" points="7193.84,-76.5 7203.84,-73 7193.84,-69.5 7193.84,-76.5"/>
</g>
<!-- node_0x504000000a50&#45;&gt;node_0x504000000a10 -->
<g id="edge38" class="edge">
<title>node_0x504000000a50&#45;&gt;node_0x504000000a10</title>
<path fill="none" stroke="#34cb34" d="M7203.91,-104C7203.91,-104 7178.18,-104 7178.18,-104"/>
<polygon fill="#34cb34" stroke="#34cb34" points="7178.18,-100.5 7168.18,-104 7178.18,-107.5 7178.18,-100.5"/>
</g>
<!-- node_0x504000000a50&#45;&gt;node_0x504000000a90 -->
<g id="edge37" class="edge">
<title>node_0x504000000a50&#45;&gt;node_0x504000000a90</title>
<path fill="none" stroke="#ff6699" d="M7568.15,-59C7568.15,-59 7593.81,-59 7593.81,-59"/>
<polygon fill="#ff6699" stroke="#ff6699" points="7593.81,-62.5 7603.81,-59 7593.81,-55.5 7593.81,-62.5"/>
</g>
<!-- node_0x504000000a90&#45;&gt;node_0x506000000b60 -->
<g id="edge39" class="edge">
<title>node_0x504000000a90&#45;&gt;node_0x506000000b60</title>
<path fill="none" stroke="#ff6699" d="M7603.67,-28C7603.67,-28 374.39,-28 374.39,-28"/>
<polygon fill="#ff6699" stroke="#ff6699" points="374.39,-24.5 364.39,-28 374.39,-31.5 374.39,-24.5"/>
</g>
<!-- node_0x504000000a90&#45;&gt;node_0x504000000a50 -->
<g id="edge40" class="edge">
<title>node_0x504000000a90&#45;&gt;node_0x504000000a50</title>
<path fill="none" stroke="#34cb34" d="M7603.85,-76C7603.85,-76 7578.19,-76 7578.19,-76"/>
<polygon fill="#34cb34" stroke="#34cb34" points="7578.19,-72.5 7568.19,-76 7578.19,-79.5 7578.19,-72.5"/>
</g>
</g>
</svg>
