<?xml version="1.0" encoding="UTF-8" standalone="no"?>
<!DOCTYPE svg PUBLIC "-//W3C//DTD SVG 1.1//EN"
 "http://www.w3.org/Graphics/SVG/1.1/DTD/svg11.dtd">
<!-- Generated by graphviz version 2.43.0 (0)
 -->
<!-- Title: G Pages: 1 -->
<svg width="1175pt" height="184pt"
 viewBox="0.00 0.00 1175.00 184.00" xmlns="http://www.w3.org/2000/svg" xmlns:xlink="http://www.w3.org/1999/xlink">
<g id="graph0" class="graph" transform="scale(1 1) rotate(0) translate(4 180)">
<title>G</title>
<polygon fill="#ffd480" stroke="transparent" points="-4,4 -4,-180 1171,-180 1171,4 -4,4"/>
<text text-anchor="middle" x="583.5" y="-148" font-family="Verdana" font-size="30.00" fill="#ffffff">List</text>
<!-- node_0x506000000140 -->
<g id="node1" class="node">
<title>node_0x506000000140</title>
<path fill="#ff6699" stroke="#ffe9c7" d="M12,-0.5C12,-0.5 353,-0.5 353,-0.5 359,-0.5 365,-6.5 365,-12.5 365,-12.5 365,-80.5 365,-80.5 365,-86.5 359,-92.5 353,-92.5 353,-92.5 12,-92.5 12,-92.5 6,-92.5 0,-86.5 0,-80.5 0,-80.5 0,-12.5 0,-12.5 0,-6.5 6,-0.5 12,-0.5"/>
<text text-anchor="middle" x="182.5" y="-77.3" font-family="Times,serif" font-size="14.00">Phantom</text>
<polyline fill="none" stroke="#ffe9c7" points="0,-69.5 365,-69.5 "/>
<text text-anchor="middle" x="182.5" y="-54.3" font-family="Times,serif" font-size="14.00">data: BADBABA</text>
<polyline fill="none" stroke="#ffe9c7" points="0,-46.5 365,-46.5 "/>
<text text-anchor="middle" x="182.5" y="-31.3" font-family="Times,serif" font-size="14.00">curr: 0x506000000140</text>
<polyline fill="none" stroke="#ffe9c7" points="0,-23.5 365,-23.5 "/>
<text text-anchor="middle" x="91.5" y="-8.3" font-family="Times,serif" font-size="14.00">prev: 0x504000000110</text>
<polyline fill="none" stroke="#ffe9c7" points="183,-0.5 183,-23.5 "/>
<text text-anchor="middle" x="274" y="-8.3" font-family="Times,serif" font-size="14.00">next: 0x5040000000d0</text>
</g>
<!-- node_0x5040000000d0 -->
<g id="node2" class="node">
<title>node_0x5040000000d0</title>
<path fill="#9966ff" stroke="#ffe9c7" d="M413,-42.5C413,-42.5 754,-42.5 754,-42.5 760,-42.5 766,-48.5 766,-54.5 766,-54.5 766,-122.5 766,-122.5 766,-128.5 760,-134.5 754,-134.5 754,-134.5 413,-134.5 413,-134.5 407,-134.5 401,-128.5 401,-122.5 401,-122.5 401,-54.5 401,-54.5 401,-48.5 407,-42.5 413,-42.5"/>
<text text-anchor="middle" x="583.5" y="-119.3" font-family="Times,serif" font-size="14.00">num: 0</text>
<polyline fill="none" stroke="#ffe9c7" points="401,-111.5 766,-111.5 "/>
<text text-anchor="middle" x="583.5" y="-96.3" font-family="Times,serif" font-size="14.00">data: main</text>
<polyline fill="none" stroke="#ffe9c7" points="401,-88.5 766,-88.5 "/>
<text text-anchor="middle" x="583.5" y="-73.3" font-family="Times,serif" font-size="14.00">curr: 0x5040000000d0</text>
<polyline fill="none" stroke="#ffe9c7" points="401,-65.5 766,-65.5 "/>
<text text-anchor="middle" x="492.5" y="-50.3" font-family="Times,serif" font-size="14.00">prev: 0x506000000140</text>
<polyline fill="none" stroke="#ffe9c7" points="584,-42.5 584,-65.5 "/>
<text text-anchor="middle" x="675" y="-50.3" font-family="Times,serif" font-size="14.00">next: 0x504000000110</text>
</g>
<!-- node_0x506000000140&#45;&gt;node_0x5040000000d0 -->
<g id="edge1" class="edge">
<title>node_0x506000000140&#45;&gt;node_0x5040000000d0</title>
<path fill="none" stroke="#ff6699" d="M365.11,-59C365.11,-59 390.85,-59 390.85,-59"/>
<polygon fill="#ff6699" stroke="#ff6699" points="390.85,-62.5 400.85,-59 390.85,-55.5 390.85,-62.5"/>
</g>
<!-- node_0x504000000110 -->
<g id="node3" class="node">
<title>node_0x504000000110</title>
<path fill="#9966ff" stroke="#ffe9c7" d="M814,-0.5C814,-0.5 1155,-0.5 1155,-0.5 1161,-0.5 1167,-6.5 1167,-12.5 1167,-12.5 1167,-80.5 1167,-80.5 1167,-86.5 1161,-92.5 1155,-92.5 1155,-92.5 814,-92.5 814,-92.5 808,-92.5 802,-86.5 802,-80.5 802,-80.5 802,-12.5 802,-12.5 802,-6.5 808,-0.5 814,-0.5"/>
<text text-anchor="middle" x="984.5" y="-77.3" font-family="Times,serif" font-size="14.00">num: 1</text>
<polyline fill="none" stroke="#ffe9c7" points="802,-69.5 1167,-69.5 "/>
<text text-anchor="middle" x="984.5" y="-54.3" font-family="Times,serif" font-size="14.00">data: one</text>
<polyline fill="none" stroke="#ffe9c7" points="802,-46.5 1167,-46.5 "/>
<text text-anchor="middle" x="984.5" y="-31.3" font-family="Times,serif" font-size="14.00">curr: 0x504000000110</text>
<polyline fill="none" stroke="#ffe9c7" points="802,-23.5 1167,-23.5 "/>
<text text-anchor="middle" x="893.5" y="-8.3" font-family="Times,serif" font-size="14.00">prev: 0x5040000000d0</text>
<polyline fill="none" stroke="#ffe9c7" points="985,-0.5 985,-23.5 "/>
<text text-anchor="middle" x="1076" y="-8.3" font-family="Times,serif" font-size="14.00">next: 0x506000000140</text>
</g>
<!-- node_0x506000000140&#45;&gt;node_0x504000000110 -->
<g id="edge2" class="edge">
<title>node_0x506000000140&#45;&gt;node_0x504000000110</title>
<path fill="none" stroke="#34cb34" d="M365.24,-14C365.24,-14 791.84,-14 791.84,-14"/>
<polygon fill="#34cb34" stroke="#34cb34" points="791.84,-17.5 801.84,-14 791.84,-10.5 791.84,-17.5"/>
</g>
<!-- node_0x5040000000d0&#45;&gt;node_0x506000000140 -->
<g id="edge4" class="edge">
<title>node_0x5040000000d0&#45;&gt;node_0x506000000140</title>
<path fill="none" stroke="#34cb34" d="M400.89,-76C400.89,-76 375.15,-76 375.15,-76"/>
<polygon fill="#34cb34" stroke="#34cb34" points="375.15,-72.5 365.15,-76 375.15,-79.5 375.15,-72.5"/>
</g>
<!-- node_0x5040000000d0&#45;&gt;node_0x504000000110 -->
<g id="edge3" class="edge">
<title>node_0x5040000000d0&#45;&gt;node_0x504000000110</title>
<path fill="none" stroke="#ff6699" d="M766.11,-59C766.11,-59 791.85,-59 791.85,-59"/>
<polygon fill="#ff6699" stroke="#ff6699" points="791.85,-62.5 801.85,-59 791.85,-55.5 791.85,-62.5"/>
</g>
<!-- node_0x504000000110&#45;&gt;node_0x506000000140 -->
<g id="edge5" class="edge">
<title>node_0x504000000110&#45;&gt;node_0x506000000140</title>
<path fill="none" stroke="#ff6699" d="M801.76,-28C801.76,-28 375.16,-28 375.16,-28"/>
<polygon fill="#ff6699" stroke="#ff6699" points="375.16,-24.5 365.16,-28 375.16,-31.5 375.16,-24.5"/>
</g>
<!-- node_0x504000000110&#45;&gt;node_0x5040000000d0 -->
<g id="edge6" class="edge">
<title>node_0x504000000110&#45;&gt;node_0x5040000000d0</title>
<path fill="none" stroke="#34cb34" d="M801.89,-76C801.89,-76 776.15,-76 776.15,-76"/>
<polygon fill="#34cb34" stroke="#34cb34" points="776.15,-72.5 766.15,-76 776.15,-79.5 776.15,-72.5"/>
</g>
</g>
</svg>
