<?xml version="1.0" encoding="UTF-8" standalone="no"?>
<!DOCTYPE svg PUBLIC "-//W3C//DTD SVG 1.1//EN"
 "http://www.w3.org/Graphics/SVG/1.1/DTD/svg11.dtd">
<!-- Generated by graphviz version 2.43.0 (0)
 -->
<!-- Title: G Pages: 1 -->
<svg width="2778pt" height="184pt"
 viewBox="0.00 0.00 2778.00 184.00" xmlns="http://www.w3.org/2000/svg" xmlns:xlink="http://www.w3.org/1999/xlink">
<g id="graph0" class="graph" transform="scale(1 1) rotate(0) translate(4 180)">
<title>G</title>
<polygon fill="#ffd480" stroke="transparent" points="-4,4 -4,-180 2774,-180 2774,4 -4,4"/>
<text text-anchor="middle" x="1385" y="-148" font-family="Verdana" font-size="30.00" fill="#ffffff">List</text>
<!-- node_0x5060000003e0 -->
<g id="node1" class="node">
<title>node_0x5060000003e0</title>
<path fill="#ff6699" stroke="#ffe9c7" d="M12,-0.5C12,-0.5 353,-0.5 353,-0.5 359,-0.5 365,-6.5 365,-12.5 365,-12.5 365,-80.5 365,-80.5 365,-86.5 359,-92.5 353,-92.5 353,-92.5 12,-92.5 12,-92.5 6,-92.5 0,-86.5 0,-80.5 0,-80.5 0,-12.5 0,-12.5 0,-6.5 6,-0.5 12,-0.5"/>
<text text-anchor="middle" x="182.5" y="-77.3" font-family="Times,serif" font-size="14.00">Phantom</text>
<polyline fill="none" stroke="#ffe9c7" points="0,-69.5 365,-69.5 "/>
<text text-anchor="middle" x="182.5" y="-54.3" font-family="Times,serif" font-size="14.00">data: BADBABA</text>
<polyline fill="none" stroke="#ffe9c7" points="0,-46.5 365,-46.5 "/>
<text text-anchor="middle" x="182.5" y="-31.3" font-family="Times,serif" font-size="14.00">curr: 0x5060000003e0</text>
<polyline fill="none" stroke="#ffe9c7" points="0,-23.5 365,-23.5 "/>
<text text-anchor="middle" x="91.5" y="-8.3" font-family="Times,serif" font-size="14.00">prev: 0x504000000490</text>
<polyline fill="none" stroke="#ffe9c7" points="183,-0.5 183,-23.5 "/>
<text text-anchor="middle" x="274" y="-8.3" font-family="Times,serif" font-size="14.00">next: 0x504000000350</text>
</g>
<!-- node_0x504000000350 -->
<g id="node2" class="node">
<title>node_0x504000000350</title>
<path fill="#9966ff" stroke="#ffe9c7" d="M413,-42.5C413,-42.5 753,-42.5 753,-42.5 759,-42.5 765,-48.5 765,-54.5 765,-54.5 765,-122.5 765,-122.5 765,-128.5 759,-134.5 753,-134.5 753,-134.5 413,-134.5 413,-134.5 407,-134.5 401,-128.5 401,-122.5 401,-122.5 401,-54.5 401,-54.5 401,-48.5 407,-42.5 413,-42.5"/>
<text text-anchor="middle" x="583" y="-119.3" font-family="Times,serif" font-size="14.00">num: 0</text>
<polyline fill="none" stroke="#ffe9c7" points="401,-111.5 765,-111.5 "/>
<text text-anchor="middle" x="583" y="-96.3" font-family="Times,serif" font-size="14.00">data: main</text>
<polyline fill="none" stroke="#ffe9c7" points="401,-88.5 765,-88.5 "/>
<text text-anchor="middle" x="583" y="-73.3" font-family="Times,serif" font-size="14.00">curr: 0x504000000350</text>
<polyline fill="none" stroke="#ffe9c7" points="401,-65.5 765,-65.5 "/>
<text text-anchor="middle" x="492" y="-50.3" font-family="Times,serif" font-size="14.00">prev: 0x5060000003e0</text>
<polyline fill="none" stroke="#ffe9c7" points="583,-42.5 583,-65.5 "/>
<text text-anchor="middle" x="674" y="-50.3" font-family="Times,serif" font-size="14.00">next: 0x504000000390</text>
</g>
<!-- node_0x5060000003e0&#45;&gt;node_0x504000000350 -->
<g id="edge1" class="edge">
<title>node_0x5060000003e0&#45;&gt;node_0x504000000350</title>
<path fill="none" stroke="#ff6699" d="M365.17,-59C365.17,-59 390.84,-59 390.84,-59"/>
<polygon fill="#ff6699" stroke="#ff6699" points="390.84,-62.5 400.84,-59 390.84,-55.5 390.84,-62.5"/>
</g>
<!-- node_0x504000000490 -->
<g id="node7" class="node">
<title>node_0x504000000490</title>
<path fill="#9966ff" stroke="#ffe9c7" d="M2417,-0.5C2417,-0.5 2758,-0.5 2758,-0.5 2764,-0.5 2770,-6.5 2770,-12.5 2770,-12.5 2770,-80.5 2770,-80.5 2770,-86.5 2764,-92.5 2758,-92.5 2758,-92.5 2417,-92.5 2417,-92.5 2411,-92.5 2405,-86.5 2405,-80.5 2405,-80.5 2405,-12.5 2405,-12.5 2405,-6.5 2411,-0.5 2417,-0.5"/>
<text text-anchor="middle" x="2587.5" y="-77.3" font-family="Times,serif" font-size="14.00">num: 5</text>
<polyline fill="none" stroke="#ffe9c7" points="2405,-69.5 2770,-69.5 "/>
<text text-anchor="middle" x="2587.5" y="-54.3" font-family="Times,serif" font-size="14.00">data: one</text>
<polyline fill="none" stroke="#ffe9c7" points="2405,-46.5 2770,-46.5 "/>
<text text-anchor="middle" x="2587.5" y="-31.3" font-family="Times,serif" font-size="14.00">curr: 0x504000000490</text>
<polyline fill="none" stroke="#ffe9c7" points="2405,-23.5 2770,-23.5 "/>
<text text-anchor="middle" x="2496.5" y="-8.3" font-family="Times,serif" font-size="14.00">prev: 0x504000000450</text>
<polyline fill="none" stroke="#ffe9c7" points="2588,-0.5 2588,-23.5 "/>
<text text-anchor="middle" x="2679" y="-8.3" font-family="Times,serif" font-size="14.00">next: 0x5060000003e0</text>
</g>
<!-- node_0x5060000003e0&#45;&gt;node_0x504000000490 -->
<g id="edge2" class="edge">
<title>node_0x5060000003e0&#45;&gt;node_0x504000000490</title>
<path fill="none" stroke="#34cb34" d="M365.24,-14C365.24,-14 2394.63,-14 2394.63,-14"/>
<polygon fill="#34cb34" stroke="#34cb34" points="2394.63,-17.5 2404.63,-14 2394.63,-10.5 2394.63,-17.5"/>
</g>
<!-- node_0x504000000350&#45;&gt;node_0x5060000003e0 -->
<g id="edge4" class="edge">
<title>node_0x504000000350&#45;&gt;node_0x5060000003e0</title>
<path fill="none" stroke="#34cb34" d="M400.91,-76C400.91,-76 375.18,-76 375.18,-76"/>
<polygon fill="#34cb34" stroke="#34cb34" points="375.18,-72.5 365.18,-76 375.18,-79.5 375.18,-72.5"/>
</g>
<!-- node_0x504000000390 -->
<g id="node3" class="node">
<title>node_0x504000000390</title>
<path fill="#9966ff" stroke="#ffe9c7" d="M813,-42.5C813,-42.5 1154,-42.5 1154,-42.5 1160,-42.5 1166,-48.5 1166,-54.5 1166,-54.5 1166,-122.5 1166,-122.5 1166,-128.5 1160,-134.5 1154,-134.5 1154,-134.5 813,-134.5 813,-134.5 807,-134.5 801,-128.5 801,-122.5 801,-122.5 801,-54.5 801,-54.5 801,-48.5 807,-42.5 813,-42.5"/>
<text text-anchor="middle" x="983.5" y="-119.3" font-family="Times,serif" font-size="14.00">num: 1</text>
<polyline fill="none" stroke="#ffe9c7" points="801,-111.5 1166,-111.5 "/>
<text text-anchor="middle" x="983.5" y="-96.3" font-family="Times,serif" font-size="14.00">data: one</text>
<polyline fill="none" stroke="#ffe9c7" points="801,-88.5 1166,-88.5 "/>
<text text-anchor="middle" x="983.5" y="-73.3" font-family="Times,serif" font-size="14.00">curr: 0x504000000390</text>
<polyline fill="none" stroke="#ffe9c7" points="801,-65.5 1166,-65.5 "/>
<text text-anchor="middle" x="892.5" y="-50.3" font-family="Times,serif" font-size="14.00">prev: 0x504000000350</text>
<polyline fill="none" stroke="#ffe9c7" points="984,-42.5 984,-65.5 "/>
<text text-anchor="middle" x="1075" y="-50.3" font-family="Times,serif" font-size="14.00">next: 0x5040000003d0</text>
</g>
<!-- node_0x504000000350&#45;&gt;node_0x504000000390 -->
<g id="edge3" class="edge">
<title>node_0x504000000350&#45;&gt;node_0x504000000390</title>
<path fill="none" stroke="#ff6699" d="M765.09,-73C765.09,-73 790.82,-73 790.82,-73"/>
<polygon fill="#ff6699" stroke="#ff6699" points="790.82,-76.5 800.82,-73 790.82,-69.5 790.82,-76.5"/>
</g>
<!-- node_0x504000000390&#45;&gt;node_0x504000000350 -->
<g id="edge6" class="edge">
<title>node_0x504000000390&#45;&gt;node_0x504000000350</title>
<path fill="none" stroke="#34cb34" d="M800.83,-104C800.83,-104 775.16,-104 775.16,-104"/>
<polygon fill="#34cb34" stroke="#34cb34" points="775.16,-100.5 765.16,-104 775.16,-107.5 775.16,-100.5"/>
</g>
<!-- node_0x5040000003d0 -->
<g id="node4" class="node">
<title>node_0x5040000003d0</title>
<path fill="#9966ff" stroke="#ffe9c7" d="M1214,-42.5C1214,-42.5 1555,-42.5 1555,-42.5 1561,-42.5 1567,-48.5 1567,-54.5 1567,-54.5 1567,-122.5 1567,-122.5 1567,-128.5 1561,-134.5 1555,-134.5 1555,-134.5 1214,-134.5 1214,-134.5 1208,-134.5 1202,-128.5 1202,-122.5 1202,-122.5 1202,-54.5 1202,-54.5 1202,-48.5 1208,-42.5 1214,-42.5"/>
<text text-anchor="middle" x="1384.5" y="-119.3" font-family="Times,serif" font-size="14.00">num: 2</text>
<polyline fill="none" stroke="#ffe9c7" points="1202,-111.5 1567,-111.5 "/>
<text text-anchor="middle" x="1384.5" y="-96.3" font-family="Times,serif" font-size="14.00">data: func</text>
<polyline fill="none" stroke="#ffe9c7" points="1202,-88.5 1567,-88.5 "/>
<text text-anchor="middle" x="1384.5" y="-73.3" font-family="Times,serif" font-size="14.00">curr: 0x5040000003d0</text>
<polyline fill="none" stroke="#ffe9c7" points="1202,-65.5 1567,-65.5 "/>
<text text-anchor="middle" x="1293.5" y="-50.3" font-family="Times,serif" font-size="14.00">prev: 0x504000000390</text>
<polyline fill="none" stroke="#ffe9c7" points="1385,-42.5 1385,-65.5 "/>
<text text-anchor="middle" x="1476" y="-50.3" font-family="Times,serif" font-size="14.00">next: 0x504000000410</text>
</g>
<!-- node_0x504000000390&#45;&gt;node_0x5040000003d0 -->
<g id="edge5" class="edge">
<title>node_0x504000000390&#45;&gt;node_0x5040000003d0</title>
<path fill="none" stroke="#ff6699" d="M1166.11,-73C1166.11,-73 1191.85,-73 1191.85,-73"/>
<polygon fill="#ff6699" stroke="#ff6699" points="1191.85,-76.5 1201.85,-73 1191.85,-69.5 1191.85,-76.5"/>
</g>
<!-- node_0x5040000003d0&#45;&gt;node_0x504000000390 -->
<g id="edge8" class="edge">
<title>node_0x5040000003d0&#45;&gt;node_0x504000000390</title>
<path fill="none" stroke="#34cb34" d="M1201.89,-104C1201.89,-104 1176.15,-104 1176.15,-104"/>
<polygon fill="#34cb34" stroke="#34cb34" points="1176.15,-100.5 1166.15,-104 1176.15,-107.5 1176.15,-100.5"/>
</g>
<!-- node_0x504000000410 -->
<g id="node5" class="node">
<title>node_0x504000000410</title>
<path fill="#9966ff" stroke="#ffe9c7" d="M1615,-42.5C1615,-42.5 1956,-42.5 1956,-42.5 1962,-42.5 1968,-48.5 1968,-54.5 1968,-54.5 1968,-122.5 1968,-122.5 1968,-128.5 1962,-134.5 1956,-134.5 1956,-134.5 1615,-134.5 1615,-134.5 1609,-134.5 1603,-128.5 1603,-122.5 1603,-122.5 1603,-54.5 1603,-54.5 1603,-48.5 1609,-42.5 1615,-42.5"/>
<text text-anchor="middle" x="1785.5" y="-119.3" font-family="Times,serif" font-size="14.00">num: 3</text>
<polyline fill="none" stroke="#ffe9c7" points="1603,-111.5 1968,-111.5 "/>
<text text-anchor="middle" x="1785.5" y="-96.3" font-family="Times,serif" font-size="14.00">data: func</text>
<polyline fill="none" stroke="#ffe9c7" points="1603,-88.5 1968,-88.5 "/>
<text text-anchor="middle" x="1785.5" y="-73.3" font-family="Times,serif" font-size="14.00">curr: 0x504000000410</text>
<polyline fill="none" stroke="#ffe9c7" points="1603,-65.5 1968,-65.5 "/>
<text text-anchor="middle" x="1694.5" y="-50.3" font-family="Times,serif" font-size="14.00">prev: 0x5040000003d0</text>
<polyline fill="none" stroke="#ffe9c7" points="1786,-42.5 1786,-65.5 "/>
<text text-anchor="middle" x="1877" y="-50.3" font-family="Times,serif" font-size="14.00">next: 0x504000000450</text>
</g>
<!-- node_0x5040000003d0&#45;&gt;node_0x504000000410 -->
<g id="edge7" class="edge">
<title>node_0x5040000003d0&#45;&gt;node_0x504000000410</title>
<path fill="none" stroke="#ff6699" d="M1567.11,-73C1567.11,-73 1592.85,-73 1592.85,-73"/>
<polygon fill="#ff6699" stroke="#ff6699" points="1592.85,-76.5 1602.85,-73 1592.85,-69.5 1592.85,-76.5"/>
</g>
<!-- node_0x504000000410&#45;&gt;node_0x5040000003d0 -->
<g id="edge10" class="edge">
<title>node_0x504000000410&#45;&gt;node_0x5040000003d0</title>
<path fill="none" stroke="#34cb34" d="M1602.89,-104C1602.89,-104 1577.15,-104 1577.15,-104"/>
<polygon fill="#34cb34" stroke="#34cb34" points="1577.15,-100.5 1567.15,-104 1577.15,-107.5 1577.15,-100.5"/>
</g>
<!-- node_0x504000000450 -->
<g id="node6" class="node">
<title>node_0x504000000450</title>
<path fill="#9966ff" stroke="#ffe9c7" d="M2016,-42.5C2016,-42.5 2357,-42.5 2357,-42.5 2363,-42.5 2369,-48.5 2369,-54.5 2369,-54.5 2369,-122.5 2369,-122.5 2369,-128.5 2363,-134.5 2357,-134.5 2357,-134.5 2016,-134.5 2016,-134.5 2010,-134.5 2004,-128.5 2004,-122.5 2004,-122.5 2004,-54.5 2004,-54.5 2004,-48.5 2010,-42.5 2016,-42.5"/>
<text text-anchor="middle" x="2186.5" y="-119.3" font-family="Times,serif" font-size="14.00">num: 4</text>
<polyline fill="none" stroke="#ffe9c7" points="2004,-111.5 2369,-111.5 "/>
<text text-anchor="middle" x="2186.5" y="-96.3" font-family="Times,serif" font-size="14.00">data: one</text>
<polyline fill="none" stroke="#ffe9c7" points="2004,-88.5 2369,-88.5 "/>
<text text-anchor="middle" x="2186.5" y="-73.3" font-family="Times,serif" font-size="14.00">curr: 0x504000000450</text>
<polyline fill="none" stroke="#ffe9c7" points="2004,-65.5 2369,-65.5 "/>
<text text-anchor="middle" x="2095.5" y="-50.3" font-family="Times,serif" font-size="14.00">prev: 0x504000000410</text>
<polyline fill="none" stroke="#ffe9c7" points="2187,-42.5 2187,-65.5 "/>
<text text-anchor="middle" x="2278" y="-50.3" font-family="Times,serif" font-size="14.00">next: 0x504000000490</text>
</g>
<!-- node_0x504000000410&#45;&gt;node_0x504000000450 -->
<g id="edge9" class="edge">
<title>node_0x504000000410&#45;&gt;node_0x504000000450</title>
<path fill="none" stroke="#ff6699" d="M1968.11,-73C1968.11,-73 1993.85,-73 1993.85,-73"/>
<polygon fill="#ff6699" stroke="#ff6699" points="1993.85,-76.5 2003.85,-73 1993.85,-69.5 1993.85,-76.5"/>
</g>
<!-- node_0x504000000450&#45;&gt;node_0x504000000410 -->
<g id="edge12" class="edge">
<title>node_0x504000000450&#45;&gt;node_0x504000000410</title>
<path fill="none" stroke="#34cb34" d="M2003.89,-104C2003.89,-104 1978.15,-104 1978.15,-104"/>
<polygon fill="#34cb34" stroke="#34cb34" points="1978.15,-100.5 1968.15,-104 1978.15,-107.5 1978.15,-100.5"/>
</g>
<!-- node_0x504000000450&#45;&gt;node_0x504000000490 -->
<g id="edge11" class="edge">
<title>node_0x504000000450&#45;&gt;node_0x504000000490</title>
<path fill="none" stroke="#ff6699" d="M2369.11,-59C2369.11,-59 2394.85,-59 2394.85,-59"/>
<polygon fill="#ff6699" stroke="#ff6699" points="2394.85,-62.5 2404.85,-59 2394.85,-55.5 2394.85,-62.5"/>
</g>
<!-- node_0x504000000490&#45;&gt;node_0x5060000003e0 -->
<g id="edge13" class="edge">
<title>node_0x504000000490&#45;&gt;node_0x5060000003e0</title>
<path fill="none" stroke="#ff6699" d="M2404.76,-28C2404.76,-28 375.37,-28 375.37,-28"/>
<polygon fill="#ff6699" stroke="#ff6699" points="375.37,-24.5 365.37,-28 375.37,-31.5 375.37,-24.5"/>
</g>
<!-- node_0x504000000490&#45;&gt;node_0x504000000450 -->
<g id="edge14" class="edge">
<title>node_0x504000000490&#45;&gt;node_0x504000000450</title>
<path fill="none" stroke="#34cb34" d="M2404.89,-76C2404.89,-76 2379.15,-76 2379.15,-76"/>
<polygon fill="#34cb34" stroke="#34cb34" points="2379.15,-72.5 2369.15,-76 2379.15,-79.5 2379.15,-72.5"/>
</g>
</g>
</svg>
