<?xml version="1.0" encoding="UTF-8" standalone="no"?>
<!DOCTYPE svg PUBLIC "-//W3C//DTD SVG 1.1//EN"
 "http://www.w3.org/Graphics/SVG/1.1/DTD/svg11.dtd">
<!-- Generated by graphviz version 2.43.0 (0)
 -->
<!-- Title: G Pages: 1 -->
<svg width="1959pt" height="184pt"
 viewBox="0.00 0.00 1959.00 184.00" xmlns="http://www.w3.org/2000/svg" xmlns:xlink="http://www.w3.org/1999/xlink">
<g id="graph0" class="graph" transform="scale(1 1) rotate(0) translate(4 180)">
<title>G</title>
<polygon fill="#ffd480" stroke="transparent" points="-4,4 -4,-180 1955,-180 1955,4 -4,4"/>
<text text-anchor="middle" x="975.5" y="-148" font-family="Verdana" font-size="30.00" fill="#ffffff">List</text>
<!-- node_0x5d104d49c0f0 -->
<g id="node1" class="node">
<title>node_0x5d104d49c0f0</title>
<path fill="#ff6699" stroke="#ffe9c7" d="M12,-0.5C12,-0.5 351,-0.5 351,-0.5 357,-0.5 363,-6.5 363,-12.5 363,-12.5 363,-80.5 363,-80.5 363,-86.5 357,-92.5 351,-92.5 351,-92.5 12,-92.5 12,-92.5 6,-92.5 0,-86.5 0,-80.5 0,-80.5 0,-12.5 0,-12.5 0,-6.5 6,-0.5 12,-0.5"/>
<text text-anchor="middle" x="181.5" y="-77.3" font-family="Times,serif" font-size="14.00">Phantom</text>
<polyline fill="none" stroke="#ffe9c7" points="0,-69.5 363,-69.5 "/>
<text text-anchor="middle" x="181.5" y="-54.3" font-family="Times,serif" font-size="14.00">data: BADBABA</text>
<polyline fill="none" stroke="#ffe9c7" points="0,-46.5 363,-46.5 "/>
<text text-anchor="middle" x="181.5" y="-31.3" font-family="Times,serif" font-size="14.00">curr: 0x5d104d49c0f0</text>
<polyline fill="none" stroke="#ffe9c7" points="0,-23.5 363,-23.5 "/>
<text text-anchor="middle" x="91" y="-8.3" font-family="Times,serif" font-size="14.00">prev: 0x5d104d49c570</text>
<polyline fill="none" stroke="#ffe9c7" points="182,-0.5 182,-23.5 "/>
<text text-anchor="middle" x="272.5" y="-8.3" font-family="Times,serif" font-size="14.00">next: 0x5d104d49c160</text>
</g>
<!-- node_0x5d104d49c160 -->
<g id="node2" class="node">
<title>node_0x5d104d49c160</title>
<path fill="#9966ff" stroke="#ffe9c7" d="M411,-42.5C411,-42.5 746,-42.5 746,-42.5 752,-42.5 758,-48.5 758,-54.5 758,-54.5 758,-122.5 758,-122.5 758,-128.5 752,-134.5 746,-134.5 746,-134.5 411,-134.5 411,-134.5 405,-134.5 399,-128.5 399,-122.5 399,-122.5 399,-54.5 399,-54.5 399,-48.5 405,-42.5 411,-42.5"/>
<text text-anchor="middle" x="578.5" y="-119.3" font-family="Times,serif" font-size="14.00">num: 0</text>
<polyline fill="none" stroke="#ffe9c7" points="399,-111.5 758,-111.5 "/>
<text text-anchor="middle" x="578.5" y="-96.3" font-family="Times,serif" font-size="14.00">data: main</text>
<polyline fill="none" stroke="#ffe9c7" points="399,-88.5 758,-88.5 "/>
<text text-anchor="middle" x="578.5" y="-73.3" font-family="Times,serif" font-size="14.00">curr: 0x5d104d49c160</text>
<polyline fill="none" stroke="#ffe9c7" points="399,-65.5 758,-65.5 "/>
<text text-anchor="middle" x="488" y="-50.3" font-family="Times,serif" font-size="14.00">prev: 0x5d104d49c0f0</text>
<polyline fill="none" stroke="#ffe9c7" points="577,-42.5 577,-65.5 "/>
<text text-anchor="middle" x="667.5" y="-50.3" font-family="Times,serif" font-size="14.00">next: 0x5d104d49c290</text>
</g>
<!-- node_0x5d104d49c0f0&#45;&gt;node_0x5d104d49c160 -->
<g id="edge1" class="edge">
<title>node_0x5d104d49c0f0&#45;&gt;node_0x5d104d49c160</title>
<path fill="none" stroke="#ff6699" d="M363.15,-59C363.15,-59 388.75,-59 388.75,-59"/>
<polygon fill="#ff6699" stroke="#ff6699" points="388.75,-62.5 398.75,-59 388.75,-55.5 388.75,-62.5"/>
</g>
<!-- node_0x5d104d49c570 -->
<g id="node5" class="node">
<title>node_0x5d104d49c570</title>
<path fill="#9966ff" stroke="#ffe9c7" d="M1604,-0.5C1604,-0.5 1939,-0.5 1939,-0.5 1945,-0.5 1951,-6.5 1951,-12.5 1951,-12.5 1951,-80.5 1951,-80.5 1951,-86.5 1945,-92.5 1939,-92.5 1939,-92.5 1604,-92.5 1604,-92.5 1598,-92.5 1592,-86.5 1592,-80.5 1592,-80.5 1592,-12.5 1592,-12.5 1592,-6.5 1598,-0.5 1604,-0.5"/>
<text text-anchor="middle" x="1771.5" y="-77.3" font-family="Times,serif" font-size="14.00">num: 3</text>
<polyline fill="none" stroke="#ffe9c7" points="1592,-69.5 1951,-69.5 "/>
<text text-anchor="middle" x="1771.5" y="-54.3" font-family="Times,serif" font-size="14.00">data: two</text>
<polyline fill="none" stroke="#ffe9c7" points="1592,-46.5 1951,-46.5 "/>
<text text-anchor="middle" x="1771.5" y="-31.3" font-family="Times,serif" font-size="14.00">curr: 0x5d104d49c570</text>
<polyline fill="none" stroke="#ffe9c7" points="1592,-23.5 1951,-23.5 "/>
<text text-anchor="middle" x="1683" y="-8.3" font-family="Times,serif" font-size="14.00">prev: 0x5d104d49c320</text>
<polyline fill="none" stroke="#ffe9c7" points="1774,-0.5 1774,-23.5 "/>
<text text-anchor="middle" x="1862.5" y="-8.3" font-family="Times,serif" font-size="14.00">next: 0x5d104d49c0f0</text>
</g>
<!-- node_0x5d104d49c0f0&#45;&gt;node_0x5d104d49c570 -->
<g id="edge2" class="edge">
<title>node_0x5d104d49c0f0&#45;&gt;node_0x5d104d49c570</title>
<path fill="none" stroke="#34cb34" d="M363.12,-14C363.12,-14 1581.94,-14 1581.94,-14"/>
<polygon fill="#34cb34" stroke="#34cb34" points="1581.94,-17.5 1591.94,-14 1581.94,-10.5 1581.94,-17.5"/>
</g>
<!-- node_0x5d104d49c160&#45;&gt;node_0x5d104d49c0f0 -->
<g id="edge4" class="edge">
<title>node_0x5d104d49c160&#45;&gt;node_0x5d104d49c0f0</title>
<path fill="none" stroke="#34cb34" d="M398.87,-76C398.87,-76 373.05,-76 373.05,-76"/>
<polygon fill="#34cb34" stroke="#34cb34" points="373.05,-72.5 363.05,-76 373.05,-79.5 373.05,-72.5"/>
</g>
<!-- node_0x5d104d49c290 -->
<g id="node3" class="node">
<title>node_0x5d104d49c290</title>
<path fill="#9966ff" stroke="#ffe9c7" d="M806,-42.5C806,-42.5 1145,-42.5 1145,-42.5 1151,-42.5 1157,-48.5 1157,-54.5 1157,-54.5 1157,-122.5 1157,-122.5 1157,-128.5 1151,-134.5 1145,-134.5 1145,-134.5 806,-134.5 806,-134.5 800,-134.5 794,-128.5 794,-122.5 794,-122.5 794,-54.5 794,-54.5 794,-48.5 800,-42.5 806,-42.5"/>
<text text-anchor="middle" x="975.5" y="-119.3" font-family="Times,serif" font-size="14.00">num: 1</text>
<polyline fill="none" stroke="#ffe9c7" points="794,-111.5 1157,-111.5 "/>
<text text-anchor="middle" x="975.5" y="-96.3" font-family="Times,serif" font-size="14.00">data: one</text>
<polyline fill="none" stroke="#ffe9c7" points="794,-88.5 1157,-88.5 "/>
<text text-anchor="middle" x="975.5" y="-73.3" font-family="Times,serif" font-size="14.00">curr: 0x5d104d49c290</text>
<polyline fill="none" stroke="#ffe9c7" points="794,-65.5 1157,-65.5 "/>
<text text-anchor="middle" x="885" y="-50.3" font-family="Times,serif" font-size="14.00">prev: 0x5d104d49c160</text>
<polyline fill="none" stroke="#ffe9c7" points="976,-42.5 976,-65.5 "/>
<text text-anchor="middle" x="1066.5" y="-50.3" font-family="Times,serif" font-size="14.00">next: 0x5d104d49c320</text>
</g>
<!-- node_0x5d104d49c160&#45;&gt;node_0x5d104d49c290 -->
<g id="edge3" class="edge">
<title>node_0x5d104d49c160&#45;&gt;node_0x5d104d49c290</title>
<path fill="none" stroke="#ff6699" d="M758.13,-73C758.13,-73 783.95,-73 783.95,-73"/>
<polygon fill="#ff6699" stroke="#ff6699" points="783.95,-76.5 793.95,-73 783.95,-69.5 783.95,-76.5"/>
</g>
<!-- node_0x5d104d49c290&#45;&gt;node_0x5d104d49c160 -->
<g id="edge6" class="edge">
<title>node_0x5d104d49c290&#45;&gt;node_0x5d104d49c160</title>
<path fill="none" stroke="#34cb34" d="M793.85,-104C793.85,-104 768.25,-104 768.25,-104"/>
<polygon fill="#34cb34" stroke="#34cb34" points="768.25,-100.5 758.25,-104 768.25,-107.5 768.25,-100.5"/>
</g>
<!-- node_0x5d104d49c320 -->
<g id="node4" class="node">
<title>node_0x5d104d49c320</title>
<path fill="#9966ff" stroke="#ffe9c7" d="M1205,-42.5C1205,-42.5 1544,-42.5 1544,-42.5 1550,-42.5 1556,-48.5 1556,-54.5 1556,-54.5 1556,-122.5 1556,-122.5 1556,-128.5 1550,-134.5 1544,-134.5 1544,-134.5 1205,-134.5 1205,-134.5 1199,-134.5 1193,-128.5 1193,-122.5 1193,-122.5 1193,-54.5 1193,-54.5 1193,-48.5 1199,-42.5 1205,-42.5"/>
<text text-anchor="middle" x="1374.5" y="-119.3" font-family="Times,serif" font-size="14.00">num: 2</text>
<polyline fill="none" stroke="#ffe9c7" points="1193,-111.5 1556,-111.5 "/>
<text text-anchor="middle" x="1374.5" y="-96.3" font-family="Times,serif" font-size="14.00">data: func</text>
<polyline fill="none" stroke="#ffe9c7" points="1193,-88.5 1556,-88.5 "/>
<text text-anchor="middle" x="1374.5" y="-73.3" font-family="Times,serif" font-size="14.00">curr: 0x5d104d49c320</text>
<polyline fill="none" stroke="#ffe9c7" points="1193,-65.5 1556,-65.5 "/>
<text text-anchor="middle" x="1284" y="-50.3" font-family="Times,serif" font-size="14.00">prev: 0x5d104d49c290</text>
<polyline fill="none" stroke="#ffe9c7" points="1375,-42.5 1375,-65.5 "/>
<text text-anchor="middle" x="1465.5" y="-50.3" font-family="Times,serif" font-size="14.00">next: 0x5d104d49c570</text>
</g>
<!-- node_0x5d104d49c290&#45;&gt;node_0x5d104d49c320 -->
<g id="edge5" class="edge">
<title>node_0x5d104d49c290&#45;&gt;node_0x5d104d49c320</title>
<path fill="none" stroke="#ff6699" d="M1157.19,-73C1157.19,-73 1182.76,-73 1182.76,-73"/>
<polygon fill="#ff6699" stroke="#ff6699" points="1182.76,-76.5 1192.76,-73 1182.76,-69.5 1182.76,-76.5"/>
</g>
<!-- node_0x5d104d49c320&#45;&gt;node_0x5d104d49c290 -->
<g id="edge8" class="edge">
<title>node_0x5d104d49c320&#45;&gt;node_0x5d104d49c290</title>
<path fill="none" stroke="#34cb34" d="M1192.81,-104C1192.81,-104 1167.24,-104 1167.24,-104"/>
<polygon fill="#34cb34" stroke="#34cb34" points="1167.24,-100.5 1157.24,-104 1167.24,-107.5 1167.24,-100.5"/>
</g>
<!-- node_0x5d104d49c320&#45;&gt;node_0x5d104d49c570 -->
<g id="edge7" class="edge">
<title>node_0x5d104d49c320&#45;&gt;node_0x5d104d49c570</title>
<path fill="none" stroke="#ff6699" d="M1556.15,-59C1556.15,-59 1581.75,-59 1581.75,-59"/>
<polygon fill="#ff6699" stroke="#ff6699" points="1581.75,-62.5 1591.75,-59 1581.75,-55.5 1581.75,-62.5"/>
</g>
<!-- node_0x5d104d49c570&#45;&gt;node_0x5d104d49c0f0 -->
<g id="edge9" class="edge">
<title>node_0x5d104d49c570&#45;&gt;node_0x5d104d49c0f0</title>
<path fill="none" stroke="#ff6699" d="M1591.81,-28C1591.81,-28 373.1,-28 373.1,-28"/>
<polygon fill="#ff6699" stroke="#ff6699" points="373.1,-24.5 363.1,-28 373.1,-31.5 373.1,-24.5"/>
</g>
<!-- node_0x5d104d49c570&#45;&gt;node_0x5d104d49c320 -->
<g id="edge10" class="edge">
<title>node_0x5d104d49c570&#45;&gt;node_0x5d104d49c320</title>
<path fill="none" stroke="#34cb34" d="M1591.87,-76C1591.87,-76 1566.05,-76 1566.05,-76"/>
<polygon fill="#34cb34" stroke="#34cb34" points="1566.05,-72.5 1556.05,-76 1566.05,-79.5 1566.05,-72.5"/>
</g>
</g>
</svg>
