<?xml version="1.0" encoding="UTF-8" standalone="no"?>
<!DOCTYPE svg PUBLIC "-//W3C//DTD SVG 1.1//EN"
 "http://www.w3.org/Graphics/SVG/1.1/DTD/svg11.dtd">
<!-- Generated by graphviz version 2.43.0 (0)
 -->
<!-- Title: G Pages: 1 -->
<svg width="2318pt" height="184pt"
 viewBox="0.00 0.00 2318.00 184.00" xmlns="http://www.w3.org/2000/svg" xmlns:xlink="http://www.w3.org/1999/xlink">
<g id="graph0" class="graph" transform="scale(1 1) rotate(0) translate(4 180)">
<title>G</title>
<polygon fill="#ffd480" stroke="transparent" points="-4,4 -4,-180 2314,-180 2314,4 -4,4"/>
<text text-anchor="middle" x="1155" y="-148" font-family="Verdana" font-size="30.00" fill="#ffffff">List</text>
<!-- node_0x5ed7f9936250 -->
<g id="node1" class="node">
<title>node_0x5ed7f9936250</title>
<path fill="#ff6699" stroke="#ffe9c7" d="M12,-0.5C12,-0.5 343,-0.5 343,-0.5 349,-0.5 355,-6.5 355,-12.5 355,-12.5 355,-80.5 355,-80.5 355,-86.5 349,-92.5 343,-92.5 343,-92.5 12,-92.5 12,-92.5 6,-92.5 0,-86.5 0,-80.5 0,-80.5 0,-12.5 0,-12.5 0,-6.5 6,-0.5 12,-0.5"/>
<text text-anchor="middle" x="177.5" y="-77.3" font-family="Times,serif" font-size="14.00">Phantom</text>
<polyline fill="none" stroke="#ffe9c7" points="0,-69.5 355,-69.5 "/>
<text text-anchor="middle" x="177.5" y="-54.3" font-family="Times,serif" font-size="14.00">data: BADBABA</text>
<polyline fill="none" stroke="#ffe9c7" points="0,-46.5 355,-46.5 "/>
<text text-anchor="middle" x="177.5" y="-31.3" font-family="Times,serif" font-size="14.00">curr: 0x5ed7f9936250</text>
<polyline fill="none" stroke="#ffe9c7" points="0,-23.5 355,-23.5 "/>
<text text-anchor="middle" x="89.5" y="-8.3" font-family="Times,serif" font-size="14.00">prev: 0x5ed7f9936940</text>
<polyline fill="none" stroke="#ffe9c7" points="179,-0.5 179,-23.5 "/>
<text text-anchor="middle" x="267" y="-8.3" font-family="Times,serif" font-size="14.00">next: 0x5ed7f99362c0</text>
</g>
<!-- node_0x5ed7f99362c0 -->
<g id="node2" class="node">
<title>node_0x5ed7f99362c0</title>
<path fill="#9966ff" stroke="#ffe9c7" d="M403,-42.5C403,-42.5 732,-42.5 732,-42.5 738,-42.5 744,-48.5 744,-54.5 744,-54.5 744,-122.5 744,-122.5 744,-128.5 738,-134.5 732,-134.5 732,-134.5 403,-134.5 403,-134.5 397,-134.5 391,-128.5 391,-122.5 391,-122.5 391,-54.5 391,-54.5 391,-48.5 397,-42.5 403,-42.5"/>
<text text-anchor="middle" x="567.5" y="-119.3" font-family="Times,serif" font-size="14.00">num: 0</text>
<polyline fill="none" stroke="#ffe9c7" points="391,-111.5 744,-111.5 "/>
<text text-anchor="middle" x="567.5" y="-96.3" font-family="Times,serif" font-size="14.00">data: main</text>
<polyline fill="none" stroke="#ffe9c7" points="391,-88.5 744,-88.5 "/>
<text text-anchor="middle" x="567.5" y="-73.3" font-family="Times,serif" font-size="14.00">curr: 0x5ed7f99362c0</text>
<polyline fill="none" stroke="#ffe9c7" points="391,-65.5 744,-65.5 "/>
<text text-anchor="middle" x="480.5" y="-50.3" font-family="Times,serif" font-size="14.00">prev: 0x5ed7f9936250</text>
<polyline fill="none" stroke="#ffe9c7" points="570,-42.5 570,-65.5 "/>
<text text-anchor="middle" x="657" y="-50.3" font-family="Times,serif" font-size="14.00">next: 0x5ed7f99363f0</text>
</g>
<!-- node_0x5ed7f9936250&#45;&gt;node_0x5ed7f99362c0 -->
<g id="edge1" class="edge">
<title>node_0x5ed7f9936250&#45;&gt;node_0x5ed7f99362c0</title>
<path fill="none" stroke="#ff6699" d="M355.1,-59C355.1,-59 380.77,-59 380.77,-59"/>
<polygon fill="#ff6699" stroke="#ff6699" points="380.77,-62.5 390.77,-59 380.77,-55.5 380.77,-62.5"/>
</g>
<!-- node_0x5ed7f9936940 -->
<g id="node6" class="node">
<title>node_0x5ed7f9936940</title>
<path fill="#9966ff" stroke="#ffe9c7" d="M1965,-0.5C1965,-0.5 2298,-0.5 2298,-0.5 2304,-0.5 2310,-6.5 2310,-12.5 2310,-12.5 2310,-80.5 2310,-80.5 2310,-86.5 2304,-92.5 2298,-92.5 2298,-92.5 1965,-92.5 1965,-92.5 1959,-92.5 1953,-86.5 1953,-80.5 1953,-80.5 1953,-12.5 1953,-12.5 1953,-6.5 1959,-0.5 1965,-0.5"/>
<text text-anchor="middle" x="2131.5" y="-77.3" font-family="Times,serif" font-size="14.00">num: 4</text>
<polyline fill="none" stroke="#ffe9c7" points="1953,-69.5 2310,-69.5 "/>
<text text-anchor="middle" x="2131.5" y="-54.3" font-family="Times,serif" font-size="14.00">data: param</text>
<polyline fill="none" stroke="#ffe9c7" points="1953,-46.5 2310,-46.5 "/>
<text text-anchor="middle" x="2131.5" y="-31.3" font-family="Times,serif" font-size="14.00">curr: 0x5ed7f9936940</text>
<polyline fill="none" stroke="#ffe9c7" points="1953,-23.5 2310,-23.5 "/>
<text text-anchor="middle" x="2042.5" y="-8.3" font-family="Times,serif" font-size="14.00">prev: 0x5ed7f99366d0</text>
<polyline fill="none" stroke="#ffe9c7" points="2132,-0.5 2132,-23.5 "/>
<text text-anchor="middle" x="2221" y="-8.3" font-family="Times,serif" font-size="14.00">next: 0x5ed7f9936250</text>
</g>
<!-- node_0x5ed7f9936250&#45;&gt;node_0x5ed7f9936940 -->
<g id="edge2" class="edge">
<title>node_0x5ed7f9936250&#45;&gt;node_0x5ed7f9936940</title>
<path fill="none" stroke="#34cb34" d="M355.22,-14C355.22,-14 1942.78,-14 1942.78,-14"/>
<polygon fill="#34cb34" stroke="#34cb34" points="1942.78,-17.5 1952.78,-14 1942.78,-10.5 1942.78,-17.5"/>
</g>
<!-- node_0x5ed7f99362c0&#45;&gt;node_0x5ed7f9936250 -->
<g id="edge4" class="edge">
<title>node_0x5ed7f99362c0&#45;&gt;node_0x5ed7f9936250</title>
<path fill="none" stroke="#34cb34" d="M390.76,-76C390.76,-76 365.29,-76 365.29,-76"/>
<polygon fill="#34cb34" stroke="#34cb34" points="365.29,-72.5 355.29,-76 365.29,-79.5 365.29,-72.5"/>
</g>
<!-- node_0x5ed7f99363f0 -->
<g id="node3" class="node">
<title>node_0x5ed7f99363f0</title>
<path fill="#9966ff" stroke="#ffe9c7" d="M792,-42.5C792,-42.5 1123,-42.5 1123,-42.5 1129,-42.5 1135,-48.5 1135,-54.5 1135,-54.5 1135,-122.5 1135,-122.5 1135,-128.5 1129,-134.5 1123,-134.5 1123,-134.5 792,-134.5 792,-134.5 786,-134.5 780,-128.5 780,-122.5 780,-122.5 780,-54.5 780,-54.5 780,-48.5 786,-42.5 792,-42.5"/>
<text text-anchor="middle" x="957.5" y="-119.3" font-family="Times,serif" font-size="14.00">num: 1</text>
<polyline fill="none" stroke="#ffe9c7" points="780,-111.5 1135,-111.5 "/>
<text text-anchor="middle" x="957.5" y="-96.3" font-family="Times,serif" font-size="14.00">data: one</text>
<polyline fill="none" stroke="#ffe9c7" points="780,-88.5 1135,-88.5 "/>
<text text-anchor="middle" x="957.5" y="-73.3" font-family="Times,serif" font-size="14.00">curr: 0x5ed7f99363f0</text>
<polyline fill="none" stroke="#ffe9c7" points="780,-65.5 1135,-65.5 "/>
<text text-anchor="middle" x="868.5" y="-50.3" font-family="Times,serif" font-size="14.00">prev: 0x5ed7f99362c0</text>
<polyline fill="none" stroke="#ffe9c7" points="957,-42.5 957,-65.5 "/>
<text text-anchor="middle" x="1046" y="-50.3" font-family="Times,serif" font-size="14.00">next: 0x5ed7f9936480</text>
</g>
<!-- node_0x5ed7f99362c0&#45;&gt;node_0x5ed7f99363f0 -->
<g id="edge3" class="edge">
<title>node_0x5ed7f99362c0&#45;&gt;node_0x5ed7f99363f0</title>
<path fill="none" stroke="#ff6699" d="M744.24,-73C744.24,-73 769.71,-73 769.71,-73"/>
<polygon fill="#ff6699" stroke="#ff6699" points="769.71,-76.5 779.71,-73 769.71,-69.5 769.71,-76.5"/>
</g>
<!-- node_0x5ed7f99363f0&#45;&gt;node_0x5ed7f99362c0 -->
<g id="edge6" class="edge">
<title>node_0x5ed7f99363f0&#45;&gt;node_0x5ed7f99362c0</title>
<path fill="none" stroke="#34cb34" d="M779.9,-104C779.9,-104 754.23,-104 754.23,-104"/>
<polygon fill="#34cb34" stroke="#34cb34" points="754.23,-100.5 744.23,-104 754.23,-107.5 754.23,-100.5"/>
</g>
<!-- node_0x5ed7f9936480 -->
<g id="node4" class="node">
<title>node_0x5ed7f9936480</title>
<path fill="#9966ff" stroke="#ffe9c7" d="M1183,-42.5C1183,-42.5 1512,-42.5 1512,-42.5 1518,-42.5 1524,-48.5 1524,-54.5 1524,-54.5 1524,-122.5 1524,-122.5 1524,-128.5 1518,-134.5 1512,-134.5 1512,-134.5 1183,-134.5 1183,-134.5 1177,-134.5 1171,-128.5 1171,-122.5 1171,-122.5 1171,-54.5 1171,-54.5 1171,-48.5 1177,-42.5 1183,-42.5"/>
<text text-anchor="middle" x="1347.5" y="-119.3" font-family="Times,serif" font-size="14.00">num: 2</text>
<polyline fill="none" stroke="#ffe9c7" points="1171,-111.5 1524,-111.5 "/>
<text text-anchor="middle" x="1347.5" y="-96.3" font-family="Times,serif" font-size="14.00">data: func</text>
<polyline fill="none" stroke="#ffe9c7" points="1171,-88.5 1524,-88.5 "/>
<text text-anchor="middle" x="1347.5" y="-73.3" font-family="Times,serif" font-size="14.00">curr: 0x5ed7f9936480</text>
<polyline fill="none" stroke="#ffe9c7" points="1171,-65.5 1524,-65.5 "/>
<text text-anchor="middle" x="1258.5" y="-50.3" font-family="Times,serif" font-size="14.00">prev: 0x5ed7f99363f0</text>
<polyline fill="none" stroke="#ffe9c7" points="1346,-42.5 1346,-65.5 "/>
<text text-anchor="middle" x="1435" y="-50.3" font-family="Times,serif" font-size="14.00">next: 0x5ed7f99366d0</text>
</g>
<!-- node_0x5ed7f99363f0&#45;&gt;node_0x5ed7f9936480 -->
<g id="edge5" class="edge">
<title>node_0x5ed7f99363f0&#45;&gt;node_0x5ed7f9936480</title>
<path fill="none" stroke="#ff6699" d="M1135.1,-73C1135.1,-73 1160.77,-73 1160.77,-73"/>
<polygon fill="#ff6699" stroke="#ff6699" points="1160.77,-76.5 1170.77,-73 1160.77,-69.5 1160.77,-76.5"/>
</g>
<!-- node_0x5ed7f9936480&#45;&gt;node_0x5ed7f99363f0 -->
<g id="edge8" class="edge">
<title>node_0x5ed7f9936480&#45;&gt;node_0x5ed7f99363f0</title>
<path fill="none" stroke="#34cb34" d="M1170.76,-104C1170.76,-104 1145.29,-104 1145.29,-104"/>
<polygon fill="#34cb34" stroke="#34cb34" points="1145.29,-100.5 1135.29,-104 1145.29,-107.5 1145.29,-100.5"/>
</g>
<!-- node_0x5ed7f99366d0 -->
<g id="node5" class="node">
<title>node_0x5ed7f99366d0</title>
<path fill="#9966ff" stroke="#ffe9c7" d="M1572,-42.5C1572,-42.5 1905,-42.5 1905,-42.5 1911,-42.5 1917,-48.5 1917,-54.5 1917,-54.5 1917,-122.5 1917,-122.5 1917,-128.5 1911,-134.5 1905,-134.5 1905,-134.5 1572,-134.5 1572,-134.5 1566,-134.5 1560,-128.5 1560,-122.5 1560,-122.5 1560,-54.5 1560,-54.5 1560,-48.5 1566,-42.5 1572,-42.5"/>
<text text-anchor="middle" x="1738.5" y="-119.3" font-family="Times,serif" font-size="14.00">num: 3</text>
<polyline fill="none" stroke="#ffe9c7" points="1560,-111.5 1917,-111.5 "/>
<text text-anchor="middle" x="1738.5" y="-96.3" font-family="Times,serif" font-size="14.00">data: two</text>
<polyline fill="none" stroke="#ffe9c7" points="1560,-88.5 1917,-88.5 "/>
<text text-anchor="middle" x="1738.5" y="-73.3" font-family="Times,serif" font-size="14.00">curr: 0x5ed7f99366d0</text>
<polyline fill="none" stroke="#ffe9c7" points="1560,-65.5 1917,-65.5 "/>
<text text-anchor="middle" x="1649.5" y="-50.3" font-family="Times,serif" font-size="14.00">prev: 0x5ed7f9936480</text>
<polyline fill="none" stroke="#ffe9c7" points="1739,-42.5 1739,-65.5 "/>
<text text-anchor="middle" x="1828" y="-50.3" font-family="Times,serif" font-size="14.00">next: 0x5ed7f9936940</text>
</g>
<!-- node_0x5ed7f9936480&#45;&gt;node_0x5ed7f99366d0 -->
<g id="edge7" class="edge">
<title>node_0x5ed7f9936480&#45;&gt;node_0x5ed7f99366d0</title>
<path fill="none" stroke="#ff6699" d="M1524.13,-73C1524.13,-73 1549.75,-73 1549.75,-73"/>
<polygon fill="#ff6699" stroke="#ff6699" points="1549.75,-76.5 1559.75,-73 1549.75,-69.5 1549.75,-76.5"/>
</g>
<!-- node_0x5ed7f99366d0&#45;&gt;node_0x5ed7f9936480 -->
<g id="edge10" class="edge">
<title>node_0x5ed7f99366d0&#45;&gt;node_0x5ed7f9936480</title>
<path fill="none" stroke="#34cb34" d="M1559.88,-104C1559.88,-104 1534.18,-104 1534.18,-104"/>
<polygon fill="#34cb34" stroke="#34cb34" points="1534.18,-100.5 1524.18,-104 1534.18,-107.5 1534.18,-100.5"/>
</g>
<!-- node_0x5ed7f99366d0&#45;&gt;node_0x5ed7f9936940 -->
<g id="edge9" class="edge">
<title>node_0x5ed7f99366d0&#45;&gt;node_0x5ed7f9936940</title>
<path fill="none" stroke="#ff6699" d="M1917.18,-59C1917.18,-59 1942.85,-59 1942.85,-59"/>
<polygon fill="#ff6699" stroke="#ff6699" points="1942.85,-62.5 1952.85,-59 1942.85,-55.5 1942.85,-62.5"/>
</g>
<!-- node_0x5ed7f9936940&#45;&gt;node_0x5ed7f9936250 -->
<g id="edge11" class="edge">
<title>node_0x5ed7f9936940&#45;&gt;node_0x5ed7f9936250</title>
<path fill="none" stroke="#ff6699" d="M1952.92,-28C1952.92,-28 365.32,-28 365.32,-28"/>
<polygon fill="#ff6699" stroke="#ff6699" points="365.32,-24.5 355.32,-28 365.32,-31.5 365.32,-24.5"/>
</g>
<!-- node_0x5ed7f9936940&#45;&gt;node_0x5ed7f99366d0 -->
<g id="edge12" class="edge">
<title>node_0x5ed7f9936940&#45;&gt;node_0x5ed7f99366d0</title>
<path fill="none" stroke="#34cb34" d="M1952.82,-76C1952.82,-76 1927.15,-76 1927.15,-76"/>
<polygon fill="#34cb34" stroke="#34cb34" points="1927.15,-72.5 1917.15,-76 1927.15,-79.5 1927.15,-72.5"/>
</g>
</g>
</svg>
