<?xml version="1.0" encoding="UTF-8" standalone="no"?>
<!DOCTYPE svg PUBLIC "-//W3C//DTD SVG 1.1//EN"
 "http://www.w3.org/Graphics/SVG/1.1/DTD/svg11.dtd">
<!-- Generated by graphviz version 2.43.0 (0)
 -->
<!-- Title: G Pages: 1 -->
<svg width="293pt" height="121pt"
 viewBox="0.00 0.00 293.00 121.00" xmlns="http://www.w3.org/2000/svg" xmlns:xlink="http://www.w3.org/1999/xlink">
<g id="graph0" class="graph" transform="scale(1 1) rotate(0) translate(4 117)">
<title>G</title>
<polygon fill="#ffd480" stroke="transparent" points="-4,4 -4,-117 289,-117 289,4 -4,4"/>
<text text-anchor="middle" x="142.5" y="-85" font-family="Verdana" font-size="30.00" fill="#ffffff">List</text>
<!-- node_0x506000000020 -->
<g id="node1" class="node">
<title>node_0x506000000020</title>
<ellipse fill="none" stroke="black" cx="142.06" cy="-18" rx="118.88" ry="18"/>
<text text-anchor="middle" x="142.06" y="-14.3" font-family="Times,serif" font-size="14.00">node_0x506000000020</text>
</g>
<!-- node_0x506000000020&#45;&gt;node_0x506000000020 -->
<g id="edge1" class="edge">
<title>node_0x506000000020&#45;&gt;node_0x506000000020</title>
<path fill="none" stroke="#ff6699" d="M29.81,-24C19.03,-24 12,-24 12,-24 12,-24 12,-48 12,-48 12,-48 272,-48 272,-48 272,-48 272,-24 272,-24 272,-24 264.2,-24 264.2,-24"/>
<polygon fill="#ff6699" stroke="#ff6699" points="264.2,-20.5 254.2,-24 264.2,-27.5 264.2,-20.5"/>
</g>
<!-- node_0x506000000020&#45;&gt;node_0x506000000020 -->
<g id="edge2" class="edge">
<title>node_0x506000000020&#45;&gt;node_0x506000000020</title>
<path fill="none" stroke="#34cb34" d="M29.78,-12C12.36,-12 0,-12 0,-12 0,-12 0,-60 0,-60 0,-60 285,-60 285,-60 285,-60 285,-12 285,-12 285,-12 264.34,-12 264.34,-12"/>
<polygon fill="#34cb34" stroke="#34cb34" points="264.34,-8.5 254.34,-12 264.34,-15.5 264.34,-8.5"/>
</g>
</g>
</svg>
