<?xml version="1.0" encoding="UTF-8" standalone="no"?>
<!DOCTYPE svg PUBLIC "-//W3C//DTD SVG 1.1//EN"
 "http://www.w3.org/Graphics/SVG/1.1/DTD/svg11.dtd">
<!-- Generated by graphviz version 2.43.0 (0)
 -->
<!-- Title: G Pages: 1 -->
<svg width="2378pt" height="184pt"
 viewBox="0.00 0.00 2378.00 184.00" xmlns="http://www.w3.org/2000/svg" xmlns:xlink="http://www.w3.org/1999/xlink">
<g id="graph0" class="graph" transform="scale(1 1) rotate(0) translate(4 180)">
<title>G</title>
<polygon fill="#ffd480" stroke="transparent" points="-4,4 -4,-180 2374,-180 2374,4 -4,4"/>
<text text-anchor="middle" x="1185" y="-148" font-family="Verdana" font-size="30.00" fill="#ffffff">List</text>
<!-- node_0x506000000500 -->
<g id="node1" class="node">
<title>node_0x506000000500</title>
<path fill="#ff6699" stroke="#ffe9c7" d="M12,-0.5C12,-0.5 353,-0.5 353,-0.5 359,-0.5 365,-6.5 365,-12.5 365,-12.5 365,-80.5 365,-80.5 365,-86.5 359,-92.5 353,-92.5 353,-92.5 12,-92.5 12,-92.5 6,-92.5 0,-86.5 0,-80.5 0,-80.5 0,-12.5 0,-12.5 0,-6.5 6,-0.5 12,-0.5"/>
<text text-anchor="middle" x="182.5" y="-77.3" font-family="Times,serif" font-size="14.00">Phantom</text>
<polyline fill="none" stroke="#ffe9c7" points="0,-69.5 365,-69.5 "/>
<text text-anchor="middle" x="182.5" y="-54.3" font-family="Times,serif" font-size="14.00">data: BADBABA</text>
<polyline fill="none" stroke="#ffe9c7" points="0,-46.5 365,-46.5 "/>
<text text-anchor="middle" x="182.5" y="-31.3" font-family="Times,serif" font-size="14.00">curr: 0x506000000500</text>
<polyline fill="none" stroke="#ffe9c7" points="0,-23.5 365,-23.5 "/>
<text text-anchor="middle" x="91.5" y="-8.3" font-family="Times,serif" font-size="14.00">prev: 0x504000000910</text>
<polyline fill="none" stroke="#ffe9c7" points="183,-0.5 183,-23.5 "/>
<text text-anchor="middle" x="274" y="-8.3" font-family="Times,serif" font-size="14.00">next: 0x504000000810</text>
</g>
<!-- node_0x504000000810 -->
<g id="node2" class="node">
<title>node_0x504000000810</title>
<path fill="#9966ff" stroke="#ffe9c7" d="M413,-42.5C413,-42.5 754,-42.5 754,-42.5 760,-42.5 766,-48.5 766,-54.5 766,-54.5 766,-122.5 766,-122.5 766,-128.5 760,-134.5 754,-134.5 754,-134.5 413,-134.5 413,-134.5 407,-134.5 401,-128.5 401,-122.5 401,-122.5 401,-54.5 401,-54.5 401,-48.5 407,-42.5 413,-42.5"/>
<text text-anchor="middle" x="583.5" y="-119.3" font-family="Times,serif" font-size="14.00">num: 0</text>
<polyline fill="none" stroke="#ffe9c7" points="401,-111.5 766,-111.5 "/>
<text text-anchor="middle" x="583.5" y="-96.3" font-family="Times,serif" font-size="14.00">data: main</text>
<polyline fill="none" stroke="#ffe9c7" points="401,-88.5 766,-88.5 "/>
<text text-anchor="middle" x="583.5" y="-73.3" font-family="Times,serif" font-size="14.00">curr: 0x504000000810</text>
<polyline fill="none" stroke="#ffe9c7" points="401,-65.5 766,-65.5 "/>
<text text-anchor="middle" x="492.5" y="-50.3" font-family="Times,serif" font-size="14.00">prev: 0x506000000500</text>
<polyline fill="none" stroke="#ffe9c7" points="584,-42.5 584,-65.5 "/>
<text text-anchor="middle" x="675" y="-50.3" font-family="Times,serif" font-size="14.00">next: 0x504000000850</text>
</g>
<!-- node_0x506000000500&#45;&gt;node_0x504000000810 -->
<g id="edge1" class="edge">
<title>node_0x506000000500&#45;&gt;node_0x504000000810</title>
<path fill="none" stroke="#ff6699" d="M365.11,-59C365.11,-59 390.85,-59 390.85,-59"/>
<polygon fill="#ff6699" stroke="#ff6699" points="390.85,-62.5 400.85,-59 390.85,-55.5 390.85,-62.5"/>
</g>
<!-- node_0x504000000910 -->
<g id="node6" class="node">
<title>node_0x504000000910</title>
<path fill="#9966ff" stroke="#ffe9c7" d="M2017,-0.5C2017,-0.5 2358,-0.5 2358,-0.5 2364,-0.5 2370,-6.5 2370,-12.5 2370,-12.5 2370,-80.5 2370,-80.5 2370,-86.5 2364,-92.5 2358,-92.5 2358,-92.5 2017,-92.5 2017,-92.5 2011,-92.5 2005,-86.5 2005,-80.5 2005,-80.5 2005,-12.5 2005,-12.5 2005,-6.5 2011,-0.5 2017,-0.5"/>
<text text-anchor="middle" x="2187.5" y="-77.3" font-family="Times,serif" font-size="14.00">num: 4</text>
<polyline fill="none" stroke="#ffe9c7" points="2005,-69.5 2370,-69.5 "/>
<text text-anchor="middle" x="2187.5" y="-54.3" font-family="Times,serif" font-size="14.00">data: foo</text>
<polyline fill="none" stroke="#ffe9c7" points="2005,-46.5 2370,-46.5 "/>
<text text-anchor="middle" x="2187.5" y="-31.3" font-family="Times,serif" font-size="14.00">curr: 0x504000000910</text>
<polyline fill="none" stroke="#ffe9c7" points="2005,-23.5 2370,-23.5 "/>
<text text-anchor="middle" x="2096.5" y="-8.3" font-family="Times,serif" font-size="14.00">prev: 0x5040000008d0</text>
<polyline fill="none" stroke="#ffe9c7" points="2188,-0.5 2188,-23.5 "/>
<text text-anchor="middle" x="2279" y="-8.3" font-family="Times,serif" font-size="14.00">next: 0x506000000500</text>
</g>
<!-- node_0x506000000500&#45;&gt;node_0x504000000910 -->
<g id="edge2" class="edge">
<title>node_0x506000000500&#45;&gt;node_0x504000000910</title>
<path fill="none" stroke="#34cb34" d="M365.3,-14C365.3,-14 1994.94,-14 1994.94,-14"/>
<polygon fill="#34cb34" stroke="#34cb34" points="1994.94,-17.5 2004.94,-14 1994.94,-10.5 1994.94,-17.5"/>
</g>
<!-- node_0x504000000810&#45;&gt;node_0x506000000500 -->
<g id="edge4" class="edge">
<title>node_0x504000000810&#45;&gt;node_0x506000000500</title>
<path fill="none" stroke="#34cb34" d="M400.89,-76C400.89,-76 375.15,-76 375.15,-76"/>
<polygon fill="#34cb34" stroke="#34cb34" points="375.15,-72.5 365.15,-76 375.15,-79.5 375.15,-72.5"/>
</g>
<!-- node_0x504000000850 -->
<g id="node3" class="node">
<title>node_0x504000000850</title>
<path fill="#9966ff" stroke="#ffe9c7" d="M814,-42.5C814,-42.5 1155,-42.5 1155,-42.5 1161,-42.5 1167,-48.5 1167,-54.5 1167,-54.5 1167,-122.5 1167,-122.5 1167,-128.5 1161,-134.5 1155,-134.5 1155,-134.5 814,-134.5 814,-134.5 808,-134.5 802,-128.5 802,-122.5 802,-122.5 802,-54.5 802,-54.5 802,-48.5 808,-42.5 814,-42.5"/>
<text text-anchor="middle" x="984.5" y="-119.3" font-family="Times,serif" font-size="14.00">num: 1</text>
<polyline fill="none" stroke="#ffe9c7" points="802,-111.5 1167,-111.5 "/>
<text text-anchor="middle" x="984.5" y="-96.3" font-family="Times,serif" font-size="14.00">data: one</text>
<polyline fill="none" stroke="#ffe9c7" points="802,-88.5 1167,-88.5 "/>
<text text-anchor="middle" x="984.5" y="-73.3" font-family="Times,serif" font-size="14.00">curr: 0x504000000850</text>
<polyline fill="none" stroke="#ffe9c7" points="802,-65.5 1167,-65.5 "/>
<text text-anchor="middle" x="893.5" y="-50.3" font-family="Times,serif" font-size="14.00">prev: 0x504000000810</text>
<polyline fill="none" stroke="#ffe9c7" points="985,-42.5 985,-65.5 "/>
<text text-anchor="middle" x="1076" y="-50.3" font-family="Times,serif" font-size="14.00">next: 0x504000000890</text>
</g>
<!-- node_0x504000000810&#45;&gt;node_0x504000000850 -->
<g id="edge3" class="edge">
<title>node_0x504000000810&#45;&gt;node_0x504000000850</title>
<path fill="none" stroke="#ff6699" d="M766.11,-73C766.11,-73 791.85,-73 791.85,-73"/>
<polygon fill="#ff6699" stroke="#ff6699" points="791.85,-76.5 801.85,-73 791.85,-69.5 791.85,-76.5"/>
</g>
<!-- node_0x504000000850&#45;&gt;node_0x504000000810 -->
<g id="edge6" class="edge">
<title>node_0x504000000850&#45;&gt;node_0x504000000810</title>
<path fill="none" stroke="#34cb34" d="M801.89,-104C801.89,-104 776.15,-104 776.15,-104"/>
<polygon fill="#34cb34" stroke="#34cb34" points="776.15,-100.5 766.15,-104 776.15,-107.5 776.15,-100.5"/>
</g>
<!-- node_0x504000000890 -->
<g id="node4" class="node">
<title>node_0x504000000890</title>
<path fill="#9966ff" stroke="#ffe9c7" d="M1215,-42.5C1215,-42.5 1556,-42.5 1556,-42.5 1562,-42.5 1568,-48.5 1568,-54.5 1568,-54.5 1568,-122.5 1568,-122.5 1568,-128.5 1562,-134.5 1556,-134.5 1556,-134.5 1215,-134.5 1215,-134.5 1209,-134.5 1203,-128.5 1203,-122.5 1203,-122.5 1203,-54.5 1203,-54.5 1203,-48.5 1209,-42.5 1215,-42.5"/>
<text text-anchor="middle" x="1385.5" y="-119.3" font-family="Times,serif" font-size="14.00">num: 2</text>
<polyline fill="none" stroke="#ffe9c7" points="1203,-111.5 1568,-111.5 "/>
<text text-anchor="middle" x="1385.5" y="-96.3" font-family="Times,serif" font-size="14.00">data: func</text>
<polyline fill="none" stroke="#ffe9c7" points="1203,-88.5 1568,-88.5 "/>
<text text-anchor="middle" x="1385.5" y="-73.3" font-family="Times,serif" font-size="14.00">curr: 0x504000000890</text>
<polyline fill="none" stroke="#ffe9c7" points="1203,-65.5 1568,-65.5 "/>
<text text-anchor="middle" x="1294.5" y="-50.3" font-family="Times,serif" font-size="14.00">prev: 0x504000000850</text>
<polyline fill="none" stroke="#ffe9c7" points="1386,-42.5 1386,-65.5 "/>
<text text-anchor="middle" x="1477" y="-50.3" font-family="Times,serif" font-size="14.00">next: 0x5040000008d0</text>
</g>
<!-- node_0x504000000850&#45;&gt;node_0x504000000890 -->
<g id="edge5" class="edge">
<title>node_0x504000000850&#45;&gt;node_0x504000000890</title>
<path fill="none" stroke="#ff6699" d="M1167.11,-73C1167.11,-73 1192.85,-73 1192.85,-73"/>
<polygon fill="#ff6699" stroke="#ff6699" points="1192.85,-76.5 1202.85,-73 1192.85,-69.5 1192.85,-76.5"/>
</g>
<!-- node_0x504000000890&#45;&gt;node_0x504000000850 -->
<g id="edge8" class="edge">
<title>node_0x504000000890&#45;&gt;node_0x504000000850</title>
<path fill="none" stroke="#34cb34" d="M1202.89,-104C1202.89,-104 1177.15,-104 1177.15,-104"/>
<polygon fill="#34cb34" stroke="#34cb34" points="1177.15,-100.5 1167.15,-104 1177.15,-107.5 1177.15,-100.5"/>
</g>
<!-- node_0x5040000008d0 -->
<g id="node5" class="node">
<title>node_0x5040000008d0</title>
<path fill="#9966ff" stroke="#ffe9c7" d="M1616,-42.5C1616,-42.5 1957,-42.5 1957,-42.5 1963,-42.5 1969,-48.5 1969,-54.5 1969,-54.5 1969,-122.5 1969,-122.5 1969,-128.5 1963,-134.5 1957,-134.5 1957,-134.5 1616,-134.5 1616,-134.5 1610,-134.5 1604,-128.5 1604,-122.5 1604,-122.5 1604,-54.5 1604,-54.5 1604,-48.5 1610,-42.5 1616,-42.5"/>
<text text-anchor="middle" x="1786.5" y="-119.3" font-family="Times,serif" font-size="14.00">num: 3</text>
<polyline fill="none" stroke="#ffe9c7" points="1604,-111.5 1969,-111.5 "/>
<text text-anchor="middle" x="1786.5" y="-96.3" font-family="Times,serif" font-size="14.00">data: two</text>
<polyline fill="none" stroke="#ffe9c7" points="1604,-88.5 1969,-88.5 "/>
<text text-anchor="middle" x="1786.5" y="-73.3" font-family="Times,serif" font-size="14.00">curr: 0x5040000008d0</text>
<polyline fill="none" stroke="#ffe9c7" points="1604,-65.5 1969,-65.5 "/>
<text text-anchor="middle" x="1695.5" y="-50.3" font-family="Times,serif" font-size="14.00">prev: 0x504000000890</text>
<polyline fill="none" stroke="#ffe9c7" points="1787,-42.5 1787,-65.5 "/>
<text text-anchor="middle" x="1878" y="-50.3" font-family="Times,serif" font-size="14.00">next: 0x504000000910</text>
</g>
<!-- node_0x504000000890&#45;&gt;node_0x5040000008d0 -->
<g id="edge7" class="edge">
<title>node_0x504000000890&#45;&gt;node_0x5040000008d0</title>
<path fill="none" stroke="#ff6699" d="M1568.11,-73C1568.11,-73 1593.85,-73 1593.85,-73"/>
<polygon fill="#ff6699" stroke="#ff6699" points="1593.85,-76.5 1603.85,-73 1593.85,-69.5 1593.85,-76.5"/>
</g>
<!-- node_0x5040000008d0&#45;&gt;node_0x504000000890 -->
<g id="edge10" class="edge">
<title>node_0x5040000008d0&#45;&gt;node_0x504000000890</title>
<path fill="none" stroke="#34cb34" d="M1603.89,-104C1603.89,-104 1578.15,-104 1578.15,-104"/>
<polygon fill="#34cb34" stroke="#34cb34" points="1578.15,-100.5 1568.15,-104 1578.15,-107.5 1578.15,-100.5"/>
</g>
<!-- node_0x5040000008d0&#45;&gt;node_0x504000000910 -->
<g id="edge9" class="edge">
<title>node_0x5040000008d0&#45;&gt;node_0x504000000910</title>
<path fill="none" stroke="#ff6699" d="M1969.11,-59C1969.11,-59 1994.85,-59 1994.85,-59"/>
<polygon fill="#ff6699" stroke="#ff6699" points="1994.85,-62.5 2004.85,-59 1994.85,-55.5 1994.85,-62.5"/>
</g>
<!-- node_0x504000000910&#45;&gt;node_0x506000000500 -->
<g id="edge11" class="edge">
<title>node_0x504000000910&#45;&gt;node_0x506000000500</title>
<path fill="none" stroke="#ff6699" d="M2004.7,-28C2004.7,-28 375.06,-28 375.06,-28"/>
<polygon fill="#ff6699" stroke="#ff6699" points="375.06,-24.5 365.06,-28 375.06,-31.5 375.06,-24.5"/>
</g>
<!-- node_0x504000000910&#45;&gt;node_0x5040000008d0 -->
<g id="edge12" class="edge">
<title>node_0x504000000910&#45;&gt;node_0x5040000008d0</title>
<path fill="none" stroke="#34cb34" d="M2004.89,-76C2004.89,-76 1979.15,-76 1979.15,-76"/>
<polygon fill="#34cb34" stroke="#34cb34" points="1979.15,-72.5 1969.15,-76 1979.15,-79.5 1979.15,-72.5"/>
</g>
</g>
</svg>
