<?xml version="1.0" encoding="UTF-8" standalone="no"?>
<!DOCTYPE svg PUBLIC "-//W3C//DTD SVG 1.1//EN"
 "http://www.w3.org/Graphics/SVG/1.1/DTD/svg11.dtd">
<!-- Generated by graphviz version 2.43.0 (0)
 -->
<!-- Title: G Pages: 1 -->
<svg width="3581pt" height="184pt"
 viewBox="0.00 0.00 3581.00 184.00" xmlns="http://www.w3.org/2000/svg" xmlns:xlink="http://www.w3.org/1999/xlink">
<g id="graph0" class="graph" transform="scale(1 1) rotate(0) translate(4 180)">
<title>G</title>
<polygon fill="#ffd480" stroke="transparent" points="-4,4 -4,-180 3577,-180 3577,4 -4,4"/>
<text text-anchor="middle" x="1786.5" y="-148" font-family="Verdana" font-size="30.00" fill="#ffffff">List</text>
<!-- node_0x506000000440 -->
<g id="node1" class="node">
<title>node_0x506000000440</title>
<path fill="#ff6699" stroke="#ffe9c7" d="M12,-0.5C12,-0.5 353,-0.5 353,-0.5 359,-0.5 365,-6.5 365,-12.5 365,-12.5 365,-80.5 365,-80.5 365,-86.5 359,-92.5 353,-92.5 353,-92.5 12,-92.5 12,-92.5 6,-92.5 0,-86.5 0,-80.5 0,-80.5 0,-12.5 0,-12.5 0,-6.5 6,-0.5 12,-0.5"/>
<text text-anchor="middle" x="182.5" y="-77.3" font-family="Times,serif" font-size="14.00">Phantom</text>
<polyline fill="none" stroke="#ffe9c7" points="0,-69.5 365,-69.5 "/>
<text text-anchor="middle" x="182.5" y="-54.3" font-family="Times,serif" font-size="14.00">data: BADBABA</text>
<polyline fill="none" stroke="#ffe9c7" points="0,-46.5 365,-46.5 "/>
<text text-anchor="middle" x="182.5" y="-31.3" font-family="Times,serif" font-size="14.00">curr: 0x506000000440</text>
<polyline fill="none" stroke="#ffe9c7" points="0,-23.5 365,-23.5 "/>
<text text-anchor="middle" x="91.5" y="-8.3" font-family="Times,serif" font-size="14.00">prev: 0x504000000750</text>
<polyline fill="none" stroke="#ffe9c7" points="183,-0.5 183,-23.5 "/>
<text text-anchor="middle" x="274" y="-8.3" font-family="Times,serif" font-size="14.00">next: 0x504000000590</text>
</g>
<!-- node_0x504000000590 -->
<g id="node2" class="node">
<title>node_0x504000000590</title>
<path fill="#9966ff" stroke="#ffe9c7" d="M413,-42.5C413,-42.5 754,-42.5 754,-42.5 760,-42.5 766,-48.5 766,-54.5 766,-54.5 766,-122.5 766,-122.5 766,-128.5 760,-134.5 754,-134.5 754,-134.5 413,-134.5 413,-134.5 407,-134.5 401,-128.5 401,-122.5 401,-122.5 401,-54.5 401,-54.5 401,-48.5 407,-42.5 413,-42.5"/>
<text text-anchor="middle" x="583.5" y="-119.3" font-family="Times,serif" font-size="14.00">num: 0</text>
<polyline fill="none" stroke="#ffe9c7" points="401,-111.5 766,-111.5 "/>
<text text-anchor="middle" x="583.5" y="-96.3" font-family="Times,serif" font-size="14.00">data: main</text>
<polyline fill="none" stroke="#ffe9c7" points="401,-88.5 766,-88.5 "/>
<text text-anchor="middle" x="583.5" y="-73.3" font-family="Times,serif" font-size="14.00">curr: 0x504000000590</text>
<polyline fill="none" stroke="#ffe9c7" points="401,-65.5 766,-65.5 "/>
<text text-anchor="middle" x="492.5" y="-50.3" font-family="Times,serif" font-size="14.00">prev: 0x506000000440</text>
<polyline fill="none" stroke="#ffe9c7" points="584,-42.5 584,-65.5 "/>
<text text-anchor="middle" x="675" y="-50.3" font-family="Times,serif" font-size="14.00">next: 0x5040000005d0</text>
</g>
<!-- node_0x506000000440&#45;&gt;node_0x504000000590 -->
<g id="edge1" class="edge">
<title>node_0x506000000440&#45;&gt;node_0x504000000590</title>
<path fill="none" stroke="#ff6699" d="M365.11,-59C365.11,-59 390.85,-59 390.85,-59"/>
<polygon fill="#ff6699" stroke="#ff6699" points="390.85,-62.5 400.85,-59 390.85,-55.5 390.85,-62.5"/>
</g>
<!-- node_0x504000000750 -->
<g id="node9" class="node">
<title>node_0x504000000750</title>
<path fill="#9966ff" stroke="#ffe9c7" d="M3220,-0.5C3220,-0.5 3561,-0.5 3561,-0.5 3567,-0.5 3573,-6.5 3573,-12.5 3573,-12.5 3573,-80.5 3573,-80.5 3573,-86.5 3567,-92.5 3561,-92.5 3561,-92.5 3220,-92.5 3220,-92.5 3214,-92.5 3208,-86.5 3208,-80.5 3208,-80.5 3208,-12.5 3208,-12.5 3208,-6.5 3214,-0.5 3220,-0.5"/>
<text text-anchor="middle" x="3390.5" y="-77.3" font-family="Times,serif" font-size="14.00">num: 7</text>
<polyline fill="none" stroke="#ffe9c7" points="3208,-69.5 3573,-69.5 "/>
<text text-anchor="middle" x="3390.5" y="-54.3" font-family="Times,serif" font-size="14.00">data: four</text>
<polyline fill="none" stroke="#ffe9c7" points="3208,-46.5 3573,-46.5 "/>
<text text-anchor="middle" x="3390.5" y="-31.3" font-family="Times,serif" font-size="14.00">curr: 0x504000000750</text>
<polyline fill="none" stroke="#ffe9c7" points="3208,-23.5 3573,-23.5 "/>
<text text-anchor="middle" x="3299.5" y="-8.3" font-family="Times,serif" font-size="14.00">prev: 0x504000000710</text>
<polyline fill="none" stroke="#ffe9c7" points="3391,-0.5 3391,-23.5 "/>
<text text-anchor="middle" x="3482" y="-8.3" font-family="Times,serif" font-size="14.00">next: 0x506000000440</text>
</g>
<!-- node_0x506000000440&#45;&gt;node_0x504000000750 -->
<g id="edge2" class="edge">
<title>node_0x506000000440&#45;&gt;node_0x504000000750</title>
<path fill="none" stroke="#34cb34" d="M365.04,-14C365.04,-14 3197.99,-14 3197.99,-14"/>
<polygon fill="#34cb34" stroke="#34cb34" points="3197.99,-17.5 3207.99,-14 3197.99,-10.5 3197.99,-17.5"/>
</g>
<!-- node_0x504000000590&#45;&gt;node_0x506000000440 -->
<g id="edge4" class="edge">
<title>node_0x504000000590&#45;&gt;node_0x506000000440</title>
<path fill="none" stroke="#34cb34" d="M400.89,-76C400.89,-76 375.15,-76 375.15,-76"/>
<polygon fill="#34cb34" stroke="#34cb34" points="375.15,-72.5 365.15,-76 375.15,-79.5 375.15,-72.5"/>
</g>
<!-- node_0x5040000005d0 -->
<g id="node3" class="node">
<title>node_0x5040000005d0</title>
<path fill="#9966ff" stroke="#ffe9c7" d="M814,-42.5C814,-42.5 1155,-42.5 1155,-42.5 1161,-42.5 1167,-48.5 1167,-54.5 1167,-54.5 1167,-122.5 1167,-122.5 1167,-128.5 1161,-134.5 1155,-134.5 1155,-134.5 814,-134.5 814,-134.5 808,-134.5 802,-128.5 802,-122.5 802,-122.5 802,-54.5 802,-54.5 802,-48.5 808,-42.5 814,-42.5"/>
<text text-anchor="middle" x="984.5" y="-119.3" font-family="Times,serif" font-size="14.00">num: 1</text>
<polyline fill="none" stroke="#ffe9c7" points="802,-111.5 1167,-111.5 "/>
<text text-anchor="middle" x="984.5" y="-96.3" font-family="Times,serif" font-size="14.00">data: one</text>
<polyline fill="none" stroke="#ffe9c7" points="802,-88.5 1167,-88.5 "/>
<text text-anchor="middle" x="984.5" y="-73.3" font-family="Times,serif" font-size="14.00">curr: 0x5040000005d0</text>
<polyline fill="none" stroke="#ffe9c7" points="802,-65.5 1167,-65.5 "/>
<text text-anchor="middle" x="893.5" y="-50.3" font-family="Times,serif" font-size="14.00">prev: 0x504000000590</text>
<polyline fill="none" stroke="#ffe9c7" points="985,-42.5 985,-65.5 "/>
<text text-anchor="middle" x="1076" y="-50.3" font-family="Times,serif" font-size="14.00">next: 0x504000000610</text>
</g>
<!-- node_0x504000000590&#45;&gt;node_0x5040000005d0 -->
<g id="edge3" class="edge">
<title>node_0x504000000590&#45;&gt;node_0x5040000005d0</title>
<path fill="none" stroke="#ff6699" d="M766.11,-73C766.11,-73 791.85,-73 791.85,-73"/>
<polygon fill="#ff6699" stroke="#ff6699" points="791.85,-76.5 801.85,-73 791.85,-69.5 791.85,-76.5"/>
</g>
<!-- node_0x5040000005d0&#45;&gt;node_0x504000000590 -->
<g id="edge6" class="edge">
<title>node_0x5040000005d0&#45;&gt;node_0x504000000590</title>
<path fill="none" stroke="#34cb34" d="M801.89,-104C801.89,-104 776.15,-104 776.15,-104"/>
<polygon fill="#34cb34" stroke="#34cb34" points="776.15,-100.5 766.15,-104 776.15,-107.5 776.15,-100.5"/>
</g>
<!-- node_0x504000000610 -->
<g id="node4" class="node">
<title>node_0x504000000610</title>
<path fill="#9966ff" stroke="#ffe9c7" d="M1215,-42.5C1215,-42.5 1556,-42.5 1556,-42.5 1562,-42.5 1568,-48.5 1568,-54.5 1568,-54.5 1568,-122.5 1568,-122.5 1568,-128.5 1562,-134.5 1556,-134.5 1556,-134.5 1215,-134.5 1215,-134.5 1209,-134.5 1203,-128.5 1203,-122.5 1203,-122.5 1203,-54.5 1203,-54.5 1203,-48.5 1209,-42.5 1215,-42.5"/>
<text text-anchor="middle" x="1385.5" y="-119.3" font-family="Times,serif" font-size="14.00">num: 2</text>
<polyline fill="none" stroke="#ffe9c7" points="1203,-111.5 1568,-111.5 "/>
<text text-anchor="middle" x="1385.5" y="-96.3" font-family="Times,serif" font-size="14.00">data: func</text>
<polyline fill="none" stroke="#ffe9c7" points="1203,-88.5 1568,-88.5 "/>
<text text-anchor="middle" x="1385.5" y="-73.3" font-family="Times,serif" font-size="14.00">curr: 0x504000000610</text>
<polyline fill="none" stroke="#ffe9c7" points="1203,-65.5 1568,-65.5 "/>
<text text-anchor="middle" x="1294.5" y="-50.3" font-family="Times,serif" font-size="14.00">prev: 0x5040000005d0</text>
<polyline fill="none" stroke="#ffe9c7" points="1386,-42.5 1386,-65.5 "/>
<text text-anchor="middle" x="1477" y="-50.3" font-family="Times,serif" font-size="14.00">next: 0x504000000650</text>
</g>
<!-- node_0x5040000005d0&#45;&gt;node_0x504000000610 -->
<g id="edge5" class="edge">
<title>node_0x5040000005d0&#45;&gt;node_0x504000000610</title>
<path fill="none" stroke="#ff6699" d="M1167.11,-73C1167.11,-73 1192.85,-73 1192.85,-73"/>
<polygon fill="#ff6699" stroke="#ff6699" points="1192.85,-76.5 1202.85,-73 1192.85,-69.5 1192.85,-76.5"/>
</g>
<!-- node_0x504000000610&#45;&gt;node_0x5040000005d0 -->
<g id="edge8" class="edge">
<title>node_0x504000000610&#45;&gt;node_0x5040000005d0</title>
<path fill="none" stroke="#34cb34" d="M1202.89,-104C1202.89,-104 1177.15,-104 1177.15,-104"/>
<polygon fill="#34cb34" stroke="#34cb34" points="1177.15,-100.5 1167.15,-104 1177.15,-107.5 1177.15,-100.5"/>
</g>
<!-- node_0x504000000650 -->
<g id="node5" class="node">
<title>node_0x504000000650</title>
<path fill="#9966ff" stroke="#ffe9c7" d="M1616,-42.5C1616,-42.5 1957,-42.5 1957,-42.5 1963,-42.5 1969,-48.5 1969,-54.5 1969,-54.5 1969,-122.5 1969,-122.5 1969,-128.5 1963,-134.5 1957,-134.5 1957,-134.5 1616,-134.5 1616,-134.5 1610,-134.5 1604,-128.5 1604,-122.5 1604,-122.5 1604,-54.5 1604,-54.5 1604,-48.5 1610,-42.5 1616,-42.5"/>
<text text-anchor="middle" x="1786.5" y="-119.3" font-family="Times,serif" font-size="14.00">num: 3</text>
<polyline fill="none" stroke="#ffe9c7" points="1604,-111.5 1969,-111.5 "/>
<text text-anchor="middle" x="1786.5" y="-96.3" font-family="Times,serif" font-size="14.00">data: two</text>
<polyline fill="none" stroke="#ffe9c7" points="1604,-88.5 1969,-88.5 "/>
<text text-anchor="middle" x="1786.5" y="-73.3" font-family="Times,serif" font-size="14.00">curr: 0x504000000650</text>
<polyline fill="none" stroke="#ffe9c7" points="1604,-65.5 1969,-65.5 "/>
<text text-anchor="middle" x="1695.5" y="-50.3" font-family="Times,serif" font-size="14.00">prev: 0x504000000610</text>
<polyline fill="none" stroke="#ffe9c7" points="1787,-42.5 1787,-65.5 "/>
<text text-anchor="middle" x="1878" y="-50.3" font-family="Times,serif" font-size="14.00">next: 0x504000000690</text>
</g>
<!-- node_0x504000000610&#45;&gt;node_0x504000000650 -->
<g id="edge7" class="edge">
<title>node_0x504000000610&#45;&gt;node_0x504000000650</title>
<path fill="none" stroke="#ff6699" d="M1568.11,-73C1568.11,-73 1593.85,-73 1593.85,-73"/>
<polygon fill="#ff6699" stroke="#ff6699" points="1593.85,-76.5 1603.85,-73 1593.85,-69.5 1593.85,-76.5"/>
</g>
<!-- node_0x504000000650&#45;&gt;node_0x504000000610 -->
<g id="edge10" class="edge">
<title>node_0x504000000650&#45;&gt;node_0x504000000610</title>
<path fill="none" stroke="#34cb34" d="M1603.89,-104C1603.89,-104 1578.15,-104 1578.15,-104"/>
<polygon fill="#34cb34" stroke="#34cb34" points="1578.15,-100.5 1568.15,-104 1578.15,-107.5 1578.15,-100.5"/>
</g>
<!-- node_0x504000000690 -->
<g id="node6" class="node">
<title>node_0x504000000690</title>
<path fill="#9966ff" stroke="#ffe9c7" d="M2017,-42.5C2017,-42.5 2358,-42.5 2358,-42.5 2364,-42.5 2370,-48.5 2370,-54.5 2370,-54.5 2370,-122.5 2370,-122.5 2370,-128.5 2364,-134.5 2358,-134.5 2358,-134.5 2017,-134.5 2017,-134.5 2011,-134.5 2005,-128.5 2005,-122.5 2005,-122.5 2005,-54.5 2005,-54.5 2005,-48.5 2011,-42.5 2017,-42.5"/>
<text text-anchor="middle" x="2187.5" y="-119.3" font-family="Times,serif" font-size="14.00">num: 4</text>
<polyline fill="none" stroke="#ffe9c7" points="2005,-111.5 2370,-111.5 "/>
<text text-anchor="middle" x="2187.5" y="-96.3" font-family="Times,serif" font-size="14.00">data: foo</text>
<polyline fill="none" stroke="#ffe9c7" points="2005,-88.5 2370,-88.5 "/>
<text text-anchor="middle" x="2187.5" y="-73.3" font-family="Times,serif" font-size="14.00">curr: 0x504000000690</text>
<polyline fill="none" stroke="#ffe9c7" points="2005,-65.5 2370,-65.5 "/>
<text text-anchor="middle" x="2096.5" y="-50.3" font-family="Times,serif" font-size="14.00">prev: 0x504000000650</text>
<polyline fill="none" stroke="#ffe9c7" points="2188,-42.5 2188,-65.5 "/>
<text text-anchor="middle" x="2279" y="-50.3" font-family="Times,serif" font-size="14.00">next: 0x5040000006d0</text>
</g>
<!-- node_0x504000000650&#45;&gt;node_0x504000000690 -->
<g id="edge9" class="edge">
<title>node_0x504000000650&#45;&gt;node_0x504000000690</title>
<path fill="none" stroke="#ff6699" d="M1969.11,-73C1969.11,-73 1994.85,-73 1994.85,-73"/>
<polygon fill="#ff6699" stroke="#ff6699" points="1994.85,-76.5 2004.85,-73 1994.85,-69.5 1994.85,-76.5"/>
</g>
<!-- node_0x504000000690&#45;&gt;node_0x504000000650 -->
<g id="edge12" class="edge">
<title>node_0x504000000690&#45;&gt;node_0x504000000650</title>
<path fill="none" stroke="#34cb34" d="M2004.89,-104C2004.89,-104 1979.15,-104 1979.15,-104"/>
<polygon fill="#34cb34" stroke="#34cb34" points="1979.15,-100.5 1969.15,-104 1979.15,-107.5 1979.15,-100.5"/>
</g>
<!-- node_0x5040000006d0 -->
<g id="node7" class="node">
<title>node_0x5040000006d0</title>
<path fill="#9966ff" stroke="#ffe9c7" d="M2418,-42.5C2418,-42.5 2759,-42.5 2759,-42.5 2765,-42.5 2771,-48.5 2771,-54.5 2771,-54.5 2771,-122.5 2771,-122.5 2771,-128.5 2765,-134.5 2759,-134.5 2759,-134.5 2418,-134.5 2418,-134.5 2412,-134.5 2406,-128.5 2406,-122.5 2406,-122.5 2406,-54.5 2406,-54.5 2406,-48.5 2412,-42.5 2418,-42.5"/>
<text text-anchor="middle" x="2588.5" y="-119.3" font-family="Times,serif" font-size="14.00">num: 5</text>
<polyline fill="none" stroke="#ffe9c7" points="2406,-111.5 2771,-111.5 "/>
<text text-anchor="middle" x="2588.5" y="-96.3" font-family="Times,serif" font-size="14.00">data: three</text>
<polyline fill="none" stroke="#ffe9c7" points="2406,-88.5 2771,-88.5 "/>
<text text-anchor="middle" x="2588.5" y="-73.3" font-family="Times,serif" font-size="14.00">curr: 0x5040000006d0</text>
<polyline fill="none" stroke="#ffe9c7" points="2406,-65.5 2771,-65.5 "/>
<text text-anchor="middle" x="2497.5" y="-50.3" font-family="Times,serif" font-size="14.00">prev: 0x504000000690</text>
<polyline fill="none" stroke="#ffe9c7" points="2589,-42.5 2589,-65.5 "/>
<text text-anchor="middle" x="2680" y="-50.3" font-family="Times,serif" font-size="14.00">next: 0x504000000710</text>
</g>
<!-- node_0x504000000690&#45;&gt;node_0x5040000006d0 -->
<g id="edge11" class="edge">
<title>node_0x504000000690&#45;&gt;node_0x5040000006d0</title>
<path fill="none" stroke="#ff6699" d="M2370.11,-73C2370.11,-73 2395.85,-73 2395.85,-73"/>
<polygon fill="#ff6699" stroke="#ff6699" points="2395.85,-76.5 2405.85,-73 2395.85,-69.5 2395.85,-76.5"/>
</g>
<!-- node_0x5040000006d0&#45;&gt;node_0x504000000690 -->
<g id="edge14" class="edge">
<title>node_0x5040000006d0&#45;&gt;node_0x504000000690</title>
<path fill="none" stroke="#34cb34" d="M2405.89,-104C2405.89,-104 2380.15,-104 2380.15,-104"/>
<polygon fill="#34cb34" stroke="#34cb34" points="2380.15,-100.5 2370.15,-104 2380.15,-107.5 2380.15,-100.5"/>
</g>
<!-- node_0x504000000710 -->
<g id="node8" class="node">
<title>node_0x504000000710</title>
<path fill="#9966ff" stroke="#ffe9c7" d="M2819,-42.5C2819,-42.5 3160,-42.5 3160,-42.5 3166,-42.5 3172,-48.5 3172,-54.5 3172,-54.5 3172,-122.5 3172,-122.5 3172,-128.5 3166,-134.5 3160,-134.5 3160,-134.5 2819,-134.5 2819,-134.5 2813,-134.5 2807,-128.5 2807,-122.5 2807,-122.5 2807,-54.5 2807,-54.5 2807,-48.5 2813,-42.5 2819,-42.5"/>
<text text-anchor="middle" x="2989.5" y="-119.3" font-family="Times,serif" font-size="14.00">num: 6</text>
<polyline fill="none" stroke="#ffe9c7" points="2807,-111.5 3172,-111.5 "/>
<text text-anchor="middle" x="2989.5" y="-96.3" font-family="Times,serif" font-size="14.00">data: fee</text>
<polyline fill="none" stroke="#ffe9c7" points="2807,-88.5 3172,-88.5 "/>
<text text-anchor="middle" x="2989.5" y="-73.3" font-family="Times,serif" font-size="14.00">curr: 0x504000000710</text>
<polyline fill="none" stroke="#ffe9c7" points="2807,-65.5 3172,-65.5 "/>
<text text-anchor="middle" x="2898.5" y="-50.3" font-family="Times,serif" font-size="14.00">prev: 0x5040000006d0</text>
<polyline fill="none" stroke="#ffe9c7" points="2990,-42.5 2990,-65.5 "/>
<text text-anchor="middle" x="3081" y="-50.3" font-family="Times,serif" font-size="14.00">next: 0x504000000750</text>
</g>
<!-- node_0x5040000006d0&#45;&gt;node_0x504000000710 -->
<g id="edge13" class="edge">
<title>node_0x5040000006d0&#45;&gt;node_0x504000000710</title>
<path fill="none" stroke="#ff6699" d="M2771.11,-73C2771.11,-73 2796.85,-73 2796.85,-73"/>
<polygon fill="#ff6699" stroke="#ff6699" points="2796.85,-76.5 2806.85,-73 2796.85,-69.5 2796.85,-76.5"/>
</g>
<!-- node_0x504000000710&#45;&gt;node_0x5040000006d0 -->
<g id="edge16" class="edge">
<title>node_0x504000000710&#45;&gt;node_0x5040000006d0</title>
<path fill="none" stroke="#34cb34" d="M2806.89,-104C2806.89,-104 2781.15,-104 2781.15,-104"/>
<polygon fill="#34cb34" stroke="#34cb34" points="2781.15,-100.5 2771.15,-104 2781.15,-107.5 2781.15,-100.5"/>
</g>
<!-- node_0x504000000710&#45;&gt;node_0x504000000750 -->
<g id="edge15" class="edge">
<title>node_0x504000000710&#45;&gt;node_0x504000000750</title>
<path fill="none" stroke="#ff6699" d="M3172.11,-59C3172.11,-59 3197.85,-59 3197.85,-59"/>
<polygon fill="#ff6699" stroke="#ff6699" points="3197.85,-62.5 3207.85,-59 3197.85,-55.5 3197.85,-62.5"/>
</g>
<!-- node_0x504000000750&#45;&gt;node_0x506000000440 -->
<g id="edge17" class="edge">
<title>node_0x504000000750&#45;&gt;node_0x506000000440</title>
<path fill="none" stroke="#ff6699" d="M3207.96,-28C3207.96,-28 375.01,-28 375.01,-28"/>
<polygon fill="#ff6699" stroke="#ff6699" points="375.01,-24.5 365.01,-28 375.01,-31.5 375.01,-24.5"/>
</g>
<!-- node_0x504000000750&#45;&gt;node_0x504000000710 -->
<g id="edge18" class="edge">
<title>node_0x504000000750&#45;&gt;node_0x504000000710</title>
<path fill="none" stroke="#34cb34" d="M3207.89,-76C3207.89,-76 3182.15,-76 3182.15,-76"/>
<polygon fill="#34cb34" stroke="#34cb34" points="3182.15,-72.5 3172.15,-76 3182.15,-79.5 3182.15,-72.5"/>
</g>
</g>
</svg>
