<?xml version="1.0" encoding="UTF-8" standalone="no"?>
<!DOCTYPE svg PUBLIC "-//W3C//DTD SVG 1.1//EN"
 "http://www.w3.org/Graphics/SVG/1.1/DTD/svg11.dtd">
<!-- Generated by graphviz version 2.43.0 (0)
 -->
<!-- Title: G Pages: 1 -->
<svg width="4377pt" height="184pt"
 viewBox="0.00 0.00 4377.00 184.00" xmlns="http://www.w3.org/2000/svg" xmlns:xlink="http://www.w3.org/1999/xlink">
<g id="graph0" class="graph" transform="scale(1 1) rotate(0) translate(4 180)">
<title>G</title>
<polygon fill="#ffd480" stroke="transparent" points="-4,4 -4,-180 4373,-180 4373,4 -4,4"/>
<text text-anchor="middle" x="2184.5" y="-148" font-family="Verdana" font-size="30.00" fill="#ffffff">List</text>
<!-- node_0x5060000008c0 -->
<g id="node1" class="node">
<title>node_0x5060000008c0</title>
<path fill="#ff6699" stroke="#ffe9c7" d="M12,-0.5C12,-0.5 353,-0.5 353,-0.5 359,-0.5 365,-6.5 365,-12.5 365,-12.5 365,-80.5 365,-80.5 365,-86.5 359,-92.5 353,-92.5 353,-92.5 12,-92.5 12,-92.5 6,-92.5 0,-86.5 0,-80.5 0,-80.5 0,-12.5 0,-12.5 0,-6.5 6,-0.5 12,-0.5"/>
<text text-anchor="middle" x="182.5" y="-77.3" font-family="Times,serif" font-size="14.00">Phantom</text>
<polyline fill="none" stroke="#ffe9c7" points="0,-69.5 365,-69.5 "/>
<text text-anchor="middle" x="182.5" y="-54.3" font-family="Times,serif" font-size="14.00">data: BADBABA</text>
<polyline fill="none" stroke="#ffe9c7" points="0,-46.5 365,-46.5 "/>
<text text-anchor="middle" x="182.5" y="-31.3" font-family="Times,serif" font-size="14.00">curr: 0x5060000008c0</text>
<polyline fill="none" stroke="#ffe9c7" points="0,-23.5 365,-23.5 "/>
<text text-anchor="middle" x="91.5" y="-8.3" font-family="Times,serif" font-size="14.00">prev: 0x504000000710</text>
<polyline fill="none" stroke="#ffe9c7" points="183,-0.5 183,-23.5 "/>
<text text-anchor="middle" x="274" y="-8.3" font-family="Times,serif" font-size="14.00">next: 0x504000000690</text>
</g>
<!-- node_0x504000000690 -->
<g id="node2" class="node">
<title>node_0x504000000690</title>
<path fill="#9966ff" stroke="#ffe9c7" d="M413,-42.5C413,-42.5 753,-42.5 753,-42.5 759,-42.5 765,-48.5 765,-54.5 765,-54.5 765,-122.5 765,-122.5 765,-128.5 759,-134.5 753,-134.5 753,-134.5 413,-134.5 413,-134.5 407,-134.5 401,-128.5 401,-122.5 401,-122.5 401,-54.5 401,-54.5 401,-48.5 407,-42.5 413,-42.5"/>
<text text-anchor="middle" x="583" y="-119.3" font-family="Times,serif" font-size="14.00">num: 0</text>
<polyline fill="none" stroke="#ffe9c7" points="401,-111.5 765,-111.5 "/>
<text text-anchor="middle" x="583" y="-96.3" font-family="Times,serif" font-size="14.00">data: func</text>
<polyline fill="none" stroke="#ffe9c7" points="401,-88.5 765,-88.5 "/>
<text text-anchor="middle" x="583" y="-73.3" font-family="Times,serif" font-size="14.00">curr: 0x504000000690</text>
<polyline fill="none" stroke="#ffe9c7" points="401,-65.5 765,-65.5 "/>
<text text-anchor="middle" x="492" y="-50.3" font-family="Times,serif" font-size="14.00">prev: 0x5060000008c0</text>
<polyline fill="none" stroke="#ffe9c7" points="583,-42.5 583,-65.5 "/>
<text text-anchor="middle" x="674" y="-50.3" font-family="Times,serif" font-size="14.00">next: 0x506000000920</text>
</g>
<!-- node_0x5060000008c0&#45;&gt;node_0x504000000690 -->
<g id="edge1" class="edge">
<title>node_0x5060000008c0&#45;&gt;node_0x504000000690</title>
<path fill="none" stroke="#ff6699" d="M365.17,-59C365.17,-59 390.84,-59 390.84,-59"/>
<polygon fill="#ff6699" stroke="#ff6699" points="390.84,-62.5 400.84,-59 390.84,-55.5 390.84,-62.5"/>
</g>
<!-- node_0x504000000710 -->
<g id="node11" class="node">
<title>node_0x504000000710</title>
<path fill="#9966ff" stroke="#ffe9c7" d="M4017,-0.5C4017,-0.5 4357,-0.5 4357,-0.5 4363,-0.5 4369,-6.5 4369,-12.5 4369,-12.5 4369,-80.5 4369,-80.5 4369,-86.5 4363,-92.5 4357,-92.5 4357,-92.5 4017,-92.5 4017,-92.5 4011,-92.5 4005,-86.5 4005,-80.5 4005,-80.5 4005,-12.5 4005,-12.5 4005,-6.5 4011,-0.5 4017,-0.5"/>
<text text-anchor="middle" x="4187" y="-77.3" font-family="Times,serif" font-size="14.00">num: 9</text>
<polyline fill="none" stroke="#ffe9c7" points="4005,-69.5 4369,-69.5 "/>
<text text-anchor="middle" x="4187" y="-54.3" font-family="Times,serif" font-size="14.00">data: var7</text>
<polyline fill="none" stroke="#ffe9c7" points="4005,-46.5 4369,-46.5 "/>
<text text-anchor="middle" x="4187" y="-31.3" font-family="Times,serif" font-size="14.00">curr: 0x504000000710</text>
<polyline fill="none" stroke="#ffe9c7" points="4005,-23.5 4369,-23.5 "/>
<text text-anchor="middle" x="4096.5" y="-8.3" font-family="Times,serif" font-size="14.00">prev: 0x5040000006d0</text>
<polyline fill="none" stroke="#ffe9c7" points="4188,-0.5 4188,-23.5 "/>
<text text-anchor="middle" x="4278.5" y="-8.3" font-family="Times,serif" font-size="14.00">next: 0x5060000008c0</text>
</g>
<!-- node_0x5060000008c0&#45;&gt;node_0x504000000710 -->
<g id="edge2" class="edge">
<title>node_0x5060000008c0&#45;&gt;node_0x504000000710</title>
<path fill="none" stroke="#34cb34" d="M365.3,-14C365.3,-14 3994.94,-14 3994.94,-14"/>
<polygon fill="#34cb34" stroke="#34cb34" points="3994.94,-17.5 4004.94,-14 3994.94,-10.5 3994.94,-17.5"/>
</g>
<!-- node_0x504000000690&#45;&gt;node_0x5060000008c0 -->
<g id="edge4" class="edge">
<title>node_0x504000000690&#45;&gt;node_0x5060000008c0</title>
<path fill="none" stroke="#34cb34" d="M400.91,-76C400.91,-76 375.18,-76 375.18,-76"/>
<polygon fill="#34cb34" stroke="#34cb34" points="375.18,-72.5 365.18,-76 375.18,-79.5 375.18,-72.5"/>
</g>
<!-- node_0x506000000920 -->
<g id="node3" class="node">
<title>node_0x506000000920</title>
<path fill="#9966ff" stroke="#ffe9c7" d="M813,-42.5C813,-42.5 1154,-42.5 1154,-42.5 1160,-42.5 1166,-48.5 1166,-54.5 1166,-54.5 1166,-122.5 1166,-122.5 1166,-128.5 1160,-134.5 1154,-134.5 1154,-134.5 813,-134.5 813,-134.5 807,-134.5 801,-128.5 801,-122.5 801,-122.5 801,-54.5 801,-54.5 801,-48.5 807,-42.5 813,-42.5"/>
<text text-anchor="middle" x="983.5" y="-119.3" font-family="Times,serif" font-size="14.00">num: 1</text>
<polyline fill="none" stroke="#ffe9c7" points="801,-111.5 1166,-111.5 "/>
<text text-anchor="middle" x="983.5" y="-96.3" font-family="Times,serif" font-size="14.00">data: param1</text>
<polyline fill="none" stroke="#ffe9c7" points="801,-88.5 1166,-88.5 "/>
<text text-anchor="middle" x="983.5" y="-73.3" font-family="Times,serif" font-size="14.00">curr: 0x506000000920</text>
<polyline fill="none" stroke="#ffe9c7" points="801,-65.5 1166,-65.5 "/>
<text text-anchor="middle" x="892.5" y="-50.3" font-family="Times,serif" font-size="14.00">prev: 0x504000000690</text>
<polyline fill="none" stroke="#ffe9c7" points="984,-42.5 984,-65.5 "/>
<text text-anchor="middle" x="1075" y="-50.3" font-family="Times,serif" font-size="14.00">next: 0x506000000980</text>
</g>
<!-- node_0x504000000690&#45;&gt;node_0x506000000920 -->
<g id="edge3" class="edge">
<title>node_0x504000000690&#45;&gt;node_0x506000000920</title>
<path fill="none" stroke="#ff6699" d="M765.09,-73C765.09,-73 790.82,-73 790.82,-73"/>
<polygon fill="#ff6699" stroke="#ff6699" points="790.82,-76.5 800.82,-73 790.82,-69.5 790.82,-76.5"/>
</g>
<!-- node_0x506000000920&#45;&gt;node_0x504000000690 -->
<g id="edge6" class="edge">
<title>node_0x506000000920&#45;&gt;node_0x504000000690</title>
<path fill="none" stroke="#34cb34" d="M800.83,-104C800.83,-104 775.16,-104 775.16,-104"/>
<polygon fill="#34cb34" stroke="#34cb34" points="775.16,-100.5 765.16,-104 775.16,-107.5 775.16,-100.5"/>
</g>
<!-- node_0x506000000980 -->
<g id="node4" class="node">
<title>node_0x506000000980</title>
<path fill="#9966ff" stroke="#ffe9c7" d="M1214,-42.5C1214,-42.5 1555,-42.5 1555,-42.5 1561,-42.5 1567,-48.5 1567,-54.5 1567,-54.5 1567,-122.5 1567,-122.5 1567,-128.5 1561,-134.5 1555,-134.5 1555,-134.5 1214,-134.5 1214,-134.5 1208,-134.5 1202,-128.5 1202,-122.5 1202,-122.5 1202,-54.5 1202,-54.5 1202,-48.5 1208,-42.5 1214,-42.5"/>
<text text-anchor="middle" x="1384.5" y="-119.3" font-family="Times,serif" font-size="14.00">num: 2</text>
<polyline fill="none" stroke="#ffe9c7" points="1202,-111.5 1567,-111.5 "/>
<text text-anchor="middle" x="1384.5" y="-96.3" font-family="Times,serif" font-size="14.00">data: param2</text>
<polyline fill="none" stroke="#ffe9c7" points="1202,-88.5 1567,-88.5 "/>
<text text-anchor="middle" x="1384.5" y="-73.3" font-family="Times,serif" font-size="14.00">curr: 0x506000000980</text>
<polyline fill="none" stroke="#ffe9c7" points="1202,-65.5 1567,-65.5 "/>
<text text-anchor="middle" x="1293.5" y="-50.3" font-family="Times,serif" font-size="14.00">prev: 0x506000000920</text>
<polyline fill="none" stroke="#ffe9c7" points="1385,-42.5 1385,-65.5 "/>
<text text-anchor="middle" x="1476" y="-50.3" font-family="Times,serif" font-size="14.00">next: 0x5060000009e0</text>
</g>
<!-- node_0x506000000920&#45;&gt;node_0x506000000980 -->
<g id="edge5" class="edge">
<title>node_0x506000000920&#45;&gt;node_0x506000000980</title>
<path fill="none" stroke="#ff6699" d="M1166.11,-73C1166.11,-73 1191.85,-73 1191.85,-73"/>
<polygon fill="#ff6699" stroke="#ff6699" points="1191.85,-76.5 1201.85,-73 1191.85,-69.5 1191.85,-76.5"/>
</g>
<!-- node_0x506000000980&#45;&gt;node_0x506000000920 -->
<g id="edge8" class="edge">
<title>node_0x506000000980&#45;&gt;node_0x506000000920</title>
<path fill="none" stroke="#34cb34" d="M1201.89,-104C1201.89,-104 1176.15,-104 1176.15,-104"/>
<polygon fill="#34cb34" stroke="#34cb34" points="1176.15,-100.5 1166.15,-104 1176.15,-107.5 1176.15,-100.5"/>
</g>
<!-- node_0x5060000009e0 -->
<g id="node5" class="node">
<title>node_0x5060000009e0</title>
<path fill="#9966ff" stroke="#ffe9c7" d="M1615,-42.5C1615,-42.5 1956,-42.5 1956,-42.5 1962,-42.5 1968,-48.5 1968,-54.5 1968,-54.5 1968,-122.5 1968,-122.5 1968,-128.5 1962,-134.5 1956,-134.5 1956,-134.5 1615,-134.5 1615,-134.5 1609,-134.5 1603,-128.5 1603,-122.5 1603,-122.5 1603,-54.5 1603,-54.5 1603,-48.5 1609,-42.5 1615,-42.5"/>
<text text-anchor="middle" x="1785.5" y="-119.3" font-family="Times,serif" font-size="14.00">num: 3</text>
<polyline fill="none" stroke="#ffe9c7" points="1603,-111.5 1968,-111.5 "/>
<text text-anchor="middle" x="1785.5" y="-96.3" font-family="Times,serif" font-size="14.00">data: param3</text>
<polyline fill="none" stroke="#ffe9c7" points="1603,-88.5 1968,-88.5 "/>
<text text-anchor="middle" x="1785.5" y="-73.3" font-family="Times,serif" font-size="14.00">curr: 0x5060000009e0</text>
<polyline fill="none" stroke="#ffe9c7" points="1603,-65.5 1968,-65.5 "/>
<text text-anchor="middle" x="1694.5" y="-50.3" font-family="Times,serif" font-size="14.00">prev: 0x506000000980</text>
<polyline fill="none" stroke="#ffe9c7" points="1786,-42.5 1786,-65.5 "/>
<text text-anchor="middle" x="1877" y="-50.3" font-family="Times,serif" font-size="14.00">next: 0x506000000a40</text>
</g>
<!-- node_0x506000000980&#45;&gt;node_0x5060000009e0 -->
<g id="edge7" class="edge">
<title>node_0x506000000980&#45;&gt;node_0x5060000009e0</title>
<path fill="none" stroke="#ff6699" d="M1567.11,-73C1567.11,-73 1592.85,-73 1592.85,-73"/>
<polygon fill="#ff6699" stroke="#ff6699" points="1592.85,-76.5 1602.85,-73 1592.85,-69.5 1592.85,-76.5"/>
</g>
<!-- node_0x5060000009e0&#45;&gt;node_0x506000000980 -->
<g id="edge10" class="edge">
<title>node_0x5060000009e0&#45;&gt;node_0x506000000980</title>
<path fill="none" stroke="#34cb34" d="M1602.89,-104C1602.89,-104 1577.15,-104 1577.15,-104"/>
<polygon fill="#34cb34" stroke="#34cb34" points="1577.15,-100.5 1567.15,-104 1577.15,-107.5 1577.15,-100.5"/>
</g>
<!-- node_0x506000000a40 -->
<g id="node6" class="node">
<title>node_0x506000000a40</title>
<path fill="#9966ff" stroke="#ffe9c7" d="M2016,-42.5C2016,-42.5 2355,-42.5 2355,-42.5 2361,-42.5 2367,-48.5 2367,-54.5 2367,-54.5 2367,-122.5 2367,-122.5 2367,-128.5 2361,-134.5 2355,-134.5 2355,-134.5 2016,-134.5 2016,-134.5 2010,-134.5 2004,-128.5 2004,-122.5 2004,-122.5 2004,-54.5 2004,-54.5 2004,-48.5 2010,-42.5 2016,-42.5"/>
<text text-anchor="middle" x="2185.5" y="-119.3" font-family="Times,serif" font-size="14.00">num: 4</text>
<polyline fill="none" stroke="#ffe9c7" points="2004,-111.5 2367,-111.5 "/>
<text text-anchor="middle" x="2185.5" y="-96.3" font-family="Times,serif" font-size="14.00">data: param4</text>
<polyline fill="none" stroke="#ffe9c7" points="2004,-88.5 2367,-88.5 "/>
<text text-anchor="middle" x="2185.5" y="-73.3" font-family="Times,serif" font-size="14.00">curr: 0x506000000a40</text>
<polyline fill="none" stroke="#ffe9c7" points="2004,-65.5 2367,-65.5 "/>
<text text-anchor="middle" x="2095" y="-50.3" font-family="Times,serif" font-size="14.00">prev: 0x5060000009e0</text>
<polyline fill="none" stroke="#ffe9c7" points="2186,-42.5 2186,-65.5 "/>
<text text-anchor="middle" x="2276.5" y="-50.3" font-family="Times,serif" font-size="14.00">next: 0x506000000aa0</text>
</g>
<!-- node_0x5060000009e0&#45;&gt;node_0x506000000a40 -->
<g id="edge9" class="edge">
<title>node_0x5060000009e0&#45;&gt;node_0x506000000a40</title>
<path fill="none" stroke="#ff6699" d="M1968.23,-73C1968.23,-73 1993.82,-73 1993.82,-73"/>
<polygon fill="#ff6699" stroke="#ff6699" points="1993.82,-76.5 2003.82,-73 1993.82,-69.5 1993.82,-76.5"/>
</g>
<!-- node_0x506000000a40&#45;&gt;node_0x5060000009e0 -->
<g id="edge12" class="edge">
<title>node_0x506000000a40&#45;&gt;node_0x5060000009e0</title>
<path fill="none" stroke="#34cb34" d="M2003.93,-104C2003.93,-104 1978.21,-104 1978.21,-104"/>
<polygon fill="#34cb34" stroke="#34cb34" points="1978.21,-100.5 1968.21,-104 1978.21,-107.5 1978.21,-100.5"/>
</g>
<!-- node_0x506000000aa0 -->
<g id="node7" class="node">
<title>node_0x506000000aa0</title>
<path fill="#9966ff" stroke="#ffe9c7" d="M2415,-42.5C2415,-42.5 2755,-42.5 2755,-42.5 2761,-42.5 2767,-48.5 2767,-54.5 2767,-54.5 2767,-122.5 2767,-122.5 2767,-128.5 2761,-134.5 2755,-134.5 2755,-134.5 2415,-134.5 2415,-134.5 2409,-134.5 2403,-128.5 2403,-122.5 2403,-122.5 2403,-54.5 2403,-54.5 2403,-48.5 2409,-42.5 2415,-42.5"/>
<text text-anchor="middle" x="2585" y="-119.3" font-family="Times,serif" font-size="14.00">num: 5</text>
<polyline fill="none" stroke="#ffe9c7" points="2403,-111.5 2767,-111.5 "/>
<text text-anchor="middle" x="2585" y="-96.3" font-family="Times,serif" font-size="14.00">data: param5</text>
<polyline fill="none" stroke="#ffe9c7" points="2403,-88.5 2767,-88.5 "/>
<text text-anchor="middle" x="2585" y="-73.3" font-family="Times,serif" font-size="14.00">curr: 0x506000000aa0</text>
<polyline fill="none" stroke="#ffe9c7" points="2403,-65.5 2767,-65.5 "/>
<text text-anchor="middle" x="2494" y="-50.3" font-family="Times,serif" font-size="14.00">prev: 0x506000000a40</text>
<polyline fill="none" stroke="#ffe9c7" points="2585,-42.5 2585,-65.5 "/>
<text text-anchor="middle" x="2676" y="-50.3" font-family="Times,serif" font-size="14.00">next: 0x506000000b00</text>
</g>
<!-- node_0x506000000a40&#45;&gt;node_0x506000000aa0 -->
<g id="edge11" class="edge">
<title>node_0x506000000a40&#45;&gt;node_0x506000000aa0</title>
<path fill="none" stroke="#ff6699" d="M2367.13,-73C2367.13,-73 2392.78,-73 2392.78,-73"/>
<polygon fill="#ff6699" stroke="#ff6699" points="2392.78,-76.5 2402.78,-73 2392.78,-69.5 2392.78,-76.5"/>
</g>
<!-- node_0x506000000aa0&#45;&gt;node_0x506000000a40 -->
<g id="edge14" class="edge">
<title>node_0x506000000aa0&#45;&gt;node_0x506000000a40</title>
<path fill="none" stroke="#34cb34" d="M2402.79,-104C2402.79,-104 2377.21,-104 2377.21,-104"/>
<polygon fill="#34cb34" stroke="#34cb34" points="2377.21,-100.5 2367.21,-104 2377.21,-107.5 2377.21,-100.5"/>
</g>
<!-- node_0x506000000b00 -->
<g id="node8" class="node">
<title>node_0x506000000b00</title>
<path fill="#9966ff" stroke="#ffe9c7" d="M2815,-42.5C2815,-42.5 3155,-42.5 3155,-42.5 3161,-42.5 3167,-48.5 3167,-54.5 3167,-54.5 3167,-122.5 3167,-122.5 3167,-128.5 3161,-134.5 3155,-134.5 3155,-134.5 2815,-134.5 2815,-134.5 2809,-134.5 2803,-128.5 2803,-122.5 2803,-122.5 2803,-54.5 2803,-54.5 2803,-48.5 2809,-42.5 2815,-42.5"/>
<text text-anchor="middle" x="2985" y="-119.3" font-family="Times,serif" font-size="14.00">num: 6</text>
<polyline fill="none" stroke="#ffe9c7" points="2803,-111.5 3167,-111.5 "/>
<text text-anchor="middle" x="2985" y="-96.3" font-family="Times,serif" font-size="14.00">data: param6</text>
<polyline fill="none" stroke="#ffe9c7" points="2803,-88.5 3167,-88.5 "/>
<text text-anchor="middle" x="2985" y="-73.3" font-family="Times,serif" font-size="14.00">curr: 0x506000000b00</text>
<polyline fill="none" stroke="#ffe9c7" points="2803,-65.5 3167,-65.5 "/>
<text text-anchor="middle" x="2894" y="-50.3" font-family="Times,serif" font-size="14.00">prev: 0x506000000aa0</text>
<polyline fill="none" stroke="#ffe9c7" points="2985,-42.5 2985,-65.5 "/>
<text text-anchor="middle" x="3076" y="-50.3" font-family="Times,serif" font-size="14.00">next: 0x506000000b60</text>
</g>
<!-- node_0x506000000aa0&#45;&gt;node_0x506000000b00 -->
<g id="edge13" class="edge">
<title>node_0x506000000aa0&#45;&gt;node_0x506000000b00</title>
<path fill="none" stroke="#ff6699" d="M2767.15,-73C2767.15,-73 2792.81,-73 2792.81,-73"/>
<polygon fill="#ff6699" stroke="#ff6699" points="2792.81,-76.5 2802.81,-73 2792.81,-69.5 2792.81,-76.5"/>
</g>
<!-- node_0x506000000b00&#45;&gt;node_0x506000000aa0 -->
<g id="edge16" class="edge">
<title>node_0x506000000b00&#45;&gt;node_0x506000000aa0</title>
<path fill="none" stroke="#34cb34" d="M2802.85,-104C2802.85,-104 2777.19,-104 2777.19,-104"/>
<polygon fill="#34cb34" stroke="#34cb34" points="2777.19,-100.5 2767.19,-104 2777.19,-107.5 2777.19,-100.5"/>
</g>
<!-- node_0x506000000b60 -->
<g id="node9" class="node">
<title>node_0x506000000b60</title>
<path fill="#9966ff" stroke="#ffe9c7" d="M3215,-42.5C3215,-42.5 3556,-42.5 3556,-42.5 3562,-42.5 3568,-48.5 3568,-54.5 3568,-54.5 3568,-122.5 3568,-122.5 3568,-128.5 3562,-134.5 3556,-134.5 3556,-134.5 3215,-134.5 3215,-134.5 3209,-134.5 3203,-128.5 3203,-122.5 3203,-122.5 3203,-54.5 3203,-54.5 3203,-48.5 3209,-42.5 3215,-42.5"/>
<text text-anchor="middle" x="3385.5" y="-119.3" font-family="Times,serif" font-size="14.00">num: 7</text>
<polyline fill="none" stroke="#ffe9c7" points="3203,-111.5 3568,-111.5 "/>
<text text-anchor="middle" x="3385.5" y="-96.3" font-family="Times,serif" font-size="14.00">data: param7</text>
<polyline fill="none" stroke="#ffe9c7" points="3203,-88.5 3568,-88.5 "/>
<text text-anchor="middle" x="3385.5" y="-73.3" font-family="Times,serif" font-size="14.00">curr: 0x506000000b60</text>
<polyline fill="none" stroke="#ffe9c7" points="3203,-65.5 3568,-65.5 "/>
<text text-anchor="middle" x="3294.5" y="-50.3" font-family="Times,serif" font-size="14.00">prev: 0x506000000b00</text>
<polyline fill="none" stroke="#ffe9c7" points="3386,-42.5 3386,-65.5 "/>
<text text-anchor="middle" x="3477" y="-50.3" font-family="Times,serif" font-size="14.00">next: 0x5040000006d0</text>
</g>
<!-- node_0x506000000b00&#45;&gt;node_0x506000000b60 -->
<g id="edge15" class="edge">
<title>node_0x506000000b00&#45;&gt;node_0x506000000b60</title>
<path fill="none" stroke="#ff6699" d="M3167.09,-73C3167.09,-73 3192.82,-73 3192.82,-73"/>
<polygon fill="#ff6699" stroke="#ff6699" points="3192.82,-76.5 3202.82,-73 3192.82,-69.5 3192.82,-76.5"/>
</g>
<!-- node_0x506000000b60&#45;&gt;node_0x506000000b00 -->
<g id="edge18" class="edge">
<title>node_0x506000000b60&#45;&gt;node_0x506000000b00</title>
<path fill="none" stroke="#34cb34" d="M3202.83,-104C3202.83,-104 3177.16,-104 3177.16,-104"/>
<polygon fill="#34cb34" stroke="#34cb34" points="3177.16,-100.5 3167.16,-104 3177.16,-107.5 3177.16,-100.5"/>
</g>
<!-- node_0x5040000006d0 -->
<g id="node10" class="node">
<title>node_0x5040000006d0</title>
<path fill="#9966ff" stroke="#ffe9c7" d="M3616,-42.5C3616,-42.5 3957,-42.5 3957,-42.5 3963,-42.5 3969,-48.5 3969,-54.5 3969,-54.5 3969,-122.5 3969,-122.5 3969,-128.5 3963,-134.5 3957,-134.5 3957,-134.5 3616,-134.5 3616,-134.5 3610,-134.5 3604,-128.5 3604,-122.5 3604,-122.5 3604,-54.5 3604,-54.5 3604,-48.5 3610,-42.5 3616,-42.5"/>
<text text-anchor="middle" x="3786.5" y="-119.3" font-family="Times,serif" font-size="14.00">num: 8</text>
<polyline fill="none" stroke="#ffe9c7" points="3604,-111.5 3969,-111.5 "/>
<text text-anchor="middle" x="3786.5" y="-96.3" font-family="Times,serif" font-size="14.00">data: var1</text>
<polyline fill="none" stroke="#ffe9c7" points="3604,-88.5 3969,-88.5 "/>
<text text-anchor="middle" x="3786.5" y="-73.3" font-family="Times,serif" font-size="14.00">curr: 0x5040000006d0</text>
<polyline fill="none" stroke="#ffe9c7" points="3604,-65.5 3969,-65.5 "/>
<text text-anchor="middle" x="3695.5" y="-50.3" font-family="Times,serif" font-size="14.00">prev: 0x506000000b60</text>
<polyline fill="none" stroke="#ffe9c7" points="3787,-42.5 3787,-65.5 "/>
<text text-anchor="middle" x="3878" y="-50.3" font-family="Times,serif" font-size="14.00">next: 0x504000000710</text>
</g>
<!-- node_0x506000000b60&#45;&gt;node_0x5040000006d0 -->
<g id="edge17" class="edge">
<title>node_0x506000000b60&#45;&gt;node_0x5040000006d0</title>
<path fill="none" stroke="#ff6699" d="M3568.11,-73C3568.11,-73 3593.85,-73 3593.85,-73"/>
<polygon fill="#ff6699" stroke="#ff6699" points="3593.85,-76.5 3603.85,-73 3593.85,-69.5 3593.85,-76.5"/>
</g>
<!-- node_0x5040000006d0&#45;&gt;node_0x506000000b60 -->
<g id="edge20" class="edge">
<title>node_0x5040000006d0&#45;&gt;node_0x506000000b60</title>
<path fill="none" stroke="#34cb34" d="M3603.89,-104C3603.89,-104 3578.15,-104 3578.15,-104"/>
<polygon fill="#34cb34" stroke="#34cb34" points="3578.15,-100.5 3568.15,-104 3578.15,-107.5 3578.15,-100.5"/>
</g>
<!-- node_0x5040000006d0&#45;&gt;node_0x504000000710 -->
<g id="edge19" class="edge">
<title>node_0x5040000006d0&#45;&gt;node_0x504000000710</title>
<path fill="none" stroke="#ff6699" d="M3969.17,-59C3969.17,-59 3994.84,-59 3994.84,-59"/>
<polygon fill="#ff6699" stroke="#ff6699" points="3994.84,-62.5 4004.84,-59 3994.84,-55.5 3994.84,-62.5"/>
</g>
<!-- node_0x504000000710&#45;&gt;node_0x5060000008c0 -->
<g id="edge21" class="edge">
<title>node_0x504000000710&#45;&gt;node_0x5060000008c0</title>
<path fill="none" stroke="#ff6699" d="M4004.86,-28C4004.86,-28 375.23,-28 375.23,-28"/>
<polygon fill="#ff6699" stroke="#ff6699" points="375.23,-24.5 365.23,-28 375.23,-31.5 375.23,-24.5"/>
</g>
<!-- node_0x504000000710&#45;&gt;node_0x5040000006d0 -->
<g id="edge22" class="edge">
<title>node_0x504000000710&#45;&gt;node_0x5040000006d0</title>
<path fill="none" stroke="#34cb34" d="M4004.91,-76C4004.91,-76 3979.18,-76 3979.18,-76"/>
<polygon fill="#34cb34" stroke="#34cb34" points="3979.18,-72.5 3969.18,-76 3979.18,-79.5 3979.18,-72.5"/>
</g>
</g>
</svg>
