<?xml version="1.0" encoding="UTF-8" standalone="no"?>
<!DOCTYPE svg PUBLIC "-//W3C//DTD SVG 1.1//EN"
 "http://www.w3.org/Graphics/SVG/1.1/DTD/svg11.dtd">
<!-- Generated by graphviz version 2.43.0 (0)
 -->
<!-- Title: G Pages: 1 -->
<svg width="1965pt" height="184pt"
 viewBox="0.00 0.00 1965.00 184.00" xmlns="http://www.w3.org/2000/svg" xmlns:xlink="http://www.w3.org/1999/xlink">
<g id="graph0" class="graph" transform="scale(1 1) rotate(0) translate(4 180)">
<title>G</title>
<polygon fill="#ffd480" stroke="transparent" points="-4,4 -4,-180 1961,-180 1961,4 -4,4"/>
<text text-anchor="middle" x="978.5" y="-148" font-family="Verdana" font-size="30.00" fill="#ffffff">List</text>
<!-- node_0x5bd593e390f0 -->
<g id="node1" class="node">
<title>node_0x5bd593e390f0</title>
<path fill="#ff6699" stroke="#ffe9c7" d="M12,-0.5C12,-0.5 352,-0.5 352,-0.5 358,-0.5 364,-6.5 364,-12.5 364,-12.5 364,-80.5 364,-80.5 364,-86.5 358,-92.5 352,-92.5 352,-92.5 12,-92.5 12,-92.5 6,-92.5 0,-86.5 0,-80.5 0,-80.5 0,-12.5 0,-12.5 0,-6.5 6,-0.5 12,-0.5"/>
<text text-anchor="middle" x="182" y="-77.3" font-family="Times,serif" font-size="14.00">Phantom</text>
<polyline fill="none" stroke="#ffe9c7" points="0,-69.5 364,-69.5 "/>
<text text-anchor="middle" x="182" y="-54.3" font-family="Times,serif" font-size="14.00">data: BADBABA</text>
<polyline fill="none" stroke="#ffe9c7" points="0,-46.5 364,-46.5 "/>
<text text-anchor="middle" x="182" y="-31.3" font-family="Times,serif" font-size="14.00">curr: 0x5bd593e390f0</text>
<polyline fill="none" stroke="#ffe9c7" points="0,-23.5 364,-23.5 "/>
<text text-anchor="middle" x="91" y="-8.3" font-family="Times,serif" font-size="14.00">prev: 0x5bd593e39570</text>
<polyline fill="none" stroke="#ffe9c7" points="182,-0.5 182,-23.5 "/>
<text text-anchor="middle" x="273" y="-8.3" font-family="Times,serif" font-size="14.00">next: 0x5bd593e39160</text>
</g>
<!-- node_0x5bd593e39160 -->
<g id="node2" class="node">
<title>node_0x5bd593e39160</title>
<path fill="#9966ff" stroke="#ffe9c7" d="M412,-42.5C412,-42.5 749,-42.5 749,-42.5 755,-42.5 761,-48.5 761,-54.5 761,-54.5 761,-122.5 761,-122.5 761,-128.5 755,-134.5 749,-134.5 749,-134.5 412,-134.5 412,-134.5 406,-134.5 400,-128.5 400,-122.5 400,-122.5 400,-54.5 400,-54.5 400,-48.5 406,-42.5 412,-42.5"/>
<text text-anchor="middle" x="580.5" y="-119.3" font-family="Times,serif" font-size="14.00">num: 0</text>
<polyline fill="none" stroke="#ffe9c7" points="400,-111.5 761,-111.5 "/>
<text text-anchor="middle" x="580.5" y="-96.3" font-family="Times,serif" font-size="14.00">data: main</text>
<polyline fill="none" stroke="#ffe9c7" points="400,-88.5 761,-88.5 "/>
<text text-anchor="middle" x="580.5" y="-73.3" font-family="Times,serif" font-size="14.00">curr: 0x5bd593e39160</text>
<polyline fill="none" stroke="#ffe9c7" points="400,-65.5 761,-65.5 "/>
<text text-anchor="middle" x="489.5" y="-50.3" font-family="Times,serif" font-size="14.00">prev: 0x5bd593e390f0</text>
<polyline fill="none" stroke="#ffe9c7" points="579,-42.5 579,-65.5 "/>
<text text-anchor="middle" x="670" y="-50.3" font-family="Times,serif" font-size="14.00">next: 0x5bd593e39290</text>
</g>
<!-- node_0x5bd593e390f0&#45;&gt;node_0x5bd593e39160 -->
<g id="edge1" class="edge">
<title>node_0x5bd593e390f0&#45;&gt;node_0x5bd593e39160</title>
<path fill="none" stroke="#ff6699" d="M364.05,-59C364.05,-59 389.81,-59 389.81,-59"/>
<polygon fill="#ff6699" stroke="#ff6699" points="389.81,-62.5 399.81,-59 389.81,-55.5 389.81,-62.5"/>
</g>
<!-- node_0x5bd593e39570 -->
<g id="node5" class="node">
<title>node_0x5bd593e39570</title>
<path fill="#9966ff" stroke="#ffe9c7" d="M1609,-0.5C1609,-0.5 1945,-0.5 1945,-0.5 1951,-0.5 1957,-6.5 1957,-12.5 1957,-12.5 1957,-80.5 1957,-80.5 1957,-86.5 1951,-92.5 1945,-92.5 1945,-92.5 1609,-92.5 1609,-92.5 1603,-92.5 1597,-86.5 1597,-80.5 1597,-80.5 1597,-12.5 1597,-12.5 1597,-6.5 1603,-0.5 1609,-0.5"/>
<text text-anchor="middle" x="1777" y="-77.3" font-family="Times,serif" font-size="14.00">num: 3</text>
<polyline fill="none" stroke="#ffe9c7" points="1597,-69.5 1957,-69.5 "/>
<text text-anchor="middle" x="1777" y="-54.3" font-family="Times,serif" font-size="14.00">data: two</text>
<polyline fill="none" stroke="#ffe9c7" points="1597,-46.5 1957,-46.5 "/>
<text text-anchor="middle" x="1777" y="-31.3" font-family="Times,serif" font-size="14.00">curr: 0x5bd593e39570</text>
<polyline fill="none" stroke="#ffe9c7" points="1597,-23.5 1957,-23.5 "/>
<text text-anchor="middle" x="1688" y="-8.3" font-family="Times,serif" font-size="14.00">prev: 0x5bd593e39320</text>
<polyline fill="none" stroke="#ffe9c7" points="1779,-0.5 1779,-23.5 "/>
<text text-anchor="middle" x="1868" y="-8.3" font-family="Times,serif" font-size="14.00">next: 0x5bd593e390f0</text>
</g>
<!-- node_0x5bd593e390f0&#45;&gt;node_0x5bd593e39570 -->
<g id="edge2" class="edge">
<title>node_0x5bd593e390f0&#45;&gt;node_0x5bd593e39570</title>
<path fill="none" stroke="#34cb34" d="M364.19,-14C364.19,-14 1586.88,-14 1586.88,-14"/>
<polygon fill="#34cb34" stroke="#34cb34" points="1586.88,-17.5 1596.88,-14 1586.88,-10.5 1586.88,-17.5"/>
</g>
<!-- node_0x5bd593e39160&#45;&gt;node_0x5bd593e390f0 -->
<g id="edge4" class="edge">
<title>node_0x5bd593e39160&#45;&gt;node_0x5bd593e390f0</title>
<path fill="none" stroke="#34cb34" d="M399.91,-76C399.91,-76 374.29,-76 374.29,-76"/>
<polygon fill="#34cb34" stroke="#34cb34" points="374.29,-72.5 364.29,-76 374.29,-79.5 374.29,-72.5"/>
</g>
<!-- node_0x5bd593e39290 -->
<g id="node3" class="node">
<title>node_0x5bd593e39290</title>
<path fill="#9966ff" stroke="#ffe9c7" d="M809,-42.5C809,-42.5 1149,-42.5 1149,-42.5 1155,-42.5 1161,-48.5 1161,-54.5 1161,-54.5 1161,-122.5 1161,-122.5 1161,-128.5 1155,-134.5 1149,-134.5 1149,-134.5 809,-134.5 809,-134.5 803,-134.5 797,-128.5 797,-122.5 797,-122.5 797,-54.5 797,-54.5 797,-48.5 803,-42.5 809,-42.5"/>
<text text-anchor="middle" x="979" y="-119.3" font-family="Times,serif" font-size="14.00">num: 1</text>
<polyline fill="none" stroke="#ffe9c7" points="797,-111.5 1161,-111.5 "/>
<text text-anchor="middle" x="979" y="-96.3" font-family="Times,serif" font-size="14.00">data: one</text>
<polyline fill="none" stroke="#ffe9c7" points="797,-88.5 1161,-88.5 "/>
<text text-anchor="middle" x="979" y="-73.3" font-family="Times,serif" font-size="14.00">curr: 0x5bd593e39290</text>
<polyline fill="none" stroke="#ffe9c7" points="797,-65.5 1161,-65.5 "/>
<text text-anchor="middle" x="888" y="-50.3" font-family="Times,serif" font-size="14.00">prev: 0x5bd593e39160</text>
<polyline fill="none" stroke="#ffe9c7" points="979,-42.5 979,-65.5 "/>
<text text-anchor="middle" x="1070" y="-50.3" font-family="Times,serif" font-size="14.00">next: 0x5bd593e39320</text>
</g>
<!-- node_0x5bd593e39160&#45;&gt;node_0x5bd593e39290 -->
<g id="edge3" class="edge">
<title>node_0x5bd593e39160&#45;&gt;node_0x5bd593e39290</title>
<path fill="none" stroke="#ff6699" d="M761.09,-73C761.09,-73 786.71,-73 786.71,-73"/>
<polygon fill="#ff6699" stroke="#ff6699" points="786.71,-76.5 796.71,-73 786.71,-69.5 786.71,-76.5"/>
</g>
<!-- node_0x5bd593e39290&#45;&gt;node_0x5bd593e39160 -->
<g id="edge6" class="edge">
<title>node_0x5bd593e39290&#45;&gt;node_0x5bd593e39160</title>
<path fill="none" stroke="#34cb34" d="M796.95,-104C796.95,-104 771.19,-104 771.19,-104"/>
<polygon fill="#34cb34" stroke="#34cb34" points="771.19,-100.5 761.19,-104 771.19,-107.5 771.19,-100.5"/>
</g>
<!-- node_0x5bd593e39320 -->
<g id="node4" class="node">
<title>node_0x5bd593e39320</title>
<path fill="#9966ff" stroke="#ffe9c7" d="M1209,-42.5C1209,-42.5 1549,-42.5 1549,-42.5 1555,-42.5 1561,-48.5 1561,-54.5 1561,-54.5 1561,-122.5 1561,-122.5 1561,-128.5 1555,-134.5 1549,-134.5 1549,-134.5 1209,-134.5 1209,-134.5 1203,-134.5 1197,-128.5 1197,-122.5 1197,-122.5 1197,-54.5 1197,-54.5 1197,-48.5 1203,-42.5 1209,-42.5"/>
<text text-anchor="middle" x="1379" y="-119.3" font-family="Times,serif" font-size="14.00">num: 2</text>
<polyline fill="none" stroke="#ffe9c7" points="1197,-111.5 1561,-111.5 "/>
<text text-anchor="middle" x="1379" y="-96.3" font-family="Times,serif" font-size="14.00">data: func</text>
<polyline fill="none" stroke="#ffe9c7" points="1197,-88.5 1561,-88.5 "/>
<text text-anchor="middle" x="1379" y="-73.3" font-family="Times,serif" font-size="14.00">curr: 0x5bd593e39320</text>
<polyline fill="none" stroke="#ffe9c7" points="1197,-65.5 1561,-65.5 "/>
<text text-anchor="middle" x="1288" y="-50.3" font-family="Times,serif" font-size="14.00">prev: 0x5bd593e39290</text>
<polyline fill="none" stroke="#ffe9c7" points="1379,-42.5 1379,-65.5 "/>
<text text-anchor="middle" x="1470" y="-50.3" font-family="Times,serif" font-size="14.00">next: 0x5bd593e39570</text>
</g>
<!-- node_0x5bd593e39290&#45;&gt;node_0x5bd593e39320 -->
<g id="edge5" class="edge">
<title>node_0x5bd593e39290&#45;&gt;node_0x5bd593e39320</title>
<path fill="none" stroke="#ff6699" d="M1161.15,-73C1161.15,-73 1186.81,-73 1186.81,-73"/>
<polygon fill="#ff6699" stroke="#ff6699" points="1186.81,-76.5 1196.81,-73 1186.81,-69.5 1186.81,-76.5"/>
</g>
<!-- node_0x5bd593e39320&#45;&gt;node_0x5bd593e39290 -->
<g id="edge8" class="edge">
<title>node_0x5bd593e39320&#45;&gt;node_0x5bd593e39290</title>
<path fill="none" stroke="#34cb34" d="M1196.85,-104C1196.85,-104 1171.19,-104 1171.19,-104"/>
<polygon fill="#34cb34" stroke="#34cb34" points="1171.19,-100.5 1161.19,-104 1171.19,-107.5 1171.19,-100.5"/>
</g>
<!-- node_0x5bd593e39320&#45;&gt;node_0x5bd593e39570 -->
<g id="edge7" class="edge">
<title>node_0x5bd593e39320&#45;&gt;node_0x5bd593e39570</title>
<path fill="none" stroke="#ff6699" d="M1561.11,-59C1561.11,-59 1586.8,-59 1586.8,-59"/>
<polygon fill="#ff6699" stroke="#ff6699" points="1586.8,-62.5 1596.8,-59 1586.8,-55.5 1586.8,-62.5"/>
</g>
<!-- node_0x5bd593e39570&#45;&gt;node_0x5bd593e390f0 -->
<g id="edge9" class="edge">
<title>node_0x5bd593e39570&#45;&gt;node_0x5bd593e390f0</title>
<path fill="none" stroke="#ff6699" d="M1596.75,-28C1596.75,-28 374.17,-28 374.17,-28"/>
<polygon fill="#ff6699" stroke="#ff6699" points="374.17,-24.5 364.17,-28 374.17,-31.5 374.17,-24.5"/>
</g>
<!-- node_0x5bd593e39570&#45;&gt;node_0x5bd593e39320 -->
<g id="edge10" class="edge">
<title>node_0x5bd593e39570&#45;&gt;node_0x5bd593e39320</title>
<path fill="none" stroke="#34cb34" d="M1596.92,-76C1596.92,-76 1571.01,-76 1571.01,-76"/>
<polygon fill="#34cb34" stroke="#34cb34" points="1571.01,-72.5 1561.01,-76 1571.01,-79.5 1571.01,-72.5"/>
</g>
</g>
</svg>
