<?xml version="1.0" encoding="UTF-8" standalone="no"?>
<!DOCTYPE svg PUBLIC "-//W3C//DTD SVG 1.1//EN"
 "http://www.w3.org/Graphics/SVG/1.1/DTD/svg11.dtd">
<!-- Generated by graphviz version 2.43.0 (0)
 -->
<!-- Title: G Pages: 1 -->
<svg width="436pt" height="428pt"
 viewBox="0.00 0.00 435.50 428.00" xmlns="http://www.w3.org/2000/svg" xmlns:xlink="http://www.w3.org/1999/xlink">
<g id="graph0" class="graph" transform="scale(1 1) rotate(0) translate(4 424)">
<title>G</title>
<polygon fill="#ffd480" stroke="transparent" points="-4,4 -4,-424 431.5,-424 431.5,4 -4,4"/>
<text text-anchor="middle" x="213.75" y="-392" font-family="Verdana" font-size="30.00" fill="#ffffff">AST</text>
<!-- node_0x504000000290 -->
<g id="node1" class="node">
<title>node_0x504000000290</title>
<path fill="#9966ff" stroke="#ffe9c7" d="M101,-332.5C101,-332.5 237,-332.5 237,-332.5 243,-332.5 249,-338.5 249,-344.5 249,-344.5 249,-366.5 249,-366.5 249,-372.5 243,-378.5 237,-378.5 237,-378.5 101,-378.5 101,-378.5 95,-378.5 89,-372.5 89,-366.5 89,-366.5 89,-344.5 89,-344.5 89,-338.5 95,-332.5 101,-332.5"/>
<text text-anchor="middle" x="169" y="-363.3" font-family="Times,serif" font-size="14.00">node type: KeyWord</text>
<polyline fill="none" stroke="#ffe9c7" points="89,-355.5 249,-355.5 "/>
<text text-anchor="middle" x="169" y="-340.3" font-family="Times,serif" font-size="14.00">data: ;</text>
</g>
<!-- node_0x504000000190 -->
<g id="node2" class="node">
<title>node_0x504000000190</title>
<path fill="#08c41e" stroke="#ffe9c7" d="M103,-249.5C103,-249.5 235,-249.5 235,-249.5 241,-249.5 247,-255.5 247,-261.5 247,-261.5 247,-283.5 247,-283.5 247,-289.5 241,-295.5 235,-295.5 235,-295.5 103,-295.5 103,-295.5 97,-295.5 91,-289.5 91,-283.5 91,-283.5 91,-261.5 91,-261.5 91,-255.5 97,-249.5 103,-249.5"/>
<text text-anchor="middle" x="169" y="-280.3" font-family="Times,serif" font-size="14.00">node type: Var Decl</text>
<polyline fill="none" stroke="#ffe9c7" points="91,-272.5 247,-272.5 "/>
<text text-anchor="middle" x="169" y="-257.3" font-family="Times,serif" font-size="14.00">data:</text>
</g>
<!-- node_0x504000000290&#45;&gt;node_0x504000000190 -->
<g id="edge1" class="edge">
<title>node_0x504000000290&#45;&gt;node_0x504000000190</title>
<path fill="none" stroke="#9acd32" d="M169,-332.37C169,-324.15 169,-314.66 169,-305.73"/>
<polygon fill="#9acd32" stroke="#9acd32" points="172.5,-305.61 169,-295.61 165.5,-305.61 172.5,-305.61"/>
</g>
<!-- node_0x504000000110 -->
<g id="node3" class="node">
<title>node_0x504000000110</title>
<path fill="#9966ff" stroke="#ffe9c7" d="M12,-166.5C12,-166.5 148,-166.5 148,-166.5 154,-166.5 160,-172.5 160,-178.5 160,-178.5 160,-200.5 160,-200.5 160,-206.5 154,-212.5 148,-212.5 148,-212.5 12,-212.5 12,-212.5 6,-212.5 0,-206.5 0,-200.5 0,-200.5 0,-178.5 0,-178.5 0,-172.5 6,-166.5 12,-166.5"/>
<text text-anchor="middle" x="80" y="-197.3" font-family="Times,serif" font-size="14.00">node type: KeyWord</text>
<polyline fill="none" stroke="#ffe9c7" points="0,-189.5 160,-189.5 "/>
<text text-anchor="middle" x="80" y="-174.3" font-family="Times,serif" font-size="14.00">data: number</text>
</g>
<!-- node_0x504000000190&#45;&gt;node_0x504000000110 -->
<g id="edge2" class="edge">
<title>node_0x504000000190&#45;&gt;node_0x504000000110</title>
<path fill="none" stroke="#9acd32" d="M144.68,-249.37C134.58,-240.17 122.71,-229.37 111.92,-219.55"/>
<polygon fill="#9acd32" stroke="#9acd32" points="114.04,-216.75 104.29,-212.61 109.33,-221.93 114.04,-216.75"/>
</g>
<!-- node_0x5040000001d0 -->
<g id="node4" class="node">
<title>node_0x5040000001d0</title>
<path fill="#9966ff" stroke="#ffe9c7" d="M190,-166.5C190,-166.5 326,-166.5 326,-166.5 332,-166.5 338,-172.5 338,-178.5 338,-178.5 338,-200.5 338,-200.5 338,-206.5 332,-212.5 326,-212.5 326,-212.5 190,-212.5 190,-212.5 184,-212.5 178,-206.5 178,-200.5 178,-200.5 178,-178.5 178,-178.5 178,-172.5 184,-166.5 190,-166.5"/>
<text text-anchor="middle" x="258" y="-197.3" font-family="Times,serif" font-size="14.00">node type: KeyWord</text>
<polyline fill="none" stroke="#ffe9c7" points="178,-189.5 338,-189.5 "/>
<text text-anchor="middle" x="258" y="-174.3" font-family="Times,serif" font-size="14.00">data: =</text>
</g>
<!-- node_0x504000000190&#45;&gt;node_0x5040000001d0 -->
<g id="edge3" class="edge">
<title>node_0x504000000190&#45;&gt;node_0x5040000001d0</title>
<path fill="none" stroke="#ff2b00" d="M193.32,-249.37C203.42,-240.17 215.29,-229.37 226.08,-219.55"/>
<polygon fill="#ff2b00" stroke="#ff2b00" points="228.67,-221.93 233.71,-212.61 223.96,-216.75 228.67,-221.93"/>
</g>
<!-- node_0x504000000150 -->
<g id="node5" class="node">
<title>node_0x504000000150</title>
<path fill="#ff6699" stroke="#ffe9c7" d="M99,-83.5C99,-83.5 237,-83.5 237,-83.5 243,-83.5 249,-89.5 249,-95.5 249,-95.5 249,-117.5 249,-117.5 249,-123.5 243,-129.5 237,-129.5 237,-129.5 99,-129.5 99,-129.5 93,-129.5 87,-123.5 87,-117.5 87,-117.5 87,-95.5 87,-95.5 87,-89.5 93,-83.5 99,-83.5"/>
<text text-anchor="middle" x="168" y="-114.3" font-family="Times,serif" font-size="14.00">node type: Identifier</text>
<polyline fill="none" stroke="#ffe9c7" points="87,-106.5 249,-106.5 "/>
<text text-anchor="middle" x="168" y="-91.3" font-family="Times,serif" font-size="14.00">data: x</text>
</g>
<!-- node_0x5040000001d0&#45;&gt;node_0x504000000150 -->
<g id="edge4" class="edge">
<title>node_0x5040000001d0&#45;&gt;node_0x504000000150</title>
<path fill="none" stroke="#9acd32" d="M233.41,-166.37C223.19,-157.17 211.19,-146.37 200.28,-136.55"/>
<polygon fill="#9acd32" stroke="#9acd32" points="202.34,-133.69 192.56,-129.61 197.65,-138.9 202.34,-133.69"/>
</g>
<!-- node_0x504000000210 -->
<g id="node6" class="node">
<title>node_0x504000000210</title>
<path fill="#9966ff" stroke="#ffe9c7" d="M279,-83.5C279,-83.5 415,-83.5 415,-83.5 421,-83.5 427,-89.5 427,-95.5 427,-95.5 427,-117.5 427,-117.5 427,-123.5 421,-129.5 415,-129.5 415,-129.5 279,-129.5 279,-129.5 273,-129.5 267,-123.5 267,-117.5 267,-117.5 267,-95.5 267,-95.5 267,-89.5 273,-83.5 279,-83.5"/>
<text text-anchor="middle" x="347" y="-114.3" font-family="Times,serif" font-size="14.00">node type: KeyWord</text>
<polyline fill="none" stroke="#ffe9c7" points="267,-106.5 427,-106.5 "/>
<text text-anchor="middle" x="347" y="-91.3" font-family="Times,serif" font-size="14.00">data: sin</text>
</g>
<!-- node_0x5040000001d0&#45;&gt;node_0x504000000210 -->
<g id="edge5" class="edge">
<title>node_0x5040000001d0&#45;&gt;node_0x504000000210</title>
<path fill="none" stroke="#ff2b00" d="M282.32,-166.37C292.42,-157.17 304.29,-146.37 315.08,-136.55"/>
<polygon fill="#ff2b00" stroke="#ff2b00" points="317.67,-138.93 322.71,-129.61 312.96,-133.75 317.67,-138.93"/>
</g>
<!-- node_0x504000000250 -->
<g id="node7" class="node">
<title>node_0x504000000250</title>
<path fill="#03cffc" stroke="#ffe9c7" d="M278.5,-0.5C278.5,-0.5 415.5,-0.5 415.5,-0.5 421.5,-0.5 427.5,-6.5 427.5,-12.5 427.5,-12.5 427.5,-34.5 427.5,-34.5 427.5,-40.5 421.5,-46.5 415.5,-46.5 415.5,-46.5 278.5,-46.5 278.5,-46.5 272.5,-46.5 266.5,-40.5 266.5,-34.5 266.5,-34.5 266.5,-12.5 266.5,-12.5 266.5,-6.5 272.5,-0.5 278.5,-0.5"/>
<text text-anchor="middle" x="347" y="-31.3" font-family="Times,serif" font-size="14.00">node type: Constant</text>
<polyline fill="none" stroke="#ffe9c7" points="266.5,-23.5 427.5,-23.5 "/>
<text text-anchor="middle" x="347" y="-8.3" font-family="Times,serif" font-size="14.00">data: 15</text>
</g>
<!-- node_0x504000000210&#45;&gt;node_0x504000000250 -->
<g id="edge6" class="edge">
<title>node_0x504000000210&#45;&gt;node_0x504000000250</title>
<path fill="none" stroke="#ff2b00" d="M347,-83.37C347,-75.15 347,-65.66 347,-56.73"/>
<polygon fill="#ff2b00" stroke="#ff2b00" points="350.5,-56.61 347,-46.61 343.5,-56.61 350.5,-56.61"/>
</g>
</g>
</svg>
