<?xml version="1.0" encoding="UTF-8" standalone="no"?>
<!DOCTYPE svg PUBLIC "-//W3C//DTD SVG 1.1//EN"
 "http://www.w3.org/Graphics/SVG/1.1/DTD/svg11.dtd">
<!-- Generated by graphviz version 2.43.0 (0)
 -->
<!-- Title: G Pages: 1 -->
<svg width="296pt" height="428pt"
 viewBox="0.00 0.00 295.50 428.00" xmlns="http://www.w3.org/2000/svg" xmlns:xlink="http://www.w3.org/1999/xlink">
<g id="graph0" class="graph" transform="scale(1 1) rotate(0) translate(4 424)">
<title>G</title>
<polygon fill="#ffd480" stroke="transparent" points="-4,4 -4,-424 291.5,-424 291.5,4 -4,4"/>
<text text-anchor="middle" x="143.75" y="-392" font-family="Verdana" font-size="30.00" fill="#ffffff">AST</text>
<!-- node_0x504000000190 -->
<g id="node1" class="node">
<title>node_0x504000000190</title>
<path fill="#fca103" stroke="#ffe9c7" d="M65.5,-332.5C65.5,-332.5 122.5,-332.5 122.5,-332.5 128.5,-332.5 134.5,-338.5 134.5,-344.5 134.5,-344.5 134.5,-366.5 134.5,-366.5 134.5,-372.5 128.5,-378.5 122.5,-378.5 122.5,-378.5 65.5,-378.5 65.5,-378.5 59.5,-378.5 53.5,-372.5 53.5,-366.5 53.5,-366.5 53.5,-344.5 53.5,-344.5 53.5,-338.5 59.5,-332.5 65.5,-332.5"/>
<text text-anchor="middle" x="94" y="-363.3" font-family="Times,serif" font-size="14.00">Func Def</text>
<polyline fill="none" stroke="#ffe9c7" points="53.5,-355.5 134.5,-355.5 "/>
<text text-anchor="middle" x="94" y="-340.3" font-family="Times,serif" font-size="14.00">main</text>
</g>
<!-- node_0x504000000150 -->
<g id="node2" class="node">
<title>node_0x504000000150</title>
<path fill="#9966ff" stroke="#ffe9c7" d="M12,-249.5C12,-249.5 68,-249.5 68,-249.5 74,-249.5 80,-255.5 80,-261.5 80,-261.5 80,-283.5 80,-283.5 80,-289.5 74,-295.5 68,-295.5 68,-295.5 12,-295.5 12,-295.5 6,-295.5 0,-289.5 0,-283.5 0,-283.5 0,-261.5 0,-261.5 0,-255.5 6,-249.5 12,-249.5"/>
<text text-anchor="middle" x="40" y="-280.3" font-family="Times,serif" font-size="14.00">KeyWord</text>
<polyline fill="none" stroke="#ffe9c7" points="0,-272.5 80,-272.5 "/>
<text text-anchor="middle" x="40" y="-257.3" font-family="Times,serif" font-size="14.00">int</text>
</g>
<!-- node_0x504000000190&#45;&gt;node_0x504000000150 -->
<g id="edge1" class="edge">
<title>node_0x504000000190&#45;&gt;node_0x504000000150</title>
<path fill="none" stroke="#9acd32" d="M79.24,-332.37C73.41,-323.62 66.61,-313.41 60.32,-303.99"/>
<polygon fill="#9acd32" stroke="#9acd32" points="63.2,-301.99 54.74,-295.61 57.37,-305.87 63.2,-301.99"/>
</g>
<!-- node_0x5040000001d0 -->
<g id="node3" class="node">
<title>node_0x5040000001d0</title>
<path fill="#fc0303" stroke="#ffe9c7" d="M110.5,-249.5C110.5,-249.5 185.5,-249.5 185.5,-249.5 191.5,-249.5 197.5,-255.5 197.5,-261.5 197.5,-261.5 197.5,-283.5 197.5,-283.5 197.5,-289.5 191.5,-295.5 185.5,-295.5 185.5,-295.5 110.5,-295.5 110.5,-295.5 104.5,-295.5 98.5,-289.5 98.5,-283.5 98.5,-283.5 98.5,-261.5 98.5,-261.5 98.5,-255.5 104.5,-249.5 110.5,-249.5"/>
<text text-anchor="middle" x="148" y="-280.3" font-family="Times,serif" font-size="14.00">Parameters</text>
<polyline fill="none" stroke="#ffe9c7" points="98.5,-272.5 197.5,-272.5 "/>
<text text-anchor="middle" x="148" y="-257.3" font-family="Times,serif" font-size="14.00">∅</text>
</g>
<!-- node_0x504000000190&#45;&gt;node_0x5040000001d0 -->
<g id="edge2" class="edge">
<title>node_0x504000000190&#45;&gt;node_0x5040000001d0</title>
<path fill="none" stroke="#ff2b00" d="M108.76,-332.37C114.59,-323.62 121.39,-313.41 127.68,-303.99"/>
<polygon fill="#ff2b00" stroke="#ff2b00" points="130.63,-305.87 133.26,-295.61 124.8,-301.99 130.63,-305.87"/>
</g>
<!-- node_0x504000000290 -->
<g id="node4" class="node">
<title>node_0x504000000290</title>
<path fill="#08c41e" stroke="#ffe9c7" d="M121.5,-166.5C121.5,-166.5 174.5,-166.5 174.5,-166.5 180.5,-166.5 186.5,-172.5 186.5,-178.5 186.5,-178.5 186.5,-200.5 186.5,-200.5 186.5,-206.5 180.5,-212.5 174.5,-212.5 174.5,-212.5 121.5,-212.5 121.5,-212.5 115.5,-212.5 109.5,-206.5 109.5,-200.5 109.5,-200.5 109.5,-178.5 109.5,-178.5 109.5,-172.5 115.5,-166.5 121.5,-166.5"/>
<text text-anchor="middle" x="148" y="-197.3" font-family="Times,serif" font-size="14.00">Var Decl</text>
<polyline fill="none" stroke="#ffe9c7" points="109.5,-189.5 186.5,-189.5 "/>
<text text-anchor="middle" x="148" y="-174.3" font-family="Times,serif" font-size="14.00">one</text>
</g>
<!-- node_0x5040000001d0&#45;&gt;node_0x504000000290 -->
<g id="edge3" class="edge">
<title>node_0x5040000001d0&#45;&gt;node_0x504000000290</title>
<path fill="none" stroke="#9acd32" d="M148,-249.37C148,-241.15 148,-231.66 148,-222.73"/>
<polygon fill="#9acd32" stroke="#9acd32" points="151.5,-222.61 148,-212.61 144.5,-222.61 151.5,-222.61"/>
</g>
<!-- node_0x504000000210 -->
<g id="node5" class="node">
<title>node_0x504000000210</title>
<path fill="#9966ff" stroke="#ffe9c7" d="M71,-83.5C71,-83.5 127,-83.5 127,-83.5 133,-83.5 139,-89.5 139,-95.5 139,-95.5 139,-117.5 139,-117.5 139,-123.5 133,-129.5 127,-129.5 127,-129.5 71,-129.5 71,-129.5 65,-129.5 59,-123.5 59,-117.5 59,-117.5 59,-95.5 59,-95.5 59,-89.5 65,-83.5 71,-83.5"/>
<text text-anchor="middle" x="99" y="-114.3" font-family="Times,serif" font-size="14.00">KeyWord</text>
<polyline fill="none" stroke="#ffe9c7" points="59,-106.5 139,-106.5 "/>
<text text-anchor="middle" x="99" y="-91.3" font-family="Times,serif" font-size="14.00">int</text>
</g>
<!-- node_0x504000000290&#45;&gt;node_0x504000000210 -->
<g id="edge4" class="edge">
<title>node_0x504000000290&#45;&gt;node_0x504000000210</title>
<path fill="none" stroke="#9acd32" d="M134.61,-166.37C129.37,-157.71 123.27,-147.62 117.62,-138.27"/>
<polygon fill="#9acd32" stroke="#9acd32" points="120.54,-136.35 112.37,-129.61 114.55,-139.97 120.54,-136.35"/>
</g>
<!-- node_0x5040000002d0 -->
<g id="node6" class="node">
<title>node_0x5040000002d0</title>
<path fill="#9966ff" stroke="#ffe9c7" d="M169,-83.5C169,-83.5 225,-83.5 225,-83.5 231,-83.5 237,-89.5 237,-95.5 237,-95.5 237,-117.5 237,-117.5 237,-123.5 231,-129.5 225,-129.5 225,-129.5 169,-129.5 169,-129.5 163,-129.5 157,-123.5 157,-117.5 157,-117.5 157,-95.5 157,-95.5 157,-89.5 163,-83.5 169,-83.5"/>
<text text-anchor="middle" x="197" y="-114.3" font-family="Times,serif" font-size="14.00">KeyWord</text>
<polyline fill="none" stroke="#ffe9c7" points="157,-106.5 237,-106.5 "/>
<text text-anchor="middle" x="197" y="-91.3" font-family="Times,serif" font-size="14.00">=</text>
</g>
<!-- node_0x504000000290&#45;&gt;node_0x5040000002d0 -->
<g id="edge5" class="edge">
<title>node_0x504000000290&#45;&gt;node_0x5040000002d0</title>
<path fill="none" stroke="#ff2b00" d="M161.39,-166.37C166.63,-157.71 172.73,-147.62 178.38,-138.27"/>
<polygon fill="#ff2b00" stroke="#ff2b00" points="181.45,-139.97 183.63,-129.61 175.46,-136.35 181.45,-139.97"/>
</g>
<!-- node_0x504000000250 -->
<g id="node7" class="node">
<title>node_0x504000000250</title>
<path fill="#ff6699" stroke="#ffe9c7" d="M117.5,-0.5C117.5,-0.5 176.5,-0.5 176.5,-0.5 182.5,-0.5 188.5,-6.5 188.5,-12.5 188.5,-12.5 188.5,-34.5 188.5,-34.5 188.5,-40.5 182.5,-46.5 176.5,-46.5 176.5,-46.5 117.5,-46.5 117.5,-46.5 111.5,-46.5 105.5,-40.5 105.5,-34.5 105.5,-34.5 105.5,-12.5 105.5,-12.5 105.5,-6.5 111.5,-0.5 117.5,-0.5"/>
<text text-anchor="middle" x="147" y="-31.3" font-family="Times,serif" font-size="14.00">Identifier</text>
<polyline fill="none" stroke="#ffe9c7" points="105.5,-23.5 188.5,-23.5 "/>
<text text-anchor="middle" x="147" y="-8.3" font-family="Times,serif" font-size="14.00">one</text>
</g>
<!-- node_0x5040000002d0&#45;&gt;node_0x504000000250 -->
<g id="edge6" class="edge">
<title>node_0x5040000002d0&#45;&gt;node_0x504000000250</title>
<path fill="none" stroke="#9acd32" d="M183.34,-83.37C177.99,-74.71 171.77,-64.62 166,-55.27"/>
<polygon fill="#9acd32" stroke="#9acd32" points="168.88,-53.28 160.65,-46.61 162.92,-56.95 168.88,-53.28"/>
</g>
<!-- node_0x504000000310 -->
<g id="node8" class="node">
<title>node_0x504000000310</title>
<path fill="#03cffc" stroke="#ffe9c7" d="M218.5,-0.5C218.5,-0.5 275.5,-0.5 275.5,-0.5 281.5,-0.5 287.5,-6.5 287.5,-12.5 287.5,-12.5 287.5,-34.5 287.5,-34.5 287.5,-40.5 281.5,-46.5 275.5,-46.5 275.5,-46.5 218.5,-46.5 218.5,-46.5 212.5,-46.5 206.5,-40.5 206.5,-34.5 206.5,-34.5 206.5,-12.5 206.5,-12.5 206.5,-6.5 212.5,-0.5 218.5,-0.5"/>
<text text-anchor="middle" x="247" y="-31.3" font-family="Times,serif" font-size="14.00">Constant</text>
<polyline fill="none" stroke="#ffe9c7" points="206.5,-23.5 287.5,-23.5 "/>
<text text-anchor="middle" x="247" y="-8.3" font-family="Times,serif" font-size="14.00">1</text>
</g>
<!-- node_0x5040000002d0&#45;&gt;node_0x504000000310 -->
<g id="edge7" class="edge">
<title>node_0x5040000002d0&#45;&gt;node_0x504000000310</title>
<path fill="none" stroke="#ff2b00" d="M210.66,-83.37C216.01,-74.71 222.23,-64.62 228,-55.27"/>
<polygon fill="#ff2b00" stroke="#ff2b00" points="231.08,-56.95 233.35,-46.61 225.12,-53.28 231.08,-56.95"/>
</g>
</g>
</svg>
