<?xml version="1.0" encoding="UTF-8" standalone="no"?>
<!DOCTYPE svg PUBLIC "-//W3C//DTD SVG 1.1//EN"
 "http://www.w3.org/Graphics/SVG/1.1/DTD/svg11.dtd">
<!-- Generated by graphviz version 2.43.0 (0)
 -->
<!-- Title: G Pages: 1 -->
<svg width="1068pt" height="1092pt"
 viewBox="0.00 0.00 1067.50 1092.00" xmlns="http://www.w3.org/2000/svg" xmlns:xlink="http://www.w3.org/1999/xlink">
<g id="graph0" class="graph" transform="scale(1 1) rotate(0) translate(4 1088)">
<title>G</title>
<polygon fill="#ffd480" stroke="transparent" points="-4,4 -4,-1088 1063.5,-1088 1063.5,4 -4,4"/>
<text text-anchor="middle" x="529.75" y="-1056" font-family="Verdana" font-size="30.00" fill="#ffffff">AST</text>
<!-- node_0x504000001150 -->
<g id="node1" class="node">
<title>node_0x504000001150</title>
<path fill="#9966ff" stroke="#ffe9c7" d="M472,-996.5C472,-996.5 528,-996.5 528,-996.5 534,-996.5 540,-1002.5 540,-1008.5 540,-1008.5 540,-1030.5 540,-1030.5 540,-1036.5 534,-1042.5 528,-1042.5 528,-1042.5 472,-1042.5 472,-1042.5 466,-1042.5 460,-1036.5 460,-1030.5 460,-1030.5 460,-1008.5 460,-1008.5 460,-1002.5 466,-996.5 472,-996.5"/>
<text text-anchor="middle" x="500" y="-1027.3" font-family="Times,serif" font-size="14.00">KeyWord</text>
<polyline fill="none" stroke="#ffe9c7" points="460,-1019.5 540,-1019.5 "/>
<text text-anchor="middle" x="500" y="-1004.3" font-family="Times,serif" font-size="14.00">;</text>
</g>
<!-- node_0x504000000990 -->
<g id="node2" class="node">
<title>node_0x504000000990</title>
<path fill="#fca103" stroke="#ffe9c7" d="M417.5,-913.5C417.5,-913.5 474.5,-913.5 474.5,-913.5 480.5,-913.5 486.5,-919.5 486.5,-925.5 486.5,-925.5 486.5,-947.5 486.5,-947.5 486.5,-953.5 480.5,-959.5 474.5,-959.5 474.5,-959.5 417.5,-959.5 417.5,-959.5 411.5,-959.5 405.5,-953.5 405.5,-947.5 405.5,-947.5 405.5,-925.5 405.5,-925.5 405.5,-919.5 411.5,-913.5 417.5,-913.5"/>
<text text-anchor="middle" x="446" y="-944.3" font-family="Times,serif" font-size="14.00">Func Def</text>
<polyline fill="none" stroke="#ffe9c7" points="405.5,-936.5 486.5,-936.5 "/>
<text text-anchor="middle" x="446" y="-921.3" font-family="Times,serif" font-size="14.00">0</text>
</g>
<!-- node_0x504000001150&#45;&gt;node_0x504000000990 -->
<g id="edge1" class="edge">
<title>node_0x504000001150&#45;&gt;node_0x504000000990</title>
<path fill="none" stroke="#9acd32" d="M485.24,-996.37C479.41,-987.62 472.61,-977.41 466.32,-967.99"/>
<polygon fill="#9acd32" stroke="#9acd32" points="469.2,-965.99 460.74,-959.61 463.37,-969.87 469.2,-965.99"/>
</g>
<!-- node_0x5040000011d0 -->
<g id="node34" class="node">
<title>node_0x5040000011d0</title>
<path fill="#fca103" stroke="#ffe9c7" d="M545.5,-913.5C545.5,-913.5 602.5,-913.5 602.5,-913.5 608.5,-913.5 614.5,-919.5 614.5,-925.5 614.5,-925.5 614.5,-947.5 614.5,-947.5 614.5,-953.5 608.5,-959.5 602.5,-959.5 602.5,-959.5 545.5,-959.5 545.5,-959.5 539.5,-959.5 533.5,-953.5 533.5,-947.5 533.5,-947.5 533.5,-925.5 533.5,-925.5 533.5,-919.5 539.5,-913.5 545.5,-913.5"/>
<text text-anchor="middle" x="574" y="-944.3" font-family="Times,serif" font-size="14.00">Func Def</text>
<polyline fill="none" stroke="#ffe9c7" points="533.5,-936.5 614.5,-936.5 "/>
<text text-anchor="middle" x="574" y="-921.3" font-family="Times,serif" font-size="14.00">4</text>
</g>
<!-- node_0x504000001150&#45;&gt;node_0x5040000011d0 -->
<g id="edge33" class="edge">
<title>node_0x504000001150&#45;&gt;node_0x5040000011d0</title>
<path fill="none" stroke="#ff2b00" d="M520.22,-996.37C528.46,-987.35 538.11,-976.79 546.94,-967.12"/>
<polygon fill="#ff2b00" stroke="#ff2b00" points="549.64,-969.35 553.8,-959.61 544.47,-964.63 549.64,-969.35"/>
</g>
<!-- node_0x504000000950 -->
<g id="node3" class="node">
<title>node_0x504000000950</title>
<path fill="#9966ff" stroke="#ffe9c7" d="M310,-830.5C310,-830.5 366,-830.5 366,-830.5 372,-830.5 378,-836.5 378,-842.5 378,-842.5 378,-864.5 378,-864.5 378,-870.5 372,-876.5 366,-876.5 366,-876.5 310,-876.5 310,-876.5 304,-876.5 298,-870.5 298,-864.5 298,-864.5 298,-842.5 298,-842.5 298,-836.5 304,-830.5 310,-830.5"/>
<text text-anchor="middle" x="338" y="-861.3" font-family="Times,serif" font-size="14.00">KeyWord</text>
<polyline fill="none" stroke="#ffe9c7" points="298,-853.5 378,-853.5 "/>
<text text-anchor="middle" x="338" y="-838.3" font-family="Times,serif" font-size="14.00">int</text>
</g>
<!-- node_0x504000000990&#45;&gt;node_0x504000000950 -->
<g id="edge2" class="edge">
<title>node_0x504000000990&#45;&gt;node_0x504000000950</title>
<path fill="none" stroke="#9acd32" d="M416.49,-913.37C403.87,-903.9 388.99,-892.74 375.59,-882.69"/>
<polygon fill="#9acd32" stroke="#9acd32" points="377.58,-879.81 367.48,-876.61 373.38,-885.41 377.58,-879.81"/>
</g>
<!-- node_0x5040000009d0 -->
<g id="node4" class="node">
<title>node_0x5040000009d0</title>
<path fill="#fc0303" stroke="#ffe9c7" d="M408.5,-830.5C408.5,-830.5 483.5,-830.5 483.5,-830.5 489.5,-830.5 495.5,-836.5 495.5,-842.5 495.5,-842.5 495.5,-864.5 495.5,-864.5 495.5,-870.5 489.5,-876.5 483.5,-876.5 483.5,-876.5 408.5,-876.5 408.5,-876.5 402.5,-876.5 396.5,-870.5 396.5,-864.5 396.5,-864.5 396.5,-842.5 396.5,-842.5 396.5,-836.5 402.5,-830.5 408.5,-830.5"/>
<text text-anchor="middle" x="446" y="-861.3" font-family="Times,serif" font-size="14.00">Parameters</text>
<polyline fill="none" stroke="#ffe9c7" points="396.5,-853.5 495.5,-853.5 "/>
<text text-anchor="middle" x="446" y="-838.3" font-family="Times,serif" font-size="14.00">∅</text>
</g>
<!-- node_0x504000000990&#45;&gt;node_0x5040000009d0 -->
<g id="edge3" class="edge">
<title>node_0x504000000990&#45;&gt;node_0x5040000009d0</title>
<path fill="none" stroke="#ff2b00" d="M446,-913.37C446,-905.15 446,-895.66 446,-886.73"/>
<polygon fill="#ff2b00" stroke="#ff2b00" points="449.5,-886.61 446,-876.61 442.5,-886.61 449.5,-886.61"/>
</g>
<!-- node_0x504000000a10 -->
<g id="node5" class="node">
<title>node_0x504000000a10</title>
<path fill="#9966ff" stroke="#ffe9c7" d="M413,-747.5C413,-747.5 469,-747.5 469,-747.5 475,-747.5 481,-753.5 481,-759.5 481,-759.5 481,-781.5 481,-781.5 481,-787.5 475,-793.5 469,-793.5 469,-793.5 413,-793.5 413,-793.5 407,-793.5 401,-787.5 401,-781.5 401,-781.5 401,-759.5 401,-759.5 401,-753.5 407,-747.5 413,-747.5"/>
<text text-anchor="middle" x="441" y="-778.3" font-family="Times,serif" font-size="14.00">KeyWord</text>
<polyline fill="none" stroke="#ffe9c7" points="401,-770.5 481,-770.5 "/>
<text text-anchor="middle" x="441" y="-755.3" font-family="Times,serif" font-size="14.00">;</text>
</g>
<!-- node_0x5040000009d0&#45;&gt;node_0x504000000a10 -->
<g id="edge4" class="edge">
<title>node_0x5040000009d0&#45;&gt;node_0x504000000a10</title>
<path fill="none" stroke="#ff2b00" d="M444.63,-830.37C444.13,-822.15 443.54,-812.66 442.99,-803.73"/>
<polygon fill="#ff2b00" stroke="#ff2b00" points="446.47,-803.37 442.36,-793.61 439.49,-803.8 446.47,-803.37"/>
</g>
<!-- node_0x504000000fd0 -->
<g id="node6" class="node">
<title>node_0x504000000fd0</title>
<path fill="#9966ff" stroke="#ffe9c7" d="M412,-664.5C412,-664.5 468,-664.5 468,-664.5 474,-664.5 480,-670.5 480,-676.5 480,-676.5 480,-698.5 480,-698.5 480,-704.5 474,-710.5 468,-710.5 468,-710.5 412,-710.5 412,-710.5 406,-710.5 400,-704.5 400,-698.5 400,-698.5 400,-676.5 400,-676.5 400,-670.5 406,-664.5 412,-664.5"/>
<text text-anchor="middle" x="440" y="-695.3" font-family="Times,serif" font-size="14.00">KeyWord</text>
<polyline fill="none" stroke="#ffe9c7" points="400,-687.5 480,-687.5 "/>
<text text-anchor="middle" x="440" y="-672.3" font-family="Times,serif" font-size="14.00">;</text>
</g>
<!-- node_0x504000000a10&#45;&gt;node_0x504000000fd0 -->
<g id="edge5" class="edge">
<title>node_0x504000000a10&#45;&gt;node_0x504000000fd0</title>
<path fill="none" stroke="#9acd32" d="M440.73,-747.37C440.63,-739.15 440.51,-729.66 440.4,-720.73"/>
<polygon fill="#9acd32" stroke="#9acd32" points="443.9,-720.56 440.27,-710.61 436.9,-720.65 443.9,-720.56"/>
</g>
<!-- node_0x504000000e50 -->
<g id="node7" class="node">
<title>node_0x504000000e50</title>
<path fill="#9966ff" stroke="#ffe9c7" d="M309,-581.5C309,-581.5 365,-581.5 365,-581.5 371,-581.5 377,-587.5 377,-593.5 377,-593.5 377,-615.5 377,-615.5 377,-621.5 371,-627.5 365,-627.5 365,-627.5 309,-627.5 309,-627.5 303,-627.5 297,-621.5 297,-615.5 297,-615.5 297,-593.5 297,-593.5 297,-587.5 303,-581.5 309,-581.5"/>
<text text-anchor="middle" x="337" y="-612.3" font-family="Times,serif" font-size="14.00">KeyWord</text>
<polyline fill="none" stroke="#ffe9c7" points="297,-604.5 377,-604.5 "/>
<text text-anchor="middle" x="337" y="-589.3" font-family="Times,serif" font-size="14.00">;</text>
</g>
<!-- node_0x504000000fd0&#45;&gt;node_0x504000000e50 -->
<g id="edge6" class="edge">
<title>node_0x504000000fd0&#45;&gt;node_0x504000000e50</title>
<path fill="none" stroke="#9acd32" d="M411.85,-664.37C399.93,-654.99 385.89,-643.95 373.21,-633.98"/>
<polygon fill="#9acd32" stroke="#9acd32" points="375.14,-631.04 365.11,-627.61 370.81,-636.54 375.14,-631.04"/>
</g>
<!-- node_0x504000001090 -->
<g id="node29" class="node">
<title>node_0x504000001090</title>
<path fill="#08c41e" stroke="#ffe9c7" d="M413.5,-581.5C413.5,-581.5 466.5,-581.5 466.5,-581.5 472.5,-581.5 478.5,-587.5 478.5,-593.5 478.5,-593.5 478.5,-615.5 478.5,-615.5 478.5,-621.5 472.5,-627.5 466.5,-627.5 466.5,-627.5 413.5,-627.5 413.5,-627.5 407.5,-627.5 401.5,-621.5 401.5,-615.5 401.5,-615.5 401.5,-593.5 401.5,-593.5 401.5,-587.5 407.5,-581.5 413.5,-581.5"/>
<text text-anchor="middle" x="440" y="-612.3" font-family="Times,serif" font-size="14.00">Var Decl</text>
<polyline fill="none" stroke="#ffe9c7" points="401.5,-604.5 478.5,-604.5 "/>
<text text-anchor="middle" x="440" y="-589.3" font-family="Times,serif" font-size="14.00">two</text>
</g>
<!-- node_0x504000000fd0&#45;&gt;node_0x504000001090 -->
<g id="edge28" class="edge">
<title>node_0x504000000fd0&#45;&gt;node_0x504000001090</title>
<path fill="none" stroke="#ff2b00" d="M440,-664.37C440,-656.15 440,-646.66 440,-637.73"/>
<polygon fill="#ff2b00" stroke="#ff2b00" points="443.5,-637.61 440,-627.61 436.5,-637.61 443.5,-637.61"/>
</g>
<!-- node_0x504000000cd0 -->
<g id="node8" class="node">
<title>node_0x504000000cd0</title>
<path fill="#9966ff" stroke="#ffe9c7" d="M209,-498.5C209,-498.5 265,-498.5 265,-498.5 271,-498.5 277,-504.5 277,-510.5 277,-510.5 277,-532.5 277,-532.5 277,-538.5 271,-544.5 265,-544.5 265,-544.5 209,-544.5 209,-544.5 203,-544.5 197,-538.5 197,-532.5 197,-532.5 197,-510.5 197,-510.5 197,-504.5 203,-498.5 209,-498.5"/>
<text text-anchor="middle" x="237" y="-529.3" font-family="Times,serif" font-size="14.00">KeyWord</text>
<polyline fill="none" stroke="#ffe9c7" points="197,-521.5 277,-521.5 "/>
<text text-anchor="middle" x="237" y="-506.3" font-family="Times,serif" font-size="14.00">;</text>
</g>
<!-- node_0x504000000e50&#45;&gt;node_0x504000000cd0 -->
<g id="edge7" class="edge">
<title>node_0x504000000e50&#45;&gt;node_0x504000000cd0</title>
<path fill="none" stroke="#9acd32" d="M309.67,-581.37C298.1,-571.99 284.47,-560.95 272.16,-550.98"/>
<polygon fill="#9acd32" stroke="#9acd32" points="274.27,-548.18 264.29,-544.61 269.86,-553.62 274.27,-548.18"/>
</g>
<!-- node_0x504000000f10 -->
<g id="node24" class="node">
<title>node_0x504000000f10</title>
<path fill="#08c41e" stroke="#ffe9c7" d="M310.5,-498.5C310.5,-498.5 363.5,-498.5 363.5,-498.5 369.5,-498.5 375.5,-504.5 375.5,-510.5 375.5,-510.5 375.5,-532.5 375.5,-532.5 375.5,-538.5 369.5,-544.5 363.5,-544.5 363.5,-544.5 310.5,-544.5 310.5,-544.5 304.5,-544.5 298.5,-538.5 298.5,-532.5 298.5,-532.5 298.5,-510.5 298.5,-510.5 298.5,-504.5 304.5,-498.5 310.5,-498.5"/>
<text text-anchor="middle" x="337" y="-529.3" font-family="Times,serif" font-size="14.00">Var Decl</text>
<polyline fill="none" stroke="#ffe9c7" points="298.5,-521.5 375.5,-521.5 "/>
<text text-anchor="middle" x="337" y="-506.3" font-family="Times,serif" font-size="14.00">two</text>
</g>
<!-- node_0x504000000e50&#45;&gt;node_0x504000000f10 -->
<g id="edge23" class="edge">
<title>node_0x504000000e50&#45;&gt;node_0x504000000f10</title>
<path fill="none" stroke="#ff2b00" d="M337,-581.37C337,-573.15 337,-563.66 337,-554.73"/>
<polygon fill="#ff2b00" stroke="#ff2b00" points="340.5,-554.61 337,-544.61 333.5,-554.61 340.5,-554.61"/>
</g>
<!-- node_0x504000000ad0 -->
<g id="node9" class="node">
<title>node_0x504000000ad0</title>
<path fill="#08c41e" stroke="#ffe9c7" d="M111.5,-415.5C111.5,-415.5 164.5,-415.5 164.5,-415.5 170.5,-415.5 176.5,-421.5 176.5,-427.5 176.5,-427.5 176.5,-449.5 176.5,-449.5 176.5,-455.5 170.5,-461.5 164.5,-461.5 164.5,-461.5 111.5,-461.5 111.5,-461.5 105.5,-461.5 99.5,-455.5 99.5,-449.5 99.5,-449.5 99.5,-427.5 99.5,-427.5 99.5,-421.5 105.5,-415.5 111.5,-415.5"/>
<text text-anchor="middle" x="138" y="-446.3" font-family="Times,serif" font-size="14.00">Var Decl</text>
<polyline fill="none" stroke="#ffe9c7" points="99.5,-438.5 176.5,-438.5 "/>
<text text-anchor="middle" x="138" y="-423.3" font-family="Times,serif" font-size="14.00">one</text>
</g>
<!-- node_0x504000000cd0&#45;&gt;node_0x504000000ad0 -->
<g id="edge8" class="edge">
<title>node_0x504000000cd0&#45;&gt;node_0x504000000ad0</title>
<path fill="none" stroke="#9acd32" d="M209.95,-498.37C198.49,-488.99 184.99,-477.95 172.81,-467.98"/>
<polygon fill="#9acd32" stroke="#9acd32" points="174.98,-465.23 165.02,-461.61 170.54,-470.65 174.98,-465.23"/>
</g>
<!-- node_0x504000000d90 -->
<g id="node19" class="node">
<title>node_0x504000000d90</title>
<path fill="#08c41e" stroke="#ffe9c7" d="M210.5,-415.5C210.5,-415.5 263.5,-415.5 263.5,-415.5 269.5,-415.5 275.5,-421.5 275.5,-427.5 275.5,-427.5 275.5,-449.5 275.5,-449.5 275.5,-455.5 269.5,-461.5 263.5,-461.5 263.5,-461.5 210.5,-461.5 210.5,-461.5 204.5,-461.5 198.5,-455.5 198.5,-449.5 198.5,-449.5 198.5,-427.5 198.5,-427.5 198.5,-421.5 204.5,-415.5 210.5,-415.5"/>
<text text-anchor="middle" x="237" y="-446.3" font-family="Times,serif" font-size="14.00">Var Decl</text>
<polyline fill="none" stroke="#ffe9c7" points="198.5,-438.5 275.5,-438.5 "/>
<text text-anchor="middle" x="237" y="-423.3" font-family="Times,serif" font-size="14.00">one</text>
</g>
<!-- node_0x504000000cd0&#45;&gt;node_0x504000000d90 -->
<g id="edge18" class="edge">
<title>node_0x504000000cd0&#45;&gt;node_0x504000000d90</title>
<path fill="none" stroke="#ff2b00" d="M237,-498.37C237,-490.15 237,-480.66 237,-471.73"/>
<polygon fill="#ff2b00" stroke="#ff2b00" points="240.5,-471.61 237,-461.61 233.5,-471.61 240.5,-471.61"/>
</g>
<!-- node_0x504000000a50 -->
<g id="node10" class="node">
<title>node_0x504000000a50</title>
<path fill="#9966ff" stroke="#ffe9c7" d="M12,-332.5C12,-332.5 68,-332.5 68,-332.5 74,-332.5 80,-338.5 80,-344.5 80,-344.5 80,-366.5 80,-366.5 80,-372.5 74,-378.5 68,-378.5 68,-378.5 12,-378.5 12,-378.5 6,-378.5 0,-372.5 0,-366.5 0,-366.5 0,-344.5 0,-344.5 0,-338.5 6,-332.5 12,-332.5"/>
<text text-anchor="middle" x="40" y="-363.3" font-family="Times,serif" font-size="14.00">KeyWord</text>
<polyline fill="none" stroke="#ffe9c7" points="0,-355.5 80,-355.5 "/>
<text text-anchor="middle" x="40" y="-340.3" font-family="Times,serif" font-size="14.00">int</text>
</g>
<!-- node_0x504000000ad0&#45;&gt;node_0x504000000a50 -->
<g id="edge9" class="edge">
<title>node_0x504000000ad0&#45;&gt;node_0x504000000a50</title>
<path fill="none" stroke="#9acd32" d="M111.22,-415.37C99.99,-406.08 86.77,-395.16 74.8,-385.26"/>
<polygon fill="#9acd32" stroke="#9acd32" points="76.68,-382.28 66.75,-378.61 72.22,-387.68 76.68,-382.28"/>
</g>
<!-- node_0x504000000b10 -->
<g id="node11" class="node">
<title>node_0x504000000b10</title>
<path fill="#9966ff" stroke="#ffe9c7" d="M110,-332.5C110,-332.5 166,-332.5 166,-332.5 172,-332.5 178,-338.5 178,-344.5 178,-344.5 178,-366.5 178,-366.5 178,-372.5 172,-378.5 166,-378.5 166,-378.5 110,-378.5 110,-378.5 104,-378.5 98,-372.5 98,-366.5 98,-366.5 98,-344.5 98,-344.5 98,-338.5 104,-332.5 110,-332.5"/>
<text text-anchor="middle" x="138" y="-363.3" font-family="Times,serif" font-size="14.00">KeyWord</text>
<polyline fill="none" stroke="#ffe9c7" points="98,-355.5 178,-355.5 "/>
<text text-anchor="middle" x="138" y="-340.3" font-family="Times,serif" font-size="14.00">=</text>
</g>
<!-- node_0x504000000ad0&#45;&gt;node_0x504000000b10 -->
<g id="edge10" class="edge">
<title>node_0x504000000ad0&#45;&gt;node_0x504000000b10</title>
<path fill="none" stroke="#ff2b00" d="M138,-415.37C138,-407.15 138,-397.66 138,-388.73"/>
<polygon fill="#ff2b00" stroke="#ff2b00" points="141.5,-388.61 138,-378.61 134.5,-388.61 141.5,-388.61"/>
</g>
<!-- node_0x504000000a90 -->
<g id="node12" class="node">
<title>node_0x504000000a90</title>
<path fill="#ff6699" stroke="#ffe9c7" d="M25.5,-249.5C25.5,-249.5 84.5,-249.5 84.5,-249.5 90.5,-249.5 96.5,-255.5 96.5,-261.5 96.5,-261.5 96.5,-283.5 96.5,-283.5 96.5,-289.5 90.5,-295.5 84.5,-295.5 84.5,-295.5 25.5,-295.5 25.5,-295.5 19.5,-295.5 13.5,-289.5 13.5,-283.5 13.5,-283.5 13.5,-261.5 13.5,-261.5 13.5,-255.5 19.5,-249.5 25.5,-249.5"/>
<text text-anchor="middle" x="55" y="-280.3" font-family="Times,serif" font-size="14.00">Identifier</text>
<polyline fill="none" stroke="#ffe9c7" points="13.5,-272.5 96.5,-272.5 "/>
<text text-anchor="middle" x="55" y="-257.3" font-family="Times,serif" font-size="14.00">1</text>
</g>
<!-- node_0x504000000b10&#45;&gt;node_0x504000000a90 -->
<g id="edge11" class="edge">
<title>node_0x504000000b10&#45;&gt;node_0x504000000a90</title>
<path fill="none" stroke="#9acd32" d="M115.32,-332.37C105.99,-323.26 95.04,-312.58 85.06,-302.83"/>
<polygon fill="#9acd32" stroke="#9acd32" points="87.25,-300.09 77.65,-295.61 82.36,-305.1 87.25,-300.09"/>
</g>
<!-- node_0x504000000b90 -->
<g id="node13" class="node">
<title>node_0x504000000b90</title>
<path fill="#916306" stroke="#ffe9c7" d="M127,-249.5C127,-249.5 157,-249.5 157,-249.5 163,-249.5 169,-255.5 169,-261.5 169,-261.5 169,-283.5 169,-283.5 169,-289.5 163,-295.5 157,-295.5 157,-295.5 127,-295.5 127,-295.5 121,-295.5 115,-289.5 115,-283.5 115,-283.5 115,-261.5 115,-261.5 115,-255.5 121,-249.5 127,-249.5"/>
<text text-anchor="middle" x="142" y="-280.3" font-family="Times,serif" font-size="14.00">Call</text>
<polyline fill="none" stroke="#ffe9c7" points="115,-272.5 169,-272.5 "/>
<text text-anchor="middle" x="142" y="-257.3" font-family="Times,serif" font-size="14.00">∅</text>
</g>
<!-- node_0x504000000b10&#45;&gt;node_0x504000000b90 -->
<g id="edge12" class="edge">
<title>node_0x504000000b10&#45;&gt;node_0x504000000b90</title>
<path fill="none" stroke="#ff2b00" d="M139.09,-332.37C139.5,-324.15 139.97,-314.66 140.41,-305.73"/>
<polygon fill="#ff2b00" stroke="#ff2b00" points="143.91,-305.77 140.91,-295.61 136.92,-305.42 143.91,-305.77"/>
</g>
<!-- node_0x504000000bd0 -->
<g id="node14" class="node">
<title>node_0x504000000bd0</title>
<path fill="#9966ff" stroke="#ffe9c7" d="M64,-166.5C64,-166.5 120,-166.5 120,-166.5 126,-166.5 132,-172.5 132,-178.5 132,-178.5 132,-200.5 132,-200.5 132,-206.5 126,-212.5 120,-212.5 120,-212.5 64,-212.5 64,-212.5 58,-212.5 52,-206.5 52,-200.5 52,-200.5 52,-178.5 52,-178.5 52,-172.5 58,-166.5 64,-166.5"/>
<text text-anchor="middle" x="92" y="-197.3" font-family="Times,serif" font-size="14.00">KeyWord</text>
<polyline fill="none" stroke="#ffe9c7" points="52,-189.5 132,-189.5 "/>
<text text-anchor="middle" x="92" y="-174.3" font-family="Times,serif" font-size="14.00">sin</text>
</g>
<!-- node_0x504000000b90&#45;&gt;node_0x504000000bd0 -->
<g id="edge13" class="edge">
<title>node_0x504000000b90&#45;&gt;node_0x504000000bd0</title>
<path fill="none" stroke="#9acd32" d="M128.34,-249.37C122.99,-240.71 116.77,-230.62 111,-221.27"/>
<polygon fill="#9acd32" stroke="#9acd32" points="113.88,-219.28 105.65,-212.61 107.92,-222.95 113.88,-219.28"/>
</g>
<!-- node_0x504000000b50 -->
<g id="node18" class="node">
<title>node_0x504000000b50</title>
<path fill="#ff6699" stroke="#ffe9c7" d="M162.5,-166.5C162.5,-166.5 221.5,-166.5 221.5,-166.5 227.5,-166.5 233.5,-172.5 233.5,-178.5 233.5,-178.5 233.5,-200.5 233.5,-200.5 233.5,-206.5 227.5,-212.5 221.5,-212.5 221.5,-212.5 162.5,-212.5 162.5,-212.5 156.5,-212.5 150.5,-206.5 150.5,-200.5 150.5,-200.5 150.5,-178.5 150.5,-178.5 150.5,-172.5 156.5,-166.5 162.5,-166.5"/>
<text text-anchor="middle" x="192" y="-197.3" font-family="Times,serif" font-size="14.00">Identifier</text>
<polyline fill="none" stroke="#ffe9c7" points="150.5,-189.5 233.5,-189.5 "/>
<text text-anchor="middle" x="192" y="-174.3" font-family="Times,serif" font-size="14.00">2</text>
</g>
<!-- node_0x504000000b90&#45;&gt;node_0x504000000b50 -->
<g id="edge17" class="edge">
<title>node_0x504000000b90&#45;&gt;node_0x504000000b50</title>
<path fill="none" stroke="#ff2b00" d="M155.66,-249.37C161.01,-240.71 167.23,-230.62 173,-221.27"/>
<polygon fill="#ff2b00" stroke="#ff2b00" points="176.08,-222.95 178.35,-212.61 170.12,-219.28 176.08,-222.95"/>
</g>
<!-- node_0x504000000c50 -->
<g id="node15" class="node">
<title>node_0x504000000c50</title>
<path fill="#9966ff" stroke="#ffe9c7" d="M64,-83.5C64,-83.5 120,-83.5 120,-83.5 126,-83.5 132,-89.5 132,-95.5 132,-95.5 132,-117.5 132,-117.5 132,-123.5 126,-129.5 120,-129.5 120,-129.5 64,-129.5 64,-129.5 58,-129.5 52,-123.5 52,-117.5 52,-117.5 52,-95.5 52,-95.5 52,-89.5 58,-83.5 64,-83.5"/>
<text text-anchor="middle" x="92" y="-114.3" font-family="Times,serif" font-size="14.00">KeyWord</text>
<polyline fill="none" stroke="#ffe9c7" points="52,-106.5 132,-106.5 "/>
<text text-anchor="middle" x="92" y="-91.3" font-family="Times,serif" font-size="14.00">+</text>
</g>
<!-- node_0x504000000bd0&#45;&gt;node_0x504000000c50 -->
<g id="edge14" class="edge">
<title>node_0x504000000bd0&#45;&gt;node_0x504000000c50</title>
<path fill="none" stroke="#ff2b00" d="M92,-166.37C92,-158.15 92,-148.66 92,-139.73"/>
<polygon fill="#ff2b00" stroke="#ff2b00" points="95.5,-139.61 92,-129.61 88.5,-139.61 95.5,-139.61"/>
</g>
<!-- node_0x504000000c10 -->
<g id="node16" class="node">
<title>node_0x504000000c10</title>
<path fill="#03cffc" stroke="#ffe9c7" d="M14.5,-0.5C14.5,-0.5 71.5,-0.5 71.5,-0.5 77.5,-0.5 83.5,-6.5 83.5,-12.5 83.5,-12.5 83.5,-34.5 83.5,-34.5 83.5,-40.5 77.5,-46.5 71.5,-46.5 71.5,-46.5 14.5,-46.5 14.5,-46.5 8.5,-46.5 2.5,-40.5 2.5,-34.5 2.5,-34.5 2.5,-12.5 2.5,-12.5 2.5,-6.5 8.5,-0.5 14.5,-0.5"/>
<text text-anchor="middle" x="43" y="-31.3" font-family="Times,serif" font-size="14.00">Constant</text>
<polyline fill="none" stroke="#ffe9c7" points="2.5,-23.5 83.5,-23.5 "/>
<text text-anchor="middle" x="43" y="-8.3" font-family="Times,serif" font-size="14.00">15</text>
</g>
<!-- node_0x504000000c50&#45;&gt;node_0x504000000c10 -->
<g id="edge15" class="edge">
<title>node_0x504000000c50&#45;&gt;node_0x504000000c10</title>
<path fill="none" stroke="#9acd32" d="M78.61,-83.37C73.37,-74.71 67.27,-64.62 61.62,-55.27"/>
<polygon fill="#9acd32" stroke="#9acd32" points="64.54,-53.35 56.37,-46.61 58.55,-56.97 64.54,-53.35"/>
</g>
<!-- node_0x504000000c90 -->
<g id="node17" class="node">
<title>node_0x504000000c90</title>
<path fill="#03cffc" stroke="#ffe9c7" d="M113.5,-0.5C113.5,-0.5 170.5,-0.5 170.5,-0.5 176.5,-0.5 182.5,-6.5 182.5,-12.5 182.5,-12.5 182.5,-34.5 182.5,-34.5 182.5,-40.5 176.5,-46.5 170.5,-46.5 170.5,-46.5 113.5,-46.5 113.5,-46.5 107.5,-46.5 101.5,-40.5 101.5,-34.5 101.5,-34.5 101.5,-12.5 101.5,-12.5 101.5,-6.5 107.5,-0.5 113.5,-0.5"/>
<text text-anchor="middle" x="142" y="-31.3" font-family="Times,serif" font-size="14.00">Constant</text>
<polyline fill="none" stroke="#ffe9c7" points="101.5,-23.5 182.5,-23.5 "/>
<text text-anchor="middle" x="142" y="-8.3" font-family="Times,serif" font-size="14.00">1</text>
</g>
<!-- node_0x504000000c50&#45;&gt;node_0x504000000c90 -->
<g id="edge16" class="edge">
<title>node_0x504000000c50&#45;&gt;node_0x504000000c90</title>
<path fill="none" stroke="#ff2b00" d="M105.66,-83.37C111.01,-74.71 117.23,-64.62 123,-55.27"/>
<polygon fill="#ff2b00" stroke="#ff2b00" points="126.08,-56.95 128.35,-46.61 120.12,-53.28 126.08,-56.95"/>
</g>
<!-- node_0x504000000d10 -->
<g id="node20" class="node">
<title>node_0x504000000d10</title>
<path fill="#9966ff" stroke="#ffe9c7" d="M208,-332.5C208,-332.5 264,-332.5 264,-332.5 270,-332.5 276,-338.5 276,-344.5 276,-344.5 276,-366.5 276,-366.5 276,-372.5 270,-378.5 264,-378.5 264,-378.5 208,-378.5 208,-378.5 202,-378.5 196,-372.5 196,-366.5 196,-366.5 196,-344.5 196,-344.5 196,-338.5 202,-332.5 208,-332.5"/>
<text text-anchor="middle" x="236" y="-363.3" font-family="Times,serif" font-size="14.00">KeyWord</text>
<polyline fill="none" stroke="#ffe9c7" points="196,-355.5 276,-355.5 "/>
<text text-anchor="middle" x="236" y="-340.3" font-family="Times,serif" font-size="14.00">int</text>
</g>
<!-- node_0x504000000d90&#45;&gt;node_0x504000000d10 -->
<g id="edge19" class="edge">
<title>node_0x504000000d90&#45;&gt;node_0x504000000d10</title>
<path fill="none" stroke="#9acd32" d="M236.73,-415.37C236.63,-407.15 236.51,-397.66 236.4,-388.73"/>
<polygon fill="#9acd32" stroke="#9acd32" points="239.9,-388.56 236.27,-378.61 232.9,-388.65 239.9,-388.56"/>
</g>
<!-- node_0x504000000dd0 -->
<g id="node21" class="node">
<title>node_0x504000000dd0</title>
<path fill="#9966ff" stroke="#ffe9c7" d="M306,-332.5C306,-332.5 362,-332.5 362,-332.5 368,-332.5 374,-338.5 374,-344.5 374,-344.5 374,-366.5 374,-366.5 374,-372.5 368,-378.5 362,-378.5 362,-378.5 306,-378.5 306,-378.5 300,-378.5 294,-372.5 294,-366.5 294,-366.5 294,-344.5 294,-344.5 294,-338.5 300,-332.5 306,-332.5"/>
<text text-anchor="middle" x="334" y="-363.3" font-family="Times,serif" font-size="14.00">KeyWord</text>
<polyline fill="none" stroke="#ffe9c7" points="294,-355.5 374,-355.5 "/>
<text text-anchor="middle" x="334" y="-340.3" font-family="Times,serif" font-size="14.00">=</text>
</g>
<!-- node_0x504000000d90&#45;&gt;node_0x504000000dd0 -->
<g id="edge20" class="edge">
<title>node_0x504000000d90&#45;&gt;node_0x504000000dd0</title>
<path fill="none" stroke="#ff2b00" d="M263.51,-415.37C274.63,-406.08 287.7,-395.16 299.56,-385.26"/>
<polygon fill="#ff2b00" stroke="#ff2b00" points="302.09,-387.7 307.53,-378.61 297.61,-382.33 302.09,-387.7"/>
</g>
<!-- node_0x504000000d50 -->
<g id="node22" class="node">
<title>node_0x504000000d50</title>
<path fill="#ff6699" stroke="#ffe9c7" d="M254.5,-249.5C254.5,-249.5 313.5,-249.5 313.5,-249.5 319.5,-249.5 325.5,-255.5 325.5,-261.5 325.5,-261.5 325.5,-283.5 325.5,-283.5 325.5,-289.5 319.5,-295.5 313.5,-295.5 313.5,-295.5 254.5,-295.5 254.5,-295.5 248.5,-295.5 242.5,-289.5 242.5,-283.5 242.5,-283.5 242.5,-261.5 242.5,-261.5 242.5,-255.5 248.5,-249.5 254.5,-249.5"/>
<text text-anchor="middle" x="284" y="-280.3" font-family="Times,serif" font-size="14.00">Identifier</text>
<polyline fill="none" stroke="#ffe9c7" points="242.5,-272.5 325.5,-272.5 "/>
<text text-anchor="middle" x="284" y="-257.3" font-family="Times,serif" font-size="14.00">1</text>
</g>
<!-- node_0x504000000dd0&#45;&gt;node_0x504000000d50 -->
<g id="edge21" class="edge">
<title>node_0x504000000dd0&#45;&gt;node_0x504000000d50</title>
<path fill="none" stroke="#9acd32" d="M320.34,-332.37C314.99,-323.71 308.77,-313.62 303,-304.27"/>
<polygon fill="#9acd32" stroke="#9acd32" points="305.88,-302.28 297.65,-295.61 299.92,-305.95 305.88,-302.28"/>
</g>
<!-- node_0x504000000e10 -->
<g id="node23" class="node">
<title>node_0x504000000e10</title>
<path fill="#03cffc" stroke="#ffe9c7" d="M355.5,-249.5C355.5,-249.5 412.5,-249.5 412.5,-249.5 418.5,-249.5 424.5,-255.5 424.5,-261.5 424.5,-261.5 424.5,-283.5 424.5,-283.5 424.5,-289.5 418.5,-295.5 412.5,-295.5 412.5,-295.5 355.5,-295.5 355.5,-295.5 349.5,-295.5 343.5,-289.5 343.5,-283.5 343.5,-283.5 343.5,-261.5 343.5,-261.5 343.5,-255.5 349.5,-249.5 355.5,-249.5"/>
<text text-anchor="middle" x="384" y="-280.3" font-family="Times,serif" font-size="14.00">Constant</text>
<polyline fill="none" stroke="#ffe9c7" points="343.5,-272.5 424.5,-272.5 "/>
<text text-anchor="middle" x="384" y="-257.3" font-family="Times,serif" font-size="14.00">15</text>
</g>
<!-- node_0x504000000dd0&#45;&gt;node_0x504000000e10 -->
<g id="edge22" class="edge">
<title>node_0x504000000dd0&#45;&gt;node_0x504000000e10</title>
<path fill="none" stroke="#ff2b00" d="M347.66,-332.37C353.01,-323.71 359.23,-313.62 365,-304.27"/>
<polygon fill="#ff2b00" stroke="#ff2b00" points="368.08,-305.95 370.35,-295.61 362.12,-302.28 368.08,-305.95"/>
</g>
<!-- node_0x504000000e90 -->
<g id="node25" class="node">
<title>node_0x504000000e90</title>
<path fill="#9966ff" stroke="#ffe9c7" d="M308,-415.5C308,-415.5 364,-415.5 364,-415.5 370,-415.5 376,-421.5 376,-427.5 376,-427.5 376,-449.5 376,-449.5 376,-455.5 370,-461.5 364,-461.5 364,-461.5 308,-461.5 308,-461.5 302,-461.5 296,-455.5 296,-449.5 296,-449.5 296,-427.5 296,-427.5 296,-421.5 302,-415.5 308,-415.5"/>
<text text-anchor="middle" x="336" y="-446.3" font-family="Times,serif" font-size="14.00">KeyWord</text>
<polyline fill="none" stroke="#ffe9c7" points="296,-438.5 376,-438.5 "/>
<text text-anchor="middle" x="336" y="-423.3" font-family="Times,serif" font-size="14.00">int</text>
</g>
<!-- node_0x504000000f10&#45;&gt;node_0x504000000e90 -->
<g id="edge24" class="edge">
<title>node_0x504000000f10&#45;&gt;node_0x504000000e90</title>
<path fill="none" stroke="#9acd32" d="M336.73,-498.37C336.63,-490.15 336.51,-480.66 336.4,-471.73"/>
<polygon fill="#9acd32" stroke="#9acd32" points="339.9,-471.56 336.27,-461.61 332.9,-471.65 339.9,-471.56"/>
</g>
<!-- node_0x504000000f50 -->
<g id="node26" class="node">
<title>node_0x504000000f50</title>
<path fill="#9966ff" stroke="#ffe9c7" d="M406,-415.5C406,-415.5 462,-415.5 462,-415.5 468,-415.5 474,-421.5 474,-427.5 474,-427.5 474,-449.5 474,-449.5 474,-455.5 468,-461.5 462,-461.5 462,-461.5 406,-461.5 406,-461.5 400,-461.5 394,-455.5 394,-449.5 394,-449.5 394,-427.5 394,-427.5 394,-421.5 400,-415.5 406,-415.5"/>
<text text-anchor="middle" x="434" y="-446.3" font-family="Times,serif" font-size="14.00">KeyWord</text>
<polyline fill="none" stroke="#ffe9c7" points="394,-438.5 474,-438.5 "/>
<text text-anchor="middle" x="434" y="-423.3" font-family="Times,serif" font-size="14.00">=</text>
</g>
<!-- node_0x504000000f10&#45;&gt;node_0x504000000f50 -->
<g id="edge25" class="edge">
<title>node_0x504000000f10&#45;&gt;node_0x504000000f50</title>
<path fill="none" stroke="#ff2b00" d="M363.51,-498.37C374.63,-489.08 387.7,-478.16 399.56,-468.26"/>
<polygon fill="#ff2b00" stroke="#ff2b00" points="402.09,-470.7 407.53,-461.61 397.61,-465.33 402.09,-470.7"/>
</g>
<!-- node_0x504000000ed0 -->
<g id="node27" class="node">
<title>node_0x504000000ed0</title>
<path fill="#ff6699" stroke="#ffe9c7" d="M404.5,-332.5C404.5,-332.5 463.5,-332.5 463.5,-332.5 469.5,-332.5 475.5,-338.5 475.5,-344.5 475.5,-344.5 475.5,-366.5 475.5,-366.5 475.5,-372.5 469.5,-378.5 463.5,-378.5 463.5,-378.5 404.5,-378.5 404.5,-378.5 398.5,-378.5 392.5,-372.5 392.5,-366.5 392.5,-366.5 392.5,-344.5 392.5,-344.5 392.5,-338.5 398.5,-332.5 404.5,-332.5"/>
<text text-anchor="middle" x="434" y="-363.3" font-family="Times,serif" font-size="14.00">Identifier</text>
<polyline fill="none" stroke="#ffe9c7" points="392.5,-355.5 475.5,-355.5 "/>
<text text-anchor="middle" x="434" y="-340.3" font-family="Times,serif" font-size="14.00">3</text>
</g>
<!-- node_0x504000000f50&#45;&gt;node_0x504000000ed0 -->
<g id="edge26" class="edge">
<title>node_0x504000000f50&#45;&gt;node_0x504000000ed0</title>
<path fill="none" stroke="#9acd32" d="M434,-415.37C434,-407.15 434,-397.66 434,-388.73"/>
<polygon fill="#9acd32" stroke="#9acd32" points="437.5,-388.61 434,-378.61 430.5,-388.61 437.5,-388.61"/>
</g>
<!-- node_0x504000000f90 -->
<g id="node28" class="node">
<title>node_0x504000000f90</title>
<path fill="#03cffc" stroke="#ffe9c7" d="M505.5,-332.5C505.5,-332.5 562.5,-332.5 562.5,-332.5 568.5,-332.5 574.5,-338.5 574.5,-344.5 574.5,-344.5 574.5,-366.5 574.5,-366.5 574.5,-372.5 568.5,-378.5 562.5,-378.5 562.5,-378.5 505.5,-378.5 505.5,-378.5 499.5,-378.5 493.5,-372.5 493.5,-366.5 493.5,-366.5 493.5,-344.5 493.5,-344.5 493.5,-338.5 499.5,-332.5 505.5,-332.5"/>
<text text-anchor="middle" x="534" y="-363.3" font-family="Times,serif" font-size="14.00">Constant</text>
<polyline fill="none" stroke="#ffe9c7" points="493.5,-355.5 574.5,-355.5 "/>
<text text-anchor="middle" x="534" y="-340.3" font-family="Times,serif" font-size="14.00">15</text>
</g>
<!-- node_0x504000000f50&#45;&gt;node_0x504000000f90 -->
<g id="edge27" class="edge">
<title>node_0x504000000f50&#45;&gt;node_0x504000000f90</title>
<path fill="none" stroke="#ff2b00" d="M461.33,-415.37C472.9,-405.99 486.53,-394.95 498.84,-384.98"/>
<polygon fill="#ff2b00" stroke="#ff2b00" points="501.14,-387.62 506.71,-378.61 496.73,-382.18 501.14,-387.62"/>
</g>
<!-- node_0x504000001010 -->
<g id="node30" class="node">
<title>node_0x504000001010</title>
<path fill="#9966ff" stroke="#ffe9c7" d="M409,-498.5C409,-498.5 465,-498.5 465,-498.5 471,-498.5 477,-504.5 477,-510.5 477,-510.5 477,-532.5 477,-532.5 477,-538.5 471,-544.5 465,-544.5 465,-544.5 409,-544.5 409,-544.5 403,-544.5 397,-538.5 397,-532.5 397,-532.5 397,-510.5 397,-510.5 397,-504.5 403,-498.5 409,-498.5"/>
<text text-anchor="middle" x="437" y="-529.3" font-family="Times,serif" font-size="14.00">KeyWord</text>
<polyline fill="none" stroke="#ffe9c7" points="397,-521.5 477,-521.5 "/>
<text text-anchor="middle" x="437" y="-506.3" font-family="Times,serif" font-size="14.00">int</text>
</g>
<!-- node_0x504000001090&#45;&gt;node_0x504000001010 -->
<g id="edge29" class="edge">
<title>node_0x504000001090&#45;&gt;node_0x504000001010</title>
<path fill="none" stroke="#9acd32" d="M439.18,-581.37C438.88,-573.15 438.52,-563.66 438.19,-554.73"/>
<polygon fill="#9acd32" stroke="#9acd32" points="441.69,-554.47 437.82,-544.61 434.69,-554.73 441.69,-554.47"/>
</g>
<!-- node_0x5040000010d0 -->
<g id="node31" class="node">
<title>node_0x5040000010d0</title>
<path fill="#9966ff" stroke="#ffe9c7" d="M507,-498.5C507,-498.5 563,-498.5 563,-498.5 569,-498.5 575,-504.5 575,-510.5 575,-510.5 575,-532.5 575,-532.5 575,-538.5 569,-544.5 563,-544.5 563,-544.5 507,-544.5 507,-544.5 501,-544.5 495,-538.5 495,-532.5 495,-532.5 495,-510.5 495,-510.5 495,-504.5 501,-498.5 507,-498.5"/>
<text text-anchor="middle" x="535" y="-529.3" font-family="Times,serif" font-size="14.00">KeyWord</text>
<polyline fill="none" stroke="#ffe9c7" points="495,-521.5 575,-521.5 "/>
<text text-anchor="middle" x="535" y="-506.3" font-family="Times,serif" font-size="14.00">=</text>
</g>
<!-- node_0x504000001090&#45;&gt;node_0x5040000010d0 -->
<g id="edge30" class="edge">
<title>node_0x504000001090&#45;&gt;node_0x5040000010d0</title>
<path fill="none" stroke="#ff2b00" d="M465.96,-581.37C476.85,-572.08 489.66,-561.16 501.27,-551.26"/>
<polygon fill="#ff2b00" stroke="#ff2b00" points="503.73,-553.76 509.07,-544.61 499.19,-548.43 503.73,-553.76"/>
</g>
<!-- node_0x504000001050 -->
<g id="node32" class="node">
<title>node_0x504000001050</title>
<path fill="#ff6699" stroke="#ffe9c7" d="M504.5,-415.5C504.5,-415.5 563.5,-415.5 563.5,-415.5 569.5,-415.5 575.5,-421.5 575.5,-427.5 575.5,-427.5 575.5,-449.5 575.5,-449.5 575.5,-455.5 569.5,-461.5 563.5,-461.5 563.5,-461.5 504.5,-461.5 504.5,-461.5 498.5,-461.5 492.5,-455.5 492.5,-449.5 492.5,-449.5 492.5,-427.5 492.5,-427.5 492.5,-421.5 498.5,-415.5 504.5,-415.5"/>
<text text-anchor="middle" x="534" y="-446.3" font-family="Times,serif" font-size="14.00">Identifier</text>
<polyline fill="none" stroke="#ffe9c7" points="492.5,-438.5 575.5,-438.5 "/>
<text text-anchor="middle" x="534" y="-423.3" font-family="Times,serif" font-size="14.00">3</text>
</g>
<!-- node_0x5040000010d0&#45;&gt;node_0x504000001050 -->
<g id="edge31" class="edge">
<title>node_0x5040000010d0&#45;&gt;node_0x504000001050</title>
<path fill="none" stroke="#9acd32" d="M534.73,-498.37C534.63,-490.15 534.51,-480.66 534.4,-471.73"/>
<polygon fill="#9acd32" stroke="#9acd32" points="537.9,-471.56 534.27,-461.61 530.9,-471.65 537.9,-471.56"/>
</g>
<!-- node_0x504000001110 -->
<g id="node33" class="node">
<title>node_0x504000001110</title>
<path fill="#03cffc" stroke="#ffe9c7" d="M605.5,-415.5C605.5,-415.5 662.5,-415.5 662.5,-415.5 668.5,-415.5 674.5,-421.5 674.5,-427.5 674.5,-427.5 674.5,-449.5 674.5,-449.5 674.5,-455.5 668.5,-461.5 662.5,-461.5 662.5,-461.5 605.5,-461.5 605.5,-461.5 599.5,-461.5 593.5,-455.5 593.5,-449.5 593.5,-449.5 593.5,-427.5 593.5,-427.5 593.5,-421.5 599.5,-415.5 605.5,-415.5"/>
<text text-anchor="middle" x="634" y="-446.3" font-family="Times,serif" font-size="14.00">Constant</text>
<polyline fill="none" stroke="#ffe9c7" points="593.5,-438.5 674.5,-438.5 "/>
<text text-anchor="middle" x="634" y="-423.3" font-family="Times,serif" font-size="14.00">15</text>
</g>
<!-- node_0x5040000010d0&#45;&gt;node_0x504000001110 -->
<g id="edge32" class="edge">
<title>node_0x5040000010d0&#45;&gt;node_0x504000001110</title>
<path fill="none" stroke="#ff2b00" d="M562.05,-498.37C573.51,-488.99 587.01,-477.95 599.19,-467.98"/>
<polygon fill="#ff2b00" stroke="#ff2b00" points="601.46,-470.65 606.98,-461.61 597.02,-465.23 601.46,-470.65"/>
</g>
<!-- node_0x504000001190 -->
<g id="node35" class="node">
<title>node_0x504000001190</title>
<path fill="#9966ff" stroke="#ffe9c7" d="M546,-830.5C546,-830.5 602,-830.5 602,-830.5 608,-830.5 614,-836.5 614,-842.5 614,-842.5 614,-864.5 614,-864.5 614,-870.5 608,-876.5 602,-876.5 602,-876.5 546,-876.5 546,-876.5 540,-876.5 534,-870.5 534,-864.5 534,-864.5 534,-842.5 534,-842.5 534,-836.5 540,-830.5 546,-830.5"/>
<text text-anchor="middle" x="574" y="-861.3" font-family="Times,serif" font-size="14.00">KeyWord</text>
<polyline fill="none" stroke="#ffe9c7" points="534,-853.5 614,-853.5 "/>
<text text-anchor="middle" x="574" y="-838.3" font-family="Times,serif" font-size="14.00">int</text>
</g>
<!-- node_0x5040000011d0&#45;&gt;node_0x504000001190 -->
<g id="edge34" class="edge">
<title>node_0x5040000011d0&#45;&gt;node_0x504000001190</title>
<path fill="none" stroke="#9acd32" d="M574,-913.37C574,-905.15 574,-895.66 574,-886.73"/>
<polygon fill="#9acd32" stroke="#9acd32" points="577.5,-886.61 574,-876.61 570.5,-886.61 577.5,-886.61"/>
</g>
<!-- node_0x504000001210 -->
<g id="node36" class="node">
<title>node_0x504000001210</title>
<path fill="#fc0303" stroke="#ffe9c7" d="M654.5,-830.5C654.5,-830.5 729.5,-830.5 729.5,-830.5 735.5,-830.5 741.5,-836.5 741.5,-842.5 741.5,-842.5 741.5,-864.5 741.5,-864.5 741.5,-870.5 735.5,-876.5 729.5,-876.5 729.5,-876.5 654.5,-876.5 654.5,-876.5 648.5,-876.5 642.5,-870.5 642.5,-864.5 642.5,-864.5 642.5,-842.5 642.5,-842.5 642.5,-836.5 648.5,-830.5 654.5,-830.5"/>
<text text-anchor="middle" x="692" y="-861.3" font-family="Times,serif" font-size="14.00">Parameters</text>
<polyline fill="none" stroke="#ffe9c7" points="642.5,-853.5 741.5,-853.5 "/>
<text text-anchor="middle" x="692" y="-838.3" font-family="Times,serif" font-size="14.00">∅</text>
</g>
<!-- node_0x5040000011d0&#45;&gt;node_0x504000001210 -->
<g id="edge35" class="edge">
<title>node_0x5040000011d0&#45;&gt;node_0x504000001210</title>
<path fill="none" stroke="#ff2b00" d="M606.24,-913.37C620.16,-903.81 636.6,-892.53 651.34,-882.41"/>
<polygon fill="#ff2b00" stroke="#ff2b00" points="653.53,-885.15 659.79,-876.61 649.57,-879.38 653.53,-885.15"/>
</g>
<!-- node_0x504000001250 -->
<g id="node37" class="node">
<title>node_0x504000001250</title>
<path fill="#9966ff" stroke="#ffe9c7" d="M665,-747.5C665,-747.5 721,-747.5 721,-747.5 727,-747.5 733,-753.5 733,-759.5 733,-759.5 733,-781.5 733,-781.5 733,-787.5 727,-793.5 721,-793.5 721,-793.5 665,-793.5 665,-793.5 659,-793.5 653,-787.5 653,-781.5 653,-781.5 653,-759.5 653,-759.5 653,-753.5 659,-747.5 665,-747.5"/>
<text text-anchor="middle" x="693" y="-778.3" font-family="Times,serif" font-size="14.00">KeyWord</text>
<polyline fill="none" stroke="#ffe9c7" points="653,-770.5 733,-770.5 "/>
<text text-anchor="middle" x="693" y="-755.3" font-family="Times,serif" font-size="14.00">;</text>
</g>
<!-- node_0x504000001210&#45;&gt;node_0x504000001250 -->
<g id="edge36" class="edge">
<title>node_0x504000001210&#45;&gt;node_0x504000001250</title>
<path fill="none" stroke="#ff2b00" d="M692.27,-830.37C692.37,-822.15 692.49,-812.66 692.6,-803.73"/>
<polygon fill="#ff2b00" stroke="#ff2b00" points="696.1,-803.65 692.73,-793.61 689.1,-803.56 696.1,-803.65"/>
</g>
<!-- node_0x504000001510 -->
<g id="node38" class="node">
<title>node_0x504000001510</title>
<path fill="#9966ff" stroke="#ffe9c7" d="M665,-664.5C665,-664.5 721,-664.5 721,-664.5 727,-664.5 733,-670.5 733,-676.5 733,-676.5 733,-698.5 733,-698.5 733,-704.5 727,-710.5 721,-710.5 721,-710.5 665,-710.5 665,-710.5 659,-710.5 653,-704.5 653,-698.5 653,-698.5 653,-676.5 653,-676.5 653,-670.5 659,-664.5 665,-664.5"/>
<text text-anchor="middle" x="693" y="-695.3" font-family="Times,serif" font-size="14.00">KeyWord</text>
<polyline fill="none" stroke="#ffe9c7" points="653,-687.5 733,-687.5 "/>
<text text-anchor="middle" x="693" y="-672.3" font-family="Times,serif" font-size="14.00">;</text>
</g>
<!-- node_0x504000001250&#45;&gt;node_0x504000001510 -->
<g id="edge37" class="edge">
<title>node_0x504000001250&#45;&gt;node_0x504000001510</title>
<path fill="none" stroke="#9acd32" d="M693,-747.37C693,-739.15 693,-729.66 693,-720.73"/>
<polygon fill="#9acd32" stroke="#9acd32" points="696.5,-720.61 693,-710.61 689.5,-720.61 696.5,-720.61"/>
</g>
<!-- node_0x504000001310 -->
<g id="node39" class="node">
<title>node_0x504000001310</title>
<path fill="#08c41e" stroke="#ffe9c7" d="M666.5,-581.5C666.5,-581.5 719.5,-581.5 719.5,-581.5 725.5,-581.5 731.5,-587.5 731.5,-593.5 731.5,-593.5 731.5,-615.5 731.5,-615.5 731.5,-621.5 725.5,-627.5 719.5,-627.5 719.5,-627.5 666.5,-627.5 666.5,-627.5 660.5,-627.5 654.5,-621.5 654.5,-615.5 654.5,-615.5 654.5,-593.5 654.5,-593.5 654.5,-587.5 660.5,-581.5 666.5,-581.5"/>
<text text-anchor="middle" x="693" y="-612.3" font-family="Times,serif" font-size="14.00">Var Decl</text>
<polyline fill="none" stroke="#ffe9c7" points="654.5,-604.5 731.5,-604.5 "/>
<text text-anchor="middle" x="693" y="-589.3" font-family="Times,serif" font-size="14.00">one</text>
</g>
<!-- node_0x504000001510&#45;&gt;node_0x504000001310 -->
<g id="edge38" class="edge">
<title>node_0x504000001510&#45;&gt;node_0x504000001310</title>
<path fill="none" stroke="#9acd32" d="M693,-664.37C693,-656.15 693,-646.66 693,-637.73"/>
<polygon fill="#9acd32" stroke="#9acd32" points="696.5,-637.61 693,-627.61 689.5,-637.61 696.5,-637.61"/>
</g>
<!-- node_0x5040000015d0 -->
<g id="node49" class="node">
<title>node_0x5040000015d0</title>
<path fill="#08c41e" stroke="#ffe9c7" d="M805.5,-581.5C805.5,-581.5 858.5,-581.5 858.5,-581.5 864.5,-581.5 870.5,-587.5 870.5,-593.5 870.5,-593.5 870.5,-615.5 870.5,-615.5 870.5,-621.5 864.5,-627.5 858.5,-627.5 858.5,-627.5 805.5,-627.5 805.5,-627.5 799.5,-627.5 793.5,-621.5 793.5,-615.5 793.5,-615.5 793.5,-593.5 793.5,-593.5 793.5,-587.5 799.5,-581.5 805.5,-581.5"/>
<text text-anchor="middle" x="832" y="-612.3" font-family="Times,serif" font-size="14.00">Var Decl</text>
<polyline fill="none" stroke="#ffe9c7" points="793.5,-604.5 870.5,-604.5 "/>
<text text-anchor="middle" x="832" y="-589.3" font-family="Times,serif" font-size="14.00">one</text>
</g>
<!-- node_0x504000001510&#45;&gt;node_0x5040000015d0 -->
<g id="edge48" class="edge">
<title>node_0x504000001510&#45;&gt;node_0x5040000015d0</title>
<path fill="none" stroke="#ff2b00" d="M730.98,-664.37C747.68,-654.63 767.47,-643.11 785.08,-632.84"/>
<polygon fill="#ff2b00" stroke="#ff2b00" points="787.19,-635.67 794.06,-627.61 783.66,-629.62 787.19,-635.67"/>
</g>
<!-- node_0x504000001290 -->
<g id="node40" class="node">
<title>node_0x504000001290</title>
<path fill="#9966ff" stroke="#ffe9c7" d="M608,-498.5C608,-498.5 664,-498.5 664,-498.5 670,-498.5 676,-504.5 676,-510.5 676,-510.5 676,-532.5 676,-532.5 676,-538.5 670,-544.5 664,-544.5 664,-544.5 608,-544.5 608,-544.5 602,-544.5 596,-538.5 596,-532.5 596,-532.5 596,-510.5 596,-510.5 596,-504.5 602,-498.5 608,-498.5"/>
<text text-anchor="middle" x="636" y="-529.3" font-family="Times,serif" font-size="14.00">KeyWord</text>
<polyline fill="none" stroke="#ffe9c7" points="596,-521.5 676,-521.5 "/>
<text text-anchor="middle" x="636" y="-506.3" font-family="Times,serif" font-size="14.00">int</text>
</g>
<!-- node_0x504000001310&#45;&gt;node_0x504000001290 -->
<g id="edge39" class="edge">
<title>node_0x504000001310&#45;&gt;node_0x504000001290</title>
<path fill="none" stroke="#9acd32" d="M677.42,-581.37C671.27,-572.62 664.09,-562.41 657.45,-552.99"/>
<polygon fill="#9acd32" stroke="#9acd32" points="660.17,-550.77 651.56,-544.61 654.45,-554.8 660.17,-550.77"/>
</g>
<!-- node_0x504000001350 -->
<g id="node41" class="node">
<title>node_0x504000001350</title>
<path fill="#9966ff" stroke="#ffe9c7" d="M706,-498.5C706,-498.5 762,-498.5 762,-498.5 768,-498.5 774,-504.5 774,-510.5 774,-510.5 774,-532.5 774,-532.5 774,-538.5 768,-544.5 762,-544.5 762,-544.5 706,-544.5 706,-544.5 700,-544.5 694,-538.5 694,-532.5 694,-532.5 694,-510.5 694,-510.5 694,-504.5 700,-498.5 706,-498.5"/>
<text text-anchor="middle" x="734" y="-529.3" font-family="Times,serif" font-size="14.00">KeyWord</text>
<polyline fill="none" stroke="#ffe9c7" points="694,-521.5 774,-521.5 "/>
<text text-anchor="middle" x="734" y="-506.3" font-family="Times,serif" font-size="14.00">=</text>
</g>
<!-- node_0x504000001310&#45;&gt;node_0x504000001350 -->
<g id="edge40" class="edge">
<title>node_0x504000001310&#45;&gt;node_0x504000001350</title>
<path fill="none" stroke="#ff2b00" d="M704.2,-581.37C708.54,-572.79 713.59,-562.83 718.28,-553.56"/>
<polygon fill="#ff2b00" stroke="#ff2b00" points="721.42,-555.11 722.81,-544.61 715.17,-551.95 721.42,-555.11"/>
</g>
<!-- node_0x5040000012d0 -->
<g id="node42" class="node">
<title>node_0x5040000012d0</title>
<path fill="#ff6699" stroke="#ffe9c7" d="M704.5,-415.5C704.5,-415.5 763.5,-415.5 763.5,-415.5 769.5,-415.5 775.5,-421.5 775.5,-427.5 775.5,-427.5 775.5,-449.5 775.5,-449.5 775.5,-455.5 769.5,-461.5 763.5,-461.5 763.5,-461.5 704.5,-461.5 704.5,-461.5 698.5,-461.5 692.5,-455.5 692.5,-449.5 692.5,-449.5 692.5,-427.5 692.5,-427.5 692.5,-421.5 698.5,-415.5 704.5,-415.5"/>
<text text-anchor="middle" x="734" y="-446.3" font-family="Times,serif" font-size="14.00">Identifier</text>
<polyline fill="none" stroke="#ffe9c7" points="692.5,-438.5 775.5,-438.5 "/>
<text text-anchor="middle" x="734" y="-423.3" font-family="Times,serif" font-size="14.00">1</text>
</g>
<!-- node_0x504000001350&#45;&gt;node_0x5040000012d0 -->
<g id="edge41" class="edge">
<title>node_0x504000001350&#45;&gt;node_0x5040000012d0</title>
<path fill="none" stroke="#9acd32" d="M734,-498.37C734,-490.15 734,-480.66 734,-471.73"/>
<polygon fill="#9acd32" stroke="#9acd32" points="737.5,-471.61 734,-461.61 730.5,-471.61 737.5,-471.61"/>
</g>
<!-- node_0x5040000013d0 -->
<g id="node43" class="node">
<title>node_0x5040000013d0</title>
<path fill="#916306" stroke="#ffe9c7" d="M806,-415.5C806,-415.5 836,-415.5 836,-415.5 842,-415.5 848,-421.5 848,-427.5 848,-427.5 848,-449.5 848,-449.5 848,-455.5 842,-461.5 836,-461.5 836,-461.5 806,-461.5 806,-461.5 800,-461.5 794,-455.5 794,-449.5 794,-449.5 794,-427.5 794,-427.5 794,-421.5 800,-415.5 806,-415.5"/>
<text text-anchor="middle" x="821" y="-446.3" font-family="Times,serif" font-size="14.00">Call</text>
<polyline fill="none" stroke="#ffe9c7" points="794,-438.5 848,-438.5 "/>
<text text-anchor="middle" x="821" y="-423.3" font-family="Times,serif" font-size="14.00">∅</text>
</g>
<!-- node_0x504000001350&#45;&gt;node_0x5040000013d0 -->
<g id="edge42" class="edge">
<title>node_0x504000001350&#45;&gt;node_0x5040000013d0</title>
<path fill="none" stroke="#ff2b00" d="M757.77,-498.37C767.65,-489.17 779.25,-478.37 789.8,-468.55"/>
<polygon fill="#ff2b00" stroke="#ff2b00" points="792.32,-470.98 797.26,-461.61 787.55,-465.86 792.32,-470.98"/>
</g>
<!-- node_0x504000001410 -->
<g id="node44" class="node">
<title>node_0x504000001410</title>
<path fill="#9966ff" stroke="#ffe9c7" d="M743,-332.5C743,-332.5 799,-332.5 799,-332.5 805,-332.5 811,-338.5 811,-344.5 811,-344.5 811,-366.5 811,-366.5 811,-372.5 805,-378.5 799,-378.5 799,-378.5 743,-378.5 743,-378.5 737,-378.5 731,-372.5 731,-366.5 731,-366.5 731,-344.5 731,-344.5 731,-338.5 737,-332.5 743,-332.5"/>
<text text-anchor="middle" x="771" y="-363.3" font-family="Times,serif" font-size="14.00">KeyWord</text>
<polyline fill="none" stroke="#ffe9c7" points="731,-355.5 811,-355.5 "/>
<text text-anchor="middle" x="771" y="-340.3" font-family="Times,serif" font-size="14.00">sin</text>
</g>
<!-- node_0x5040000013d0&#45;&gt;node_0x504000001410 -->
<g id="edge43" class="edge">
<title>node_0x5040000013d0&#45;&gt;node_0x504000001410</title>
<path fill="none" stroke="#9acd32" d="M807.34,-415.37C801.99,-406.71 795.77,-396.62 790,-387.27"/>
<polygon fill="#9acd32" stroke="#9acd32" points="792.88,-385.28 784.65,-378.61 786.92,-388.95 792.88,-385.28"/>
</g>
<!-- node_0x504000001390 -->
<g id="node48" class="node">
<title>node_0x504000001390</title>
<path fill="#ff6699" stroke="#ffe9c7" d="M841.5,-332.5C841.5,-332.5 900.5,-332.5 900.5,-332.5 906.5,-332.5 912.5,-338.5 912.5,-344.5 912.5,-344.5 912.5,-366.5 912.5,-366.5 912.5,-372.5 906.5,-378.5 900.5,-378.5 900.5,-378.5 841.5,-378.5 841.5,-378.5 835.5,-378.5 829.5,-372.5 829.5,-366.5 829.5,-366.5 829.5,-344.5 829.5,-344.5 829.5,-338.5 835.5,-332.5 841.5,-332.5"/>
<text text-anchor="middle" x="871" y="-363.3" font-family="Times,serif" font-size="14.00">Identifier</text>
<polyline fill="none" stroke="#ffe9c7" points="829.5,-355.5 912.5,-355.5 "/>
<text text-anchor="middle" x="871" y="-340.3" font-family="Times,serif" font-size="14.00">2</text>
</g>
<!-- node_0x5040000013d0&#45;&gt;node_0x504000001390 -->
<g id="edge47" class="edge">
<title>node_0x5040000013d0&#45;&gt;node_0x504000001390</title>
<path fill="none" stroke="#ff2b00" d="M834.66,-415.37C840.01,-406.71 846.23,-396.62 852,-387.27"/>
<polygon fill="#ff2b00" stroke="#ff2b00" points="855.08,-388.95 857.35,-378.61 849.12,-385.28 855.08,-388.95"/>
</g>
<!-- node_0x504000001490 -->
<g id="node45" class="node">
<title>node_0x504000001490</title>
<path fill="#9966ff" stroke="#ffe9c7" d="M743,-249.5C743,-249.5 799,-249.5 799,-249.5 805,-249.5 811,-255.5 811,-261.5 811,-261.5 811,-283.5 811,-283.5 811,-289.5 805,-295.5 799,-295.5 799,-295.5 743,-295.5 743,-295.5 737,-295.5 731,-289.5 731,-283.5 731,-283.5 731,-261.5 731,-261.5 731,-255.5 737,-249.5 743,-249.5"/>
<text text-anchor="middle" x="771" y="-280.3" font-family="Times,serif" font-size="14.00">KeyWord</text>
<polyline fill="none" stroke="#ffe9c7" points="731,-272.5 811,-272.5 "/>
<text text-anchor="middle" x="771" y="-257.3" font-family="Times,serif" font-size="14.00">+</text>
</g>
<!-- node_0x504000001410&#45;&gt;node_0x504000001490 -->
<g id="edge44" class="edge">
<title>node_0x504000001410&#45;&gt;node_0x504000001490</title>
<path fill="none" stroke="#ff2b00" d="M771,-332.37C771,-324.15 771,-314.66 771,-305.73"/>
<polygon fill="#ff2b00" stroke="#ff2b00" points="774.5,-305.61 771,-295.61 767.5,-305.61 774.5,-305.61"/>
</g>
<!-- node_0x504000001450 -->
<g id="node46" class="node">
<title>node_0x504000001450</title>
<path fill="#03cffc" stroke="#ffe9c7" d="M692.5,-166.5C692.5,-166.5 749.5,-166.5 749.5,-166.5 755.5,-166.5 761.5,-172.5 761.5,-178.5 761.5,-178.5 761.5,-200.5 761.5,-200.5 761.5,-206.5 755.5,-212.5 749.5,-212.5 749.5,-212.5 692.5,-212.5 692.5,-212.5 686.5,-212.5 680.5,-206.5 680.5,-200.5 680.5,-200.5 680.5,-178.5 680.5,-178.5 680.5,-172.5 686.5,-166.5 692.5,-166.5"/>
<text text-anchor="middle" x="721" y="-197.3" font-family="Times,serif" font-size="14.00">Constant</text>
<polyline fill="none" stroke="#ffe9c7" points="680.5,-189.5 761.5,-189.5 "/>
<text text-anchor="middle" x="721" y="-174.3" font-family="Times,serif" font-size="14.00">15</text>
</g>
<!-- node_0x504000001490&#45;&gt;node_0x504000001450 -->
<g id="edge45" class="edge">
<title>node_0x504000001490&#45;&gt;node_0x504000001450</title>
<path fill="none" stroke="#9acd32" d="M757.34,-249.37C751.99,-240.71 745.77,-230.62 740,-221.27"/>
<polygon fill="#9acd32" stroke="#9acd32" points="742.88,-219.28 734.65,-212.61 736.92,-222.95 742.88,-219.28"/>
</g>
<!-- node_0x5040000014d0 -->
<g id="node47" class="node">
<title>node_0x5040000014d0</title>
<path fill="#03cffc" stroke="#ffe9c7" d="M791.5,-166.5C791.5,-166.5 848.5,-166.5 848.5,-166.5 854.5,-166.5 860.5,-172.5 860.5,-178.5 860.5,-178.5 860.5,-200.5 860.5,-200.5 860.5,-206.5 854.5,-212.5 848.5,-212.5 848.5,-212.5 791.5,-212.5 791.5,-212.5 785.5,-212.5 779.5,-206.5 779.5,-200.5 779.5,-200.5 779.5,-178.5 779.5,-178.5 779.5,-172.5 785.5,-166.5 791.5,-166.5"/>
<text text-anchor="middle" x="820" y="-197.3" font-family="Times,serif" font-size="14.00">Constant</text>
<polyline fill="none" stroke="#ffe9c7" points="779.5,-189.5 860.5,-189.5 "/>
<text text-anchor="middle" x="820" y="-174.3" font-family="Times,serif" font-size="14.00">1</text>
</g>
<!-- node_0x504000001490&#45;&gt;node_0x5040000014d0 -->
<g id="edge46" class="edge">
<title>node_0x504000001490&#45;&gt;node_0x5040000014d0</title>
<path fill="none" stroke="#ff2b00" d="M784.39,-249.37C789.63,-240.71 795.73,-230.62 801.38,-221.27"/>
<polygon fill="#ff2b00" stroke="#ff2b00" points="804.45,-222.97 806.63,-212.61 798.46,-219.35 804.45,-222.97"/>
</g>
<!-- node_0x504000001550 -->
<g id="node50" class="node">
<title>node_0x504000001550</title>
<path fill="#9966ff" stroke="#ffe9c7" d="M804,-498.5C804,-498.5 860,-498.5 860,-498.5 866,-498.5 872,-504.5 872,-510.5 872,-510.5 872,-532.5 872,-532.5 872,-538.5 866,-544.5 860,-544.5 860,-544.5 804,-544.5 804,-544.5 798,-544.5 792,-538.5 792,-532.5 792,-532.5 792,-510.5 792,-510.5 792,-504.5 798,-498.5 804,-498.5"/>
<text text-anchor="middle" x="832" y="-529.3" font-family="Times,serif" font-size="14.00">KeyWord</text>
<polyline fill="none" stroke="#ffe9c7" points="792,-521.5 872,-521.5 "/>
<text text-anchor="middle" x="832" y="-506.3" font-family="Times,serif" font-size="14.00">int</text>
</g>
<!-- node_0x5040000015d0&#45;&gt;node_0x504000001550 -->
<g id="edge49" class="edge">
<title>node_0x5040000015d0&#45;&gt;node_0x504000001550</title>
<path fill="none" stroke="#9acd32" d="M832,-581.37C832,-573.15 832,-563.66 832,-554.73"/>
<polygon fill="#9acd32" stroke="#9acd32" points="835.5,-554.61 832,-544.61 828.5,-554.61 835.5,-554.61"/>
</g>
<!-- node_0x504000001610 -->
<g id="node51" class="node">
<title>node_0x504000001610</title>
<path fill="#9966ff" stroke="#ffe9c7" d="M902,-498.5C902,-498.5 958,-498.5 958,-498.5 964,-498.5 970,-504.5 970,-510.5 970,-510.5 970,-532.5 970,-532.5 970,-538.5 964,-544.5 958,-544.5 958,-544.5 902,-544.5 902,-544.5 896,-544.5 890,-538.5 890,-532.5 890,-532.5 890,-510.5 890,-510.5 890,-504.5 896,-498.5 902,-498.5"/>
<text text-anchor="middle" x="930" y="-529.3" font-family="Times,serif" font-size="14.00">KeyWord</text>
<polyline fill="none" stroke="#ffe9c7" points="890,-521.5 970,-521.5 "/>
<text text-anchor="middle" x="930" y="-506.3" font-family="Times,serif" font-size="14.00">=</text>
</g>
<!-- node_0x5040000015d0&#45;&gt;node_0x504000001610 -->
<g id="edge50" class="edge">
<title>node_0x5040000015d0&#45;&gt;node_0x504000001610</title>
<path fill="none" stroke="#ff2b00" d="M858.78,-581.37C870.01,-572.08 883.23,-561.16 895.2,-551.26"/>
<polygon fill="#ff2b00" stroke="#ff2b00" points="897.78,-553.68 903.25,-544.61 893.32,-548.28 897.78,-553.68"/>
</g>
<!-- node_0x504000001590 -->
<g id="node52" class="node">
<title>node_0x504000001590</title>
<path fill="#ff6699" stroke="#ffe9c7" d="M889.5,-415.5C889.5,-415.5 948.5,-415.5 948.5,-415.5 954.5,-415.5 960.5,-421.5 960.5,-427.5 960.5,-427.5 960.5,-449.5 960.5,-449.5 960.5,-455.5 954.5,-461.5 948.5,-461.5 948.5,-461.5 889.5,-461.5 889.5,-461.5 883.5,-461.5 877.5,-455.5 877.5,-449.5 877.5,-449.5 877.5,-427.5 877.5,-427.5 877.5,-421.5 883.5,-415.5 889.5,-415.5"/>
<text text-anchor="middle" x="919" y="-446.3" font-family="Times,serif" font-size="14.00">Identifier</text>
<polyline fill="none" stroke="#ffe9c7" points="877.5,-438.5 960.5,-438.5 "/>
<text text-anchor="middle" x="919" y="-423.3" font-family="Times,serif" font-size="14.00">1</text>
</g>
<!-- node_0x504000001610&#45;&gt;node_0x504000001590 -->
<g id="edge51" class="edge">
<title>node_0x504000001610&#45;&gt;node_0x504000001590</title>
<path fill="none" stroke="#9acd32" d="M926.99,-498.37C925.88,-490.15 924.59,-480.66 923.38,-471.73"/>
<polygon fill="#9acd32" stroke="#9acd32" points="926.82,-471.04 922,-461.61 919.88,-471.99 926.82,-471.04"/>
</g>
<!-- node_0x504000001650 -->
<g id="node53" class="node">
<title>node_0x504000001650</title>
<path fill="#03cffc" stroke="#ffe9c7" d="M990.5,-415.5C990.5,-415.5 1047.5,-415.5 1047.5,-415.5 1053.5,-415.5 1059.5,-421.5 1059.5,-427.5 1059.5,-427.5 1059.5,-449.5 1059.5,-449.5 1059.5,-455.5 1053.5,-461.5 1047.5,-461.5 1047.5,-461.5 990.5,-461.5 990.5,-461.5 984.5,-461.5 978.5,-455.5 978.5,-449.5 978.5,-449.5 978.5,-427.5 978.5,-427.5 978.5,-421.5 984.5,-415.5 990.5,-415.5"/>
<text text-anchor="middle" x="1019" y="-446.3" font-family="Times,serif" font-size="14.00">Constant</text>
<polyline fill="none" stroke="#ffe9c7" points="978.5,-438.5 1059.5,-438.5 "/>
<text text-anchor="middle" x="1019" y="-423.3" font-family="Times,serif" font-size="14.00">15</text>
</g>
<!-- node_0x504000001610&#45;&gt;node_0x504000001650 -->
<g id="edge52" class="edge">
<title>node_0x504000001610&#45;&gt;node_0x504000001650</title>
<path fill="none" stroke="#ff2b00" d="M954.32,-498.37C964.42,-489.17 976.29,-478.37 987.08,-468.55"/>
<polygon fill="#ff2b00" stroke="#ff2b00" points="989.67,-470.93 994.71,-461.61 984.96,-465.75 989.67,-470.93"/>
</g>
</g>
</svg>
