<?xml version="1.0" encoding="UTF-8" standalone="no"?>
<!DOCTYPE svg PUBLIC "-//W3C//DTD SVG 1.1//EN"
 "http://www.w3.org/Graphics/SVG/1.1/DTD/svg11.dtd">
<!-- Generated by graphviz version 2.43.0 (0)
 -->
<!-- Title: G Pages: 1 -->
<svg width="740pt" height="1009pt"
 viewBox="0.00 0.00 739.50 1009.00" xmlns="http://www.w3.org/2000/svg" xmlns:xlink="http://www.w3.org/1999/xlink">
<g id="graph0" class="graph" transform="scale(1 1) rotate(0) translate(4 1005)">
<title>G</title>
<polygon fill="#ffd480" stroke="transparent" points="-4,4 -4,-1005 735.5,-1005 735.5,4 -4,4"/>
<text text-anchor="middle" x="365.75" y="-973" font-family="Verdana" font-size="30.00" fill="#ffffff">AST</text>
<!-- node_0x504000000f10 -->
<g id="node1" class="node">
<title>node_0x504000000f10</title>
<path fill="#9966ff" stroke="#ffe9c7" d="M317,-913.5C317,-913.5 373,-913.5 373,-913.5 379,-913.5 385,-919.5 385,-925.5 385,-925.5 385,-947.5 385,-947.5 385,-953.5 379,-959.5 373,-959.5 373,-959.5 317,-959.5 317,-959.5 311,-959.5 305,-953.5 305,-947.5 305,-947.5 305,-925.5 305,-925.5 305,-919.5 311,-913.5 317,-913.5"/>
<text text-anchor="middle" x="345" y="-944.3" font-family="Times,serif" font-size="14.00">KeyWord</text>
<polyline fill="none" stroke="#ffe9c7" points="305,-936.5 385,-936.5 "/>
<text text-anchor="middle" x="345" y="-921.3" font-family="Times,serif" font-size="14.00">;</text>
</g>
<!-- node_0x504000000c90 -->
<g id="node2" class="node">
<title>node_0x504000000c90</title>
<path fill="#9966ff" stroke="#ffe9c7" d="M268,-830.5C268,-830.5 324,-830.5 324,-830.5 330,-830.5 336,-836.5 336,-842.5 336,-842.5 336,-864.5 336,-864.5 336,-870.5 330,-876.5 324,-876.5 324,-876.5 268,-876.5 268,-876.5 262,-876.5 256,-870.5 256,-864.5 256,-864.5 256,-842.5 256,-842.5 256,-836.5 262,-830.5 268,-830.5"/>
<text text-anchor="middle" x="296" y="-861.3" font-family="Times,serif" font-size="14.00">KeyWord</text>
<polyline fill="none" stroke="#ffe9c7" points="256,-853.5 336,-853.5 "/>
<text text-anchor="middle" x="296" y="-838.3" font-family="Times,serif" font-size="14.00">;</text>
</g>
<!-- node_0x504000000f10&#45;&gt;node_0x504000000c90 -->
<g id="edge1" class="edge">
<title>node_0x504000000f10&#45;&gt;node_0x504000000c90</title>
<path fill="none" stroke="#9acd32" d="M331.61,-913.37C326.37,-904.71 320.27,-894.62 314.62,-885.27"/>
<polygon fill="#9acd32" stroke="#9acd32" points="317.54,-883.35 309.37,-876.61 311.55,-886.97 317.54,-883.35"/>
</g>
<!-- node_0x504000000f90 -->
<g id="node32" class="node">
<title>node_0x504000000f90</title>
<path fill="#fca103" stroke="#ffe9c7" d="M370.5,-830.5C370.5,-830.5 427.5,-830.5 427.5,-830.5 433.5,-830.5 439.5,-836.5 439.5,-842.5 439.5,-842.5 439.5,-864.5 439.5,-864.5 439.5,-870.5 433.5,-876.5 427.5,-876.5 427.5,-876.5 370.5,-876.5 370.5,-876.5 364.5,-876.5 358.5,-870.5 358.5,-864.5 358.5,-864.5 358.5,-842.5 358.5,-842.5 358.5,-836.5 364.5,-830.5 370.5,-830.5"/>
<text text-anchor="middle" x="399" y="-861.3" font-family="Times,serif" font-size="14.00">Func Def</text>
<polyline fill="none" stroke="#ffe9c7" points="358.5,-853.5 439.5,-853.5 "/>
<text text-anchor="middle" x="399" y="-838.3" font-family="Times,serif" font-size="14.00">6</text>
</g>
<!-- node_0x504000000f10&#45;&gt;node_0x504000000f90 -->
<g id="edge31" class="edge">
<title>node_0x504000000f10&#45;&gt;node_0x504000000f90</title>
<path fill="none" stroke="#ff2b00" d="M359.76,-913.37C365.59,-904.62 372.39,-894.41 378.68,-884.99"/>
<polygon fill="#ff2b00" stroke="#ff2b00" points="381.63,-886.87 384.26,-876.61 375.8,-882.99 381.63,-886.87"/>
</g>
<!-- node_0x5040000007d0 -->
<g id="node3" class="node">
<title>node_0x5040000007d0</title>
<path fill="#fca103" stroke="#ffe9c7" d="M158.5,-747.5C158.5,-747.5 215.5,-747.5 215.5,-747.5 221.5,-747.5 227.5,-753.5 227.5,-759.5 227.5,-759.5 227.5,-781.5 227.5,-781.5 227.5,-787.5 221.5,-793.5 215.5,-793.5 215.5,-793.5 158.5,-793.5 158.5,-793.5 152.5,-793.5 146.5,-787.5 146.5,-781.5 146.5,-781.5 146.5,-759.5 146.5,-759.5 146.5,-753.5 152.5,-747.5 158.5,-747.5"/>
<text text-anchor="middle" x="187" y="-778.3" font-family="Times,serif" font-size="14.00">Func Def</text>
<polyline fill="none" stroke="#ffe9c7" points="146.5,-770.5 227.5,-770.5 "/>
<text text-anchor="middle" x="187" y="-755.3" font-family="Times,serif" font-size="14.00">0</text>
</g>
<!-- node_0x504000000c90&#45;&gt;node_0x5040000007d0 -->
<g id="edge2" class="edge">
<title>node_0x504000000c90&#45;&gt;node_0x5040000007d0</title>
<path fill="none" stroke="#9acd32" d="M266.22,-830.37C253.48,-820.9 238.46,-809.74 224.94,-799.69"/>
<polygon fill="#9acd32" stroke="#9acd32" points="226.86,-796.76 216.75,-793.61 222.69,-802.38 226.86,-796.76"/>
</g>
<!-- node_0x504000000d10 -->
<g id="node23" class="node">
<title>node_0x504000000d10</title>
<path fill="#fca103" stroke="#ffe9c7" d="M267.5,-747.5C267.5,-747.5 324.5,-747.5 324.5,-747.5 330.5,-747.5 336.5,-753.5 336.5,-759.5 336.5,-759.5 336.5,-781.5 336.5,-781.5 336.5,-787.5 330.5,-793.5 324.5,-793.5 324.5,-793.5 267.5,-793.5 267.5,-793.5 261.5,-793.5 255.5,-787.5 255.5,-781.5 255.5,-781.5 255.5,-759.5 255.5,-759.5 255.5,-753.5 261.5,-747.5 267.5,-747.5"/>
<text text-anchor="middle" x="296" y="-778.3" font-family="Times,serif" font-size="14.00">Func Def</text>
<polyline fill="none" stroke="#ffe9c7" points="255.5,-770.5 336.5,-770.5 "/>
<text text-anchor="middle" x="296" y="-755.3" font-family="Times,serif" font-size="14.00">4</text>
</g>
<!-- node_0x504000000c90&#45;&gt;node_0x504000000d10 -->
<g id="edge22" class="edge">
<title>node_0x504000000c90&#45;&gt;node_0x504000000d10</title>
<path fill="none" stroke="#ff2b00" d="M296,-830.37C296,-822.15 296,-812.66 296,-803.73"/>
<polygon fill="#ff2b00" stroke="#ff2b00" points="299.5,-803.61 296,-793.61 292.5,-803.61 299.5,-803.61"/>
</g>
<!-- node_0x504000000790 -->
<g id="node4" class="node">
<title>node_0x504000000790</title>
<path fill="#9966ff" stroke="#ffe9c7" d="M51,-664.5C51,-664.5 107,-664.5 107,-664.5 113,-664.5 119,-670.5 119,-676.5 119,-676.5 119,-698.5 119,-698.5 119,-704.5 113,-710.5 107,-710.5 107,-710.5 51,-710.5 51,-710.5 45,-710.5 39,-704.5 39,-698.5 39,-698.5 39,-676.5 39,-676.5 39,-670.5 45,-664.5 51,-664.5"/>
<text text-anchor="middle" x="79" y="-695.3" font-family="Times,serif" font-size="14.00">KeyWord</text>
<polyline fill="none" stroke="#ffe9c7" points="39,-687.5 119,-687.5 "/>
<text text-anchor="middle" x="79" y="-672.3" font-family="Times,serif" font-size="14.00">int</text>
</g>
<!-- node_0x5040000007d0&#45;&gt;node_0x504000000790 -->
<g id="edge3" class="edge">
<title>node_0x5040000007d0&#45;&gt;node_0x504000000790</title>
<path fill="none" stroke="#9acd32" d="M157.49,-747.37C144.87,-737.9 129.99,-726.74 116.59,-716.69"/>
<polygon fill="#9acd32" stroke="#9acd32" points="118.58,-713.81 108.48,-710.61 114.38,-719.41 118.58,-713.81"/>
</g>
<!-- node_0x504000000810 -->
<g id="node5" class="node">
<title>node_0x504000000810</title>
<path fill="#fc0303" stroke="#ffe9c7" d="M149.5,-664.5C149.5,-664.5 224.5,-664.5 224.5,-664.5 230.5,-664.5 236.5,-670.5 236.5,-676.5 236.5,-676.5 236.5,-698.5 236.5,-698.5 236.5,-704.5 230.5,-710.5 224.5,-710.5 224.5,-710.5 149.5,-710.5 149.5,-710.5 143.5,-710.5 137.5,-704.5 137.5,-698.5 137.5,-698.5 137.5,-676.5 137.5,-676.5 137.5,-670.5 143.5,-664.5 149.5,-664.5"/>
<text text-anchor="middle" x="187" y="-695.3" font-family="Times,serif" font-size="14.00">Parameters</text>
<polyline fill="none" stroke="#ffe9c7" points="137.5,-687.5 236.5,-687.5 "/>
<text text-anchor="middle" x="187" y="-672.3" font-family="Times,serif" font-size="14.00">∅</text>
</g>
<!-- node_0x5040000007d0&#45;&gt;node_0x504000000810 -->
<g id="edge4" class="edge">
<title>node_0x5040000007d0&#45;&gt;node_0x504000000810</title>
<path fill="none" stroke="#ff2b00" d="M187,-747.37C187,-739.15 187,-729.66 187,-720.73"/>
<polygon fill="#ff2b00" stroke="#ff2b00" points="190.5,-720.61 187,-710.61 183.5,-720.61 190.5,-720.61"/>
</g>
<!-- node_0x504000000850 -->
<g id="node6" class="node">
<title>node_0x504000000850</title>
<path fill="#9966ff" stroke="#ffe9c7" d="M159,-581.5C159,-581.5 215,-581.5 215,-581.5 221,-581.5 227,-587.5 227,-593.5 227,-593.5 227,-615.5 227,-615.5 227,-621.5 221,-627.5 215,-627.5 215,-627.5 159,-627.5 159,-627.5 153,-627.5 147,-621.5 147,-615.5 147,-615.5 147,-593.5 147,-593.5 147,-587.5 153,-581.5 159,-581.5"/>
<text text-anchor="middle" x="187" y="-612.3" font-family="Times,serif" font-size="14.00">KeyWord</text>
<polyline fill="none" stroke="#ffe9c7" points="147,-604.5 227,-604.5 "/>
<text text-anchor="middle" x="187" y="-589.3" font-family="Times,serif" font-size="14.00">;</text>
</g>
<!-- node_0x504000000810&#45;&gt;node_0x504000000850 -->
<g id="edge5" class="edge">
<title>node_0x504000000810&#45;&gt;node_0x504000000850</title>
<path fill="none" stroke="#ff2b00" d="M187,-664.37C187,-656.15 187,-646.66 187,-637.73"/>
<polygon fill="#ff2b00" stroke="#ff2b00" points="190.5,-637.61 187,-627.61 183.5,-637.61 190.5,-637.61"/>
</g>
<!-- node_0x504000000b10 -->
<g id="node7" class="node">
<title>node_0x504000000b10</title>
<path fill="#9966ff" stroke="#ffe9c7" d="M159,-498.5C159,-498.5 215,-498.5 215,-498.5 221,-498.5 227,-504.5 227,-510.5 227,-510.5 227,-532.5 227,-532.5 227,-538.5 221,-544.5 215,-544.5 215,-544.5 159,-544.5 159,-544.5 153,-544.5 147,-538.5 147,-532.5 147,-532.5 147,-510.5 147,-510.5 147,-504.5 153,-498.5 159,-498.5"/>
<text text-anchor="middle" x="187" y="-529.3" font-family="Times,serif" font-size="14.00">KeyWord</text>
<polyline fill="none" stroke="#ffe9c7" points="147,-521.5 227,-521.5 "/>
<text text-anchor="middle" x="187" y="-506.3" font-family="Times,serif" font-size="14.00">;</text>
</g>
<!-- node_0x504000000850&#45;&gt;node_0x504000000b10 -->
<g id="edge6" class="edge">
<title>node_0x504000000850&#45;&gt;node_0x504000000b10</title>
<path fill="none" stroke="#9acd32" d="M187,-581.37C187,-573.15 187,-563.66 187,-554.73"/>
<polygon fill="#9acd32" stroke="#9acd32" points="190.5,-554.61 187,-544.61 183.5,-554.61 190.5,-554.61"/>
</g>
<!-- node_0x504000000910 -->
<g id="node8" class="node">
<title>node_0x504000000910</title>
<path fill="#08c41e" stroke="#ffe9c7" d="M111.5,-415.5C111.5,-415.5 164.5,-415.5 164.5,-415.5 170.5,-415.5 176.5,-421.5 176.5,-427.5 176.5,-427.5 176.5,-449.5 176.5,-449.5 176.5,-455.5 170.5,-461.5 164.5,-461.5 164.5,-461.5 111.5,-461.5 111.5,-461.5 105.5,-461.5 99.5,-455.5 99.5,-449.5 99.5,-449.5 99.5,-427.5 99.5,-427.5 99.5,-421.5 105.5,-415.5 111.5,-415.5"/>
<text text-anchor="middle" x="138" y="-446.3" font-family="Times,serif" font-size="14.00">Var Decl</text>
<polyline fill="none" stroke="#ffe9c7" points="99.5,-438.5 176.5,-438.5 "/>
<text text-anchor="middle" x="138" y="-423.3" font-family="Times,serif" font-size="14.00">one</text>
</g>
<!-- node_0x504000000b10&#45;&gt;node_0x504000000910 -->
<g id="edge7" class="edge">
<title>node_0x504000000b10&#45;&gt;node_0x504000000910</title>
<path fill="none" stroke="#9acd32" d="M173.61,-498.37C168.37,-489.71 162.27,-479.62 156.62,-470.27"/>
<polygon fill="#9acd32" stroke="#9acd32" points="159.54,-468.35 151.37,-461.61 153.55,-471.97 159.54,-468.35"/>
</g>
<!-- node_0x504000000bd0 -->
<g id="node18" class="node">
<title>node_0x504000000bd0</title>
<path fill="#08c41e" stroke="#ffe9c7" d="M209.5,-415.5C209.5,-415.5 262.5,-415.5 262.5,-415.5 268.5,-415.5 274.5,-421.5 274.5,-427.5 274.5,-427.5 274.5,-449.5 274.5,-449.5 274.5,-455.5 268.5,-461.5 262.5,-461.5 262.5,-461.5 209.5,-461.5 209.5,-461.5 203.5,-461.5 197.5,-455.5 197.5,-449.5 197.5,-449.5 197.5,-427.5 197.5,-427.5 197.5,-421.5 203.5,-415.5 209.5,-415.5"/>
<text text-anchor="middle" x="236" y="-446.3" font-family="Times,serif" font-size="14.00">Var Decl</text>
<polyline fill="none" stroke="#ffe9c7" points="197.5,-438.5 274.5,-438.5 "/>
<text text-anchor="middle" x="236" y="-423.3" font-family="Times,serif" font-size="14.00">two</text>
</g>
<!-- node_0x504000000b10&#45;&gt;node_0x504000000bd0 -->
<g id="edge17" class="edge">
<title>node_0x504000000b10&#45;&gt;node_0x504000000bd0</title>
<path fill="none" stroke="#ff2b00" d="M200.39,-498.37C205.63,-489.71 211.73,-479.62 217.38,-470.27"/>
<polygon fill="#ff2b00" stroke="#ff2b00" points="220.45,-471.97 222.63,-461.61 214.46,-468.35 220.45,-471.97"/>
</g>
<!-- node_0x504000000890 -->
<g id="node9" class="node">
<title>node_0x504000000890</title>
<path fill="#9966ff" stroke="#ffe9c7" d="M12,-332.5C12,-332.5 68,-332.5 68,-332.5 74,-332.5 80,-338.5 80,-344.5 80,-344.5 80,-366.5 80,-366.5 80,-372.5 74,-378.5 68,-378.5 68,-378.5 12,-378.5 12,-378.5 6,-378.5 0,-372.5 0,-366.5 0,-366.5 0,-344.5 0,-344.5 0,-338.5 6,-332.5 12,-332.5"/>
<text text-anchor="middle" x="40" y="-363.3" font-family="Times,serif" font-size="14.00">KeyWord</text>
<polyline fill="none" stroke="#ffe9c7" points="0,-355.5 80,-355.5 "/>
<text text-anchor="middle" x="40" y="-340.3" font-family="Times,serif" font-size="14.00">int</text>
</g>
<!-- node_0x504000000910&#45;&gt;node_0x504000000890 -->
<g id="edge8" class="edge">
<title>node_0x504000000910&#45;&gt;node_0x504000000890</title>
<path fill="none" stroke="#9acd32" d="M111.22,-415.37C99.99,-406.08 86.77,-395.16 74.8,-385.26"/>
<polygon fill="#9acd32" stroke="#9acd32" points="76.68,-382.28 66.75,-378.61 72.22,-387.68 76.68,-382.28"/>
</g>
<!-- node_0x504000000950 -->
<g id="node10" class="node">
<title>node_0x504000000950</title>
<path fill="#9966ff" stroke="#ffe9c7" d="M110,-332.5C110,-332.5 166,-332.5 166,-332.5 172,-332.5 178,-338.5 178,-344.5 178,-344.5 178,-366.5 178,-366.5 178,-372.5 172,-378.5 166,-378.5 166,-378.5 110,-378.5 110,-378.5 104,-378.5 98,-372.5 98,-366.5 98,-366.5 98,-344.5 98,-344.5 98,-338.5 104,-332.5 110,-332.5"/>
<text text-anchor="middle" x="138" y="-363.3" font-family="Times,serif" font-size="14.00">KeyWord</text>
<polyline fill="none" stroke="#ffe9c7" points="98,-355.5 178,-355.5 "/>
<text text-anchor="middle" x="138" y="-340.3" font-family="Times,serif" font-size="14.00">=</text>
</g>
<!-- node_0x504000000910&#45;&gt;node_0x504000000950 -->
<g id="edge9" class="edge">
<title>node_0x504000000910&#45;&gt;node_0x504000000950</title>
<path fill="none" stroke="#ff2b00" d="M138,-415.37C138,-407.15 138,-397.66 138,-388.73"/>
<polygon fill="#ff2b00" stroke="#ff2b00" points="141.5,-388.61 138,-378.61 134.5,-388.61 141.5,-388.61"/>
</g>
<!-- node_0x5040000008d0 -->
<g id="node11" class="node">
<title>node_0x5040000008d0</title>
<path fill="#ff6699" stroke="#ffe9c7" d="M25.5,-249.5C25.5,-249.5 84.5,-249.5 84.5,-249.5 90.5,-249.5 96.5,-255.5 96.5,-261.5 96.5,-261.5 96.5,-283.5 96.5,-283.5 96.5,-289.5 90.5,-295.5 84.5,-295.5 84.5,-295.5 25.5,-295.5 25.5,-295.5 19.5,-295.5 13.5,-289.5 13.5,-283.5 13.5,-283.5 13.5,-261.5 13.5,-261.5 13.5,-255.5 19.5,-249.5 25.5,-249.5"/>
<text text-anchor="middle" x="55" y="-280.3" font-family="Times,serif" font-size="14.00">Identifier</text>
<polyline fill="none" stroke="#ffe9c7" points="13.5,-272.5 96.5,-272.5 "/>
<text text-anchor="middle" x="55" y="-257.3" font-family="Times,serif" font-size="14.00">1</text>
</g>
<!-- node_0x504000000950&#45;&gt;node_0x5040000008d0 -->
<g id="edge10" class="edge">
<title>node_0x504000000950&#45;&gt;node_0x5040000008d0</title>
<path fill="none" stroke="#9acd32" d="M115.32,-332.37C105.99,-323.26 95.04,-312.58 85.06,-302.83"/>
<polygon fill="#9acd32" stroke="#9acd32" points="87.25,-300.09 77.65,-295.61 82.36,-305.1 87.25,-300.09"/>
</g>
<!-- node_0x5040000009d0 -->
<g id="node12" class="node">
<title>node_0x5040000009d0</title>
<path fill="#916306" stroke="#ffe9c7" d="M127,-249.5C127,-249.5 157,-249.5 157,-249.5 163,-249.5 169,-255.5 169,-261.5 169,-261.5 169,-283.5 169,-283.5 169,-289.5 163,-295.5 157,-295.5 157,-295.5 127,-295.5 127,-295.5 121,-295.5 115,-289.5 115,-283.5 115,-283.5 115,-261.5 115,-261.5 115,-255.5 121,-249.5 127,-249.5"/>
<text text-anchor="middle" x="142" y="-280.3" font-family="Times,serif" font-size="14.00">Call</text>
<polyline fill="none" stroke="#ffe9c7" points="115,-272.5 169,-272.5 "/>
<text text-anchor="middle" x="142" y="-257.3" font-family="Times,serif" font-size="14.00">∅</text>
</g>
<!-- node_0x504000000950&#45;&gt;node_0x5040000009d0 -->
<g id="edge11" class="edge">
<title>node_0x504000000950&#45;&gt;node_0x5040000009d0</title>
<path fill="none" stroke="#ff2b00" d="M139.09,-332.37C139.5,-324.15 139.97,-314.66 140.41,-305.73"/>
<polygon fill="#ff2b00" stroke="#ff2b00" points="143.91,-305.77 140.91,-295.61 136.92,-305.42 143.91,-305.77"/>
</g>
<!-- node_0x504000000a10 -->
<g id="node13" class="node">
<title>node_0x504000000a10</title>
<path fill="#9966ff" stroke="#ffe9c7" d="M64,-166.5C64,-166.5 120,-166.5 120,-166.5 126,-166.5 132,-172.5 132,-178.5 132,-178.5 132,-200.5 132,-200.5 132,-206.5 126,-212.5 120,-212.5 120,-212.5 64,-212.5 64,-212.5 58,-212.5 52,-206.5 52,-200.5 52,-200.5 52,-178.5 52,-178.5 52,-172.5 58,-166.5 64,-166.5"/>
<text text-anchor="middle" x="92" y="-197.3" font-family="Times,serif" font-size="14.00">KeyWord</text>
<polyline fill="none" stroke="#ffe9c7" points="52,-189.5 132,-189.5 "/>
<text text-anchor="middle" x="92" y="-174.3" font-family="Times,serif" font-size="14.00">sin</text>
</g>
<!-- node_0x5040000009d0&#45;&gt;node_0x504000000a10 -->
<g id="edge12" class="edge">
<title>node_0x5040000009d0&#45;&gt;node_0x504000000a10</title>
<path fill="none" stroke="#9acd32" d="M128.34,-249.37C122.99,-240.71 116.77,-230.62 111,-221.27"/>
<polygon fill="#9acd32" stroke="#9acd32" points="113.88,-219.28 105.65,-212.61 107.92,-222.95 113.88,-219.28"/>
</g>
<!-- node_0x504000000990 -->
<g id="node17" class="node">
<title>node_0x504000000990</title>
<path fill="#ff6699" stroke="#ffe9c7" d="M162.5,-166.5C162.5,-166.5 221.5,-166.5 221.5,-166.5 227.5,-166.5 233.5,-172.5 233.5,-178.5 233.5,-178.5 233.5,-200.5 233.5,-200.5 233.5,-206.5 227.5,-212.5 221.5,-212.5 221.5,-212.5 162.5,-212.5 162.5,-212.5 156.5,-212.5 150.5,-206.5 150.5,-200.5 150.5,-200.5 150.5,-178.5 150.5,-178.5 150.5,-172.5 156.5,-166.5 162.5,-166.5"/>
<text text-anchor="middle" x="192" y="-197.3" font-family="Times,serif" font-size="14.00">Identifier</text>
<polyline fill="none" stroke="#ffe9c7" points="150.5,-189.5 233.5,-189.5 "/>
<text text-anchor="middle" x="192" y="-174.3" font-family="Times,serif" font-size="14.00">2</text>
</g>
<!-- node_0x5040000009d0&#45;&gt;node_0x504000000990 -->
<g id="edge16" class="edge">
<title>node_0x5040000009d0&#45;&gt;node_0x504000000990</title>
<path fill="none" stroke="#ff2b00" d="M155.66,-249.37C161.01,-240.71 167.23,-230.62 173,-221.27"/>
<polygon fill="#ff2b00" stroke="#ff2b00" points="176.08,-222.95 178.35,-212.61 170.12,-219.28 176.08,-222.95"/>
</g>
<!-- node_0x504000000a90 -->
<g id="node14" class="node">
<title>node_0x504000000a90</title>
<path fill="#9966ff" stroke="#ffe9c7" d="M64,-83.5C64,-83.5 120,-83.5 120,-83.5 126,-83.5 132,-89.5 132,-95.5 132,-95.5 132,-117.5 132,-117.5 132,-123.5 126,-129.5 120,-129.5 120,-129.5 64,-129.5 64,-129.5 58,-129.5 52,-123.5 52,-117.5 52,-117.5 52,-95.5 52,-95.5 52,-89.5 58,-83.5 64,-83.5"/>
<text text-anchor="middle" x="92" y="-114.3" font-family="Times,serif" font-size="14.00">KeyWord</text>
<polyline fill="none" stroke="#ffe9c7" points="52,-106.5 132,-106.5 "/>
<text text-anchor="middle" x="92" y="-91.3" font-family="Times,serif" font-size="14.00">+</text>
</g>
<!-- node_0x504000000a10&#45;&gt;node_0x504000000a90 -->
<g id="edge13" class="edge">
<title>node_0x504000000a10&#45;&gt;node_0x504000000a90</title>
<path fill="none" stroke="#ff2b00" d="M92,-166.37C92,-158.15 92,-148.66 92,-139.73"/>
<polygon fill="#ff2b00" stroke="#ff2b00" points="95.5,-139.61 92,-129.61 88.5,-139.61 95.5,-139.61"/>
</g>
<!-- node_0x504000000a50 -->
<g id="node15" class="node">
<title>node_0x504000000a50</title>
<path fill="#03cffc" stroke="#ffe9c7" d="M14.5,-0.5C14.5,-0.5 71.5,-0.5 71.5,-0.5 77.5,-0.5 83.5,-6.5 83.5,-12.5 83.5,-12.5 83.5,-34.5 83.5,-34.5 83.5,-40.5 77.5,-46.5 71.5,-46.5 71.5,-46.5 14.5,-46.5 14.5,-46.5 8.5,-46.5 2.5,-40.5 2.5,-34.5 2.5,-34.5 2.5,-12.5 2.5,-12.5 2.5,-6.5 8.5,-0.5 14.5,-0.5"/>
<text text-anchor="middle" x="43" y="-31.3" font-family="Times,serif" font-size="14.00">Constant</text>
<polyline fill="none" stroke="#ffe9c7" points="2.5,-23.5 83.5,-23.5 "/>
<text text-anchor="middle" x="43" y="-8.3" font-family="Times,serif" font-size="14.00">15</text>
</g>
<!-- node_0x504000000a90&#45;&gt;node_0x504000000a50 -->
<g id="edge14" class="edge">
<title>node_0x504000000a90&#45;&gt;node_0x504000000a50</title>
<path fill="none" stroke="#9acd32" d="M78.61,-83.37C73.37,-74.71 67.27,-64.62 61.62,-55.27"/>
<polygon fill="#9acd32" stroke="#9acd32" points="64.54,-53.35 56.37,-46.61 58.55,-56.97 64.54,-53.35"/>
</g>
<!-- node_0x504000000ad0 -->
<g id="node16" class="node">
<title>node_0x504000000ad0</title>
<path fill="#03cffc" stroke="#ffe9c7" d="M113.5,-0.5C113.5,-0.5 170.5,-0.5 170.5,-0.5 176.5,-0.5 182.5,-6.5 182.5,-12.5 182.5,-12.5 182.5,-34.5 182.5,-34.5 182.5,-40.5 176.5,-46.5 170.5,-46.5 170.5,-46.5 113.5,-46.5 113.5,-46.5 107.5,-46.5 101.5,-40.5 101.5,-34.5 101.5,-34.5 101.5,-12.5 101.5,-12.5 101.5,-6.5 107.5,-0.5 113.5,-0.5"/>
<text text-anchor="middle" x="142" y="-31.3" font-family="Times,serif" font-size="14.00">Constant</text>
<polyline fill="none" stroke="#ffe9c7" points="101.5,-23.5 182.5,-23.5 "/>
<text text-anchor="middle" x="142" y="-8.3" font-family="Times,serif" font-size="14.00">1</text>
</g>
<!-- node_0x504000000a90&#45;&gt;node_0x504000000ad0 -->
<g id="edge15" class="edge">
<title>node_0x504000000a90&#45;&gt;node_0x504000000ad0</title>
<path fill="none" stroke="#ff2b00" d="M105.66,-83.37C111.01,-74.71 117.23,-64.62 123,-55.27"/>
<polygon fill="#ff2b00" stroke="#ff2b00" points="126.08,-56.95 128.35,-46.61 120.12,-53.28 126.08,-56.95"/>
</g>
<!-- node_0x504000000b50 -->
<g id="node19" class="node">
<title>node_0x504000000b50</title>
<path fill="#9966ff" stroke="#ffe9c7" d="M208,-332.5C208,-332.5 264,-332.5 264,-332.5 270,-332.5 276,-338.5 276,-344.5 276,-344.5 276,-366.5 276,-366.5 276,-372.5 270,-378.5 264,-378.5 264,-378.5 208,-378.5 208,-378.5 202,-378.5 196,-372.5 196,-366.5 196,-366.5 196,-344.5 196,-344.5 196,-338.5 202,-332.5 208,-332.5"/>
<text text-anchor="middle" x="236" y="-363.3" font-family="Times,serif" font-size="14.00">KeyWord</text>
<polyline fill="none" stroke="#ffe9c7" points="196,-355.5 276,-355.5 "/>
<text text-anchor="middle" x="236" y="-340.3" font-family="Times,serif" font-size="14.00">int</text>
</g>
<!-- node_0x504000000bd0&#45;&gt;node_0x504000000b50 -->
<g id="edge18" class="edge">
<title>node_0x504000000bd0&#45;&gt;node_0x504000000b50</title>
<path fill="none" stroke="#9acd32" d="M236,-415.37C236,-407.15 236,-397.66 236,-388.73"/>
<polygon fill="#9acd32" stroke="#9acd32" points="239.5,-388.61 236,-378.61 232.5,-388.61 239.5,-388.61"/>
</g>
<!-- node_0x504000000c10 -->
<g id="node20" class="node">
<title>node_0x504000000c10</title>
<path fill="#9966ff" stroke="#ffe9c7" d="M306,-332.5C306,-332.5 362,-332.5 362,-332.5 368,-332.5 374,-338.5 374,-344.5 374,-344.5 374,-366.5 374,-366.5 374,-372.5 368,-378.5 362,-378.5 362,-378.5 306,-378.5 306,-378.5 300,-378.5 294,-372.5 294,-366.5 294,-366.5 294,-344.5 294,-344.5 294,-338.5 300,-332.5 306,-332.5"/>
<text text-anchor="middle" x="334" y="-363.3" font-family="Times,serif" font-size="14.00">KeyWord</text>
<polyline fill="none" stroke="#ffe9c7" points="294,-355.5 374,-355.5 "/>
<text text-anchor="middle" x="334" y="-340.3" font-family="Times,serif" font-size="14.00">=</text>
</g>
<!-- node_0x504000000bd0&#45;&gt;node_0x504000000c10 -->
<g id="edge19" class="edge">
<title>node_0x504000000bd0&#45;&gt;node_0x504000000c10</title>
<path fill="none" stroke="#ff2b00" d="M262.78,-415.37C274.01,-406.08 287.23,-395.16 299.2,-385.26"/>
<polygon fill="#ff2b00" stroke="#ff2b00" points="301.78,-387.68 307.25,-378.61 297.32,-382.28 301.78,-387.68"/>
</g>
<!-- node_0x504000000b90 -->
<g id="node21" class="node">
<title>node_0x504000000b90</title>
<path fill="#ff6699" stroke="#ffe9c7" d="M254.5,-249.5C254.5,-249.5 313.5,-249.5 313.5,-249.5 319.5,-249.5 325.5,-255.5 325.5,-261.5 325.5,-261.5 325.5,-283.5 325.5,-283.5 325.5,-289.5 319.5,-295.5 313.5,-295.5 313.5,-295.5 254.5,-295.5 254.5,-295.5 248.5,-295.5 242.5,-289.5 242.5,-283.5 242.5,-283.5 242.5,-261.5 242.5,-261.5 242.5,-255.5 248.5,-249.5 254.5,-249.5"/>
<text text-anchor="middle" x="284" y="-280.3" font-family="Times,serif" font-size="14.00">Identifier</text>
<polyline fill="none" stroke="#ffe9c7" points="242.5,-272.5 325.5,-272.5 "/>
<text text-anchor="middle" x="284" y="-257.3" font-family="Times,serif" font-size="14.00">3</text>
</g>
<!-- node_0x504000000c10&#45;&gt;node_0x504000000b90 -->
<g id="edge20" class="edge">
<title>node_0x504000000c10&#45;&gt;node_0x504000000b90</title>
<path fill="none" stroke="#9acd32" d="M320.34,-332.37C314.99,-323.71 308.77,-313.62 303,-304.27"/>
<polygon fill="#9acd32" stroke="#9acd32" points="305.88,-302.28 297.65,-295.61 299.92,-305.95 305.88,-302.28"/>
</g>
<!-- node_0x504000000c50 -->
<g id="node22" class="node">
<title>node_0x504000000c50</title>
<path fill="#03cffc" stroke="#ffe9c7" d="M355.5,-249.5C355.5,-249.5 412.5,-249.5 412.5,-249.5 418.5,-249.5 424.5,-255.5 424.5,-261.5 424.5,-261.5 424.5,-283.5 424.5,-283.5 424.5,-289.5 418.5,-295.5 412.5,-295.5 412.5,-295.5 355.5,-295.5 355.5,-295.5 349.5,-295.5 343.5,-289.5 343.5,-283.5 343.5,-283.5 343.5,-261.5 343.5,-261.5 343.5,-255.5 349.5,-249.5 355.5,-249.5"/>
<text text-anchor="middle" x="384" y="-280.3" font-family="Times,serif" font-size="14.00">Constant</text>
<polyline fill="none" stroke="#ffe9c7" points="343.5,-272.5 424.5,-272.5 "/>
<text text-anchor="middle" x="384" y="-257.3" font-family="Times,serif" font-size="14.00">15</text>
</g>
<!-- node_0x504000000c10&#45;&gt;node_0x504000000c50 -->
<g id="edge21" class="edge">
<title>node_0x504000000c10&#45;&gt;node_0x504000000c50</title>
<path fill="none" stroke="#ff2b00" d="M347.66,-332.37C353.01,-323.71 359.23,-313.62 365,-304.27"/>
<polygon fill="#ff2b00" stroke="#ff2b00" points="368.08,-305.95 370.35,-295.61 362.12,-302.28 368.08,-305.95"/>
</g>
<!-- node_0x504000000cd0 -->
<g id="node24" class="node">
<title>node_0x504000000cd0</title>
<path fill="#9966ff" stroke="#ffe9c7" d="M267,-664.5C267,-664.5 323,-664.5 323,-664.5 329,-664.5 335,-670.5 335,-676.5 335,-676.5 335,-698.5 335,-698.5 335,-704.5 329,-710.5 323,-710.5 323,-710.5 267,-710.5 267,-710.5 261,-710.5 255,-704.5 255,-698.5 255,-698.5 255,-676.5 255,-676.5 255,-670.5 261,-664.5 267,-664.5"/>
<text text-anchor="middle" x="295" y="-695.3" font-family="Times,serif" font-size="14.00">KeyWord</text>
<polyline fill="none" stroke="#ffe9c7" points="255,-687.5 335,-687.5 "/>
<text text-anchor="middle" x="295" y="-672.3" font-family="Times,serif" font-size="14.00">int</text>
</g>
<!-- node_0x504000000d10&#45;&gt;node_0x504000000cd0 -->
<g id="edge23" class="edge">
<title>node_0x504000000d10&#45;&gt;node_0x504000000cd0</title>
<path fill="none" stroke="#9acd32" d="M295.73,-747.37C295.63,-739.15 295.51,-729.66 295.4,-720.73"/>
<polygon fill="#9acd32" stroke="#9acd32" points="298.9,-720.56 295.27,-710.61 291.9,-720.65 298.9,-720.56"/>
</g>
<!-- node_0x504000000d50 -->
<g id="node25" class="node">
<title>node_0x504000000d50</title>
<path fill="#fc0303" stroke="#ffe9c7" d="M365.5,-664.5C365.5,-664.5 440.5,-664.5 440.5,-664.5 446.5,-664.5 452.5,-670.5 452.5,-676.5 452.5,-676.5 452.5,-698.5 452.5,-698.5 452.5,-704.5 446.5,-710.5 440.5,-710.5 440.5,-710.5 365.5,-710.5 365.5,-710.5 359.5,-710.5 353.5,-704.5 353.5,-698.5 353.5,-698.5 353.5,-676.5 353.5,-676.5 353.5,-670.5 359.5,-664.5 365.5,-664.5"/>
<text text-anchor="middle" x="403" y="-695.3" font-family="Times,serif" font-size="14.00">Parameters</text>
<polyline fill="none" stroke="#ffe9c7" points="353.5,-687.5 452.5,-687.5 "/>
<text text-anchor="middle" x="403" y="-672.3" font-family="Times,serif" font-size="14.00">∅</text>
</g>
<!-- node_0x504000000d10&#45;&gt;node_0x504000000d50 -->
<g id="edge24" class="edge">
<title>node_0x504000000d10&#45;&gt;node_0x504000000d50</title>
<path fill="none" stroke="#ff2b00" d="M325.24,-747.37C337.74,-737.9 352.49,-726.74 365.76,-716.69"/>
<polygon fill="#ff2b00" stroke="#ff2b00" points="367.94,-719.43 373.8,-710.61 363.71,-713.85 367.94,-719.43"/>
</g>
<!-- node_0x504000000d90 -->
<g id="node26" class="node">
<title>node_0x504000000d90</title>
<path fill="#9966ff" stroke="#ffe9c7" d="M375,-581.5C375,-581.5 431,-581.5 431,-581.5 437,-581.5 443,-587.5 443,-593.5 443,-593.5 443,-615.5 443,-615.5 443,-621.5 437,-627.5 431,-627.5 431,-627.5 375,-627.5 375,-627.5 369,-627.5 363,-621.5 363,-615.5 363,-615.5 363,-593.5 363,-593.5 363,-587.5 369,-581.5 375,-581.5"/>
<text text-anchor="middle" x="403" y="-612.3" font-family="Times,serif" font-size="14.00">KeyWord</text>
<polyline fill="none" stroke="#ffe9c7" points="363,-604.5 443,-604.5 "/>
<text text-anchor="middle" x="403" y="-589.3" font-family="Times,serif" font-size="14.00">;</text>
</g>
<!-- node_0x504000000d50&#45;&gt;node_0x504000000d90 -->
<g id="edge25" class="edge">
<title>node_0x504000000d50&#45;&gt;node_0x504000000d90</title>
<path fill="none" stroke="#ff2b00" d="M403,-664.37C403,-656.15 403,-646.66 403,-637.73"/>
<polygon fill="#ff2b00" stroke="#ff2b00" points="406.5,-637.61 403,-627.61 399.5,-637.61 406.5,-637.61"/>
</g>
<!-- node_0x504000000e50 -->
<g id="node27" class="node">
<title>node_0x504000000e50</title>
<path fill="#08c41e" stroke="#ffe9c7" d="M376.5,-498.5C376.5,-498.5 429.5,-498.5 429.5,-498.5 435.5,-498.5 441.5,-504.5 441.5,-510.5 441.5,-510.5 441.5,-532.5 441.5,-532.5 441.5,-538.5 435.5,-544.5 429.5,-544.5 429.5,-544.5 376.5,-544.5 376.5,-544.5 370.5,-544.5 364.5,-538.5 364.5,-532.5 364.5,-532.5 364.5,-510.5 364.5,-510.5 364.5,-504.5 370.5,-498.5 376.5,-498.5"/>
<text text-anchor="middle" x="403" y="-529.3" font-family="Times,serif" font-size="14.00">Var Decl</text>
<polyline fill="none" stroke="#ffe9c7" points="364.5,-521.5 441.5,-521.5 "/>
<text text-anchor="middle" x="403" y="-506.3" font-family="Times,serif" font-size="14.00">three</text>
</g>
<!-- node_0x504000000d90&#45;&gt;node_0x504000000e50 -->
<g id="edge26" class="edge">
<title>node_0x504000000d90&#45;&gt;node_0x504000000e50</title>
<path fill="none" stroke="#9acd32" d="M403,-581.37C403,-573.15 403,-563.66 403,-554.73"/>
<polygon fill="#9acd32" stroke="#9acd32" points="406.5,-554.61 403,-544.61 399.5,-554.61 406.5,-554.61"/>
</g>
<!-- node_0x504000000dd0 -->
<g id="node28" class="node">
<title>node_0x504000000dd0</title>
<path fill="#9966ff" stroke="#ffe9c7" d="M333,-415.5C333,-415.5 389,-415.5 389,-415.5 395,-415.5 401,-421.5 401,-427.5 401,-427.5 401,-449.5 401,-449.5 401,-455.5 395,-461.5 389,-461.5 389,-461.5 333,-461.5 333,-461.5 327,-461.5 321,-455.5 321,-449.5 321,-449.5 321,-427.5 321,-427.5 321,-421.5 327,-415.5 333,-415.5"/>
<text text-anchor="middle" x="361" y="-446.3" font-family="Times,serif" font-size="14.00">KeyWord</text>
<polyline fill="none" stroke="#ffe9c7" points="321,-438.5 401,-438.5 "/>
<text text-anchor="middle" x="361" y="-423.3" font-family="Times,serif" font-size="14.00">int</text>
</g>
<!-- node_0x504000000e50&#45;&gt;node_0x504000000dd0 -->
<g id="edge27" class="edge">
<title>node_0x504000000e50&#45;&gt;node_0x504000000dd0</title>
<path fill="none" stroke="#9acd32" d="M391.52,-498.37C387.08,-489.79 381.91,-479.83 377.11,-470.56"/>
<polygon fill="#9acd32" stroke="#9acd32" points="380.17,-468.87 372.46,-461.61 373.96,-472.1 380.17,-468.87"/>
</g>
<!-- node_0x504000000e90 -->
<g id="node29" class="node">
<title>node_0x504000000e90</title>
<path fill="#9966ff" stroke="#ffe9c7" d="M431,-415.5C431,-415.5 487,-415.5 487,-415.5 493,-415.5 499,-421.5 499,-427.5 499,-427.5 499,-449.5 499,-449.5 499,-455.5 493,-461.5 487,-461.5 487,-461.5 431,-461.5 431,-461.5 425,-461.5 419,-455.5 419,-449.5 419,-449.5 419,-427.5 419,-427.5 419,-421.5 425,-415.5 431,-415.5"/>
<text text-anchor="middle" x="459" y="-446.3" font-family="Times,serif" font-size="14.00">KeyWord</text>
<polyline fill="none" stroke="#ffe9c7" points="419,-438.5 499,-438.5 "/>
<text text-anchor="middle" x="459" y="-423.3" font-family="Times,serif" font-size="14.00">=</text>
</g>
<!-- node_0x504000000e50&#45;&gt;node_0x504000000e90 -->
<g id="edge28" class="edge">
<title>node_0x504000000e50&#45;&gt;node_0x504000000e90</title>
<path fill="none" stroke="#ff2b00" d="M418.3,-498.37C424.35,-489.62 431.41,-479.41 437.92,-469.99"/>
<polygon fill="#ff2b00" stroke="#ff2b00" points="440.91,-471.82 443.72,-461.61 435.15,-467.84 440.91,-471.82"/>
</g>
<!-- node_0x504000000e10 -->
<g id="node30" class="node">
<title>node_0x504000000e10</title>
<path fill="#ff6699" stroke="#ffe9c7" d="M413.5,-332.5C413.5,-332.5 472.5,-332.5 472.5,-332.5 478.5,-332.5 484.5,-338.5 484.5,-344.5 484.5,-344.5 484.5,-366.5 484.5,-366.5 484.5,-372.5 478.5,-378.5 472.5,-378.5 472.5,-378.5 413.5,-378.5 413.5,-378.5 407.5,-378.5 401.5,-372.5 401.5,-366.5 401.5,-366.5 401.5,-344.5 401.5,-344.5 401.5,-338.5 407.5,-332.5 413.5,-332.5"/>
<text text-anchor="middle" x="443" y="-363.3" font-family="Times,serif" font-size="14.00">Identifier</text>
<polyline fill="none" stroke="#ffe9c7" points="401.5,-355.5 484.5,-355.5 "/>
<text text-anchor="middle" x="443" y="-340.3" font-family="Times,serif" font-size="14.00">5</text>
</g>
<!-- node_0x504000000e90&#45;&gt;node_0x504000000e10 -->
<g id="edge29" class="edge">
<title>node_0x504000000e90&#45;&gt;node_0x504000000e10</title>
<path fill="none" stroke="#9acd32" d="M454.63,-415.37C452.99,-407.06 451.09,-397.45 449.31,-388.43"/>
<polygon fill="#9acd32" stroke="#9acd32" points="452.74,-387.74 447.37,-378.61 445.87,-389.1 452.74,-387.74"/>
</g>
<!-- node_0x504000000ed0 -->
<g id="node31" class="node">
<title>node_0x504000000ed0</title>
<path fill="#03cffc" stroke="#ffe9c7" d="M514.5,-332.5C514.5,-332.5 571.5,-332.5 571.5,-332.5 577.5,-332.5 583.5,-338.5 583.5,-344.5 583.5,-344.5 583.5,-366.5 583.5,-366.5 583.5,-372.5 577.5,-378.5 571.5,-378.5 571.5,-378.5 514.5,-378.5 514.5,-378.5 508.5,-378.5 502.5,-372.5 502.5,-366.5 502.5,-366.5 502.5,-344.5 502.5,-344.5 502.5,-338.5 508.5,-332.5 514.5,-332.5"/>
<text text-anchor="middle" x="543" y="-363.3" font-family="Times,serif" font-size="14.00">Constant</text>
<polyline fill="none" stroke="#ffe9c7" points="502.5,-355.5 583.5,-355.5 "/>
<text text-anchor="middle" x="543" y="-340.3" font-family="Times,serif" font-size="14.00">15</text>
</g>
<!-- node_0x504000000e90&#45;&gt;node_0x504000000ed0 -->
<g id="edge30" class="edge">
<title>node_0x504000000e90&#45;&gt;node_0x504000000ed0</title>
<path fill="none" stroke="#ff2b00" d="M481.95,-415.37C491.49,-406.17 502.69,-395.37 512.88,-385.55"/>
<polygon fill="#ff2b00" stroke="#ff2b00" points="515.31,-388.07 520.07,-378.61 510.45,-383.03 515.31,-388.07"/>
</g>
<!-- node_0x504000000f50 -->
<g id="node33" class="node">
<title>node_0x504000000f50</title>
<path fill="#9966ff" stroke="#ffe9c7" d="M371,-747.5C371,-747.5 427,-747.5 427,-747.5 433,-747.5 439,-753.5 439,-759.5 439,-759.5 439,-781.5 439,-781.5 439,-787.5 433,-793.5 427,-793.5 427,-793.5 371,-793.5 371,-793.5 365,-793.5 359,-787.5 359,-781.5 359,-781.5 359,-759.5 359,-759.5 359,-753.5 365,-747.5 371,-747.5"/>
<text text-anchor="middle" x="399" y="-778.3" font-family="Times,serif" font-size="14.00">KeyWord</text>
<polyline fill="none" stroke="#ffe9c7" points="359,-770.5 439,-770.5 "/>
<text text-anchor="middle" x="399" y="-755.3" font-family="Times,serif" font-size="14.00">int</text>
</g>
<!-- node_0x504000000f90&#45;&gt;node_0x504000000f50 -->
<g id="edge32" class="edge">
<title>node_0x504000000f90&#45;&gt;node_0x504000000f50</title>
<path fill="none" stroke="#9acd32" d="M399,-830.37C399,-822.15 399,-812.66 399,-803.73"/>
<polygon fill="#9acd32" stroke="#9acd32" points="402.5,-803.61 399,-793.61 395.5,-803.61 402.5,-803.61"/>
</g>
<!-- node_0x504000000fd0 -->
<g id="node34" class="node">
<title>node_0x504000000fd0</title>
<path fill="#fc0303" stroke="#ffe9c7" d="M471.5,-747.5C471.5,-747.5 546.5,-747.5 546.5,-747.5 552.5,-747.5 558.5,-753.5 558.5,-759.5 558.5,-759.5 558.5,-781.5 558.5,-781.5 558.5,-787.5 552.5,-793.5 546.5,-793.5 546.5,-793.5 471.5,-793.5 471.5,-793.5 465.5,-793.5 459.5,-787.5 459.5,-781.5 459.5,-781.5 459.5,-759.5 459.5,-759.5 459.5,-753.5 465.5,-747.5 471.5,-747.5"/>
<text text-anchor="middle" x="509" y="-778.3" font-family="Times,serif" font-size="14.00">Parameters</text>
<polyline fill="none" stroke="#ffe9c7" points="459.5,-770.5 558.5,-770.5 "/>
<text text-anchor="middle" x="509" y="-755.3" font-family="Times,serif" font-size="14.00">∅</text>
</g>
<!-- node_0x504000000f90&#45;&gt;node_0x504000000fd0 -->
<g id="edge33" class="edge">
<title>node_0x504000000f90&#45;&gt;node_0x504000000fd0</title>
<path fill="none" stroke="#ff2b00" d="M429.06,-830.37C441.91,-820.9 457.07,-809.74 470.71,-799.69"/>
<polygon fill="#ff2b00" stroke="#ff2b00" points="473,-802.35 478.98,-793.61 468.85,-796.72 473,-802.35"/>
</g>
<!-- node_0x504000001010 -->
<g id="node35" class="node">
<title>node_0x504000001010</title>
<path fill="#9966ff" stroke="#ffe9c7" d="M483,-664.5C483,-664.5 539,-664.5 539,-664.5 545,-664.5 551,-670.5 551,-676.5 551,-676.5 551,-698.5 551,-698.5 551,-704.5 545,-710.5 539,-710.5 539,-710.5 483,-710.5 483,-710.5 477,-710.5 471,-704.5 471,-698.5 471,-698.5 471,-676.5 471,-676.5 471,-670.5 477,-664.5 483,-664.5"/>
<text text-anchor="middle" x="511" y="-695.3" font-family="Times,serif" font-size="14.00">KeyWord</text>
<polyline fill="none" stroke="#ffe9c7" points="471,-687.5 551,-687.5 "/>
<text text-anchor="middle" x="511" y="-672.3" font-family="Times,serif" font-size="14.00">;</text>
</g>
<!-- node_0x504000000fd0&#45;&gt;node_0x504000001010 -->
<g id="edge34" class="edge">
<title>node_0x504000000fd0&#45;&gt;node_0x504000001010</title>
<path fill="none" stroke="#ff2b00" d="M509.55,-747.37C509.75,-739.15 509.98,-729.66 510.2,-720.73"/>
<polygon fill="#ff2b00" stroke="#ff2b00" points="513.71,-720.69 510.45,-710.61 506.71,-720.52 513.71,-720.69"/>
</g>
<!-- node_0x5040000010d0 -->
<g id="node36" class="node">
<title>node_0x5040000010d0</title>
<path fill="#08c41e" stroke="#ffe9c7" d="M484.5,-581.5C484.5,-581.5 537.5,-581.5 537.5,-581.5 543.5,-581.5 549.5,-587.5 549.5,-593.5 549.5,-593.5 549.5,-615.5 549.5,-615.5 549.5,-621.5 543.5,-627.5 537.5,-627.5 537.5,-627.5 484.5,-627.5 484.5,-627.5 478.5,-627.5 472.5,-621.5 472.5,-615.5 472.5,-615.5 472.5,-593.5 472.5,-593.5 472.5,-587.5 478.5,-581.5 484.5,-581.5"/>
<text text-anchor="middle" x="511" y="-612.3" font-family="Times,serif" font-size="14.00">Var Decl</text>
<polyline fill="none" stroke="#ffe9c7" points="472.5,-604.5 549.5,-604.5 "/>
<text text-anchor="middle" x="511" y="-589.3" font-family="Times,serif" font-size="14.00">four</text>
</g>
<!-- node_0x504000001010&#45;&gt;node_0x5040000010d0 -->
<g id="edge35" class="edge">
<title>node_0x504000001010&#45;&gt;node_0x5040000010d0</title>
<path fill="none" stroke="#9acd32" d="M511,-664.37C511,-656.15 511,-646.66 511,-637.73"/>
<polygon fill="#9acd32" stroke="#9acd32" points="514.5,-637.61 511,-627.61 507.5,-637.61 514.5,-637.61"/>
</g>
<!-- node_0x504000001050 -->
<g id="node37" class="node">
<title>node_0x504000001050</title>
<path fill="#9966ff" stroke="#ffe9c7" d="M473,-498.5C473,-498.5 529,-498.5 529,-498.5 535,-498.5 541,-504.5 541,-510.5 541,-510.5 541,-532.5 541,-532.5 541,-538.5 535,-544.5 529,-544.5 529,-544.5 473,-544.5 473,-544.5 467,-544.5 461,-538.5 461,-532.5 461,-532.5 461,-510.5 461,-510.5 461,-504.5 467,-498.5 473,-498.5"/>
<text text-anchor="middle" x="501" y="-529.3" font-family="Times,serif" font-size="14.00">KeyWord</text>
<polyline fill="none" stroke="#ffe9c7" points="461,-521.5 541,-521.5 "/>
<text text-anchor="middle" x="501" y="-506.3" font-family="Times,serif" font-size="14.00">int</text>
</g>
<!-- node_0x5040000010d0&#45;&gt;node_0x504000001050 -->
<g id="edge36" class="edge">
<title>node_0x5040000010d0&#45;&gt;node_0x504000001050</title>
<path fill="none" stroke="#9acd32" d="M508.27,-581.37C507.25,-573.15 506.08,-563.66 504.98,-554.73"/>
<polygon fill="#9acd32" stroke="#9acd32" points="508.43,-554.1 503.73,-544.61 501.48,-554.96 508.43,-554.1"/>
</g>
<!-- node_0x504000001110 -->
<g id="node38" class="node">
<title>node_0x504000001110</title>
<path fill="#9966ff" stroke="#ffe9c7" d="M571,-498.5C571,-498.5 627,-498.5 627,-498.5 633,-498.5 639,-504.5 639,-510.5 639,-510.5 639,-532.5 639,-532.5 639,-538.5 633,-544.5 627,-544.5 627,-544.5 571,-544.5 571,-544.5 565,-544.5 559,-538.5 559,-532.5 559,-532.5 559,-510.5 559,-510.5 559,-504.5 565,-498.5 571,-498.5"/>
<text text-anchor="middle" x="599" y="-529.3" font-family="Times,serif" font-size="14.00">KeyWord</text>
<polyline fill="none" stroke="#ffe9c7" points="559,-521.5 639,-521.5 "/>
<text text-anchor="middle" x="599" y="-506.3" font-family="Times,serif" font-size="14.00">=</text>
</g>
<!-- node_0x5040000010d0&#45;&gt;node_0x504000001110 -->
<g id="edge37" class="edge">
<title>node_0x5040000010d0&#45;&gt;node_0x504000001110</title>
<path fill="none" stroke="#ff2b00" d="M535.05,-581.37C545.04,-572.17 556.77,-561.37 567.44,-551.55"/>
<polygon fill="#ff2b00" stroke="#ff2b00" points="570,-553.95 574.98,-544.61 565.25,-548.8 570,-553.95"/>
</g>
<!-- node_0x504000001090 -->
<g id="node39" class="node">
<title>node_0x504000001090</title>
<path fill="#ff6699" stroke="#ffe9c7" d="M561.5,-415.5C561.5,-415.5 620.5,-415.5 620.5,-415.5 626.5,-415.5 632.5,-421.5 632.5,-427.5 632.5,-427.5 632.5,-449.5 632.5,-449.5 632.5,-455.5 626.5,-461.5 620.5,-461.5 620.5,-461.5 561.5,-461.5 561.5,-461.5 555.5,-461.5 549.5,-455.5 549.5,-449.5 549.5,-449.5 549.5,-427.5 549.5,-427.5 549.5,-421.5 555.5,-415.5 561.5,-415.5"/>
<text text-anchor="middle" x="591" y="-446.3" font-family="Times,serif" font-size="14.00">Identifier</text>
<polyline fill="none" stroke="#ffe9c7" points="549.5,-438.5 632.5,-438.5 "/>
<text text-anchor="middle" x="591" y="-423.3" font-family="Times,serif" font-size="14.00">7</text>
</g>
<!-- node_0x504000001110&#45;&gt;node_0x504000001090 -->
<g id="edge38" class="edge">
<title>node_0x504000001110&#45;&gt;node_0x504000001090</title>
<path fill="none" stroke="#9acd32" d="M596.81,-498.37C596,-490.15 595.06,-480.66 594.18,-471.73"/>
<polygon fill="#9acd32" stroke="#9acd32" points="597.65,-471.21 593.18,-461.61 590.68,-471.9 597.65,-471.21"/>
</g>
<!-- node_0x504000001150 -->
<g id="node40" class="node">
<title>node_0x504000001150</title>
<path fill="#03cffc" stroke="#ffe9c7" d="M662.5,-415.5C662.5,-415.5 719.5,-415.5 719.5,-415.5 725.5,-415.5 731.5,-421.5 731.5,-427.5 731.5,-427.5 731.5,-449.5 731.5,-449.5 731.5,-455.5 725.5,-461.5 719.5,-461.5 719.5,-461.5 662.5,-461.5 662.5,-461.5 656.5,-461.5 650.5,-455.5 650.5,-449.5 650.5,-449.5 650.5,-427.5 650.5,-427.5 650.5,-421.5 656.5,-415.5 662.5,-415.5"/>
<text text-anchor="middle" x="691" y="-446.3" font-family="Times,serif" font-size="14.00">Constant</text>
<polyline fill="none" stroke="#ffe9c7" points="650.5,-438.5 731.5,-438.5 "/>
<text text-anchor="middle" x="691" y="-423.3" font-family="Times,serif" font-size="14.00">15</text>
</g>
<!-- node_0x504000001110&#45;&gt;node_0x504000001150 -->
<g id="edge39" class="edge">
<title>node_0x504000001110&#45;&gt;node_0x504000001150</title>
<path fill="none" stroke="#ff2b00" d="M624.14,-498.37C634.69,-489.08 647.09,-478.16 658.33,-468.26"/>
<polygon fill="#ff2b00" stroke="#ff2b00" points="660.7,-470.84 665.89,-461.61 656.07,-465.59 660.7,-470.84"/>
</g>
</g>
</svg>
