<?xml version="1.0" encoding="UTF-8" standalone="no"?>
<!DOCTYPE svg PUBLIC "-//W3C//DTD SVG 1.1//EN"
 "http://www.w3.org/Graphics/SVG/1.1/DTD/svg11.dtd">
<!-- Generated by graphviz version 2.43.0 (0)
 -->
<!-- Title: G Pages: 1 -->
<svg width="388pt" height="511pt"
 viewBox="0.00 0.00 387.50 511.00" xmlns="http://www.w3.org/2000/svg" xmlns:xlink="http://www.w3.org/1999/xlink">
<g id="graph0" class="graph" transform="scale(1 1) rotate(0) translate(4 507)">
<title>G</title>
<polygon fill="#ffd480" stroke="transparent" points="-4,4 -4,-507 383.5,-507 383.5,4 -4,4"/>
<text text-anchor="middle" x="189.75" y="-475" font-family="Verdana" font-size="30.00" fill="#ffffff">AST</text>
<!-- node_0x504000000310 -->
<g id="node1" class="node">
<title>node_0x504000000310</title>
<path fill="#fca103" stroke="#ffe9c7" d="M106.5,-415.5C106.5,-415.5 163.5,-415.5 163.5,-415.5 169.5,-415.5 175.5,-421.5 175.5,-427.5 175.5,-427.5 175.5,-449.5 175.5,-449.5 175.5,-455.5 169.5,-461.5 163.5,-461.5 163.5,-461.5 106.5,-461.5 106.5,-461.5 100.5,-461.5 94.5,-455.5 94.5,-449.5 94.5,-449.5 94.5,-427.5 94.5,-427.5 94.5,-421.5 100.5,-415.5 106.5,-415.5"/>
<text text-anchor="middle" x="135" y="-446.3" font-family="Times,serif" font-size="14.00">Func Def</text>
<polyline fill="none" stroke="#ffe9c7" points="94.5,-438.5 175.5,-438.5 "/>
<text text-anchor="middle" x="135" y="-423.3" font-family="Times,serif" font-size="14.00">main</text>
</g>
<!-- node_0x5040000002d0 -->
<g id="node2" class="node">
<title>node_0x5040000002d0</title>
<path fill="#9966ff" stroke="#ffe9c7" d="M53,-332.5C53,-332.5 109,-332.5 109,-332.5 115,-332.5 121,-338.5 121,-344.5 121,-344.5 121,-366.5 121,-366.5 121,-372.5 115,-378.5 109,-378.5 109,-378.5 53,-378.5 53,-378.5 47,-378.5 41,-372.5 41,-366.5 41,-366.5 41,-344.5 41,-344.5 41,-338.5 47,-332.5 53,-332.5"/>
<text text-anchor="middle" x="81" y="-363.3" font-family="Times,serif" font-size="14.00">KeyWord</text>
<polyline fill="none" stroke="#ffe9c7" points="41,-355.5 121,-355.5 "/>
<text text-anchor="middle" x="81" y="-340.3" font-family="Times,serif" font-size="14.00">int</text>
</g>
<!-- node_0x504000000310&#45;&gt;node_0x5040000002d0 -->
<g id="edge1" class="edge">
<title>node_0x504000000310&#45;&gt;node_0x5040000002d0</title>
<path fill="none" stroke="#9acd32" d="M120.24,-415.37C114.41,-406.62 107.61,-396.41 101.32,-386.99"/>
<polygon fill="#9acd32" stroke="#9acd32" points="104.2,-384.99 95.74,-378.61 98.37,-388.87 104.2,-384.99"/>
</g>
<!-- node_0x504000000350 -->
<g id="node3" class="node">
<title>node_0x504000000350</title>
<path fill="#fc0303" stroke="#ffe9c7" d="M151.5,-332.5C151.5,-332.5 226.5,-332.5 226.5,-332.5 232.5,-332.5 238.5,-338.5 238.5,-344.5 238.5,-344.5 238.5,-366.5 238.5,-366.5 238.5,-372.5 232.5,-378.5 226.5,-378.5 226.5,-378.5 151.5,-378.5 151.5,-378.5 145.5,-378.5 139.5,-372.5 139.5,-366.5 139.5,-366.5 139.5,-344.5 139.5,-344.5 139.5,-338.5 145.5,-332.5 151.5,-332.5"/>
<text text-anchor="middle" x="189" y="-363.3" font-family="Times,serif" font-size="14.00">Parameters</text>
<polyline fill="none" stroke="#ffe9c7" points="139.5,-355.5 238.5,-355.5 "/>
<text text-anchor="middle" x="189" y="-340.3" font-family="Times,serif" font-size="14.00">∅</text>
</g>
<!-- node_0x504000000310&#45;&gt;node_0x504000000350 -->
<g id="edge2" class="edge">
<title>node_0x504000000310&#45;&gt;node_0x504000000350</title>
<path fill="none" stroke="#ff2b00" d="M149.76,-415.37C155.59,-406.62 162.39,-396.41 168.68,-386.99"/>
<polygon fill="#ff2b00" stroke="#ff2b00" points="171.63,-388.87 174.26,-378.61 165.8,-384.99 171.63,-388.87"/>
</g>
<!-- node_0x504000000410 -->
<g id="node4" class="node">
<title>node_0x504000000410</title>
<path fill="#08c41e" stroke="#ffe9c7" d="M113.5,-249.5C113.5,-249.5 166.5,-249.5 166.5,-249.5 172.5,-249.5 178.5,-255.5 178.5,-261.5 178.5,-261.5 178.5,-283.5 178.5,-283.5 178.5,-289.5 172.5,-295.5 166.5,-295.5 166.5,-295.5 113.5,-295.5 113.5,-295.5 107.5,-295.5 101.5,-289.5 101.5,-283.5 101.5,-283.5 101.5,-261.5 101.5,-261.5 101.5,-255.5 107.5,-249.5 113.5,-249.5"/>
<text text-anchor="middle" x="140" y="-280.3" font-family="Times,serif" font-size="14.00">Var Decl</text>
<polyline fill="none" stroke="#ffe9c7" points="101.5,-272.5 178.5,-272.5 "/>
<text text-anchor="middle" x="140" y="-257.3" font-family="Times,serif" font-size="14.00">one</text>
</g>
<!-- node_0x504000000350&#45;&gt;node_0x504000000410 -->
<g id="edge3" class="edge">
<title>node_0x504000000350&#45;&gt;node_0x504000000410</title>
<path fill="none" stroke="#9acd32" d="M175.61,-332.37C170.37,-323.71 164.27,-313.62 158.62,-304.27"/>
<polygon fill="#9acd32" stroke="#9acd32" points="161.54,-302.35 153.37,-295.61 155.55,-305.97 161.54,-302.35"/>
</g>
<!-- node_0x504000000450 -->
<g id="node7" class="node">
<title>node_0x504000000450</title>
<path fill="#9966ff" stroke="#ffe9c7" d="M210,-249.5C210,-249.5 266,-249.5 266,-249.5 272,-249.5 278,-255.5 278,-261.5 278,-261.5 278,-283.5 278,-283.5 278,-289.5 272,-295.5 266,-295.5 266,-295.5 210,-295.5 210,-295.5 204,-295.5 198,-289.5 198,-283.5 198,-283.5 198,-261.5 198,-261.5 198,-255.5 204,-249.5 210,-249.5"/>
<text text-anchor="middle" x="238" y="-280.3" font-family="Times,serif" font-size="14.00">KeyWord</text>
<polyline fill="none" stroke="#ffe9c7" points="198,-272.5 278,-272.5 "/>
<text text-anchor="middle" x="238" y="-257.3" font-family="Times,serif" font-size="14.00">;</text>
</g>
<!-- node_0x504000000350&#45;&gt;node_0x504000000450 -->
<g id="edge6" class="edge">
<title>node_0x504000000350&#45;&gt;node_0x504000000450</title>
<path fill="none" stroke="#ff2b00" d="M202.39,-332.37C207.63,-323.71 213.73,-313.62 219.38,-304.27"/>
<polygon fill="#ff2b00" stroke="#ff2b00" points="222.45,-305.97 224.63,-295.61 216.46,-302.35 222.45,-305.97"/>
</g>
<!-- node_0x504000000390 -->
<g id="node5" class="node">
<title>node_0x504000000390</title>
<path fill="#9966ff" stroke="#ffe9c7" d="M12,-166.5C12,-166.5 68,-166.5 68,-166.5 74,-166.5 80,-172.5 80,-178.5 80,-178.5 80,-200.5 80,-200.5 80,-206.5 74,-212.5 68,-212.5 68,-212.5 12,-212.5 12,-212.5 6,-212.5 0,-206.5 0,-200.5 0,-200.5 0,-178.5 0,-178.5 0,-172.5 6,-166.5 12,-166.5"/>
<text text-anchor="middle" x="40" y="-197.3" font-family="Times,serif" font-size="14.00">KeyWord</text>
<polyline fill="none" stroke="#ffe9c7" points="0,-189.5 80,-189.5 "/>
<text text-anchor="middle" x="40" y="-174.3" font-family="Times,serif" font-size="14.00">int</text>
</g>
<!-- node_0x504000000410&#45;&gt;node_0x504000000390 -->
<g id="edge4" class="edge">
<title>node_0x504000000410&#45;&gt;node_0x504000000390</title>
<path fill="none" stroke="#9acd32" d="M112.67,-249.37C101.1,-239.99 87.47,-228.95 75.16,-218.98"/>
<polygon fill="#9acd32" stroke="#9acd32" points="77.27,-216.18 67.29,-212.61 72.86,-221.62 77.27,-216.18"/>
</g>
<!-- node_0x5040000003d0 -->
<g id="node6" class="node">
<title>node_0x5040000003d0</title>
<path fill="#ff6699" stroke="#ffe9c7" d="M110.5,-166.5C110.5,-166.5 169.5,-166.5 169.5,-166.5 175.5,-166.5 181.5,-172.5 181.5,-178.5 181.5,-178.5 181.5,-200.5 181.5,-200.5 181.5,-206.5 175.5,-212.5 169.5,-212.5 169.5,-212.5 110.5,-212.5 110.5,-212.5 104.5,-212.5 98.5,-206.5 98.5,-200.5 98.5,-200.5 98.5,-178.5 98.5,-178.5 98.5,-172.5 104.5,-166.5 110.5,-166.5"/>
<text text-anchor="middle" x="140" y="-197.3" font-family="Times,serif" font-size="14.00">Identifier</text>
<polyline fill="none" stroke="#ffe9c7" points="98.5,-189.5 181.5,-189.5 "/>
<text text-anchor="middle" x="140" y="-174.3" font-family="Times,serif" font-size="14.00">one</text>
</g>
<!-- node_0x504000000410&#45;&gt;node_0x5040000003d0 -->
<g id="edge5" class="edge">
<title>node_0x504000000410&#45;&gt;node_0x5040000003d0</title>
<path fill="none" stroke="#ff2b00" d="M140,-249.37C140,-241.15 140,-231.66 140,-222.73"/>
<polygon fill="#ff2b00" stroke="#ff2b00" points="143.5,-222.61 140,-212.61 136.5,-222.61 143.5,-222.61"/>
</g>
<!-- node_0x504000000510 -->
<g id="node8" class="node">
<title>node_0x504000000510</title>
<path fill="#08c41e" stroke="#ffe9c7" d="M211.5,-166.5C211.5,-166.5 264.5,-166.5 264.5,-166.5 270.5,-166.5 276.5,-172.5 276.5,-178.5 276.5,-178.5 276.5,-200.5 276.5,-200.5 276.5,-206.5 270.5,-212.5 264.5,-212.5 264.5,-212.5 211.5,-212.5 211.5,-212.5 205.5,-212.5 199.5,-206.5 199.5,-200.5 199.5,-200.5 199.5,-178.5 199.5,-178.5 199.5,-172.5 205.5,-166.5 211.5,-166.5"/>
<text text-anchor="middle" x="238" y="-197.3" font-family="Times,serif" font-size="14.00">Var Decl</text>
<polyline fill="none" stroke="#ffe9c7" points="199.5,-189.5 276.5,-189.5 "/>
<text text-anchor="middle" x="238" y="-174.3" font-family="Times,serif" font-size="14.00">one</text>
</g>
<!-- node_0x504000000450&#45;&gt;node_0x504000000510 -->
<g id="edge7" class="edge">
<title>node_0x504000000450&#45;&gt;node_0x504000000510</title>
<path fill="none" stroke="#9acd32" d="M238,-249.37C238,-241.15 238,-231.66 238,-222.73"/>
<polygon fill="#9acd32" stroke="#9acd32" points="241.5,-222.61 238,-212.61 234.5,-222.61 241.5,-222.61"/>
</g>
<!-- node_0x5040000005d0 -->
<g id="node13" class="node">
<title>node_0x5040000005d0</title>
<path fill="#9966ff" stroke="#ffe9c7" d="M309,-166.5C309,-166.5 365,-166.5 365,-166.5 371,-166.5 377,-172.5 377,-178.5 377,-178.5 377,-200.5 377,-200.5 377,-206.5 371,-212.5 365,-212.5 365,-212.5 309,-212.5 309,-212.5 303,-212.5 297,-206.5 297,-200.5 297,-200.5 297,-178.5 297,-178.5 297,-172.5 303,-166.5 309,-166.5"/>
<text text-anchor="middle" x="337" y="-197.3" font-family="Times,serif" font-size="14.00">KeyWord</text>
<polyline fill="none" stroke="#ffe9c7" points="297,-189.5 377,-189.5 "/>
<text text-anchor="middle" x="337" y="-174.3" font-family="Times,serif" font-size="14.00">return</text>
</g>
<!-- node_0x504000000450&#45;&gt;node_0x5040000005d0 -->
<g id="edge12" class="edge">
<title>node_0x504000000450&#45;&gt;node_0x5040000005d0</title>
<path fill="none" stroke="#ff2b00" d="M265.05,-249.37C276.51,-239.99 290.01,-228.95 302.19,-218.98"/>
<polygon fill="#ff2b00" stroke="#ff2b00" points="304.46,-221.65 309.98,-212.61 300.02,-216.23 304.46,-221.65"/>
</g>
<!-- node_0x504000000490 -->
<g id="node9" class="node">
<title>node_0x504000000490</title>
<path fill="#9966ff" stroke="#ffe9c7" d="M112,-83.5C112,-83.5 168,-83.5 168,-83.5 174,-83.5 180,-89.5 180,-95.5 180,-95.5 180,-117.5 180,-117.5 180,-123.5 174,-129.5 168,-129.5 168,-129.5 112,-129.5 112,-129.5 106,-129.5 100,-123.5 100,-117.5 100,-117.5 100,-95.5 100,-95.5 100,-89.5 106,-83.5 112,-83.5"/>
<text text-anchor="middle" x="140" y="-114.3" font-family="Times,serif" font-size="14.00">KeyWord</text>
<polyline fill="none" stroke="#ffe9c7" points="100,-106.5 180,-106.5 "/>
<text text-anchor="middle" x="140" y="-91.3" font-family="Times,serif" font-size="14.00">int</text>
</g>
<!-- node_0x504000000510&#45;&gt;node_0x504000000490 -->
<g id="edge8" class="edge">
<title>node_0x504000000510&#45;&gt;node_0x504000000490</title>
<path fill="none" stroke="#9acd32" d="M211.22,-166.37C199.99,-157.08 186.77,-146.16 174.8,-136.26"/>
<polygon fill="#9acd32" stroke="#9acd32" points="176.68,-133.28 166.75,-129.61 172.22,-138.68 176.68,-133.28"/>
</g>
<!-- node_0x504000000550 -->
<g id="node10" class="node">
<title>node_0x504000000550</title>
<path fill="#9966ff" stroke="#ffe9c7" d="M210,-83.5C210,-83.5 266,-83.5 266,-83.5 272,-83.5 278,-89.5 278,-95.5 278,-95.5 278,-117.5 278,-117.5 278,-123.5 272,-129.5 266,-129.5 266,-129.5 210,-129.5 210,-129.5 204,-129.5 198,-123.5 198,-117.5 198,-117.5 198,-95.5 198,-95.5 198,-89.5 204,-83.5 210,-83.5"/>
<text text-anchor="middle" x="238" y="-114.3" font-family="Times,serif" font-size="14.00">KeyWord</text>
<polyline fill="none" stroke="#ffe9c7" points="198,-106.5 278,-106.5 "/>
<text text-anchor="middle" x="238" y="-91.3" font-family="Times,serif" font-size="14.00">=</text>
</g>
<!-- node_0x504000000510&#45;&gt;node_0x504000000550 -->
<g id="edge9" class="edge">
<title>node_0x504000000510&#45;&gt;node_0x504000000550</title>
<path fill="none" stroke="#ff2b00" d="M238,-166.37C238,-158.15 238,-148.66 238,-139.73"/>
<polygon fill="#ff2b00" stroke="#ff2b00" points="241.5,-139.61 238,-129.61 234.5,-139.61 241.5,-139.61"/>
</g>
<!-- node_0x5040000004d0 -->
<g id="node11" class="node">
<title>node_0x5040000004d0</title>
<path fill="#ff6699" stroke="#ffe9c7" d="M158.5,-0.5C158.5,-0.5 217.5,-0.5 217.5,-0.5 223.5,-0.5 229.5,-6.5 229.5,-12.5 229.5,-12.5 229.5,-34.5 229.5,-34.5 229.5,-40.5 223.5,-46.5 217.5,-46.5 217.5,-46.5 158.5,-46.5 158.5,-46.5 152.5,-46.5 146.5,-40.5 146.5,-34.5 146.5,-34.5 146.5,-12.5 146.5,-12.5 146.5,-6.5 152.5,-0.5 158.5,-0.5"/>
<text text-anchor="middle" x="188" y="-31.3" font-family="Times,serif" font-size="14.00">Identifier</text>
<polyline fill="none" stroke="#ffe9c7" points="146.5,-23.5 229.5,-23.5 "/>
<text text-anchor="middle" x="188" y="-8.3" font-family="Times,serif" font-size="14.00">one</text>
</g>
<!-- node_0x504000000550&#45;&gt;node_0x5040000004d0 -->
<g id="edge10" class="edge">
<title>node_0x504000000550&#45;&gt;node_0x5040000004d0</title>
<path fill="none" stroke="#9acd32" d="M224.34,-83.37C218.99,-74.71 212.77,-64.62 207,-55.27"/>
<polygon fill="#9acd32" stroke="#9acd32" points="209.88,-53.28 201.65,-46.61 203.92,-56.95 209.88,-53.28"/>
</g>
<!-- node_0x504000000590 -->
<g id="node12" class="node">
<title>node_0x504000000590</title>
<path fill="#03cffc" stroke="#ffe9c7" d="M259.5,-0.5C259.5,-0.5 316.5,-0.5 316.5,-0.5 322.5,-0.5 328.5,-6.5 328.5,-12.5 328.5,-12.5 328.5,-34.5 328.5,-34.5 328.5,-40.5 322.5,-46.5 316.5,-46.5 316.5,-46.5 259.5,-46.5 259.5,-46.5 253.5,-46.5 247.5,-40.5 247.5,-34.5 247.5,-34.5 247.5,-12.5 247.5,-12.5 247.5,-6.5 253.5,-0.5 259.5,-0.5"/>
<text text-anchor="middle" x="288" y="-31.3" font-family="Times,serif" font-size="14.00">Constant</text>
<polyline fill="none" stroke="#ffe9c7" points="247.5,-23.5 328.5,-23.5 "/>
<text text-anchor="middle" x="288" y="-8.3" font-family="Times,serif" font-size="14.00">1</text>
</g>
<!-- node_0x504000000550&#45;&gt;node_0x504000000590 -->
<g id="edge11" class="edge">
<title>node_0x504000000550&#45;&gt;node_0x504000000590</title>
<path fill="none" stroke="#ff2b00" d="M251.66,-83.37C257.01,-74.71 263.23,-64.62 269,-55.27"/>
<polygon fill="#ff2b00" stroke="#ff2b00" points="272.08,-56.95 274.35,-46.61 266.12,-53.28 272.08,-56.95"/>
</g>
<!-- node_0x504000000610 -->
<g id="node14" class="node">
<title>node_0x504000000610</title>
<path fill="#ff6699" stroke="#ffe9c7" d="M308.5,-83.5C308.5,-83.5 367.5,-83.5 367.5,-83.5 373.5,-83.5 379.5,-89.5 379.5,-95.5 379.5,-95.5 379.5,-117.5 379.5,-117.5 379.5,-123.5 373.5,-129.5 367.5,-129.5 367.5,-129.5 308.5,-129.5 308.5,-129.5 302.5,-129.5 296.5,-123.5 296.5,-117.5 296.5,-117.5 296.5,-95.5 296.5,-95.5 296.5,-89.5 302.5,-83.5 308.5,-83.5"/>
<text text-anchor="middle" x="338" y="-114.3" font-family="Times,serif" font-size="14.00">Identifier</text>
<polyline fill="none" stroke="#ffe9c7" points="296.5,-106.5 379.5,-106.5 "/>
<text text-anchor="middle" x="338" y="-91.3" font-family="Times,serif" font-size="14.00">one</text>
</g>
<!-- node_0x5040000005d0&#45;&gt;node_0x504000000610 -->
<g id="edge13" class="edge">
<title>node_0x5040000005d0&#45;&gt;node_0x504000000610</title>
<path fill="none" stroke="#ff2b00" d="M337.27,-166.37C337.37,-158.15 337.49,-148.66 337.6,-139.73"/>
<polygon fill="#ff2b00" stroke="#ff2b00" points="341.1,-139.65 337.73,-129.61 334.1,-139.56 341.1,-139.65"/>
</g>
</g>
</svg>
