<?xml version="1.0" encoding="UTF-8" standalone="no"?>
<!DOCTYPE svg PUBLIC "-//W3C//DTD SVG 1.1//EN"
 "http://www.w3.org/Graphics/SVG/1.1/DTD/svg11.dtd">
<!-- Generated by graphviz version 2.43.0 (0)
 -->
<!-- Title: G Pages: 1 -->
<svg width="790pt" height="594pt"
 viewBox="0.00 0.00 789.50 594.00" xmlns="http://www.w3.org/2000/svg" xmlns:xlink="http://www.w3.org/1999/xlink">
<g id="graph0" class="graph" transform="scale(1 1) rotate(0) translate(4 590)">
<title>G</title>
<polygon fill="#ffd480" stroke="transparent" points="-4,4 -4,-590 785.5,-590 785.5,4 -4,4"/>
<text text-anchor="middle" x="390.75" y="-558" font-family="Verdana" font-size="30.00" fill="#ffffff">AST</text>
<!-- node_0x504000000890 -->
<g id="node1" class="node">
<title>node_0x504000000890</title>
<path fill="#9966ff" stroke="#ffe9c7" d="M426,-498.5C426,-498.5 482,-498.5 482,-498.5 488,-498.5 494,-504.5 494,-510.5 494,-510.5 494,-532.5 494,-532.5 494,-538.5 488,-544.5 482,-544.5 482,-544.5 426,-544.5 426,-544.5 420,-544.5 414,-538.5 414,-532.5 414,-532.5 414,-510.5 414,-510.5 414,-504.5 420,-498.5 426,-498.5"/>
<text text-anchor="middle" x="454" y="-529.3" font-family="Times,serif" font-size="14.00">KeyWord</text>
<polyline fill="none" stroke="#ffe9c7" points="414,-521.5 494,-521.5 "/>
<text text-anchor="middle" x="454" y="-506.3" font-family="Times,serif" font-size="14.00">;</text>
</g>
<!-- node_0x5040000005d0 -->
<g id="node2" class="node">
<title>node_0x5040000005d0</title>
<path fill="#9966ff" stroke="#ffe9c7" d="M377,-415.5C377,-415.5 433,-415.5 433,-415.5 439,-415.5 445,-421.5 445,-427.5 445,-427.5 445,-449.5 445,-449.5 445,-455.5 439,-461.5 433,-461.5 433,-461.5 377,-461.5 377,-461.5 371,-461.5 365,-455.5 365,-449.5 365,-449.5 365,-427.5 365,-427.5 365,-421.5 371,-415.5 377,-415.5"/>
<text text-anchor="middle" x="405" y="-446.3" font-family="Times,serif" font-size="14.00">KeyWord</text>
<polyline fill="none" stroke="#ffe9c7" points="365,-438.5 445,-438.5 "/>
<text text-anchor="middle" x="405" y="-423.3" font-family="Times,serif" font-size="14.00">;</text>
</g>
<!-- node_0x504000000890&#45;&gt;node_0x5040000005d0 -->
<g id="edge1" class="edge">
<title>node_0x504000000890&#45;&gt;node_0x5040000005d0</title>
<path fill="none" stroke="#9acd32" d="M440.61,-498.37C435.37,-489.71 429.27,-479.62 423.62,-470.27"/>
<polygon fill="#9acd32" stroke="#9acd32" points="426.54,-468.35 418.37,-461.61 420.55,-471.97 426.54,-468.35"/>
</g>
<!-- node_0x504000000950 -->
<g id="node23" class="node">
<title>node_0x504000000950</title>
<path fill="#08c41e" stroke="#ffe9c7" d="M477.5,-415.5C477.5,-415.5 530.5,-415.5 530.5,-415.5 536.5,-415.5 542.5,-421.5 542.5,-427.5 542.5,-427.5 542.5,-449.5 542.5,-449.5 542.5,-455.5 536.5,-461.5 530.5,-461.5 530.5,-461.5 477.5,-461.5 477.5,-461.5 471.5,-461.5 465.5,-455.5 465.5,-449.5 465.5,-449.5 465.5,-427.5 465.5,-427.5 465.5,-421.5 471.5,-415.5 477.5,-415.5"/>
<text text-anchor="middle" x="504" y="-446.3" font-family="Times,serif" font-size="14.00">Var Decl</text>
<polyline fill="none" stroke="#ffe9c7" points="465.5,-438.5 542.5,-438.5 "/>
<text text-anchor="middle" x="504" y="-423.3" font-family="Times,serif" font-size="14.00">two</text>
</g>
<!-- node_0x504000000890&#45;&gt;node_0x504000000950 -->
<g id="edge22" class="edge">
<title>node_0x504000000890&#45;&gt;node_0x504000000950</title>
<path fill="none" stroke="#ff2b00" d="M467.66,-498.37C473.01,-489.71 479.23,-479.62 485,-470.27"/>
<polygon fill="#ff2b00" stroke="#ff2b00" points="488.08,-471.95 490.35,-461.61 482.12,-468.28 488.08,-471.95"/>
</g>
<!-- node_0x504000000390 -->
<g id="node3" class="node">
<title>node_0x504000000390</title>
<path fill="#fca103" stroke="#ffe9c7" d="M226.5,-332.5C226.5,-332.5 283.5,-332.5 283.5,-332.5 289.5,-332.5 295.5,-338.5 295.5,-344.5 295.5,-344.5 295.5,-366.5 295.5,-366.5 295.5,-372.5 289.5,-378.5 283.5,-378.5 283.5,-378.5 226.5,-378.5 226.5,-378.5 220.5,-378.5 214.5,-372.5 214.5,-366.5 214.5,-366.5 214.5,-344.5 214.5,-344.5 214.5,-338.5 220.5,-332.5 226.5,-332.5"/>
<text text-anchor="middle" x="255" y="-363.3" font-family="Times,serif" font-size="14.00">Func Def</text>
<polyline fill="none" stroke="#ffe9c7" points="214.5,-355.5 295.5,-355.5 "/>
<text text-anchor="middle" x="255" y="-340.3" font-family="Times,serif" font-size="14.00">main</text>
</g>
<!-- node_0x5040000005d0&#45;&gt;node_0x504000000390 -->
<g id="edge2" class="edge">
<title>node_0x5040000005d0&#45;&gt;node_0x504000000390</title>
<path fill="none" stroke="#9acd32" d="M364.8,-415.79C346.3,-405.8 324.16,-393.85 304.63,-383.3"/>
<polygon fill="#9acd32" stroke="#9acd32" points="306.03,-380.08 295.57,-378.41 302.71,-386.24 306.03,-380.08"/>
</g>
<!-- node_0x504000000650 -->
<g id="node13" class="node">
<title>node_0x504000000650</title>
<path fill="#fca103" stroke="#ffe9c7" d="M376.5,-332.5C376.5,-332.5 433.5,-332.5 433.5,-332.5 439.5,-332.5 445.5,-338.5 445.5,-344.5 445.5,-344.5 445.5,-366.5 445.5,-366.5 445.5,-372.5 439.5,-378.5 433.5,-378.5 433.5,-378.5 376.5,-378.5 376.5,-378.5 370.5,-378.5 364.5,-372.5 364.5,-366.5 364.5,-366.5 364.5,-344.5 364.5,-344.5 364.5,-338.5 370.5,-332.5 376.5,-332.5"/>
<text text-anchor="middle" x="405" y="-363.3" font-family="Times,serif" font-size="14.00">Func Def</text>
<polyline fill="none" stroke="#ffe9c7" points="364.5,-355.5 445.5,-355.5 "/>
<text text-anchor="middle" x="405" y="-340.3" font-family="Times,serif" font-size="14.00">second</text>
</g>
<!-- node_0x5040000005d0&#45;&gt;node_0x504000000650 -->
<g id="edge12" class="edge">
<title>node_0x5040000005d0&#45;&gt;node_0x504000000650</title>
<path fill="none" stroke="#ff2b00" d="M405,-415.37C405,-407.15 405,-397.66 405,-388.73"/>
<polygon fill="#ff2b00" stroke="#ff2b00" points="408.5,-388.61 405,-378.61 401.5,-388.61 408.5,-388.61"/>
</g>
<!-- node_0x504000000350 -->
<g id="node4" class="node">
<title>node_0x504000000350</title>
<path fill="#9966ff" stroke="#ffe9c7" d="M119,-249.5C119,-249.5 175,-249.5 175,-249.5 181,-249.5 187,-255.5 187,-261.5 187,-261.5 187,-283.5 187,-283.5 187,-289.5 181,-295.5 175,-295.5 175,-295.5 119,-295.5 119,-295.5 113,-295.5 107,-289.5 107,-283.5 107,-283.5 107,-261.5 107,-261.5 107,-255.5 113,-249.5 119,-249.5"/>
<text text-anchor="middle" x="147" y="-280.3" font-family="Times,serif" font-size="14.00">KeyWord</text>
<polyline fill="none" stroke="#ffe9c7" points="107,-272.5 187,-272.5 "/>
<text text-anchor="middle" x="147" y="-257.3" font-family="Times,serif" font-size="14.00">int</text>
</g>
<!-- node_0x504000000390&#45;&gt;node_0x504000000350 -->
<g id="edge3" class="edge">
<title>node_0x504000000390&#45;&gt;node_0x504000000350</title>
<path fill="none" stroke="#9acd32" d="M225.49,-332.37C212.87,-322.9 197.99,-311.74 184.59,-301.69"/>
<polygon fill="#9acd32" stroke="#9acd32" points="186.58,-298.81 176.48,-295.61 182.38,-304.41 186.58,-298.81"/>
</g>
<!-- node_0x5040000003d0 -->
<g id="node5" class="node">
<title>node_0x5040000003d0</title>
<path fill="#fc0303" stroke="#ffe9c7" d="M217.5,-249.5C217.5,-249.5 292.5,-249.5 292.5,-249.5 298.5,-249.5 304.5,-255.5 304.5,-261.5 304.5,-261.5 304.5,-283.5 304.5,-283.5 304.5,-289.5 298.5,-295.5 292.5,-295.5 292.5,-295.5 217.5,-295.5 217.5,-295.5 211.5,-295.5 205.5,-289.5 205.5,-283.5 205.5,-283.5 205.5,-261.5 205.5,-261.5 205.5,-255.5 211.5,-249.5 217.5,-249.5"/>
<text text-anchor="middle" x="255" y="-280.3" font-family="Times,serif" font-size="14.00">Parameters</text>
<polyline fill="none" stroke="#ffe9c7" points="205.5,-272.5 304.5,-272.5 "/>
<text text-anchor="middle" x="255" y="-257.3" font-family="Times,serif" font-size="14.00">∅</text>
</g>
<!-- node_0x504000000390&#45;&gt;node_0x5040000003d0 -->
<g id="edge4" class="edge">
<title>node_0x504000000390&#45;&gt;node_0x5040000003d0</title>
<path fill="none" stroke="#ff2b00" d="M255,-332.37C255,-324.15 255,-314.66 255,-305.73"/>
<polygon fill="#ff2b00" stroke="#ff2b00" points="258.5,-305.61 255,-295.61 251.5,-305.61 258.5,-305.61"/>
</g>
<!-- node_0x5040000004d0 -->
<g id="node6" class="node">
<title>node_0x5040000004d0</title>
<path fill="#9966ff" stroke="#ffe9c7" d="M217,-166.5C217,-166.5 273,-166.5 273,-166.5 279,-166.5 285,-172.5 285,-178.5 285,-178.5 285,-200.5 285,-200.5 285,-206.5 279,-212.5 273,-212.5 273,-212.5 217,-212.5 217,-212.5 211,-212.5 205,-206.5 205,-200.5 205,-200.5 205,-178.5 205,-178.5 205,-172.5 211,-166.5 217,-166.5"/>
<text text-anchor="middle" x="245" y="-197.3" font-family="Times,serif" font-size="14.00">KeyWord</text>
<polyline fill="none" stroke="#ffe9c7" points="205,-189.5 285,-189.5 "/>
<text text-anchor="middle" x="245" y="-174.3" font-family="Times,serif" font-size="14.00">,</text>
</g>
<!-- node_0x5040000003d0&#45;&gt;node_0x5040000004d0 -->
<g id="edge5" class="edge">
<title>node_0x5040000003d0&#45;&gt;node_0x5040000004d0</title>
<path fill="none" stroke="#9acd32" d="M252.27,-249.37C251.25,-241.15 250.08,-231.66 248.98,-222.73"/>
<polygon fill="#9acd32" stroke="#9acd32" points="252.43,-222.1 247.73,-212.61 245.48,-222.96 252.43,-222.1"/>
</g>
<!-- node_0x504000000490 -->
<g id="node7" class="node">
<title>node_0x504000000490</title>
<path fill="#08c41e" stroke="#ffe9c7" d="M113.5,-83.5C113.5,-83.5 166.5,-83.5 166.5,-83.5 172.5,-83.5 178.5,-89.5 178.5,-95.5 178.5,-95.5 178.5,-117.5 178.5,-117.5 178.5,-123.5 172.5,-129.5 166.5,-129.5 166.5,-129.5 113.5,-129.5 113.5,-129.5 107.5,-129.5 101.5,-123.5 101.5,-117.5 101.5,-117.5 101.5,-95.5 101.5,-95.5 101.5,-89.5 107.5,-83.5 113.5,-83.5"/>
<text text-anchor="middle" x="140" y="-114.3" font-family="Times,serif" font-size="14.00">Var Decl</text>
<polyline fill="none" stroke="#ffe9c7" points="101.5,-106.5 178.5,-106.5 "/>
<text text-anchor="middle" x="140" y="-91.3" font-family="Times,serif" font-size="14.00">one</text>
</g>
<!-- node_0x5040000004d0&#45;&gt;node_0x504000000490 -->
<g id="edge6" class="edge">
<title>node_0x5040000004d0&#45;&gt;node_0x504000000490</title>
<path fill="none" stroke="#9acd32" d="M216.31,-166.37C204.15,-156.99 189.84,-145.95 176.91,-135.98"/>
<polygon fill="#9acd32" stroke="#9acd32" points="178.71,-132.94 168.66,-129.61 174.44,-138.49 178.71,-132.94"/>
</g>
<!-- node_0x504000000590 -->
<g id="node10" class="node">
<title>node_0x504000000590</title>
<path fill="#08c41e" stroke="#ffe9c7" d="M218.5,-83.5C218.5,-83.5 271.5,-83.5 271.5,-83.5 277.5,-83.5 283.5,-89.5 283.5,-95.5 283.5,-95.5 283.5,-117.5 283.5,-117.5 283.5,-123.5 277.5,-129.5 271.5,-129.5 271.5,-129.5 218.5,-129.5 218.5,-129.5 212.5,-129.5 206.5,-123.5 206.5,-117.5 206.5,-117.5 206.5,-95.5 206.5,-95.5 206.5,-89.5 212.5,-83.5 218.5,-83.5"/>
<text text-anchor="middle" x="245" y="-114.3" font-family="Times,serif" font-size="14.00">Var Decl</text>
<polyline fill="none" stroke="#ffe9c7" points="206.5,-106.5 283.5,-106.5 "/>
<text text-anchor="middle" x="245" y="-91.3" font-family="Times,serif" font-size="14.00">one</text>
</g>
<!-- node_0x5040000004d0&#45;&gt;node_0x504000000590 -->
<g id="edge9" class="edge">
<title>node_0x5040000004d0&#45;&gt;node_0x504000000590</title>
<path fill="none" stroke="#ff2b00" d="M245,-166.37C245,-158.15 245,-148.66 245,-139.73"/>
<polygon fill="#ff2b00" stroke="#ff2b00" points="248.5,-139.61 245,-129.61 241.5,-139.61 248.5,-139.61"/>
</g>
<!-- node_0x504000000410 -->
<g id="node8" class="node">
<title>node_0x504000000410</title>
<path fill="#9966ff" stroke="#ffe9c7" d="M12,-0.5C12,-0.5 68,-0.5 68,-0.5 74,-0.5 80,-6.5 80,-12.5 80,-12.5 80,-34.5 80,-34.5 80,-40.5 74,-46.5 68,-46.5 68,-46.5 12,-46.5 12,-46.5 6,-46.5 0,-40.5 0,-34.5 0,-34.5 0,-12.5 0,-12.5 0,-6.5 6,-0.5 12,-0.5"/>
<text text-anchor="middle" x="40" y="-31.3" font-family="Times,serif" font-size="14.00">KeyWord</text>
<polyline fill="none" stroke="#ffe9c7" points="0,-23.5 80,-23.5 "/>
<text text-anchor="middle" x="40" y="-8.3" font-family="Times,serif" font-size="14.00">int</text>
</g>
<!-- node_0x504000000490&#45;&gt;node_0x504000000410 -->
<g id="edge7" class="edge">
<title>node_0x504000000490&#45;&gt;node_0x504000000410</title>
<path fill="none" stroke="#9acd32" d="M112.67,-83.37C101.1,-73.99 87.47,-62.95 75.16,-52.98"/>
<polygon fill="#9acd32" stroke="#9acd32" points="77.27,-50.18 67.29,-46.61 72.86,-55.62 77.27,-50.18"/>
</g>
<!-- node_0x504000000450 -->
<g id="node9" class="node">
<title>node_0x504000000450</title>
<path fill="#ff6699" stroke="#ffe9c7" d="M110.5,-0.5C110.5,-0.5 169.5,-0.5 169.5,-0.5 175.5,-0.5 181.5,-6.5 181.5,-12.5 181.5,-12.5 181.5,-34.5 181.5,-34.5 181.5,-40.5 175.5,-46.5 169.5,-46.5 169.5,-46.5 110.5,-46.5 110.5,-46.5 104.5,-46.5 98.5,-40.5 98.5,-34.5 98.5,-34.5 98.5,-12.5 98.5,-12.5 98.5,-6.5 104.5,-0.5 110.5,-0.5"/>
<text text-anchor="middle" x="140" y="-31.3" font-family="Times,serif" font-size="14.00">Identifier</text>
<polyline fill="none" stroke="#ffe9c7" points="98.5,-23.5 181.5,-23.5 "/>
<text text-anchor="middle" x="140" y="-8.3" font-family="Times,serif" font-size="14.00">one</text>
</g>
<!-- node_0x504000000490&#45;&gt;node_0x504000000450 -->
<g id="edge8" class="edge">
<title>node_0x504000000490&#45;&gt;node_0x504000000450</title>
<path fill="none" stroke="#ff2b00" d="M140,-83.37C140,-75.15 140,-65.66 140,-56.73"/>
<polygon fill="#ff2b00" stroke="#ff2b00" points="143.5,-56.61 140,-46.61 136.5,-56.61 143.5,-56.61"/>
</g>
<!-- node_0x504000000510 -->
<g id="node11" class="node">
<title>node_0x504000000510</title>
<path fill="#9966ff" stroke="#ffe9c7" d="M212,-0.5C212,-0.5 268,-0.5 268,-0.5 274,-0.5 280,-6.5 280,-12.5 280,-12.5 280,-34.5 280,-34.5 280,-40.5 274,-46.5 268,-46.5 268,-46.5 212,-46.5 212,-46.5 206,-46.5 200,-40.5 200,-34.5 200,-34.5 200,-12.5 200,-12.5 200,-6.5 206,-0.5 212,-0.5"/>
<text text-anchor="middle" x="240" y="-31.3" font-family="Times,serif" font-size="14.00">KeyWord</text>
<polyline fill="none" stroke="#ffe9c7" points="200,-23.5 280,-23.5 "/>
<text text-anchor="middle" x="240" y="-8.3" font-family="Times,serif" font-size="14.00">int</text>
</g>
<!-- node_0x504000000590&#45;&gt;node_0x504000000510 -->
<g id="edge10" class="edge">
<title>node_0x504000000590&#45;&gt;node_0x504000000510</title>
<path fill="none" stroke="#9acd32" d="M243.63,-83.37C243.13,-75.15 242.54,-65.66 241.99,-56.73"/>
<polygon fill="#9acd32" stroke="#9acd32" points="245.47,-56.37 241.36,-46.61 238.49,-56.8 245.47,-56.37"/>
</g>
<!-- node_0x504000000550 -->
<g id="node12" class="node">
<title>node_0x504000000550</title>
<path fill="#ff6699" stroke="#ffe9c7" d="M310.5,-0.5C310.5,-0.5 369.5,-0.5 369.5,-0.5 375.5,-0.5 381.5,-6.5 381.5,-12.5 381.5,-12.5 381.5,-34.5 381.5,-34.5 381.5,-40.5 375.5,-46.5 369.5,-46.5 369.5,-46.5 310.5,-46.5 310.5,-46.5 304.5,-46.5 298.5,-40.5 298.5,-34.5 298.5,-34.5 298.5,-12.5 298.5,-12.5 298.5,-6.5 304.5,-0.5 310.5,-0.5"/>
<text text-anchor="middle" x="340" y="-31.3" font-family="Times,serif" font-size="14.00">Identifier</text>
<polyline fill="none" stroke="#ffe9c7" points="298.5,-23.5 381.5,-23.5 "/>
<text text-anchor="middle" x="340" y="-8.3" font-family="Times,serif" font-size="14.00">one</text>
</g>
<!-- node_0x504000000590&#45;&gt;node_0x504000000550 -->
<g id="edge11" class="edge">
<title>node_0x504000000590&#45;&gt;node_0x504000000550</title>
<path fill="none" stroke="#ff2b00" d="M270.96,-83.37C281.85,-74.08 294.66,-63.16 306.27,-53.26"/>
<polygon fill="#ff2b00" stroke="#ff2b00" points="308.73,-55.76 314.07,-46.61 304.19,-50.43 308.73,-55.76"/>
</g>
<!-- node_0x504000000610 -->
<g id="node14" class="node">
<title>node_0x504000000610</title>
<path fill="#9966ff" stroke="#ffe9c7" d="M377,-249.5C377,-249.5 433,-249.5 433,-249.5 439,-249.5 445,-255.5 445,-261.5 445,-261.5 445,-283.5 445,-283.5 445,-289.5 439,-295.5 433,-295.5 433,-295.5 377,-295.5 377,-295.5 371,-295.5 365,-289.5 365,-283.5 365,-283.5 365,-261.5 365,-261.5 365,-255.5 371,-249.5 377,-249.5"/>
<text text-anchor="middle" x="405" y="-280.3" font-family="Times,serif" font-size="14.00">KeyWord</text>
<polyline fill="none" stroke="#ffe9c7" points="365,-272.5 445,-272.5 "/>
<text text-anchor="middle" x="405" y="-257.3" font-family="Times,serif" font-size="14.00">int</text>
</g>
<!-- node_0x504000000650&#45;&gt;node_0x504000000610 -->
<g id="edge13" class="edge">
<title>node_0x504000000650&#45;&gt;node_0x504000000610</title>
<path fill="none" stroke="#9acd32" d="M405,-332.37C405,-324.15 405,-314.66 405,-305.73"/>
<polygon fill="#9acd32" stroke="#9acd32" points="408.5,-305.61 405,-295.61 401.5,-305.61 408.5,-305.61"/>
</g>
<!-- node_0x504000000690 -->
<g id="node15" class="node">
<title>node_0x504000000690</title>
<path fill="#fc0303" stroke="#ffe9c7" d="M496.5,-249.5C496.5,-249.5 571.5,-249.5 571.5,-249.5 577.5,-249.5 583.5,-255.5 583.5,-261.5 583.5,-261.5 583.5,-283.5 583.5,-283.5 583.5,-289.5 577.5,-295.5 571.5,-295.5 571.5,-295.5 496.5,-295.5 496.5,-295.5 490.5,-295.5 484.5,-289.5 484.5,-283.5 484.5,-283.5 484.5,-261.5 484.5,-261.5 484.5,-255.5 490.5,-249.5 496.5,-249.5"/>
<text text-anchor="middle" x="534" y="-280.3" font-family="Times,serif" font-size="14.00">Parameters</text>
<polyline fill="none" stroke="#ffe9c7" points="484.5,-272.5 583.5,-272.5 "/>
<text text-anchor="middle" x="534" y="-257.3" font-family="Times,serif" font-size="14.00">∅</text>
</g>
<!-- node_0x504000000650&#45;&gt;node_0x504000000690 -->
<g id="edge14" class="edge">
<title>node_0x504000000650&#45;&gt;node_0x504000000690</title>
<path fill="none" stroke="#ff2b00" d="M440.25,-332.37C455.61,-322.72 473.77,-311.32 490,-301.13"/>
<polygon fill="#ff2b00" stroke="#ff2b00" points="492.19,-303.89 498.79,-295.61 488.46,-297.96 492.19,-303.89"/>
</g>
<!-- node_0x504000000790 -->
<g id="node16" class="node">
<title>node_0x504000000790</title>
<path fill="#9966ff" stroke="#ffe9c7" d="M509,-166.5C509,-166.5 565,-166.5 565,-166.5 571,-166.5 577,-172.5 577,-178.5 577,-178.5 577,-200.5 577,-200.5 577,-206.5 571,-212.5 565,-212.5 565,-212.5 509,-212.5 509,-212.5 503,-212.5 497,-206.5 497,-200.5 497,-200.5 497,-178.5 497,-178.5 497,-172.5 503,-166.5 509,-166.5"/>
<text text-anchor="middle" x="537" y="-197.3" font-family="Times,serif" font-size="14.00">KeyWord</text>
<polyline fill="none" stroke="#ffe9c7" points="497,-189.5 577,-189.5 "/>
<text text-anchor="middle" x="537" y="-174.3" font-family="Times,serif" font-size="14.00">,</text>
</g>
<!-- node_0x504000000690&#45;&gt;node_0x504000000790 -->
<g id="edge15" class="edge">
<title>node_0x504000000690&#45;&gt;node_0x504000000790</title>
<path fill="none" stroke="#9acd32" d="M534.82,-249.37C535.12,-241.15 535.48,-231.66 535.81,-222.73"/>
<polygon fill="#9acd32" stroke="#9acd32" points="539.31,-222.73 536.18,-212.61 532.31,-222.47 539.31,-222.73"/>
</g>
<!-- node_0x504000000750 -->
<g id="node17" class="node">
<title>node_0x504000000750</title>
<path fill="#08c41e" stroke="#ffe9c7" d="M510.5,-83.5C510.5,-83.5 563.5,-83.5 563.5,-83.5 569.5,-83.5 575.5,-89.5 575.5,-95.5 575.5,-95.5 575.5,-117.5 575.5,-117.5 575.5,-123.5 569.5,-129.5 563.5,-129.5 563.5,-129.5 510.5,-129.5 510.5,-129.5 504.5,-129.5 498.5,-123.5 498.5,-117.5 498.5,-117.5 498.5,-95.5 498.5,-95.5 498.5,-89.5 504.5,-83.5 510.5,-83.5"/>
<text text-anchor="middle" x="537" y="-114.3" font-family="Times,serif" font-size="14.00">Var Decl</text>
<polyline fill="none" stroke="#ffe9c7" points="498.5,-106.5 575.5,-106.5 "/>
<text text-anchor="middle" x="537" y="-91.3" font-family="Times,serif" font-size="14.00">one</text>
</g>
<!-- node_0x504000000790&#45;&gt;node_0x504000000750 -->
<g id="edge16" class="edge">
<title>node_0x504000000790&#45;&gt;node_0x504000000750</title>
<path fill="none" stroke="#9acd32" d="M537,-166.37C537,-158.15 537,-148.66 537,-139.73"/>
<polygon fill="#9acd32" stroke="#9acd32" points="540.5,-139.61 537,-129.61 533.5,-139.61 540.5,-139.61"/>
</g>
<!-- node_0x504000000850 -->
<g id="node20" class="node">
<title>node_0x504000000850</title>
<path fill="#08c41e" stroke="#ffe9c7" d="M613.5,-83.5C613.5,-83.5 666.5,-83.5 666.5,-83.5 672.5,-83.5 678.5,-89.5 678.5,-95.5 678.5,-95.5 678.5,-117.5 678.5,-117.5 678.5,-123.5 672.5,-129.5 666.5,-129.5 666.5,-129.5 613.5,-129.5 613.5,-129.5 607.5,-129.5 601.5,-123.5 601.5,-117.5 601.5,-117.5 601.5,-95.5 601.5,-95.5 601.5,-89.5 607.5,-83.5 613.5,-83.5"/>
<text text-anchor="middle" x="640" y="-114.3" font-family="Times,serif" font-size="14.00">Var Decl</text>
<polyline fill="none" stroke="#ffe9c7" points="601.5,-106.5 678.5,-106.5 "/>
<text text-anchor="middle" x="640" y="-91.3" font-family="Times,serif" font-size="14.00">one</text>
</g>
<!-- node_0x504000000790&#45;&gt;node_0x504000000850 -->
<g id="edge19" class="edge">
<title>node_0x504000000790&#45;&gt;node_0x504000000850</title>
<path fill="none" stroke="#ff2b00" d="M565.15,-166.37C577.07,-156.99 591.11,-145.95 603.79,-135.98"/>
<polygon fill="#ff2b00" stroke="#ff2b00" points="606.19,-138.54 611.89,-129.61 601.86,-133.04 606.19,-138.54"/>
</g>
<!-- node_0x5040000006d0 -->
<g id="node18" class="node">
<title>node_0x5040000006d0</title>
<path fill="#9966ff" stroke="#ffe9c7" d="M412,-0.5C412,-0.5 468,-0.5 468,-0.5 474,-0.5 480,-6.5 480,-12.5 480,-12.5 480,-34.5 480,-34.5 480,-40.5 474,-46.5 468,-46.5 468,-46.5 412,-46.5 412,-46.5 406,-46.5 400,-40.5 400,-34.5 400,-34.5 400,-12.5 400,-12.5 400,-6.5 406,-0.5 412,-0.5"/>
<text text-anchor="middle" x="440" y="-31.3" font-family="Times,serif" font-size="14.00">KeyWord</text>
<polyline fill="none" stroke="#ffe9c7" points="400,-23.5 480,-23.5 "/>
<text text-anchor="middle" x="440" y="-8.3" font-family="Times,serif" font-size="14.00">int</text>
</g>
<!-- node_0x504000000750&#45;&gt;node_0x5040000006d0 -->
<g id="edge17" class="edge">
<title>node_0x504000000750&#45;&gt;node_0x5040000006d0</title>
<path fill="none" stroke="#9acd32" d="M510.49,-83.37C499.37,-74.08 486.3,-63.16 474.44,-53.26"/>
<polygon fill="#9acd32" stroke="#9acd32" points="476.39,-50.33 466.47,-46.61 471.91,-55.7 476.39,-50.33"/>
</g>
<!-- node_0x504000000710 -->
<g id="node19" class="node">
<title>node_0x504000000710</title>
<path fill="#ff6699" stroke="#ffe9c7" d="M510.5,-0.5C510.5,-0.5 569.5,-0.5 569.5,-0.5 575.5,-0.5 581.5,-6.5 581.5,-12.5 581.5,-12.5 581.5,-34.5 581.5,-34.5 581.5,-40.5 575.5,-46.5 569.5,-46.5 569.5,-46.5 510.5,-46.5 510.5,-46.5 504.5,-46.5 498.5,-40.5 498.5,-34.5 498.5,-34.5 498.5,-12.5 498.5,-12.5 498.5,-6.5 504.5,-0.5 510.5,-0.5"/>
<text text-anchor="middle" x="540" y="-31.3" font-family="Times,serif" font-size="14.00">Identifier</text>
<polyline fill="none" stroke="#ffe9c7" points="498.5,-23.5 581.5,-23.5 "/>
<text text-anchor="middle" x="540" y="-8.3" font-family="Times,serif" font-size="14.00">one</text>
</g>
<!-- node_0x504000000750&#45;&gt;node_0x504000000710 -->
<g id="edge18" class="edge">
<title>node_0x504000000750&#45;&gt;node_0x504000000710</title>
<path fill="none" stroke="#ff2b00" d="M537.82,-83.37C538.12,-75.15 538.48,-65.66 538.81,-56.73"/>
<polygon fill="#ff2b00" stroke="#ff2b00" points="542.31,-56.73 539.18,-46.61 535.31,-56.47 542.31,-56.73"/>
</g>
<!-- node_0x5040000007d0 -->
<g id="node21" class="node">
<title>node_0x5040000007d0</title>
<path fill="#9966ff" stroke="#ffe9c7" d="M612,-0.5C612,-0.5 668,-0.5 668,-0.5 674,-0.5 680,-6.5 680,-12.5 680,-12.5 680,-34.5 680,-34.5 680,-40.5 674,-46.5 668,-46.5 668,-46.5 612,-46.5 612,-46.5 606,-46.5 600,-40.5 600,-34.5 600,-34.5 600,-12.5 600,-12.5 600,-6.5 606,-0.5 612,-0.5"/>
<text text-anchor="middle" x="640" y="-31.3" font-family="Times,serif" font-size="14.00">KeyWord</text>
<polyline fill="none" stroke="#ffe9c7" points="600,-23.5 680,-23.5 "/>
<text text-anchor="middle" x="640" y="-8.3" font-family="Times,serif" font-size="14.00">int</text>
</g>
<!-- node_0x504000000850&#45;&gt;node_0x5040000007d0 -->
<g id="edge20" class="edge">
<title>node_0x504000000850&#45;&gt;node_0x5040000007d0</title>
<path fill="none" stroke="#9acd32" d="M640,-83.37C640,-75.15 640,-65.66 640,-56.73"/>
<polygon fill="#9acd32" stroke="#9acd32" points="643.5,-56.61 640,-46.61 636.5,-56.61 643.5,-56.61"/>
</g>
<!-- node_0x504000000810 -->
<g id="node22" class="node">
<title>node_0x504000000810</title>
<path fill="#ff6699" stroke="#ffe9c7" d="M710.5,-0.5C710.5,-0.5 769.5,-0.5 769.5,-0.5 775.5,-0.5 781.5,-6.5 781.5,-12.5 781.5,-12.5 781.5,-34.5 781.5,-34.5 781.5,-40.5 775.5,-46.5 769.5,-46.5 769.5,-46.5 710.5,-46.5 710.5,-46.5 704.5,-46.5 698.5,-40.5 698.5,-34.5 698.5,-34.5 698.5,-12.5 698.5,-12.5 698.5,-6.5 704.5,-0.5 710.5,-0.5"/>
<text text-anchor="middle" x="740" y="-31.3" font-family="Times,serif" font-size="14.00">Identifier</text>
<polyline fill="none" stroke="#ffe9c7" points="698.5,-23.5 781.5,-23.5 "/>
<text text-anchor="middle" x="740" y="-8.3" font-family="Times,serif" font-size="14.00">one</text>
</g>
<!-- node_0x504000000850&#45;&gt;node_0x504000000810 -->
<g id="edge21" class="edge">
<title>node_0x504000000850&#45;&gt;node_0x504000000810</title>
<path fill="none" stroke="#ff2b00" d="M667.33,-83.37C678.9,-73.99 692.53,-62.95 704.84,-52.98"/>
<polygon fill="#ff2b00" stroke="#ff2b00" points="707.14,-55.62 712.71,-46.61 702.73,-50.18 707.14,-55.62"/>
</g>
<!-- node_0x5040000008d0 -->
<g id="node24" class="node">
<title>node_0x5040000008d0</title>
<path fill="#9966ff" stroke="#ffe9c7" d="M476,-332.5C476,-332.5 532,-332.5 532,-332.5 538,-332.5 544,-338.5 544,-344.5 544,-344.5 544,-366.5 544,-366.5 544,-372.5 538,-378.5 532,-378.5 532,-378.5 476,-378.5 476,-378.5 470,-378.5 464,-372.5 464,-366.5 464,-366.5 464,-344.5 464,-344.5 464,-338.5 470,-332.5 476,-332.5"/>
<text text-anchor="middle" x="504" y="-363.3" font-family="Times,serif" font-size="14.00">KeyWord</text>
<polyline fill="none" stroke="#ffe9c7" points="464,-355.5 544,-355.5 "/>
<text text-anchor="middle" x="504" y="-340.3" font-family="Times,serif" font-size="14.00">int</text>
</g>
<!-- node_0x504000000950&#45;&gt;node_0x5040000008d0 -->
<g id="edge23" class="edge">
<title>node_0x504000000950&#45;&gt;node_0x5040000008d0</title>
<path fill="none" stroke="#9acd32" d="M504,-415.37C504,-407.15 504,-397.66 504,-388.73"/>
<polygon fill="#9acd32" stroke="#9acd32" points="507.5,-388.61 504,-378.61 500.5,-388.61 507.5,-388.61"/>
</g>
<!-- node_0x504000000910 -->
<g id="node25" class="node">
<title>node_0x504000000910</title>
<path fill="#ff6699" stroke="#ffe9c7" d="M574.5,-332.5C574.5,-332.5 633.5,-332.5 633.5,-332.5 639.5,-332.5 645.5,-338.5 645.5,-344.5 645.5,-344.5 645.5,-366.5 645.5,-366.5 645.5,-372.5 639.5,-378.5 633.5,-378.5 633.5,-378.5 574.5,-378.5 574.5,-378.5 568.5,-378.5 562.5,-372.5 562.5,-366.5 562.5,-366.5 562.5,-344.5 562.5,-344.5 562.5,-338.5 568.5,-332.5 574.5,-332.5"/>
<text text-anchor="middle" x="604" y="-363.3" font-family="Times,serif" font-size="14.00">Identifier</text>
<polyline fill="none" stroke="#ffe9c7" points="562.5,-355.5 645.5,-355.5 "/>
<text text-anchor="middle" x="604" y="-340.3" font-family="Times,serif" font-size="14.00">two</text>
</g>
<!-- node_0x504000000950&#45;&gt;node_0x504000000910 -->
<g id="edge24" class="edge">
<title>node_0x504000000950&#45;&gt;node_0x504000000910</title>
<path fill="none" stroke="#ff2b00" d="M531.33,-415.37C542.9,-405.99 556.53,-394.95 568.84,-384.98"/>
<polygon fill="#ff2b00" stroke="#ff2b00" points="571.14,-387.62 576.71,-378.61 566.73,-382.18 571.14,-387.62"/>
</g>
</g>
</svg>
