<?xml version="1.0" encoding="UTF-8" standalone="no"?>
<!DOCTYPE svg PUBLIC "-//W3C//DTD SVG 1.1//EN"
 "http://www.w3.org/Graphics/SVG/1.1/DTD/svg11.dtd">
<!-- Generated by graphviz version 2.43.0 (0)
 -->
<!-- Title: G Pages: 1 -->
<svg width="228pt" height="345pt"
 viewBox="0.00 0.00 228.00 345.00" xmlns="http://www.w3.org/2000/svg" xmlns:xlink="http://www.w3.org/1999/xlink">
<g id="graph0" class="graph" transform="scale(1 1) rotate(0) translate(4 341)">
<title>G</title>
<polygon fill="#ffd480" stroke="transparent" points="-4,4 -4,-341 224,-341 224,4 -4,4"/>
<text text-anchor="middle" x="110" y="-309" font-family="Verdana" font-size="30.00" fill="#ffffff">AST</text>
<!-- node_0x5040000001d0 -->
<g id="node1" class="node">
<title>node_0x5040000001d0</title>
<path fill="#34cb34" stroke="#ffe9c7" d="M83,-249.5C83,-249.5 148,-249.5 148,-249.5 154,-249.5 160,-255.5 160,-261.5 160,-261.5 160,-283.5 160,-283.5 160,-289.5 154,-295.5 148,-295.5 148,-295.5 83,-295.5 83,-295.5 77,-295.5 71,-289.5 71,-283.5 71,-283.5 71,-261.5 71,-261.5 71,-255.5 77,-249.5 83,-249.5"/>
<text text-anchor="middle" x="115.5" y="-280.3" font-family="Times,serif" font-size="14.00">data type:</text>
<polyline fill="none" stroke="#ffe9c7" points="71,-272.5 160,-272.5 "/>
<text text-anchor="middle" x="115.5" y="-257.3" font-family="Times,serif" font-size="14.00">data: ;</text>
</g>
<!-- node_0x504000000150 -->
<g id="node2" class="node">
<title>node_0x504000000150</title>
<path fill="#34cb34" stroke="#ffe9c7" d="M83,-166.5C83,-166.5 148,-166.5 148,-166.5 154,-166.5 160,-172.5 160,-178.5 160,-178.5 160,-200.5 160,-200.5 160,-206.5 154,-212.5 148,-212.5 148,-212.5 83,-212.5 83,-212.5 77,-212.5 71,-206.5 71,-200.5 71,-200.5 71,-178.5 71,-178.5 71,-172.5 77,-166.5 83,-166.5"/>
<text text-anchor="middle" x="115.5" y="-197.3" font-family="Times,serif" font-size="14.00">data type:</text>
<polyline fill="none" stroke="#ffe9c7" points="71,-189.5 160,-189.5 "/>
<text text-anchor="middle" x="115.5" y="-174.3" font-family="Times,serif" font-size="14.00">data:</text>
</g>
<!-- node_0x5040000001d0&#45;&gt;node_0x504000000150 -->
<g id="edge1" class="edge">
<title>node_0x5040000001d0&#45;&gt;node_0x504000000150</title>
<path fill="none" stroke="#9acd32" d="M115.5,-249.37C115.5,-241.15 115.5,-231.66 115.5,-222.73"/>
<polygon fill="#9acd32" stroke="#9acd32" points="119,-222.61 115.5,-212.61 112,-222.61 119,-222.61"/>
</g>
<!-- node_0x5040000000d0 -->
<g id="node3" class="node">
<title>node_0x5040000000d0</title>
<path fill="#34cb34" stroke="#ffe9c7" d="M12,-83.5C12,-83.5 101,-83.5 101,-83.5 107,-83.5 113,-89.5 113,-95.5 113,-95.5 113,-117.5 113,-117.5 113,-123.5 107,-129.5 101,-129.5 101,-129.5 12,-129.5 12,-129.5 6,-129.5 0,-123.5 0,-117.5 0,-117.5 0,-95.5 0,-95.5 0,-89.5 6,-83.5 12,-83.5"/>
<text text-anchor="middle" x="56.5" y="-114.3" font-family="Times,serif" font-size="14.00">data type:</text>
<polyline fill="none" stroke="#ffe9c7" points="0,-106.5 113,-106.5 "/>
<text text-anchor="middle" x="56.5" y="-91.3" font-family="Times,serif" font-size="14.00">data: number</text>
</g>
<!-- node_0x504000000150&#45;&gt;node_0x5040000000d0 -->
<g id="edge2" class="edge">
<title>node_0x504000000150&#45;&gt;node_0x5040000000d0</title>
<path fill="none" stroke="#9acd32" d="M99.38,-166.37C92.94,-157.53 85.42,-147.21 78.5,-137.7"/>
<polygon fill="#9acd32" stroke="#9acd32" points="81.32,-135.63 72.6,-129.61 75.66,-139.75 81.32,-135.63"/>
</g>
<!-- node_0x504000000190 -->
<g id="node4" class="node">
<title>node_0x504000000190</title>
<path fill="#34cb34" stroke="#ffe9c7" d="M143,-83.5C143,-83.5 208,-83.5 208,-83.5 214,-83.5 220,-89.5 220,-95.5 220,-95.5 220,-117.5 220,-117.5 220,-123.5 214,-129.5 208,-129.5 208,-129.5 143,-129.5 143,-129.5 137,-129.5 131,-123.5 131,-117.5 131,-117.5 131,-95.5 131,-95.5 131,-89.5 137,-83.5 143,-83.5"/>
<text text-anchor="middle" x="175.5" y="-114.3" font-family="Times,serif" font-size="14.00">data type:</text>
<polyline fill="none" stroke="#ffe9c7" points="131,-106.5 220,-106.5 "/>
<text text-anchor="middle" x="175.5" y="-91.3" font-family="Times,serif" font-size="14.00">data: =</text>
</g>
<!-- node_0x504000000150&#45;&gt;node_0x504000000190 -->
<g id="edge3" class="edge">
<title>node_0x504000000150&#45;&gt;node_0x504000000190</title>
<path fill="none" stroke="#ff2b00" d="M131.9,-166.37C138.44,-157.53 146.09,-147.21 153.13,-137.7"/>
<polygon fill="#ff2b00" stroke="#ff2b00" points="155.98,-139.73 159.12,-129.61 150.36,-135.56 155.98,-139.73"/>
</g>
<!-- node_0x504000000110 -->
<g id="node5" class="node">
<title>node_0x504000000110</title>
<path fill="#34cb34" stroke="#ffe9c7" d="M143,-0.5C143,-0.5 208,-0.5 208,-0.5 214,-0.5 220,-6.5 220,-12.5 220,-12.5 220,-34.5 220,-34.5 220,-40.5 214,-46.5 208,-46.5 208,-46.5 143,-46.5 143,-46.5 137,-46.5 131,-40.5 131,-34.5 131,-34.5 131,-12.5 131,-12.5 131,-6.5 137,-0.5 143,-0.5"/>
<text text-anchor="middle" x="175.5" y="-31.3" font-family="Times,serif" font-size="14.00">data type:</text>
<polyline fill="none" stroke="#ffe9c7" points="131,-23.5 220,-23.5 "/>
<text text-anchor="middle" x="175.5" y="-8.3" font-family="Times,serif" font-size="14.00">data:</text>
</g>
<!-- node_0x504000000190&#45;&gt;node_0x504000000110 -->
<g id="edge4" class="edge">
<title>node_0x504000000190&#45;&gt;node_0x504000000110</title>
<path fill="none" stroke="#9acd32" d="M175.5,-83.37C175.5,-75.15 175.5,-65.66 175.5,-56.73"/>
<polygon fill="#9acd32" stroke="#9acd32" points="179,-56.61 175.5,-46.61 172,-56.61 179,-56.61"/>
</g>
</g>
</svg>
