<?xml version="1.0" encoding="UTF-8" standalone="no"?>
<!DOCTYPE svg PUBLIC "-//W3C//DTD SVG 1.1//EN"
 "http://www.w3.org/Graphics/SVG/1.1/DTD/svg11.dtd">
<!-- Generated by graphviz version 2.43.0 (0)
 -->
<!-- Title: G Pages: 1 -->
<svg width="553pt" height="843pt"
 viewBox="0.00 0.00 552.50 843.00" xmlns="http://www.w3.org/2000/svg" xmlns:xlink="http://www.w3.org/1999/xlink">
<g id="graph0" class="graph" transform="scale(1 1) rotate(0) translate(4 839)">
<title>G</title>
<polygon fill="#ffd480" stroke="transparent" points="-4,4 -4,-839 548.5,-839 548.5,4 -4,4"/>
<text text-anchor="middle" x="272.25" y="-807" font-family="Verdana" font-size="30.00" fill="#ffffff">AST</text>
<!-- node_0x504000000850 -->
<g id="node1" class="node">
<title>node_0x504000000850</title>
<path fill="#9966ff" stroke="#ffe9c7" d="M174,-747.5C174,-747.5 230,-747.5 230,-747.5 236,-747.5 242,-753.5 242,-759.5 242,-759.5 242,-781.5 242,-781.5 242,-787.5 236,-793.5 230,-793.5 230,-793.5 174,-793.5 174,-793.5 168,-793.5 162,-787.5 162,-781.5 162,-781.5 162,-759.5 162,-759.5 162,-753.5 168,-747.5 174,-747.5"/>
<text text-anchor="middle" x="202" y="-778.3" font-family="Times,serif" font-size="14.00">KeyWord</text>
<polyline fill="none" stroke="#ffe9c7" points="162,-770.5 242,-770.5 "/>
<text text-anchor="middle" x="202" y="-755.3" font-family="Times,serif" font-size="14.00">;</text>
</g>
<!-- node_0x504000000510 -->
<g id="node2" class="node">
<title>node_0x504000000510</title>
<path fill="#fca103" stroke="#ffe9c7" d="M119.5,-664.5C119.5,-664.5 176.5,-664.5 176.5,-664.5 182.5,-664.5 188.5,-670.5 188.5,-676.5 188.5,-676.5 188.5,-698.5 188.5,-698.5 188.5,-704.5 182.5,-710.5 176.5,-710.5 176.5,-710.5 119.5,-710.5 119.5,-710.5 113.5,-710.5 107.5,-704.5 107.5,-698.5 107.5,-698.5 107.5,-676.5 107.5,-676.5 107.5,-670.5 113.5,-664.5 119.5,-664.5"/>
<text text-anchor="middle" x="148" y="-695.3" font-family="Times,serif" font-size="14.00">Func Def</text>
<polyline fill="none" stroke="#ffe9c7" points="107.5,-687.5 188.5,-687.5 "/>
<text text-anchor="middle" x="148" y="-672.3" font-family="Times,serif" font-size="14.00">main</text>
</g>
<!-- node_0x504000000850&#45;&gt;node_0x504000000510 -->
<g id="edge1" class="edge">
<title>node_0x504000000850&#45;&gt;node_0x504000000510</title>
<path fill="none" stroke="#9acd32" d="M187.24,-747.37C181.41,-738.62 174.61,-728.41 168.32,-718.99"/>
<polygon fill="#9acd32" stroke="#9acd32" points="171.2,-716.99 162.74,-710.61 165.37,-720.87 171.2,-716.99"/>
</g>
<!-- node_0x5040000008d0 -->
<g id="node16" class="node">
<title>node_0x5040000008d0</title>
<path fill="#fca103" stroke="#ffe9c7" d="M227.5,-664.5C227.5,-664.5 284.5,-664.5 284.5,-664.5 290.5,-664.5 296.5,-670.5 296.5,-676.5 296.5,-676.5 296.5,-698.5 296.5,-698.5 296.5,-704.5 290.5,-710.5 284.5,-710.5 284.5,-710.5 227.5,-710.5 227.5,-710.5 221.5,-710.5 215.5,-704.5 215.5,-698.5 215.5,-698.5 215.5,-676.5 215.5,-676.5 215.5,-670.5 221.5,-664.5 227.5,-664.5"/>
<text text-anchor="middle" x="256" y="-695.3" font-family="Times,serif" font-size="14.00">Func Def</text>
<polyline fill="none" stroke="#ffe9c7" points="215.5,-687.5 296.5,-687.5 "/>
<text text-anchor="middle" x="256" y="-672.3" font-family="Times,serif" font-size="14.00">func</text>
</g>
<!-- node_0x504000000850&#45;&gt;node_0x5040000008d0 -->
<g id="edge15" class="edge">
<title>node_0x504000000850&#45;&gt;node_0x5040000008d0</title>
<path fill="none" stroke="#ff2b00" d="M216.76,-747.37C222.59,-738.62 229.39,-728.41 235.68,-718.99"/>
<polygon fill="#ff2b00" stroke="#ff2b00" points="238.63,-720.87 241.26,-710.61 232.8,-716.99 238.63,-720.87"/>
</g>
<!-- node_0x5040000004d0 -->
<g id="node3" class="node">
<title>node_0x5040000004d0</title>
<path fill="#9966ff" stroke="#ffe9c7" d="M12,-581.5C12,-581.5 68,-581.5 68,-581.5 74,-581.5 80,-587.5 80,-593.5 80,-593.5 80,-615.5 80,-615.5 80,-621.5 74,-627.5 68,-627.5 68,-627.5 12,-627.5 12,-627.5 6,-627.5 0,-621.5 0,-615.5 0,-615.5 0,-593.5 0,-593.5 0,-587.5 6,-581.5 12,-581.5"/>
<text text-anchor="middle" x="40" y="-612.3" font-family="Times,serif" font-size="14.00">KeyWord</text>
<polyline fill="none" stroke="#ffe9c7" points="0,-604.5 80,-604.5 "/>
<text text-anchor="middle" x="40" y="-589.3" font-family="Times,serif" font-size="14.00">int</text>
</g>
<!-- node_0x504000000510&#45;&gt;node_0x5040000004d0 -->
<g id="edge2" class="edge">
<title>node_0x504000000510&#45;&gt;node_0x5040000004d0</title>
<path fill="none" stroke="#9acd32" d="M118.49,-664.37C105.87,-654.9 90.99,-643.74 77.59,-633.69"/>
<polygon fill="#9acd32" stroke="#9acd32" points="79.58,-630.81 69.48,-627.61 75.38,-636.41 79.58,-630.81"/>
</g>
<!-- node_0x504000000550 -->
<g id="node4" class="node">
<title>node_0x504000000550</title>
<path fill="#fc0303" stroke="#ffe9c7" d="M110.5,-581.5C110.5,-581.5 185.5,-581.5 185.5,-581.5 191.5,-581.5 197.5,-587.5 197.5,-593.5 197.5,-593.5 197.5,-615.5 197.5,-615.5 197.5,-621.5 191.5,-627.5 185.5,-627.5 185.5,-627.5 110.5,-627.5 110.5,-627.5 104.5,-627.5 98.5,-621.5 98.5,-615.5 98.5,-615.5 98.5,-593.5 98.5,-593.5 98.5,-587.5 104.5,-581.5 110.5,-581.5"/>
<text text-anchor="middle" x="148" y="-612.3" font-family="Times,serif" font-size="14.00">Parameters</text>
<polyline fill="none" stroke="#ffe9c7" points="98.5,-604.5 197.5,-604.5 "/>
<text text-anchor="middle" x="148" y="-589.3" font-family="Times,serif" font-size="14.00">∅</text>
</g>
<!-- node_0x504000000510&#45;&gt;node_0x504000000550 -->
<g id="edge3" class="edge">
<title>node_0x504000000510&#45;&gt;node_0x504000000550</title>
<path fill="none" stroke="#ff2b00" d="M148,-664.37C148,-656.15 148,-646.66 148,-637.73"/>
<polygon fill="#ff2b00" stroke="#ff2b00" points="151.5,-637.61 148,-627.61 144.5,-637.61 151.5,-637.61"/>
</g>
<!-- node_0x504000000590 -->
<g id="node5" class="node">
<title>node_0x504000000590</title>
<path fill="#9966ff" stroke="#ffe9c7" d="M120,-498.5C120,-498.5 176,-498.5 176,-498.5 182,-498.5 188,-504.5 188,-510.5 188,-510.5 188,-532.5 188,-532.5 188,-538.5 182,-544.5 176,-544.5 176,-544.5 120,-544.5 120,-544.5 114,-544.5 108,-538.5 108,-532.5 108,-532.5 108,-510.5 108,-510.5 108,-504.5 114,-498.5 120,-498.5"/>
<text text-anchor="middle" x="148" y="-529.3" font-family="Times,serif" font-size="14.00">KeyWord</text>
<polyline fill="none" stroke="#ffe9c7" points="108,-521.5 188,-521.5 "/>
<text text-anchor="middle" x="148" y="-506.3" font-family="Times,serif" font-size="14.00">;</text>
</g>
<!-- node_0x504000000550&#45;&gt;node_0x504000000590 -->
<g id="edge4" class="edge">
<title>node_0x504000000550&#45;&gt;node_0x504000000590</title>
<path fill="none" stroke="#ff2b00" d="M148,-581.37C148,-573.15 148,-563.66 148,-554.73"/>
<polygon fill="#ff2b00" stroke="#ff2b00" points="151.5,-554.61 148,-544.61 144.5,-554.61 151.5,-554.61"/>
</g>
<!-- node_0x504000000650 -->
<g id="node6" class="node">
<title>node_0x504000000650</title>
<path fill="#08c41e" stroke="#ffe9c7" d="M121.5,-415.5C121.5,-415.5 174.5,-415.5 174.5,-415.5 180.5,-415.5 186.5,-421.5 186.5,-427.5 186.5,-427.5 186.5,-449.5 186.5,-449.5 186.5,-455.5 180.5,-461.5 174.5,-461.5 174.5,-461.5 121.5,-461.5 121.5,-461.5 115.5,-461.5 109.5,-455.5 109.5,-449.5 109.5,-449.5 109.5,-427.5 109.5,-427.5 109.5,-421.5 115.5,-415.5 121.5,-415.5"/>
<text text-anchor="middle" x="148" y="-446.3" font-family="Times,serif" font-size="14.00">Var Decl</text>
<polyline fill="none" stroke="#ffe9c7" points="109.5,-438.5 186.5,-438.5 "/>
<text text-anchor="middle" x="148" y="-423.3" font-family="Times,serif" font-size="14.00">one</text>
</g>
<!-- node_0x504000000590&#45;&gt;node_0x504000000650 -->
<g id="edge5" class="edge">
<title>node_0x504000000590&#45;&gt;node_0x504000000650</title>
<path fill="none" stroke="#9acd32" d="M148,-498.37C148,-490.15 148,-480.66 148,-471.73"/>
<polygon fill="#9acd32" stroke="#9acd32" points="151.5,-471.61 148,-461.61 144.5,-471.61 151.5,-471.61"/>
</g>
<!-- node_0x5040000005d0 -->
<g id="node7" class="node">
<title>node_0x5040000005d0</title>
<path fill="#9966ff" stroke="#ffe9c7" d="M71,-332.5C71,-332.5 127,-332.5 127,-332.5 133,-332.5 139,-338.5 139,-344.5 139,-344.5 139,-366.5 139,-366.5 139,-372.5 133,-378.5 127,-378.5 127,-378.5 71,-378.5 71,-378.5 65,-378.5 59,-372.5 59,-366.5 59,-366.5 59,-344.5 59,-344.5 59,-338.5 65,-332.5 71,-332.5"/>
<text text-anchor="middle" x="99" y="-363.3" font-family="Times,serif" font-size="14.00">KeyWord</text>
<polyline fill="none" stroke="#ffe9c7" points="59,-355.5 139,-355.5 "/>
<text text-anchor="middle" x="99" y="-340.3" font-family="Times,serif" font-size="14.00">int</text>
</g>
<!-- node_0x504000000650&#45;&gt;node_0x5040000005d0 -->
<g id="edge6" class="edge">
<title>node_0x504000000650&#45;&gt;node_0x5040000005d0</title>
<path fill="none" stroke="#9acd32" d="M134.61,-415.37C129.37,-406.71 123.27,-396.62 117.62,-387.27"/>
<polygon fill="#9acd32" stroke="#9acd32" points="120.54,-385.35 112.37,-378.61 114.55,-388.97 120.54,-385.35"/>
</g>
<!-- node_0x504000000690 -->
<g id="node8" class="node">
<title>node_0x504000000690</title>
<path fill="#9966ff" stroke="#ffe9c7" d="M169,-332.5C169,-332.5 225,-332.5 225,-332.5 231,-332.5 237,-338.5 237,-344.5 237,-344.5 237,-366.5 237,-366.5 237,-372.5 231,-378.5 225,-378.5 225,-378.5 169,-378.5 169,-378.5 163,-378.5 157,-372.5 157,-366.5 157,-366.5 157,-344.5 157,-344.5 157,-338.5 163,-332.5 169,-332.5"/>
<text text-anchor="middle" x="197" y="-363.3" font-family="Times,serif" font-size="14.00">KeyWord</text>
<polyline fill="none" stroke="#ffe9c7" points="157,-355.5 237,-355.5 "/>
<text text-anchor="middle" x="197" y="-340.3" font-family="Times,serif" font-size="14.00">=</text>
</g>
<!-- node_0x504000000650&#45;&gt;node_0x504000000690 -->
<g id="edge7" class="edge">
<title>node_0x504000000650&#45;&gt;node_0x504000000690</title>
<path fill="none" stroke="#ff2b00" d="M161.39,-415.37C166.63,-406.71 172.73,-396.62 178.38,-387.27"/>
<polygon fill="#ff2b00" stroke="#ff2b00" points="181.45,-388.97 183.63,-378.61 175.46,-385.35 181.45,-388.97"/>
</g>
<!-- node_0x504000000610 -->
<g id="node9" class="node">
<title>node_0x504000000610</title>
<path fill="#ff6699" stroke="#ffe9c7" d="M123.5,-249.5C123.5,-249.5 182.5,-249.5 182.5,-249.5 188.5,-249.5 194.5,-255.5 194.5,-261.5 194.5,-261.5 194.5,-283.5 194.5,-283.5 194.5,-289.5 188.5,-295.5 182.5,-295.5 182.5,-295.5 123.5,-295.5 123.5,-295.5 117.5,-295.5 111.5,-289.5 111.5,-283.5 111.5,-283.5 111.5,-261.5 111.5,-261.5 111.5,-255.5 117.5,-249.5 123.5,-249.5"/>
<text text-anchor="middle" x="153" y="-280.3" font-family="Times,serif" font-size="14.00">Identifier</text>
<polyline fill="none" stroke="#ffe9c7" points="111.5,-272.5 194.5,-272.5 "/>
<text text-anchor="middle" x="153" y="-257.3" font-family="Times,serif" font-size="14.00">one</text>
</g>
<!-- node_0x504000000690&#45;&gt;node_0x504000000610 -->
<g id="edge8" class="edge">
<title>node_0x504000000690&#45;&gt;node_0x504000000610</title>
<path fill="none" stroke="#9acd32" d="M184.98,-332.37C180.32,-323.79 174.91,-313.83 169.87,-304.56"/>
<polygon fill="#9acd32" stroke="#9acd32" points="172.86,-302.72 165.01,-295.61 166.71,-306.06 172.86,-302.72"/>
</g>
<!-- node_0x504000000710 -->
<g id="node10" class="node">
<title>node_0x504000000710</title>
<path fill="#916306" stroke="#ffe9c7" d="M225,-249.5C225,-249.5 255,-249.5 255,-249.5 261,-249.5 267,-255.5 267,-261.5 267,-261.5 267,-283.5 267,-283.5 267,-289.5 261,-295.5 255,-295.5 255,-295.5 225,-295.5 225,-295.5 219,-295.5 213,-289.5 213,-283.5 213,-283.5 213,-261.5 213,-261.5 213,-255.5 219,-249.5 225,-249.5"/>
<text text-anchor="middle" x="240" y="-280.3" font-family="Times,serif" font-size="14.00">Call</text>
<polyline fill="none" stroke="#ffe9c7" points="213,-272.5 267,-272.5 "/>
<text text-anchor="middle" x="240" y="-257.3" font-family="Times,serif" font-size="14.00">∅</text>
</g>
<!-- node_0x504000000690&#45;&gt;node_0x504000000710 -->
<g id="edge9" class="edge">
<title>node_0x504000000690&#45;&gt;node_0x504000000710</title>
<path fill="none" stroke="#ff2b00" d="M208.75,-332.37C213.3,-323.79 218.59,-313.83 223.51,-304.56"/>
<polygon fill="#ff2b00" stroke="#ff2b00" points="226.67,-306.08 228.26,-295.61 220.48,-302.8 226.67,-306.08"/>
</g>
<!-- node_0x504000000750 -->
<g id="node11" class="node">
<title>node_0x504000000750</title>
<path fill="#9966ff" stroke="#ffe9c7" d="M162,-166.5C162,-166.5 218,-166.5 218,-166.5 224,-166.5 230,-172.5 230,-178.5 230,-178.5 230,-200.5 230,-200.5 230,-206.5 224,-212.5 218,-212.5 218,-212.5 162,-212.5 162,-212.5 156,-212.5 150,-206.5 150,-200.5 150,-200.5 150,-178.5 150,-178.5 150,-172.5 156,-166.5 162,-166.5"/>
<text text-anchor="middle" x="190" y="-197.3" font-family="Times,serif" font-size="14.00">KeyWord</text>
<polyline fill="none" stroke="#ffe9c7" points="150,-189.5 230,-189.5 "/>
<text text-anchor="middle" x="190" y="-174.3" font-family="Times,serif" font-size="14.00">sin</text>
</g>
<!-- node_0x504000000710&#45;&gt;node_0x504000000750 -->
<g id="edge10" class="edge">
<title>node_0x504000000710&#45;&gt;node_0x504000000750</title>
<path fill="none" stroke="#9acd32" d="M226.34,-249.37C220.99,-240.71 214.77,-230.62 209,-221.27"/>
<polygon fill="#9acd32" stroke="#9acd32" points="211.88,-219.28 203.65,-212.61 205.92,-222.95 211.88,-219.28"/>
</g>
<!-- node_0x5040000006d0 -->
<g id="node15" class="node">
<title>node_0x5040000006d0</title>
<path fill="#ff6699" stroke="#ffe9c7" d="M260.5,-166.5C260.5,-166.5 319.5,-166.5 319.5,-166.5 325.5,-166.5 331.5,-172.5 331.5,-178.5 331.5,-178.5 331.5,-200.5 331.5,-200.5 331.5,-206.5 325.5,-212.5 319.5,-212.5 319.5,-212.5 260.5,-212.5 260.5,-212.5 254.5,-212.5 248.5,-206.5 248.5,-200.5 248.5,-200.5 248.5,-178.5 248.5,-178.5 248.5,-172.5 254.5,-166.5 260.5,-166.5"/>
<text text-anchor="middle" x="290" y="-197.3" font-family="Times,serif" font-size="14.00">Identifier</text>
<polyline fill="none" stroke="#ffe9c7" points="248.5,-189.5 331.5,-189.5 "/>
<text text-anchor="middle" x="290" y="-174.3" font-family="Times,serif" font-size="14.00">func</text>
</g>
<!-- node_0x504000000710&#45;&gt;node_0x5040000006d0 -->
<g id="edge14" class="edge">
<title>node_0x504000000710&#45;&gt;node_0x5040000006d0</title>
<path fill="none" stroke="#ff2b00" d="M253.66,-249.37C259.01,-240.71 265.23,-230.62 271,-221.27"/>
<polygon fill="#ff2b00" stroke="#ff2b00" points="274.08,-222.95 276.35,-212.61 268.12,-219.28 274.08,-222.95"/>
</g>
<!-- node_0x5040000007d0 -->
<g id="node12" class="node">
<title>node_0x5040000007d0</title>
<path fill="#9966ff" stroke="#ffe9c7" d="M162,-83.5C162,-83.5 218,-83.5 218,-83.5 224,-83.5 230,-89.5 230,-95.5 230,-95.5 230,-117.5 230,-117.5 230,-123.5 224,-129.5 218,-129.5 218,-129.5 162,-129.5 162,-129.5 156,-129.5 150,-123.5 150,-117.5 150,-117.5 150,-95.5 150,-95.5 150,-89.5 156,-83.5 162,-83.5"/>
<text text-anchor="middle" x="190" y="-114.3" font-family="Times,serif" font-size="14.00">KeyWord</text>
<polyline fill="none" stroke="#ffe9c7" points="150,-106.5 230,-106.5 "/>
<text text-anchor="middle" x="190" y="-91.3" font-family="Times,serif" font-size="14.00">+</text>
</g>
<!-- node_0x504000000750&#45;&gt;node_0x5040000007d0 -->
<g id="edge11" class="edge">
<title>node_0x504000000750&#45;&gt;node_0x5040000007d0</title>
<path fill="none" stroke="#ff2b00" d="M190,-166.37C190,-158.15 190,-148.66 190,-139.73"/>
<polygon fill="#ff2b00" stroke="#ff2b00" points="193.5,-139.61 190,-129.61 186.5,-139.61 193.5,-139.61"/>
</g>
<!-- node_0x504000000790 -->
<g id="node13" class="node">
<title>node_0x504000000790</title>
<path fill="#03cffc" stroke="#ffe9c7" d="M112.5,-0.5C112.5,-0.5 169.5,-0.5 169.5,-0.5 175.5,-0.5 181.5,-6.5 181.5,-12.5 181.5,-12.5 181.5,-34.5 181.5,-34.5 181.5,-40.5 175.5,-46.5 169.5,-46.5 169.5,-46.5 112.5,-46.5 112.5,-46.5 106.5,-46.5 100.5,-40.5 100.5,-34.5 100.5,-34.5 100.5,-12.5 100.5,-12.5 100.5,-6.5 106.5,-0.5 112.5,-0.5"/>
<text text-anchor="middle" x="141" y="-31.3" font-family="Times,serif" font-size="14.00">Constant</text>
<polyline fill="none" stroke="#ffe9c7" points="100.5,-23.5 181.5,-23.5 "/>
<text text-anchor="middle" x="141" y="-8.3" font-family="Times,serif" font-size="14.00">15</text>
</g>
<!-- node_0x5040000007d0&#45;&gt;node_0x504000000790 -->
<g id="edge12" class="edge">
<title>node_0x5040000007d0&#45;&gt;node_0x504000000790</title>
<path fill="none" stroke="#9acd32" d="M176.61,-83.37C171.37,-74.71 165.27,-64.62 159.62,-55.27"/>
<polygon fill="#9acd32" stroke="#9acd32" points="162.54,-53.35 154.37,-46.61 156.55,-56.97 162.54,-53.35"/>
</g>
<!-- node_0x504000000810 -->
<g id="node14" class="node">
<title>node_0x504000000810</title>
<path fill="#03cffc" stroke="#ffe9c7" d="M211.5,-0.5C211.5,-0.5 268.5,-0.5 268.5,-0.5 274.5,-0.5 280.5,-6.5 280.5,-12.5 280.5,-12.5 280.5,-34.5 280.5,-34.5 280.5,-40.5 274.5,-46.5 268.5,-46.5 268.5,-46.5 211.5,-46.5 211.5,-46.5 205.5,-46.5 199.5,-40.5 199.5,-34.5 199.5,-34.5 199.5,-12.5 199.5,-12.5 199.5,-6.5 205.5,-0.5 211.5,-0.5"/>
<text text-anchor="middle" x="240" y="-31.3" font-family="Times,serif" font-size="14.00">Constant</text>
<polyline fill="none" stroke="#ffe9c7" points="199.5,-23.5 280.5,-23.5 "/>
<text text-anchor="middle" x="240" y="-8.3" font-family="Times,serif" font-size="14.00">1</text>
</g>
<!-- node_0x5040000007d0&#45;&gt;node_0x504000000810 -->
<g id="edge13" class="edge">
<title>node_0x5040000007d0&#45;&gt;node_0x504000000810</title>
<path fill="none" stroke="#ff2b00" d="M203.66,-83.37C209.01,-74.71 215.23,-64.62 221,-55.27"/>
<polygon fill="#ff2b00" stroke="#ff2b00" points="224.08,-56.95 226.35,-46.61 218.12,-53.28 224.08,-56.95"/>
</g>
<!-- node_0x504000000890 -->
<g id="node17" class="node">
<title>node_0x504000000890</title>
<path fill="#9966ff" stroke="#ffe9c7" d="M228,-581.5C228,-581.5 284,-581.5 284,-581.5 290,-581.5 296,-587.5 296,-593.5 296,-593.5 296,-615.5 296,-615.5 296,-621.5 290,-627.5 284,-627.5 284,-627.5 228,-627.5 228,-627.5 222,-627.5 216,-621.5 216,-615.5 216,-615.5 216,-593.5 216,-593.5 216,-587.5 222,-581.5 228,-581.5"/>
<text text-anchor="middle" x="256" y="-612.3" font-family="Times,serif" font-size="14.00">KeyWord</text>
<polyline fill="none" stroke="#ffe9c7" points="216,-604.5 296,-604.5 "/>
<text text-anchor="middle" x="256" y="-589.3" font-family="Times,serif" font-size="14.00">int</text>
</g>
<!-- node_0x5040000008d0&#45;&gt;node_0x504000000890 -->
<g id="edge16" class="edge">
<title>node_0x5040000008d0&#45;&gt;node_0x504000000890</title>
<path fill="none" stroke="#9acd32" d="M256,-664.37C256,-656.15 256,-646.66 256,-637.73"/>
<polygon fill="#9acd32" stroke="#9acd32" points="259.5,-637.61 256,-627.61 252.5,-637.61 259.5,-637.61"/>
</g>
<!-- node_0x504000000910 -->
<g id="node18" class="node">
<title>node_0x504000000910</title>
<path fill="#fc0303" stroke="#ffe9c7" d="M326.5,-581.5C326.5,-581.5 401.5,-581.5 401.5,-581.5 407.5,-581.5 413.5,-587.5 413.5,-593.5 413.5,-593.5 413.5,-615.5 413.5,-615.5 413.5,-621.5 407.5,-627.5 401.5,-627.5 401.5,-627.5 326.5,-627.5 326.5,-627.5 320.5,-627.5 314.5,-621.5 314.5,-615.5 314.5,-615.5 314.5,-593.5 314.5,-593.5 314.5,-587.5 320.5,-581.5 326.5,-581.5"/>
<text text-anchor="middle" x="364" y="-612.3" font-family="Times,serif" font-size="14.00">Parameters</text>
<polyline fill="none" stroke="#ffe9c7" points="314.5,-604.5 413.5,-604.5 "/>
<text text-anchor="middle" x="364" y="-589.3" font-family="Times,serif" font-size="14.00">∅</text>
</g>
<!-- node_0x5040000008d0&#45;&gt;node_0x504000000910 -->
<g id="edge17" class="edge">
<title>node_0x5040000008d0&#45;&gt;node_0x504000000910</title>
<path fill="none" stroke="#ff2b00" d="M285.51,-664.37C298.13,-654.9 313.01,-643.74 326.41,-633.69"/>
<polygon fill="#ff2b00" stroke="#ff2b00" points="328.62,-636.41 334.52,-627.61 324.42,-630.81 328.62,-636.41"/>
</g>
<!-- node_0x5040000009d0 -->
<g id="node19" class="node">
<title>node_0x5040000009d0</title>
<path fill="#08c41e" stroke="#ffe9c7" d="M327.5,-498.5C327.5,-498.5 380.5,-498.5 380.5,-498.5 386.5,-498.5 392.5,-504.5 392.5,-510.5 392.5,-510.5 392.5,-532.5 392.5,-532.5 392.5,-538.5 386.5,-544.5 380.5,-544.5 380.5,-544.5 327.5,-544.5 327.5,-544.5 321.5,-544.5 315.5,-538.5 315.5,-532.5 315.5,-532.5 315.5,-510.5 315.5,-510.5 315.5,-504.5 321.5,-498.5 327.5,-498.5"/>
<text text-anchor="middle" x="354" y="-529.3" font-family="Times,serif" font-size="14.00">Var Decl</text>
<polyline fill="none" stroke="#ffe9c7" points="315.5,-521.5 392.5,-521.5 "/>
<text text-anchor="middle" x="354" y="-506.3" font-family="Times,serif" font-size="14.00">one</text>
</g>
<!-- node_0x504000000910&#45;&gt;node_0x5040000009d0 -->
<g id="edge18" class="edge">
<title>node_0x504000000910&#45;&gt;node_0x5040000009d0</title>
<path fill="none" stroke="#9acd32" d="M361.27,-581.37C360.25,-573.15 359.08,-563.66 357.98,-554.73"/>
<polygon fill="#9acd32" stroke="#9acd32" points="361.43,-554.1 356.73,-544.61 354.48,-554.96 361.43,-554.1"/>
</g>
<!-- node_0x504000000a10 -->
<g id="node22" class="node">
<title>node_0x504000000a10</title>
<path fill="#9966ff" stroke="#ffe9c7" d="M424,-498.5C424,-498.5 480,-498.5 480,-498.5 486,-498.5 492,-504.5 492,-510.5 492,-510.5 492,-532.5 492,-532.5 492,-538.5 486,-544.5 480,-544.5 480,-544.5 424,-544.5 424,-544.5 418,-544.5 412,-538.5 412,-532.5 412,-532.5 412,-510.5 412,-510.5 412,-504.5 418,-498.5 424,-498.5"/>
<text text-anchor="middle" x="452" y="-529.3" font-family="Times,serif" font-size="14.00">KeyWord</text>
<polyline fill="none" stroke="#ffe9c7" points="412,-521.5 492,-521.5 "/>
<text text-anchor="middle" x="452" y="-506.3" font-family="Times,serif" font-size="14.00">;</text>
</g>
<!-- node_0x504000000910&#45;&gt;node_0x504000000a10 -->
<g id="edge21" class="edge">
<title>node_0x504000000910&#45;&gt;node_0x504000000a10</title>
<path fill="none" stroke="#ff2b00" d="M388.05,-581.37C398.04,-572.17 409.77,-561.37 420.44,-551.55"/>
<polygon fill="#ff2b00" stroke="#ff2b00" points="423,-553.95 427.98,-544.61 418.25,-548.8 423,-553.95"/>
</g>
<!-- node_0x504000000950 -->
<g id="node20" class="node">
<title>node_0x504000000950</title>
<path fill="#9966ff" stroke="#ffe9c7" d="M226,-415.5C226,-415.5 282,-415.5 282,-415.5 288,-415.5 294,-421.5 294,-427.5 294,-427.5 294,-449.5 294,-449.5 294,-455.5 288,-461.5 282,-461.5 282,-461.5 226,-461.5 226,-461.5 220,-461.5 214,-455.5 214,-449.5 214,-449.5 214,-427.5 214,-427.5 214,-421.5 220,-415.5 226,-415.5"/>
<text text-anchor="middle" x="254" y="-446.3" font-family="Times,serif" font-size="14.00">KeyWord</text>
<polyline fill="none" stroke="#ffe9c7" points="214,-438.5 294,-438.5 "/>
<text text-anchor="middle" x="254" y="-423.3" font-family="Times,serif" font-size="14.00">int</text>
</g>
<!-- node_0x5040000009d0&#45;&gt;node_0x504000000950 -->
<g id="edge19" class="edge">
<title>node_0x5040000009d0&#45;&gt;node_0x504000000950</title>
<path fill="none" stroke="#9acd32" d="M326.67,-498.37C315.1,-488.99 301.47,-477.95 289.16,-467.98"/>
<polygon fill="#9acd32" stroke="#9acd32" points="291.27,-465.18 281.29,-461.61 286.86,-470.62 291.27,-465.18"/>
</g>
<!-- node_0x504000000990 -->
<g id="node21" class="node">
<title>node_0x504000000990</title>
<path fill="#ff6699" stroke="#ffe9c7" d="M324.5,-415.5C324.5,-415.5 383.5,-415.5 383.5,-415.5 389.5,-415.5 395.5,-421.5 395.5,-427.5 395.5,-427.5 395.5,-449.5 395.5,-449.5 395.5,-455.5 389.5,-461.5 383.5,-461.5 383.5,-461.5 324.5,-461.5 324.5,-461.5 318.5,-461.5 312.5,-455.5 312.5,-449.5 312.5,-449.5 312.5,-427.5 312.5,-427.5 312.5,-421.5 318.5,-415.5 324.5,-415.5"/>
<text text-anchor="middle" x="354" y="-446.3" font-family="Times,serif" font-size="14.00">Identifier</text>
<polyline fill="none" stroke="#ffe9c7" points="312.5,-438.5 395.5,-438.5 "/>
<text text-anchor="middle" x="354" y="-423.3" font-family="Times,serif" font-size="14.00">one</text>
</g>
<!-- node_0x5040000009d0&#45;&gt;node_0x504000000990 -->
<g id="edge20" class="edge">
<title>node_0x5040000009d0&#45;&gt;node_0x504000000990</title>
<path fill="none" stroke="#ff2b00" d="M354,-498.37C354,-490.15 354,-480.66 354,-471.73"/>
<polygon fill="#ff2b00" stroke="#ff2b00" points="357.5,-471.61 354,-461.61 350.5,-471.61 357.5,-471.61"/>
</g>
<!-- node_0x504000000a50 -->
<g id="node23" class="node">
<title>node_0x504000000a50</title>
<path fill="#9966ff" stroke="#ffe9c7" d="M426,-415.5C426,-415.5 482,-415.5 482,-415.5 488,-415.5 494,-421.5 494,-427.5 494,-427.5 494,-449.5 494,-449.5 494,-455.5 488,-461.5 482,-461.5 482,-461.5 426,-461.5 426,-461.5 420,-461.5 414,-455.5 414,-449.5 414,-449.5 414,-427.5 414,-427.5 414,-421.5 420,-415.5 426,-415.5"/>
<text text-anchor="middle" x="454" y="-446.3" font-family="Times,serif" font-size="14.00">KeyWord</text>
<polyline fill="none" stroke="#ffe9c7" points="414,-438.5 494,-438.5 "/>
<text text-anchor="middle" x="454" y="-423.3" font-family="Times,serif" font-size="14.00">return</text>
</g>
<!-- node_0x504000000a10&#45;&gt;node_0x504000000a50 -->
<g id="edge22" class="edge">
<title>node_0x504000000a10&#45;&gt;node_0x504000000a50</title>
<path fill="none" stroke="#ff2b00" d="M452.55,-498.37C452.75,-490.15 452.98,-480.66 453.2,-471.73"/>
<polygon fill="#ff2b00" stroke="#ff2b00" points="456.71,-471.69 453.45,-461.61 449.71,-471.52 456.71,-471.69"/>
</g>
<!-- node_0x504000000ad0 -->
<g id="node24" class="node">
<title>node_0x504000000ad0</title>
<path fill="#9966ff" stroke="#ffe9c7" d="M426,-332.5C426,-332.5 482,-332.5 482,-332.5 488,-332.5 494,-338.5 494,-344.5 494,-344.5 494,-366.5 494,-366.5 494,-372.5 488,-378.5 482,-378.5 482,-378.5 426,-378.5 426,-378.5 420,-378.5 414,-372.5 414,-366.5 414,-366.5 414,-344.5 414,-344.5 414,-338.5 420,-332.5 426,-332.5"/>
<text text-anchor="middle" x="454" y="-363.3" font-family="Times,serif" font-size="14.00">KeyWord</text>
<polyline fill="none" stroke="#ffe9c7" points="414,-355.5 494,-355.5 "/>
<text text-anchor="middle" x="454" y="-340.3" font-family="Times,serif" font-size="14.00">&#45;</text>
</g>
<!-- node_0x504000000a50&#45;&gt;node_0x504000000ad0 -->
<g id="edge23" class="edge">
<title>node_0x504000000a50&#45;&gt;node_0x504000000ad0</title>
<path fill="none" stroke="#ff2b00" d="M454,-415.37C454,-407.15 454,-397.66 454,-388.73"/>
<polygon fill="#ff2b00" stroke="#ff2b00" points="457.5,-388.61 454,-378.61 450.5,-388.61 457.5,-388.61"/>
</g>
<!-- node_0x504000000a90 -->
<g id="node25" class="node">
<title>node_0x504000000a90</title>
<path fill="#ff6699" stroke="#ffe9c7" d="M374.5,-249.5C374.5,-249.5 433.5,-249.5 433.5,-249.5 439.5,-249.5 445.5,-255.5 445.5,-261.5 445.5,-261.5 445.5,-283.5 445.5,-283.5 445.5,-289.5 439.5,-295.5 433.5,-295.5 433.5,-295.5 374.5,-295.5 374.5,-295.5 368.5,-295.5 362.5,-289.5 362.5,-283.5 362.5,-283.5 362.5,-261.5 362.5,-261.5 362.5,-255.5 368.5,-249.5 374.5,-249.5"/>
<text text-anchor="middle" x="404" y="-280.3" font-family="Times,serif" font-size="14.00">Identifier</text>
<polyline fill="none" stroke="#ffe9c7" points="362.5,-272.5 445.5,-272.5 "/>
<text text-anchor="middle" x="404" y="-257.3" font-family="Times,serif" font-size="14.00">one</text>
</g>
<!-- node_0x504000000ad0&#45;&gt;node_0x504000000a90 -->
<g id="edge24" class="edge">
<title>node_0x504000000ad0&#45;&gt;node_0x504000000a90</title>
<path fill="none" stroke="#9acd32" d="M440.34,-332.37C434.99,-323.71 428.77,-313.62 423,-304.27"/>
<polygon fill="#9acd32" stroke="#9acd32" points="425.88,-302.28 417.65,-295.61 419.92,-305.95 425.88,-302.28"/>
</g>
<!-- node_0x504000000b10 -->
<g id="node26" class="node">
<title>node_0x504000000b10</title>
<path fill="#03cffc" stroke="#ffe9c7" d="M475.5,-249.5C475.5,-249.5 532.5,-249.5 532.5,-249.5 538.5,-249.5 544.5,-255.5 544.5,-261.5 544.5,-261.5 544.5,-283.5 544.5,-283.5 544.5,-289.5 538.5,-295.5 532.5,-295.5 532.5,-295.5 475.5,-295.5 475.5,-295.5 469.5,-295.5 463.5,-289.5 463.5,-283.5 463.5,-283.5 463.5,-261.5 463.5,-261.5 463.5,-255.5 469.5,-249.5 475.5,-249.5"/>
<text text-anchor="middle" x="504" y="-280.3" font-family="Times,serif" font-size="14.00">Constant</text>
<polyline fill="none" stroke="#ffe9c7" points="463.5,-272.5 544.5,-272.5 "/>
<text text-anchor="middle" x="504" y="-257.3" font-family="Times,serif" font-size="14.00">1</text>
</g>
<!-- node_0x504000000ad0&#45;&gt;node_0x504000000b10 -->
<g id="edge25" class="edge">
<title>node_0x504000000ad0&#45;&gt;node_0x504000000b10</title>
<path fill="none" stroke="#ff2b00" d="M467.66,-332.37C473.01,-323.71 479.23,-313.62 485,-304.27"/>
<polygon fill="#ff2b00" stroke="#ff2b00" points="488.08,-305.95 490.35,-295.61 482.12,-302.28 488.08,-305.95"/>
</g>
</g>
</svg>
