<?xml version="1.0" encoding="UTF-8" standalone="no"?>
<!DOCTYPE svg PUBLIC "-//W3C//DTD SVG 1.1//EN"
 "http://www.w3.org/Graphics/SVG/1.1/DTD/svg11.dtd">
<!-- Generated by graphviz version 2.43.0 (0)
 -->
<!-- Title: G Pages: 1 -->
<svg width="341pt" height="760pt"
 viewBox="0.00 0.00 340.50 760.00" xmlns="http://www.w3.org/2000/svg" xmlns:xlink="http://www.w3.org/1999/xlink">
<g id="graph0" class="graph" transform="scale(1 1) rotate(0) translate(4 756)">
<title>G</title>
<polygon fill="#ffd480" stroke="transparent" points="-4,4 -4,-756 336.5,-756 336.5,4 -4,4"/>
<text text-anchor="middle" x="166.25" y="-724" font-family="Verdana" font-size="30.00" fill="#ffffff">AST</text>
<!-- node_0x504000000310 -->
<g id="node1" class="node">
<title>node_0x504000000310</title>
<path fill="#fca103" stroke="#ffe9c7" d="M65.5,-664.5C65.5,-664.5 122.5,-664.5 122.5,-664.5 128.5,-664.5 134.5,-670.5 134.5,-676.5 134.5,-676.5 134.5,-698.5 134.5,-698.5 134.5,-704.5 128.5,-710.5 122.5,-710.5 122.5,-710.5 65.5,-710.5 65.5,-710.5 59.5,-710.5 53.5,-704.5 53.5,-698.5 53.5,-698.5 53.5,-676.5 53.5,-676.5 53.5,-670.5 59.5,-664.5 65.5,-664.5"/>
<text text-anchor="middle" x="94" y="-695.3" font-family="Times,serif" font-size="14.00">Func Def</text>
<polyline fill="none" stroke="#ffe9c7" points="53.5,-687.5 134.5,-687.5 "/>
<text text-anchor="middle" x="94" y="-672.3" font-family="Times,serif" font-size="14.00">main</text>
</g>
<!-- node_0x5040000002d0 -->
<g id="node2" class="node">
<title>node_0x5040000002d0</title>
<path fill="#9966ff" stroke="#ffe9c7" d="M12,-581.5C12,-581.5 68,-581.5 68,-581.5 74,-581.5 80,-587.5 80,-593.5 80,-593.5 80,-615.5 80,-615.5 80,-621.5 74,-627.5 68,-627.5 68,-627.5 12,-627.5 12,-627.5 6,-627.5 0,-621.5 0,-615.5 0,-615.5 0,-593.5 0,-593.5 0,-587.5 6,-581.5 12,-581.5"/>
<text text-anchor="middle" x="40" y="-612.3" font-family="Times,serif" font-size="14.00">KeyWord</text>
<polyline fill="none" stroke="#ffe9c7" points="0,-604.5 80,-604.5 "/>
<text text-anchor="middle" x="40" y="-589.3" font-family="Times,serif" font-size="14.00">int</text>
</g>
<!-- node_0x504000000310&#45;&gt;node_0x5040000002d0 -->
<g id="edge1" class="edge">
<title>node_0x504000000310&#45;&gt;node_0x5040000002d0</title>
<path fill="none" stroke="#9acd32" d="M79.24,-664.37C73.41,-655.62 66.61,-645.41 60.32,-635.99"/>
<polygon fill="#9acd32" stroke="#9acd32" points="63.2,-633.99 54.74,-627.61 57.37,-637.87 63.2,-633.99"/>
</g>
<!-- node_0x504000000350 -->
<g id="node3" class="node">
<title>node_0x504000000350</title>
<path fill="#fc0303" stroke="#ffe9c7" d="M110.5,-581.5C110.5,-581.5 185.5,-581.5 185.5,-581.5 191.5,-581.5 197.5,-587.5 197.5,-593.5 197.5,-593.5 197.5,-615.5 197.5,-615.5 197.5,-621.5 191.5,-627.5 185.5,-627.5 185.5,-627.5 110.5,-627.5 110.5,-627.5 104.5,-627.5 98.5,-621.5 98.5,-615.5 98.5,-615.5 98.5,-593.5 98.5,-593.5 98.5,-587.5 104.5,-581.5 110.5,-581.5"/>
<text text-anchor="middle" x="148" y="-612.3" font-family="Times,serif" font-size="14.00">Parameters</text>
<polyline fill="none" stroke="#ffe9c7" points="98.5,-604.5 197.5,-604.5 "/>
<text text-anchor="middle" x="148" y="-589.3" font-family="Times,serif" font-size="14.00">∅</text>
</g>
<!-- node_0x504000000310&#45;&gt;node_0x504000000350 -->
<g id="edge2" class="edge">
<title>node_0x504000000310&#45;&gt;node_0x504000000350</title>
<path fill="none" stroke="#ff2b00" d="M108.76,-664.37C114.59,-655.62 121.39,-645.41 127.68,-635.99"/>
<polygon fill="#ff2b00" stroke="#ff2b00" points="130.63,-637.87 133.26,-627.61 124.8,-633.99 130.63,-637.87"/>
</g>
<!-- node_0x504000000390 -->
<g id="node4" class="node">
<title>node_0x504000000390</title>
<path fill="#9966ff" stroke="#ffe9c7" d="M120,-498.5C120,-498.5 176,-498.5 176,-498.5 182,-498.5 188,-504.5 188,-510.5 188,-510.5 188,-532.5 188,-532.5 188,-538.5 182,-544.5 176,-544.5 176,-544.5 120,-544.5 120,-544.5 114,-544.5 108,-538.5 108,-532.5 108,-532.5 108,-510.5 108,-510.5 108,-504.5 114,-498.5 120,-498.5"/>
<text text-anchor="middle" x="148" y="-529.3" font-family="Times,serif" font-size="14.00">KeyWord</text>
<polyline fill="none" stroke="#ffe9c7" points="108,-521.5 188,-521.5 "/>
<text text-anchor="middle" x="148" y="-506.3" font-family="Times,serif" font-size="14.00">;</text>
</g>
<!-- node_0x504000000350&#45;&gt;node_0x504000000390 -->
<g id="edge3" class="edge">
<title>node_0x504000000350&#45;&gt;node_0x504000000390</title>
<path fill="none" stroke="#ff2b00" d="M148,-581.37C148,-573.15 148,-563.66 148,-554.73"/>
<polygon fill="#ff2b00" stroke="#ff2b00" points="151.5,-554.61 148,-544.61 144.5,-554.61 151.5,-554.61"/>
</g>
<!-- node_0x504000000450 -->
<g id="node5" class="node">
<title>node_0x504000000450</title>
<path fill="#08c41e" stroke="#ffe9c7" d="M121.5,-415.5C121.5,-415.5 174.5,-415.5 174.5,-415.5 180.5,-415.5 186.5,-421.5 186.5,-427.5 186.5,-427.5 186.5,-449.5 186.5,-449.5 186.5,-455.5 180.5,-461.5 174.5,-461.5 174.5,-461.5 121.5,-461.5 121.5,-461.5 115.5,-461.5 109.5,-455.5 109.5,-449.5 109.5,-449.5 109.5,-427.5 109.5,-427.5 109.5,-421.5 115.5,-415.5 121.5,-415.5"/>
<text text-anchor="middle" x="148" y="-446.3" font-family="Times,serif" font-size="14.00">Var Decl</text>
<polyline fill="none" stroke="#ffe9c7" points="109.5,-438.5 186.5,-438.5 "/>
<text text-anchor="middle" x="148" y="-423.3" font-family="Times,serif" font-size="14.00">one</text>
</g>
<!-- node_0x504000000390&#45;&gt;node_0x504000000450 -->
<g id="edge4" class="edge">
<title>node_0x504000000390&#45;&gt;node_0x504000000450</title>
<path fill="none" stroke="#9acd32" d="M148,-498.37C148,-490.15 148,-480.66 148,-471.73"/>
<polygon fill="#9acd32" stroke="#9acd32" points="151.5,-471.61 148,-461.61 144.5,-471.61 151.5,-471.61"/>
</g>
<!-- node_0x5040000003d0 -->
<g id="node6" class="node">
<title>node_0x5040000003d0</title>
<path fill="#9966ff" stroke="#ffe9c7" d="M71,-332.5C71,-332.5 127,-332.5 127,-332.5 133,-332.5 139,-338.5 139,-344.5 139,-344.5 139,-366.5 139,-366.5 139,-372.5 133,-378.5 127,-378.5 127,-378.5 71,-378.5 71,-378.5 65,-378.5 59,-372.5 59,-366.5 59,-366.5 59,-344.5 59,-344.5 59,-338.5 65,-332.5 71,-332.5"/>
<text text-anchor="middle" x="99" y="-363.3" font-family="Times,serif" font-size="14.00">KeyWord</text>
<polyline fill="none" stroke="#ffe9c7" points="59,-355.5 139,-355.5 "/>
<text text-anchor="middle" x="99" y="-340.3" font-family="Times,serif" font-size="14.00">int</text>
</g>
<!-- node_0x504000000450&#45;&gt;node_0x5040000003d0 -->
<g id="edge5" class="edge">
<title>node_0x504000000450&#45;&gt;node_0x5040000003d0</title>
<path fill="none" stroke="#9acd32" d="M134.61,-415.37C129.37,-406.71 123.27,-396.62 117.62,-387.27"/>
<polygon fill="#9acd32" stroke="#9acd32" points="120.54,-385.35 112.37,-378.61 114.55,-388.97 120.54,-385.35"/>
</g>
<!-- node_0x504000000490 -->
<g id="node7" class="node">
<title>node_0x504000000490</title>
<path fill="#9966ff" stroke="#ffe9c7" d="M169,-332.5C169,-332.5 225,-332.5 225,-332.5 231,-332.5 237,-338.5 237,-344.5 237,-344.5 237,-366.5 237,-366.5 237,-372.5 231,-378.5 225,-378.5 225,-378.5 169,-378.5 169,-378.5 163,-378.5 157,-372.5 157,-366.5 157,-366.5 157,-344.5 157,-344.5 157,-338.5 163,-332.5 169,-332.5"/>
<text text-anchor="middle" x="197" y="-363.3" font-family="Times,serif" font-size="14.00">KeyWord</text>
<polyline fill="none" stroke="#ffe9c7" points="157,-355.5 237,-355.5 "/>
<text text-anchor="middle" x="197" y="-340.3" font-family="Times,serif" font-size="14.00">=</text>
</g>
<!-- node_0x504000000450&#45;&gt;node_0x504000000490 -->
<g id="edge6" class="edge">
<title>node_0x504000000450&#45;&gt;node_0x504000000490</title>
<path fill="none" stroke="#ff2b00" d="M161.39,-415.37C166.63,-406.71 172.73,-396.62 178.38,-387.27"/>
<polygon fill="#ff2b00" stroke="#ff2b00" points="181.45,-388.97 183.63,-378.61 175.46,-385.35 181.45,-388.97"/>
</g>
<!-- node_0x504000000410 -->
<g id="node8" class="node">
<title>node_0x504000000410</title>
<path fill="#ff6699" stroke="#ffe9c7" d="M124.5,-249.5C124.5,-249.5 183.5,-249.5 183.5,-249.5 189.5,-249.5 195.5,-255.5 195.5,-261.5 195.5,-261.5 195.5,-283.5 195.5,-283.5 195.5,-289.5 189.5,-295.5 183.5,-295.5 183.5,-295.5 124.5,-295.5 124.5,-295.5 118.5,-295.5 112.5,-289.5 112.5,-283.5 112.5,-283.5 112.5,-261.5 112.5,-261.5 112.5,-255.5 118.5,-249.5 124.5,-249.5"/>
<text text-anchor="middle" x="154" y="-280.3" font-family="Times,serif" font-size="14.00">Identifier</text>
<polyline fill="none" stroke="#ffe9c7" points="112.5,-272.5 195.5,-272.5 "/>
<text text-anchor="middle" x="154" y="-257.3" font-family="Times,serif" font-size="14.00">one</text>
</g>
<!-- node_0x504000000490&#45;&gt;node_0x504000000410 -->
<g id="edge7" class="edge">
<title>node_0x504000000490&#45;&gt;node_0x504000000410</title>
<path fill="none" stroke="#9acd32" d="M185.25,-332.37C180.7,-323.79 175.41,-313.83 170.49,-304.56"/>
<polygon fill="#9acd32" stroke="#9acd32" points="173.52,-302.8 165.74,-295.61 167.33,-306.08 173.52,-302.8"/>
</g>
<!-- node_0x504000000510 -->
<g id="node9" class="node">
<title>node_0x504000000510</title>
<path fill="#916306" stroke="#ffe9c7" d="M226,-249.5C226,-249.5 256,-249.5 256,-249.5 262,-249.5 268,-255.5 268,-261.5 268,-261.5 268,-283.5 268,-283.5 268,-289.5 262,-295.5 256,-295.5 256,-295.5 226,-295.5 226,-295.5 220,-295.5 214,-289.5 214,-283.5 214,-283.5 214,-261.5 214,-261.5 214,-255.5 220,-249.5 226,-249.5"/>
<text text-anchor="middle" x="241" y="-280.3" font-family="Times,serif" font-size="14.00">Call</text>
<polyline fill="none" stroke="#ffe9c7" points="214,-272.5 268,-272.5 "/>
<text text-anchor="middle" x="241" y="-257.3" font-family="Times,serif" font-size="14.00">∅</text>
</g>
<!-- node_0x504000000490&#45;&gt;node_0x504000000510 -->
<g id="edge8" class="edge">
<title>node_0x504000000490&#45;&gt;node_0x504000000510</title>
<path fill="none" stroke="#ff2b00" d="M209.02,-332.37C213.68,-323.79 219.09,-313.83 224.13,-304.56"/>
<polygon fill="#ff2b00" stroke="#ff2b00" points="227.29,-306.06 228.99,-295.61 221.14,-302.72 227.29,-306.06"/>
</g>
<!-- node_0x504000000550 -->
<g id="node10" class="node">
<title>node_0x504000000550</title>
<path fill="#9966ff" stroke="#ffe9c7" d="M163,-166.5C163,-166.5 219,-166.5 219,-166.5 225,-166.5 231,-172.5 231,-178.5 231,-178.5 231,-200.5 231,-200.5 231,-206.5 225,-212.5 219,-212.5 219,-212.5 163,-212.5 163,-212.5 157,-212.5 151,-206.5 151,-200.5 151,-200.5 151,-178.5 151,-178.5 151,-172.5 157,-166.5 163,-166.5"/>
<text text-anchor="middle" x="191" y="-197.3" font-family="Times,serif" font-size="14.00">KeyWord</text>
<polyline fill="none" stroke="#ffe9c7" points="151,-189.5 231,-189.5 "/>
<text text-anchor="middle" x="191" y="-174.3" font-family="Times,serif" font-size="14.00">sin</text>
</g>
<!-- node_0x504000000510&#45;&gt;node_0x504000000550 -->
<g id="edge9" class="edge">
<title>node_0x504000000510&#45;&gt;node_0x504000000550</title>
<path fill="none" stroke="#9acd32" d="M227.34,-249.37C221.99,-240.71 215.77,-230.62 210,-221.27"/>
<polygon fill="#9acd32" stroke="#9acd32" points="212.88,-219.28 204.65,-212.61 206.92,-222.95 212.88,-219.28"/>
</g>
<!-- node_0x5040000004d0 -->
<g id="node14" class="node">
<title>node_0x5040000004d0</title>
<path fill="#ff6699" stroke="#ffe9c7" d="M261.5,-166.5C261.5,-166.5 320.5,-166.5 320.5,-166.5 326.5,-166.5 332.5,-172.5 332.5,-178.5 332.5,-178.5 332.5,-200.5 332.5,-200.5 332.5,-206.5 326.5,-212.5 320.5,-212.5 320.5,-212.5 261.5,-212.5 261.5,-212.5 255.5,-212.5 249.5,-206.5 249.5,-200.5 249.5,-200.5 249.5,-178.5 249.5,-178.5 249.5,-172.5 255.5,-166.5 261.5,-166.5"/>
<text text-anchor="middle" x="291" y="-197.3" font-family="Times,serif" font-size="14.00">Identifier</text>
<polyline fill="none" stroke="#ffe9c7" points="249.5,-189.5 332.5,-189.5 "/>
<text text-anchor="middle" x="291" y="-174.3" font-family="Times,serif" font-size="14.00">func</text>
</g>
<!-- node_0x504000000510&#45;&gt;node_0x5040000004d0 -->
<g id="edge13" class="edge">
<title>node_0x504000000510&#45;&gt;node_0x5040000004d0</title>
<path fill="none" stroke="#ff2b00" d="M254.66,-249.37C260.01,-240.71 266.23,-230.62 272,-221.27"/>
<polygon fill="#ff2b00" stroke="#ff2b00" points="275.08,-222.95 277.35,-212.61 269.12,-219.28 275.08,-222.95"/>
</g>
<!-- node_0x5040000005d0 -->
<g id="node11" class="node">
<title>node_0x5040000005d0</title>
<path fill="#9966ff" stroke="#ffe9c7" d="M163,-83.5C163,-83.5 219,-83.5 219,-83.5 225,-83.5 231,-89.5 231,-95.5 231,-95.5 231,-117.5 231,-117.5 231,-123.5 225,-129.5 219,-129.5 219,-129.5 163,-129.5 163,-129.5 157,-129.5 151,-123.5 151,-117.5 151,-117.5 151,-95.5 151,-95.5 151,-89.5 157,-83.5 163,-83.5"/>
<text text-anchor="middle" x="191" y="-114.3" font-family="Times,serif" font-size="14.00">KeyWord</text>
<polyline fill="none" stroke="#ffe9c7" points="151,-106.5 231,-106.5 "/>
<text text-anchor="middle" x="191" y="-91.3" font-family="Times,serif" font-size="14.00">+</text>
</g>
<!-- node_0x504000000550&#45;&gt;node_0x5040000005d0 -->
<g id="edge10" class="edge">
<title>node_0x504000000550&#45;&gt;node_0x5040000005d0</title>
<path fill="none" stroke="#ff2b00" d="M191,-166.37C191,-158.15 191,-148.66 191,-139.73"/>
<polygon fill="#ff2b00" stroke="#ff2b00" points="194.5,-139.61 191,-129.61 187.5,-139.61 194.5,-139.61"/>
</g>
<!-- node_0x504000000590 -->
<g id="node12" class="node">
<title>node_0x504000000590</title>
<path fill="#03cffc" stroke="#ffe9c7" d="M113.5,-0.5C113.5,-0.5 170.5,-0.5 170.5,-0.5 176.5,-0.5 182.5,-6.5 182.5,-12.5 182.5,-12.5 182.5,-34.5 182.5,-34.5 182.5,-40.5 176.5,-46.5 170.5,-46.5 170.5,-46.5 113.5,-46.5 113.5,-46.5 107.5,-46.5 101.5,-40.5 101.5,-34.5 101.5,-34.5 101.5,-12.5 101.5,-12.5 101.5,-6.5 107.5,-0.5 113.5,-0.5"/>
<text text-anchor="middle" x="142" y="-31.3" font-family="Times,serif" font-size="14.00">Constant</text>
<polyline fill="none" stroke="#ffe9c7" points="101.5,-23.5 182.5,-23.5 "/>
<text text-anchor="middle" x="142" y="-8.3" font-family="Times,serif" font-size="14.00">15</text>
</g>
<!-- node_0x5040000005d0&#45;&gt;node_0x504000000590 -->
<g id="edge11" class="edge">
<title>node_0x5040000005d0&#45;&gt;node_0x504000000590</title>
<path fill="none" stroke="#9acd32" d="M177.61,-83.37C172.37,-74.71 166.27,-64.62 160.62,-55.27"/>
<polygon fill="#9acd32" stroke="#9acd32" points="163.54,-53.35 155.37,-46.61 157.55,-56.97 163.54,-53.35"/>
</g>
<!-- node_0x504000000610 -->
<g id="node13" class="node">
<title>node_0x504000000610</title>
<path fill="#03cffc" stroke="#ffe9c7" d="M212.5,-0.5C212.5,-0.5 269.5,-0.5 269.5,-0.5 275.5,-0.5 281.5,-6.5 281.5,-12.5 281.5,-12.5 281.5,-34.5 281.5,-34.5 281.5,-40.5 275.5,-46.5 269.5,-46.5 269.5,-46.5 212.5,-46.5 212.5,-46.5 206.5,-46.5 200.5,-40.5 200.5,-34.5 200.5,-34.5 200.5,-12.5 200.5,-12.5 200.5,-6.5 206.5,-0.5 212.5,-0.5"/>
<text text-anchor="middle" x="241" y="-31.3" font-family="Times,serif" font-size="14.00">Constant</text>
<polyline fill="none" stroke="#ffe9c7" points="200.5,-23.5 281.5,-23.5 "/>
<text text-anchor="middle" x="241" y="-8.3" font-family="Times,serif" font-size="14.00">1</text>
</g>
<!-- node_0x5040000005d0&#45;&gt;node_0x504000000610 -->
<g id="edge12" class="edge">
<title>node_0x5040000005d0&#45;&gt;node_0x504000000610</title>
<path fill="none" stroke="#ff2b00" d="M204.66,-83.37C210.01,-74.71 216.23,-64.62 222,-55.27"/>
<polygon fill="#ff2b00" stroke="#ff2b00" points="225.08,-56.95 227.35,-46.61 219.12,-53.28 225.08,-56.95"/>
</g>
</g>
</svg>
