<?xml version="1.0" encoding="UTF-8" standalone="no"?>
<!DOCTYPE svg PUBLIC "-//W3C//DTD SVG 1.1//EN"
 "http://www.w3.org/Graphics/SVG/1.1/DTD/svg11.dtd">
<!-- Generated by graphviz version 2.43.0 (0)
 -->
<!-- Title: G Pages: 1 -->
<svg width="2375pt" height="213pt"
 viewBox="0.00 0.00 2375.00 213.00" xmlns="http://www.w3.org/2000/svg" xmlns:xlink="http://www.w3.org/1999/xlink">
<g id="graph0" class="graph" transform="scale(1 1) rotate(0) translate(4 209)">
<title>G</title>
<polygon fill="#ffd480" stroke="transparent" points="-4,4 -4,-209 2371,-209 2371,4 -4,4"/>
<text text-anchor="middle" x="1183.5" y="-177" font-family="DejaVu Sans" font-size="30.00" fill="#ffffff">List</text>
<!-- node_0x5030000000a0 -->
<g id="node1" class="node">
<title>node_0x5030000000a0</title>
<path fill="#ff6699" stroke="#ffe9c7" d="M12,-12C12,-12 352,-12 352,-12 358,-12 364,-18 364,-24 364,-24 364,-92 364,-92 364,-98 358,-104 352,-104 352,-104 12,-104 12,-104 6,-104 0,-98 0,-92 0,-92 0,-24 0,-24 0,-18 6,-12 12,-12"/>
<text text-anchor="middle" x="182" y="-88.8" font-family="Times,serif" font-size="14.00">Phantom</text>
<polyline fill="none" stroke="#ffe9c7" points="0,-81 364,-81 "/>
<text text-anchor="middle" x="182" y="-65.8" font-family="Times,serif" font-size="14.00">data: Phantom</text>
<polyline fill="none" stroke="#ffe9c7" points="0,-58 364,-58 "/>
<text text-anchor="middle" x="182" y="-42.8" font-family="Times,serif" font-size="14.00">curr: 0x5030000000a0</text>
<polyline fill="none" stroke="#ffe9c7" points="0,-35 364,-35 "/>
<text text-anchor="middle" x="91" y="-19.8" font-family="Times,serif" font-size="14.00">prev: 0x5030000001c0</text>
<polyline fill="none" stroke="#ffe9c7" points="182,-12 182,-35 "/>
<text text-anchor="middle" x="273" y="-19.8" font-family="Times,serif" font-size="14.00">next: 0x5030000000d0</text>
</g>
<!-- node_0x5030000000d0 -->
<g id="node2" class="node">
<title>node_0x5030000000d0</title>
<path fill="#9966ff" stroke="#ffe9c7" d="M412,-48.5C412,-48.5 752,-48.5 752,-48.5 758,-48.5 764,-54.5 764,-60.5 764,-60.5 764,-151.5 764,-151.5 764,-157.5 758,-163.5 752,-163.5 752,-163.5 412,-163.5 412,-163.5 406,-163.5 400,-157.5 400,-151.5 400,-151.5 400,-60.5 400,-60.5 400,-54.5 406,-48.5 412,-48.5"/>
<text text-anchor="middle" x="582" y="-148.3" font-family="Times,serif" font-size="14.00">num: 0</text>
<polyline fill="none" stroke="#ffe9c7" points="400,-140.5 764,-140.5 "/>
<text text-anchor="middle" x="582" y="-125.3" font-family="Times,serif" font-size="14.00">data_type: KeyWord</text>
<polyline fill="none" stroke="#ffe9c7" points="400,-117.5 764,-117.5 "/>
<text text-anchor="middle" x="582" y="-102.3" font-family="Times,serif" font-size="14.00">data: number</text>
<polyline fill="none" stroke="#ffe9c7" points="400,-94.5 764,-94.5 "/>
<text text-anchor="middle" x="582" y="-79.3" font-family="Times,serif" font-size="14.00">curr: 0x5030000000d0</text>
<polyline fill="none" stroke="#ffe9c7" points="400,-71.5 764,-71.5 "/>
<text text-anchor="middle" x="491" y="-56.3" font-family="Times,serif" font-size="14.00">prev: 0x5030000000a0</text>
<polyline fill="none" stroke="#ffe9c7" points="582,-48.5 582,-71.5 "/>
<text text-anchor="middle" x="673" y="-56.3" font-family="Times,serif" font-size="14.00">next: 0x503000000130</text>
</g>
<!-- node_0x5030000000a0&#45;&gt;node_0x5030000000d0 -->
<g id="edge1" class="edge">
<title>node_0x5030000000a0&#45;&gt;node_0x5030000000d0</title>
<path fill="none" stroke="#ff6699" d="M364.15,-66.83C364.15,-66.83 389.81,-66.83 389.81,-66.83"/>
<polygon fill="#ff6699" stroke="#ff6699" points="389.81,-70.33 399.81,-66.83 389.81,-63.33 389.81,-70.33"/>
</g>
<!-- node_0x5030000001c0 -->
<g id="node6" class="node">
<title>node_0x5030000001c0</title>
<path fill="#9966ff" stroke="#ffe9c7" d="M2014,-0.5C2014,-0.5 2355,-0.5 2355,-0.5 2361,-0.5 2367,-6.5 2367,-12.5 2367,-12.5 2367,-103.5 2367,-103.5 2367,-109.5 2361,-115.5 2355,-115.5 2355,-115.5 2014,-115.5 2014,-115.5 2008,-115.5 2002,-109.5 2002,-103.5 2002,-103.5 2002,-12.5 2002,-12.5 2002,-6.5 2008,-0.5 2014,-0.5"/>
<text text-anchor="middle" x="2184.5" y="-100.3" font-family="Times,serif" font-size="14.00">num: 4</text>
<polyline fill="none" stroke="#ffe9c7" points="2002,-92.5 2367,-92.5 "/>
<text text-anchor="middle" x="2184.5" y="-77.3" font-family="Times,serif" font-size="14.00">data_type: KeyWord</text>
<polyline fill="none" stroke="#ffe9c7" points="2002,-69.5 2367,-69.5 "/>
<text text-anchor="middle" x="2184.5" y="-54.3" font-family="Times,serif" font-size="14.00">data: ;</text>
<polyline fill="none" stroke="#ffe9c7" points="2002,-46.5 2367,-46.5 "/>
<text text-anchor="middle" x="2184.5" y="-31.3" font-family="Times,serif" font-size="14.00">curr: 0x5030000001c0</text>
<polyline fill="none" stroke="#ffe9c7" points="2002,-23.5 2367,-23.5 "/>
<text text-anchor="middle" x="2093.5" y="-8.3" font-family="Times,serif" font-size="14.00">prev: 0x503000000190</text>
<polyline fill="none" stroke="#ffe9c7" points="2185,-0.5 2185,-23.5 "/>
<text text-anchor="middle" x="2276" y="-8.3" font-family="Times,serif" font-size="14.00">next: 0x5030000000a0</text>
</g>
<!-- node_0x5030000000a0&#45;&gt;node_0x5030000001c0 -->
<g id="edge2" class="edge">
<title>node_0x5030000000a0&#45;&gt;node_0x5030000001c0</title>
<path fill="none" stroke="#34cb34" d="M364.13,-23.67C364.13,-23.67 1991.71,-23.67 1991.71,-23.67"/>
<polygon fill="#34cb34" stroke="#34cb34" points="1991.71,-27.17 2001.71,-23.67 1991.71,-20.17 1991.71,-27.17"/>
</g>
<!-- node_0x5030000000d0&#45;&gt;node_0x5030000000a0 -->
<g id="edge4" class="edge">
<title>node_0x5030000000d0&#45;&gt;node_0x5030000000a0</title>
<path fill="none" stroke="#34cb34" d="M399.85,-85.67C399.85,-85.67 374.19,-85.67 374.19,-85.67"/>
<polygon fill="#34cb34" stroke="#34cb34" points="374.19,-82.17 364.19,-85.67 374.19,-89.17 374.19,-82.17"/>
</g>
<!-- node_0x503000000130 -->
<g id="node3" class="node">
<title>node_0x503000000130</title>
<path fill="#34cb34" stroke="#ffe9c7" d="M812,-48.5C812,-48.5 1153,-48.5 1153,-48.5 1159,-48.5 1165,-54.5 1165,-60.5 1165,-60.5 1165,-151.5 1165,-151.5 1165,-157.5 1159,-163.5 1153,-163.5 1153,-163.5 812,-163.5 812,-163.5 806,-163.5 800,-157.5 800,-151.5 800,-151.5 800,-60.5 800,-60.5 800,-54.5 806,-48.5 812,-48.5"/>
<text text-anchor="middle" x="982.5" y="-148.3" font-family="Times,serif" font-size="14.00">num: 1</text>
<polyline fill="none" stroke="#ffe9c7" points="800,-140.5 1165,-140.5 "/>
<text text-anchor="middle" x="982.5" y="-125.3" font-family="Times,serif" font-size="14.00">data_type: Identifier</text>
<polyline fill="none" stroke="#ffe9c7" points="800,-117.5 1165,-117.5 "/>
<text text-anchor="middle" x="982.5" y="-102.3" font-family="Times,serif" font-size="14.00">data: x</text>
<polyline fill="none" stroke="#ffe9c7" points="800,-94.5 1165,-94.5 "/>
<text text-anchor="middle" x="982.5" y="-79.3" font-family="Times,serif" font-size="14.00">curr: 0x503000000130</text>
<polyline fill="none" stroke="#ffe9c7" points="800,-71.5 1165,-71.5 "/>
<text text-anchor="middle" x="891.5" y="-56.3" font-family="Times,serif" font-size="14.00">prev: 0x5030000000d0</text>
<polyline fill="none" stroke="#ffe9c7" points="983,-48.5 983,-71.5 "/>
<text text-anchor="middle" x="1074" y="-56.3" font-family="Times,serif" font-size="14.00">next: 0x503000000160</text>
</g>
<!-- node_0x5030000000d0&#45;&gt;node_0x503000000130 -->
<g id="edge3" class="edge">
<title>node_0x5030000000d0&#45;&gt;node_0x503000000130</title>
<path fill="none" stroke="#ff6699" d="M764.09,-86.67C764.09,-86.67 789.82,-86.67 789.82,-86.67"/>
<polygon fill="#ff6699" stroke="#ff6699" points="789.82,-90.17 799.82,-86.67 789.82,-83.17 789.82,-90.17"/>
</g>
<!-- node_0x503000000130&#45;&gt;node_0x5030000000d0 -->
<g id="edge6" class="edge">
<title>node_0x503000000130&#45;&gt;node_0x5030000000d0</title>
<path fill="none" stroke="#34cb34" d="M799.83,-125.33C799.83,-125.33 774.16,-125.33 774.16,-125.33"/>
<polygon fill="#34cb34" stroke="#34cb34" points="774.16,-121.83 764.16,-125.33 774.16,-128.83 774.16,-121.83"/>
</g>
<!-- node_0x503000000160 -->
<g id="node4" class="node">
<title>node_0x503000000160</title>
<path fill="#9966ff" stroke="#ffe9c7" d="M1213,-48.5C1213,-48.5 1554,-48.5 1554,-48.5 1560,-48.5 1566,-54.5 1566,-60.5 1566,-60.5 1566,-151.5 1566,-151.5 1566,-157.5 1560,-163.5 1554,-163.5 1554,-163.5 1213,-163.5 1213,-163.5 1207,-163.5 1201,-157.5 1201,-151.5 1201,-151.5 1201,-60.5 1201,-60.5 1201,-54.5 1207,-48.5 1213,-48.5"/>
<text text-anchor="middle" x="1383.5" y="-148.3" font-family="Times,serif" font-size="14.00">num: 2</text>
<polyline fill="none" stroke="#ffe9c7" points="1201,-140.5 1566,-140.5 "/>
<text text-anchor="middle" x="1383.5" y="-125.3" font-family="Times,serif" font-size="14.00">data_type: KeyWord</text>
<polyline fill="none" stroke="#ffe9c7" points="1201,-117.5 1566,-117.5 "/>
<text text-anchor="middle" x="1383.5" y="-102.3" font-family="Times,serif" font-size="14.00">data: =</text>
<polyline fill="none" stroke="#ffe9c7" points="1201,-94.5 1566,-94.5 "/>
<text text-anchor="middle" x="1383.5" y="-79.3" font-family="Times,serif" font-size="14.00">curr: 0x503000000160</text>
<polyline fill="none" stroke="#ffe9c7" points="1201,-71.5 1566,-71.5 "/>
<text text-anchor="middle" x="1292.5" y="-56.3" font-family="Times,serif" font-size="14.00">prev: 0x503000000130</text>
<polyline fill="none" stroke="#ffe9c7" points="1384,-48.5 1384,-71.5 "/>
<text text-anchor="middle" x="1475" y="-56.3" font-family="Times,serif" font-size="14.00">next: 0x503000000190</text>
</g>
<!-- node_0x503000000130&#45;&gt;node_0x503000000160 -->
<g id="edge5" class="edge">
<title>node_0x503000000130&#45;&gt;node_0x503000000160</title>
<path fill="none" stroke="#ff6699" d="M1165.11,-86.67C1165.11,-86.67 1190.85,-86.67 1190.85,-86.67"/>
<polygon fill="#ff6699" stroke="#ff6699" points="1190.85,-90.17 1200.85,-86.67 1190.85,-83.17 1190.85,-90.17"/>
</g>
<!-- node_0x503000000160&#45;&gt;node_0x503000000130 -->
<g id="edge8" class="edge">
<title>node_0x503000000160&#45;&gt;node_0x503000000130</title>
<path fill="none" stroke="#34cb34" d="M1200.89,-125.33C1200.89,-125.33 1175.15,-125.33 1175.15,-125.33"/>
<polygon fill="#34cb34" stroke="#34cb34" points="1175.15,-121.83 1165.15,-125.33 1175.15,-128.83 1175.15,-121.83"/>
</g>
<!-- node_0x503000000190 -->
<g id="node5" class="node">
<title>node_0x503000000190</title>
<path fill="#e8d92e" stroke="#ffe9c7" d="M1614,-48.5C1614,-48.5 1954,-48.5 1954,-48.5 1960,-48.5 1966,-54.5 1966,-60.5 1966,-60.5 1966,-151.5 1966,-151.5 1966,-157.5 1960,-163.5 1954,-163.5 1954,-163.5 1614,-163.5 1614,-163.5 1608,-163.5 1602,-157.5 1602,-151.5 1602,-151.5 1602,-60.5 1602,-60.5 1602,-54.5 1608,-48.5 1614,-48.5"/>
<text text-anchor="middle" x="1784" y="-148.3" font-family="Times,serif" font-size="14.00">num: 3</text>
<polyline fill="none" stroke="#ffe9c7" points="1602,-140.5 1966,-140.5 "/>
<text text-anchor="middle" x="1784" y="-125.3" font-family="Times,serif" font-size="14.00">data_type: Constant</text>
<polyline fill="none" stroke="#ffe9c7" points="1602,-117.5 1966,-117.5 "/>
<text text-anchor="middle" x="1784" y="-102.3" font-family="Times,serif" font-size="14.00">data: 15</text>
<polyline fill="none" stroke="#ffe9c7" points="1602,-94.5 1966,-94.5 "/>
<text text-anchor="middle" x="1784" y="-79.3" font-family="Times,serif" font-size="14.00">curr: 0x503000000190</text>
<polyline fill="none" stroke="#ffe9c7" points="1602,-71.5 1966,-71.5 "/>
<text text-anchor="middle" x="1693.5" y="-56.3" font-family="Times,serif" font-size="14.00">prev: 0x503000000160</text>
<polyline fill="none" stroke="#ffe9c7" points="1785,-48.5 1785,-71.5 "/>
<text text-anchor="middle" x="1875.5" y="-56.3" font-family="Times,serif" font-size="14.00">next: 0x5030000001c0</text>
</g>
<!-- node_0x503000000160&#45;&gt;node_0x503000000190 -->
<g id="edge7" class="edge">
<title>node_0x503000000160&#45;&gt;node_0x503000000190</title>
<path fill="none" stroke="#ff6699" d="M1566.17,-86.67C1566.17,-86.67 1591.84,-86.67 1591.84,-86.67"/>
<polygon fill="#ff6699" stroke="#ff6699" points="1591.84,-90.17 1601.84,-86.67 1591.84,-83.17 1591.84,-90.17"/>
</g>
<!-- node_0x503000000190&#45;&gt;node_0x503000000160 -->
<g id="edge10" class="edge">
<title>node_0x503000000190&#45;&gt;node_0x503000000160</title>
<path fill="none" stroke="#34cb34" d="M1601.91,-125.33C1601.91,-125.33 1576.18,-125.33 1576.18,-125.33"/>
<polygon fill="#34cb34" stroke="#34cb34" points="1576.18,-121.83 1566.18,-125.33 1576.18,-128.83 1576.18,-121.83"/>
</g>
<!-- node_0x503000000190&#45;&gt;node_0x5030000001c0 -->
<g id="edge9" class="edge">
<title>node_0x503000000190&#45;&gt;node_0x5030000001c0</title>
<path fill="none" stroke="#ff6699" d="M1966.09,-70.67C1966.09,-70.67 1991.82,-70.67 1991.82,-70.67"/>
<polygon fill="#ff6699" stroke="#ff6699" points="1991.82,-74.17 2001.82,-70.67 1991.82,-67.17 1991.82,-74.17"/>
</g>
<!-- node_0x5030000001c0&#45;&gt;node_0x5030000000a0 -->
<g id="edge11" class="edge">
<title>node_0x5030000001c0&#45;&gt;node_0x5030000000a0</title>
<path fill="none" stroke="#ff6699" d="M2001.93,-35.83C2001.93,-35.83 374.33,-35.83 374.33,-35.83"/>
<polygon fill="#ff6699" stroke="#ff6699" points="374.33,-32.33 364.33,-35.83 374.33,-39.33 374.33,-32.33"/>
</g>
<!-- node_0x5030000001c0&#45;&gt;node_0x503000000190 -->
<g id="edge12" class="edge">
<title>node_0x5030000001c0&#45;&gt;node_0x503000000190</title>
<path fill="none" stroke="#34cb34" d="M2001.83,-93.33C2001.83,-93.33 1976.16,-93.33 1976.16,-93.33"/>
<polygon fill="#34cb34" stroke="#34cb34" points="1976.16,-89.83 1966.16,-93.33 1976.16,-96.83 1976.16,-89.83"/>
</g>
</g>
</svg>
