<?xml version="1.0" encoding="UTF-8" standalone="no"?>
<!DOCTYPE svg PUBLIC "-//W3C//DTD SVG 1.1//EN"
 "http://www.w3.org/Graphics/SVG/1.1/DTD/svg11.dtd">
<!-- Generated by graphviz version 2.43.0 (0)
 -->
<!-- Title: G Pages: 1 -->
<svg width="7980pt" height="213pt"
 viewBox="0.00 0.00 7980.00 213.00" xmlns="http://www.w3.org/2000/svg" xmlns:xlink="http://www.w3.org/1999/xlink">
<g id="graph0" class="graph" transform="scale(1 1) rotate(0) translate(4 209)">
<title>G</title>
<polygon fill="#ffd480" stroke="transparent" points="-4,4 -4,-209 7976,-209 7976,4 -4,4"/>
<text text-anchor="middle" x="3986" y="-177" font-family="DejaVu Sans" font-size="30.00" fill="#ffffff">List</text>
<!-- node_0x5030000000a0 -->
<g id="node1" class="node">
<title>node_0x5030000000a0</title>
<path fill="#ff6699" stroke="#ffe9c7" d="M12,-12C12,-12 353,-12 353,-12 359,-12 365,-18 365,-24 365,-24 365,-92 365,-92 365,-98 359,-104 353,-104 353,-104 12,-104 12,-104 6,-104 0,-98 0,-92 0,-92 0,-24 0,-24 0,-18 6,-12 12,-12"/>
<text text-anchor="middle" x="182.5" y="-88.8" font-family="Times,serif" font-size="14.00">Phantom</text>
<polyline fill="none" stroke="#ffe9c7" points="0,-81 365,-81 "/>
<text text-anchor="middle" x="182.5" y="-65.8" font-family="Times,serif" font-size="14.00">data: Phantom</text>
<polyline fill="none" stroke="#ffe9c7" points="0,-58 365,-58 "/>
<text text-anchor="middle" x="182.5" y="-42.8" font-family="Times,serif" font-size="14.00">curr: 0x5030000000a0</text>
<polyline fill="none" stroke="#ffe9c7" points="0,-35 365,-35 "/>
<text text-anchor="middle" x="91.5" y="-19.8" font-family="Times,serif" font-size="14.00">prev: 0x503000000430</text>
<polyline fill="none" stroke="#ffe9c7" points="183,-12 183,-35 "/>
<text text-anchor="middle" x="274" y="-19.8" font-family="Times,serif" font-size="14.00">next: 0x5030000000d0</text>
</g>
<!-- node_0x5030000000d0 -->
<g id="node2" class="node">
<title>node_0x5030000000d0</title>
<path fill="#9966ff" stroke="#ffe9c7" d="M413,-48.5C413,-48.5 753,-48.5 753,-48.5 759,-48.5 765,-54.5 765,-60.5 765,-60.5 765,-151.5 765,-151.5 765,-157.5 759,-163.5 753,-163.5 753,-163.5 413,-163.5 413,-163.5 407,-163.5 401,-157.5 401,-151.5 401,-151.5 401,-60.5 401,-60.5 401,-54.5 407,-48.5 413,-48.5"/>
<text text-anchor="middle" x="583" y="-148.3" font-family="Times,serif" font-size="14.00">num: 0</text>
<polyline fill="none" stroke="#ffe9c7" points="401,-140.5 765,-140.5 "/>
<text text-anchor="middle" x="583" y="-125.3" font-family="Times,serif" font-size="14.00">data_type: KeyWord</text>
<polyline fill="none" stroke="#ffe9c7" points="401,-117.5 765,-117.5 "/>
<text text-anchor="middle" x="583" y="-102.3" font-family="Times,serif" font-size="14.00">data: int</text>
<polyline fill="none" stroke="#ffe9c7" points="401,-94.5 765,-94.5 "/>
<text text-anchor="middle" x="583" y="-79.3" font-family="Times,serif" font-size="14.00">curr: 0x5030000000d0</text>
<polyline fill="none" stroke="#ffe9c7" points="401,-71.5 765,-71.5 "/>
<text text-anchor="middle" x="492" y="-56.3" font-family="Times,serif" font-size="14.00">prev: 0x5030000000a0</text>
<polyline fill="none" stroke="#ffe9c7" points="583,-48.5 583,-71.5 "/>
<text text-anchor="middle" x="674" y="-56.3" font-family="Times,serif" font-size="14.00">next: 0x503000000100</text>
</g>
<!-- node_0x5030000000a0&#45;&gt;node_0x5030000000d0 -->
<g id="edge1" class="edge">
<title>node_0x5030000000a0&#45;&gt;node_0x5030000000d0</title>
<path fill="none" stroke="#ff6699" d="M365.17,-66.83C365.17,-66.83 390.84,-66.83 390.84,-66.83"/>
<polygon fill="#ff6699" stroke="#ff6699" points="390.84,-70.33 400.84,-66.83 390.84,-63.33 390.84,-70.33"/>
</g>
<!-- node_0x503000000430 -->
<g id="node20" class="node">
<title>node_0x503000000430</title>
<path fill="#9966ff" stroke="#ffe9c7" d="M7619,-0.5C7619,-0.5 7960,-0.5 7960,-0.5 7966,-0.5 7972,-6.5 7972,-12.5 7972,-12.5 7972,-103.5 7972,-103.5 7972,-109.5 7966,-115.5 7960,-115.5 7960,-115.5 7619,-115.5 7619,-115.5 7613,-115.5 7607,-109.5 7607,-103.5 7607,-103.5 7607,-12.5 7607,-12.5 7607,-6.5 7613,-0.5 7619,-0.5"/>
<text text-anchor="middle" x="7789.5" y="-100.3" font-family="Times,serif" font-size="14.00">num: 18</text>
<polyline fill="none" stroke="#ffe9c7" points="7607,-92.5 7972,-92.5 "/>
<text text-anchor="middle" x="7789.5" y="-77.3" font-family="Times,serif" font-size="14.00">data_type: KeyWord</text>
<polyline fill="none" stroke="#ffe9c7" points="7607,-69.5 7972,-69.5 "/>
<text text-anchor="middle" x="7789.5" y="-54.3" font-family="Times,serif" font-size="14.00">data: }</text>
<polyline fill="none" stroke="#ffe9c7" points="7607,-46.5 7972,-46.5 "/>
<text text-anchor="middle" x="7789.5" y="-31.3" font-family="Times,serif" font-size="14.00">curr: 0x503000000430</text>
<polyline fill="none" stroke="#ffe9c7" points="7607,-23.5 7972,-23.5 "/>
<text text-anchor="middle" x="7698.5" y="-8.3" font-family="Times,serif" font-size="14.00">prev: 0x503000000400</text>
<polyline fill="none" stroke="#ffe9c7" points="7790,-0.5 7790,-23.5 "/>
<text text-anchor="middle" x="7881" y="-8.3" font-family="Times,serif" font-size="14.00">next: 0x5030000000a0</text>
</g>
<!-- node_0x5030000000a0&#45;&gt;node_0x503000000430 -->
<g id="edge2" class="edge">
<title>node_0x5030000000a0&#45;&gt;node_0x503000000430</title>
<path fill="none" stroke="#34cb34" d="M365.37,-23.67C365.37,-23.67 7596.67,-23.67 7596.67,-23.67"/>
<polygon fill="#34cb34" stroke="#34cb34" points="7596.67,-27.17 7606.67,-23.67 7596.67,-20.17 7596.67,-27.17"/>
</g>
<!-- node_0x5030000000d0&#45;&gt;node_0x5030000000a0 -->
<g id="edge4" class="edge">
<title>node_0x5030000000d0&#45;&gt;node_0x5030000000a0</title>
<path fill="none" stroke="#34cb34" d="M400.91,-85.67C400.91,-85.67 375.18,-85.67 375.18,-85.67"/>
<polygon fill="#34cb34" stroke="#34cb34" points="375.18,-82.17 365.18,-85.67 375.18,-89.17 375.18,-82.17"/>
</g>
<!-- node_0x503000000100 -->
<g id="node3" class="node">
<title>node_0x503000000100</title>
<path fill="#34cb34" stroke="#ffe9c7" d="M813,-48.5C813,-48.5 1154,-48.5 1154,-48.5 1160,-48.5 1166,-54.5 1166,-60.5 1166,-60.5 1166,-151.5 1166,-151.5 1166,-157.5 1160,-163.5 1154,-163.5 1154,-163.5 813,-163.5 813,-163.5 807,-163.5 801,-157.5 801,-151.5 801,-151.5 801,-60.5 801,-60.5 801,-54.5 807,-48.5 813,-48.5"/>
<text text-anchor="middle" x="983.5" y="-148.3" font-family="Times,serif" font-size="14.00">num: 1</text>
<polyline fill="none" stroke="#ffe9c7" points="801,-140.5 1166,-140.5 "/>
<text text-anchor="middle" x="983.5" y="-125.3" font-family="Times,serif" font-size="14.00">data_type: Identifier</text>
<polyline fill="none" stroke="#ffe9c7" points="801,-117.5 1166,-117.5 "/>
<text text-anchor="middle" x="983.5" y="-102.3" font-family="Times,serif" font-size="14.00">data: main</text>
<polyline fill="none" stroke="#ffe9c7" points="801,-94.5 1166,-94.5 "/>
<text text-anchor="middle" x="983.5" y="-79.3" font-family="Times,serif" font-size="14.00">curr: 0x503000000100</text>
<polyline fill="none" stroke="#ffe9c7" points="801,-71.5 1166,-71.5 "/>
<text text-anchor="middle" x="892.5" y="-56.3" font-family="Times,serif" font-size="14.00">prev: 0x5030000000d0</text>
<polyline fill="none" stroke="#ffe9c7" points="984,-48.5 984,-71.5 "/>
<text text-anchor="middle" x="1075" y="-56.3" font-family="Times,serif" font-size="14.00">next: 0x503000000130</text>
</g>
<!-- node_0x5030000000d0&#45;&gt;node_0x503000000100 -->
<g id="edge3" class="edge">
<title>node_0x5030000000d0&#45;&gt;node_0x503000000100</title>
<path fill="none" stroke="#ff6699" d="M765.09,-86.67C765.09,-86.67 790.82,-86.67 790.82,-86.67"/>
<polygon fill="#ff6699" stroke="#ff6699" points="790.82,-90.17 800.82,-86.67 790.82,-83.17 790.82,-90.17"/>
</g>
<!-- node_0x503000000100&#45;&gt;node_0x5030000000d0 -->
<g id="edge6" class="edge">
<title>node_0x503000000100&#45;&gt;node_0x5030000000d0</title>
<path fill="none" stroke="#34cb34" d="M800.83,-125.33C800.83,-125.33 775.16,-125.33 775.16,-125.33"/>
<polygon fill="#34cb34" stroke="#34cb34" points="775.16,-121.83 765.16,-125.33 775.16,-128.83 775.16,-121.83"/>
</g>
<!-- node_0x503000000130 -->
<g id="node4" class="node">
<title>node_0x503000000130</title>
<path fill="#9966ff" stroke="#ffe9c7" d="M1214,-48.5C1214,-48.5 1555,-48.5 1555,-48.5 1561,-48.5 1567,-54.5 1567,-60.5 1567,-60.5 1567,-151.5 1567,-151.5 1567,-157.5 1561,-163.5 1555,-163.5 1555,-163.5 1214,-163.5 1214,-163.5 1208,-163.5 1202,-157.5 1202,-151.5 1202,-151.5 1202,-60.5 1202,-60.5 1202,-54.5 1208,-48.5 1214,-48.5"/>
<text text-anchor="middle" x="1384.5" y="-148.3" font-family="Times,serif" font-size="14.00">num: 2</text>
<polyline fill="none" stroke="#ffe9c7" points="1202,-140.5 1567,-140.5 "/>
<text text-anchor="middle" x="1384.5" y="-125.3" font-family="Times,serif" font-size="14.00">data_type: KeyWord</text>
<polyline fill="none" stroke="#ffe9c7" points="1202,-117.5 1567,-117.5 "/>
<text text-anchor="middle" x="1384.5" y="-102.3" font-family="Times,serif" font-size="14.00">data: (</text>
<polyline fill="none" stroke="#ffe9c7" points="1202,-94.5 1567,-94.5 "/>
<text text-anchor="middle" x="1384.5" y="-79.3" font-family="Times,serif" font-size="14.00">curr: 0x503000000130</text>
<polyline fill="none" stroke="#ffe9c7" points="1202,-71.5 1567,-71.5 "/>
<text text-anchor="middle" x="1293.5" y="-56.3" font-family="Times,serif" font-size="14.00">prev: 0x503000000100</text>
<polyline fill="none" stroke="#ffe9c7" points="1385,-48.5 1385,-71.5 "/>
<text text-anchor="middle" x="1476" y="-56.3" font-family="Times,serif" font-size="14.00">next: 0x503000000160</text>
</g>
<!-- node_0x503000000100&#45;&gt;node_0x503000000130 -->
<g id="edge5" class="edge">
<title>node_0x503000000100&#45;&gt;node_0x503000000130</title>
<path fill="none" stroke="#ff6699" d="M1166.11,-86.67C1166.11,-86.67 1191.85,-86.67 1191.85,-86.67"/>
<polygon fill="#ff6699" stroke="#ff6699" points="1191.85,-90.17 1201.85,-86.67 1191.85,-83.17 1191.85,-90.17"/>
</g>
<!-- node_0x503000000130&#45;&gt;node_0x503000000100 -->
<g id="edge8" class="edge">
<title>node_0x503000000130&#45;&gt;node_0x503000000100</title>
<path fill="none" stroke="#34cb34" d="M1201.89,-125.33C1201.89,-125.33 1176.15,-125.33 1176.15,-125.33"/>
<polygon fill="#34cb34" stroke="#34cb34" points="1176.15,-121.83 1166.15,-125.33 1176.15,-128.83 1176.15,-121.83"/>
</g>
<!-- node_0x503000000160 -->
<g id="node5" class="node">
<title>node_0x503000000160</title>
<path fill="#9966ff" stroke="#ffe9c7" d="M1615,-48.5C1615,-48.5 1956,-48.5 1956,-48.5 1962,-48.5 1968,-54.5 1968,-60.5 1968,-60.5 1968,-151.5 1968,-151.5 1968,-157.5 1962,-163.5 1956,-163.5 1956,-163.5 1615,-163.5 1615,-163.5 1609,-163.5 1603,-157.5 1603,-151.5 1603,-151.5 1603,-60.5 1603,-60.5 1603,-54.5 1609,-48.5 1615,-48.5"/>
<text text-anchor="middle" x="1785.5" y="-148.3" font-family="Times,serif" font-size="14.00">num: 3</text>
<polyline fill="none" stroke="#ffe9c7" points="1603,-140.5 1968,-140.5 "/>
<text text-anchor="middle" x="1785.5" y="-125.3" font-family="Times,serif" font-size="14.00">data_type: KeyWord</text>
<polyline fill="none" stroke="#ffe9c7" points="1603,-117.5 1968,-117.5 "/>
<text text-anchor="middle" x="1785.5" y="-102.3" font-family="Times,serif" font-size="14.00">data: )</text>
<polyline fill="none" stroke="#ffe9c7" points="1603,-94.5 1968,-94.5 "/>
<text text-anchor="middle" x="1785.5" y="-79.3" font-family="Times,serif" font-size="14.00">curr: 0x503000000160</text>
<polyline fill="none" stroke="#ffe9c7" points="1603,-71.5 1968,-71.5 "/>
<text text-anchor="middle" x="1694.5" y="-56.3" font-family="Times,serif" font-size="14.00">prev: 0x503000000130</text>
<polyline fill="none" stroke="#ffe9c7" points="1786,-48.5 1786,-71.5 "/>
<text text-anchor="middle" x="1877" y="-56.3" font-family="Times,serif" font-size="14.00">next: 0x503000000190</text>
</g>
<!-- node_0x503000000130&#45;&gt;node_0x503000000160 -->
<g id="edge7" class="edge">
<title>node_0x503000000130&#45;&gt;node_0x503000000160</title>
<path fill="none" stroke="#ff6699" d="M1567.11,-86.67C1567.11,-86.67 1592.85,-86.67 1592.85,-86.67"/>
<polygon fill="#ff6699" stroke="#ff6699" points="1592.85,-90.17 1602.85,-86.67 1592.85,-83.17 1592.85,-90.17"/>
</g>
<!-- node_0x503000000160&#45;&gt;node_0x503000000130 -->
<g id="edge10" class="edge">
<title>node_0x503000000160&#45;&gt;node_0x503000000130</title>
<path fill="none" stroke="#34cb34" d="M1602.89,-125.33C1602.89,-125.33 1577.15,-125.33 1577.15,-125.33"/>
<polygon fill="#34cb34" stroke="#34cb34" points="1577.15,-121.83 1567.15,-125.33 1577.15,-128.83 1577.15,-121.83"/>
</g>
<!-- node_0x503000000190 -->
<g id="node6" class="node">
<title>node_0x503000000190</title>
<path fill="#9966ff" stroke="#ffe9c7" d="M2016,-48.5C2016,-48.5 2356,-48.5 2356,-48.5 2362,-48.5 2368,-54.5 2368,-60.5 2368,-60.5 2368,-151.5 2368,-151.5 2368,-157.5 2362,-163.5 2356,-163.5 2356,-163.5 2016,-163.5 2016,-163.5 2010,-163.5 2004,-157.5 2004,-151.5 2004,-151.5 2004,-60.5 2004,-60.5 2004,-54.5 2010,-48.5 2016,-48.5"/>
<text text-anchor="middle" x="2186" y="-148.3" font-family="Times,serif" font-size="14.00">num: 4</text>
<polyline fill="none" stroke="#ffe9c7" points="2004,-140.5 2368,-140.5 "/>
<text text-anchor="middle" x="2186" y="-125.3" font-family="Times,serif" font-size="14.00">data_type: KeyWord</text>
<polyline fill="none" stroke="#ffe9c7" points="2004,-117.5 2368,-117.5 "/>
<text text-anchor="middle" x="2186" y="-102.3" font-family="Times,serif" font-size="14.00">data: {</text>
<polyline fill="none" stroke="#ffe9c7" points="2004,-94.5 2368,-94.5 "/>
<text text-anchor="middle" x="2186" y="-79.3" font-family="Times,serif" font-size="14.00">curr: 0x503000000190</text>
<polyline fill="none" stroke="#ffe9c7" points="2004,-71.5 2368,-71.5 "/>
<text text-anchor="middle" x="2095.5" y="-56.3" font-family="Times,serif" font-size="14.00">prev: 0x503000000160</text>
<polyline fill="none" stroke="#ffe9c7" points="2187,-48.5 2187,-71.5 "/>
<text text-anchor="middle" x="2277.5" y="-56.3" font-family="Times,serif" font-size="14.00">next: 0x5030000001c0</text>
</g>
<!-- node_0x503000000160&#45;&gt;node_0x503000000190 -->
<g id="edge9" class="edge">
<title>node_0x503000000160&#45;&gt;node_0x503000000190</title>
<path fill="none" stroke="#ff6699" d="M1968.17,-86.67C1968.17,-86.67 1993.84,-86.67 1993.84,-86.67"/>
<polygon fill="#ff6699" stroke="#ff6699" points="1993.84,-90.17 2003.84,-86.67 1993.84,-83.17 1993.84,-90.17"/>
</g>
<!-- node_0x503000000190&#45;&gt;node_0x503000000160 -->
<g id="edge12" class="edge">
<title>node_0x503000000190&#45;&gt;node_0x503000000160</title>
<path fill="none" stroke="#34cb34" d="M2003.91,-125.33C2003.91,-125.33 1978.18,-125.33 1978.18,-125.33"/>
<polygon fill="#34cb34" stroke="#34cb34" points="1978.18,-121.83 1968.18,-125.33 1978.18,-128.83 1978.18,-121.83"/>
</g>
<!-- node_0x5030000001c0 -->
<g id="node7" class="node">
<title>node_0x5030000001c0</title>
<path fill="#9966ff" stroke="#ffe9c7" d="M2416,-48.5C2416,-48.5 2754,-48.5 2754,-48.5 2760,-48.5 2766,-54.5 2766,-60.5 2766,-60.5 2766,-151.5 2766,-151.5 2766,-157.5 2760,-163.5 2754,-163.5 2754,-163.5 2416,-163.5 2416,-163.5 2410,-163.5 2404,-157.5 2404,-151.5 2404,-151.5 2404,-60.5 2404,-60.5 2404,-54.5 2410,-48.5 2416,-48.5"/>
<text text-anchor="middle" x="2585" y="-148.3" font-family="Times,serif" font-size="14.00">num: 5</text>
<polyline fill="none" stroke="#ffe9c7" points="2404,-140.5 2766,-140.5 "/>
<text text-anchor="middle" x="2585" y="-125.3" font-family="Times,serif" font-size="14.00">data_type: KeyWord</text>
<polyline fill="none" stroke="#ffe9c7" points="2404,-117.5 2766,-117.5 "/>
<text text-anchor="middle" x="2585" y="-102.3" font-family="Times,serif" font-size="14.00">data: int</text>
<polyline fill="none" stroke="#ffe9c7" points="2404,-94.5 2766,-94.5 "/>
<text text-anchor="middle" x="2585" y="-79.3" font-family="Times,serif" font-size="14.00">curr: 0x5030000001c0</text>
<polyline fill="none" stroke="#ffe9c7" points="2404,-71.5 2766,-71.5 "/>
<text text-anchor="middle" x="2495.5" y="-56.3" font-family="Times,serif" font-size="14.00">prev: 0x503000000190</text>
<polyline fill="none" stroke="#ffe9c7" points="2587,-48.5 2587,-71.5 "/>
<text text-anchor="middle" x="2676.5" y="-56.3" font-family="Times,serif" font-size="14.00">next: 0x5030000001f0</text>
</g>
<!-- node_0x503000000190&#45;&gt;node_0x5030000001c0 -->
<g id="edge11" class="edge">
<title>node_0x503000000190&#45;&gt;node_0x5030000001c0</title>
<path fill="none" stroke="#ff6699" d="M2368.28,-86.67C2368.28,-86.67 2393.78,-86.67 2393.78,-86.67"/>
<polygon fill="#ff6699" stroke="#ff6699" points="2393.78,-90.17 2403.78,-86.67 2393.78,-83.17 2393.78,-90.17"/>
</g>
<!-- node_0x5030000001c0&#45;&gt;node_0x503000000190 -->
<g id="edge14" class="edge">
<title>node_0x5030000001c0&#45;&gt;node_0x503000000190</title>
<path fill="none" stroke="#34cb34" d="M2403.89,-125.33C2403.89,-125.33 2378.26,-125.33 2378.26,-125.33"/>
<polygon fill="#34cb34" stroke="#34cb34" points="2378.26,-121.83 2368.26,-125.33 2378.26,-128.83 2378.26,-121.83"/>
</g>
<!-- node_0x5030000001f0 -->
<g id="node8" class="node">
<title>node_0x5030000001f0</title>
<path fill="#34cb34" stroke="#ffe9c7" d="M2814,-48.5C2814,-48.5 3154,-48.5 3154,-48.5 3160,-48.5 3166,-54.5 3166,-60.5 3166,-60.5 3166,-151.5 3166,-151.5 3166,-157.5 3160,-163.5 3154,-163.5 3154,-163.5 2814,-163.5 2814,-163.5 2808,-163.5 2802,-157.5 2802,-151.5 2802,-151.5 2802,-60.5 2802,-60.5 2802,-54.5 2808,-48.5 2814,-48.5"/>
<text text-anchor="middle" x="2984" y="-148.3" font-family="Times,serif" font-size="14.00">num: 6</text>
<polyline fill="none" stroke="#ffe9c7" points="2802,-140.5 3166,-140.5 "/>
<text text-anchor="middle" x="2984" y="-125.3" font-family="Times,serif" font-size="14.00">data_type: Identifier</text>
<polyline fill="none" stroke="#ffe9c7" points="2802,-117.5 3166,-117.5 "/>
<text text-anchor="middle" x="2984" y="-102.3" font-family="Times,serif" font-size="14.00">data: one</text>
<polyline fill="none" stroke="#ffe9c7" points="2802,-94.5 3166,-94.5 "/>
<text text-anchor="middle" x="2984" y="-79.3" font-family="Times,serif" font-size="14.00">curr: 0x5030000001f0</text>
<polyline fill="none" stroke="#ffe9c7" points="2802,-71.5 3166,-71.5 "/>
<text text-anchor="middle" x="2893" y="-56.3" font-family="Times,serif" font-size="14.00">prev: 0x5030000001c0</text>
<polyline fill="none" stroke="#ffe9c7" points="2984,-48.5 2984,-71.5 "/>
<text text-anchor="middle" x="3075" y="-56.3" font-family="Times,serif" font-size="14.00">next: 0x503000000220</text>
</g>
<!-- node_0x5030000001c0&#45;&gt;node_0x5030000001f0 -->
<g id="edge13" class="edge">
<title>node_0x5030000001c0&#45;&gt;node_0x5030000001f0</title>
<path fill="none" stroke="#ff6699" d="M2766.11,-86.67C2766.11,-86.67 2791.74,-86.67 2791.74,-86.67"/>
<polygon fill="#ff6699" stroke="#ff6699" points="2791.74,-90.17 2801.74,-86.67 2791.74,-83.17 2791.74,-90.17"/>
</g>
<!-- node_0x5030000001f0&#45;&gt;node_0x5030000001c0 -->
<g id="edge16" class="edge">
<title>node_0x5030000001f0&#45;&gt;node_0x5030000001c0</title>
<path fill="none" stroke="#34cb34" d="M2801.72,-125.33C2801.72,-125.33 2776.22,-125.33 2776.22,-125.33"/>
<polygon fill="#34cb34" stroke="#34cb34" points="2776.22,-121.83 2766.22,-125.33 2776.22,-128.83 2776.22,-121.83"/>
</g>
<!-- node_0x503000000220 -->
<g id="node9" class="node">
<title>node_0x503000000220</title>
<path fill="#9966ff" stroke="#ffe9c7" d="M3214,-48.5C3214,-48.5 3551,-48.5 3551,-48.5 3557,-48.5 3563,-54.5 3563,-60.5 3563,-60.5 3563,-151.5 3563,-151.5 3563,-157.5 3557,-163.5 3551,-163.5 3551,-163.5 3214,-163.5 3214,-163.5 3208,-163.5 3202,-157.5 3202,-151.5 3202,-151.5 3202,-60.5 3202,-60.5 3202,-54.5 3208,-48.5 3214,-48.5"/>
<text text-anchor="middle" x="3382.5" y="-148.3" font-family="Times,serif" font-size="14.00">num: 7</text>
<polyline fill="none" stroke="#ffe9c7" points="3202,-140.5 3563,-140.5 "/>
<text text-anchor="middle" x="3382.5" y="-125.3" font-family="Times,serif" font-size="14.00">data_type: KeyWord</text>
<polyline fill="none" stroke="#ffe9c7" points="3202,-117.5 3563,-117.5 "/>
<text text-anchor="middle" x="3382.5" y="-102.3" font-family="Times,serif" font-size="14.00">data: =</text>
<polyline fill="none" stroke="#ffe9c7" points="3202,-94.5 3563,-94.5 "/>
<text text-anchor="middle" x="3382.5" y="-79.3" font-family="Times,serif" font-size="14.00">curr: 0x503000000220</text>
<polyline fill="none" stroke="#ffe9c7" points="3202,-71.5 3563,-71.5 "/>
<text text-anchor="middle" x="3291.5" y="-56.3" font-family="Times,serif" font-size="14.00">prev: 0x5030000001f0</text>
<polyline fill="none" stroke="#ffe9c7" points="3381,-48.5 3381,-71.5 "/>
<text text-anchor="middle" x="3472" y="-56.3" font-family="Times,serif" font-size="14.00">next: 0x503000000250</text>
</g>
<!-- node_0x5030000001f0&#45;&gt;node_0x503000000220 -->
<g id="edge15" class="edge">
<title>node_0x5030000001f0&#45;&gt;node_0x503000000220</title>
<path fill="none" stroke="#ff6699" d="M3166.05,-86.67C3166.05,-86.67 3191.81,-86.67 3191.81,-86.67"/>
<polygon fill="#ff6699" stroke="#ff6699" points="3191.81,-90.17 3201.81,-86.67 3191.81,-83.17 3191.81,-90.17"/>
</g>
<!-- node_0x503000000220&#45;&gt;node_0x5030000001f0 -->
<g id="edge18" class="edge">
<title>node_0x503000000220&#45;&gt;node_0x5030000001f0</title>
<path fill="none" stroke="#34cb34" d="M3201.91,-125.33C3201.91,-125.33 3176.29,-125.33 3176.29,-125.33"/>
<polygon fill="#34cb34" stroke="#34cb34" points="3176.29,-121.83 3166.29,-125.33 3176.29,-128.83 3176.29,-121.83"/>
</g>
<!-- node_0x503000000250 -->
<g id="node10" class="node">
<title>node_0x503000000250</title>
<path fill="#34cb34" stroke="#ffe9c7" d="M3611,-48.5C3611,-48.5 3952,-48.5 3952,-48.5 3958,-48.5 3964,-54.5 3964,-60.5 3964,-60.5 3964,-151.5 3964,-151.5 3964,-157.5 3958,-163.5 3952,-163.5 3952,-163.5 3611,-163.5 3611,-163.5 3605,-163.5 3599,-157.5 3599,-151.5 3599,-151.5 3599,-60.5 3599,-60.5 3599,-54.5 3605,-48.5 3611,-48.5"/>
<text text-anchor="middle" x="3781.5" y="-148.3" font-family="Times,serif" font-size="14.00">num: 8</text>
<polyline fill="none" stroke="#ffe9c7" points="3599,-140.5 3964,-140.5 "/>
<text text-anchor="middle" x="3781.5" y="-125.3" font-family="Times,serif" font-size="14.00">data_type: Identifier</text>
<polyline fill="none" stroke="#ffe9c7" points="3599,-117.5 3964,-117.5 "/>
<text text-anchor="middle" x="3781.5" y="-102.3" font-family="Times,serif" font-size="14.00">data: func</text>
<polyline fill="none" stroke="#ffe9c7" points="3599,-94.5 3964,-94.5 "/>
<text text-anchor="middle" x="3781.5" y="-79.3" font-family="Times,serif" font-size="14.00">curr: 0x503000000250</text>
<polyline fill="none" stroke="#ffe9c7" points="3599,-71.5 3964,-71.5 "/>
<text text-anchor="middle" x="3690.5" y="-56.3" font-family="Times,serif" font-size="14.00">prev: 0x503000000220</text>
<polyline fill="none" stroke="#ffe9c7" points="3782,-48.5 3782,-71.5 "/>
<text text-anchor="middle" x="3873" y="-56.3" font-family="Times,serif" font-size="14.00">next: 0x503000000280</text>
</g>
<!-- node_0x503000000220&#45;&gt;node_0x503000000250 -->
<g id="edge17" class="edge">
<title>node_0x503000000220&#45;&gt;node_0x503000000250</title>
<path fill="none" stroke="#ff6699" d="M3563.03,-86.67C3563.03,-86.67 3588.73,-86.67 3588.73,-86.67"/>
<polygon fill="#ff6699" stroke="#ff6699" points="3588.73,-90.17 3598.73,-86.67 3588.73,-83.17 3588.73,-90.17"/>
</g>
<!-- node_0x503000000250&#45;&gt;node_0x503000000220 -->
<g id="edge20" class="edge">
<title>node_0x503000000250&#45;&gt;node_0x503000000220</title>
<path fill="none" stroke="#34cb34" d="M3598.93,-125.33C3598.93,-125.33 3573.16,-125.33 3573.16,-125.33"/>
<polygon fill="#34cb34" stroke="#34cb34" points="3573.16,-121.83 3563.16,-125.33 3573.16,-128.83 3573.16,-121.83"/>
</g>
<!-- node_0x503000000280 -->
<g id="node11" class="node">
<title>node_0x503000000280</title>
<path fill="#9966ff" stroke="#ffe9c7" d="M4012,-48.5C4012,-48.5 4353,-48.5 4353,-48.5 4359,-48.5 4365,-54.5 4365,-60.5 4365,-60.5 4365,-151.5 4365,-151.5 4365,-157.5 4359,-163.5 4353,-163.5 4353,-163.5 4012,-163.5 4012,-163.5 4006,-163.5 4000,-157.5 4000,-151.5 4000,-151.5 4000,-60.5 4000,-60.5 4000,-54.5 4006,-48.5 4012,-48.5"/>
<text text-anchor="middle" x="4182.5" y="-148.3" font-family="Times,serif" font-size="14.00">num: 9</text>
<polyline fill="none" stroke="#ffe9c7" points="4000,-140.5 4365,-140.5 "/>
<text text-anchor="middle" x="4182.5" y="-125.3" font-family="Times,serif" font-size="14.00">data_type: KeyWord</text>
<polyline fill="none" stroke="#ffe9c7" points="4000,-117.5 4365,-117.5 "/>
<text text-anchor="middle" x="4182.5" y="-102.3" font-family="Times,serif" font-size="14.00">data: (</text>
<polyline fill="none" stroke="#ffe9c7" points="4000,-94.5 4365,-94.5 "/>
<text text-anchor="middle" x="4182.5" y="-79.3" font-family="Times,serif" font-size="14.00">curr: 0x503000000280</text>
<polyline fill="none" stroke="#ffe9c7" points="4000,-71.5 4365,-71.5 "/>
<text text-anchor="middle" x="4091.5" y="-56.3" font-family="Times,serif" font-size="14.00">prev: 0x503000000250</text>
<polyline fill="none" stroke="#ffe9c7" points="4183,-48.5 4183,-71.5 "/>
<text text-anchor="middle" x="4274" y="-56.3" font-family="Times,serif" font-size="14.00">next: 0x5030000002b0</text>
</g>
<!-- node_0x503000000250&#45;&gt;node_0x503000000280 -->
<g id="edge19" class="edge">
<title>node_0x503000000250&#45;&gt;node_0x503000000280</title>
<path fill="none" stroke="#ff6699" d="M3964.11,-86.67C3964.11,-86.67 3989.85,-86.67 3989.85,-86.67"/>
<polygon fill="#ff6699" stroke="#ff6699" points="3989.85,-90.17 3999.85,-86.67 3989.85,-83.17 3989.85,-90.17"/>
</g>
<!-- node_0x503000000280&#45;&gt;node_0x503000000250 -->
<g id="edge22" class="edge">
<title>node_0x503000000280&#45;&gt;node_0x503000000250</title>
<path fill="none" stroke="#34cb34" d="M3999.89,-125.33C3999.89,-125.33 3974.15,-125.33 3974.15,-125.33"/>
<polygon fill="#34cb34" stroke="#34cb34" points="3974.15,-121.83 3964.15,-125.33 3974.15,-128.83 3974.15,-121.83"/>
</g>
<!-- node_0x5030000002b0 -->
<g id="node12" class="node">
<title>node_0x5030000002b0</title>
<path fill="#9966ff" stroke="#ffe9c7" d="M4413,-48.5C4413,-48.5 4754,-48.5 4754,-48.5 4760,-48.5 4766,-54.5 4766,-60.5 4766,-60.5 4766,-151.5 4766,-151.5 4766,-157.5 4760,-163.5 4754,-163.5 4754,-163.5 4413,-163.5 4413,-163.5 4407,-163.5 4401,-157.5 4401,-151.5 4401,-151.5 4401,-60.5 4401,-60.5 4401,-54.5 4407,-48.5 4413,-48.5"/>
<text text-anchor="middle" x="4583.5" y="-148.3" font-family="Times,serif" font-size="14.00">num: 10</text>
<polyline fill="none" stroke="#ffe9c7" points="4401,-140.5 4766,-140.5 "/>
<text text-anchor="middle" x="4583.5" y="-125.3" font-family="Times,serif" font-size="14.00">data_type: KeyWord</text>
<polyline fill="none" stroke="#ffe9c7" points="4401,-117.5 4766,-117.5 "/>
<text text-anchor="middle" x="4583.5" y="-102.3" font-family="Times,serif" font-size="14.00">data: sin</text>
<polyline fill="none" stroke="#ffe9c7" points="4401,-94.5 4766,-94.5 "/>
<text text-anchor="middle" x="4583.5" y="-79.3" font-family="Times,serif" font-size="14.00">curr: 0x5030000002b0</text>
<polyline fill="none" stroke="#ffe9c7" points="4401,-71.5 4766,-71.5 "/>
<text text-anchor="middle" x="4492.5" y="-56.3" font-family="Times,serif" font-size="14.00">prev: 0x503000000280</text>
<polyline fill="none" stroke="#ffe9c7" points="4584,-48.5 4584,-71.5 "/>
<text text-anchor="middle" x="4675" y="-56.3" font-family="Times,serif" font-size="14.00">next: 0x5030000002e0</text>
</g>
<!-- node_0x503000000280&#45;&gt;node_0x5030000002b0 -->
<g id="edge21" class="edge">
<title>node_0x503000000280&#45;&gt;node_0x5030000002b0</title>
<path fill="none" stroke="#ff6699" d="M4365.11,-86.67C4365.11,-86.67 4390.85,-86.67 4390.85,-86.67"/>
<polygon fill="#ff6699" stroke="#ff6699" points="4390.85,-90.17 4400.85,-86.67 4390.85,-83.17 4390.85,-90.17"/>
</g>
<!-- node_0x5030000002b0&#45;&gt;node_0x503000000280 -->
<g id="edge24" class="edge">
<title>node_0x5030000002b0&#45;&gt;node_0x503000000280</title>
<path fill="none" stroke="#34cb34" d="M4400.89,-125.33C4400.89,-125.33 4375.15,-125.33 4375.15,-125.33"/>
<polygon fill="#34cb34" stroke="#34cb34" points="4375.15,-121.83 4365.15,-125.33 4375.15,-128.83 4375.15,-121.83"/>
</g>
<!-- node_0x5030000002e0 -->
<g id="node13" class="node">
<title>node_0x5030000002e0</title>
<path fill="#9966ff" stroke="#ffe9c7" d="M4814,-48.5C4814,-48.5 5155,-48.5 5155,-48.5 5161,-48.5 5167,-54.5 5167,-60.5 5167,-60.5 5167,-151.5 5167,-151.5 5167,-157.5 5161,-163.5 5155,-163.5 5155,-163.5 4814,-163.5 4814,-163.5 4808,-163.5 4802,-157.5 4802,-151.5 4802,-151.5 4802,-60.5 4802,-60.5 4802,-54.5 4808,-48.5 4814,-48.5"/>
<text text-anchor="middle" x="4984.5" y="-148.3" font-family="Times,serif" font-size="14.00">num: 11</text>
<polyline fill="none" stroke="#ffe9c7" points="4802,-140.5 5167,-140.5 "/>
<text text-anchor="middle" x="4984.5" y="-125.3" font-family="Times,serif" font-size="14.00">data_type: KeyWord</text>
<polyline fill="none" stroke="#ffe9c7" points="4802,-117.5 5167,-117.5 "/>
<text text-anchor="middle" x="4984.5" y="-102.3" font-family="Times,serif" font-size="14.00">data: (</text>
<polyline fill="none" stroke="#ffe9c7" points="4802,-94.5 5167,-94.5 "/>
<text text-anchor="middle" x="4984.5" y="-79.3" font-family="Times,serif" font-size="14.00">curr: 0x5030000002e0</text>
<polyline fill="none" stroke="#ffe9c7" points="4802,-71.5 5167,-71.5 "/>
<text text-anchor="middle" x="4893.5" y="-56.3" font-family="Times,serif" font-size="14.00">prev: 0x5030000002b0</text>
<polyline fill="none" stroke="#ffe9c7" points="4985,-48.5 4985,-71.5 "/>
<text text-anchor="middle" x="5076" y="-56.3" font-family="Times,serif" font-size="14.00">next: 0x503000000310</text>
</g>
<!-- node_0x5030000002b0&#45;&gt;node_0x5030000002e0 -->
<g id="edge23" class="edge">
<title>node_0x5030000002b0&#45;&gt;node_0x5030000002e0</title>
<path fill="none" stroke="#ff6699" d="M4766.11,-86.67C4766.11,-86.67 4791.85,-86.67 4791.85,-86.67"/>
<polygon fill="#ff6699" stroke="#ff6699" points="4791.85,-90.17 4801.85,-86.67 4791.85,-83.17 4791.85,-90.17"/>
</g>
<!-- node_0x5030000002e0&#45;&gt;node_0x5030000002b0 -->
<g id="edge26" class="edge">
<title>node_0x5030000002e0&#45;&gt;node_0x5030000002b0</title>
<path fill="none" stroke="#34cb34" d="M4801.89,-125.33C4801.89,-125.33 4776.15,-125.33 4776.15,-125.33"/>
<polygon fill="#34cb34" stroke="#34cb34" points="4776.15,-121.83 4766.15,-125.33 4776.15,-128.83 4776.15,-121.83"/>
</g>
<!-- node_0x503000000310 -->
<g id="node14" class="node">
<title>node_0x503000000310</title>
<path fill="#e8d92e" stroke="#ffe9c7" d="M5215,-48.5C5215,-48.5 5555,-48.5 5555,-48.5 5561,-48.5 5567,-54.5 5567,-60.5 5567,-60.5 5567,-151.5 5567,-151.5 5567,-157.5 5561,-163.5 5555,-163.5 5555,-163.5 5215,-163.5 5215,-163.5 5209,-163.5 5203,-157.5 5203,-151.5 5203,-151.5 5203,-60.5 5203,-60.5 5203,-54.5 5209,-48.5 5215,-48.5"/>
<text text-anchor="middle" x="5385" y="-148.3" font-family="Times,serif" font-size="14.00">num: 12</text>
<polyline fill="none" stroke="#ffe9c7" points="5203,-140.5 5567,-140.5 "/>
<text text-anchor="middle" x="5385" y="-125.3" font-family="Times,serif" font-size="14.00">data_type: Constant</text>
<polyline fill="none" stroke="#ffe9c7" points="5203,-117.5 5567,-117.5 "/>
<text text-anchor="middle" x="5385" y="-102.3" font-family="Times,serif" font-size="14.00">data: 15</text>
<polyline fill="none" stroke="#ffe9c7" points="5203,-94.5 5567,-94.5 "/>
<text text-anchor="middle" x="5385" y="-79.3" font-family="Times,serif" font-size="14.00">curr: 0x503000000310</text>
<polyline fill="none" stroke="#ffe9c7" points="5203,-71.5 5567,-71.5 "/>
<text text-anchor="middle" x="5294" y="-56.3" font-family="Times,serif" font-size="14.00">prev: 0x5030000002e0</text>
<polyline fill="none" stroke="#ffe9c7" points="5385,-48.5 5385,-71.5 "/>
<text text-anchor="middle" x="5476" y="-56.3" font-family="Times,serif" font-size="14.00">next: 0x503000000340</text>
</g>
<!-- node_0x5030000002e0&#45;&gt;node_0x503000000310 -->
<g id="edge25" class="edge">
<title>node_0x5030000002e0&#45;&gt;node_0x503000000310</title>
<path fill="none" stroke="#ff6699" d="M5167.17,-86.67C5167.17,-86.67 5192.84,-86.67 5192.84,-86.67"/>
<polygon fill="#ff6699" stroke="#ff6699" points="5192.84,-90.17 5202.84,-86.67 5192.84,-83.17 5192.84,-90.17"/>
</g>
<!-- node_0x503000000310&#45;&gt;node_0x5030000002e0 -->
<g id="edge28" class="edge">
<title>node_0x503000000310&#45;&gt;node_0x5030000002e0</title>
<path fill="none" stroke="#34cb34" d="M5202.91,-125.33C5202.91,-125.33 5177.18,-125.33 5177.18,-125.33"/>
<polygon fill="#34cb34" stroke="#34cb34" points="5177.18,-121.83 5167.18,-125.33 5177.18,-128.83 5177.18,-121.83"/>
</g>
<!-- node_0x503000000340 -->
<g id="node15" class="node">
<title>node_0x503000000340</title>
<path fill="#9966ff" stroke="#ffe9c7" d="M5615,-48.5C5615,-48.5 5956,-48.5 5956,-48.5 5962,-48.5 5968,-54.5 5968,-60.5 5968,-60.5 5968,-151.5 5968,-151.5 5968,-157.5 5962,-163.5 5956,-163.5 5956,-163.5 5615,-163.5 5615,-163.5 5609,-163.5 5603,-157.5 5603,-151.5 5603,-151.5 5603,-60.5 5603,-60.5 5603,-54.5 5609,-48.5 5615,-48.5"/>
<text text-anchor="middle" x="5785.5" y="-148.3" font-family="Times,serif" font-size="14.00">num: 13</text>
<polyline fill="none" stroke="#ffe9c7" points="5603,-140.5 5968,-140.5 "/>
<text text-anchor="middle" x="5785.5" y="-125.3" font-family="Times,serif" font-size="14.00">data_type: KeyWord</text>
<polyline fill="none" stroke="#ffe9c7" points="5603,-117.5 5968,-117.5 "/>
<text text-anchor="middle" x="5785.5" y="-102.3" font-family="Times,serif" font-size="14.00">data: +</text>
<polyline fill="none" stroke="#ffe9c7" points="5603,-94.5 5968,-94.5 "/>
<text text-anchor="middle" x="5785.5" y="-79.3" font-family="Times,serif" font-size="14.00">curr: 0x503000000340</text>
<polyline fill="none" stroke="#ffe9c7" points="5603,-71.5 5968,-71.5 "/>
<text text-anchor="middle" x="5694.5" y="-56.3" font-family="Times,serif" font-size="14.00">prev: 0x503000000310</text>
<polyline fill="none" stroke="#ffe9c7" points="5786,-48.5 5786,-71.5 "/>
<text text-anchor="middle" x="5877" y="-56.3" font-family="Times,serif" font-size="14.00">next: 0x503000000370</text>
</g>
<!-- node_0x503000000310&#45;&gt;node_0x503000000340 -->
<g id="edge27" class="edge">
<title>node_0x503000000310&#45;&gt;node_0x503000000340</title>
<path fill="none" stroke="#ff6699" d="M5567.09,-86.67C5567.09,-86.67 5592.82,-86.67 5592.82,-86.67"/>
<polygon fill="#ff6699" stroke="#ff6699" points="5592.82,-90.17 5602.82,-86.67 5592.82,-83.17 5592.82,-90.17"/>
</g>
<!-- node_0x503000000340&#45;&gt;node_0x503000000310 -->
<g id="edge30" class="edge">
<title>node_0x503000000340&#45;&gt;node_0x503000000310</title>
<path fill="none" stroke="#34cb34" d="M5602.83,-125.33C5602.83,-125.33 5577.16,-125.33 5577.16,-125.33"/>
<polygon fill="#34cb34" stroke="#34cb34" points="5577.16,-121.83 5567.16,-125.33 5577.16,-128.83 5577.16,-121.83"/>
</g>
<!-- node_0x503000000370 -->
<g id="node16" class="node">
<title>node_0x503000000370</title>
<path fill="#e8d92e" stroke="#ffe9c7" d="M6016,-48.5C6016,-48.5 6357,-48.5 6357,-48.5 6363,-48.5 6369,-54.5 6369,-60.5 6369,-60.5 6369,-151.5 6369,-151.5 6369,-157.5 6363,-163.5 6357,-163.5 6357,-163.5 6016,-163.5 6016,-163.5 6010,-163.5 6004,-157.5 6004,-151.5 6004,-151.5 6004,-60.5 6004,-60.5 6004,-54.5 6010,-48.5 6016,-48.5"/>
<text text-anchor="middle" x="6186.5" y="-148.3" font-family="Times,serif" font-size="14.00">num: 14</text>
<polyline fill="none" stroke="#ffe9c7" points="6004,-140.5 6369,-140.5 "/>
<text text-anchor="middle" x="6186.5" y="-125.3" font-family="Times,serif" font-size="14.00">data_type: Constant</text>
<polyline fill="none" stroke="#ffe9c7" points="6004,-117.5 6369,-117.5 "/>
<text text-anchor="middle" x="6186.5" y="-102.3" font-family="Times,serif" font-size="14.00">data: 1</text>
<polyline fill="none" stroke="#ffe9c7" points="6004,-94.5 6369,-94.5 "/>
<text text-anchor="middle" x="6186.5" y="-79.3" font-family="Times,serif" font-size="14.00">curr: 0x503000000370</text>
<polyline fill="none" stroke="#ffe9c7" points="6004,-71.5 6369,-71.5 "/>
<text text-anchor="middle" x="6095.5" y="-56.3" font-family="Times,serif" font-size="14.00">prev: 0x503000000340</text>
<polyline fill="none" stroke="#ffe9c7" points="6187,-48.5 6187,-71.5 "/>
<text text-anchor="middle" x="6278" y="-56.3" font-family="Times,serif" font-size="14.00">next: 0x5030000003a0</text>
</g>
<!-- node_0x503000000340&#45;&gt;node_0x503000000370 -->
<g id="edge29" class="edge">
<title>node_0x503000000340&#45;&gt;node_0x503000000370</title>
<path fill="none" stroke="#ff6699" d="M5968.11,-86.67C5968.11,-86.67 5993.85,-86.67 5993.85,-86.67"/>
<polygon fill="#ff6699" stroke="#ff6699" points="5993.85,-90.17 6003.85,-86.67 5993.85,-83.17 5993.85,-90.17"/>
</g>
<!-- node_0x503000000370&#45;&gt;node_0x503000000340 -->
<g id="edge32" class="edge">
<title>node_0x503000000370&#45;&gt;node_0x503000000340</title>
<path fill="none" stroke="#34cb34" d="M6003.89,-125.33C6003.89,-125.33 5978.15,-125.33 5978.15,-125.33"/>
<polygon fill="#34cb34" stroke="#34cb34" points="5978.15,-121.83 5968.15,-125.33 5978.15,-128.83 5978.15,-121.83"/>
</g>
<!-- node_0x5030000003a0 -->
<g id="node17" class="node">
<title>node_0x5030000003a0</title>
<path fill="#9966ff" stroke="#ffe9c7" d="M6417,-48.5C6417,-48.5 6758,-48.5 6758,-48.5 6764,-48.5 6770,-54.5 6770,-60.5 6770,-60.5 6770,-151.5 6770,-151.5 6770,-157.5 6764,-163.5 6758,-163.5 6758,-163.5 6417,-163.5 6417,-163.5 6411,-163.5 6405,-157.5 6405,-151.5 6405,-151.5 6405,-60.5 6405,-60.5 6405,-54.5 6411,-48.5 6417,-48.5"/>
<text text-anchor="middle" x="6587.5" y="-148.3" font-family="Times,serif" font-size="14.00">num: 15</text>
<polyline fill="none" stroke="#ffe9c7" points="6405,-140.5 6770,-140.5 "/>
<text text-anchor="middle" x="6587.5" y="-125.3" font-family="Times,serif" font-size="14.00">data_type: KeyWord</text>
<polyline fill="none" stroke="#ffe9c7" points="6405,-117.5 6770,-117.5 "/>
<text text-anchor="middle" x="6587.5" y="-102.3" font-family="Times,serif" font-size="14.00">data: )</text>
<polyline fill="none" stroke="#ffe9c7" points="6405,-94.5 6770,-94.5 "/>
<text text-anchor="middle" x="6587.5" y="-79.3" font-family="Times,serif" font-size="14.00">curr: 0x5030000003a0</text>
<polyline fill="none" stroke="#ffe9c7" points="6405,-71.5 6770,-71.5 "/>
<text text-anchor="middle" x="6496.5" y="-56.3" font-family="Times,serif" font-size="14.00">prev: 0x503000000370</text>
<polyline fill="none" stroke="#ffe9c7" points="6588,-48.5 6588,-71.5 "/>
<text text-anchor="middle" x="6679" y="-56.3" font-family="Times,serif" font-size="14.00">next: 0x5030000003d0</text>
</g>
<!-- node_0x503000000370&#45;&gt;node_0x5030000003a0 -->
<g id="edge31" class="edge">
<title>node_0x503000000370&#45;&gt;node_0x5030000003a0</title>
<path fill="none" stroke="#ff6699" d="M6369.11,-86.67C6369.11,-86.67 6394.85,-86.67 6394.85,-86.67"/>
<polygon fill="#ff6699" stroke="#ff6699" points="6394.85,-90.17 6404.85,-86.67 6394.85,-83.17 6394.85,-90.17"/>
</g>
<!-- node_0x5030000003a0&#45;&gt;node_0x503000000370 -->
<g id="edge34" class="edge">
<title>node_0x5030000003a0&#45;&gt;node_0x503000000370</title>
<path fill="none" stroke="#34cb34" d="M6404.89,-125.33C6404.89,-125.33 6379.15,-125.33 6379.15,-125.33"/>
<polygon fill="#34cb34" stroke="#34cb34" points="6379.15,-121.83 6369.15,-125.33 6379.15,-128.83 6379.15,-121.83"/>
</g>
<!-- node_0x5030000003d0 -->
<g id="node18" class="node">
<title>node_0x5030000003d0</title>
<path fill="#9966ff" stroke="#ffe9c7" d="M6818,-48.5C6818,-48.5 7158,-48.5 7158,-48.5 7164,-48.5 7170,-54.5 7170,-60.5 7170,-60.5 7170,-151.5 7170,-151.5 7170,-157.5 7164,-163.5 7158,-163.5 7158,-163.5 6818,-163.5 6818,-163.5 6812,-163.5 6806,-157.5 6806,-151.5 6806,-151.5 6806,-60.5 6806,-60.5 6806,-54.5 6812,-48.5 6818,-48.5"/>
<text text-anchor="middle" x="6988" y="-148.3" font-family="Times,serif" font-size="14.00">num: 16</text>
<polyline fill="none" stroke="#ffe9c7" points="6806,-140.5 7170,-140.5 "/>
<text text-anchor="middle" x="6988" y="-125.3" font-family="Times,serif" font-size="14.00">data_type: KeyWord</text>
<polyline fill="none" stroke="#ffe9c7" points="6806,-117.5 7170,-117.5 "/>
<text text-anchor="middle" x="6988" y="-102.3" font-family="Times,serif" font-size="14.00">data: )</text>
<polyline fill="none" stroke="#ffe9c7" points="6806,-94.5 7170,-94.5 "/>
<text text-anchor="middle" x="6988" y="-79.3" font-family="Times,serif" font-size="14.00">curr: 0x5030000003d0</text>
<polyline fill="none" stroke="#ffe9c7" points="6806,-71.5 7170,-71.5 "/>
<text text-anchor="middle" x="6897" y="-56.3" font-family="Times,serif" font-size="14.00">prev: 0x5030000003a0</text>
<polyline fill="none" stroke="#ffe9c7" points="6988,-48.5 6988,-71.5 "/>
<text text-anchor="middle" x="7079" y="-56.3" font-family="Times,serif" font-size="14.00">next: 0x503000000400</text>
</g>
<!-- node_0x5030000003a0&#45;&gt;node_0x5030000003d0 -->
<g id="edge33" class="edge">
<title>node_0x5030000003a0&#45;&gt;node_0x5030000003d0</title>
<path fill="none" stroke="#ff6699" d="M6770.17,-86.67C6770.17,-86.67 6795.84,-86.67 6795.84,-86.67"/>
<polygon fill="#ff6699" stroke="#ff6699" points="6795.84,-90.17 6805.84,-86.67 6795.84,-83.17 6795.84,-90.17"/>
</g>
<!-- node_0x5030000003d0&#45;&gt;node_0x5030000003a0 -->
<g id="edge36" class="edge">
<title>node_0x5030000003d0&#45;&gt;node_0x5030000003a0</title>
<path fill="none" stroke="#34cb34" d="M6805.91,-125.33C6805.91,-125.33 6780.18,-125.33 6780.18,-125.33"/>
<polygon fill="#34cb34" stroke="#34cb34" points="6780.18,-121.83 6770.18,-125.33 6780.18,-128.83 6780.18,-121.83"/>
</g>
<!-- node_0x503000000400 -->
<g id="node19" class="node">
<title>node_0x503000000400</title>
<path fill="#9966ff" stroke="#ffe9c7" d="M7218,-48.5C7218,-48.5 7559,-48.5 7559,-48.5 7565,-48.5 7571,-54.5 7571,-60.5 7571,-60.5 7571,-151.5 7571,-151.5 7571,-157.5 7565,-163.5 7559,-163.5 7559,-163.5 7218,-163.5 7218,-163.5 7212,-163.5 7206,-157.5 7206,-151.5 7206,-151.5 7206,-60.5 7206,-60.5 7206,-54.5 7212,-48.5 7218,-48.5"/>
<text text-anchor="middle" x="7388.5" y="-148.3" font-family="Times,serif" font-size="14.00">num: 17</text>
<polyline fill="none" stroke="#ffe9c7" points="7206,-140.5 7571,-140.5 "/>
<text text-anchor="middle" x="7388.5" y="-125.3" font-family="Times,serif" font-size="14.00">data_type: KeyWord</text>
<polyline fill="none" stroke="#ffe9c7" points="7206,-117.5 7571,-117.5 "/>
<text text-anchor="middle" x="7388.5" y="-102.3" font-family="Times,serif" font-size="14.00">data: ;</text>
<polyline fill="none" stroke="#ffe9c7" points="7206,-94.5 7571,-94.5 "/>
<text text-anchor="middle" x="7388.5" y="-79.3" font-family="Times,serif" font-size="14.00">curr: 0x503000000400</text>
<polyline fill="none" stroke="#ffe9c7" points="7206,-71.5 7571,-71.5 "/>
<text text-anchor="middle" x="7297.5" y="-56.3" font-family="Times,serif" font-size="14.00">prev: 0x5030000003d0</text>
<polyline fill="none" stroke="#ffe9c7" points="7389,-48.5 7389,-71.5 "/>
<text text-anchor="middle" x="7480" y="-56.3" font-family="Times,serif" font-size="14.00">next: 0x503000000430</text>
</g>
<!-- node_0x5030000003d0&#45;&gt;node_0x503000000400 -->
<g id="edge35" class="edge">
<title>node_0x5030000003d0&#45;&gt;node_0x503000000400</title>
<path fill="none" stroke="#ff6699" d="M7170.09,-86.67C7170.09,-86.67 7195.82,-86.67 7195.82,-86.67"/>
<polygon fill="#ff6699" stroke="#ff6699" points="7195.82,-90.17 7205.82,-86.67 7195.82,-83.17 7195.82,-90.17"/>
</g>
<!-- node_0x503000000400&#45;&gt;node_0x5030000003d0 -->
<g id="edge38" class="edge">
<title>node_0x503000000400&#45;&gt;node_0x5030000003d0</title>
<path fill="none" stroke="#34cb34" d="M7205.83,-125.33C7205.83,-125.33 7180.16,-125.33 7180.16,-125.33"/>
<polygon fill="#34cb34" stroke="#34cb34" points="7180.16,-121.83 7170.16,-125.33 7180.16,-128.83 7180.16,-121.83"/>
</g>
<!-- node_0x503000000400&#45;&gt;node_0x503000000430 -->
<g id="edge37" class="edge">
<title>node_0x503000000400&#45;&gt;node_0x503000000430</title>
<path fill="none" stroke="#ff6699" d="M7571.11,-70.67C7571.11,-70.67 7596.85,-70.67 7596.85,-70.67"/>
<polygon fill="#ff6699" stroke="#ff6699" points="7596.85,-74.17 7606.85,-70.67 7596.85,-67.17 7596.85,-74.17"/>
</g>
<!-- node_0x503000000430&#45;&gt;node_0x5030000000a0 -->
<g id="edge39" class="edge">
<title>node_0x503000000430&#45;&gt;node_0x5030000000a0</title>
<path fill="none" stroke="#ff6699" d="M7606.63,-35.83C7606.63,-35.83 375.33,-35.83 375.33,-35.83"/>
<polygon fill="#ff6699" stroke="#ff6699" points="375.33,-32.33 365.33,-35.83 375.33,-39.33 375.33,-32.33"/>
</g>
<!-- node_0x503000000430&#45;&gt;node_0x503000000400 -->
<g id="edge40" class="edge">
<title>node_0x503000000430&#45;&gt;node_0x503000000400</title>
<path fill="none" stroke="#34cb34" d="M7606.89,-93.33C7606.89,-93.33 7581.15,-93.33 7581.15,-93.33"/>
<polygon fill="#34cb34" stroke="#34cb34" points="7581.15,-89.83 7571.15,-93.33 7581.15,-96.83 7581.15,-89.83"/>
</g>
</g>
</svg>
