<?xml version="1.0" encoding="UTF-8" standalone="no"?>
<!DOCTYPE svg PUBLIC "-//W3C//DTD SVG 1.1//EN"
 "http://www.w3.org/Graphics/SVG/1.1/DTD/svg11.dtd">
<!-- Generated by graphviz version 2.43.0 (0)
 -->
<!-- Title: G Pages: 1 -->
<svg width="8782pt" height="213pt"
 viewBox="0.00 0.00 8782.00 213.00" xmlns="http://www.w3.org/2000/svg" xmlns:xlink="http://www.w3.org/1999/xlink">
<g id="graph0" class="graph" transform="scale(1 1) rotate(0) translate(4 209)">
<title>G</title>
<polygon fill="#ffd480" stroke="transparent" points="-4,4 -4,-209 8778,-209 8778,4 -4,4"/>
<text text-anchor="middle" x="4387" y="-177" font-family="DejaVu Sans" font-size="30.00" fill="#ffffff">List</text>
<!-- node_0x503000000070 -->
<g id="node1" class="node">
<title>node_0x503000000070</title>
<path fill="#ff6699" stroke="#ffe9c7" d="M12,-12C12,-12 353,-12 353,-12 359,-12 365,-18 365,-24 365,-24 365,-92 365,-92 365,-98 359,-104 353,-104 353,-104 12,-104 12,-104 6,-104 0,-98 0,-92 0,-92 0,-24 0,-24 0,-18 6,-12 12,-12"/>
<text text-anchor="middle" x="182.5" y="-88.8" font-family="Times,serif" font-size="14.00">Phantom</text>
<polyline fill="none" stroke="#ffe9c7" points="0,-81 365,-81 "/>
<text text-anchor="middle" x="182.5" y="-65.8" font-family="Times,serif" font-size="14.00">data: Phantom</text>
<polyline fill="none" stroke="#ffe9c7" points="0,-58 365,-58 "/>
<text text-anchor="middle" x="182.5" y="-42.8" font-family="Times,serif" font-size="14.00">curr: 0x503000000070</text>
<polyline fill="none" stroke="#ffe9c7" points="0,-35 365,-35 "/>
<text text-anchor="middle" x="91.5" y="-19.8" font-family="Times,serif" font-size="14.00">prev: 0x503000000460</text>
<polyline fill="none" stroke="#ffe9c7" points="183,-12 183,-35 "/>
<text text-anchor="middle" x="274" y="-19.8" font-family="Times,serif" font-size="14.00">next: 0x5030000000a0</text>
</g>
<!-- node_0x5030000000a0 -->
<g id="node2" class="node">
<title>node_0x5030000000a0</title>
<path fill="#9966ff" stroke="#ffe9c7" d="M413,-48.5C413,-48.5 754,-48.5 754,-48.5 760,-48.5 766,-54.5 766,-60.5 766,-60.5 766,-151.5 766,-151.5 766,-157.5 760,-163.5 754,-163.5 754,-163.5 413,-163.5 413,-163.5 407,-163.5 401,-157.5 401,-151.5 401,-151.5 401,-60.5 401,-60.5 401,-54.5 407,-48.5 413,-48.5"/>
<text text-anchor="middle" x="583.5" y="-148.3" font-family="Times,serif" font-size="14.00">num: 0</text>
<polyline fill="none" stroke="#ffe9c7" points="401,-140.5 766,-140.5 "/>
<text text-anchor="middle" x="583.5" y="-125.3" font-family="Times,serif" font-size="14.00">data_type: KeyWord</text>
<polyline fill="none" stroke="#ffe9c7" points="401,-117.5 766,-117.5 "/>
<text text-anchor="middle" x="583.5" y="-102.3" font-family="Times,serif" font-size="14.00">data: int</text>
<polyline fill="none" stroke="#ffe9c7" points="401,-94.5 766,-94.5 "/>
<text text-anchor="middle" x="583.5" y="-79.3" font-family="Times,serif" font-size="14.00">curr: 0x5030000000a0</text>
<polyline fill="none" stroke="#ffe9c7" points="401,-71.5 766,-71.5 "/>
<text text-anchor="middle" x="492.5" y="-56.3" font-family="Times,serif" font-size="14.00">prev: 0x503000000070</text>
<polyline fill="none" stroke="#ffe9c7" points="584,-48.5 584,-71.5 "/>
<text text-anchor="middle" x="675" y="-56.3" font-family="Times,serif" font-size="14.00">next: 0x5030000000d0</text>
</g>
<!-- node_0x503000000070&#45;&gt;node_0x5030000000a0 -->
<g id="edge1" class="edge">
<title>node_0x503000000070&#45;&gt;node_0x5030000000a0</title>
<path fill="none" stroke="#ff6699" d="M365.11,-66.83C365.11,-66.83 390.85,-66.83 390.85,-66.83"/>
<polygon fill="#ff6699" stroke="#ff6699" points="390.85,-70.33 400.85,-66.83 390.85,-63.33 390.85,-70.33"/>
</g>
<!-- node_0x503000000460 -->
<g id="node22" class="node">
<title>node_0x503000000460</title>
<path fill="#9966ff" stroke="#ffe9c7" d="M8421,-0.5C8421,-0.5 8762,-0.5 8762,-0.5 8768,-0.5 8774,-6.5 8774,-12.5 8774,-12.5 8774,-103.5 8774,-103.5 8774,-109.5 8768,-115.5 8762,-115.5 8762,-115.5 8421,-115.5 8421,-115.5 8415,-115.5 8409,-109.5 8409,-103.5 8409,-103.5 8409,-12.5 8409,-12.5 8409,-6.5 8415,-0.5 8421,-0.5"/>
<text text-anchor="middle" x="8591.5" y="-100.3" font-family="Times,serif" font-size="14.00">num: 20</text>
<polyline fill="none" stroke="#ffe9c7" points="8409,-92.5 8774,-92.5 "/>
<text text-anchor="middle" x="8591.5" y="-77.3" font-family="Times,serif" font-size="14.00">data_type: KeyWord</text>
<polyline fill="none" stroke="#ffe9c7" points="8409,-69.5 8774,-69.5 "/>
<text text-anchor="middle" x="8591.5" y="-54.3" font-family="Times,serif" font-size="14.00">data: ;</text>
<polyline fill="none" stroke="#ffe9c7" points="8409,-46.5 8774,-46.5 "/>
<text text-anchor="middle" x="8591.5" y="-31.3" font-family="Times,serif" font-size="14.00">curr: 0x503000000460</text>
<polyline fill="none" stroke="#ffe9c7" points="8409,-23.5 8774,-23.5 "/>
<text text-anchor="middle" x="8500.5" y="-8.3" font-family="Times,serif" font-size="14.00">prev: 0x503000000430</text>
<polyline fill="none" stroke="#ffe9c7" points="8592,-0.5 8592,-23.5 "/>
<text text-anchor="middle" x="8683" y="-8.3" font-family="Times,serif" font-size="14.00">next: 0x503000000070</text>
</g>
<!-- node_0x503000000070&#45;&gt;node_0x503000000460 -->
<g id="edge2" class="edge">
<title>node_0x503000000070&#45;&gt;node_0x503000000460</title>
<path fill="none" stroke="#34cb34" d="M365.46,-23.67C365.46,-23.67 8398.62,-23.67 8398.62,-23.67"/>
<polygon fill="#34cb34" stroke="#34cb34" points="8398.62,-27.17 8408.62,-23.67 8398.62,-20.17 8398.62,-27.17"/>
</g>
<!-- node_0x5030000000a0&#45;&gt;node_0x503000000070 -->
<g id="edge4" class="edge">
<title>node_0x5030000000a0&#45;&gt;node_0x503000000070</title>
<path fill="none" stroke="#34cb34" d="M400.89,-85.67C400.89,-85.67 375.15,-85.67 375.15,-85.67"/>
<polygon fill="#34cb34" stroke="#34cb34" points="375.15,-82.17 365.15,-85.67 375.15,-89.17 375.15,-82.17"/>
</g>
<!-- node_0x5030000000d0 -->
<g id="node3" class="node">
<title>node_0x5030000000d0</title>
<path fill="#34cb34" stroke="#ffe9c7" d="M814,-48.5C814,-48.5 1154,-48.5 1154,-48.5 1160,-48.5 1166,-54.5 1166,-60.5 1166,-60.5 1166,-151.5 1166,-151.5 1166,-157.5 1160,-163.5 1154,-163.5 1154,-163.5 814,-163.5 814,-163.5 808,-163.5 802,-157.5 802,-151.5 802,-151.5 802,-60.5 802,-60.5 802,-54.5 808,-48.5 814,-48.5"/>
<text text-anchor="middle" x="984" y="-148.3" font-family="Times,serif" font-size="14.00">num: 1</text>
<polyline fill="none" stroke="#ffe9c7" points="802,-140.5 1166,-140.5 "/>
<text text-anchor="middle" x="984" y="-125.3" font-family="Times,serif" font-size="14.00">data_type: Identifier</text>
<polyline fill="none" stroke="#ffe9c7" points="802,-117.5 1166,-117.5 "/>
<text text-anchor="middle" x="984" y="-102.3" font-family="Times,serif" font-size="14.00">data: main</text>
<polyline fill="none" stroke="#ffe9c7" points="802,-94.5 1166,-94.5 "/>
<text text-anchor="middle" x="984" y="-79.3" font-family="Times,serif" font-size="14.00">curr: 0x5030000000d0</text>
<polyline fill="none" stroke="#ffe9c7" points="802,-71.5 1166,-71.5 "/>
<text text-anchor="middle" x="893" y="-56.3" font-family="Times,serif" font-size="14.00">prev: 0x5030000000a0</text>
<polyline fill="none" stroke="#ffe9c7" points="984,-48.5 984,-71.5 "/>
<text text-anchor="middle" x="1075" y="-56.3" font-family="Times,serif" font-size="14.00">next: 0x503000000100</text>
</g>
<!-- node_0x5030000000a0&#45;&gt;node_0x5030000000d0 -->
<g id="edge3" class="edge">
<title>node_0x5030000000a0&#45;&gt;node_0x5030000000d0</title>
<path fill="none" stroke="#ff6699" d="M766.17,-86.67C766.17,-86.67 791.84,-86.67 791.84,-86.67"/>
<polygon fill="#ff6699" stroke="#ff6699" points="791.84,-90.17 801.84,-86.67 791.84,-83.17 791.84,-90.17"/>
</g>
<!-- node_0x5030000000d0&#45;&gt;node_0x5030000000a0 -->
<g id="edge6" class="edge">
<title>node_0x5030000000d0&#45;&gt;node_0x5030000000a0</title>
<path fill="none" stroke="#34cb34" d="M801.91,-125.33C801.91,-125.33 776.18,-125.33 776.18,-125.33"/>
<polygon fill="#34cb34" stroke="#34cb34" points="776.18,-121.83 766.18,-125.33 776.18,-128.83 776.18,-121.83"/>
</g>
<!-- node_0x503000000100 -->
<g id="node4" class="node">
<title>node_0x503000000100</title>
<path fill="#9966ff" stroke="#ffe9c7" d="M1214,-48.5C1214,-48.5 1555,-48.5 1555,-48.5 1561,-48.5 1567,-54.5 1567,-60.5 1567,-60.5 1567,-151.5 1567,-151.5 1567,-157.5 1561,-163.5 1555,-163.5 1555,-163.5 1214,-163.5 1214,-163.5 1208,-163.5 1202,-157.5 1202,-151.5 1202,-151.5 1202,-60.5 1202,-60.5 1202,-54.5 1208,-48.5 1214,-48.5"/>
<text text-anchor="middle" x="1384.5" y="-148.3" font-family="Times,serif" font-size="14.00">num: 2</text>
<polyline fill="none" stroke="#ffe9c7" points="1202,-140.5 1567,-140.5 "/>
<text text-anchor="middle" x="1384.5" y="-125.3" font-family="Times,serif" font-size="14.00">data_type: KeyWord</text>
<polyline fill="none" stroke="#ffe9c7" points="1202,-117.5 1567,-117.5 "/>
<text text-anchor="middle" x="1384.5" y="-102.3" font-family="Times,serif" font-size="14.00">data: (</text>
<polyline fill="none" stroke="#ffe9c7" points="1202,-94.5 1567,-94.5 "/>
<text text-anchor="middle" x="1384.5" y="-79.3" font-family="Times,serif" font-size="14.00">curr: 0x503000000100</text>
<polyline fill="none" stroke="#ffe9c7" points="1202,-71.5 1567,-71.5 "/>
<text text-anchor="middle" x="1293.5" y="-56.3" font-family="Times,serif" font-size="14.00">prev: 0x5030000000d0</text>
<polyline fill="none" stroke="#ffe9c7" points="1385,-48.5 1385,-71.5 "/>
<text text-anchor="middle" x="1476" y="-56.3" font-family="Times,serif" font-size="14.00">next: 0x503000000130</text>
</g>
<!-- node_0x5030000000d0&#45;&gt;node_0x503000000100 -->
<g id="edge5" class="edge">
<title>node_0x5030000000d0&#45;&gt;node_0x503000000100</title>
<path fill="none" stroke="#ff6699" d="M1166.09,-86.67C1166.09,-86.67 1191.82,-86.67 1191.82,-86.67"/>
<polygon fill="#ff6699" stroke="#ff6699" points="1191.82,-90.17 1201.82,-86.67 1191.82,-83.17 1191.82,-90.17"/>
</g>
<!-- node_0x503000000100&#45;&gt;node_0x5030000000d0 -->
<g id="edge8" class="edge">
<title>node_0x503000000100&#45;&gt;node_0x5030000000d0</title>
<path fill="none" stroke="#34cb34" d="M1201.83,-125.33C1201.83,-125.33 1176.16,-125.33 1176.16,-125.33"/>
<polygon fill="#34cb34" stroke="#34cb34" points="1176.16,-121.83 1166.16,-125.33 1176.16,-128.83 1176.16,-121.83"/>
</g>
<!-- node_0x503000000130 -->
<g id="node5" class="node">
<title>node_0x503000000130</title>
<path fill="#9966ff" stroke="#ffe9c7" d="M1615,-48.5C1615,-48.5 1956,-48.5 1956,-48.5 1962,-48.5 1968,-54.5 1968,-60.5 1968,-60.5 1968,-151.5 1968,-151.5 1968,-157.5 1962,-163.5 1956,-163.5 1956,-163.5 1615,-163.5 1615,-163.5 1609,-163.5 1603,-157.5 1603,-151.5 1603,-151.5 1603,-60.5 1603,-60.5 1603,-54.5 1609,-48.5 1615,-48.5"/>
<text text-anchor="middle" x="1785.5" y="-148.3" font-family="Times,serif" font-size="14.00">num: 3</text>
<polyline fill="none" stroke="#ffe9c7" points="1603,-140.5 1968,-140.5 "/>
<text text-anchor="middle" x="1785.5" y="-125.3" font-family="Times,serif" font-size="14.00">data_type: KeyWord</text>
<polyline fill="none" stroke="#ffe9c7" points="1603,-117.5 1968,-117.5 "/>
<text text-anchor="middle" x="1785.5" y="-102.3" font-family="Times,serif" font-size="14.00">data: int</text>
<polyline fill="none" stroke="#ffe9c7" points="1603,-94.5 1968,-94.5 "/>
<text text-anchor="middle" x="1785.5" y="-79.3" font-family="Times,serif" font-size="14.00">curr: 0x503000000130</text>
<polyline fill="none" stroke="#ffe9c7" points="1603,-71.5 1968,-71.5 "/>
<text text-anchor="middle" x="1694.5" y="-56.3" font-family="Times,serif" font-size="14.00">prev: 0x503000000100</text>
<polyline fill="none" stroke="#ffe9c7" points="1786,-48.5 1786,-71.5 "/>
<text text-anchor="middle" x="1877" y="-56.3" font-family="Times,serif" font-size="14.00">next: 0x503000000160</text>
</g>
<!-- node_0x503000000100&#45;&gt;node_0x503000000130 -->
<g id="edge7" class="edge">
<title>node_0x503000000100&#45;&gt;node_0x503000000130</title>
<path fill="none" stroke="#ff6699" d="M1567.11,-86.67C1567.11,-86.67 1592.85,-86.67 1592.85,-86.67"/>
<polygon fill="#ff6699" stroke="#ff6699" points="1592.85,-90.17 1602.85,-86.67 1592.85,-83.17 1592.85,-90.17"/>
</g>
<!-- node_0x503000000130&#45;&gt;node_0x503000000100 -->
<g id="edge10" class="edge">
<title>node_0x503000000130&#45;&gt;node_0x503000000100</title>
<path fill="none" stroke="#34cb34" d="M1602.89,-125.33C1602.89,-125.33 1577.15,-125.33 1577.15,-125.33"/>
<polygon fill="#34cb34" stroke="#34cb34" points="1577.15,-121.83 1567.15,-125.33 1577.15,-128.83 1577.15,-121.83"/>
</g>
<!-- node_0x503000000160 -->
<g id="node6" class="node">
<title>node_0x503000000160</title>
<path fill="#34cb34" stroke="#ffe9c7" d="M2016,-48.5C2016,-48.5 2357,-48.5 2357,-48.5 2363,-48.5 2369,-54.5 2369,-60.5 2369,-60.5 2369,-151.5 2369,-151.5 2369,-157.5 2363,-163.5 2357,-163.5 2357,-163.5 2016,-163.5 2016,-163.5 2010,-163.5 2004,-157.5 2004,-151.5 2004,-151.5 2004,-60.5 2004,-60.5 2004,-54.5 2010,-48.5 2016,-48.5"/>
<text text-anchor="middle" x="2186.5" y="-148.3" font-family="Times,serif" font-size="14.00">num: 4</text>
<polyline fill="none" stroke="#ffe9c7" points="2004,-140.5 2369,-140.5 "/>
<text text-anchor="middle" x="2186.5" y="-125.3" font-family="Times,serif" font-size="14.00">data_type: Identifier</text>
<polyline fill="none" stroke="#ffe9c7" points="2004,-117.5 2369,-117.5 "/>
<text text-anchor="middle" x="2186.5" y="-102.3" font-family="Times,serif" font-size="14.00">data: one</text>
<polyline fill="none" stroke="#ffe9c7" points="2004,-94.5 2369,-94.5 "/>
<text text-anchor="middle" x="2186.5" y="-79.3" font-family="Times,serif" font-size="14.00">curr: 0x503000000160</text>
<polyline fill="none" stroke="#ffe9c7" points="2004,-71.5 2369,-71.5 "/>
<text text-anchor="middle" x="2095.5" y="-56.3" font-family="Times,serif" font-size="14.00">prev: 0x503000000130</text>
<polyline fill="none" stroke="#ffe9c7" points="2187,-48.5 2187,-71.5 "/>
<text text-anchor="middle" x="2278" y="-56.3" font-family="Times,serif" font-size="14.00">next: 0x503000000190</text>
</g>
<!-- node_0x503000000130&#45;&gt;node_0x503000000160 -->
<g id="edge9" class="edge">
<title>node_0x503000000130&#45;&gt;node_0x503000000160</title>
<path fill="none" stroke="#ff6699" d="M1968.11,-86.67C1968.11,-86.67 1993.85,-86.67 1993.85,-86.67"/>
<polygon fill="#ff6699" stroke="#ff6699" points="1993.85,-90.17 2003.85,-86.67 1993.85,-83.17 1993.85,-90.17"/>
</g>
<!-- node_0x503000000160&#45;&gt;node_0x503000000130 -->
<g id="edge12" class="edge">
<title>node_0x503000000160&#45;&gt;node_0x503000000130</title>
<path fill="none" stroke="#34cb34" d="M2003.89,-125.33C2003.89,-125.33 1978.15,-125.33 1978.15,-125.33"/>
<polygon fill="#34cb34" stroke="#34cb34" points="1978.15,-121.83 1968.15,-125.33 1978.15,-128.83 1978.15,-121.83"/>
</g>
<!-- node_0x503000000190 -->
<g id="node7" class="node">
<title>node_0x503000000190</title>
<path fill="#9966ff" stroke="#ffe9c7" d="M2417,-48.5C2417,-48.5 2757,-48.5 2757,-48.5 2763,-48.5 2769,-54.5 2769,-60.5 2769,-60.5 2769,-151.5 2769,-151.5 2769,-157.5 2763,-163.5 2757,-163.5 2757,-163.5 2417,-163.5 2417,-163.5 2411,-163.5 2405,-157.5 2405,-151.5 2405,-151.5 2405,-60.5 2405,-60.5 2405,-54.5 2411,-48.5 2417,-48.5"/>
<text text-anchor="middle" x="2587" y="-148.3" font-family="Times,serif" font-size="14.00">num: 5</text>
<polyline fill="none" stroke="#ffe9c7" points="2405,-140.5 2769,-140.5 "/>
<text text-anchor="middle" x="2587" y="-125.3" font-family="Times,serif" font-size="14.00">data_type: KeyWord</text>
<polyline fill="none" stroke="#ffe9c7" points="2405,-117.5 2769,-117.5 "/>
<text text-anchor="middle" x="2587" y="-102.3" font-family="Times,serif" font-size="14.00">data: ,</text>
<polyline fill="none" stroke="#ffe9c7" points="2405,-94.5 2769,-94.5 "/>
<text text-anchor="middle" x="2587" y="-79.3" font-family="Times,serif" font-size="14.00">curr: 0x503000000190</text>
<polyline fill="none" stroke="#ffe9c7" points="2405,-71.5 2769,-71.5 "/>
<text text-anchor="middle" x="2496.5" y="-56.3" font-family="Times,serif" font-size="14.00">prev: 0x503000000160</text>
<polyline fill="none" stroke="#ffe9c7" points="2588,-48.5 2588,-71.5 "/>
<text text-anchor="middle" x="2678.5" y="-56.3" font-family="Times,serif" font-size="14.00">next: 0x5030000001c0</text>
</g>
<!-- node_0x503000000160&#45;&gt;node_0x503000000190 -->
<g id="edge11" class="edge">
<title>node_0x503000000160&#45;&gt;node_0x503000000190</title>
<path fill="none" stroke="#ff6699" d="M2369.17,-86.67C2369.17,-86.67 2394.84,-86.67 2394.84,-86.67"/>
<polygon fill="#ff6699" stroke="#ff6699" points="2394.84,-90.17 2404.84,-86.67 2394.84,-83.17 2394.84,-90.17"/>
</g>
<!-- node_0x503000000190&#45;&gt;node_0x503000000160 -->
<g id="edge14" class="edge">
<title>node_0x503000000190&#45;&gt;node_0x503000000160</title>
<path fill="none" stroke="#34cb34" d="M2404.91,-125.33C2404.91,-125.33 2379.18,-125.33 2379.18,-125.33"/>
<polygon fill="#34cb34" stroke="#34cb34" points="2379.18,-121.83 2369.18,-125.33 2379.18,-128.83 2379.18,-121.83"/>
</g>
<!-- node_0x5030000001c0 -->
<g id="node8" class="node">
<title>node_0x5030000001c0</title>
<path fill="#9966ff" stroke="#ffe9c7" d="M2817,-48.5C2817,-48.5 3155,-48.5 3155,-48.5 3161,-48.5 3167,-54.5 3167,-60.5 3167,-60.5 3167,-151.5 3167,-151.5 3167,-157.5 3161,-163.5 3155,-163.5 3155,-163.5 2817,-163.5 2817,-163.5 2811,-163.5 2805,-157.5 2805,-151.5 2805,-151.5 2805,-60.5 2805,-60.5 2805,-54.5 2811,-48.5 2817,-48.5"/>
<text text-anchor="middle" x="2986" y="-148.3" font-family="Times,serif" font-size="14.00">num: 6</text>
<polyline fill="none" stroke="#ffe9c7" points="2805,-140.5 3167,-140.5 "/>
<text text-anchor="middle" x="2986" y="-125.3" font-family="Times,serif" font-size="14.00">data_type: KeyWord</text>
<polyline fill="none" stroke="#ffe9c7" points="2805,-117.5 3167,-117.5 "/>
<text text-anchor="middle" x="2986" y="-102.3" font-family="Times,serif" font-size="14.00">data: int</text>
<polyline fill="none" stroke="#ffe9c7" points="2805,-94.5 3167,-94.5 "/>
<text text-anchor="middle" x="2986" y="-79.3" font-family="Times,serif" font-size="14.00">curr: 0x5030000001c0</text>
<polyline fill="none" stroke="#ffe9c7" points="2805,-71.5 3167,-71.5 "/>
<text text-anchor="middle" x="2896.5" y="-56.3" font-family="Times,serif" font-size="14.00">prev: 0x503000000190</text>
<polyline fill="none" stroke="#ffe9c7" points="2988,-48.5 2988,-71.5 "/>
<text text-anchor="middle" x="3077.5" y="-56.3" font-family="Times,serif" font-size="14.00">next: 0x5030000001f0</text>
</g>
<!-- node_0x503000000190&#45;&gt;node_0x5030000001c0 -->
<g id="edge13" class="edge">
<title>node_0x503000000190&#45;&gt;node_0x5030000001c0</title>
<path fill="none" stroke="#ff6699" d="M2769.28,-86.67C2769.28,-86.67 2794.78,-86.67 2794.78,-86.67"/>
<polygon fill="#ff6699" stroke="#ff6699" points="2794.78,-90.17 2804.78,-86.67 2794.78,-83.17 2794.78,-90.17"/>
</g>
<!-- node_0x5030000001c0&#45;&gt;node_0x503000000190 -->
<g id="edge16" class="edge">
<title>node_0x5030000001c0&#45;&gt;node_0x503000000190</title>
<path fill="none" stroke="#34cb34" d="M2804.89,-125.33C2804.89,-125.33 2779.26,-125.33 2779.26,-125.33"/>
<polygon fill="#34cb34" stroke="#34cb34" points="2779.26,-121.83 2769.26,-125.33 2779.26,-128.83 2779.26,-121.83"/>
</g>
<!-- node_0x5030000001f0 -->
<g id="node9" class="node">
<title>node_0x5030000001f0</title>
<path fill="#34cb34" stroke="#ffe9c7" d="M3215,-48.5C3215,-48.5 3555,-48.5 3555,-48.5 3561,-48.5 3567,-54.5 3567,-60.5 3567,-60.5 3567,-151.5 3567,-151.5 3567,-157.5 3561,-163.5 3555,-163.5 3555,-163.5 3215,-163.5 3215,-163.5 3209,-163.5 3203,-157.5 3203,-151.5 3203,-151.5 3203,-60.5 3203,-60.5 3203,-54.5 3209,-48.5 3215,-48.5"/>
<text text-anchor="middle" x="3385" y="-148.3" font-family="Times,serif" font-size="14.00">num: 7</text>
<polyline fill="none" stroke="#ffe9c7" points="3203,-140.5 3567,-140.5 "/>
<text text-anchor="middle" x="3385" y="-125.3" font-family="Times,serif" font-size="14.00">data_type: Identifier</text>
<polyline fill="none" stroke="#ffe9c7" points="3203,-117.5 3567,-117.5 "/>
<text text-anchor="middle" x="3385" y="-102.3" font-family="Times,serif" font-size="14.00">data: one</text>
<polyline fill="none" stroke="#ffe9c7" points="3203,-94.5 3567,-94.5 "/>
<text text-anchor="middle" x="3385" y="-79.3" font-family="Times,serif" font-size="14.00">curr: 0x5030000001f0</text>
<polyline fill="none" stroke="#ffe9c7" points="3203,-71.5 3567,-71.5 "/>
<text text-anchor="middle" x="3294" y="-56.3" font-family="Times,serif" font-size="14.00">prev: 0x5030000001c0</text>
<polyline fill="none" stroke="#ffe9c7" points="3385,-48.5 3385,-71.5 "/>
<text text-anchor="middle" x="3476" y="-56.3" font-family="Times,serif" font-size="14.00">next: 0x503000000220</text>
</g>
<!-- node_0x5030000001c0&#45;&gt;node_0x5030000001f0 -->
<g id="edge15" class="edge">
<title>node_0x5030000001c0&#45;&gt;node_0x5030000001f0</title>
<path fill="none" stroke="#ff6699" d="M3167.11,-86.67C3167.11,-86.67 3192.74,-86.67 3192.74,-86.67"/>
<polygon fill="#ff6699" stroke="#ff6699" points="3192.74,-90.17 3202.74,-86.67 3192.74,-83.17 3192.74,-90.17"/>
</g>
<!-- node_0x5030000001f0&#45;&gt;node_0x5030000001c0 -->
<g id="edge18" class="edge">
<title>node_0x5030000001f0&#45;&gt;node_0x5030000001c0</title>
<path fill="none" stroke="#34cb34" d="M3202.72,-125.33C3202.72,-125.33 3177.22,-125.33 3177.22,-125.33"/>
<polygon fill="#34cb34" stroke="#34cb34" points="3177.22,-121.83 3167.22,-125.33 3177.22,-128.83 3177.22,-121.83"/>
</g>
<!-- node_0x503000000220 -->
<g id="node10" class="node">
<title>node_0x503000000220</title>
<path fill="#9966ff" stroke="#ffe9c7" d="M3615,-48.5C3615,-48.5 3952,-48.5 3952,-48.5 3958,-48.5 3964,-54.5 3964,-60.5 3964,-60.5 3964,-151.5 3964,-151.5 3964,-157.5 3958,-163.5 3952,-163.5 3952,-163.5 3615,-163.5 3615,-163.5 3609,-163.5 3603,-157.5 3603,-151.5 3603,-151.5 3603,-60.5 3603,-60.5 3603,-54.5 3609,-48.5 3615,-48.5"/>
<text text-anchor="middle" x="3783.5" y="-148.3" font-family="Times,serif" font-size="14.00">num: 8</text>
<polyline fill="none" stroke="#ffe9c7" points="3603,-140.5 3964,-140.5 "/>
<text text-anchor="middle" x="3783.5" y="-125.3" font-family="Times,serif" font-size="14.00">data_type: KeyWord</text>
<polyline fill="none" stroke="#ffe9c7" points="3603,-117.5 3964,-117.5 "/>
<text text-anchor="middle" x="3783.5" y="-102.3" font-family="Times,serif" font-size="14.00">data: )</text>
<polyline fill="none" stroke="#ffe9c7" points="3603,-94.5 3964,-94.5 "/>
<text text-anchor="middle" x="3783.5" y="-79.3" font-family="Times,serif" font-size="14.00">curr: 0x503000000220</text>
<polyline fill="none" stroke="#ffe9c7" points="3603,-71.5 3964,-71.5 "/>
<text text-anchor="middle" x="3692.5" y="-56.3" font-family="Times,serif" font-size="14.00">prev: 0x5030000001f0</text>
<polyline fill="none" stroke="#ffe9c7" points="3782,-48.5 3782,-71.5 "/>
<text text-anchor="middle" x="3873" y="-56.3" font-family="Times,serif" font-size="14.00">next: 0x503000000250</text>
</g>
<!-- node_0x5030000001f0&#45;&gt;node_0x503000000220 -->
<g id="edge17" class="edge">
<title>node_0x5030000001f0&#45;&gt;node_0x503000000220</title>
<path fill="none" stroke="#ff6699" d="M3567.05,-86.67C3567.05,-86.67 3592.81,-86.67 3592.81,-86.67"/>
<polygon fill="#ff6699" stroke="#ff6699" points="3592.81,-90.17 3602.81,-86.67 3592.81,-83.17 3592.81,-90.17"/>
</g>
<!-- node_0x503000000220&#45;&gt;node_0x5030000001f0 -->
<g id="edge20" class="edge">
<title>node_0x503000000220&#45;&gt;node_0x5030000001f0</title>
<path fill="none" stroke="#34cb34" d="M3602.91,-125.33C3602.91,-125.33 3577.29,-125.33 3577.29,-125.33"/>
<polygon fill="#34cb34" stroke="#34cb34" points="3577.29,-121.83 3567.29,-125.33 3577.29,-128.83 3577.29,-121.83"/>
</g>
<!-- node_0x503000000250 -->
<g id="node11" class="node">
<title>node_0x503000000250</title>
<path fill="#9966ff" stroke="#ffe9c7" d="M4012,-48.5C4012,-48.5 4353,-48.5 4353,-48.5 4359,-48.5 4365,-54.5 4365,-60.5 4365,-60.5 4365,-151.5 4365,-151.5 4365,-157.5 4359,-163.5 4353,-163.5 4353,-163.5 4012,-163.5 4012,-163.5 4006,-163.5 4000,-157.5 4000,-151.5 4000,-151.5 4000,-60.5 4000,-60.5 4000,-54.5 4006,-48.5 4012,-48.5"/>
<text text-anchor="middle" x="4182.5" y="-148.3" font-family="Times,serif" font-size="14.00">num: 9</text>
<polyline fill="none" stroke="#ffe9c7" points="4000,-140.5 4365,-140.5 "/>
<text text-anchor="middle" x="4182.5" y="-125.3" font-family="Times,serif" font-size="14.00">data_type: KeyWord</text>
<polyline fill="none" stroke="#ffe9c7" points="4000,-117.5 4365,-117.5 "/>
<text text-anchor="middle" x="4182.5" y="-102.3" font-family="Times,serif" font-size="14.00">data: int</text>
<polyline fill="none" stroke="#ffe9c7" points="4000,-94.5 4365,-94.5 "/>
<text text-anchor="middle" x="4182.5" y="-79.3" font-family="Times,serif" font-size="14.00">curr: 0x503000000250</text>
<polyline fill="none" stroke="#ffe9c7" points="4000,-71.5 4365,-71.5 "/>
<text text-anchor="middle" x="4091.5" y="-56.3" font-family="Times,serif" font-size="14.00">prev: 0x503000000220</text>
<polyline fill="none" stroke="#ffe9c7" points="4183,-48.5 4183,-71.5 "/>
<text text-anchor="middle" x="4274" y="-56.3" font-family="Times,serif" font-size="14.00">next: 0x503000000280</text>
</g>
<!-- node_0x503000000220&#45;&gt;node_0x503000000250 -->
<g id="edge19" class="edge">
<title>node_0x503000000220&#45;&gt;node_0x503000000250</title>
<path fill="none" stroke="#ff6699" d="M3964.03,-86.67C3964.03,-86.67 3989.73,-86.67 3989.73,-86.67"/>
<polygon fill="#ff6699" stroke="#ff6699" points="3989.73,-90.17 3999.73,-86.67 3989.73,-83.17 3989.73,-90.17"/>
</g>
<!-- node_0x503000000250&#45;&gt;node_0x503000000220 -->
<g id="edge22" class="edge">
<title>node_0x503000000250&#45;&gt;node_0x503000000220</title>
<path fill="none" stroke="#34cb34" d="M3999.93,-125.33C3999.93,-125.33 3974.16,-125.33 3974.16,-125.33"/>
<polygon fill="#34cb34" stroke="#34cb34" points="3974.16,-121.83 3964.16,-125.33 3974.16,-128.83 3974.16,-121.83"/>
</g>
<!-- node_0x503000000280 -->
<g id="node12" class="node">
<title>node_0x503000000280</title>
<path fill="#34cb34" stroke="#ffe9c7" d="M4413,-48.5C4413,-48.5 4754,-48.5 4754,-48.5 4760,-48.5 4766,-54.5 4766,-60.5 4766,-60.5 4766,-151.5 4766,-151.5 4766,-157.5 4760,-163.5 4754,-163.5 4754,-163.5 4413,-163.5 4413,-163.5 4407,-163.5 4401,-157.5 4401,-151.5 4401,-151.5 4401,-60.5 4401,-60.5 4401,-54.5 4407,-48.5 4413,-48.5"/>
<text text-anchor="middle" x="4583.5" y="-148.3" font-family="Times,serif" font-size="14.00">num: 10</text>
<polyline fill="none" stroke="#ffe9c7" points="4401,-140.5 4766,-140.5 "/>
<text text-anchor="middle" x="4583.5" y="-125.3" font-family="Times,serif" font-size="14.00">data_type: Identifier</text>
<polyline fill="none" stroke="#ffe9c7" points="4401,-117.5 4766,-117.5 "/>
<text text-anchor="middle" x="4583.5" y="-102.3" font-family="Times,serif" font-size="14.00">data: second</text>
<polyline fill="none" stroke="#ffe9c7" points="4401,-94.5 4766,-94.5 "/>
<text text-anchor="middle" x="4583.5" y="-79.3" font-family="Times,serif" font-size="14.00">curr: 0x503000000280</text>
<polyline fill="none" stroke="#ffe9c7" points="4401,-71.5 4766,-71.5 "/>
<text text-anchor="middle" x="4492.5" y="-56.3" font-family="Times,serif" font-size="14.00">prev: 0x503000000250</text>
<polyline fill="none" stroke="#ffe9c7" points="4584,-48.5 4584,-71.5 "/>
<text text-anchor="middle" x="4675" y="-56.3" font-family="Times,serif" font-size="14.00">next: 0x5030000002b0</text>
</g>
<!-- node_0x503000000250&#45;&gt;node_0x503000000280 -->
<g id="edge21" class="edge">
<title>node_0x503000000250&#45;&gt;node_0x503000000280</title>
<path fill="none" stroke="#ff6699" d="M4365.11,-86.67C4365.11,-86.67 4390.85,-86.67 4390.85,-86.67"/>
<polygon fill="#ff6699" stroke="#ff6699" points="4390.85,-90.17 4400.85,-86.67 4390.85,-83.17 4390.85,-90.17"/>
</g>
<!-- node_0x503000000280&#45;&gt;node_0x503000000250 -->
<g id="edge24" class="edge">
<title>node_0x503000000280&#45;&gt;node_0x503000000250</title>
<path fill="none" stroke="#34cb34" d="M4400.89,-125.33C4400.89,-125.33 4375.15,-125.33 4375.15,-125.33"/>
<polygon fill="#34cb34" stroke="#34cb34" points="4375.15,-121.83 4365.15,-125.33 4375.15,-128.83 4375.15,-121.83"/>
</g>
<!-- node_0x5030000002b0 -->
<g id="node13" class="node">
<title>node_0x5030000002b0</title>
<path fill="#9966ff" stroke="#ffe9c7" d="M4814,-48.5C4814,-48.5 5155,-48.5 5155,-48.5 5161,-48.5 5167,-54.5 5167,-60.5 5167,-60.5 5167,-151.5 5167,-151.5 5167,-157.5 5161,-163.5 5155,-163.5 5155,-163.5 4814,-163.5 4814,-163.5 4808,-163.5 4802,-157.5 4802,-151.5 4802,-151.5 4802,-60.5 4802,-60.5 4802,-54.5 4808,-48.5 4814,-48.5"/>
<text text-anchor="middle" x="4984.5" y="-148.3" font-family="Times,serif" font-size="14.00">num: 11</text>
<polyline fill="none" stroke="#ffe9c7" points="4802,-140.5 5167,-140.5 "/>
<text text-anchor="middle" x="4984.5" y="-125.3" font-family="Times,serif" font-size="14.00">data_type: KeyWord</text>
<polyline fill="none" stroke="#ffe9c7" points="4802,-117.5 5167,-117.5 "/>
<text text-anchor="middle" x="4984.5" y="-102.3" font-family="Times,serif" font-size="14.00">data: (</text>
<polyline fill="none" stroke="#ffe9c7" points="4802,-94.5 5167,-94.5 "/>
<text text-anchor="middle" x="4984.5" y="-79.3" font-family="Times,serif" font-size="14.00">curr: 0x5030000002b0</text>
<polyline fill="none" stroke="#ffe9c7" points="4802,-71.5 5167,-71.5 "/>
<text text-anchor="middle" x="4893.5" y="-56.3" font-family="Times,serif" font-size="14.00">prev: 0x503000000280</text>
<polyline fill="none" stroke="#ffe9c7" points="4985,-48.5 4985,-71.5 "/>
<text text-anchor="middle" x="5076" y="-56.3" font-family="Times,serif" font-size="14.00">next: 0x5030000002e0</text>
</g>
<!-- node_0x503000000280&#45;&gt;node_0x5030000002b0 -->
<g id="edge23" class="edge">
<title>node_0x503000000280&#45;&gt;node_0x5030000002b0</title>
<path fill="none" stroke="#ff6699" d="M4766.11,-86.67C4766.11,-86.67 4791.85,-86.67 4791.85,-86.67"/>
<polygon fill="#ff6699" stroke="#ff6699" points="4791.85,-90.17 4801.85,-86.67 4791.85,-83.17 4791.85,-90.17"/>
</g>
<!-- node_0x5030000002b0&#45;&gt;node_0x503000000280 -->
<g id="edge26" class="edge">
<title>node_0x5030000002b0&#45;&gt;node_0x503000000280</title>
<path fill="none" stroke="#34cb34" d="M4801.89,-125.33C4801.89,-125.33 4776.15,-125.33 4776.15,-125.33"/>
<polygon fill="#34cb34" stroke="#34cb34" points="4776.15,-121.83 4766.15,-125.33 4776.15,-128.83 4776.15,-121.83"/>
</g>
<!-- node_0x5030000002e0 -->
<g id="node14" class="node">
<title>node_0x5030000002e0</title>
<path fill="#9966ff" stroke="#ffe9c7" d="M5215,-48.5C5215,-48.5 5556,-48.5 5556,-48.5 5562,-48.5 5568,-54.5 5568,-60.5 5568,-60.5 5568,-151.5 5568,-151.5 5568,-157.5 5562,-163.5 5556,-163.5 5556,-163.5 5215,-163.5 5215,-163.5 5209,-163.5 5203,-157.5 5203,-151.5 5203,-151.5 5203,-60.5 5203,-60.5 5203,-54.5 5209,-48.5 5215,-48.5"/>
<text text-anchor="middle" x="5385.5" y="-148.3" font-family="Times,serif" font-size="14.00">num: 12</text>
<polyline fill="none" stroke="#ffe9c7" points="5203,-140.5 5568,-140.5 "/>
<text text-anchor="middle" x="5385.5" y="-125.3" font-family="Times,serif" font-size="14.00">data_type: KeyWord</text>
<polyline fill="none" stroke="#ffe9c7" points="5203,-117.5 5568,-117.5 "/>
<text text-anchor="middle" x="5385.5" y="-102.3" font-family="Times,serif" font-size="14.00">data: int</text>
<polyline fill="none" stroke="#ffe9c7" points="5203,-94.5 5568,-94.5 "/>
<text text-anchor="middle" x="5385.5" y="-79.3" font-family="Times,serif" font-size="14.00">curr: 0x5030000002e0</text>
<polyline fill="none" stroke="#ffe9c7" points="5203,-71.5 5568,-71.5 "/>
<text text-anchor="middle" x="5294.5" y="-56.3" font-family="Times,serif" font-size="14.00">prev: 0x5030000002b0</text>
<polyline fill="none" stroke="#ffe9c7" points="5386,-48.5 5386,-71.5 "/>
<text text-anchor="middle" x="5477" y="-56.3" font-family="Times,serif" font-size="14.00">next: 0x503000000310</text>
</g>
<!-- node_0x5030000002b0&#45;&gt;node_0x5030000002e0 -->
<g id="edge25" class="edge">
<title>node_0x5030000002b0&#45;&gt;node_0x5030000002e0</title>
<path fill="none" stroke="#ff6699" d="M5167.11,-86.67C5167.11,-86.67 5192.85,-86.67 5192.85,-86.67"/>
<polygon fill="#ff6699" stroke="#ff6699" points="5192.85,-90.17 5202.85,-86.67 5192.85,-83.17 5192.85,-90.17"/>
</g>
<!-- node_0x5030000002e0&#45;&gt;node_0x5030000002b0 -->
<g id="edge28" class="edge">
<title>node_0x5030000002e0&#45;&gt;node_0x5030000002b0</title>
<path fill="none" stroke="#34cb34" d="M5202.89,-125.33C5202.89,-125.33 5177.15,-125.33 5177.15,-125.33"/>
<polygon fill="#34cb34" stroke="#34cb34" points="5177.15,-121.83 5167.15,-125.33 5177.15,-128.83 5177.15,-121.83"/>
</g>
<!-- node_0x503000000310 -->
<g id="node15" class="node">
<title>node_0x503000000310</title>
<path fill="#34cb34" stroke="#ffe9c7" d="M5616,-48.5C5616,-48.5 5956,-48.5 5956,-48.5 5962,-48.5 5968,-54.5 5968,-60.5 5968,-60.5 5968,-151.5 5968,-151.5 5968,-157.5 5962,-163.5 5956,-163.5 5956,-163.5 5616,-163.5 5616,-163.5 5610,-163.5 5604,-157.5 5604,-151.5 5604,-151.5 5604,-60.5 5604,-60.5 5604,-54.5 5610,-48.5 5616,-48.5"/>
<text text-anchor="middle" x="5786" y="-148.3" font-family="Times,serif" font-size="14.00">num: 13</text>
<polyline fill="none" stroke="#ffe9c7" points="5604,-140.5 5968,-140.5 "/>
<text text-anchor="middle" x="5786" y="-125.3" font-family="Times,serif" font-size="14.00">data_type: Identifier</text>
<polyline fill="none" stroke="#ffe9c7" points="5604,-117.5 5968,-117.5 "/>
<text text-anchor="middle" x="5786" y="-102.3" font-family="Times,serif" font-size="14.00">data: one</text>
<polyline fill="none" stroke="#ffe9c7" points="5604,-94.5 5968,-94.5 "/>
<text text-anchor="middle" x="5786" y="-79.3" font-family="Times,serif" font-size="14.00">curr: 0x503000000310</text>
<polyline fill="none" stroke="#ffe9c7" points="5604,-71.5 5968,-71.5 "/>
<text text-anchor="middle" x="5695" y="-56.3" font-family="Times,serif" font-size="14.00">prev: 0x5030000002e0</text>
<polyline fill="none" stroke="#ffe9c7" points="5786,-48.5 5786,-71.5 "/>
<text text-anchor="middle" x="5877" y="-56.3" font-family="Times,serif" font-size="14.00">next: 0x503000000340</text>
</g>
<!-- node_0x5030000002e0&#45;&gt;node_0x503000000310 -->
<g id="edge27" class="edge">
<title>node_0x5030000002e0&#45;&gt;node_0x503000000310</title>
<path fill="none" stroke="#ff6699" d="M5568.17,-86.67C5568.17,-86.67 5593.84,-86.67 5593.84,-86.67"/>
<polygon fill="#ff6699" stroke="#ff6699" points="5593.84,-90.17 5603.84,-86.67 5593.84,-83.17 5593.84,-90.17"/>
</g>
<!-- node_0x503000000310&#45;&gt;node_0x5030000002e0 -->
<g id="edge30" class="edge">
<title>node_0x503000000310&#45;&gt;node_0x5030000002e0</title>
<path fill="none" stroke="#34cb34" d="M5603.91,-125.33C5603.91,-125.33 5578.18,-125.33 5578.18,-125.33"/>
<polygon fill="#34cb34" stroke="#34cb34" points="5578.18,-121.83 5568.18,-125.33 5578.18,-128.83 5578.18,-121.83"/>
</g>
<!-- node_0x503000000340 -->
<g id="node16" class="node">
<title>node_0x503000000340</title>
<path fill="#9966ff" stroke="#ffe9c7" d="M6016,-48.5C6016,-48.5 6357,-48.5 6357,-48.5 6363,-48.5 6369,-54.5 6369,-60.5 6369,-60.5 6369,-151.5 6369,-151.5 6369,-157.5 6363,-163.5 6357,-163.5 6357,-163.5 6016,-163.5 6016,-163.5 6010,-163.5 6004,-157.5 6004,-151.5 6004,-151.5 6004,-60.5 6004,-60.5 6004,-54.5 6010,-48.5 6016,-48.5"/>
<text text-anchor="middle" x="6186.5" y="-148.3" font-family="Times,serif" font-size="14.00">num: 14</text>
<polyline fill="none" stroke="#ffe9c7" points="6004,-140.5 6369,-140.5 "/>
<text text-anchor="middle" x="6186.5" y="-125.3" font-family="Times,serif" font-size="14.00">data_type: KeyWord</text>
<polyline fill="none" stroke="#ffe9c7" points="6004,-117.5 6369,-117.5 "/>
<text text-anchor="middle" x="6186.5" y="-102.3" font-family="Times,serif" font-size="14.00">data: ,</text>
<polyline fill="none" stroke="#ffe9c7" points="6004,-94.5 6369,-94.5 "/>
<text text-anchor="middle" x="6186.5" y="-79.3" font-family="Times,serif" font-size="14.00">curr: 0x503000000340</text>
<polyline fill="none" stroke="#ffe9c7" points="6004,-71.5 6369,-71.5 "/>
<text text-anchor="middle" x="6095.5" y="-56.3" font-family="Times,serif" font-size="14.00">prev: 0x503000000310</text>
<polyline fill="none" stroke="#ffe9c7" points="6187,-48.5 6187,-71.5 "/>
<text text-anchor="middle" x="6278" y="-56.3" font-family="Times,serif" font-size="14.00">next: 0x503000000370</text>
</g>
<!-- node_0x503000000310&#45;&gt;node_0x503000000340 -->
<g id="edge29" class="edge">
<title>node_0x503000000310&#45;&gt;node_0x503000000340</title>
<path fill="none" stroke="#ff6699" d="M5968.09,-86.67C5968.09,-86.67 5993.82,-86.67 5993.82,-86.67"/>
<polygon fill="#ff6699" stroke="#ff6699" points="5993.82,-90.17 6003.82,-86.67 5993.82,-83.17 5993.82,-90.17"/>
</g>
<!-- node_0x503000000340&#45;&gt;node_0x503000000310 -->
<g id="edge32" class="edge">
<title>node_0x503000000340&#45;&gt;node_0x503000000310</title>
<path fill="none" stroke="#34cb34" d="M6003.83,-125.33C6003.83,-125.33 5978.16,-125.33 5978.16,-125.33"/>
<polygon fill="#34cb34" stroke="#34cb34" points="5978.16,-121.83 5968.16,-125.33 5978.16,-128.83 5978.16,-121.83"/>
</g>
<!-- node_0x503000000370 -->
<g id="node17" class="node">
<title>node_0x503000000370</title>
<path fill="#9966ff" stroke="#ffe9c7" d="M6417,-48.5C6417,-48.5 6758,-48.5 6758,-48.5 6764,-48.5 6770,-54.5 6770,-60.5 6770,-60.5 6770,-151.5 6770,-151.5 6770,-157.5 6764,-163.5 6758,-163.5 6758,-163.5 6417,-163.5 6417,-163.5 6411,-163.5 6405,-157.5 6405,-151.5 6405,-151.5 6405,-60.5 6405,-60.5 6405,-54.5 6411,-48.5 6417,-48.5"/>
<text text-anchor="middle" x="6587.5" y="-148.3" font-family="Times,serif" font-size="14.00">num: 15</text>
<polyline fill="none" stroke="#ffe9c7" points="6405,-140.5 6770,-140.5 "/>
<text text-anchor="middle" x="6587.5" y="-125.3" font-family="Times,serif" font-size="14.00">data_type: KeyWord</text>
<polyline fill="none" stroke="#ffe9c7" points="6405,-117.5 6770,-117.5 "/>
<text text-anchor="middle" x="6587.5" y="-102.3" font-family="Times,serif" font-size="14.00">data: int</text>
<polyline fill="none" stroke="#ffe9c7" points="6405,-94.5 6770,-94.5 "/>
<text text-anchor="middle" x="6587.5" y="-79.3" font-family="Times,serif" font-size="14.00">curr: 0x503000000370</text>
<polyline fill="none" stroke="#ffe9c7" points="6405,-71.5 6770,-71.5 "/>
<text text-anchor="middle" x="6496.5" y="-56.3" font-family="Times,serif" font-size="14.00">prev: 0x503000000340</text>
<polyline fill="none" stroke="#ffe9c7" points="6588,-48.5 6588,-71.5 "/>
<text text-anchor="middle" x="6679" y="-56.3" font-family="Times,serif" font-size="14.00">next: 0x5030000003a0</text>
</g>
<!-- node_0x503000000340&#45;&gt;node_0x503000000370 -->
<g id="edge31" class="edge">
<title>node_0x503000000340&#45;&gt;node_0x503000000370</title>
<path fill="none" stroke="#ff6699" d="M6369.11,-86.67C6369.11,-86.67 6394.85,-86.67 6394.85,-86.67"/>
<polygon fill="#ff6699" stroke="#ff6699" points="6394.85,-90.17 6404.85,-86.67 6394.85,-83.17 6394.85,-90.17"/>
</g>
<!-- node_0x503000000370&#45;&gt;node_0x503000000340 -->
<g id="edge34" class="edge">
<title>node_0x503000000370&#45;&gt;node_0x503000000340</title>
<path fill="none" stroke="#34cb34" d="M6404.89,-125.33C6404.89,-125.33 6379.15,-125.33 6379.15,-125.33"/>
<polygon fill="#34cb34" stroke="#34cb34" points="6379.15,-121.83 6369.15,-125.33 6379.15,-128.83 6379.15,-121.83"/>
</g>
<!-- node_0x5030000003a0 -->
<g id="node18" class="node">
<title>node_0x5030000003a0</title>
<path fill="#34cb34" stroke="#ffe9c7" d="M6818,-48.5C6818,-48.5 7159,-48.5 7159,-48.5 7165,-48.5 7171,-54.5 7171,-60.5 7171,-60.5 7171,-151.5 7171,-151.5 7171,-157.5 7165,-163.5 7159,-163.5 7159,-163.5 6818,-163.5 6818,-163.5 6812,-163.5 6806,-157.5 6806,-151.5 6806,-151.5 6806,-60.5 6806,-60.5 6806,-54.5 6812,-48.5 6818,-48.5"/>
<text text-anchor="middle" x="6988.5" y="-148.3" font-family="Times,serif" font-size="14.00">num: 16</text>
<polyline fill="none" stroke="#ffe9c7" points="6806,-140.5 7171,-140.5 "/>
<text text-anchor="middle" x="6988.5" y="-125.3" font-family="Times,serif" font-size="14.00">data_type: Identifier</text>
<polyline fill="none" stroke="#ffe9c7" points="6806,-117.5 7171,-117.5 "/>
<text text-anchor="middle" x="6988.5" y="-102.3" font-family="Times,serif" font-size="14.00">data: one</text>
<polyline fill="none" stroke="#ffe9c7" points="6806,-94.5 7171,-94.5 "/>
<text text-anchor="middle" x="6988.5" y="-79.3" font-family="Times,serif" font-size="14.00">curr: 0x5030000003a0</text>
<polyline fill="none" stroke="#ffe9c7" points="6806,-71.5 7171,-71.5 "/>
<text text-anchor="middle" x="6897.5" y="-56.3" font-family="Times,serif" font-size="14.00">prev: 0x503000000370</text>
<polyline fill="none" stroke="#ffe9c7" points="6989,-48.5 6989,-71.5 "/>
<text text-anchor="middle" x="7080" y="-56.3" font-family="Times,serif" font-size="14.00">next: 0x5030000003d0</text>
</g>
<!-- node_0x503000000370&#45;&gt;node_0x5030000003a0 -->
<g id="edge33" class="edge">
<title>node_0x503000000370&#45;&gt;node_0x5030000003a0</title>
<path fill="none" stroke="#ff6699" d="M6770.11,-86.67C6770.11,-86.67 6795.85,-86.67 6795.85,-86.67"/>
<polygon fill="#ff6699" stroke="#ff6699" points="6795.85,-90.17 6805.85,-86.67 6795.85,-83.17 6795.85,-90.17"/>
</g>
<!-- node_0x5030000003a0&#45;&gt;node_0x503000000370 -->
<g id="edge36" class="edge">
<title>node_0x5030000003a0&#45;&gt;node_0x503000000370</title>
<path fill="none" stroke="#34cb34" d="M6805.89,-125.33C6805.89,-125.33 6780.15,-125.33 6780.15,-125.33"/>
<polygon fill="#34cb34" stroke="#34cb34" points="6780.15,-121.83 6770.15,-125.33 6780.15,-128.83 6780.15,-121.83"/>
</g>
<!-- node_0x5030000003d0 -->
<g id="node19" class="node">
<title>node_0x5030000003d0</title>
<path fill="#9966ff" stroke="#ffe9c7" d="M7219,-48.5C7219,-48.5 7559,-48.5 7559,-48.5 7565,-48.5 7571,-54.5 7571,-60.5 7571,-60.5 7571,-151.5 7571,-151.5 7571,-157.5 7565,-163.5 7559,-163.5 7559,-163.5 7219,-163.5 7219,-163.5 7213,-163.5 7207,-157.5 7207,-151.5 7207,-151.5 7207,-60.5 7207,-60.5 7207,-54.5 7213,-48.5 7219,-48.5"/>
<text text-anchor="middle" x="7389" y="-148.3" font-family="Times,serif" font-size="14.00">num: 17</text>
<polyline fill="none" stroke="#ffe9c7" points="7207,-140.5 7571,-140.5 "/>
<text text-anchor="middle" x="7389" y="-125.3" font-family="Times,serif" font-size="14.00">data_type: KeyWord</text>
<polyline fill="none" stroke="#ffe9c7" points="7207,-117.5 7571,-117.5 "/>
<text text-anchor="middle" x="7389" y="-102.3" font-family="Times,serif" font-size="14.00">data: )</text>
<polyline fill="none" stroke="#ffe9c7" points="7207,-94.5 7571,-94.5 "/>
<text text-anchor="middle" x="7389" y="-79.3" font-family="Times,serif" font-size="14.00">curr: 0x5030000003d0</text>
<polyline fill="none" stroke="#ffe9c7" points="7207,-71.5 7571,-71.5 "/>
<text text-anchor="middle" x="7298" y="-56.3" font-family="Times,serif" font-size="14.00">prev: 0x5030000003a0</text>
<polyline fill="none" stroke="#ffe9c7" points="7389,-48.5 7389,-71.5 "/>
<text text-anchor="middle" x="7480" y="-56.3" font-family="Times,serif" font-size="14.00">next: 0x503000000400</text>
</g>
<!-- node_0x5030000003a0&#45;&gt;node_0x5030000003d0 -->
<g id="edge35" class="edge">
<title>node_0x5030000003a0&#45;&gt;node_0x5030000003d0</title>
<path fill="none" stroke="#ff6699" d="M7171.17,-86.67C7171.17,-86.67 7196.84,-86.67 7196.84,-86.67"/>
<polygon fill="#ff6699" stroke="#ff6699" points="7196.84,-90.17 7206.84,-86.67 7196.84,-83.17 7196.84,-90.17"/>
</g>
<!-- node_0x5030000003d0&#45;&gt;node_0x5030000003a0 -->
<g id="edge38" class="edge">
<title>node_0x5030000003d0&#45;&gt;node_0x5030000003a0</title>
<path fill="none" stroke="#34cb34" d="M7206.91,-125.33C7206.91,-125.33 7181.18,-125.33 7181.18,-125.33"/>
<polygon fill="#34cb34" stroke="#34cb34" points="7181.18,-121.83 7171.18,-125.33 7181.18,-128.83 7181.18,-121.83"/>
</g>
<!-- node_0x503000000400 -->
<g id="node20" class="node">
<title>node_0x503000000400</title>
<path fill="#9966ff" stroke="#ffe9c7" d="M7619,-48.5C7619,-48.5 7960,-48.5 7960,-48.5 7966,-48.5 7972,-54.5 7972,-60.5 7972,-60.5 7972,-151.5 7972,-151.5 7972,-157.5 7966,-163.5 7960,-163.5 7960,-163.5 7619,-163.5 7619,-163.5 7613,-163.5 7607,-157.5 7607,-151.5 7607,-151.5 7607,-60.5 7607,-60.5 7607,-54.5 7613,-48.5 7619,-48.5"/>
<text text-anchor="middle" x="7789.5" y="-148.3" font-family="Times,serif" font-size="14.00">num: 18</text>
<polyline fill="none" stroke="#ffe9c7" points="7607,-140.5 7972,-140.5 "/>
<text text-anchor="middle" x="7789.5" y="-125.3" font-family="Times,serif" font-size="14.00">data_type: KeyWord</text>
<polyline fill="none" stroke="#ffe9c7" points="7607,-117.5 7972,-117.5 "/>
<text text-anchor="middle" x="7789.5" y="-102.3" font-family="Times,serif" font-size="14.00">data: int</text>
<polyline fill="none" stroke="#ffe9c7" points="7607,-94.5 7972,-94.5 "/>
<text text-anchor="middle" x="7789.5" y="-79.3" font-family="Times,serif" font-size="14.00">curr: 0x503000000400</text>
<polyline fill="none" stroke="#ffe9c7" points="7607,-71.5 7972,-71.5 "/>
<text text-anchor="middle" x="7698.5" y="-56.3" font-family="Times,serif" font-size="14.00">prev: 0x5030000003d0</text>
<polyline fill="none" stroke="#ffe9c7" points="7790,-48.5 7790,-71.5 "/>
<text text-anchor="middle" x="7881" y="-56.3" font-family="Times,serif" font-size="14.00">next: 0x503000000430</text>
</g>
<!-- node_0x5030000003d0&#45;&gt;node_0x503000000400 -->
<g id="edge37" class="edge">
<title>node_0x5030000003d0&#45;&gt;node_0x503000000400</title>
<path fill="none" stroke="#ff6699" d="M7571.09,-86.67C7571.09,-86.67 7596.82,-86.67 7596.82,-86.67"/>
<polygon fill="#ff6699" stroke="#ff6699" points="7596.82,-90.17 7606.82,-86.67 7596.82,-83.17 7596.82,-90.17"/>
</g>
<!-- node_0x503000000400&#45;&gt;node_0x5030000003d0 -->
<g id="edge40" class="edge">
<title>node_0x503000000400&#45;&gt;node_0x5030000003d0</title>
<path fill="none" stroke="#34cb34" d="M7606.83,-125.33C7606.83,-125.33 7581.16,-125.33 7581.16,-125.33"/>
<polygon fill="#34cb34" stroke="#34cb34" points="7581.16,-121.83 7571.16,-125.33 7581.16,-128.83 7581.16,-121.83"/>
</g>
<!-- node_0x503000000430 -->
<g id="node21" class="node">
<title>node_0x503000000430</title>
<path fill="#34cb34" stroke="#ffe9c7" d="M8020,-48.5C8020,-48.5 8361,-48.5 8361,-48.5 8367,-48.5 8373,-54.5 8373,-60.5 8373,-60.5 8373,-151.5 8373,-151.5 8373,-157.5 8367,-163.5 8361,-163.5 8361,-163.5 8020,-163.5 8020,-163.5 8014,-163.5 8008,-157.5 8008,-151.5 8008,-151.5 8008,-60.5 8008,-60.5 8008,-54.5 8014,-48.5 8020,-48.5"/>
<text text-anchor="middle" x="8190.5" y="-148.3" font-family="Times,serif" font-size="14.00">num: 19</text>
<polyline fill="none" stroke="#ffe9c7" points="8008,-140.5 8373,-140.5 "/>
<text text-anchor="middle" x="8190.5" y="-125.3" font-family="Times,serif" font-size="14.00">data_type: Identifier</text>
<polyline fill="none" stroke="#ffe9c7" points="8008,-117.5 8373,-117.5 "/>
<text text-anchor="middle" x="8190.5" y="-102.3" font-family="Times,serif" font-size="14.00">data: two</text>
<polyline fill="none" stroke="#ffe9c7" points="8008,-94.5 8373,-94.5 "/>
<text text-anchor="middle" x="8190.5" y="-79.3" font-family="Times,serif" font-size="14.00">curr: 0x503000000430</text>
<polyline fill="none" stroke="#ffe9c7" points="8008,-71.5 8373,-71.5 "/>
<text text-anchor="middle" x="8099.5" y="-56.3" font-family="Times,serif" font-size="14.00">prev: 0x503000000400</text>
<polyline fill="none" stroke="#ffe9c7" points="8191,-48.5 8191,-71.5 "/>
<text text-anchor="middle" x="8282" y="-56.3" font-family="Times,serif" font-size="14.00">next: 0x503000000460</text>
</g>
<!-- node_0x503000000400&#45;&gt;node_0x503000000430 -->
<g id="edge39" class="edge">
<title>node_0x503000000400&#45;&gt;node_0x503000000430</title>
<path fill="none" stroke="#ff6699" d="M7972.11,-86.67C7972.11,-86.67 7997.85,-86.67 7997.85,-86.67"/>
<polygon fill="#ff6699" stroke="#ff6699" points="7997.85,-90.17 8007.85,-86.67 7997.85,-83.17 7997.85,-90.17"/>
</g>
<!-- node_0x503000000430&#45;&gt;node_0x503000000400 -->
<g id="edge42" class="edge">
<title>node_0x503000000430&#45;&gt;node_0x503000000400</title>
<path fill="none" stroke="#34cb34" d="M8007.89,-125.33C8007.89,-125.33 7982.15,-125.33 7982.15,-125.33"/>
<polygon fill="#34cb34" stroke="#34cb34" points="7982.15,-121.83 7972.15,-125.33 7982.15,-128.83 7982.15,-121.83"/>
</g>
<!-- node_0x503000000430&#45;&gt;node_0x503000000460 -->
<g id="edge41" class="edge">
<title>node_0x503000000430&#45;&gt;node_0x503000000460</title>
<path fill="none" stroke="#ff6699" d="M8373.11,-70.67C8373.11,-70.67 8398.85,-70.67 8398.85,-70.67"/>
<polygon fill="#ff6699" stroke="#ff6699" points="8398.85,-74.17 8408.85,-70.67 8398.85,-67.17 8398.85,-74.17"/>
</g>
<!-- node_0x503000000460&#45;&gt;node_0x503000000070 -->
<g id="edge43" class="edge">
<title>node_0x503000000460&#45;&gt;node_0x503000000070</title>
<path fill="none" stroke="#ff6699" d="M8408.54,-35.83C8408.54,-35.83 375.38,-35.83 375.38,-35.83"/>
<polygon fill="#ff6699" stroke="#ff6699" points="375.38,-32.33 365.38,-35.83 375.38,-39.33 375.38,-32.33"/>
</g>
<!-- node_0x503000000460&#45;&gt;node_0x503000000430 -->
<g id="edge44" class="edge">
<title>node_0x503000000460&#45;&gt;node_0x503000000430</title>
<path fill="none" stroke="#34cb34" d="M8408.89,-93.33C8408.89,-93.33 8383.15,-93.33 8383.15,-93.33"/>
<polygon fill="#34cb34" stroke="#34cb34" points="8383.15,-89.83 8373.15,-93.33 8383.15,-96.83 8383.15,-89.83"/>
</g>
</g>
</svg>
