<?xml version="1.0" encoding="UTF-8" standalone="no"?>
<!DOCTYPE svg PUBLIC "-//W3C//DTD SVG 1.1//EN"
 "http://www.w3.org/Graphics/SVG/1.1/DTD/svg11.dtd">
<!-- Generated by graphviz version 2.43.0 (0)
 -->
<!-- Title: G Pages: 1 -->
<svg width="3571pt" height="213pt"
 viewBox="0.00 0.00 3571.00 213.00" xmlns="http://www.w3.org/2000/svg" xmlns:xlink="http://www.w3.org/1999/xlink">
<g id="graph0" class="graph" transform="scale(1 1) rotate(0) translate(4 209)">
<title>G</title>
<polygon fill="#ffd480" stroke="transparent" points="-4,4 -4,-209 3567,-209 3567,4 -4,4"/>
<text text-anchor="middle" x="1781.5" y="-177" font-family="DejaVu Sans" font-size="30.00" fill="#ffffff">List</text>
<!-- node_0x5030000000a0 -->
<g id="node1" class="node">
<title>node_0x5030000000a0</title>
<path fill="#ff6699" stroke="#ffe9c7" d="M12,-12C12,-12 353,-12 353,-12 359,-12 365,-18 365,-24 365,-24 365,-92 365,-92 365,-98 359,-104 353,-104 353,-104 12,-104 12,-104 6,-104 0,-98 0,-92 0,-92 0,-24 0,-24 0,-18 6,-12 12,-12"/>
<text text-anchor="middle" x="182.5" y="-88.8" font-family="Times,serif" font-size="14.00">Phantom</text>
<polyline fill="none" stroke="#ffe9c7" points="0,-81 365,-81 "/>
<text text-anchor="middle" x="182.5" y="-65.8" font-family="Times,serif" font-size="14.00">data: Phantom</text>
<polyline fill="none" stroke="#ffe9c7" points="0,-58 365,-58 "/>
<text text-anchor="middle" x="182.5" y="-42.8" font-family="Times,serif" font-size="14.00">curr: 0x5030000000a0</text>
<polyline fill="none" stroke="#ffe9c7" points="0,-35 365,-35 "/>
<text text-anchor="middle" x="91.5" y="-19.8" font-family="Times,serif" font-size="14.00">prev: 0x503000000220</text>
<polyline fill="none" stroke="#ffe9c7" points="183,-12 183,-35 "/>
<text text-anchor="middle" x="274" y="-19.8" font-family="Times,serif" font-size="14.00">next: 0x5030000000d0</text>
</g>
<!-- node_0x5030000000d0 -->
<g id="node2" class="node">
<title>node_0x5030000000d0</title>
<path fill="#9966ff" stroke="#ffe9c7" d="M413,-48.5C413,-48.5 753,-48.5 753,-48.5 759,-48.5 765,-54.5 765,-60.5 765,-60.5 765,-151.5 765,-151.5 765,-157.5 759,-163.5 753,-163.5 753,-163.5 413,-163.5 413,-163.5 407,-163.5 401,-157.5 401,-151.5 401,-151.5 401,-60.5 401,-60.5 401,-54.5 407,-48.5 413,-48.5"/>
<text text-anchor="middle" x="583" y="-148.3" font-family="Times,serif" font-size="14.00">num: 0</text>
<polyline fill="none" stroke="#ffe9c7" points="401,-140.5 765,-140.5 "/>
<text text-anchor="middle" x="583" y="-125.3" font-family="Times,serif" font-size="14.00">data_type: KeyWord</text>
<polyline fill="none" stroke="#ffe9c7" points="401,-117.5 765,-117.5 "/>
<text text-anchor="middle" x="583" y="-102.3" font-family="Times,serif" font-size="14.00">data: int</text>
<polyline fill="none" stroke="#ffe9c7" points="401,-94.5 765,-94.5 "/>
<text text-anchor="middle" x="583" y="-79.3" font-family="Times,serif" font-size="14.00">curr: 0x5030000000d0</text>
<polyline fill="none" stroke="#ffe9c7" points="401,-71.5 765,-71.5 "/>
<text text-anchor="middle" x="492" y="-56.3" font-family="Times,serif" font-size="14.00">prev: 0x5030000000a0</text>
<polyline fill="none" stroke="#ffe9c7" points="583,-48.5 583,-71.5 "/>
<text text-anchor="middle" x="674" y="-56.3" font-family="Times,serif" font-size="14.00">next: 0x503000000100</text>
</g>
<!-- node_0x5030000000a0&#45;&gt;node_0x5030000000d0 -->
<g id="edge1" class="edge">
<title>node_0x5030000000a0&#45;&gt;node_0x5030000000d0</title>
<path fill="none" stroke="#ff6699" d="M365.17,-66.83C365.17,-66.83 390.84,-66.83 390.84,-66.83"/>
<polygon fill="#ff6699" stroke="#ff6699" points="390.84,-70.33 400.84,-66.83 390.84,-63.33 390.84,-70.33"/>
</g>
<!-- node_0x503000000220 -->
<g id="node9" class="node">
<title>node_0x503000000220</title>
<path fill="#9966ff" stroke="#ffe9c7" d="M3214,-0.5C3214,-0.5 3551,-0.5 3551,-0.5 3557,-0.5 3563,-6.5 3563,-12.5 3563,-12.5 3563,-103.5 3563,-103.5 3563,-109.5 3557,-115.5 3551,-115.5 3551,-115.5 3214,-115.5 3214,-115.5 3208,-115.5 3202,-109.5 3202,-103.5 3202,-103.5 3202,-12.5 3202,-12.5 3202,-6.5 3208,-0.5 3214,-0.5"/>
<text text-anchor="middle" x="3382.5" y="-100.3" font-family="Times,serif" font-size="14.00">num: 7</text>
<polyline fill="none" stroke="#ffe9c7" points="3202,-92.5 3563,-92.5 "/>
<text text-anchor="middle" x="3382.5" y="-77.3" font-family="Times,serif" font-size="14.00">data_type: KeyWord</text>
<polyline fill="none" stroke="#ffe9c7" points="3202,-69.5 3563,-69.5 "/>
<text text-anchor="middle" x="3382.5" y="-54.3" font-family="Times,serif" font-size="14.00">data: )</text>
<polyline fill="none" stroke="#ffe9c7" points="3202,-46.5 3563,-46.5 "/>
<text text-anchor="middle" x="3382.5" y="-31.3" font-family="Times,serif" font-size="14.00">curr: 0x503000000220</text>
<polyline fill="none" stroke="#ffe9c7" points="3202,-23.5 3563,-23.5 "/>
<text text-anchor="middle" x="3291.5" y="-8.3" font-family="Times,serif" font-size="14.00">prev: 0x5030000001f0</text>
<polyline fill="none" stroke="#ffe9c7" points="3381,-0.5 3381,-23.5 "/>
<text text-anchor="middle" x="3472" y="-8.3" font-family="Times,serif" font-size="14.00">next: 0x5030000000a0</text>
</g>
<!-- node_0x5030000000a0&#45;&gt;node_0x503000000220 -->
<g id="edge2" class="edge">
<title>node_0x5030000000a0&#45;&gt;node_0x503000000220</title>
<path fill="none" stroke="#34cb34" d="M365.17,-23.67C365.17,-23.67 3191.54,-23.67 3191.54,-23.67"/>
<polygon fill="#34cb34" stroke="#34cb34" points="3191.54,-27.17 3201.54,-23.67 3191.54,-20.17 3191.54,-27.17"/>
</g>
<!-- node_0x5030000000d0&#45;&gt;node_0x5030000000a0 -->
<g id="edge4" class="edge">
<title>node_0x5030000000d0&#45;&gt;node_0x5030000000a0</title>
<path fill="none" stroke="#34cb34" d="M400.91,-85.67C400.91,-85.67 375.18,-85.67 375.18,-85.67"/>
<polygon fill="#34cb34" stroke="#34cb34" points="375.18,-82.17 365.18,-85.67 375.18,-89.17 375.18,-82.17"/>
</g>
<!-- node_0x503000000100 -->
<g id="node3" class="node">
<title>node_0x503000000100</title>
<path fill="#34cb34" stroke="#ffe9c7" d="M813,-48.5C813,-48.5 1154,-48.5 1154,-48.5 1160,-48.5 1166,-54.5 1166,-60.5 1166,-60.5 1166,-151.5 1166,-151.5 1166,-157.5 1160,-163.5 1154,-163.5 1154,-163.5 813,-163.5 813,-163.5 807,-163.5 801,-157.5 801,-151.5 801,-151.5 801,-60.5 801,-60.5 801,-54.5 807,-48.5 813,-48.5"/>
<text text-anchor="middle" x="983.5" y="-148.3" font-family="Times,serif" font-size="14.00">num: 1</text>
<polyline fill="none" stroke="#ffe9c7" points="801,-140.5 1166,-140.5 "/>
<text text-anchor="middle" x="983.5" y="-125.3" font-family="Times,serif" font-size="14.00">data_type: Identifier</text>
<polyline fill="none" stroke="#ffe9c7" points="801,-117.5 1166,-117.5 "/>
<text text-anchor="middle" x="983.5" y="-102.3" font-family="Times,serif" font-size="14.00">data: main</text>
<polyline fill="none" stroke="#ffe9c7" points="801,-94.5 1166,-94.5 "/>
<text text-anchor="middle" x="983.5" y="-79.3" font-family="Times,serif" font-size="14.00">curr: 0x503000000100</text>
<polyline fill="none" stroke="#ffe9c7" points="801,-71.5 1166,-71.5 "/>
<text text-anchor="middle" x="892.5" y="-56.3" font-family="Times,serif" font-size="14.00">prev: 0x5030000000d0</text>
<polyline fill="none" stroke="#ffe9c7" points="984,-48.5 984,-71.5 "/>
<text text-anchor="middle" x="1075" y="-56.3" font-family="Times,serif" font-size="14.00">next: 0x503000000130</text>
</g>
<!-- node_0x5030000000d0&#45;&gt;node_0x503000000100 -->
<g id="edge3" class="edge">
<title>node_0x5030000000d0&#45;&gt;node_0x503000000100</title>
<path fill="none" stroke="#ff6699" d="M765.09,-86.67C765.09,-86.67 790.82,-86.67 790.82,-86.67"/>
<polygon fill="#ff6699" stroke="#ff6699" points="790.82,-90.17 800.82,-86.67 790.82,-83.17 790.82,-90.17"/>
</g>
<!-- node_0x503000000100&#45;&gt;node_0x5030000000d0 -->
<g id="edge6" class="edge">
<title>node_0x503000000100&#45;&gt;node_0x5030000000d0</title>
<path fill="none" stroke="#34cb34" d="M800.83,-125.33C800.83,-125.33 775.16,-125.33 775.16,-125.33"/>
<polygon fill="#34cb34" stroke="#34cb34" points="775.16,-121.83 765.16,-125.33 775.16,-128.83 775.16,-121.83"/>
</g>
<!-- node_0x503000000130 -->
<g id="node4" class="node">
<title>node_0x503000000130</title>
<path fill="#9966ff" stroke="#ffe9c7" d="M1214,-48.5C1214,-48.5 1555,-48.5 1555,-48.5 1561,-48.5 1567,-54.5 1567,-60.5 1567,-60.5 1567,-151.5 1567,-151.5 1567,-157.5 1561,-163.5 1555,-163.5 1555,-163.5 1214,-163.5 1214,-163.5 1208,-163.5 1202,-157.5 1202,-151.5 1202,-151.5 1202,-60.5 1202,-60.5 1202,-54.5 1208,-48.5 1214,-48.5"/>
<text text-anchor="middle" x="1384.5" y="-148.3" font-family="Times,serif" font-size="14.00">num: 2</text>
<polyline fill="none" stroke="#ffe9c7" points="1202,-140.5 1567,-140.5 "/>
<text text-anchor="middle" x="1384.5" y="-125.3" font-family="Times,serif" font-size="14.00">data_type: KeyWord</text>
<polyline fill="none" stroke="#ffe9c7" points="1202,-117.5 1567,-117.5 "/>
<text text-anchor="middle" x="1384.5" y="-102.3" font-family="Times,serif" font-size="14.00">data: (</text>
<polyline fill="none" stroke="#ffe9c7" points="1202,-94.5 1567,-94.5 "/>
<text text-anchor="middle" x="1384.5" y="-79.3" font-family="Times,serif" font-size="14.00">curr: 0x503000000130</text>
<polyline fill="none" stroke="#ffe9c7" points="1202,-71.5 1567,-71.5 "/>
<text text-anchor="middle" x="1293.5" y="-56.3" font-family="Times,serif" font-size="14.00">prev: 0x503000000100</text>
<polyline fill="none" stroke="#ffe9c7" points="1385,-48.5 1385,-71.5 "/>
<text text-anchor="middle" x="1476" y="-56.3" font-family="Times,serif" font-size="14.00">next: 0x503000000160</text>
</g>
<!-- node_0x503000000100&#45;&gt;node_0x503000000130 -->
<g id="edge5" class="edge">
<title>node_0x503000000100&#45;&gt;node_0x503000000130</title>
<path fill="none" stroke="#ff6699" d="M1166.11,-86.67C1166.11,-86.67 1191.85,-86.67 1191.85,-86.67"/>
<polygon fill="#ff6699" stroke="#ff6699" points="1191.85,-90.17 1201.85,-86.67 1191.85,-83.17 1191.85,-90.17"/>
</g>
<!-- node_0x503000000130&#45;&gt;node_0x503000000100 -->
<g id="edge8" class="edge">
<title>node_0x503000000130&#45;&gt;node_0x503000000100</title>
<path fill="none" stroke="#34cb34" d="M1201.89,-125.33C1201.89,-125.33 1176.15,-125.33 1176.15,-125.33"/>
<polygon fill="#34cb34" stroke="#34cb34" points="1176.15,-121.83 1166.15,-125.33 1176.15,-128.83 1176.15,-121.83"/>
</g>
<!-- node_0x503000000160 -->
<g id="node5" class="node">
<title>node_0x503000000160</title>
<path fill="#9966ff" stroke="#ffe9c7" d="M1615,-48.5C1615,-48.5 1956,-48.5 1956,-48.5 1962,-48.5 1968,-54.5 1968,-60.5 1968,-60.5 1968,-151.5 1968,-151.5 1968,-157.5 1962,-163.5 1956,-163.5 1956,-163.5 1615,-163.5 1615,-163.5 1609,-163.5 1603,-157.5 1603,-151.5 1603,-151.5 1603,-60.5 1603,-60.5 1603,-54.5 1609,-48.5 1615,-48.5"/>
<text text-anchor="middle" x="1785.5" y="-148.3" font-family="Times,serif" font-size="14.00">num: 3</text>
<polyline fill="none" stroke="#ffe9c7" points="1603,-140.5 1968,-140.5 "/>
<text text-anchor="middle" x="1785.5" y="-125.3" font-family="Times,serif" font-size="14.00">data_type: KeyWord</text>
<polyline fill="none" stroke="#ffe9c7" points="1603,-117.5 1968,-117.5 "/>
<text text-anchor="middle" x="1785.5" y="-102.3" font-family="Times,serif" font-size="14.00">data: int</text>
<polyline fill="none" stroke="#ffe9c7" points="1603,-94.5 1968,-94.5 "/>
<text text-anchor="middle" x="1785.5" y="-79.3" font-family="Times,serif" font-size="14.00">curr: 0x503000000160</text>
<polyline fill="none" stroke="#ffe9c7" points="1603,-71.5 1968,-71.5 "/>
<text text-anchor="middle" x="1694.5" y="-56.3" font-family="Times,serif" font-size="14.00">prev: 0x503000000130</text>
<polyline fill="none" stroke="#ffe9c7" points="1786,-48.5 1786,-71.5 "/>
<text text-anchor="middle" x="1877" y="-56.3" font-family="Times,serif" font-size="14.00">next: 0x503000000190</text>
</g>
<!-- node_0x503000000130&#45;&gt;node_0x503000000160 -->
<g id="edge7" class="edge">
<title>node_0x503000000130&#45;&gt;node_0x503000000160</title>
<path fill="none" stroke="#ff6699" d="M1567.11,-86.67C1567.11,-86.67 1592.85,-86.67 1592.85,-86.67"/>
<polygon fill="#ff6699" stroke="#ff6699" points="1592.85,-90.17 1602.85,-86.67 1592.85,-83.17 1592.85,-90.17"/>
</g>
<!-- node_0x503000000160&#45;&gt;node_0x503000000130 -->
<g id="edge10" class="edge">
<title>node_0x503000000160&#45;&gt;node_0x503000000130</title>
<path fill="none" stroke="#34cb34" d="M1602.89,-125.33C1602.89,-125.33 1577.15,-125.33 1577.15,-125.33"/>
<polygon fill="#34cb34" stroke="#34cb34" points="1577.15,-121.83 1567.15,-125.33 1577.15,-128.83 1577.15,-121.83"/>
</g>
<!-- node_0x503000000190 -->
<g id="node6" class="node">
<title>node_0x503000000190</title>
<path fill="#34cb34" stroke="#ffe9c7" d="M2016,-48.5C2016,-48.5 2356,-48.5 2356,-48.5 2362,-48.5 2368,-54.5 2368,-60.5 2368,-60.5 2368,-151.5 2368,-151.5 2368,-157.5 2362,-163.5 2356,-163.5 2356,-163.5 2016,-163.5 2016,-163.5 2010,-163.5 2004,-157.5 2004,-151.5 2004,-151.5 2004,-60.5 2004,-60.5 2004,-54.5 2010,-48.5 2016,-48.5"/>
<text text-anchor="middle" x="2186" y="-148.3" font-family="Times,serif" font-size="14.00">num: 4</text>
<polyline fill="none" stroke="#ffe9c7" points="2004,-140.5 2368,-140.5 "/>
<text text-anchor="middle" x="2186" y="-125.3" font-family="Times,serif" font-size="14.00">data_type: Identifier</text>
<polyline fill="none" stroke="#ffe9c7" points="2004,-117.5 2368,-117.5 "/>
<text text-anchor="middle" x="2186" y="-102.3" font-family="Times,serif" font-size="14.00">data: one</text>
<polyline fill="none" stroke="#ffe9c7" points="2004,-94.5 2368,-94.5 "/>
<text text-anchor="middle" x="2186" y="-79.3" font-family="Times,serif" font-size="14.00">curr: 0x503000000190</text>
<polyline fill="none" stroke="#ffe9c7" points="2004,-71.5 2368,-71.5 "/>
<text text-anchor="middle" x="2095.5" y="-56.3" font-family="Times,serif" font-size="14.00">prev: 0x503000000160</text>
<polyline fill="none" stroke="#ffe9c7" points="2187,-48.5 2187,-71.5 "/>
<text text-anchor="middle" x="2277.5" y="-56.3" font-family="Times,serif" font-size="14.00">next: 0x5030000001c0</text>
</g>
<!-- node_0x503000000160&#45;&gt;node_0x503000000190 -->
<g id="edge9" class="edge">
<title>node_0x503000000160&#45;&gt;node_0x503000000190</title>
<path fill="none" stroke="#ff6699" d="M1968.17,-86.67C1968.17,-86.67 1993.84,-86.67 1993.84,-86.67"/>
<polygon fill="#ff6699" stroke="#ff6699" points="1993.84,-90.17 2003.84,-86.67 1993.84,-83.17 1993.84,-90.17"/>
</g>
<!-- node_0x503000000190&#45;&gt;node_0x503000000160 -->
<g id="edge12" class="edge">
<title>node_0x503000000190&#45;&gt;node_0x503000000160</title>
<path fill="none" stroke="#34cb34" d="M2003.91,-125.33C2003.91,-125.33 1978.18,-125.33 1978.18,-125.33"/>
<polygon fill="#34cb34" stroke="#34cb34" points="1978.18,-121.83 1968.18,-125.33 1978.18,-128.83 1978.18,-121.83"/>
</g>
<!-- node_0x5030000001c0 -->
<g id="node7" class="node">
<title>node_0x5030000001c0</title>
<path fill="#9966ff" stroke="#ffe9c7" d="M2416,-48.5C2416,-48.5 2754,-48.5 2754,-48.5 2760,-48.5 2766,-54.5 2766,-60.5 2766,-60.5 2766,-151.5 2766,-151.5 2766,-157.5 2760,-163.5 2754,-163.5 2754,-163.5 2416,-163.5 2416,-163.5 2410,-163.5 2404,-157.5 2404,-151.5 2404,-151.5 2404,-60.5 2404,-60.5 2404,-54.5 2410,-48.5 2416,-48.5"/>
<text text-anchor="middle" x="2585" y="-148.3" font-family="Times,serif" font-size="14.00">num: 5</text>
<polyline fill="none" stroke="#ffe9c7" points="2404,-140.5 2766,-140.5 "/>
<text text-anchor="middle" x="2585" y="-125.3" font-family="Times,serif" font-size="14.00">data_type: KeyWord</text>
<polyline fill="none" stroke="#ffe9c7" points="2404,-117.5 2766,-117.5 "/>
<text text-anchor="middle" x="2585" y="-102.3" font-family="Times,serif" font-size="14.00">data: =</text>
<polyline fill="none" stroke="#ffe9c7" points="2404,-94.5 2766,-94.5 "/>
<text text-anchor="middle" x="2585" y="-79.3" font-family="Times,serif" font-size="14.00">curr: 0x5030000001c0</text>
<polyline fill="none" stroke="#ffe9c7" points="2404,-71.5 2766,-71.5 "/>
<text text-anchor="middle" x="2495.5" y="-56.3" font-family="Times,serif" font-size="14.00">prev: 0x503000000190</text>
<polyline fill="none" stroke="#ffe9c7" points="2587,-48.5 2587,-71.5 "/>
<text text-anchor="middle" x="2676.5" y="-56.3" font-family="Times,serif" font-size="14.00">next: 0x5030000001f0</text>
</g>
<!-- node_0x503000000190&#45;&gt;node_0x5030000001c0 -->
<g id="edge11" class="edge">
<title>node_0x503000000190&#45;&gt;node_0x5030000001c0</title>
<path fill="none" stroke="#ff6699" d="M2368.28,-86.67C2368.28,-86.67 2393.78,-86.67 2393.78,-86.67"/>
<polygon fill="#ff6699" stroke="#ff6699" points="2393.78,-90.17 2403.78,-86.67 2393.78,-83.17 2393.78,-90.17"/>
</g>
<!-- node_0x5030000001c0&#45;&gt;node_0x503000000190 -->
<g id="edge14" class="edge">
<title>node_0x5030000001c0&#45;&gt;node_0x503000000190</title>
<path fill="none" stroke="#34cb34" d="M2403.89,-125.33C2403.89,-125.33 2378.26,-125.33 2378.26,-125.33"/>
<polygon fill="#34cb34" stroke="#34cb34" points="2378.26,-121.83 2368.26,-125.33 2378.26,-128.83 2378.26,-121.83"/>
</g>
<!-- node_0x5030000001f0 -->
<g id="node8" class="node">
<title>node_0x5030000001f0</title>
<path fill="#e8d92e" stroke="#ffe9c7" d="M2814,-48.5C2814,-48.5 3154,-48.5 3154,-48.5 3160,-48.5 3166,-54.5 3166,-60.5 3166,-60.5 3166,-151.5 3166,-151.5 3166,-157.5 3160,-163.5 3154,-163.5 3154,-163.5 2814,-163.5 2814,-163.5 2808,-163.5 2802,-157.5 2802,-151.5 2802,-151.5 2802,-60.5 2802,-60.5 2802,-54.5 2808,-48.5 2814,-48.5"/>
<text text-anchor="middle" x="2984" y="-148.3" font-family="Times,serif" font-size="14.00">num: 6</text>
<polyline fill="none" stroke="#ffe9c7" points="2802,-140.5 3166,-140.5 "/>
<text text-anchor="middle" x="2984" y="-125.3" font-family="Times,serif" font-size="14.00">data_type: Constant</text>
<polyline fill="none" stroke="#ffe9c7" points="2802,-117.5 3166,-117.5 "/>
<text text-anchor="middle" x="2984" y="-102.3" font-family="Times,serif" font-size="14.00">data: 1</text>
<polyline fill="none" stroke="#ffe9c7" points="2802,-94.5 3166,-94.5 "/>
<text text-anchor="middle" x="2984" y="-79.3" font-family="Times,serif" font-size="14.00">curr: 0x5030000001f0</text>
<polyline fill="none" stroke="#ffe9c7" points="2802,-71.5 3166,-71.5 "/>
<text text-anchor="middle" x="2893" y="-56.3" font-family="Times,serif" font-size="14.00">prev: 0x5030000001c0</text>
<polyline fill="none" stroke="#ffe9c7" points="2984,-48.5 2984,-71.5 "/>
<text text-anchor="middle" x="3075" y="-56.3" font-family="Times,serif" font-size="14.00">next: 0x503000000220</text>
</g>
<!-- node_0x5030000001c0&#45;&gt;node_0x5030000001f0 -->
<g id="edge13" class="edge">
<title>node_0x5030000001c0&#45;&gt;node_0x5030000001f0</title>
<path fill="none" stroke="#ff6699" d="M2766.11,-86.67C2766.11,-86.67 2791.74,-86.67 2791.74,-86.67"/>
<polygon fill="#ff6699" stroke="#ff6699" points="2791.74,-90.17 2801.74,-86.67 2791.74,-83.17 2791.74,-90.17"/>
</g>
<!-- node_0x5030000001f0&#45;&gt;node_0x5030000001c0 -->
<g id="edge16" class="edge">
<title>node_0x5030000001f0&#45;&gt;node_0x5030000001c0</title>
<path fill="none" stroke="#34cb34" d="M2801.72,-125.33C2801.72,-125.33 2776.22,-125.33 2776.22,-125.33"/>
<polygon fill="#34cb34" stroke="#34cb34" points="2776.22,-121.83 2766.22,-125.33 2776.22,-128.83 2776.22,-121.83"/>
</g>
<!-- node_0x5030000001f0&#45;&gt;node_0x503000000220 -->
<g id="edge15" class="edge">
<title>node_0x5030000001f0&#45;&gt;node_0x503000000220</title>
<path fill="none" stroke="#ff6699" d="M3166.05,-70.67C3166.05,-70.67 3191.81,-70.67 3191.81,-70.67"/>
<polygon fill="#ff6699" stroke="#ff6699" points="3191.81,-74.17 3201.81,-70.67 3191.81,-67.17 3191.81,-74.17"/>
</g>
<!-- node_0x503000000220&#45;&gt;node_0x5030000000a0 -->
<g id="edge17" class="edge">
<title>node_0x503000000220&#45;&gt;node_0x5030000000a0</title>
<path fill="none" stroke="#ff6699" d="M3201.86,-35.83C3201.86,-35.83 375.29,-35.83 375.29,-35.83"/>
<polygon fill="#ff6699" stroke="#ff6699" points="375.29,-32.33 365.29,-35.83 375.29,-39.33 375.29,-32.33"/>
</g>
<!-- node_0x503000000220&#45;&gt;node_0x5030000001f0 -->
<g id="edge18" class="edge">
<title>node_0x503000000220&#45;&gt;node_0x5030000001f0</title>
<path fill="none" stroke="#34cb34" d="M3201.91,-93.33C3201.91,-93.33 3176.29,-93.33 3176.29,-93.33"/>
<polygon fill="#34cb34" stroke="#34cb34" points="3176.29,-89.83 3166.29,-93.33 3176.29,-96.83 3176.29,-89.83"/>
</g>
</g>
</svg>
