<?xml version="1.0" encoding="UTF-8" standalone="no"?>
<!DOCTYPE svg PUBLIC "-//W3C//DTD SVG 1.1//EN"
 "http://www.w3.org/Graphics/SVG/1.1/DTD/svg11.dtd">
<!-- Generated by graphviz version 2.43.0 (0)
 -->
<!-- Title: G Pages: 1 -->
<svg width="6777pt" height="213pt"
 viewBox="0.00 0.00 6777.00 213.00" xmlns="http://www.w3.org/2000/svg" xmlns:xlink="http://www.w3.org/1999/xlink">
<g id="graph0" class="graph" transform="scale(1 1) rotate(0) translate(4 209)">
<title>G</title>
<polygon fill="#ffd480" stroke="transparent" points="-4,4 -4,-209 6773,-209 6773,4 -4,4"/>
<text text-anchor="middle" x="3384.5" y="-177" font-family="DejaVu Sans" font-size="30.00" fill="#ffffff">List</text>
<!-- node_0x5030000000a0 -->
<g id="node1" class="node">
<title>node_0x5030000000a0</title>
<path fill="#ff6699" stroke="#ffe9c7" d="M12,-12C12,-12 352,-12 352,-12 358,-12 364,-18 364,-24 364,-24 364,-92 364,-92 364,-98 358,-104 352,-104 352,-104 12,-104 12,-104 6,-104 0,-98 0,-92 0,-92 0,-24 0,-24 0,-18 6,-12 12,-12"/>
<text text-anchor="middle" x="182" y="-88.8" font-family="Times,serif" font-size="14.00">Phantom</text>
<polyline fill="none" stroke="#ffe9c7" points="0,-81 364,-81 "/>
<text text-anchor="middle" x="182" y="-65.8" font-family="Times,serif" font-size="14.00">data: Phantom</text>
<polyline fill="none" stroke="#ffe9c7" points="0,-58 364,-58 "/>
<text text-anchor="middle" x="182" y="-42.8" font-family="Times,serif" font-size="14.00">curr: 0x5030000000a0</text>
<polyline fill="none" stroke="#ffe9c7" points="0,-35 364,-35 "/>
<text text-anchor="middle" x="91" y="-19.8" font-family="Times,serif" font-size="14.00">prev: 0x5030000003a0</text>
<polyline fill="none" stroke="#ffe9c7" points="182,-12 182,-35 "/>
<text text-anchor="middle" x="273" y="-19.8" font-family="Times,serif" font-size="14.00">next: 0x5030000000d0</text>
</g>
<!-- node_0x5030000000d0 -->
<g id="node2" class="node">
<title>node_0x5030000000d0</title>
<path fill="#9966ff" stroke="#ffe9c7" d="M412,-48.5C412,-48.5 752,-48.5 752,-48.5 758,-48.5 764,-54.5 764,-60.5 764,-60.5 764,-151.5 764,-151.5 764,-157.5 758,-163.5 752,-163.5 752,-163.5 412,-163.5 412,-163.5 406,-163.5 400,-157.5 400,-151.5 400,-151.5 400,-60.5 400,-60.5 400,-54.5 406,-48.5 412,-48.5"/>
<text text-anchor="middle" x="582" y="-148.3" font-family="Times,serif" font-size="14.00">num: 0</text>
<polyline fill="none" stroke="#ffe9c7" points="400,-140.5 764,-140.5 "/>
<text text-anchor="middle" x="582" y="-125.3" font-family="Times,serif" font-size="14.00">data_type: KeyWord</text>
<polyline fill="none" stroke="#ffe9c7" points="400,-117.5 764,-117.5 "/>
<text text-anchor="middle" x="582" y="-102.3" font-family="Times,serif" font-size="14.00">data: int</text>
<polyline fill="none" stroke="#ffe9c7" points="400,-94.5 764,-94.5 "/>
<text text-anchor="middle" x="582" y="-79.3" font-family="Times,serif" font-size="14.00">curr: 0x5030000000d0</text>
<polyline fill="none" stroke="#ffe9c7" points="400,-71.5 764,-71.5 "/>
<text text-anchor="middle" x="491" y="-56.3" font-family="Times,serif" font-size="14.00">prev: 0x5030000000a0</text>
<polyline fill="none" stroke="#ffe9c7" points="582,-48.5 582,-71.5 "/>
<text text-anchor="middle" x="673" y="-56.3" font-family="Times,serif" font-size="14.00">next: 0x503000000100</text>
</g>
<!-- node_0x5030000000a0&#45;&gt;node_0x5030000000d0 -->
<g id="edge1" class="edge">
<title>node_0x5030000000a0&#45;&gt;node_0x5030000000d0</title>
<path fill="none" stroke="#ff6699" d="M364.15,-66.83C364.15,-66.83 389.81,-66.83 389.81,-66.83"/>
<polygon fill="#ff6699" stroke="#ff6699" points="389.81,-70.33 399.81,-66.83 389.81,-63.33 389.81,-70.33"/>
</g>
<!-- node_0x5030000003a0 -->
<g id="node17" class="node">
<title>node_0x5030000003a0</title>
<path fill="#9966ff" stroke="#ffe9c7" d="M6416,-0.5C6416,-0.5 6757,-0.5 6757,-0.5 6763,-0.5 6769,-6.5 6769,-12.5 6769,-12.5 6769,-103.5 6769,-103.5 6769,-109.5 6763,-115.5 6757,-115.5 6757,-115.5 6416,-115.5 6416,-115.5 6410,-115.5 6404,-109.5 6404,-103.5 6404,-103.5 6404,-12.5 6404,-12.5 6404,-6.5 6410,-0.5 6416,-0.5"/>
<text text-anchor="middle" x="6586.5" y="-100.3" font-family="Times,serif" font-size="14.00">num: 15</text>
<polyline fill="none" stroke="#ffe9c7" points="6404,-92.5 6769,-92.5 "/>
<text text-anchor="middle" x="6586.5" y="-77.3" font-family="Times,serif" font-size="14.00">data_type: KeyWord</text>
<polyline fill="none" stroke="#ffe9c7" points="6404,-69.5 6769,-69.5 "/>
<text text-anchor="middle" x="6586.5" y="-54.3" font-family="Times,serif" font-size="14.00">data: }</text>
<polyline fill="none" stroke="#ffe9c7" points="6404,-46.5 6769,-46.5 "/>
<text text-anchor="middle" x="6586.5" y="-31.3" font-family="Times,serif" font-size="14.00">curr: 0x5030000003a0</text>
<polyline fill="none" stroke="#ffe9c7" points="6404,-23.5 6769,-23.5 "/>
<text text-anchor="middle" x="6495.5" y="-8.3" font-family="Times,serif" font-size="14.00">prev: 0x503000000370</text>
<polyline fill="none" stroke="#ffe9c7" points="6587,-0.5 6587,-23.5 "/>
<text text-anchor="middle" x="6678" y="-8.3" font-family="Times,serif" font-size="14.00">next: 0x5030000000a0</text>
</g>
<!-- node_0x5030000000a0&#45;&gt;node_0x5030000003a0 -->
<g id="edge2" class="edge">
<title>node_0x5030000000a0&#45;&gt;node_0x5030000003a0</title>
<path fill="none" stroke="#34cb34" d="M364.21,-23.67C364.21,-23.67 6393.77,-23.67 6393.77,-23.67"/>
<polygon fill="#34cb34" stroke="#34cb34" points="6393.77,-27.17 6403.77,-23.67 6393.77,-20.17 6393.77,-27.17"/>
</g>
<!-- node_0x5030000000d0&#45;&gt;node_0x5030000000a0 -->
<g id="edge4" class="edge">
<title>node_0x5030000000d0&#45;&gt;node_0x5030000000a0</title>
<path fill="none" stroke="#34cb34" d="M399.85,-85.67C399.85,-85.67 374.19,-85.67 374.19,-85.67"/>
<polygon fill="#34cb34" stroke="#34cb34" points="374.19,-82.17 364.19,-85.67 374.19,-89.17 374.19,-82.17"/>
</g>
<!-- node_0x503000000100 -->
<g id="node3" class="node">
<title>node_0x503000000100</title>
<path fill="#34cb34" stroke="#ffe9c7" d="M812,-48.5C812,-48.5 1153,-48.5 1153,-48.5 1159,-48.5 1165,-54.5 1165,-60.5 1165,-60.5 1165,-151.5 1165,-151.5 1165,-157.5 1159,-163.5 1153,-163.5 1153,-163.5 812,-163.5 812,-163.5 806,-163.5 800,-157.5 800,-151.5 800,-151.5 800,-60.5 800,-60.5 800,-54.5 806,-48.5 812,-48.5"/>
<text text-anchor="middle" x="982.5" y="-148.3" font-family="Times,serif" font-size="14.00">num: 1</text>
<polyline fill="none" stroke="#ffe9c7" points="800,-140.5 1165,-140.5 "/>
<text text-anchor="middle" x="982.5" y="-125.3" font-family="Times,serif" font-size="14.00">data_type: Identifier</text>
<polyline fill="none" stroke="#ffe9c7" points="800,-117.5 1165,-117.5 "/>
<text text-anchor="middle" x="982.5" y="-102.3" font-family="Times,serif" font-size="14.00">data: main</text>
<polyline fill="none" stroke="#ffe9c7" points="800,-94.5 1165,-94.5 "/>
<text text-anchor="middle" x="982.5" y="-79.3" font-family="Times,serif" font-size="14.00">curr: 0x503000000100</text>
<polyline fill="none" stroke="#ffe9c7" points="800,-71.5 1165,-71.5 "/>
<text text-anchor="middle" x="891.5" y="-56.3" font-family="Times,serif" font-size="14.00">prev: 0x5030000000d0</text>
<polyline fill="none" stroke="#ffe9c7" points="983,-48.5 983,-71.5 "/>
<text text-anchor="middle" x="1074" y="-56.3" font-family="Times,serif" font-size="14.00">next: 0x503000000130</text>
</g>
<!-- node_0x5030000000d0&#45;&gt;node_0x503000000100 -->
<g id="edge3" class="edge">
<title>node_0x5030000000d0&#45;&gt;node_0x503000000100</title>
<path fill="none" stroke="#ff6699" d="M764.09,-86.67C764.09,-86.67 789.82,-86.67 789.82,-86.67"/>
<polygon fill="#ff6699" stroke="#ff6699" points="789.82,-90.17 799.82,-86.67 789.82,-83.17 789.82,-90.17"/>
</g>
<!-- node_0x503000000100&#45;&gt;node_0x5030000000d0 -->
<g id="edge6" class="edge">
<title>node_0x503000000100&#45;&gt;node_0x5030000000d0</title>
<path fill="none" stroke="#34cb34" d="M799.83,-125.33C799.83,-125.33 774.16,-125.33 774.16,-125.33"/>
<polygon fill="#34cb34" stroke="#34cb34" points="774.16,-121.83 764.16,-125.33 774.16,-128.83 774.16,-121.83"/>
</g>
<!-- node_0x503000000130 -->
<g id="node4" class="node">
<title>node_0x503000000130</title>
<path fill="#9966ff" stroke="#ffe9c7" d="M1213,-48.5C1213,-48.5 1554,-48.5 1554,-48.5 1560,-48.5 1566,-54.5 1566,-60.5 1566,-60.5 1566,-151.5 1566,-151.5 1566,-157.5 1560,-163.5 1554,-163.5 1554,-163.5 1213,-163.5 1213,-163.5 1207,-163.5 1201,-157.5 1201,-151.5 1201,-151.5 1201,-60.5 1201,-60.5 1201,-54.5 1207,-48.5 1213,-48.5"/>
<text text-anchor="middle" x="1383.5" y="-148.3" font-family="Times,serif" font-size="14.00">num: 2</text>
<polyline fill="none" stroke="#ffe9c7" points="1201,-140.5 1566,-140.5 "/>
<text text-anchor="middle" x="1383.5" y="-125.3" font-family="Times,serif" font-size="14.00">data_type: KeyWord</text>
<polyline fill="none" stroke="#ffe9c7" points="1201,-117.5 1566,-117.5 "/>
<text text-anchor="middle" x="1383.5" y="-102.3" font-family="Times,serif" font-size="14.00">data: (</text>
<polyline fill="none" stroke="#ffe9c7" points="1201,-94.5 1566,-94.5 "/>
<text text-anchor="middle" x="1383.5" y="-79.3" font-family="Times,serif" font-size="14.00">curr: 0x503000000130</text>
<polyline fill="none" stroke="#ffe9c7" points="1201,-71.5 1566,-71.5 "/>
<text text-anchor="middle" x="1292.5" y="-56.3" font-family="Times,serif" font-size="14.00">prev: 0x503000000100</text>
<polyline fill="none" stroke="#ffe9c7" points="1384,-48.5 1384,-71.5 "/>
<text text-anchor="middle" x="1475" y="-56.3" font-family="Times,serif" font-size="14.00">next: 0x503000000160</text>
</g>
<!-- node_0x503000000100&#45;&gt;node_0x503000000130 -->
<g id="edge5" class="edge">
<title>node_0x503000000100&#45;&gt;node_0x503000000130</title>
<path fill="none" stroke="#ff6699" d="M1165.11,-86.67C1165.11,-86.67 1190.85,-86.67 1190.85,-86.67"/>
<polygon fill="#ff6699" stroke="#ff6699" points="1190.85,-90.17 1200.85,-86.67 1190.85,-83.17 1190.85,-90.17"/>
</g>
<!-- node_0x503000000130&#45;&gt;node_0x503000000100 -->
<g id="edge8" class="edge">
<title>node_0x503000000130&#45;&gt;node_0x503000000100</title>
<path fill="none" stroke="#34cb34" d="M1200.89,-125.33C1200.89,-125.33 1175.15,-125.33 1175.15,-125.33"/>
<polygon fill="#34cb34" stroke="#34cb34" points="1175.15,-121.83 1165.15,-125.33 1175.15,-128.83 1175.15,-121.83"/>
</g>
<!-- node_0x503000000160 -->
<g id="node5" class="node">
<title>node_0x503000000160</title>
<path fill="#9966ff" stroke="#ffe9c7" d="M1614,-48.5C1614,-48.5 1955,-48.5 1955,-48.5 1961,-48.5 1967,-54.5 1967,-60.5 1967,-60.5 1967,-151.5 1967,-151.5 1967,-157.5 1961,-163.5 1955,-163.5 1955,-163.5 1614,-163.5 1614,-163.5 1608,-163.5 1602,-157.5 1602,-151.5 1602,-151.5 1602,-60.5 1602,-60.5 1602,-54.5 1608,-48.5 1614,-48.5"/>
<text text-anchor="middle" x="1784.5" y="-148.3" font-family="Times,serif" font-size="14.00">num: 3</text>
<polyline fill="none" stroke="#ffe9c7" points="1602,-140.5 1967,-140.5 "/>
<text text-anchor="middle" x="1784.5" y="-125.3" font-family="Times,serif" font-size="14.00">data_type: KeyWord</text>
<polyline fill="none" stroke="#ffe9c7" points="1602,-117.5 1967,-117.5 "/>
<text text-anchor="middle" x="1784.5" y="-102.3" font-family="Times,serif" font-size="14.00">data: int</text>
<polyline fill="none" stroke="#ffe9c7" points="1602,-94.5 1967,-94.5 "/>
<text text-anchor="middle" x="1784.5" y="-79.3" font-family="Times,serif" font-size="14.00">curr: 0x503000000160</text>
<polyline fill="none" stroke="#ffe9c7" points="1602,-71.5 1967,-71.5 "/>
<text text-anchor="middle" x="1693.5" y="-56.3" font-family="Times,serif" font-size="14.00">prev: 0x503000000130</text>
<polyline fill="none" stroke="#ffe9c7" points="1785,-48.5 1785,-71.5 "/>
<text text-anchor="middle" x="1876" y="-56.3" font-family="Times,serif" font-size="14.00">next: 0x503000000190</text>
</g>
<!-- node_0x503000000130&#45;&gt;node_0x503000000160 -->
<g id="edge7" class="edge">
<title>node_0x503000000130&#45;&gt;node_0x503000000160</title>
<path fill="none" stroke="#ff6699" d="M1566.11,-86.67C1566.11,-86.67 1591.85,-86.67 1591.85,-86.67"/>
<polygon fill="#ff6699" stroke="#ff6699" points="1591.85,-90.17 1601.85,-86.67 1591.85,-83.17 1591.85,-90.17"/>
</g>
<!-- node_0x503000000160&#45;&gt;node_0x503000000130 -->
<g id="edge10" class="edge">
<title>node_0x503000000160&#45;&gt;node_0x503000000130</title>
<path fill="none" stroke="#34cb34" d="M1601.89,-125.33C1601.89,-125.33 1576.15,-125.33 1576.15,-125.33"/>
<polygon fill="#34cb34" stroke="#34cb34" points="1576.15,-121.83 1566.15,-125.33 1576.15,-128.83 1576.15,-121.83"/>
</g>
<!-- node_0x503000000190 -->
<g id="node6" class="node">
<title>node_0x503000000190</title>
<path fill="#34cb34" stroke="#ffe9c7" d="M2015,-48.5C2015,-48.5 2355,-48.5 2355,-48.5 2361,-48.5 2367,-54.5 2367,-60.5 2367,-60.5 2367,-151.5 2367,-151.5 2367,-157.5 2361,-163.5 2355,-163.5 2355,-163.5 2015,-163.5 2015,-163.5 2009,-163.5 2003,-157.5 2003,-151.5 2003,-151.5 2003,-60.5 2003,-60.5 2003,-54.5 2009,-48.5 2015,-48.5"/>
<text text-anchor="middle" x="2185" y="-148.3" font-family="Times,serif" font-size="14.00">num: 4</text>
<polyline fill="none" stroke="#ffe9c7" points="2003,-140.5 2367,-140.5 "/>
<text text-anchor="middle" x="2185" y="-125.3" font-family="Times,serif" font-size="14.00">data_type: Identifier</text>
<polyline fill="none" stroke="#ffe9c7" points="2003,-117.5 2367,-117.5 "/>
<text text-anchor="middle" x="2185" y="-102.3" font-family="Times,serif" font-size="14.00">data: one</text>
<polyline fill="none" stroke="#ffe9c7" points="2003,-94.5 2367,-94.5 "/>
<text text-anchor="middle" x="2185" y="-79.3" font-family="Times,serif" font-size="14.00">curr: 0x503000000190</text>
<polyline fill="none" stroke="#ffe9c7" points="2003,-71.5 2367,-71.5 "/>
<text text-anchor="middle" x="2094.5" y="-56.3" font-family="Times,serif" font-size="14.00">prev: 0x503000000160</text>
<polyline fill="none" stroke="#ffe9c7" points="2186,-48.5 2186,-71.5 "/>
<text text-anchor="middle" x="2276.5" y="-56.3" font-family="Times,serif" font-size="14.00">next: 0x5030000001c0</text>
</g>
<!-- node_0x503000000160&#45;&gt;node_0x503000000190 -->
<g id="edge9" class="edge">
<title>node_0x503000000160&#45;&gt;node_0x503000000190</title>
<path fill="none" stroke="#ff6699" d="M1967.17,-86.67C1967.17,-86.67 1992.84,-86.67 1992.84,-86.67"/>
<polygon fill="#ff6699" stroke="#ff6699" points="1992.84,-90.17 2002.84,-86.67 1992.84,-83.17 1992.84,-90.17"/>
</g>
<!-- node_0x503000000190&#45;&gt;node_0x503000000160 -->
<g id="edge12" class="edge">
<title>node_0x503000000190&#45;&gt;node_0x503000000160</title>
<path fill="none" stroke="#34cb34" d="M2002.91,-125.33C2002.91,-125.33 1977.18,-125.33 1977.18,-125.33"/>
<polygon fill="#34cb34" stroke="#34cb34" points="1977.18,-121.83 1967.18,-125.33 1977.18,-128.83 1977.18,-121.83"/>
</g>
<!-- node_0x5030000001c0 -->
<g id="node7" class="node">
<title>node_0x5030000001c0</title>
<path fill="#9966ff" stroke="#ffe9c7" d="M2415,-48.5C2415,-48.5 2753,-48.5 2753,-48.5 2759,-48.5 2765,-54.5 2765,-60.5 2765,-60.5 2765,-151.5 2765,-151.5 2765,-157.5 2759,-163.5 2753,-163.5 2753,-163.5 2415,-163.5 2415,-163.5 2409,-163.5 2403,-157.5 2403,-151.5 2403,-151.5 2403,-60.5 2403,-60.5 2403,-54.5 2409,-48.5 2415,-48.5"/>
<text text-anchor="middle" x="2584" y="-148.3" font-family="Times,serif" font-size="14.00">num: 5</text>
<polyline fill="none" stroke="#ffe9c7" points="2403,-140.5 2765,-140.5 "/>
<text text-anchor="middle" x="2584" y="-125.3" font-family="Times,serif" font-size="14.00">data_type: KeyWord</text>
<polyline fill="none" stroke="#ffe9c7" points="2403,-117.5 2765,-117.5 "/>
<text text-anchor="middle" x="2584" y="-102.3" font-family="Times,serif" font-size="14.00">data: )</text>
<polyline fill="none" stroke="#ffe9c7" points="2403,-94.5 2765,-94.5 "/>
<text text-anchor="middle" x="2584" y="-79.3" font-family="Times,serif" font-size="14.00">curr: 0x5030000001c0</text>
<polyline fill="none" stroke="#ffe9c7" points="2403,-71.5 2765,-71.5 "/>
<text text-anchor="middle" x="2494.5" y="-56.3" font-family="Times,serif" font-size="14.00">prev: 0x503000000190</text>
<polyline fill="none" stroke="#ffe9c7" points="2586,-48.5 2586,-71.5 "/>
<text text-anchor="middle" x="2675.5" y="-56.3" font-family="Times,serif" font-size="14.00">next: 0x5030000001f0</text>
</g>
<!-- node_0x503000000190&#45;&gt;node_0x5030000001c0 -->
<g id="edge11" class="edge">
<title>node_0x503000000190&#45;&gt;node_0x5030000001c0</title>
<path fill="none" stroke="#ff6699" d="M2367.28,-86.67C2367.28,-86.67 2392.78,-86.67 2392.78,-86.67"/>
<polygon fill="#ff6699" stroke="#ff6699" points="2392.78,-90.17 2402.78,-86.67 2392.78,-83.17 2392.78,-90.17"/>
</g>
<!-- node_0x5030000001c0&#45;&gt;node_0x503000000190 -->
<g id="edge14" class="edge">
<title>node_0x5030000001c0&#45;&gt;node_0x503000000190</title>
<path fill="none" stroke="#34cb34" d="M2402.89,-125.33C2402.89,-125.33 2377.26,-125.33 2377.26,-125.33"/>
<polygon fill="#34cb34" stroke="#34cb34" points="2377.26,-121.83 2367.26,-125.33 2377.26,-128.83 2377.26,-121.83"/>
</g>
<!-- node_0x5030000001f0 -->
<g id="node8" class="node">
<title>node_0x5030000001f0</title>
<path fill="#9966ff" stroke="#ffe9c7" d="M2813,-48.5C2813,-48.5 3153,-48.5 3153,-48.5 3159,-48.5 3165,-54.5 3165,-60.5 3165,-60.5 3165,-151.5 3165,-151.5 3165,-157.5 3159,-163.5 3153,-163.5 3153,-163.5 2813,-163.5 2813,-163.5 2807,-163.5 2801,-157.5 2801,-151.5 2801,-151.5 2801,-60.5 2801,-60.5 2801,-54.5 2807,-48.5 2813,-48.5"/>
<text text-anchor="middle" x="2983" y="-148.3" font-family="Times,serif" font-size="14.00">num: 6</text>
<polyline fill="none" stroke="#ffe9c7" points="2801,-140.5 3165,-140.5 "/>
<text text-anchor="middle" x="2983" y="-125.3" font-family="Times,serif" font-size="14.00">data_type: KeyWord</text>
<polyline fill="none" stroke="#ffe9c7" points="2801,-117.5 3165,-117.5 "/>
<text text-anchor="middle" x="2983" y="-102.3" font-family="Times,serif" font-size="14.00">data: {</text>
<polyline fill="none" stroke="#ffe9c7" points="2801,-94.5 3165,-94.5 "/>
<text text-anchor="middle" x="2983" y="-79.3" font-family="Times,serif" font-size="14.00">curr: 0x5030000001f0</text>
<polyline fill="none" stroke="#ffe9c7" points="2801,-71.5 3165,-71.5 "/>
<text text-anchor="middle" x="2892" y="-56.3" font-family="Times,serif" font-size="14.00">prev: 0x5030000001c0</text>
<polyline fill="none" stroke="#ffe9c7" points="2983,-48.5 2983,-71.5 "/>
<text text-anchor="middle" x="3074" y="-56.3" font-family="Times,serif" font-size="14.00">next: 0x503000000220</text>
</g>
<!-- node_0x5030000001c0&#45;&gt;node_0x5030000001f0 -->
<g id="edge13" class="edge">
<title>node_0x5030000001c0&#45;&gt;node_0x5030000001f0</title>
<path fill="none" stroke="#ff6699" d="M2765.11,-86.67C2765.11,-86.67 2790.74,-86.67 2790.74,-86.67"/>
<polygon fill="#ff6699" stroke="#ff6699" points="2790.74,-90.17 2800.74,-86.67 2790.74,-83.17 2790.74,-90.17"/>
</g>
<!-- node_0x5030000001f0&#45;&gt;node_0x5030000001c0 -->
<g id="edge16" class="edge">
<title>node_0x5030000001f0&#45;&gt;node_0x5030000001c0</title>
<path fill="none" stroke="#34cb34" d="M2800.72,-125.33C2800.72,-125.33 2775.22,-125.33 2775.22,-125.33"/>
<polygon fill="#34cb34" stroke="#34cb34" points="2775.22,-121.83 2765.22,-125.33 2775.22,-128.83 2775.22,-121.83"/>
</g>
<!-- node_0x503000000220 -->
<g id="node9" class="node">
<title>node_0x503000000220</title>
<path fill="#9966ff" stroke="#ffe9c7" d="M3213,-48.5C3213,-48.5 3550,-48.5 3550,-48.5 3556,-48.5 3562,-54.5 3562,-60.5 3562,-60.5 3562,-151.5 3562,-151.5 3562,-157.5 3556,-163.5 3550,-163.5 3550,-163.5 3213,-163.5 3213,-163.5 3207,-163.5 3201,-157.5 3201,-151.5 3201,-151.5 3201,-60.5 3201,-60.5 3201,-54.5 3207,-48.5 3213,-48.5"/>
<text text-anchor="middle" x="3381.5" y="-148.3" font-family="Times,serif" font-size="14.00">num: 7</text>
<polyline fill="none" stroke="#ffe9c7" points="3201,-140.5 3562,-140.5 "/>
<text text-anchor="middle" x="3381.5" y="-125.3" font-family="Times,serif" font-size="14.00">data_type: KeyWord</text>
<polyline fill="none" stroke="#ffe9c7" points="3201,-117.5 3562,-117.5 "/>
<text text-anchor="middle" x="3381.5" y="-102.3" font-family="Times,serif" font-size="14.00">data: int</text>
<polyline fill="none" stroke="#ffe9c7" points="3201,-94.5 3562,-94.5 "/>
<text text-anchor="middle" x="3381.5" y="-79.3" font-family="Times,serif" font-size="14.00">curr: 0x503000000220</text>
<polyline fill="none" stroke="#ffe9c7" points="3201,-71.5 3562,-71.5 "/>
<text text-anchor="middle" x="3290.5" y="-56.3" font-family="Times,serif" font-size="14.00">prev: 0x5030000001f0</text>
<polyline fill="none" stroke="#ffe9c7" points="3380,-48.5 3380,-71.5 "/>
<text text-anchor="middle" x="3471" y="-56.3" font-family="Times,serif" font-size="14.00">next: 0x503000000250</text>
</g>
<!-- node_0x5030000001f0&#45;&gt;node_0x503000000220 -->
<g id="edge15" class="edge">
<title>node_0x5030000001f0&#45;&gt;node_0x503000000220</title>
<path fill="none" stroke="#ff6699" d="M3165.05,-86.67C3165.05,-86.67 3190.81,-86.67 3190.81,-86.67"/>
<polygon fill="#ff6699" stroke="#ff6699" points="3190.81,-90.17 3200.81,-86.67 3190.81,-83.17 3190.81,-90.17"/>
</g>
<!-- node_0x503000000220&#45;&gt;node_0x5030000001f0 -->
<g id="edge18" class="edge">
<title>node_0x503000000220&#45;&gt;node_0x5030000001f0</title>
<path fill="none" stroke="#34cb34" d="M3200.91,-125.33C3200.91,-125.33 3175.29,-125.33 3175.29,-125.33"/>
<polygon fill="#34cb34" stroke="#34cb34" points="3175.29,-121.83 3165.29,-125.33 3175.29,-128.83 3175.29,-121.83"/>
</g>
<!-- node_0x503000000250 -->
<g id="node10" class="node">
<title>node_0x503000000250</title>
<path fill="#34cb34" stroke="#ffe9c7" d="M3610,-48.5C3610,-48.5 3951,-48.5 3951,-48.5 3957,-48.5 3963,-54.5 3963,-60.5 3963,-60.5 3963,-151.5 3963,-151.5 3963,-157.5 3957,-163.5 3951,-163.5 3951,-163.5 3610,-163.5 3610,-163.5 3604,-163.5 3598,-157.5 3598,-151.5 3598,-151.5 3598,-60.5 3598,-60.5 3598,-54.5 3604,-48.5 3610,-48.5"/>
<text text-anchor="middle" x="3780.5" y="-148.3" font-family="Times,serif" font-size="14.00">num: 8</text>
<polyline fill="none" stroke="#ffe9c7" points="3598,-140.5 3963,-140.5 "/>
<text text-anchor="middle" x="3780.5" y="-125.3" font-family="Times,serif" font-size="14.00">data_type: Identifier</text>
<polyline fill="none" stroke="#ffe9c7" points="3598,-117.5 3963,-117.5 "/>
<text text-anchor="middle" x="3780.5" y="-102.3" font-family="Times,serif" font-size="14.00">data: one</text>
<polyline fill="none" stroke="#ffe9c7" points="3598,-94.5 3963,-94.5 "/>
<text text-anchor="middle" x="3780.5" y="-79.3" font-family="Times,serif" font-size="14.00">curr: 0x503000000250</text>
<polyline fill="none" stroke="#ffe9c7" points="3598,-71.5 3963,-71.5 "/>
<text text-anchor="middle" x="3689.5" y="-56.3" font-family="Times,serif" font-size="14.00">prev: 0x503000000220</text>
<polyline fill="none" stroke="#ffe9c7" points="3781,-48.5 3781,-71.5 "/>
<text text-anchor="middle" x="3872" y="-56.3" font-family="Times,serif" font-size="14.00">next: 0x503000000280</text>
</g>
<!-- node_0x503000000220&#45;&gt;node_0x503000000250 -->
<g id="edge17" class="edge">
<title>node_0x503000000220&#45;&gt;node_0x503000000250</title>
<path fill="none" stroke="#ff6699" d="M3562.03,-86.67C3562.03,-86.67 3587.73,-86.67 3587.73,-86.67"/>
<polygon fill="#ff6699" stroke="#ff6699" points="3587.73,-90.17 3597.73,-86.67 3587.73,-83.17 3587.73,-90.17"/>
</g>
<!-- node_0x503000000250&#45;&gt;node_0x503000000220 -->
<g id="edge20" class="edge">
<title>node_0x503000000250&#45;&gt;node_0x503000000220</title>
<path fill="none" stroke="#34cb34" d="M3597.93,-125.33C3597.93,-125.33 3572.16,-125.33 3572.16,-125.33"/>
<polygon fill="#34cb34" stroke="#34cb34" points="3572.16,-121.83 3562.16,-125.33 3572.16,-128.83 3572.16,-121.83"/>
</g>
<!-- node_0x503000000280 -->
<g id="node11" class="node">
<title>node_0x503000000280</title>
<path fill="#9966ff" stroke="#ffe9c7" d="M4011,-48.5C4011,-48.5 4352,-48.5 4352,-48.5 4358,-48.5 4364,-54.5 4364,-60.5 4364,-60.5 4364,-151.5 4364,-151.5 4364,-157.5 4358,-163.5 4352,-163.5 4352,-163.5 4011,-163.5 4011,-163.5 4005,-163.5 3999,-157.5 3999,-151.5 3999,-151.5 3999,-60.5 3999,-60.5 3999,-54.5 4005,-48.5 4011,-48.5"/>
<text text-anchor="middle" x="4181.5" y="-148.3" font-family="Times,serif" font-size="14.00">num: 9</text>
<polyline fill="none" stroke="#ffe9c7" points="3999,-140.5 4364,-140.5 "/>
<text text-anchor="middle" x="4181.5" y="-125.3" font-family="Times,serif" font-size="14.00">data_type: KeyWord</text>
<polyline fill="none" stroke="#ffe9c7" points="3999,-117.5 4364,-117.5 "/>
<text text-anchor="middle" x="4181.5" y="-102.3" font-family="Times,serif" font-size="14.00">data: =</text>
<polyline fill="none" stroke="#ffe9c7" points="3999,-94.5 4364,-94.5 "/>
<text text-anchor="middle" x="4181.5" y="-79.3" font-family="Times,serif" font-size="14.00">curr: 0x503000000280</text>
<polyline fill="none" stroke="#ffe9c7" points="3999,-71.5 4364,-71.5 "/>
<text text-anchor="middle" x="4090.5" y="-56.3" font-family="Times,serif" font-size="14.00">prev: 0x503000000250</text>
<polyline fill="none" stroke="#ffe9c7" points="4182,-48.5 4182,-71.5 "/>
<text text-anchor="middle" x="4273" y="-56.3" font-family="Times,serif" font-size="14.00">next: 0x5030000002b0</text>
</g>
<!-- node_0x503000000250&#45;&gt;node_0x503000000280 -->
<g id="edge19" class="edge">
<title>node_0x503000000250&#45;&gt;node_0x503000000280</title>
<path fill="none" stroke="#ff6699" d="M3963.11,-86.67C3963.11,-86.67 3988.85,-86.67 3988.85,-86.67"/>
<polygon fill="#ff6699" stroke="#ff6699" points="3988.85,-90.17 3998.85,-86.67 3988.85,-83.17 3988.85,-90.17"/>
</g>
<!-- node_0x503000000280&#45;&gt;node_0x503000000250 -->
<g id="edge22" class="edge">
<title>node_0x503000000280&#45;&gt;node_0x503000000250</title>
<path fill="none" stroke="#34cb34" d="M3998.89,-125.33C3998.89,-125.33 3973.15,-125.33 3973.15,-125.33"/>
<polygon fill="#34cb34" stroke="#34cb34" points="3973.15,-121.83 3963.15,-125.33 3973.15,-128.83 3973.15,-121.83"/>
</g>
<!-- node_0x5030000002b0 -->
<g id="node12" class="node">
<title>node_0x5030000002b0</title>
<path fill="#e8d92e" stroke="#ffe9c7" d="M4412,-48.5C4412,-48.5 4753,-48.5 4753,-48.5 4759,-48.5 4765,-54.5 4765,-60.5 4765,-60.5 4765,-151.5 4765,-151.5 4765,-157.5 4759,-163.5 4753,-163.5 4753,-163.5 4412,-163.5 4412,-163.5 4406,-163.5 4400,-157.5 4400,-151.5 4400,-151.5 4400,-60.5 4400,-60.5 4400,-54.5 4406,-48.5 4412,-48.5"/>
<text text-anchor="middle" x="4582.5" y="-148.3" font-family="Times,serif" font-size="14.00">num: 10</text>
<polyline fill="none" stroke="#ffe9c7" points="4400,-140.5 4765,-140.5 "/>
<text text-anchor="middle" x="4582.5" y="-125.3" font-family="Times,serif" font-size="14.00">data_type: Constant</text>
<polyline fill="none" stroke="#ffe9c7" points="4400,-117.5 4765,-117.5 "/>
<text text-anchor="middle" x="4582.5" y="-102.3" font-family="Times,serif" font-size="14.00">data: 1</text>
<polyline fill="none" stroke="#ffe9c7" points="4400,-94.5 4765,-94.5 "/>
<text text-anchor="middle" x="4582.5" y="-79.3" font-family="Times,serif" font-size="14.00">curr: 0x5030000002b0</text>
<polyline fill="none" stroke="#ffe9c7" points="4400,-71.5 4765,-71.5 "/>
<text text-anchor="middle" x="4491.5" y="-56.3" font-family="Times,serif" font-size="14.00">prev: 0x503000000280</text>
<polyline fill="none" stroke="#ffe9c7" points="4583,-48.5 4583,-71.5 "/>
<text text-anchor="middle" x="4674" y="-56.3" font-family="Times,serif" font-size="14.00">next: 0x5030000002e0</text>
</g>
<!-- node_0x503000000280&#45;&gt;node_0x5030000002b0 -->
<g id="edge21" class="edge">
<title>node_0x503000000280&#45;&gt;node_0x5030000002b0</title>
<path fill="none" stroke="#ff6699" d="M4364.11,-86.67C4364.11,-86.67 4389.85,-86.67 4389.85,-86.67"/>
<polygon fill="#ff6699" stroke="#ff6699" points="4389.85,-90.17 4399.85,-86.67 4389.85,-83.17 4389.85,-90.17"/>
</g>
<!-- node_0x5030000002b0&#45;&gt;node_0x503000000280 -->
<g id="edge24" class="edge">
<title>node_0x5030000002b0&#45;&gt;node_0x503000000280</title>
<path fill="none" stroke="#34cb34" d="M4399.89,-125.33C4399.89,-125.33 4374.15,-125.33 4374.15,-125.33"/>
<polygon fill="#34cb34" stroke="#34cb34" points="4374.15,-121.83 4364.15,-125.33 4374.15,-128.83 4374.15,-121.83"/>
</g>
<!-- node_0x5030000002e0 -->
<g id="node13" class="node">
<title>node_0x5030000002e0</title>
<path fill="#9966ff" stroke="#ffe9c7" d="M4813,-48.5C4813,-48.5 5154,-48.5 5154,-48.5 5160,-48.5 5166,-54.5 5166,-60.5 5166,-60.5 5166,-151.5 5166,-151.5 5166,-157.5 5160,-163.5 5154,-163.5 5154,-163.5 4813,-163.5 4813,-163.5 4807,-163.5 4801,-157.5 4801,-151.5 4801,-151.5 4801,-60.5 4801,-60.5 4801,-54.5 4807,-48.5 4813,-48.5"/>
<text text-anchor="middle" x="4983.5" y="-148.3" font-family="Times,serif" font-size="14.00">num: 11</text>
<polyline fill="none" stroke="#ffe9c7" points="4801,-140.5 5166,-140.5 "/>
<text text-anchor="middle" x="4983.5" y="-125.3" font-family="Times,serif" font-size="14.00">data_type: KeyWord</text>
<polyline fill="none" stroke="#ffe9c7" points="4801,-117.5 5166,-117.5 "/>
<text text-anchor="middle" x="4983.5" y="-102.3" font-family="Times,serif" font-size="14.00">data: ;</text>
<polyline fill="none" stroke="#ffe9c7" points="4801,-94.5 5166,-94.5 "/>
<text text-anchor="middle" x="4983.5" y="-79.3" font-family="Times,serif" font-size="14.00">curr: 0x5030000002e0</text>
<polyline fill="none" stroke="#ffe9c7" points="4801,-71.5 5166,-71.5 "/>
<text text-anchor="middle" x="4892.5" y="-56.3" font-family="Times,serif" font-size="14.00">prev: 0x5030000002b0</text>
<polyline fill="none" stroke="#ffe9c7" points="4984,-48.5 4984,-71.5 "/>
<text text-anchor="middle" x="5075" y="-56.3" font-family="Times,serif" font-size="14.00">next: 0x503000000310</text>
</g>
<!-- node_0x5030000002b0&#45;&gt;node_0x5030000002e0 -->
<g id="edge23" class="edge">
<title>node_0x5030000002b0&#45;&gt;node_0x5030000002e0</title>
<path fill="none" stroke="#ff6699" d="M4765.11,-86.67C4765.11,-86.67 4790.85,-86.67 4790.85,-86.67"/>
<polygon fill="#ff6699" stroke="#ff6699" points="4790.85,-90.17 4800.85,-86.67 4790.85,-83.17 4790.85,-90.17"/>
</g>
<!-- node_0x5030000002e0&#45;&gt;node_0x5030000002b0 -->
<g id="edge26" class="edge">
<title>node_0x5030000002e0&#45;&gt;node_0x5030000002b0</title>
<path fill="none" stroke="#34cb34" d="M4800.89,-125.33C4800.89,-125.33 4775.15,-125.33 4775.15,-125.33"/>
<polygon fill="#34cb34" stroke="#34cb34" points="4775.15,-121.83 4765.15,-125.33 4775.15,-128.83 4775.15,-121.83"/>
</g>
<!-- node_0x503000000310 -->
<g id="node14" class="node">
<title>node_0x503000000310</title>
<path fill="#9966ff" stroke="#ffe9c7" d="M5214,-48.5C5214,-48.5 5554,-48.5 5554,-48.5 5560,-48.5 5566,-54.5 5566,-60.5 5566,-60.5 5566,-151.5 5566,-151.5 5566,-157.5 5560,-163.5 5554,-163.5 5554,-163.5 5214,-163.5 5214,-163.5 5208,-163.5 5202,-157.5 5202,-151.5 5202,-151.5 5202,-60.5 5202,-60.5 5202,-54.5 5208,-48.5 5214,-48.5"/>
<text text-anchor="middle" x="5384" y="-148.3" font-family="Times,serif" font-size="14.00">num: 12</text>
<polyline fill="none" stroke="#ffe9c7" points="5202,-140.5 5566,-140.5 "/>
<text text-anchor="middle" x="5384" y="-125.3" font-family="Times,serif" font-size="14.00">data_type: KeyWord</text>
<polyline fill="none" stroke="#ffe9c7" points="5202,-117.5 5566,-117.5 "/>
<text text-anchor="middle" x="5384" y="-102.3" font-family="Times,serif" font-size="14.00">data: return</text>
<polyline fill="none" stroke="#ffe9c7" points="5202,-94.5 5566,-94.5 "/>
<text text-anchor="middle" x="5384" y="-79.3" font-family="Times,serif" font-size="14.00">curr: 0x503000000310</text>
<polyline fill="none" stroke="#ffe9c7" points="5202,-71.5 5566,-71.5 "/>
<text text-anchor="middle" x="5293" y="-56.3" font-family="Times,serif" font-size="14.00">prev: 0x5030000002e0</text>
<polyline fill="none" stroke="#ffe9c7" points="5384,-48.5 5384,-71.5 "/>
<text text-anchor="middle" x="5475" y="-56.3" font-family="Times,serif" font-size="14.00">next: 0x503000000340</text>
</g>
<!-- node_0x5030000002e0&#45;&gt;node_0x503000000310 -->
<g id="edge25" class="edge">
<title>node_0x5030000002e0&#45;&gt;node_0x503000000310</title>
<path fill="none" stroke="#ff6699" d="M5166.17,-86.67C5166.17,-86.67 5191.84,-86.67 5191.84,-86.67"/>
<polygon fill="#ff6699" stroke="#ff6699" points="5191.84,-90.17 5201.84,-86.67 5191.84,-83.17 5191.84,-90.17"/>
</g>
<!-- node_0x503000000310&#45;&gt;node_0x5030000002e0 -->
<g id="edge28" class="edge">
<title>node_0x503000000310&#45;&gt;node_0x5030000002e0</title>
<path fill="none" stroke="#34cb34" d="M5201.91,-125.33C5201.91,-125.33 5176.18,-125.33 5176.18,-125.33"/>
<polygon fill="#34cb34" stroke="#34cb34" points="5176.18,-121.83 5166.18,-125.33 5176.18,-128.83 5176.18,-121.83"/>
</g>
<!-- node_0x503000000340 -->
<g id="node15" class="node">
<title>node_0x503000000340</title>
<path fill="#34cb34" stroke="#ffe9c7" d="M5614,-48.5C5614,-48.5 5955,-48.5 5955,-48.5 5961,-48.5 5967,-54.5 5967,-60.5 5967,-60.5 5967,-151.5 5967,-151.5 5967,-157.5 5961,-163.5 5955,-163.5 5955,-163.5 5614,-163.5 5614,-163.5 5608,-163.5 5602,-157.5 5602,-151.5 5602,-151.5 5602,-60.5 5602,-60.5 5602,-54.5 5608,-48.5 5614,-48.5"/>
<text text-anchor="middle" x="5784.5" y="-148.3" font-family="Times,serif" font-size="14.00">num: 13</text>
<polyline fill="none" stroke="#ffe9c7" points="5602,-140.5 5967,-140.5 "/>
<text text-anchor="middle" x="5784.5" y="-125.3" font-family="Times,serif" font-size="14.00">data_type: Identifier</text>
<polyline fill="none" stroke="#ffe9c7" points="5602,-117.5 5967,-117.5 "/>
<text text-anchor="middle" x="5784.5" y="-102.3" font-family="Times,serif" font-size="14.00">data: one</text>
<polyline fill="none" stroke="#ffe9c7" points="5602,-94.5 5967,-94.5 "/>
<text text-anchor="middle" x="5784.5" y="-79.3" font-family="Times,serif" font-size="14.00">curr: 0x503000000340</text>
<polyline fill="none" stroke="#ffe9c7" points="5602,-71.5 5967,-71.5 "/>
<text text-anchor="middle" x="5693.5" y="-56.3" font-family="Times,serif" font-size="14.00">prev: 0x503000000310</text>
<polyline fill="none" stroke="#ffe9c7" points="5785,-48.5 5785,-71.5 "/>
<text text-anchor="middle" x="5876" y="-56.3" font-family="Times,serif" font-size="14.00">next: 0x503000000370</text>
</g>
<!-- node_0x503000000310&#45;&gt;node_0x503000000340 -->
<g id="edge27" class="edge">
<title>node_0x503000000310&#45;&gt;node_0x503000000340</title>
<path fill="none" stroke="#ff6699" d="M5566.09,-86.67C5566.09,-86.67 5591.82,-86.67 5591.82,-86.67"/>
<polygon fill="#ff6699" stroke="#ff6699" points="5591.82,-90.17 5601.82,-86.67 5591.82,-83.17 5591.82,-90.17"/>
</g>
<!-- node_0x503000000340&#45;&gt;node_0x503000000310 -->
<g id="edge30" class="edge">
<title>node_0x503000000340&#45;&gt;node_0x503000000310</title>
<path fill="none" stroke="#34cb34" d="M5601.83,-125.33C5601.83,-125.33 5576.16,-125.33 5576.16,-125.33"/>
<polygon fill="#34cb34" stroke="#34cb34" points="5576.16,-121.83 5566.16,-125.33 5576.16,-128.83 5576.16,-121.83"/>
</g>
<!-- node_0x503000000370 -->
<g id="node16" class="node">
<title>node_0x503000000370</title>
<path fill="#9966ff" stroke="#ffe9c7" d="M6015,-48.5C6015,-48.5 6356,-48.5 6356,-48.5 6362,-48.5 6368,-54.5 6368,-60.5 6368,-60.5 6368,-151.5 6368,-151.5 6368,-157.5 6362,-163.5 6356,-163.5 6356,-163.5 6015,-163.5 6015,-163.5 6009,-163.5 6003,-157.5 6003,-151.5 6003,-151.5 6003,-60.5 6003,-60.5 6003,-54.5 6009,-48.5 6015,-48.5"/>
<text text-anchor="middle" x="6185.5" y="-148.3" font-family="Times,serif" font-size="14.00">num: 14</text>
<polyline fill="none" stroke="#ffe9c7" points="6003,-140.5 6368,-140.5 "/>
<text text-anchor="middle" x="6185.5" y="-125.3" font-family="Times,serif" font-size="14.00">data_type: KeyWord</text>
<polyline fill="none" stroke="#ffe9c7" points="6003,-117.5 6368,-117.5 "/>
<text text-anchor="middle" x="6185.5" y="-102.3" font-family="Times,serif" font-size="14.00">data: ;</text>
<polyline fill="none" stroke="#ffe9c7" points="6003,-94.5 6368,-94.5 "/>
<text text-anchor="middle" x="6185.5" y="-79.3" font-family="Times,serif" font-size="14.00">curr: 0x503000000370</text>
<polyline fill="none" stroke="#ffe9c7" points="6003,-71.5 6368,-71.5 "/>
<text text-anchor="middle" x="6094.5" y="-56.3" font-family="Times,serif" font-size="14.00">prev: 0x503000000340</text>
<polyline fill="none" stroke="#ffe9c7" points="6186,-48.5 6186,-71.5 "/>
<text text-anchor="middle" x="6277" y="-56.3" font-family="Times,serif" font-size="14.00">next: 0x5030000003a0</text>
</g>
<!-- node_0x503000000340&#45;&gt;node_0x503000000370 -->
<g id="edge29" class="edge">
<title>node_0x503000000340&#45;&gt;node_0x503000000370</title>
<path fill="none" stroke="#ff6699" d="M5967.11,-86.67C5967.11,-86.67 5992.85,-86.67 5992.85,-86.67"/>
<polygon fill="#ff6699" stroke="#ff6699" points="5992.85,-90.17 6002.85,-86.67 5992.85,-83.17 5992.85,-90.17"/>
</g>
<!-- node_0x503000000370&#45;&gt;node_0x503000000340 -->
<g id="edge32" class="edge">
<title>node_0x503000000370&#45;&gt;node_0x503000000340</title>
<path fill="none" stroke="#34cb34" d="M6002.89,-125.33C6002.89,-125.33 5977.15,-125.33 5977.15,-125.33"/>
<polygon fill="#34cb34" stroke="#34cb34" points="5977.15,-121.83 5967.15,-125.33 5977.15,-128.83 5977.15,-121.83"/>
</g>
<!-- node_0x503000000370&#45;&gt;node_0x5030000003a0 -->
<g id="edge31" class="edge">
<title>node_0x503000000370&#45;&gt;node_0x5030000003a0</title>
<path fill="none" stroke="#ff6699" d="M6368.11,-70.67C6368.11,-70.67 6393.85,-70.67 6393.85,-70.67"/>
<polygon fill="#ff6699" stroke="#ff6699" points="6393.85,-74.17 6403.85,-70.67 6393.85,-67.17 6393.85,-74.17"/>
</g>
<!-- node_0x5030000003a0&#45;&gt;node_0x5030000000a0 -->
<g id="edge33" class="edge">
<title>node_0x5030000003a0&#45;&gt;node_0x5030000000a0</title>
<path fill="none" stroke="#ff6699" d="M6403.87,-35.83C6403.87,-35.83 374.3,-35.83 374.3,-35.83"/>
<polygon fill="#ff6699" stroke="#ff6699" points="374.3,-32.33 364.3,-35.83 374.3,-39.33 374.3,-32.33"/>
</g>
<!-- node_0x5030000003a0&#45;&gt;node_0x503000000370 -->
<g id="edge34" class="edge">
<title>node_0x5030000003a0&#45;&gt;node_0x503000000370</title>
<path fill="none" stroke="#34cb34" d="M6403.89,-93.33C6403.89,-93.33 6378.15,-93.33 6378.15,-93.33"/>
<polygon fill="#34cb34" stroke="#34cb34" points="6378.15,-89.83 6368.15,-93.33 6378.15,-96.83 6378.15,-89.83"/>
</g>
</g>
</svg>
