<?xml version="1.0" encoding="UTF-8" standalone="no"?>
<!DOCTYPE svg PUBLIC "-//W3C//DTD SVG 1.1//EN"
 "http://www.w3.org/Graphics/SVG/1.1/DTD/svg11.dtd">
<!-- Generated by graphviz version 2.43.0 (0)
 -->
<!-- Title: G Pages: 1 -->
<svg width="3571pt" height="213pt"
 viewBox="0.00 0.00 3571.00 213.00" xmlns="http://www.w3.org/2000/svg" xmlns:xlink="http://www.w3.org/1999/xlink">
<g id="graph0" class="graph" transform="scale(1 1) rotate(0) translate(4 209)">
<title>G</title>
<polygon fill="#ffd480" stroke="transparent" points="-4,4 -4,-209 3567,-209 3567,4 -4,4"/>
<text text-anchor="middle" x="1781.5" y="-177" font-family="DejaVu Sans" font-size="30.00" fill="#ffffff">List</text>
<!-- node_0x5030000000a0 -->
<g id="node1" class="node">
<title>node_0x5030000000a0</title>
<path fill="#ff6699" stroke="#ffe9c7" d="M12,-12C12,-12 353,-12 353,-12 359,-12 365,-18 365,-24 365,-24 365,-92 365,-92 365,-98 359,-104 353,-104 353,-104 12,-104 12,-104 6,-104 0,-98 0,-92 0,-92 0,-24 0,-24 0,-18 6,-12 12,-12"/>
<text text-anchor="middle" x="182.5" y="-88.8" font-family="Times,serif" font-size="14.00">Phantom</text>
<polyline fill="none" stroke="#ffe9c7" points="0,-81 365,-81 "/>
<text text-anchor="middle" x="182.5" y="-65.8" font-family="Times,serif" font-size="14.00">data: Phantom</text>
<polyline fill="none" stroke="#ffe9c7" points="0,-58 365,-58 "/>
<text text-anchor="middle" x="182.5" y="-42.8" font-family="Times,serif" font-size="14.00">curr: 0x5030000000a0</text>
<polyline fill="none" stroke="#ffe9c7" points="0,-35 365,-35 "/>
<text text-anchor="middle" x="91.5" y="-19.8" font-family="Times,serif" font-size="14.00">prev: 0x503000000250</text>
<polyline fill="none" stroke="#ffe9c7" points="183,-12 183,-35 "/>
<text text-anchor="middle" x="274" y="-19.8" font-family="Times,serif" font-size="14.00">next: 0x5030000000d0</text>
</g>
<!-- node_0x5030000000d0 -->
<g id="node2" class="node">
<title>node_0x5030000000d0</title>
<path fill="#9966ff" stroke="#ffe9c7" d="M413,-48.5C413,-48.5 753,-48.5 753,-48.5 759,-48.5 765,-54.5 765,-60.5 765,-60.5 765,-151.5 765,-151.5 765,-157.5 759,-163.5 753,-163.5 753,-163.5 413,-163.5 413,-163.5 407,-163.5 401,-157.5 401,-151.5 401,-151.5 401,-60.5 401,-60.5 401,-54.5 407,-48.5 413,-48.5"/>
<text text-anchor="middle" x="583" y="-148.3" font-family="Times,serif" font-size="14.00">num: 0</text>
<polyline fill="none" stroke="#ffe9c7" points="401,-140.5 765,-140.5 "/>
<text text-anchor="middle" x="583" y="-125.3" font-family="Times,serif" font-size="14.00">data_type: KeyWord</text>
<polyline fill="none" stroke="#ffe9c7" points="401,-117.5 765,-117.5 "/>
<text text-anchor="middle" x="583" y="-102.3" font-family="Times,serif" font-size="14.00">data: number</text>
<polyline fill="none" stroke="#ffe9c7" points="401,-94.5 765,-94.5 "/>
<text text-anchor="middle" x="583" y="-79.3" font-family="Times,serif" font-size="14.00">curr: 0x5030000000d0</text>
<polyline fill="none" stroke="#ffe9c7" points="401,-71.5 765,-71.5 "/>
<text text-anchor="middle" x="492" y="-56.3" font-family="Times,serif" font-size="14.00">prev: 0x5030000000a0</text>
<polyline fill="none" stroke="#ffe9c7" points="583,-48.5 583,-71.5 "/>
<text text-anchor="middle" x="674" y="-56.3" font-family="Times,serif" font-size="14.00">next: 0x503000000130</text>
</g>
<!-- node_0x5030000000a0&#45;&gt;node_0x5030000000d0 -->
<g id="edge1" class="edge">
<title>node_0x5030000000a0&#45;&gt;node_0x5030000000d0</title>
<path fill="none" stroke="#ff6699" d="M365.17,-66.83C365.17,-66.83 390.84,-66.83 390.84,-66.83"/>
<polygon fill="#ff6699" stroke="#ff6699" points="390.84,-70.33 400.84,-66.83 390.84,-63.33 390.84,-70.33"/>
</g>
<!-- node_0x503000000250 -->
<g id="node9" class="node">
<title>node_0x503000000250</title>
<path fill="#9966ff" stroke="#ffe9c7" d="M3210,-0.5C3210,-0.5 3551,-0.5 3551,-0.5 3557,-0.5 3563,-6.5 3563,-12.5 3563,-12.5 3563,-103.5 3563,-103.5 3563,-109.5 3557,-115.5 3551,-115.5 3551,-115.5 3210,-115.5 3210,-115.5 3204,-115.5 3198,-109.5 3198,-103.5 3198,-103.5 3198,-12.5 3198,-12.5 3198,-6.5 3204,-0.5 3210,-0.5"/>
<text text-anchor="middle" x="3380.5" y="-100.3" font-family="Times,serif" font-size="14.00">num: 7</text>
<polyline fill="none" stroke="#ffe9c7" points="3198,-92.5 3563,-92.5 "/>
<text text-anchor="middle" x="3380.5" y="-77.3" font-family="Times,serif" font-size="14.00">data_type: KeyWord</text>
<polyline fill="none" stroke="#ffe9c7" points="3198,-69.5 3563,-69.5 "/>
<text text-anchor="middle" x="3380.5" y="-54.3" font-family="Times,serif" font-size="14.00">data: ;</text>
<polyline fill="none" stroke="#ffe9c7" points="3198,-46.5 3563,-46.5 "/>
<text text-anchor="middle" x="3380.5" y="-31.3" font-family="Times,serif" font-size="14.00">curr: 0x503000000250</text>
<polyline fill="none" stroke="#ffe9c7" points="3198,-23.5 3563,-23.5 "/>
<text text-anchor="middle" x="3289.5" y="-8.3" font-family="Times,serif" font-size="14.00">prev: 0x503000000220</text>
<polyline fill="none" stroke="#ffe9c7" points="3381,-0.5 3381,-23.5 "/>
<text text-anchor="middle" x="3472" y="-8.3" font-family="Times,serif" font-size="14.00">next: 0x5030000000a0</text>
</g>
<!-- node_0x5030000000a0&#45;&gt;node_0x503000000250 -->
<g id="edge2" class="edge">
<title>node_0x5030000000a0&#45;&gt;node_0x503000000250</title>
<path fill="none" stroke="#34cb34" d="M365.05,-23.67C365.05,-23.67 3187.67,-23.67 3187.67,-23.67"/>
<polygon fill="#34cb34" stroke="#34cb34" points="3187.67,-27.17 3197.67,-23.67 3187.67,-20.17 3187.67,-27.17"/>
</g>
<!-- node_0x5030000000d0&#45;&gt;node_0x5030000000a0 -->
<g id="edge4" class="edge">
<title>node_0x5030000000d0&#45;&gt;node_0x5030000000a0</title>
<path fill="none" stroke="#34cb34" d="M400.91,-85.67C400.91,-85.67 375.18,-85.67 375.18,-85.67"/>
<polygon fill="#34cb34" stroke="#34cb34" points="375.18,-82.17 365.18,-85.67 375.18,-89.17 375.18,-82.17"/>
</g>
<!-- node_0x503000000130 -->
<g id="node3" class="node">
<title>node_0x503000000130</title>
<path fill="#34cb34" stroke="#ffe9c7" d="M813,-48.5C813,-48.5 1154,-48.5 1154,-48.5 1160,-48.5 1166,-54.5 1166,-60.5 1166,-60.5 1166,-151.5 1166,-151.5 1166,-157.5 1160,-163.5 1154,-163.5 1154,-163.5 813,-163.5 813,-163.5 807,-163.5 801,-157.5 801,-151.5 801,-151.5 801,-60.5 801,-60.5 801,-54.5 807,-48.5 813,-48.5"/>
<text text-anchor="middle" x="983.5" y="-148.3" font-family="Times,serif" font-size="14.00">num: 1</text>
<polyline fill="none" stroke="#ffe9c7" points="801,-140.5 1166,-140.5 "/>
<text text-anchor="middle" x="983.5" y="-125.3" font-family="Times,serif" font-size="14.00">data_type: Identifier</text>
<polyline fill="none" stroke="#ffe9c7" points="801,-117.5 1166,-117.5 "/>
<text text-anchor="middle" x="983.5" y="-102.3" font-family="Times,serif" font-size="14.00">data: x</text>
<polyline fill="none" stroke="#ffe9c7" points="801,-94.5 1166,-94.5 "/>
<text text-anchor="middle" x="983.5" y="-79.3" font-family="Times,serif" font-size="14.00">curr: 0x503000000130</text>
<polyline fill="none" stroke="#ffe9c7" points="801,-71.5 1166,-71.5 "/>
<text text-anchor="middle" x="892.5" y="-56.3" font-family="Times,serif" font-size="14.00">prev: 0x5030000000d0</text>
<polyline fill="none" stroke="#ffe9c7" points="984,-48.5 984,-71.5 "/>
<text text-anchor="middle" x="1075" y="-56.3" font-family="Times,serif" font-size="14.00">next: 0x503000000160</text>
</g>
<!-- node_0x5030000000d0&#45;&gt;node_0x503000000130 -->
<g id="edge3" class="edge">
<title>node_0x5030000000d0&#45;&gt;node_0x503000000130</title>
<path fill="none" stroke="#ff6699" d="M765.09,-86.67C765.09,-86.67 790.82,-86.67 790.82,-86.67"/>
<polygon fill="#ff6699" stroke="#ff6699" points="790.82,-90.17 800.82,-86.67 790.82,-83.17 790.82,-90.17"/>
</g>
<!-- node_0x503000000130&#45;&gt;node_0x5030000000d0 -->
<g id="edge6" class="edge">
<title>node_0x503000000130&#45;&gt;node_0x5030000000d0</title>
<path fill="none" stroke="#34cb34" d="M800.83,-125.33C800.83,-125.33 775.16,-125.33 775.16,-125.33"/>
<polygon fill="#34cb34" stroke="#34cb34" points="775.16,-121.83 765.16,-125.33 775.16,-128.83 775.16,-121.83"/>
</g>
<!-- node_0x503000000160 -->
<g id="node4" class="node">
<title>node_0x503000000160</title>
<path fill="#9966ff" stroke="#ffe9c7" d="M1214,-48.5C1214,-48.5 1555,-48.5 1555,-48.5 1561,-48.5 1567,-54.5 1567,-60.5 1567,-60.5 1567,-151.5 1567,-151.5 1567,-157.5 1561,-163.5 1555,-163.5 1555,-163.5 1214,-163.5 1214,-163.5 1208,-163.5 1202,-157.5 1202,-151.5 1202,-151.5 1202,-60.5 1202,-60.5 1202,-54.5 1208,-48.5 1214,-48.5"/>
<text text-anchor="middle" x="1384.5" y="-148.3" font-family="Times,serif" font-size="14.00">num: 2</text>
<polyline fill="none" stroke="#ffe9c7" points="1202,-140.5 1567,-140.5 "/>
<text text-anchor="middle" x="1384.5" y="-125.3" font-family="Times,serif" font-size="14.00">data_type: KeyWord</text>
<polyline fill="none" stroke="#ffe9c7" points="1202,-117.5 1567,-117.5 "/>
<text text-anchor="middle" x="1384.5" y="-102.3" font-family="Times,serif" font-size="14.00">data: =</text>
<polyline fill="none" stroke="#ffe9c7" points="1202,-94.5 1567,-94.5 "/>
<text text-anchor="middle" x="1384.5" y="-79.3" font-family="Times,serif" font-size="14.00">curr: 0x503000000160</text>
<polyline fill="none" stroke="#ffe9c7" points="1202,-71.5 1567,-71.5 "/>
<text text-anchor="middle" x="1293.5" y="-56.3" font-family="Times,serif" font-size="14.00">prev: 0x503000000130</text>
<polyline fill="none" stroke="#ffe9c7" points="1385,-48.5 1385,-71.5 "/>
<text text-anchor="middle" x="1476" y="-56.3" font-family="Times,serif" font-size="14.00">next: 0x503000000190</text>
</g>
<!-- node_0x503000000130&#45;&gt;node_0x503000000160 -->
<g id="edge5" class="edge">
<title>node_0x503000000130&#45;&gt;node_0x503000000160</title>
<path fill="none" stroke="#ff6699" d="M1166.11,-86.67C1166.11,-86.67 1191.85,-86.67 1191.85,-86.67"/>
<polygon fill="#ff6699" stroke="#ff6699" points="1191.85,-90.17 1201.85,-86.67 1191.85,-83.17 1191.85,-90.17"/>
</g>
<!-- node_0x503000000160&#45;&gt;node_0x503000000130 -->
<g id="edge8" class="edge">
<title>node_0x503000000160&#45;&gt;node_0x503000000130</title>
<path fill="none" stroke="#34cb34" d="M1201.89,-125.33C1201.89,-125.33 1176.15,-125.33 1176.15,-125.33"/>
<polygon fill="#34cb34" stroke="#34cb34" points="1176.15,-121.83 1166.15,-125.33 1176.15,-128.83 1176.15,-121.83"/>
</g>
<!-- node_0x503000000190 -->
<g id="node5" class="node">
<title>node_0x503000000190</title>
<path fill="#9966ff" stroke="#ffe9c7" d="M1615,-48.5C1615,-48.5 1955,-48.5 1955,-48.5 1961,-48.5 1967,-54.5 1967,-60.5 1967,-60.5 1967,-151.5 1967,-151.5 1967,-157.5 1961,-163.5 1955,-163.5 1955,-163.5 1615,-163.5 1615,-163.5 1609,-163.5 1603,-157.5 1603,-151.5 1603,-151.5 1603,-60.5 1603,-60.5 1603,-54.5 1609,-48.5 1615,-48.5"/>
<text text-anchor="middle" x="1785" y="-148.3" font-family="Times,serif" font-size="14.00">num: 3</text>
<polyline fill="none" stroke="#ffe9c7" points="1603,-140.5 1967,-140.5 "/>
<text text-anchor="middle" x="1785" y="-125.3" font-family="Times,serif" font-size="14.00">data_type: KeyWord</text>
<polyline fill="none" stroke="#ffe9c7" points="1603,-117.5 1967,-117.5 "/>
<text text-anchor="middle" x="1785" y="-102.3" font-family="Times,serif" font-size="14.00">data: sin</text>
<polyline fill="none" stroke="#ffe9c7" points="1603,-94.5 1967,-94.5 "/>
<text text-anchor="middle" x="1785" y="-79.3" font-family="Times,serif" font-size="14.00">curr: 0x503000000190</text>
<polyline fill="none" stroke="#ffe9c7" points="1603,-71.5 1967,-71.5 "/>
<text text-anchor="middle" x="1694.5" y="-56.3" font-family="Times,serif" font-size="14.00">prev: 0x503000000160</text>
<polyline fill="none" stroke="#ffe9c7" points="1786,-48.5 1786,-71.5 "/>
<text text-anchor="middle" x="1876.5" y="-56.3" font-family="Times,serif" font-size="14.00">next: 0x5030000001c0</text>
</g>
<!-- node_0x503000000160&#45;&gt;node_0x503000000190 -->
<g id="edge7" class="edge">
<title>node_0x503000000160&#45;&gt;node_0x503000000190</title>
<path fill="none" stroke="#ff6699" d="M1567.17,-86.67C1567.17,-86.67 1592.84,-86.67 1592.84,-86.67"/>
<polygon fill="#ff6699" stroke="#ff6699" points="1592.84,-90.17 1602.84,-86.67 1592.84,-83.17 1592.84,-90.17"/>
</g>
<!-- node_0x503000000190&#45;&gt;node_0x503000000160 -->
<g id="edge10" class="edge">
<title>node_0x503000000190&#45;&gt;node_0x503000000160</title>
<path fill="none" stroke="#34cb34" d="M1602.91,-125.33C1602.91,-125.33 1577.18,-125.33 1577.18,-125.33"/>
<polygon fill="#34cb34" stroke="#34cb34" points="1577.18,-121.83 1567.18,-125.33 1577.18,-128.83 1577.18,-121.83"/>
</g>
<!-- node_0x5030000001c0 -->
<g id="node6" class="node">
<title>node_0x5030000001c0</title>
<path fill="#9966ff" stroke="#ffe9c7" d="M2015,-48.5C2015,-48.5 2353,-48.5 2353,-48.5 2359,-48.5 2365,-54.5 2365,-60.5 2365,-60.5 2365,-151.5 2365,-151.5 2365,-157.5 2359,-163.5 2353,-163.5 2353,-163.5 2015,-163.5 2015,-163.5 2009,-163.5 2003,-157.5 2003,-151.5 2003,-151.5 2003,-60.5 2003,-60.5 2003,-54.5 2009,-48.5 2015,-48.5"/>
<text text-anchor="middle" x="2184" y="-148.3" font-family="Times,serif" font-size="14.00">num: 4</text>
<polyline fill="none" stroke="#ffe9c7" points="2003,-140.5 2365,-140.5 "/>
<text text-anchor="middle" x="2184" y="-125.3" font-family="Times,serif" font-size="14.00">data_type: KeyWord</text>
<polyline fill="none" stroke="#ffe9c7" points="2003,-117.5 2365,-117.5 "/>
<text text-anchor="middle" x="2184" y="-102.3" font-family="Times,serif" font-size="14.00">data: (</text>
<polyline fill="none" stroke="#ffe9c7" points="2003,-94.5 2365,-94.5 "/>
<text text-anchor="middle" x="2184" y="-79.3" font-family="Times,serif" font-size="14.00">curr: 0x5030000001c0</text>
<polyline fill="none" stroke="#ffe9c7" points="2003,-71.5 2365,-71.5 "/>
<text text-anchor="middle" x="2094.5" y="-56.3" font-family="Times,serif" font-size="14.00">prev: 0x503000000190</text>
<polyline fill="none" stroke="#ffe9c7" points="2186,-48.5 2186,-71.5 "/>
<text text-anchor="middle" x="2275.5" y="-56.3" font-family="Times,serif" font-size="14.00">next: 0x5030000001f0</text>
</g>
<!-- node_0x503000000190&#45;&gt;node_0x5030000001c0 -->
<g id="edge9" class="edge">
<title>node_0x503000000190&#45;&gt;node_0x5030000001c0</title>
<path fill="none" stroke="#ff6699" d="M1967.28,-86.67C1967.28,-86.67 1992.78,-86.67 1992.78,-86.67"/>
<polygon fill="#ff6699" stroke="#ff6699" points="1992.78,-90.17 2002.78,-86.67 1992.78,-83.17 1992.78,-90.17"/>
</g>
<!-- node_0x5030000001c0&#45;&gt;node_0x503000000190 -->
<g id="edge12" class="edge">
<title>node_0x5030000001c0&#45;&gt;node_0x503000000190</title>
<path fill="none" stroke="#34cb34" d="M2002.89,-125.33C2002.89,-125.33 1977.26,-125.33 1977.26,-125.33"/>
<polygon fill="#34cb34" stroke="#34cb34" points="1977.26,-121.83 1967.26,-125.33 1977.26,-128.83 1977.26,-121.83"/>
</g>
<!-- node_0x5030000001f0 -->
<g id="node7" class="node">
<title>node_0x5030000001f0</title>
<path fill="#e8d92e" stroke="#ffe9c7" d="M2413,-48.5C2413,-48.5 2753,-48.5 2753,-48.5 2759,-48.5 2765,-54.5 2765,-60.5 2765,-60.5 2765,-151.5 2765,-151.5 2765,-157.5 2759,-163.5 2753,-163.5 2753,-163.5 2413,-163.5 2413,-163.5 2407,-163.5 2401,-157.5 2401,-151.5 2401,-151.5 2401,-60.5 2401,-60.5 2401,-54.5 2407,-48.5 2413,-48.5"/>
<text text-anchor="middle" x="2583" y="-148.3" font-family="Times,serif" font-size="14.00">num: 5</text>
<polyline fill="none" stroke="#ffe9c7" points="2401,-140.5 2765,-140.5 "/>
<text text-anchor="middle" x="2583" y="-125.3" font-family="Times,serif" font-size="14.00">data_type: Constant</text>
<polyline fill="none" stroke="#ffe9c7" points="2401,-117.5 2765,-117.5 "/>
<text text-anchor="middle" x="2583" y="-102.3" font-family="Times,serif" font-size="14.00">data: 15</text>
<polyline fill="none" stroke="#ffe9c7" points="2401,-94.5 2765,-94.5 "/>
<text text-anchor="middle" x="2583" y="-79.3" font-family="Times,serif" font-size="14.00">curr: 0x5030000001f0</text>
<polyline fill="none" stroke="#ffe9c7" points="2401,-71.5 2765,-71.5 "/>
<text text-anchor="middle" x="2492" y="-56.3" font-family="Times,serif" font-size="14.00">prev: 0x5030000001c0</text>
<polyline fill="none" stroke="#ffe9c7" points="2583,-48.5 2583,-71.5 "/>
<text text-anchor="middle" x="2674" y="-56.3" font-family="Times,serif" font-size="14.00">next: 0x503000000220</text>
</g>
<!-- node_0x5030000001c0&#45;&gt;node_0x5030000001f0 -->
<g id="edge11" class="edge">
<title>node_0x5030000001c0&#45;&gt;node_0x5030000001f0</title>
<path fill="none" stroke="#ff6699" d="M2365.11,-86.67C2365.11,-86.67 2390.74,-86.67 2390.74,-86.67"/>
<polygon fill="#ff6699" stroke="#ff6699" points="2390.74,-90.17 2400.74,-86.67 2390.74,-83.17 2390.74,-90.17"/>
</g>
<!-- node_0x5030000001f0&#45;&gt;node_0x5030000001c0 -->
<g id="edge14" class="edge">
<title>node_0x5030000001f0&#45;&gt;node_0x5030000001c0</title>
<path fill="none" stroke="#34cb34" d="M2400.72,-125.33C2400.72,-125.33 2375.22,-125.33 2375.22,-125.33"/>
<polygon fill="#34cb34" stroke="#34cb34" points="2375.22,-121.83 2365.22,-125.33 2375.22,-128.83 2375.22,-121.83"/>
</g>
<!-- node_0x503000000220 -->
<g id="node8" class="node">
<title>node_0x503000000220</title>
<path fill="#9966ff" stroke="#ffe9c7" d="M2813,-48.5C2813,-48.5 3150,-48.5 3150,-48.5 3156,-48.5 3162,-54.5 3162,-60.5 3162,-60.5 3162,-151.5 3162,-151.5 3162,-157.5 3156,-163.5 3150,-163.5 3150,-163.5 2813,-163.5 2813,-163.5 2807,-163.5 2801,-157.5 2801,-151.5 2801,-151.5 2801,-60.5 2801,-60.5 2801,-54.5 2807,-48.5 2813,-48.5"/>
<text text-anchor="middle" x="2981.5" y="-148.3" font-family="Times,serif" font-size="14.00">num: 6</text>
<polyline fill="none" stroke="#ffe9c7" points="2801,-140.5 3162,-140.5 "/>
<text text-anchor="middle" x="2981.5" y="-125.3" font-family="Times,serif" font-size="14.00">data_type: KeyWord</text>
<polyline fill="none" stroke="#ffe9c7" points="2801,-117.5 3162,-117.5 "/>
<text text-anchor="middle" x="2981.5" y="-102.3" font-family="Times,serif" font-size="14.00">data: )</text>
<polyline fill="none" stroke="#ffe9c7" points="2801,-94.5 3162,-94.5 "/>
<text text-anchor="middle" x="2981.5" y="-79.3" font-family="Times,serif" font-size="14.00">curr: 0x503000000220</text>
<polyline fill="none" stroke="#ffe9c7" points="2801,-71.5 3162,-71.5 "/>
<text text-anchor="middle" x="2890.5" y="-56.3" font-family="Times,serif" font-size="14.00">prev: 0x5030000001f0</text>
<polyline fill="none" stroke="#ffe9c7" points="2980,-48.5 2980,-71.5 "/>
<text text-anchor="middle" x="3071" y="-56.3" font-family="Times,serif" font-size="14.00">next: 0x503000000250</text>
</g>
<!-- node_0x5030000001f0&#45;&gt;node_0x503000000220 -->
<g id="edge13" class="edge">
<title>node_0x5030000001f0&#45;&gt;node_0x503000000220</title>
<path fill="none" stroke="#ff6699" d="M2765.05,-86.67C2765.05,-86.67 2790.81,-86.67 2790.81,-86.67"/>
<polygon fill="#ff6699" stroke="#ff6699" points="2790.81,-90.17 2800.81,-86.67 2790.81,-83.17 2790.81,-90.17"/>
</g>
<!-- node_0x503000000220&#45;&gt;node_0x5030000001f0 -->
<g id="edge16" class="edge">
<title>node_0x503000000220&#45;&gt;node_0x5030000001f0</title>
<path fill="none" stroke="#34cb34" d="M2800.91,-125.33C2800.91,-125.33 2775.29,-125.33 2775.29,-125.33"/>
<polygon fill="#34cb34" stroke="#34cb34" points="2775.29,-121.83 2765.29,-125.33 2775.29,-128.83 2775.29,-121.83"/>
</g>
<!-- node_0x503000000220&#45;&gt;node_0x503000000250 -->
<g id="edge15" class="edge">
<title>node_0x503000000220&#45;&gt;node_0x503000000250</title>
<path fill="none" stroke="#ff6699" d="M3162.03,-70.67C3162.03,-70.67 3187.73,-70.67 3187.73,-70.67"/>
<polygon fill="#ff6699" stroke="#ff6699" points="3187.73,-74.17 3197.73,-70.67 3187.73,-67.17 3187.73,-74.17"/>
</g>
<!-- node_0x503000000250&#45;&gt;node_0x5030000000a0 -->
<g id="edge17" class="edge">
<title>node_0x503000000250&#45;&gt;node_0x5030000000a0</title>
<path fill="none" stroke="#ff6699" d="M3197.95,-35.83C3197.95,-35.83 375.33,-35.83 375.33,-35.83"/>
<polygon fill="#ff6699" stroke="#ff6699" points="375.33,-32.33 365.33,-35.83 375.33,-39.33 375.33,-32.33"/>
</g>
<!-- node_0x503000000250&#45;&gt;node_0x503000000220 -->
<g id="edge18" class="edge">
<title>node_0x503000000250&#45;&gt;node_0x503000000220</title>
<path fill="none" stroke="#34cb34" d="M3197.93,-93.33C3197.93,-93.33 3172.16,-93.33 3172.16,-93.33"/>
<polygon fill="#34cb34" stroke="#34cb34" points="3172.16,-89.83 3162.16,-93.33 3172.16,-96.83 3172.16,-89.83"/>
</g>
</g>
</svg>
