<?xml version="1.0" encoding="UTF-8" standalone="no"?>
<!DOCTYPE svg PUBLIC "-//W3C//DTD SVG 1.1//EN"
 "http://www.w3.org/Graphics/SVG/1.1/DTD/svg11.dtd">
<!-- Generated by graphviz version 2.43.0 (0)
 -->
<!-- Title: G Pages: 1 -->
<svg width="5976pt" height="213pt"
 viewBox="0.00 0.00 5976.00 213.00" xmlns="http://www.w3.org/2000/svg" xmlns:xlink="http://www.w3.org/1999/xlink">
<g id="graph0" class="graph" transform="scale(1 1) rotate(0) translate(4 209)">
<title>G</title>
<polygon fill="#ffd480" stroke="transparent" points="-4,4 -4,-209 5972,-209 5972,4 -4,4"/>
<text text-anchor="middle" x="2984" y="-177" font-family="DejaVu Sans" font-size="30.00" fill="#ffffff">List</text>
<!-- node_0x5030000000d0 -->
<g id="node1" class="node">
<title>node_0x5030000000d0</title>
<path fill="#ff6699" stroke="#ffe9c7" d="M12,-12C12,-12 353,-12 353,-12 359,-12 365,-18 365,-24 365,-24 365,-92 365,-92 365,-98 359,-104 353,-104 353,-104 12,-104 12,-104 6,-104 0,-98 0,-92 0,-92 0,-24 0,-24 0,-18 6,-12 12,-12"/>
<text text-anchor="middle" x="182.5" y="-88.8" font-family="Times,serif" font-size="14.00">Phantom</text>
<polyline fill="none" stroke="#ffe9c7" points="0,-81 365,-81 "/>
<text text-anchor="middle" x="182.5" y="-65.8" font-family="Times,serif" font-size="14.00">data: Phantom</text>
<polyline fill="none" stroke="#ffe9c7" points="0,-58 365,-58 "/>
<text text-anchor="middle" x="182.5" y="-42.8" font-family="Times,serif" font-size="14.00">curr: 0x5030000000d0</text>
<polyline fill="none" stroke="#ffe9c7" points="0,-35 365,-35 "/>
<text text-anchor="middle" x="91.5" y="-19.8" font-family="Times,serif" font-size="14.00">prev: 0x5030000003d0</text>
<polyline fill="none" stroke="#ffe9c7" points="183,-12 183,-35 "/>
<text text-anchor="middle" x="274" y="-19.8" font-family="Times,serif" font-size="14.00">next: 0x503000000100</text>
</g>
<!-- node_0x503000000100 -->
<g id="node2" class="node">
<title>node_0x503000000100</title>
<path fill="#9966ff" stroke="#ffe9c7" d="M413,-48.5C413,-48.5 754,-48.5 754,-48.5 760,-48.5 766,-54.5 766,-60.5 766,-60.5 766,-151.5 766,-151.5 766,-157.5 760,-163.5 754,-163.5 754,-163.5 413,-163.5 413,-163.5 407,-163.5 401,-157.5 401,-151.5 401,-151.5 401,-60.5 401,-60.5 401,-54.5 407,-48.5 413,-48.5"/>
<text text-anchor="middle" x="583.5" y="-148.3" font-family="Times,serif" font-size="14.00">num: 0</text>
<polyline fill="none" stroke="#ffe9c7" points="401,-140.5 766,-140.5 "/>
<text text-anchor="middle" x="583.5" y="-125.3" font-family="Times,serif" font-size="14.00">data_type: KeyWord</text>
<polyline fill="none" stroke="#ffe9c7" points="401,-117.5 766,-117.5 "/>
<text text-anchor="middle" x="583.5" y="-102.3" font-family="Times,serif" font-size="14.00">data: number</text>
<polyline fill="none" stroke="#ffe9c7" points="401,-94.5 766,-94.5 "/>
<text text-anchor="middle" x="583.5" y="-79.3" font-family="Times,serif" font-size="14.00">curr: 0x503000000100</text>
<polyline fill="none" stroke="#ffe9c7" points="401,-71.5 766,-71.5 "/>
<text text-anchor="middle" x="492.5" y="-56.3" font-family="Times,serif" font-size="14.00">prev: 0x5030000000d0</text>
<polyline fill="none" stroke="#ffe9c7" points="584,-48.5 584,-71.5 "/>
<text text-anchor="middle" x="675" y="-56.3" font-family="Times,serif" font-size="14.00">next: 0x503000000130</text>
</g>
<!-- node_0x5030000000d0&#45;&gt;node_0x503000000100 -->
<g id="edge1" class="edge">
<title>node_0x5030000000d0&#45;&gt;node_0x503000000100</title>
<path fill="none" stroke="#ff6699" d="M365.11,-66.83C365.11,-66.83 390.85,-66.83 390.85,-66.83"/>
<polygon fill="#ff6699" stroke="#ff6699" points="390.85,-70.33 400.85,-66.83 390.85,-63.33 390.85,-70.33"/>
</g>
<!-- node_0x5030000003d0 -->
<g id="node15" class="node">
<title>node_0x5030000003d0</title>
<path fill="#9966ff" stroke="#ffe9c7" d="M5616,-0.5C5616,-0.5 5956,-0.5 5956,-0.5 5962,-0.5 5968,-6.5 5968,-12.5 5968,-12.5 5968,-103.5 5968,-103.5 5968,-109.5 5962,-115.5 5956,-115.5 5956,-115.5 5616,-115.5 5616,-115.5 5610,-115.5 5604,-109.5 5604,-103.5 5604,-103.5 5604,-12.5 5604,-12.5 5604,-6.5 5610,-0.5 5616,-0.5"/>
<text text-anchor="middle" x="5786" y="-100.3" font-family="Times,serif" font-size="14.00">num: 13</text>
<polyline fill="none" stroke="#ffe9c7" points="5604,-92.5 5968,-92.5 "/>
<text text-anchor="middle" x="5786" y="-77.3" font-family="Times,serif" font-size="14.00">data_type: KeyWord</text>
<polyline fill="none" stroke="#ffe9c7" points="5604,-69.5 5968,-69.5 "/>
<text text-anchor="middle" x="5786" y="-54.3" font-family="Times,serif" font-size="14.00">data: }</text>
<polyline fill="none" stroke="#ffe9c7" points="5604,-46.5 5968,-46.5 "/>
<text text-anchor="middle" x="5786" y="-31.3" font-family="Times,serif" font-size="14.00">curr: 0x5030000003d0</text>
<polyline fill="none" stroke="#ffe9c7" points="5604,-23.5 5968,-23.5 "/>
<text text-anchor="middle" x="5695" y="-8.3" font-family="Times,serif" font-size="14.00">prev: 0x5030000003a0</text>
<polyline fill="none" stroke="#ffe9c7" points="5786,-0.5 5786,-23.5 "/>
<text text-anchor="middle" x="5877" y="-8.3" font-family="Times,serif" font-size="14.00">next: 0x5030000000d0</text>
</g>
<!-- node_0x5030000000d0&#45;&gt;node_0x5030000003d0 -->
<g id="edge2" class="edge">
<title>node_0x5030000000d0&#45;&gt;node_0x5030000003d0</title>
<path fill="none" stroke="#34cb34" d="M365.36,-23.67C365.36,-23.67 5593.75,-23.67 5593.75,-23.67"/>
<polygon fill="#34cb34" stroke="#34cb34" points="5593.75,-27.17 5603.75,-23.67 5593.74,-20.17 5593.75,-27.17"/>
</g>
<!-- node_0x503000000100&#45;&gt;node_0x5030000000d0 -->
<g id="edge4" class="edge">
<title>node_0x503000000100&#45;&gt;node_0x5030000000d0</title>
<path fill="none" stroke="#34cb34" d="M400.89,-85.67C400.89,-85.67 375.15,-85.67 375.15,-85.67"/>
<polygon fill="#34cb34" stroke="#34cb34" points="375.15,-82.17 365.15,-85.67 375.15,-89.17 375.15,-82.17"/>
</g>
<!-- node_0x503000000130 -->
<g id="node3" class="node">
<title>node_0x503000000130</title>
<path fill="#34cb34" stroke="#ffe9c7" d="M814,-48.5C814,-48.5 1155,-48.5 1155,-48.5 1161,-48.5 1167,-54.5 1167,-60.5 1167,-60.5 1167,-151.5 1167,-151.5 1167,-157.5 1161,-163.5 1155,-163.5 1155,-163.5 814,-163.5 814,-163.5 808,-163.5 802,-157.5 802,-151.5 802,-151.5 802,-60.5 802,-60.5 802,-54.5 808,-48.5 814,-48.5"/>
<text text-anchor="middle" x="984.5" y="-148.3" font-family="Times,serif" font-size="14.00">num: 1</text>
<polyline fill="none" stroke="#ffe9c7" points="802,-140.5 1167,-140.5 "/>
<text text-anchor="middle" x="984.5" y="-125.3" font-family="Times,serif" font-size="14.00">data_type: Identifier</text>
<polyline fill="none" stroke="#ffe9c7" points="802,-117.5 1167,-117.5 "/>
<text text-anchor="middle" x="984.5" y="-102.3" font-family="Times,serif" font-size="14.00">data: main</text>
<polyline fill="none" stroke="#ffe9c7" points="802,-94.5 1167,-94.5 "/>
<text text-anchor="middle" x="984.5" y="-79.3" font-family="Times,serif" font-size="14.00">curr: 0x503000000130</text>
<polyline fill="none" stroke="#ffe9c7" points="802,-71.5 1167,-71.5 "/>
<text text-anchor="middle" x="893.5" y="-56.3" font-family="Times,serif" font-size="14.00">prev: 0x503000000100</text>
<polyline fill="none" stroke="#ffe9c7" points="985,-48.5 985,-71.5 "/>
<text text-anchor="middle" x="1076" y="-56.3" font-family="Times,serif" font-size="14.00">next: 0x503000000160</text>
</g>
<!-- node_0x503000000100&#45;&gt;node_0x503000000130 -->
<g id="edge3" class="edge">
<title>node_0x503000000100&#45;&gt;node_0x503000000130</title>
<path fill="none" stroke="#ff6699" d="M766.11,-86.67C766.11,-86.67 791.85,-86.67 791.85,-86.67"/>
<polygon fill="#ff6699" stroke="#ff6699" points="791.85,-90.17 801.85,-86.67 791.85,-83.17 791.85,-90.17"/>
</g>
<!-- node_0x503000000130&#45;&gt;node_0x503000000100 -->
<g id="edge6" class="edge">
<title>node_0x503000000130&#45;&gt;node_0x503000000100</title>
<path fill="none" stroke="#34cb34" d="M801.89,-125.33C801.89,-125.33 776.15,-125.33 776.15,-125.33"/>
<polygon fill="#34cb34" stroke="#34cb34" points="776.15,-121.83 766.15,-125.33 776.15,-128.83 776.15,-121.83"/>
</g>
<!-- node_0x503000000160 -->
<g id="node4" class="node">
<title>node_0x503000000160</title>
<path fill="#9966ff" stroke="#ffe9c7" d="M1215,-48.5C1215,-48.5 1556,-48.5 1556,-48.5 1562,-48.5 1568,-54.5 1568,-60.5 1568,-60.5 1568,-151.5 1568,-151.5 1568,-157.5 1562,-163.5 1556,-163.5 1556,-163.5 1215,-163.5 1215,-163.5 1209,-163.5 1203,-157.5 1203,-151.5 1203,-151.5 1203,-60.5 1203,-60.5 1203,-54.5 1209,-48.5 1215,-48.5"/>
<text text-anchor="middle" x="1385.5" y="-148.3" font-family="Times,serif" font-size="14.00">num: 2</text>
<polyline fill="none" stroke="#ffe9c7" points="1203,-140.5 1568,-140.5 "/>
<text text-anchor="middle" x="1385.5" y="-125.3" font-family="Times,serif" font-size="14.00">data_type: KeyWord</text>
<polyline fill="none" stroke="#ffe9c7" points="1203,-117.5 1568,-117.5 "/>
<text text-anchor="middle" x="1385.5" y="-102.3" font-family="Times,serif" font-size="14.00">data: (</text>
<polyline fill="none" stroke="#ffe9c7" points="1203,-94.5 1568,-94.5 "/>
<text text-anchor="middle" x="1385.5" y="-79.3" font-family="Times,serif" font-size="14.00">curr: 0x503000000160</text>
<polyline fill="none" stroke="#ffe9c7" points="1203,-71.5 1568,-71.5 "/>
<text text-anchor="middle" x="1294.5" y="-56.3" font-family="Times,serif" font-size="14.00">prev: 0x503000000130</text>
<polyline fill="none" stroke="#ffe9c7" points="1386,-48.5 1386,-71.5 "/>
<text text-anchor="middle" x="1477" y="-56.3" font-family="Times,serif" font-size="14.00">next: 0x503000000190</text>
</g>
<!-- node_0x503000000130&#45;&gt;node_0x503000000160 -->
<g id="edge5" class="edge">
<title>node_0x503000000130&#45;&gt;node_0x503000000160</title>
<path fill="none" stroke="#ff6699" d="M1167.11,-86.67C1167.11,-86.67 1192.85,-86.67 1192.85,-86.67"/>
<polygon fill="#ff6699" stroke="#ff6699" points="1192.85,-90.17 1202.85,-86.67 1192.85,-83.17 1192.85,-90.17"/>
</g>
<!-- node_0x503000000160&#45;&gt;node_0x503000000130 -->
<g id="edge8" class="edge">
<title>node_0x503000000160&#45;&gt;node_0x503000000130</title>
<path fill="none" stroke="#34cb34" d="M1202.89,-125.33C1202.89,-125.33 1177.15,-125.33 1177.15,-125.33"/>
<polygon fill="#34cb34" stroke="#34cb34" points="1177.15,-121.83 1167.15,-125.33 1177.15,-128.83 1177.15,-121.83"/>
</g>
<!-- node_0x503000000190 -->
<g id="node5" class="node">
<title>node_0x503000000190</title>
<path fill="#9966ff" stroke="#ffe9c7" d="M1616,-48.5C1616,-48.5 1956,-48.5 1956,-48.5 1962,-48.5 1968,-54.5 1968,-60.5 1968,-60.5 1968,-151.5 1968,-151.5 1968,-157.5 1962,-163.5 1956,-163.5 1956,-163.5 1616,-163.5 1616,-163.5 1610,-163.5 1604,-157.5 1604,-151.5 1604,-151.5 1604,-60.5 1604,-60.5 1604,-54.5 1610,-48.5 1616,-48.5"/>
<text text-anchor="middle" x="1786" y="-148.3" font-family="Times,serif" font-size="14.00">num: 3</text>
<polyline fill="none" stroke="#ffe9c7" points="1604,-140.5 1968,-140.5 "/>
<text text-anchor="middle" x="1786" y="-125.3" font-family="Times,serif" font-size="14.00">data_type: KeyWord</text>
<polyline fill="none" stroke="#ffe9c7" points="1604,-117.5 1968,-117.5 "/>
<text text-anchor="middle" x="1786" y="-102.3" font-family="Times,serif" font-size="14.00">data: )</text>
<polyline fill="none" stroke="#ffe9c7" points="1604,-94.5 1968,-94.5 "/>
<text text-anchor="middle" x="1786" y="-79.3" font-family="Times,serif" font-size="14.00">curr: 0x503000000190</text>
<polyline fill="none" stroke="#ffe9c7" points="1604,-71.5 1968,-71.5 "/>
<text text-anchor="middle" x="1695.5" y="-56.3" font-family="Times,serif" font-size="14.00">prev: 0x503000000160</text>
<polyline fill="none" stroke="#ffe9c7" points="1787,-48.5 1787,-71.5 "/>
<text text-anchor="middle" x="1877.5" y="-56.3" font-family="Times,serif" font-size="14.00">next: 0x5030000001c0</text>
</g>
<!-- node_0x503000000160&#45;&gt;node_0x503000000190 -->
<g id="edge7" class="edge">
<title>node_0x503000000160&#45;&gt;node_0x503000000190</title>
<path fill="none" stroke="#ff6699" d="M1568.17,-86.67C1568.17,-86.67 1593.84,-86.67 1593.84,-86.67"/>
<polygon fill="#ff6699" stroke="#ff6699" points="1593.84,-90.17 1603.84,-86.67 1593.84,-83.17 1593.84,-90.17"/>
</g>
<!-- node_0x503000000190&#45;&gt;node_0x503000000160 -->
<g id="edge10" class="edge">
<title>node_0x503000000190&#45;&gt;node_0x503000000160</title>
<path fill="none" stroke="#34cb34" d="M1603.91,-125.33C1603.91,-125.33 1578.18,-125.33 1578.18,-125.33"/>
<polygon fill="#34cb34" stroke="#34cb34" points="1578.18,-121.83 1568.18,-125.33 1578.18,-128.83 1578.18,-121.83"/>
</g>
<!-- node_0x5030000001c0 -->
<g id="node6" class="node">
<title>node_0x5030000001c0</title>
<path fill="#9966ff" stroke="#ffe9c7" d="M2016,-48.5C2016,-48.5 2354,-48.5 2354,-48.5 2360,-48.5 2366,-54.5 2366,-60.5 2366,-60.5 2366,-151.5 2366,-151.5 2366,-157.5 2360,-163.5 2354,-163.5 2354,-163.5 2016,-163.5 2016,-163.5 2010,-163.5 2004,-157.5 2004,-151.5 2004,-151.5 2004,-60.5 2004,-60.5 2004,-54.5 2010,-48.5 2016,-48.5"/>
<text text-anchor="middle" x="2185" y="-148.3" font-family="Times,serif" font-size="14.00">num: 4</text>
<polyline fill="none" stroke="#ffe9c7" points="2004,-140.5 2366,-140.5 "/>
<text text-anchor="middle" x="2185" y="-125.3" font-family="Times,serif" font-size="14.00">data_type: KeyWord</text>
<polyline fill="none" stroke="#ffe9c7" points="2004,-117.5 2366,-117.5 "/>
<text text-anchor="middle" x="2185" y="-102.3" font-family="Times,serif" font-size="14.00">data: {</text>
<polyline fill="none" stroke="#ffe9c7" points="2004,-94.5 2366,-94.5 "/>
<text text-anchor="middle" x="2185" y="-79.3" font-family="Times,serif" font-size="14.00">curr: 0x5030000001c0</text>
<polyline fill="none" stroke="#ffe9c7" points="2004,-71.5 2366,-71.5 "/>
<text text-anchor="middle" x="2095.5" y="-56.3" font-family="Times,serif" font-size="14.00">prev: 0x503000000190</text>
<polyline fill="none" stroke="#ffe9c7" points="2187,-48.5 2187,-71.5 "/>
<text text-anchor="middle" x="2276.5" y="-56.3" font-family="Times,serif" font-size="14.00">next: 0x5030000001f0</text>
</g>
<!-- node_0x503000000190&#45;&gt;node_0x5030000001c0 -->
<g id="edge9" class="edge">
<title>node_0x503000000190&#45;&gt;node_0x5030000001c0</title>
<path fill="none" stroke="#ff6699" d="M1968.28,-86.67C1968.28,-86.67 1993.78,-86.67 1993.78,-86.67"/>
<polygon fill="#ff6699" stroke="#ff6699" points="1993.78,-90.17 2003.78,-86.67 1993.78,-83.17 1993.78,-90.17"/>
</g>
<!-- node_0x5030000001c0&#45;&gt;node_0x503000000190 -->
<g id="edge12" class="edge">
<title>node_0x5030000001c0&#45;&gt;node_0x503000000190</title>
<path fill="none" stroke="#34cb34" d="M2003.89,-125.33C2003.89,-125.33 1978.26,-125.33 1978.26,-125.33"/>
<polygon fill="#34cb34" stroke="#34cb34" points="1978.26,-121.83 1968.26,-125.33 1978.26,-128.83 1978.26,-121.83"/>
</g>
<!-- node_0x5030000001f0 -->
<g id="node7" class="node">
<title>node_0x5030000001f0</title>
<path fill="#9966ff" stroke="#ffe9c7" d="M2414,-48.5C2414,-48.5 2754,-48.5 2754,-48.5 2760,-48.5 2766,-54.5 2766,-60.5 2766,-60.5 2766,-151.5 2766,-151.5 2766,-157.5 2760,-163.5 2754,-163.5 2754,-163.5 2414,-163.5 2414,-163.5 2408,-163.5 2402,-157.5 2402,-151.5 2402,-151.5 2402,-60.5 2402,-60.5 2402,-54.5 2408,-48.5 2414,-48.5"/>
<text text-anchor="middle" x="2584" y="-148.3" font-family="Times,serif" font-size="14.00">num: 5</text>
<polyline fill="none" stroke="#ffe9c7" points="2402,-140.5 2766,-140.5 "/>
<text text-anchor="middle" x="2584" y="-125.3" font-family="Times,serif" font-size="14.00">data_type: KeyWord</text>
<polyline fill="none" stroke="#ffe9c7" points="2402,-117.5 2766,-117.5 "/>
<text text-anchor="middle" x="2584" y="-102.3" font-family="Times,serif" font-size="14.00">data: number</text>
<polyline fill="none" stroke="#ffe9c7" points="2402,-94.5 2766,-94.5 "/>
<text text-anchor="middle" x="2584" y="-79.3" font-family="Times,serif" font-size="14.00">curr: 0x5030000001f0</text>
<polyline fill="none" stroke="#ffe9c7" points="2402,-71.5 2766,-71.5 "/>
<text text-anchor="middle" x="2493" y="-56.3" font-family="Times,serif" font-size="14.00">prev: 0x5030000001c0</text>
<polyline fill="none" stroke="#ffe9c7" points="2584,-48.5 2584,-71.5 "/>
<text text-anchor="middle" x="2675" y="-56.3" font-family="Times,serif" font-size="14.00">next: 0x503000000250</text>
</g>
<!-- node_0x5030000001c0&#45;&gt;node_0x5030000001f0 -->
<g id="edge11" class="edge">
<title>node_0x5030000001c0&#45;&gt;node_0x5030000001f0</title>
<path fill="none" stroke="#ff6699" d="M2366.11,-86.67C2366.11,-86.67 2391.74,-86.67 2391.74,-86.67"/>
<polygon fill="#ff6699" stroke="#ff6699" points="2391.74,-90.17 2401.74,-86.67 2391.74,-83.17 2391.74,-90.17"/>
</g>
<!-- node_0x5030000001f0&#45;&gt;node_0x5030000001c0 -->
<g id="edge14" class="edge">
<title>node_0x5030000001f0&#45;&gt;node_0x5030000001c0</title>
<path fill="none" stroke="#34cb34" d="M2401.72,-125.33C2401.72,-125.33 2376.22,-125.33 2376.22,-125.33"/>
<polygon fill="#34cb34" stroke="#34cb34" points="2376.22,-121.83 2366.22,-125.33 2376.22,-128.83 2376.22,-121.83"/>
</g>
<!-- node_0x503000000250 -->
<g id="node8" class="node">
<title>node_0x503000000250</title>
<path fill="#34cb34" stroke="#ffe9c7" d="M2814,-48.5C2814,-48.5 3151,-48.5 3151,-48.5 3157,-48.5 3163,-54.5 3163,-60.5 3163,-60.5 3163,-151.5 3163,-151.5 3163,-157.5 3157,-163.5 3151,-163.5 3151,-163.5 2814,-163.5 2814,-163.5 2808,-163.5 2802,-157.5 2802,-151.5 2802,-151.5 2802,-60.5 2802,-60.5 2802,-54.5 2808,-48.5 2814,-48.5"/>
<text text-anchor="middle" x="2982.5" y="-148.3" font-family="Times,serif" font-size="14.00">num: 6</text>
<polyline fill="none" stroke="#ffe9c7" points="2802,-140.5 3163,-140.5 "/>
<text text-anchor="middle" x="2982.5" y="-125.3" font-family="Times,serif" font-size="14.00">data_type: Identifier</text>
<polyline fill="none" stroke="#ffe9c7" points="2802,-117.5 3163,-117.5 "/>
<text text-anchor="middle" x="2982.5" y="-102.3" font-family="Times,serif" font-size="14.00">data: x</text>
<polyline fill="none" stroke="#ffe9c7" points="2802,-94.5 3163,-94.5 "/>
<text text-anchor="middle" x="2982.5" y="-79.3" font-family="Times,serif" font-size="14.00">curr: 0x503000000250</text>
<polyline fill="none" stroke="#ffe9c7" points="2802,-71.5 3163,-71.5 "/>
<text text-anchor="middle" x="2891.5" y="-56.3" font-family="Times,serif" font-size="14.00">prev: 0x5030000001f0</text>
<polyline fill="none" stroke="#ffe9c7" points="2981,-48.5 2981,-71.5 "/>
<text text-anchor="middle" x="3072" y="-56.3" font-family="Times,serif" font-size="14.00">next: 0x503000000280</text>
</g>
<!-- node_0x5030000001f0&#45;&gt;node_0x503000000250 -->
<g id="edge13" class="edge">
<title>node_0x5030000001f0&#45;&gt;node_0x503000000250</title>
<path fill="none" stroke="#ff6699" d="M2766.05,-86.67C2766.05,-86.67 2791.81,-86.67 2791.81,-86.67"/>
<polygon fill="#ff6699" stroke="#ff6699" points="2791.81,-90.17 2801.81,-86.67 2791.81,-83.17 2791.81,-90.17"/>
</g>
<!-- node_0x503000000250&#45;&gt;node_0x5030000001f0 -->
<g id="edge16" class="edge">
<title>node_0x503000000250&#45;&gt;node_0x5030000001f0</title>
<path fill="none" stroke="#34cb34" d="M2801.91,-125.33C2801.91,-125.33 2776.29,-125.33 2776.29,-125.33"/>
<polygon fill="#34cb34" stroke="#34cb34" points="2776.29,-121.83 2766.29,-125.33 2776.29,-128.83 2776.29,-121.83"/>
</g>
<!-- node_0x503000000280 -->
<g id="node9" class="node">
<title>node_0x503000000280</title>
<path fill="#9966ff" stroke="#ffe9c7" d="M3211,-48.5C3211,-48.5 3552,-48.5 3552,-48.5 3558,-48.5 3564,-54.5 3564,-60.5 3564,-60.5 3564,-151.5 3564,-151.5 3564,-157.5 3558,-163.5 3552,-163.5 3552,-163.5 3211,-163.5 3211,-163.5 3205,-163.5 3199,-157.5 3199,-151.5 3199,-151.5 3199,-60.5 3199,-60.5 3199,-54.5 3205,-48.5 3211,-48.5"/>
<text text-anchor="middle" x="3381.5" y="-148.3" font-family="Times,serif" font-size="14.00">num: 7</text>
<polyline fill="none" stroke="#ffe9c7" points="3199,-140.5 3564,-140.5 "/>
<text text-anchor="middle" x="3381.5" y="-125.3" font-family="Times,serif" font-size="14.00">data_type: KeyWord</text>
<polyline fill="none" stroke="#ffe9c7" points="3199,-117.5 3564,-117.5 "/>
<text text-anchor="middle" x="3381.5" y="-102.3" font-family="Times,serif" font-size="14.00">data: =</text>
<polyline fill="none" stroke="#ffe9c7" points="3199,-94.5 3564,-94.5 "/>
<text text-anchor="middle" x="3381.5" y="-79.3" font-family="Times,serif" font-size="14.00">curr: 0x503000000280</text>
<polyline fill="none" stroke="#ffe9c7" points="3199,-71.5 3564,-71.5 "/>
<text text-anchor="middle" x="3290.5" y="-56.3" font-family="Times,serif" font-size="14.00">prev: 0x503000000250</text>
<polyline fill="none" stroke="#ffe9c7" points="3382,-48.5 3382,-71.5 "/>
<text text-anchor="middle" x="3473" y="-56.3" font-family="Times,serif" font-size="14.00">next: 0x5030000002b0</text>
</g>
<!-- node_0x503000000250&#45;&gt;node_0x503000000280 -->
<g id="edge15" class="edge">
<title>node_0x503000000250&#45;&gt;node_0x503000000280</title>
<path fill="none" stroke="#ff6699" d="M3163.03,-86.67C3163.03,-86.67 3188.73,-86.67 3188.73,-86.67"/>
<polygon fill="#ff6699" stroke="#ff6699" points="3188.73,-90.17 3198.73,-86.67 3188.73,-83.17 3188.73,-90.17"/>
</g>
<!-- node_0x503000000280&#45;&gt;node_0x503000000250 -->
<g id="edge18" class="edge">
<title>node_0x503000000280&#45;&gt;node_0x503000000250</title>
<path fill="none" stroke="#34cb34" d="M3198.93,-125.33C3198.93,-125.33 3173.16,-125.33 3173.16,-125.33"/>
<polygon fill="#34cb34" stroke="#34cb34" points="3173.16,-121.83 3163.16,-125.33 3173.16,-128.83 3173.16,-121.83"/>
</g>
<!-- node_0x5030000002b0 -->
<g id="node10" class="node">
<title>node_0x5030000002b0</title>
<path fill="#e8d92e" stroke="#ffe9c7" d="M3612,-48.5C3612,-48.5 3953,-48.5 3953,-48.5 3959,-48.5 3965,-54.5 3965,-60.5 3965,-60.5 3965,-151.5 3965,-151.5 3965,-157.5 3959,-163.5 3953,-163.5 3953,-163.5 3612,-163.5 3612,-163.5 3606,-163.5 3600,-157.5 3600,-151.5 3600,-151.5 3600,-60.5 3600,-60.5 3600,-54.5 3606,-48.5 3612,-48.5"/>
<text text-anchor="middle" x="3782.5" y="-148.3" font-family="Times,serif" font-size="14.00">num: 8</text>
<polyline fill="none" stroke="#ffe9c7" points="3600,-140.5 3965,-140.5 "/>
<text text-anchor="middle" x="3782.5" y="-125.3" font-family="Times,serif" font-size="14.00">data_type: Constant</text>
<polyline fill="none" stroke="#ffe9c7" points="3600,-117.5 3965,-117.5 "/>
<text text-anchor="middle" x="3782.5" y="-102.3" font-family="Times,serif" font-size="14.00">data: 15</text>
<polyline fill="none" stroke="#ffe9c7" points="3600,-94.5 3965,-94.5 "/>
<text text-anchor="middle" x="3782.5" y="-79.3" font-family="Times,serif" font-size="14.00">curr: 0x5030000002b0</text>
<polyline fill="none" stroke="#ffe9c7" points="3600,-71.5 3965,-71.5 "/>
<text text-anchor="middle" x="3691.5" y="-56.3" font-family="Times,serif" font-size="14.00">prev: 0x503000000280</text>
<polyline fill="none" stroke="#ffe9c7" points="3783,-48.5 3783,-71.5 "/>
<text text-anchor="middle" x="3874" y="-56.3" font-family="Times,serif" font-size="14.00">next: 0x5030000002e0</text>
</g>
<!-- node_0x503000000280&#45;&gt;node_0x5030000002b0 -->
<g id="edge17" class="edge">
<title>node_0x503000000280&#45;&gt;node_0x5030000002b0</title>
<path fill="none" stroke="#ff6699" d="M3564.11,-86.67C3564.11,-86.67 3589.85,-86.67 3589.85,-86.67"/>
<polygon fill="#ff6699" stroke="#ff6699" points="3589.85,-90.17 3599.85,-86.67 3589.85,-83.17 3589.85,-90.17"/>
</g>
<!-- node_0x5030000002b0&#45;&gt;node_0x503000000280 -->
<g id="edge20" class="edge">
<title>node_0x5030000002b0&#45;&gt;node_0x503000000280</title>
<path fill="none" stroke="#34cb34" d="M3599.89,-125.33C3599.89,-125.33 3574.15,-125.33 3574.15,-125.33"/>
<polygon fill="#34cb34" stroke="#34cb34" points="3574.15,-121.83 3564.15,-125.33 3574.15,-128.83 3574.15,-121.83"/>
</g>
<!-- node_0x5030000002e0 -->
<g id="node11" class="node">
<title>node_0x5030000002e0</title>
<path fill="#9966ff" stroke="#ffe9c7" d="M4013,-48.5C4013,-48.5 4354,-48.5 4354,-48.5 4360,-48.5 4366,-54.5 4366,-60.5 4366,-60.5 4366,-151.5 4366,-151.5 4366,-157.5 4360,-163.5 4354,-163.5 4354,-163.5 4013,-163.5 4013,-163.5 4007,-163.5 4001,-157.5 4001,-151.5 4001,-151.5 4001,-60.5 4001,-60.5 4001,-54.5 4007,-48.5 4013,-48.5"/>
<text text-anchor="middle" x="4183.5" y="-148.3" font-family="Times,serif" font-size="14.00">num: 9</text>
<polyline fill="none" stroke="#ffe9c7" points="4001,-140.5 4366,-140.5 "/>
<text text-anchor="middle" x="4183.5" y="-125.3" font-family="Times,serif" font-size="14.00">data_type: KeyWord</text>
<polyline fill="none" stroke="#ffe9c7" points="4001,-117.5 4366,-117.5 "/>
<text text-anchor="middle" x="4183.5" y="-102.3" font-family="Times,serif" font-size="14.00">data: ;</text>
<polyline fill="none" stroke="#ffe9c7" points="4001,-94.5 4366,-94.5 "/>
<text text-anchor="middle" x="4183.5" y="-79.3" font-family="Times,serif" font-size="14.00">curr: 0x5030000002e0</text>
<polyline fill="none" stroke="#ffe9c7" points="4001,-71.5 4366,-71.5 "/>
<text text-anchor="middle" x="4092.5" y="-56.3" font-family="Times,serif" font-size="14.00">prev: 0x5030000002b0</text>
<polyline fill="none" stroke="#ffe9c7" points="4184,-48.5 4184,-71.5 "/>
<text text-anchor="middle" x="4275" y="-56.3" font-family="Times,serif" font-size="14.00">next: 0x503000000310</text>
</g>
<!-- node_0x5030000002b0&#45;&gt;node_0x5030000002e0 -->
<g id="edge19" class="edge">
<title>node_0x5030000002b0&#45;&gt;node_0x5030000002e0</title>
<path fill="none" stroke="#ff6699" d="M3965.11,-86.67C3965.11,-86.67 3990.85,-86.67 3990.85,-86.67"/>
<polygon fill="#ff6699" stroke="#ff6699" points="3990.85,-90.17 4000.85,-86.67 3990.85,-83.17 3990.85,-90.17"/>
</g>
<!-- node_0x5030000002e0&#45;&gt;node_0x5030000002b0 -->
<g id="edge22" class="edge">
<title>node_0x5030000002e0&#45;&gt;node_0x5030000002b0</title>
<path fill="none" stroke="#34cb34" d="M4000.89,-125.33C4000.89,-125.33 3975.15,-125.33 3975.15,-125.33"/>
<polygon fill="#34cb34" stroke="#34cb34" points="3975.15,-121.83 3965.15,-125.33 3975.15,-128.83 3975.15,-121.83"/>
</g>
<!-- node_0x503000000310 -->
<g id="node12" class="node">
<title>node_0x503000000310</title>
<path fill="#9966ff" stroke="#ffe9c7" d="M4414,-48.5C4414,-48.5 4754,-48.5 4754,-48.5 4760,-48.5 4766,-54.5 4766,-60.5 4766,-60.5 4766,-151.5 4766,-151.5 4766,-157.5 4760,-163.5 4754,-163.5 4754,-163.5 4414,-163.5 4414,-163.5 4408,-163.5 4402,-157.5 4402,-151.5 4402,-151.5 4402,-60.5 4402,-60.5 4402,-54.5 4408,-48.5 4414,-48.5"/>
<text text-anchor="middle" x="4584" y="-148.3" font-family="Times,serif" font-size="14.00">num: 10</text>
<polyline fill="none" stroke="#ffe9c7" points="4402,-140.5 4766,-140.5 "/>
<text text-anchor="middle" x="4584" y="-125.3" font-family="Times,serif" font-size="14.00">data_type: KeyWord</text>
<polyline fill="none" stroke="#ffe9c7" points="4402,-117.5 4766,-117.5 "/>
<text text-anchor="middle" x="4584" y="-102.3" font-family="Times,serif" font-size="14.00">data: return</text>
<polyline fill="none" stroke="#ffe9c7" points="4402,-94.5 4766,-94.5 "/>
<text text-anchor="middle" x="4584" y="-79.3" font-family="Times,serif" font-size="14.00">curr: 0x503000000310</text>
<polyline fill="none" stroke="#ffe9c7" points="4402,-71.5 4766,-71.5 "/>
<text text-anchor="middle" x="4493" y="-56.3" font-family="Times,serif" font-size="14.00">prev: 0x5030000002e0</text>
<polyline fill="none" stroke="#ffe9c7" points="4584,-48.5 4584,-71.5 "/>
<text text-anchor="middle" x="4675" y="-56.3" font-family="Times,serif" font-size="14.00">next: 0x503000000370</text>
</g>
<!-- node_0x5030000002e0&#45;&gt;node_0x503000000310 -->
<g id="edge21" class="edge">
<title>node_0x5030000002e0&#45;&gt;node_0x503000000310</title>
<path fill="none" stroke="#ff6699" d="M4366.17,-86.67C4366.17,-86.67 4391.84,-86.67 4391.84,-86.67"/>
<polygon fill="#ff6699" stroke="#ff6699" points="4391.84,-90.17 4401.84,-86.67 4391.84,-83.17 4391.84,-90.17"/>
</g>
<!-- node_0x503000000310&#45;&gt;node_0x5030000002e0 -->
<g id="edge24" class="edge">
<title>node_0x503000000310&#45;&gt;node_0x5030000002e0</title>
<path fill="none" stroke="#34cb34" d="M4401.91,-125.33C4401.91,-125.33 4376.18,-125.33 4376.18,-125.33"/>
<polygon fill="#34cb34" stroke="#34cb34" points="4376.18,-121.83 4366.18,-125.33 4376.18,-128.83 4376.18,-121.83"/>
</g>
<!-- node_0x503000000370 -->
<g id="node13" class="node">
<title>node_0x503000000370</title>
<path fill="#34cb34" stroke="#ffe9c7" d="M4814,-48.5C4814,-48.5 5155,-48.5 5155,-48.5 5161,-48.5 5167,-54.5 5167,-60.5 5167,-60.5 5167,-151.5 5167,-151.5 5167,-157.5 5161,-163.5 5155,-163.5 5155,-163.5 4814,-163.5 4814,-163.5 4808,-163.5 4802,-157.5 4802,-151.5 4802,-151.5 4802,-60.5 4802,-60.5 4802,-54.5 4808,-48.5 4814,-48.5"/>
<text text-anchor="middle" x="4984.5" y="-148.3" font-family="Times,serif" font-size="14.00">num: 11</text>
<polyline fill="none" stroke="#ffe9c7" points="4802,-140.5 5167,-140.5 "/>
<text text-anchor="middle" x="4984.5" y="-125.3" font-family="Times,serif" font-size="14.00">data_type: Identifier</text>
<polyline fill="none" stroke="#ffe9c7" points="4802,-117.5 5167,-117.5 "/>
<text text-anchor="middle" x="4984.5" y="-102.3" font-family="Times,serif" font-size="14.00">data: x</text>
<polyline fill="none" stroke="#ffe9c7" points="4802,-94.5 5167,-94.5 "/>
<text text-anchor="middle" x="4984.5" y="-79.3" font-family="Times,serif" font-size="14.00">curr: 0x503000000370</text>
<polyline fill="none" stroke="#ffe9c7" points="4802,-71.5 5167,-71.5 "/>
<text text-anchor="middle" x="4893.5" y="-56.3" font-family="Times,serif" font-size="14.00">prev: 0x503000000310</text>
<polyline fill="none" stroke="#ffe9c7" points="4985,-48.5 4985,-71.5 "/>
<text text-anchor="middle" x="5076" y="-56.3" font-family="Times,serif" font-size="14.00">next: 0x5030000003a0</text>
</g>
<!-- node_0x503000000310&#45;&gt;node_0x503000000370 -->
<g id="edge23" class="edge">
<title>node_0x503000000310&#45;&gt;node_0x503000000370</title>
<path fill="none" stroke="#ff6699" d="M4766.09,-86.67C4766.09,-86.67 4791.82,-86.67 4791.82,-86.67"/>
<polygon fill="#ff6699" stroke="#ff6699" points="4791.82,-90.17 4801.82,-86.67 4791.82,-83.17 4791.82,-90.17"/>
</g>
<!-- node_0x503000000370&#45;&gt;node_0x503000000310 -->
<g id="edge26" class="edge">
<title>node_0x503000000370&#45;&gt;node_0x503000000310</title>
<path fill="none" stroke="#34cb34" d="M4801.83,-125.33C4801.83,-125.33 4776.16,-125.33 4776.16,-125.33"/>
<polygon fill="#34cb34" stroke="#34cb34" points="4776.16,-121.83 4766.16,-125.33 4776.16,-128.83 4776.16,-121.83"/>
</g>
<!-- node_0x5030000003a0 -->
<g id="node14" class="node">
<title>node_0x5030000003a0</title>
<path fill="#9966ff" stroke="#ffe9c7" d="M5215,-48.5C5215,-48.5 5556,-48.5 5556,-48.5 5562,-48.5 5568,-54.5 5568,-60.5 5568,-60.5 5568,-151.5 5568,-151.5 5568,-157.5 5562,-163.5 5556,-163.5 5556,-163.5 5215,-163.5 5215,-163.5 5209,-163.5 5203,-157.5 5203,-151.5 5203,-151.5 5203,-60.5 5203,-60.5 5203,-54.5 5209,-48.5 5215,-48.5"/>
<text text-anchor="middle" x="5385.5" y="-148.3" font-family="Times,serif" font-size="14.00">num: 12</text>
<polyline fill="none" stroke="#ffe9c7" points="5203,-140.5 5568,-140.5 "/>
<text text-anchor="middle" x="5385.5" y="-125.3" font-family="Times,serif" font-size="14.00">data_type: KeyWord</text>
<polyline fill="none" stroke="#ffe9c7" points="5203,-117.5 5568,-117.5 "/>
<text text-anchor="middle" x="5385.5" y="-102.3" font-family="Times,serif" font-size="14.00">data: ;</text>
<polyline fill="none" stroke="#ffe9c7" points="5203,-94.5 5568,-94.5 "/>
<text text-anchor="middle" x="5385.5" y="-79.3" font-family="Times,serif" font-size="14.00">curr: 0x5030000003a0</text>
<polyline fill="none" stroke="#ffe9c7" points="5203,-71.5 5568,-71.5 "/>
<text text-anchor="middle" x="5294.5" y="-56.3" font-family="Times,serif" font-size="14.00">prev: 0x503000000370</text>
<polyline fill="none" stroke="#ffe9c7" points="5386,-48.5 5386,-71.5 "/>
<text text-anchor="middle" x="5477" y="-56.3" font-family="Times,serif" font-size="14.00">next: 0x5030000003d0</text>
</g>
<!-- node_0x503000000370&#45;&gt;node_0x5030000003a0 -->
<g id="edge25" class="edge">
<title>node_0x503000000370&#45;&gt;node_0x5030000003a0</title>
<path fill="none" stroke="#ff6699" d="M5167.11,-86.67C5167.11,-86.67 5192.85,-86.67 5192.85,-86.67"/>
<polygon fill="#ff6699" stroke="#ff6699" points="5192.85,-90.17 5202.85,-86.67 5192.85,-83.17 5192.85,-90.17"/>
</g>
<!-- node_0x5030000003a0&#45;&gt;node_0x503000000370 -->
<g id="edge28" class="edge">
<title>node_0x5030000003a0&#45;&gt;node_0x503000000370</title>
<path fill="none" stroke="#34cb34" d="M5202.89,-125.33C5202.89,-125.33 5177.15,-125.33 5177.15,-125.33"/>
<polygon fill="#34cb34" stroke="#34cb34" points="5177.15,-121.83 5167.15,-125.33 5177.15,-128.83 5177.15,-121.83"/>
</g>
<!-- node_0x5030000003a0&#45;&gt;node_0x5030000003d0 -->
<g id="edge27" class="edge">
<title>node_0x5030000003a0&#45;&gt;node_0x5030000003d0</title>
<path fill="none" stroke="#ff6699" d="M5568.17,-70.67C5568.17,-70.67 5593.84,-70.67 5593.84,-70.67"/>
<polygon fill="#ff6699" stroke="#ff6699" points="5593.84,-74.17 5603.84,-70.67 5593.84,-67.17 5593.84,-74.17"/>
</g>
<!-- node_0x5030000003d0&#45;&gt;node_0x5030000000d0 -->
<g id="edge29" class="edge">
<title>node_0x5030000003d0&#45;&gt;node_0x5030000000d0</title>
<path fill="none" stroke="#ff6699" d="M5603.94,-35.83C5603.94,-35.83 375.2,-35.83 375.2,-35.83"/>
<polygon fill="#ff6699" stroke="#ff6699" points="375.2,-32.33 365.2,-35.83 375.2,-39.33 375.2,-32.33"/>
</g>
<!-- node_0x5030000003d0&#45;&gt;node_0x5030000003a0 -->
<g id="edge30" class="edge">
<title>node_0x5030000003d0&#45;&gt;node_0x5030000003a0</title>
<path fill="none" stroke="#34cb34" d="M5603.91,-93.33C5603.91,-93.33 5578.18,-93.33 5578.18,-93.33"/>
<polygon fill="#34cb34" stroke="#34cb34" points="5578.18,-89.83 5568.18,-93.33 5578.18,-96.83 5578.18,-89.83"/>
</g>
</g>
</svg>
